<?xml version="1.0" encoding="utf-8"?>
<!-- Generator: Adobe Illustrator 23.1.1, SVG Export Plug-In . SVG Version: 6.00 Build 0)  -->
<svg version="1.1" id="Layer_1" xmlns="http://www.w3.org/2000/svg" xmlns:xlink="http://www.w3.org/1999/xlink" x="0px" y="0px"
	 viewBox="0 0 650 320" style="enable-background:new 0 0 650 320;" xml:space="preserve">
<style type="text/css">
	.st0{fill:#80BC00;}
	.st1{fill:#275937;}
	.st2{fill:#E17000;}
	.st3{fill:#39870C;}
	.st4{fill:#FFFFFF;}
	.st5{fill:#666666;}
	.st6{fill:#FF15D4;}
	.st7{fill:none;stroke:#FF15D4;stroke-width:1.4173;stroke-miterlimit:10;stroke-dasharray:6,6;}
	.st8{fill:none;stroke:#FF15D4;stroke-width:1.4173;stroke-miterlimit:10;}
	.st9{fill:none;stroke:#666666;stroke-width:0.9921;stroke-miterlimit:10;}
</style>
<g>
	<g>
		<path class="st0" d="M77.8,75.9c-31.8,0-57.7,25.8-57.7,57.7c0,31.8,25.8,57.7,57.7,57.7c31.8,0,57.7-25.8,57.7-57.7
			C135.4,101.7,109.6,75.9,77.8,75.9z M77.8,173c-21.8,0-39.5-17.7-39.5-39.4c0-21.8,17.7-39.4,39.5-39.4
			c21.8,0,39.4,17.7,39.4,39.4C117.2,155.3,99.6,173,77.8,173z"/>
		<path class="st1" d="M77.8,94.1c-21.8,0-39.5,17.7-39.5,39.4c0,21.8,17.7,39.4,39.5,39.4c21.8,0,39.4-17.7,39.4-39.4
			C117.2,111.7,99.6,94.1,77.8,94.1z"/>
	</g>
	<path class="st2" d="M77.8,153.7c11.2,0,20.2-9.1,20.2-20.2c0-11.2-9.1-20.2-20.2-20.2c-11.2,0-20.2,9.1-20.2,20.2
		C57.5,144.7,66.6,153.7,77.8,153.7L77.8,153.7z"/>
</g>
<g>
	<g>
		<path class="st3" d="M193.8,109.1c-6.3,0-11.1,1.9-14.4,5.7c-3.3,3.7-4.9,9.2-4.9,16.4c0,7.2,1.7,12.7,5,16.5
			c3.3,3.9,8.2,5.8,14.4,5.8c6.3,0,11.1-2,14.4-5.8c3.3-3.8,5-9.4,5-16.5c0-7.2-1.7-12.7-5-16.4C205,111,200.1,109.1,193.8,109.1z
			 M205.6,131.2c0,5.1-1,9.1-3.1,11.7c-2,2.6-4.9,3.8-8.7,3.8c-3.9,0-6.7-1.3-8.7-3.8c-2-2.6-3.1-6.6-3.1-11.7c0-5.1,1-9.1,3-11.6
			c2-2.5,4.8-3.7,8.7-3.7c3.9,0,6.7,1.2,8.7,3.8C204.6,122.1,205.6,126.1,205.6,131.2z"/>
		<path class="st3" d="M259.1,121.5c-2-1.3-4.2-1.9-6.7-1.9c-3.4,0-6.4,1.4-9.2,4.1c-1.7-2.7-4.6-4.1-8.7-4.1
			c-3.1,0-5.9,1.1-8.4,3.3c0-0.1,0-0.1-0.1-0.2c-0.1-0.4-0.2-0.7-0.3-0.9c-0.1-0.3-0.3-0.5-0.5-0.8c-0.2-0.3-0.5-0.5-0.8-0.7
			c-0.6-0.3-1.6-0.4-3.4,0.1c-1.7,0.5-1.9,1.5-1.9,2.1c0,0.1,0,0.3,0.4,2.5c0.2,1,0.3,2.6,0.3,4.9v20.8c0,0.7,0.3,2.4,3.7,2.4
			c3.2,0,3.5-1.7,3.5-2.4v-21.3l0.7-0.7c0.5-0.6,1.2-1.2,2.3-1.8c2-1.1,5-1.3,6.6,0.3c0.8,0.8,1.1,1.9,1.1,3.4v20.1
			c0,0.7,0.3,2.4,3.7,2.4c3.2,0,3.5-1.7,3.5-2.4v-20.5c0-0.3,0-0.6,0-0.9c2.1-2.2,4.1-3.4,6.1-3.4c1.5,0,2.7,0.4,3.4,1.2
			c0.8,0.8,1.1,1.9,1.1,3.4v20.1c0,0.7,0.3,2.4,3.7,2.4c3.2,0,3.5-1.7,3.5-2.4v-20.6c0-2-0.3-3.8-1-5.3
			C261.2,123.4,260.3,122.3,259.1,121.5z"/>
		<path class="st3" d="M296.6,119.9l-10,0c-1.3-0.3-2.6-0.4-4.1-0.4c-4,0-7.2,1.1-9.5,3.2c-2.3,2.1-3.5,4.9-3.5,8.2
			c0,2.1,0.5,4.1,1.5,5.8c0.7,1.1,1.5,2.1,2.5,2.9c-2.6,1.5-3.2,3.5-3.2,5c0,1.4,0.5,3.3,2.4,4.8c-3.5,1.7-5.3,4.2-5.3,7.4
			c0,3.3,1.4,5.7,4.1,7c2.5,1.3,6,1.9,10.7,1.9c4.6,0,8.4-1,11.2-2.8c2.9-2,4.4-4.5,4.4-7.6c0-2.4-0.8-4.5-2.4-6
			c-1.5-1.5-3.4-2.4-5.5-2.9c-2-0.4-4-0.8-6-1c-1.9-0.2-3.5-0.5-4.8-0.9c-0.8-0.2-1.3-0.5-1.3-0.8c0-0.7,1.5-1.2,4-1.4h0.6
			c4,0,7.2-1.1,9.5-3.2c2.3-2.1,3.5-4.9,3.5-8.1c0-1.6-0.3-3.1-1-4.5h2.1c0.5,0,2.3-0.2,2.3-2.9v-0.7
			C298.9,120.1,297.2,119.9,296.6,119.9z M282.6,135.7c-3.8,0-5.5-1.5-5.5-4.8s1.7-4.8,5.5-4.8c3.8,0,5.5,1.5,5.5,4.8
			S286.4,135.7,282.6,135.7z M288.6,158c-1.5,0.8-3.4,1.2-5.9,1.2c-3.5,0-7.8-0.5-7.8-2.9c0-0.8,0.5-1.6,1.4-2.3
			c1-0.8,2.2-1.5,3.5-2c0.6,0.1,1.3,0.2,2.2,0.4c3.7,0.5,6.3,1.1,7.6,1.9c0.6,0.3,0.8,0.7,0.8,1.4
			C290.5,155.9,290.5,156.9,288.6,158z"/>
		<path class="st3" d="M328.9,138.3c0.6-0.9,0.9-1.5,0.9-2.2c0-13.7-7.4-16.6-13.7-16.6c-4.6,0-8.3,1.5-10.8,4.5
			c-2.5,2.9-3.8,7.2-3.8,12.7c0,5.5,1.3,9.8,3.9,12.5c2.6,2.8,6.5,4.2,11.8,4.2c2.9,0,5.6-0.5,7.9-1.4c1.8-0.7,3.9-1.8,3.9-3.5
			c0-0.6-0.3-1.4-0.9-2.4c-0.5-0.7-1.2-1.7-2.3-1.7c-0.3,0-0.5,0.1-1.8,0.7c-2.1,1.2-4.4,1.7-6.9,1.7c-2.6,0-4.5-0.7-5.8-2
			c-1.1-1.2-1.8-2.9-2.1-5.3h17.5C327.9,139.7,328.7,138.6,328.9,138.3z M309.3,133.2c0.8-6.3,4.4-7.1,7-7.1c2.4,0,5.6,0.8,6,7.1
			H309.3z"/>
		<path class="st3" d="M357,119.8c-0.8,0-3.2,0-3.7,1.7l-6.9,20.8l-6.9-20.7c-0.4-1.2-1.5-1.7-3.4-1.7h-0.5c-2.4,0-3.7,0.7-3.7,2.1
			c0,0.3,0.1,0.6,0.2,1.1l9.5,28.5c0.4,1.2,1.5,1.7,3.4,1.7h2.1c1.9,0,3.1-0.6,3.4-1.7l9.5-28.4c0.2-0.5,0.2-0.9,0.2-1.2
			C360.5,121,359.9,119.8,357,119.8z"/>
		<path class="st3" d="M368.8,119.8c-3.2,0-3.5,1.7-3.5,2.4v28.6c0,0.7,0.3,2.4,3.7,2.4c3.2,0,3.5-1.7,3.5-2.4v-28.6
			C372.6,121.5,372.2,119.8,368.8,119.8z"/>
		<path class="st3" d="M369.3,106.3h-0.7c-3.2,0-3.5,1.7-3.5,2.4v3.5c0,0.7,0.3,2.4,3.5,2.4h0.7c3.2,0,3.5-1.7,3.5-2.4v-3.5
			C372.8,108,372.5,106.3,369.3,106.3z"/>
		<path class="st3" d="M395.8,119.6c-3,0-5.7,1.1-8.2,3.3c0-0.1,0-0.2-0.1-0.2c-0.1-0.4-0.2-0.6-0.3-0.9c-0.1-0.3-0.3-0.5-0.5-0.8
			c-0.2-0.3-0.5-0.5-0.8-0.7c-0.6-0.3-1.6-0.4-3.4,0.1c-1.7,0.5-1.9,1.5-1.9,2.1c0,0.1,0,0.3,0.4,2.5c0.2,1,0.3,2.6,0.3,4.9v20.8
			c0,0.7,0.3,2.4,3.7,2.4c3.2,0,3.5-1.7,3.5-2.4v-21.3c1.9-2.3,3.9-3.4,6.3-3.4c1.6,0,2.9,0.4,3.7,1.2c0.8,0.8,1.2,1.9,1.2,3.4v20.1
			c0,0.7,0.3,2.4,3.7,2.4c3.2,0,3.5-1.7,3.5-2.4v-20.6c0-3.3-1-5.9-2.9-7.9C402.1,120.5,399.3,119.6,395.8,119.6z"/>
		<path class="st3" d="M440.7,119.9l-10,0c-1.3-0.3-2.6-0.4-4.1-0.4c-4,0-7.2,1.1-9.5,3.2c-2.3,2.1-3.5,4.9-3.5,8.2
			c0,2.1,0.5,4.1,1.6,5.8c0.7,1.1,1.5,2.1,2.5,2.9c-2.6,1.5-3.2,3.5-3.2,5c0,1.4,0.5,3.3,2.4,4.8c-3.5,1.7-5.3,4.2-5.3,7.4
			c0,3.3,1.4,5.7,4.1,7c2.5,1.3,6,1.9,10.7,1.9c4.6,0,8.4-1,11.2-2.8c2.9-2,4.4-4.5,4.4-7.6c0-2.4-0.8-4.5-2.4-6
			c-1.5-1.5-3.4-2.4-5.5-2.9c-2-0.4-4-0.8-6-1c-1.9-0.2-3.5-0.5-4.8-0.9c-0.8-0.2-1.3-0.5-1.3-0.8c0-0.7,1.5-1.2,4-1.4h0.6
			c4,0,7.2-1.1,9.5-3.2c2.3-2.1,3.5-4.9,3.5-8.1c0-1.6-0.3-3.1-1-4.5h2.1c0.5,0,2.3-0.2,2.3-2.9v-0.7
			C443,120.1,441.2,119.9,440.7,119.9z M426.6,135.7c-3.8,0-5.5-1.5-5.5-4.8s1.7-4.8,5.5-4.8c3.8,0,5.5,1.5,5.5,4.8
			S430.4,135.7,426.6,135.7z M432.6,158c-1.5,0.8-3.4,1.2-5.9,1.2c-3.5,0-7.8-0.5-7.8-2.9c0-0.8,0.4-1.6,1.4-2.3
			c1-0.8,2.2-1.5,3.5-2c0.6,0.1,1.3,0.2,2.2,0.4c3.7,0.5,6.3,1.1,7.6,1.9c0.6,0.3,0.8,0.7,0.8,1.4
			C434.5,155.9,434.5,156.9,432.6,158z"/>
	</g>
	<g>
		<path class="st3" d="M456.4,131.9c-1.9-0.6-2.7-1.1-3.1-1.5c-0.4-0.4-0.7-1-0.7-1.8c0-0.7,0.3-1.3,0.9-1.8
			c1.5-1.1,4.9-1.1,7.3,0.1c0.8,0.4,1,0.5,1.3,0.5c1.1,0,1.8-1,2.2-1.8c0.6-1,0.8-1.8,0.8-2.5c0-1.6-1.8-2.4-3.2-2.8
			c-1.7-0.5-3.6-0.8-5.7-0.8c-3.2,0-5.8,0.9-7.9,2.7c-2.1,1.8-3.1,4.1-3.1,6.8c0,2.7,0.7,4.7,2.1,6.1c1.3,1.3,3.4,2.3,6.2,3.2
			c3.1,0.9,4.3,1.6,4.8,2.1c0.7,0.6,1,1.5,1,2.7c0,1.2-0.4,2.1-1.1,2.8c-0.8,0.7-1.8,1-3.1,1c-1.4,0-2.7-0.2-3.6-0.5
			c-1-0.3-1.8-0.7-2.3-1c-1-0.6-1.2-0.7-1.6-0.7c-1.1,0-1.8,1-2.3,1.7c-0.6,1-0.9,1.7-0.9,2.4c0,1.7,2,2.7,3.7,3.4
			c2.1,0.9,4.6,1.3,7.5,1.3c3,0,5.6-1,7.8-3c2.2-2,3.3-4.6,3.3-7.6c0-3-0.8-5.4-2.3-6.9C462.9,134.5,460.3,133.1,456.4,131.9z"/>
		<path class="st1" d="M484,146.7c-0.2,0-0.4,0-1.1,0.2c-0.4,0.1-0.9,0.1-1.5,0.1c-0.7,0-2.1,0-2.1-3.3v-34.9c0-0.7-0.3-2.4-3.7-2.4
			c-3.2,0-3.5,1.7-3.5,2.4v35.4c0,3.4,0.9,5.8,2.8,7.3c1.8,1.4,3.8,2,6,2c3.6,0,5.5-1,5.5-2.9c0-0.5-0.1-1.2-0.4-2
			C485.5,147,484.7,146.7,484,146.7z"/>
		<path class="st1" d="M503.5,119.6c-4.7,0-8.4,1.5-11,4.5c-2.5,3-3.8,7.2-3.8,12.6c0,5.4,1.3,9.6,3.8,12.4c2.6,2.9,6.3,4.4,11,4.4
			c4.8,0,8.4-1.5,10.9-4.4c2.4-2.9,3.7-7.1,3.7-12.5c0-5.4-1.3-9.6-3.7-12.6C511.8,121.1,508.2,119.6,503.5,119.6z M503.4,126.1
			c2.5,0,4.3,0.8,5.5,2.4c1.2,1.7,1.9,4.4,1.9,8.1c0,3.7-0.6,6.4-1.9,8.1c-1.2,1.6-3,2.4-5.5,2.4c-2.5,0-4.3-0.8-5.4-2.3
			c-1.2-1.7-1.8-4.4-1.8-8.1c0-3.7,0.6-6.4,1.8-8.1C499.1,126.8,500.8,126.1,503.4,126.1z"/>
		<path class="st1" d="M538.1,135.9l10.4-12.3c0.6-0.6,0.9-1.3,0.9-1.9c0-1.3-1.1-1.9-3.4-1.9c-2.1,0-3.3,0.4-4,1.2l-9.6,11.4v-23.7
			c0-0.7-0.3-2.4-3.7-2.4c-3.2,0-3.5,1.7-3.5,2.4v42.1c0,0.7,0.3,2.4,3.7,2.4c3.2,0,3.5-1.7,3.5-2.4v-10.7l10.1,12
			c0.7,0.8,2,1.2,4.3,1.2c1,0,3.7,0,3.7-2c0-0.5-0.3-1.1-0.8-1.7L538.1,135.9z"/>
		<path class="st1" d="M581.5,138.3c0.6-0.9,0.9-1.5,0.9-2.2c0-13.7-7.4-16.6-13.7-16.6c-4.6,0-8.3,1.5-10.8,4.5
			c-2.5,2.9-3.8,7.2-3.8,12.7c0,5.5,1.3,9.8,3.9,12.5c2.6,2.8,6.5,4.2,11.8,4.2c2.9,0,5.6-0.5,7.9-1.4c1.8-0.7,3.9-1.8,3.9-3.5
			c0-0.6-0.3-1.4-0.9-2.4c-0.5-0.7-1.2-1.7-2.3-1.7c-0.3,0-0.5,0.1-1.8,0.7c-2.1,1.2-4.4,1.7-6.9,1.7c-2.6,0-4.5-0.7-5.8-2
			c-1.1-1.2-1.8-2.9-2.1-5.3h17.5C580.4,139.7,581.2,138.6,581.5,138.3z M561.9,133.2c0.8-6.3,4.4-7.1,7-7.1c2.4,0,5.6,0.8,5.9,7.1
			H561.9z"/>
		<path class="st1" d="M603.5,148.6c-0.5-1.6-1.3-1.9-2-1.9c-0.1,0-0.3,0-1.1,0.2c-0.4,0.1-0.9,0.1-1.5,0.1c-0.7,0-2.1,0-2.1-3.3
			v-17.3h3.8c0.5,0,2.3-0.2,2.3-2.9v-0.7c0-2.7-1.8-2.9-2.3-2.9h-3.8v-5.1c0-0.6-0.2-2.4-2.9-2.4h-0.6c-2.6,0-3,1.8-3,2.3l-0.6,5.2
			h-2c-0.5,0-2.3,0.2-2.3,2.9v0.7c0,2.7,1.8,2.9,2.3,2.9h1.8v17.8c0,3.4,0.9,5.8,2.8,7.3c1.8,1.4,3.8,2,6,2c3.6,0,5.5-1,5.5-2.9
			C603.9,150.1,603.7,149.4,603.5,148.6z"/>
	</g>
</g>
<path class="st2" d="M612.5,176.5l-125.2,10.2c-2.4,0.2-4.5-1.7-4.5-4.2v-23.3c0-2.2,1.7-4,3.9-4.2l125.2-10.2
	c2.4-0.2,4.5,1.7,4.5,4.2v23.3C616.4,174.5,614.7,176.3,612.5,176.5z"/>
<g>
	<path class="st4" d="M518,179.2c-0.1-0.1-0.2-0.4-0.2-0.7l0.4-19.5c0-0.3,0.1-0.6,0.2-0.8c0.1-0.2,0.4-0.3,0.7-0.3l5.6-0.5
		c2.1-0.2,3.7,0.1,4.8,0.9c1.2,0.8,1.8,1.9,1.9,3.3c0.1,0.7-0.1,1.5-0.4,2.3c-0.3,0.8-0.7,1.4-1.3,2c-0.6,0.6-1.2,1-1.8,1.3l0,0.1
		c0-0.1,0.4,0,1.1,0.3c0.7,0.3,1.4,0.7,2,1.3c0.6,0.6,1,1.5,1.1,2.5c0.2,2.2-0.5,3.9-1.9,5.2c-1.5,1.2-3.5,2-6.2,2.2l-5.4,0.5
		C518.3,179.4,518.1,179.3,518,179.2z M525,176.5c1.4-0.1,2.5-0.6,3.3-1.5c0.8-0.9,1.1-2,1-3.3c-0.1-1-0.5-1.7-1.3-2.2
		c-0.8-0.5-1.9-0.6-3.4-0.5l-4.1,0.3l-0.2,7.5L525,176.5z M524.3,166.8c0.9-0.1,1.7-0.3,2.3-0.7c0.7-0.4,1.2-1,1.5-1.6
		c0.4-0.7,0.5-1.4,0.4-2.1c-0.1-0.9-0.5-1.6-1.2-2c-0.7-0.4-1.8-0.5-3.1-0.4l-3.5,0.3l-0.1,6.9L524.3,166.8z"/>
	<path class="st4" d="M535.8,177.8c-0.1-0.1-0.2-0.3-0.2-0.5l0.4-19.7c0-0.3,0.1-0.6,0.2-0.7c0.1-0.2,0.4-0.2,0.7-0.3l10.7-0.9
		c0.3,0,0.5,0.2,0.6,0.6l0,0.2c0,0.4,0,0.8-0.1,1.1c-0.1,0.3-0.3,0.4-0.6,0.5l-8.9,0.8l-0.1,7l8-0.7c0.3,0,0.5,0.2,0.6,0.6l0,0.2
		c0,0.4,0,0.8-0.1,1.1c-0.1,0.3-0.3,0.4-0.6,0.4l-8,0.7l-0.1,7.5l9-0.8c0.3,0,0.5,0.2,0.6,0.6l0,0.2c0,0.4,0,0.8-0.1,1.1
		c-0.1,0.3-0.3,0.4-0.6,0.5l-10.7,0.9C536.1,177.9,535.9,177.9,535.8,177.8z"/>
	<path class="st4" d="M557,176c-0.2-0.1-0.3-0.3-0.3-0.5l0.4-18.5l-5.9,0.5c-0.3,0-0.5-0.2-0.6-0.6l0-0.4c0-0.3,0-0.6,0.1-0.9
		c0.1-0.3,0.3-0.4,0.6-0.4l14.3-1.2c0.3,0,0.5,0.2,0.6,0.6l0,0.2c0,0.4,0,0.8-0.1,1c-0.1,0.3-0.3,0.4-0.6,0.4l-5.8,0.5l-0.4,18.5
		c0,0.2-0.1,0.4-0.3,0.5c-0.2,0.1-0.5,0.2-0.9,0.2l-0.2,0C557.4,176.2,557.1,176.1,557,176z"/>
	<path class="st4" d="M565.5,175c0-0.1,0-0.3,0.1-0.5l7.6-20.7c0.1-0.3,0.5-0.5,1.2-0.6l0.9-0.1c0.7-0.1,1.1,0.1,1.2,0.4l6.8,19.5
		c0,0.1,0,0.2,0.1,0.3c0,0.4-0.4,0.6-1.3,0.7l-0.2,0c-0.7,0.1-1.1-0.1-1.2-0.4l-1.7-4.9l-8.9,0.8l-1.8,5.2c-0.1,0.3-0.5,0.5-1.2,0.6
		l-0.2,0C565.9,175.4,565.5,175.3,565.5,175z M578.1,166.6l-3-8.8c-0.2-0.5-0.3-1-0.3-1.7l-0.1,0c-0.2,0.8-0.3,1.4-0.5,1.8l-3.4,9.4
		L578.1,166.6z"/>
</g>
<g>
	<path class="st5" d="M175.7,222c-0.2-0.2-0.3-0.5-0.3-1v-28.2c0-0.5,0.1-0.8,0.3-1c0.2-0.2,0.5-0.3,1-0.3h15.4
		c0.3,0,0.5,0.1,0.7,0.3c0.1,0.2,0.2,0.5,0.2,1v0.7c0,0.5-0.1,0.8-0.2,1s-0.4,0.3-0.7,0.3h-12.8v10h11.5c0.3,0,0.5,0.1,0.7,0.3
		c0.1,0.2,0.2,0.5,0.2,1v0.7c0,0.5-0.1,0.8-0.2,1c-0.1,0.2-0.4,0.3-0.7,0.3h-11.5v10.7h12.8c0.3,0,0.5,0.1,0.7,0.3
		c0.1,0.2,0.2,0.5,0.2,1v0.7c0,0.5-0.1,0.8-0.2,1s-0.4,0.3-0.7,0.3h-15.4C176.2,222.3,175.9,222.2,175.7,222z"/>
	<path class="st5" d="M196.5,222.2c-0.3-0.1-0.4-0.3-0.4-0.6c0-0.2,0.1-0.5,0.4-0.8l7.1-10.3l-6.6-9.8c-0.2-0.3-0.4-0.6-0.4-0.8
		c0-0.5,0.7-0.7,2-0.7h0.4c0.5,0,0.9,0,1.2,0.1s0.5,0.3,0.7,0.5l4.2,6.3c0.2,0.3,0.5,0.8,0.9,1.5c0.4-0.7,0.7-1.2,0.9-1.5l4.2-6.3
		c0.3-0.4,0.9-0.6,2-0.6h0.2c0.6,0,1.1,0.1,1.4,0.2c0.3,0.1,0.4,0.3,0.4,0.6c0,0.2-0.1,0.5-0.4,0.8l-6.6,9.7l7.1,10.4
		c0.2,0.3,0.4,0.6,0.4,0.8c0,0.5-0.7,0.7-2,0.7h-0.4c-0.5,0-0.9,0-1.2-0.1s-0.5-0.3-0.7-0.5l-4.7-7c-0.2-0.3-0.5-0.8-0.9-1.5
		c-0.4,0.7-0.7,1.2-0.9,1.5l-4.8,7c-0.3,0.4-1,0.6-2,0.6h-0.1C197.2,222.4,196.8,222.3,196.5,222.2z"/>
	<path class="st5" d="M222.9,221.2c-1.2-0.9-1.7-2.5-1.7-4.7v-14H219c-0.3,0-0.5-0.1-0.7-0.3c-0.1-0.2-0.2-0.5-0.2-1v-0.5
		c0-0.5,0.1-0.8,0.2-1c0.1-0.2,0.4-0.3,0.7-0.3h2.2l0.5-4.6c0.1-0.6,0.6-1,1.4-1h0.4c0.9,0,1.3,0.3,1.3,1v4.6h3.7
		c0.3,0,0.6,0.1,0.7,0.3c0.1,0.2,0.2,0.5,0.2,1v0.5c0,0.5-0.1,0.8-0.2,1c-0.1,0.2-0.4,0.3-0.7,0.3h-3.7v13.7c0,1.2,0.2,2.1,0.6,2.6
		c0.4,0.5,1,0.7,1.7,0.7c0.6,0,1,0,1.3-0.1c0.3-0.1,0.5-0.1,0.6-0.1c0.3,0,0.5,0.3,0.7,0.8s0.3,1,0.3,1.3c0,0.9-1.1,1.3-3.2,1.3
		C225.4,222.5,224.1,222.1,222.9,221.2z"/>
	<path class="st5" d="M235.5,221.4V206c0-1.9-0.1-3.3-0.3-4.2c-0.2-0.8-0.3-1.3-0.3-1.4c0-0.4,0.3-0.6,0.8-0.8s1.1-0.2,1.5-0.2
		c0.4,0,0.7,0.2,0.9,0.6c0.2,0.4,0.3,0.9,0.4,1.3c0.1,0.5,0.2,0.8,0.2,0.9c1.6-2.2,3.3-3.3,5.1-3.3c0.8,0,1.5,0.2,1.9,0.5
		c0.4,0.3,0.7,0.7,0.7,1.2s-0.1,1-0.3,1.6c-0.2,0.5-0.4,0.8-0.6,0.8c-0.1,0-0.4-0.1-0.9-0.2s-0.9-0.2-1.6-0.2
		c-0.7,0-1.3,0.2-1.9,0.6c-0.6,0.4-1.1,0.8-1.5,1.3c-0.4,0.5-0.6,0.7-0.6,0.8v16.1c0,0.6-0.6,1-1.8,1h-0.2
		C236.1,222.4,235.5,222,235.5,221.4z"/>
	<path class="st5" d="M251.9,220.9c-1.4-1.1-2.1-2.8-2.1-4.9c0-2.3,0.7-4.1,2.1-5.2c1.4-1.2,3.1-1.9,5.1-2.2c2-0.3,4.5-0.5,7.4-0.5
		v-2.1c0-1.1-0.4-2-1.1-2.7c-0.8-0.7-2-1-3.7-1c-1.3,0-2.4,0.2-3.4,0.5c-1,0.3-1.8,0.6-2.4,0.9c-0.6,0.3-1,0.5-1.1,0.5
		c-0.3,0-0.6-0.3-1-0.9c-0.4-0.6-0.6-1-0.6-1.3c0-0.4,0.4-0.8,1.2-1.2c0.8-0.4,1.8-0.8,3.1-1.1c1.3-0.3,2.6-0.5,4-0.5
		c2.7,0,4.9,0.6,6.4,1.8c1.5,1.2,2.3,2.9,2.3,5.1v9.9c0,1.9,0.1,3.3,0.3,4.2c0.2,0.8,0.3,1.3,0.3,1.4c0,0.4-0.3,0.6-0.8,0.8
		c-0.6,0.2-1.1,0.2-1.5,0.2c-0.4,0-0.7-0.2-0.9-0.7c-0.2-0.5-0.3-0.9-0.4-1.4c-0.1-0.5-0.2-0.8-0.2-1c-2,2.2-4.5,3.3-7.4,3.3
		C255.1,222.5,253.2,222,251.9,220.9z M261.2,218.5c1-0.5,2.1-1.3,3.2-2.2v-5.2c-2.2,0-4,0.1-5.4,0.3c-1.4,0.1-2.6,0.6-3.7,1.2
		c-1.1,0.7-1.6,1.7-1.6,3.1c0,1.2,0.3,2.1,0.9,2.7s1.6,0.9,2.8,0.9C258.9,219.3,260.2,219.1,261.2,218.5z"/>
	<path class="st5" d="M288.6,221.2c-1.2-0.9-1.7-2.5-1.7-4.7v-14h-2.2c-0.3,0-0.5-0.1-0.7-0.3c-0.1-0.2-0.2-0.5-0.2-1v-0.5
		c0-0.5,0.1-0.8,0.2-1c0.1-0.2,0.4-0.3,0.7-0.3h2.2l0.5-4.6c0.1-0.6,0.6-1,1.4-1h0.4c0.9,0,1.3,0.3,1.3,1v4.6h3.7
		c0.3,0,0.6,0.1,0.7,0.3c0.1,0.2,0.2,0.5,0.2,1v0.5c0,0.5-0.1,0.8-0.2,1c-0.1,0.2-0.4,0.3-0.7,0.3h-3.7v13.7c0,1.2,0.2,2.1,0.6,2.6
		c0.4,0.5,1,0.7,1.7,0.7c0.6,0,1,0,1.3-0.1c0.3-0.1,0.5-0.1,0.6-0.1c0.3,0,0.5,0.3,0.7,0.8s0.3,1,0.3,1.3c0,0.9-1.1,1.3-3.2,1.3
		C291.1,222.5,289.8,222.1,288.6,221.2z"/>
	<path class="st5" d="M302.3,219.7c-1.8-1.9-2.6-4.8-2.6-8.8c0-3.9,0.9-6.9,2.6-8.9c1.7-2,4.3-3,7.7-3c3,0,5.3,1,6.8,2.9
		c1.5,2,2.3,4.8,2.3,8.6c0,0.3-0.2,0.6-0.5,1.1c-0.4,0.5-0.7,0.7-0.9,0.7h-13.9c0.2,2.4,0.8,4.2,1.9,5.4c1.1,1.1,2.7,1.7,4.9,1.7
		c1.2,0,2.3-0.2,3.2-0.5c0.9-0.3,1.6-0.6,2.2-0.9c0.6-0.3,0.9-0.5,1-0.5c0.3,0,0.6,0.3,1,0.9c0.4,0.6,0.5,1,0.5,1.3
		c0,0.4-0.4,0.8-1.1,1.2s-1.7,0.8-2.9,1.1c-1.2,0.3-2.5,0.5-3.9,0.5C306.8,222.5,304,221.6,302.3,219.7z M315,209.1
		c0-4.6-1.8-7-5.3-7c-3.8,0-5.8,2.3-6.2,7H315z"/>
	<path class="st5" d="M342.2,221.8c0,0.2-0.1,0.4-0.4,0.5c-0.3,0.1-0.8,0.1-1.5,0.1h-0.2c-0.6,0-1.1,0-1.5-0.1
		c-0.4-0.1-0.7-0.2-0.9-0.5l-8.8-10.4h-0.2v10c0,0.6-0.6,1-1.8,1h-0.2c-1.2,0-1.8-0.3-1.8-1v-31.2c0-0.6,0.6-1,1.8-1h0.2
		c1.2,0,1.8,0.3,1.8,1v19.7h0.2l8.4-10c0.3-0.4,1.1-0.6,2.3-0.6h0.2c0.5,0,0.9,0.1,1.1,0.2c0.3,0.1,0.4,0.2,0.4,0.4
		c0,0.3-0.1,0.6-0.4,0.9l-8.2,9.7l9.1,10.7C342.1,221.3,342.2,221.6,342.2,221.8z"/>
	<path class="st5" d="M348.9,222.2c-1.1-0.3-1.9-0.7-2.6-1.1c-0.6-0.4-0.9-0.8-0.9-1.2c0-0.3,0.2-0.7,0.5-1.3c0.4-0.6,0.7-0.9,1-0.9
		c0.1,0,0.3,0.2,0.8,0.5c0.5,0.3,1.1,0.6,1.9,0.9s1.6,0.4,2.5,0.4c2.9,0,4.3-1.2,4.3-3.6c0-1-0.3-1.8-1-2.4
		c-0.6-0.6-1.8-1.1-3.4-1.6c-2.3-0.7-3.9-1.5-4.8-2.5s-1.3-2.4-1.3-4.1c0-1.2,0.3-2.3,0.9-3.3s1.5-1.7,2.6-2.3
		c1.1-0.5,2.4-0.8,3.8-0.8c1.5,0,2.8,0.2,4,0.6c1.2,0.4,1.8,0.8,1.8,1.3c0,0.4-0.2,0.9-0.5,1.5c-0.3,0.6-0.6,0.9-0.9,0.9
		c-0.1,0-0.5-0.2-1.2-0.6c-0.7-0.4-1.6-0.5-2.8-0.5c-1.1,0-2,0.2-2.8,0.7c-0.7,0.5-1.1,1.2-1.1,2c0,1,0.3,1.8,0.8,2.4
		c0.5,0.6,1.4,1.1,2.6,1.5c1.9,0.6,3.3,1.2,4.3,1.7c1,0.6,1.7,1.3,2.1,2.1c0.4,0.8,0.6,1.9,0.6,3.3c0,1.3-0.3,2.5-1,3.5
		c-0.7,1-1.6,1.9-2.8,2.5c-1.2,0.6-2.5,0.9-3.9,0.9C351.1,222.7,350,222.5,348.9,222.2z"/>
	<path class="st5" d="M368.5,221.2c-1.2-0.9-1.7-2.5-1.7-4.7v-14h-2.2c-0.3,0-0.5-0.1-0.7-0.3c-0.1-0.2-0.2-0.5-0.2-1v-0.5
		c0-0.5,0.1-0.8,0.2-1c0.1-0.2,0.4-0.3,0.7-0.3h2.2l0.5-4.6c0.1-0.6,0.6-1,1.4-1h0.4c0.9,0,1.3,0.3,1.3,1v4.6h3.7
		c0.3,0,0.6,0.1,0.7,0.3c0.1,0.2,0.2,0.5,0.2,1v0.5c0,0.5-0.1,0.8-0.2,1c-0.1,0.2-0.4,0.3-0.7,0.3h-3.7v13.7c0,1.2,0.2,2.1,0.6,2.6
		c0.4,0.5,1,0.7,1.7,0.7c0.6,0,1,0,1.3-0.1c0.3-0.1,0.5-0.1,0.6-0.1c0.3,0,0.5,0.3,0.7,0.8s0.3,1,0.3,1.3c0,0.9-1.1,1.3-3.2,1.3
		C371,222.5,369.6,222.1,368.5,221.2z"/>
	<path class="st5" d="M381,221.4V206c0-1.9-0.1-3.3-0.3-4.2c-0.2-0.8-0.3-1.3-0.3-1.4c0-0.4,0.3-0.6,0.8-0.8s1.1-0.2,1.5-0.2
		c0.4,0,0.7,0.2,0.9,0.6c0.2,0.4,0.3,0.9,0.4,1.3c0.1,0.5,0.2,0.8,0.2,0.9c1.6-2.2,3.3-3.3,5.1-3.3c0.8,0,1.5,0.2,1.9,0.5
		c0.4,0.3,0.7,0.7,0.7,1.2s-0.1,1-0.3,1.6c-0.2,0.5-0.4,0.8-0.6,0.8c-0.1,0-0.4-0.1-0.9-0.2s-0.9-0.2-1.6-0.2
		c-0.7,0-1.3,0.2-1.9,0.6c-0.6,0.4-1.1,0.8-1.5,1.3c-0.4,0.5-0.6,0.7-0.6,0.8v16.1c0,0.6-0.6,1-1.8,1h-0.2
		C381.6,222.4,381,222,381,221.4z"/>
	<path class="st5" d="M398.2,219.7c-1.8-1.9-2.6-4.8-2.6-8.8c0-3.9,0.9-6.9,2.6-8.9c1.7-2,4.3-3,7.7-3c3,0,5.3,1,6.8,2.9
		c1.5,2,2.3,4.8,2.3,8.6c0,0.3-0.2,0.6-0.5,1.1c-0.4,0.5-0.7,0.7-0.9,0.7h-13.9c0.2,2.4,0.8,4.2,1.9,5.4c1.1,1.1,2.7,1.7,4.9,1.7
		c1.2,0,2.3-0.2,3.2-0.5c0.9-0.3,1.6-0.6,2.2-0.9c0.6-0.3,0.9-0.5,1-0.5c0.3,0,0.6,0.3,1,0.9c0.4,0.6,0.5,1,0.5,1.3
		c0,0.4-0.4,0.8-1.1,1.2s-1.7,0.8-2.9,1.1c-1.2,0.3-2.5,0.5-3.9,0.5C402.7,222.5,400,221.6,398.2,219.7z M411,209.1
		c0-4.6-1.8-7-5.3-7c-3.8,0-5.8,2.3-6.2,7H411z"/>
	<path class="st5" d="M421.4,230.3c-1.6-0.9-2.4-2.3-2.4-4.1c0-1.3,0.4-2.4,1.1-3.3c0.7-0.9,1.7-1.7,2.9-2.2l0-0.1
		c-1.2-0.9-1.8-2.1-1.8-3.6c0-1.9,0.8-3.4,2.5-4.6c-1.2-0.6-2.2-1.5-2.8-2.6c-0.6-1.1-1-2.3-1-3.7c0-2.1,0.8-3.8,2.3-5.1
		c1.5-1.3,3.7-2,6.4-2c0.9,0,1.8,0.1,2.6,0.3h8c0.3,0,0.6,0.1,0.7,0.3c0.1,0.2,0.2,0.5,0.2,1v0.5c0,0.5-0.1,0.8-0.2,1
		c-0.1,0.2-0.4,0.3-0.7,0.3c-1.2,0-2.2,0-3.1-0.1l0,0.1c0.8,1.1,1.1,2.3,1.1,3.8c0,2.1-0.8,3.8-2.3,5.2c-1.5,1.3-3.6,2-6.4,2
		c-1.4,0-2.4,0.2-3.1,0.7s-1.1,1.3-1.1,2.3c0,0.8,0.2,1.3,0.7,1.7c0.5,0.4,1.1,0.7,1.8,0.9c0.7,0.2,1.8,0.3,3.1,0.5
		c0.6,0.1,1.1,0.1,1.5,0.2c2.1,0.3,3.7,0.8,4.9,1.5c1.2,0.7,1.7,2,1.7,3.8c0,2.1-0.9,3.8-2.6,4.9c-1.7,1.1-4.2,1.7-7.5,1.7
		C425.2,231.6,423,231.2,421.4,230.3z M433.1,227.8c1-0.5,1.5-1.3,1.5-2.5c0-1-0.5-1.7-1.5-2.1c-1-0.4-2.4-0.6-4.4-0.8
		c-1.8-0.2-3-0.4-3.6-0.6c-1.9,0.8-2.9,2-2.9,3.6c0,2.1,2.1,3.2,6.3,3.2C430.6,228.6,432.1,228.4,433.1,227.8z M432.4,209.5
		c1-0.7,1.4-1.7,1.4-3.2c0-2.8-1.8-4.3-5.3-4.3c-3.5,0-5.2,1.4-5.2,4.3c0,2.8,1.7,4.2,5.2,4.2C430.1,210.4,431.4,210.1,432.4,209.5z
		"/>
	<path class="st5" d="M446,219.7c-1.8-1.9-2.6-4.8-2.6-8.8c0-3.9,0.9-6.9,2.6-8.9c1.7-2,4.3-3,7.7-3c3,0,5.3,1,6.8,2.9
		c1.5,2,2.3,4.8,2.3,8.6c0,0.3-0.2,0.6-0.5,1.1c-0.4,0.5-0.7,0.7-0.9,0.7h-13.9c0.2,2.4,0.8,4.2,1.9,5.4c1.1,1.1,2.7,1.7,4.9,1.7
		c1.2,0,2.3-0.2,3.2-0.5c0.9-0.3,1.6-0.6,2.2-0.9c0.6-0.3,0.9-0.5,1-0.5c0.3,0,0.6,0.3,1,0.9c0.4,0.6,0.5,1,0.5,1.3
		c0,0.4-0.4,0.8-1.1,1.2s-1.7,0.8-2.9,1.1c-1.2,0.3-2.5,0.5-3.9,0.5C450.5,222.5,447.7,221.6,446,219.7z M458.7,209.1
		c0-4.6-1.8-7-5.3-7c-3.8,0-5.8,2.3-6.2,7H458.7z"/>
	<path class="st5" d="M470,221.2c-1.2-0.9-1.7-2.5-1.7-4.7v-26.3c0-0.6,0.6-1,1.8-1h0.2c1.2,0,1.8,0.3,1.8,1v26
		c0,1.2,0.2,2.1,0.6,2.6c0.4,0.5,1,0.7,1.7,0.7c0.6,0,1,0,1.3-0.1c0.3-0.1,0.5-0.1,0.6-0.1c0.3,0,0.5,0.3,0.7,0.8
		c0.2,0.5,0.3,1,0.3,1.3c0,0.9-1.1,1.3-3.2,1.3C472.5,222.5,471.1,222.1,470,221.2z"/>
</g>
<g>
</g>
<g>
	<g>
		<path class="st5" d="M51.6,285.2c-0.1,0-0.1-0.1-0.1-0.2c0,0,0.1-0.5,0.2-1.4c0,0,0.1-0.5,0.3-1.5h-1.2c-0.1,0-0.2,0-0.2-0.1
			c-0.1-0.1-0.1-0.2-0.1-0.4v-0.3c0-0.2,0-0.3,0.1-0.4c0.1-0.1,0.1-0.1,0.2-0.1h1.5l0.4-2.4h-1.3c-0.1,0-0.2,0-0.2-0.1
			c-0.1-0.1-0.1-0.2-0.1-0.4v-0.3c0-0.2,0-0.3,0.1-0.4c0.1-0.1,0.1-0.1,0.2-0.1h1.5l0.5-2.7c0-0.1,0.1-0.2,0.2-0.3
			c0.1-0.1,0.3-0.1,0.5-0.1h0.1c0.3,0,0.4,0.1,0.4,0.2l-0.5,2.8h1.9l0.5-2.7c0-0.1,0.1-0.2,0.2-0.3c0.1-0.1,0.3-0.1,0.5-0.1h0.1
			c0.3,0,0.4,0.1,0.4,0.2l-0.5,2.8h1.1c0.1,0,0.2,0,0.2,0.1s0.1,0.2,0.1,0.4v0.3c0,0.2,0,0.3-0.1,0.4c0,0.1-0.1,0.1-0.2,0.1h-1.3
			l-0.4,2.4h1.2c0.1,0,0.2,0,0.2,0.1s0.1,0.2,0.1,0.4v0.3c0,0.2,0,0.3-0.1,0.4c0,0.1-0.1,0.1-0.2,0.1h-1.5l-0.5,2.8
			c0,0.1-0.1,0.2-0.2,0.3c-0.1,0.1-0.3,0.1-0.5,0.1H55c-0.2,0-0.3,0-0.3-0.1c-0.1,0-0.1-0.1-0.1-0.2c0,0,0.1-0.5,0.2-1.4
			c0,0,0.1-0.5,0.3-1.5h-1.9l-0.5,2.8c0,0.1-0.1,0.2-0.2,0.3c-0.1,0.1-0.3,0.1-0.5,0.1h-0.1C51.8,285.3,51.6,285.3,51.6,285.2z
			 M55.3,280.9l0.4-2.4h-1.9l-0.4,2.4H55.3z"/>
		<path class="st5" d="M59.7,285c-0.1-0.1-0.1-0.3-0.1-0.5c0-0.1,0-0.2,0.1-0.3l4.1-5.2c0.3-0.4,0.6-0.8,0.7-1
			c0.2-0.3,0.3-0.5,0.3-0.6c0-0.2,0.1-0.4,0.1-0.6c0-0.5-0.2-0.9-0.5-1.2c-0.4-0.3-0.8-0.4-1.5-0.4c-0.4,0-0.8,0.1-1.1,0.2
			c-0.3,0.1-0.6,0.3-0.9,0.5c-0.2,0.1-0.3,0.2-0.4,0.2c-0.1,0-0.2-0.1-0.3-0.3c-0.1-0.2-0.2-0.4-0.2-0.5c0-0.2,0.2-0.4,0.5-0.6
			c0.3-0.2,0.7-0.3,1.2-0.4c0.5-0.1,0.9-0.2,1.2-0.2c1,0,1.9,0.2,2.5,0.7c0.6,0.5,0.9,1.1,0.9,2c0,0.5-0.1,1-0.2,1.4
			c-0.2,0.4-0.5,0.9-0.9,1.5c-0.5,0.6-1.3,1.6-2.5,3.1l-1.2,1.4H66c0.1,0,0.2,0,0.2,0.1c0,0.1,0.1,0.2,0.1,0.4v0.2
			c0,0.2,0,0.3-0.1,0.4c0,0.1-0.1,0.1-0.2,0.1h-6.1C59.8,285.3,59.8,285.2,59.7,285z"/>
		<path class="st5" d="M69,285.2c-0.1,0-0.2-0.1-0.2-0.2c0,0,0-0.1,0.1-0.2l4.6-9.6h-5c-0.1,0-0.2,0-0.2-0.1
			c-0.1-0.1-0.1-0.2-0.1-0.4v-0.2c0-0.2,0-0.3,0.1-0.4s0.1-0.1,0.2-0.1h6.3c0.1,0,0.1,0.1,0.2,0.3c0.1,0.2,0.1,0.4,0.1,0.5
			c0,0.1,0,0.1,0,0.2l-4.7,10c0,0.1-0.1,0.1-0.2,0.2s-0.2,0.1-0.4,0.1h-0.2C69.3,285.3,69.2,285.3,69,285.2z"/>
		<path class="st5" d="M78.1,285.2c-0.5-0.1-0.8-0.2-1.1-0.4c-0.3-0.1-0.4-0.3-0.4-0.4c0-0.1,0.1-0.3,0.2-0.5s0.3-0.3,0.4-0.3
			c0.1,0,0.2,0,0.4,0.1c0.3,0.1,0.6,0.2,0.9,0.3c0.3,0.1,0.7,0.1,1.1,0.1c0.7,0,1.3-0.2,1.8-0.6c0.5-0.4,0.7-1,0.7-1.7
			c0-0.7-0.2-1.3-0.7-1.6c-0.5-0.4-1.2-0.6-2.1-0.6h-1.4c-0.2,0-0.3,0-0.4-0.1c-0.1-0.1-0.1-0.2-0.1-0.4l0.3-4.6
			c0-0.2,0.1-0.3,0.1-0.4s0.2-0.1,0.4-0.1h4.3c0.1,0,0.2,0,0.2,0.1c0,0.1,0.1,0.2,0.1,0.4v0.2c0,0.2,0,0.3-0.1,0.4
			c0,0.1-0.1,0.1-0.2,0.1H79l-0.2,3.3h0.8c0.6,0,1.3,0.1,1.8,0.3c0.6,0.2,1.1,0.6,1.5,1.1s0.6,1.1,0.6,2c0,1.3-0.4,2.2-1.1,2.7
			s-1.7,0.8-2.7,0.8C79.1,285.3,78.6,285.3,78.1,285.2z"/>
		<path class="st5" d="M86.6,285c-0.1-0.2-0.2-0.4-0.2-0.5c0-0.1,0-0.1,0.1-0.2c1.1-0.4,1.9-1,2.6-1.8s1.1-1.6,1.4-2.5
			c-0.6,0.4-1.3,0.5-2.2,0.5c-0.6,0-1.1-0.1-1.5-0.4c-0.5-0.3-0.8-0.6-1.1-1.1c-0.3-0.5-0.4-1.1-0.4-1.7c0-0.7,0.2-1.2,0.5-1.8
			s0.7-0.9,1.2-1.2c0.5-0.3,1.1-0.4,1.8-0.4c1.1,0,2,0.3,2.5,1c0.6,0.7,0.9,1.7,0.9,3c0,1.4-0.3,2.7-1,3.8c-0.7,1.1-1.4,2-2.3,2.6
			c-0.8,0.6-1.5,0.9-1.9,0.9C86.9,285.3,86.7,285.2,86.6,285z M90.8,278.8c0-0.4,0.1-0.7,0.1-1c0-1-0.2-1.7-0.6-2.1
			c-0.4-0.4-0.9-0.6-1.5-0.6c-0.3,0-0.6,0.1-0.9,0.2c-0.3,0.2-0.6,0.4-0.8,0.7c-0.2,0.3-0.3,0.7-0.3,1.2c0,0.7,0.2,1.3,0.6,1.6
			c0.4,0.4,0.9,0.5,1.5,0.5C89.5,279.4,90.2,279.2,90.8,278.8z"/>
		<path class="st5" d="M95.3,285.2c-0.5-0.1-0.9-0.2-1.2-0.4c-0.3-0.1-0.4-0.3-0.4-0.4c0-0.1,0.1-0.3,0.2-0.5
			c0.1-0.2,0.3-0.3,0.4-0.3c0.1,0,0.2,0,0.4,0.1c0.7,0.3,1.4,0.4,2.1,0.4c0.6,0,1.1-0.2,1.6-0.5c0.5-0.3,0.7-0.9,0.7-1.7
			c0-0.8-0.2-1.3-0.6-1.6c-0.4-0.3-1-0.5-1.8-0.5h-0.5c-0.1,0-0.2,0-0.2-0.1c-0.1-0.1-0.1-0.2-0.1-0.4v-0.2c0-0.2,0-0.3,0.1-0.4
			c0.1-0.1,0.1-0.1,0.2-0.1h0.5c0.5,0,0.9-0.1,1.2-0.3c0.3-0.2,0.5-0.5,0.7-0.8c0.1-0.3,0.2-0.6,0.2-0.9c0-0.4-0.1-0.7-0.4-1.1
			s-0.8-0.5-1.5-0.5c-0.4,0-0.8,0-1.1,0.1c-0.3,0.1-0.6,0.2-0.8,0.3c-0.2,0.1-0.3,0.1-0.4,0.1c-0.1,0-0.2-0.1-0.3-0.3
			c-0.1-0.2-0.2-0.4-0.2-0.5c0-0.2,0.3-0.4,1-0.6s1.3-0.3,1.9-0.3c1,0,1.8,0.2,2.4,0.7c0.6,0.5,0.9,1.2,0.9,2.1c0,0.5-0.2,1-0.5,1.4
			c-0.3,0.4-0.7,0.7-1.2,0.8v0.1c0.5,0.1,1,0.5,1.4,1c0.4,0.5,0.6,1.2,0.6,2c0,0.8-0.2,1.4-0.5,1.9c-0.4,0.5-0.8,0.9-1.4,1.1
			s-1.1,0.3-1.7,0.3C96.4,285.3,95.8,285.3,95.3,285.2z"/>
		<path class="st5" d="M103.3,285.2c-0.1,0-0.2-0.1-0.2-0.2c0,0,0-0.1,0.1-0.2l4.6-9.6h-5c-0.1,0-0.2,0-0.2-0.1
			c-0.1-0.1-0.1-0.2-0.1-0.4v-0.2c0-0.2,0-0.3,0.1-0.4s0.1-0.1,0.2-0.1h6.3c0.1,0,0.1,0.1,0.2,0.3c0.1,0.2,0.1,0.4,0.1,0.5
			c0,0.1,0,0.1,0,0.2l-4.7,10c0,0.1-0.1,0.1-0.2,0.2s-0.2,0.1-0.4,0.1h-0.2C103.6,285.3,103.4,285.3,103.3,285.2z"/>
	</g>
	<path class="st1" d="M37.4,291.3H22.8c-2.2,0-4-1.8-4-4v-14.7c0-2.2,1.8-4,4-4h14.7c2.2,0,4,1.8,4,4v14.7
		C41.4,289.5,39.6,291.3,37.4,291.3z"/>
</g>
<g>
	<g>
		<path class="st5" d="M182.3,285.1c-0.1,0-0.1-0.1-0.1-0.2c0,0,0.1-0.5,0.2-1.4c0,0,0.1-0.5,0.3-1.5h-1.2c-0.1,0-0.2,0-0.2-0.1
			c-0.1-0.1-0.1-0.2-0.1-0.4v-0.3c0-0.2,0-0.3,0.1-0.4c0.1-0.1,0.1-0.1,0.2-0.1h1.5l0.4-2.4h-1.3c-0.1,0-0.2,0-0.2-0.1
			c-0.1-0.1-0.1-0.2-0.1-0.4v-0.3c0-0.2,0-0.3,0.1-0.4c0.1-0.1,0.1-0.1,0.2-0.1h1.5l0.5-2.7c0-0.1,0.1-0.2,0.2-0.3
			c0.1-0.1,0.3-0.1,0.5-0.1h0.1c0.3,0,0.4,0.1,0.4,0.2l-0.5,2.8h1.9l0.5-2.7c0-0.1,0.1-0.2,0.2-0.3c0.1-0.1,0.3-0.1,0.5-0.1h0.1
			c0.3,0,0.4,0.1,0.4,0.2l-0.5,2.8h1.1c0.1,0,0.2,0,0.2,0.1s0.1,0.2,0.1,0.4v0.3c0,0.2,0,0.3-0.1,0.4c0,0.1-0.1,0.1-0.2,0.1h-1.3
			l-0.4,2.4h1.2c0.1,0,0.2,0,0.2,0.1s0.1,0.2,0.1,0.4v0.3c0,0.2,0,0.3-0.1,0.4c0,0.1-0.1,0.1-0.2,0.1H187l-0.5,2.8
			c0,0.1-0.1,0.2-0.2,0.3c-0.1,0.1-0.3,0.1-0.5,0.1h-0.1c-0.2,0-0.3,0-0.3-0.1c-0.1,0-0.1-0.1-0.1-0.2c0,0,0.1-0.5,0.2-1.4
			c0,0,0.1-0.5,0.3-1.5h-1.9l-0.5,2.8c0,0.1-0.1,0.2-0.2,0.3c-0.1,0.1-0.3,0.1-0.5,0.1h-0.1C182.5,285.1,182.4,285.1,182.3,285.1z
			 M186,280.7l0.4-2.4h-1.9l-0.4,2.4H186z"/>
		<path class="st5" d="M191.8,285c-0.5-0.1-0.9-0.2-1.2-0.4c-0.3-0.1-0.4-0.3-0.4-0.4c0-0.1,0.1-0.3,0.2-0.5
			c0.1-0.2,0.3-0.3,0.4-0.3c0.1,0,0.2,0,0.4,0.1c0.7,0.3,1.4,0.4,2.1,0.4c0.6,0,1.1-0.2,1.6-0.5c0.5-0.3,0.7-0.9,0.7-1.7
			c0-0.8-0.2-1.3-0.6-1.6c-0.4-0.3-1-0.5-1.8-0.5h-0.5c-0.1,0-0.2,0-0.2-0.1c-0.1-0.1-0.1-0.2-0.1-0.4v-0.2c0-0.2,0-0.3,0.1-0.4
			c0.1-0.1,0.1-0.1,0.2-0.1h0.5c0.5,0,0.9-0.1,1.2-0.3c0.3-0.2,0.5-0.5,0.7-0.8c0.1-0.3,0.2-0.6,0.2-0.9c0-0.4-0.1-0.7-0.4-1.1
			s-0.8-0.5-1.5-0.5c-0.4,0-0.8,0-1.1,0.1c-0.3,0.1-0.6,0.2-0.8,0.3c-0.2,0.1-0.3,0.1-0.4,0.1c-0.1,0-0.2-0.1-0.3-0.3
			c-0.1-0.2-0.2-0.4-0.2-0.5c0-0.2,0.3-0.4,1-0.6s1.3-0.3,1.9-0.3c1,0,1.8,0.2,2.4,0.7c0.6,0.5,0.9,1.2,0.9,2.1c0,0.5-0.2,1-0.5,1.4
			c-0.3,0.4-0.7,0.7-1.2,0.8v0.1c0.5,0.1,1,0.5,1.4,1c0.4,0.5,0.6,1.2,0.6,2c0,0.8-0.2,1.4-0.5,1.9c-0.4,0.5-0.8,0.9-1.4,1.1
			s-1.1,0.3-1.7,0.3C192.8,285.2,192.3,285.1,191.8,285z"/>
		<path class="st5" d="M200.2,284.8c-0.1-0.2-0.2-0.4-0.2-0.5c0-0.1,0-0.1,0.1-0.2c1.1-0.4,1.9-1,2.6-1.8s1.1-1.6,1.4-2.5
			c-0.6,0.4-1.3,0.5-2.2,0.5c-0.6,0-1.1-0.1-1.5-0.4c-0.5-0.3-0.8-0.6-1.1-1.1c-0.3-0.5-0.4-1.1-0.4-1.7c0-0.7,0.2-1.2,0.5-1.8
			s0.7-0.9,1.2-1.2c0.5-0.3,1.1-0.4,1.8-0.4c1.1,0,2,0.3,2.5,1c0.6,0.7,0.9,1.7,0.9,3c0,1.4-0.3,2.7-1,3.8c-0.7,1.1-1.4,2-2.3,2.6
			c-0.8,0.6-1.5,0.9-1.9,0.9C200.5,285.1,200.3,285,200.2,284.8z M204.4,278.7c0-0.4,0.1-0.7,0.1-1c0-1-0.2-1.7-0.6-2.1
			c-0.4-0.4-0.9-0.6-1.5-0.6c-0.3,0-0.6,0.1-0.9,0.2c-0.3,0.2-0.6,0.4-0.8,0.7c-0.2,0.3-0.3,0.7-0.3,1.2c0,0.7,0.2,1.3,0.6,1.6
			c0.4,0.4,0.9,0.5,1.5,0.5C203.1,279.2,203.8,279,204.4,278.7z"/>
		<path class="st5" d="M208.4,284.3c-0.6-0.6-1-1.4-1-2.5c0-0.8,0.2-1.4,0.5-1.8c0.3-0.4,0.7-0.8,1.3-1c-0.4-0.2-0.7-0.6-1-1
			s-0.4-0.9-0.4-1.5c0-0.9,0.3-1.6,0.9-2c0.6-0.5,1.3-0.7,2.2-0.7c0.9,0,1.6,0.2,2.2,0.7c0.6,0.5,0.9,1.2,0.9,2c0,1.1-0.5,2-1.6,2.4
			c0.6,0.3,1.1,0.6,1.4,1s0.5,1,0.5,1.8c0,1.1-0.3,1.9-1,2.5c-0.6,0.6-1.5,0.8-2.5,0.8C209.9,285.2,209,284.9,208.4,284.3z
			 M212.4,283.5c0.4-0.4,0.6-0.9,0.6-1.6c0-0.4-0.1-0.8-0.3-1.1c-0.2-0.3-0.4-0.5-0.7-0.6c-0.3-0.1-0.7-0.3-1.2-0.5l-0.5-0.2
			c-0.5,0.3-0.8,0.6-1.1,1s-0.4,0.8-0.4,1.4c0,0.7,0.2,1.2,0.6,1.6s0.9,0.6,1.5,0.6C211.5,284,212,283.8,212.4,283.5z M212.7,276.6
			c0-0.5-0.2-0.9-0.5-1.2c-0.3-0.3-0.7-0.4-1.2-0.4c-0.5,0-0.9,0.1-1.2,0.4s-0.5,0.7-0.5,1.2c0,0.4,0.1,0.7,0.3,1s0.4,0.4,0.7,0.6
			s0.6,0.3,1.1,0.4C212.2,278,212.7,277.4,212.7,276.6z"/>
		<path class="st5" d="M216.9,285.1c-0.1,0-0.2-0.1-0.2-0.2c0,0,0-0.1,0.1-0.2l4.6-9.6h-5c-0.1,0-0.2,0-0.2-0.1
			c-0.1-0.1-0.1-0.2-0.1-0.4v-0.2c0-0.2,0-0.3,0.1-0.4s0.1-0.1,0.2-0.1h6.3c0.1,0,0.1,0.1,0.2,0.3c0.1,0.2,0.1,0.4,0.1,0.5
			c0,0.1,0,0.1,0,0.2l-4.7,10c0,0.1-0.1,0.1-0.2,0.2s-0.2,0.1-0.4,0.1h-0.2C217.2,285.1,217,285.1,216.9,285.1z"/>
		<path class="st5" d="M226.2,284.6c-0.5-0.4-1-1-1.3-1.9c-0.3-0.9-0.5-1.9-0.5-3.2s0.2-2.3,0.5-3.2c0.3-0.9,0.8-1.5,1.3-1.9
			c0.5-0.4,1.2-0.6,1.8-0.6s1.3,0.2,1.8,0.6c0.6,0.4,1,1,1.3,1.9s0.5,1.9,0.5,3.2s-0.2,2.3-0.5,3.2s-0.8,1.5-1.3,1.9
			c-0.6,0.4-1.2,0.6-1.8,0.6S226.7,285,226.2,284.6z M229.1,283.6c0.3-0.3,0.6-0.8,0.8-1.5c0.2-0.7,0.3-1.5,0.3-2.6
			c0-1.1-0.1-1.9-0.3-2.6c-0.2-0.7-0.5-1.2-0.8-1.5c-0.3-0.3-0.7-0.5-1.1-0.5c-0.4,0-0.8,0.2-1.1,0.5c-0.3,0.3-0.6,0.8-0.8,1.5
			s-0.3,1.6-0.3,2.6c0,1.1,0.1,1.9,0.3,2.6s0.5,1.2,0.8,1.5c0.3,0.3,0.7,0.5,1.1,0.5C228.4,284,228.8,283.9,229.1,283.6z"/>
		<path class="st5" d="M234.1,284.2c-0.7-0.7-1-1.8-1-3.3c0-1.5,0.4-2.6,1.1-3.3c0.7-0.7,1.6-1,2.7-1c0.6,0,1.2,0.1,1.7,0.2
			c0.5,0.1,0.7,0.3,0.7,0.5c0,0.1-0.1,0.3-0.2,0.5c-0.1,0.2-0.2,0.3-0.3,0.3c0,0,0,0-0.1,0c0,0-0.1,0-0.1,0
			c-0.6-0.3-1.2-0.4-1.7-0.4c-1.5,0-2.3,1-2.3,3.1c0,1.1,0.2,1.9,0.6,2.4c0.4,0.5,1,0.8,1.9,0.8c0.7,0,1.3-0.1,1.8-0.4l0.2-0.1
			c0.1,0,0.2,0.1,0.4,0.3s0.2,0.4,0.2,0.5s-0.1,0.3-0.3,0.4c-0.2,0.1-0.5,0.2-0.9,0.3c-0.4,0.1-0.8,0.1-1.2,0.1
			C235.7,285.2,234.8,284.8,234.1,284.2z"/>
	</g>
	<path class="st3" d="M168.1,291.3h-14.7c-2.2,0-4-1.8-4-4v-14.7c0-2.2,1.8-4,4-4h14.7c2.2,0,4,1.8,4,4v14.7
		C172.1,289.5,170.3,291.3,168.1,291.3z"/>
</g>
<g>
	<g>
		<path class="st5" d="M442.6,286c-0.1,0-0.1-0.1-0.1-0.2c0,0,0.1-0.5,0.2-1.4c0,0,0.1-0.5,0.3-1.5h-1.2c-0.1,0-0.2,0-0.2-0.1
			c-0.1-0.1-0.1-0.2-0.1-0.4v-0.3c0-0.2,0-0.3,0.1-0.4c0.1-0.1,0.1-0.1,0.2-0.1h1.5l0.4-2.4h-1.3c-0.1,0-0.2,0-0.2-0.1
			c-0.1-0.1-0.1-0.2-0.1-0.4v-0.3c0-0.2,0-0.3,0.1-0.4c0.1-0.1,0.1-0.1,0.2-0.1h1.5l0.5-2.7c0-0.1,0.1-0.2,0.2-0.3
			c0.1-0.1,0.3-0.1,0.5-0.1h0.1c0.3,0,0.4,0.1,0.4,0.2l-0.5,2.8h1.9l0.5-2.7c0-0.1,0.1-0.2,0.2-0.3c0.1-0.1,0.3-0.1,0.5-0.1h0.1
			c0.3,0,0.4,0.1,0.4,0.2l-0.5,2.8h1.1c0.1,0,0.2,0,0.2,0.1s0.1,0.2,0.1,0.4v0.3c0,0.2,0,0.3-0.1,0.4c0,0.1-0.1,0.1-0.2,0.1h-1.3
			l-0.4,2.4h1.2c0.1,0,0.2,0,0.2,0.1s0.1,0.2,0.1,0.4v0.3c0,0.2,0,0.3-0.1,0.4c0,0.1-0.1,0.1-0.2,0.1h-1.5l-0.5,2.8
			c0,0.1-0.1,0.2-0.2,0.3c-0.1,0.1-0.3,0.1-0.5,0.1H446c-0.2,0-0.3,0-0.3-0.1c-0.1,0-0.1-0.1-0.1-0.2c0,0,0.1-0.5,0.2-1.4
			c0,0,0.1-0.5,0.3-1.5h-1.9l-0.5,2.8c0,0.1-0.1,0.2-0.2,0.3c-0.1,0.1-0.3,0.1-0.5,0.1h-0.1C442.8,286,442.7,286,442.6,286z
			 M446.3,281.6l0.4-2.4h-1.9l-0.4,2.4H446.3z"/>
		<path class="st5" d="M451.7,285.1c-0.6-0.7-1-1.8-1-3.2c0-1.4,0.3-2.5,0.9-3.2c0.6-0.7,1.6-1.1,2.8-1.1c1.1,0,1.9,0.4,2.5,1.1
			c0.6,0.7,0.8,1.7,0.8,3.1c0,0.1-0.1,0.2-0.2,0.4s-0.2,0.3-0.3,0.3h-5.1c0.1,0.9,0.3,1.5,0.7,2s1,0.6,1.8,0.6
			c0.4,0,0.8-0.1,1.2-0.2c0.3-0.1,0.6-0.2,0.8-0.3c0.2-0.1,0.3-0.2,0.4-0.2c0.1,0,0.2,0.1,0.4,0.3c0.1,0.2,0.2,0.4,0.2,0.5
			c0,0.1-0.1,0.3-0.4,0.4c-0.3,0.2-0.6,0.3-1.1,0.4c-0.4,0.1-0.9,0.2-1.4,0.2C453.3,286.1,452.3,285.8,451.7,285.1z M456.3,281.2
			c0-1.7-0.6-2.5-1.9-2.5c-1.4,0-2.1,0.8-2.2,2.5H456.3z"/>
		<path class="st5" d="M459.2,285.9c-0.1-0.1-0.1-0.2-0.1-0.4v-0.2c0-0.2,0-0.3,0.1-0.4c0.1-0.1,0.1-0.1,0.2-0.1h2.8v-8.6l-2.8,0.5
			c-0.1,0-0.2-0.1-0.2-0.3c-0.1-0.2-0.1-0.4-0.1-0.5c0-0.2,0.1-0.3,0.3-0.3l3.7-0.8c0.1,0,0.2,0,0.3,0.1c0.1,0.1,0.2,0.1,0.2,0.2
			v9.7h2.4c0.1,0,0.2,0,0.2,0.1c0,0.1,0.1,0.2,0.1,0.4v0.2c0,0.2,0,0.3-0.1,0.4c0,0.1-0.1,0.1-0.2,0.1h-6.5
			C459.3,286,459.3,286,459.2,285.9z"/>
		<path class="st5" d="M468.7,286c-0.1,0-0.2-0.1-0.2-0.2c0,0,0-0.1,0.1-0.2l4.6-9.6h-5c-0.1,0-0.2,0-0.2-0.1
			c-0.1-0.1-0.1-0.2-0.1-0.4v-0.2c0-0.2,0-0.3,0.1-0.4s0.1-0.1,0.2-0.1h6.3c0.1,0,0.1,0.1,0.2,0.3c0.1,0.2,0.1,0.4,0.1,0.5
			c0,0.1,0,0.1,0,0.2l-4.7,10c0,0.1-0.1,0.1-0.2,0.2s-0.2,0.1-0.4,0.1h-0.2C469,286,468.8,286,468.7,286z"/>
		<path class="st5" d="M478,285.5c-0.5-0.4-1-1-1.3-1.9c-0.3-0.9-0.5-1.9-0.5-3.2s0.2-2.3,0.5-3.2c0.3-0.9,0.8-1.5,1.3-1.9
			c0.5-0.4,1.2-0.6,1.8-0.6s1.3,0.2,1.8,0.6c0.6,0.4,1,1,1.3,1.9s0.5,1.9,0.5,3.2s-0.2,2.3-0.5,3.2s-0.8,1.5-1.3,1.9
			c-0.6,0.4-1.2,0.6-1.8,0.6S478.5,285.9,478,285.5z M481,284.5c0.3-0.3,0.6-0.8,0.8-1.5c0.2-0.7,0.3-1.5,0.3-2.6
			c0-1.1-0.1-1.9-0.3-2.6c-0.2-0.7-0.5-1.2-0.8-1.5c-0.3-0.3-0.7-0.5-1.1-0.5c-0.4,0-0.8,0.2-1.1,0.5c-0.3,0.3-0.6,0.8-0.8,1.5
			s-0.3,1.6-0.3,2.6c0,1.1,0.1,1.9,0.3,2.6s0.5,1.2,0.8,1.5c0.3,0.3,0.7,0.5,1.1,0.5C480.2,285,480.6,284.8,481,284.5z"/>
		<path class="st5" d="M486.5,285.5c-0.5-0.4-1-1-1.3-1.9c-0.3-0.9-0.5-1.9-0.5-3.2s0.2-2.3,0.5-3.2c0.3-0.9,0.8-1.5,1.3-1.9
			c0.5-0.4,1.2-0.6,1.8-0.6s1.3,0.2,1.8,0.6c0.6,0.4,1,1,1.3,1.9s0.5,1.9,0.5,3.2s-0.2,2.3-0.5,3.2s-0.8,1.5-1.3,1.9
			c-0.6,0.4-1.2,0.6-1.8,0.6S487.1,285.9,486.5,285.5z M489.5,284.5c0.3-0.3,0.6-0.8,0.8-1.5c0.2-0.7,0.3-1.5,0.3-2.6
			c0-1.1-0.1-1.9-0.3-2.6c-0.2-0.7-0.5-1.2-0.8-1.5c-0.3-0.3-0.7-0.5-1.1-0.5c-0.4,0-0.8,0.2-1.1,0.5c-0.3,0.3-0.6,0.8-0.8,1.5
			s-0.3,1.6-0.3,2.6c0,1.1,0.1,1.9,0.3,2.6s0.5,1.2,0.8,1.5c0.3,0.3,0.7,0.5,1.1,0.5C488.8,285,489.2,284.8,489.5,284.5z"/>
		<path class="st5" d="M495.1,285.5c-0.5-0.4-1-1-1.3-1.9c-0.3-0.9-0.5-1.9-0.5-3.2s0.2-2.3,0.5-3.2c0.3-0.9,0.8-1.5,1.3-1.9
			c0.5-0.4,1.2-0.6,1.8-0.6s1.3,0.2,1.8,0.6c0.6,0.4,1,1,1.3,1.9s0.5,1.9,0.5,3.2s-0.2,2.3-0.5,3.2s-0.8,1.5-1.3,1.9
			c-0.6,0.4-1.2,0.6-1.8,0.6S495.7,285.9,495.1,285.5z M498.1,284.5c0.3-0.3,0.6-0.8,0.8-1.5c0.2-0.7,0.3-1.5,0.3-2.6
			c0-1.1-0.1-1.9-0.3-2.6c-0.2-0.7-0.5-1.2-0.8-1.5c-0.3-0.3-0.7-0.5-1.1-0.5c-0.4,0-0.8,0.2-1.1,0.5c-0.3,0.3-0.6,0.8-0.8,1.5
			s-0.3,1.6-0.3,2.6c0,1.1,0.1,1.9,0.3,2.6s0.5,1.2,0.8,1.5c0.3,0.3,0.7,0.5,1.1,0.5C497.3,285,497.7,284.8,498.1,284.5z"/>
	</g>
	<path class="st2" d="M428.2,291.3h-14.7c-2.2,0-4-1.8-4-4v-14.7c0-2.2,1.8-4,4-4h14.7c2.2,0,4,1.8,4,4v14.7
		C432.2,289.5,430.5,291.3,428.2,291.3z"/>
</g>
<g>
	<g>
		<path class="st5" d="M574.7,285.2c-0.1,0-0.1-0.1-0.1-0.2c0,0,0.1-0.5,0.2-1.4c0,0,0.1-0.5,0.3-1.5h-1.2c-0.1,0-0.2,0-0.2-0.1
			c-0.1-0.1-0.1-0.2-0.1-0.4v-0.3c0-0.2,0-0.3,0.1-0.4c0.1-0.1,0.1-0.1,0.2-0.1h1.5l0.4-2.4h-1.3c-0.1,0-0.2,0-0.2-0.1
			c-0.1-0.1-0.1-0.2-0.1-0.4v-0.3c0-0.2,0-0.3,0.1-0.4c0.1-0.1,0.1-0.1,0.2-0.1h1.5l0.5-2.7c0-0.1,0.1-0.2,0.2-0.3
			c0.1-0.1,0.3-0.1,0.5-0.1h0.1c0.3,0,0.4,0.1,0.4,0.2l-0.5,2.8h1.9l0.5-2.7c0-0.1,0.1-0.2,0.2-0.3c0.1-0.1,0.3-0.1,0.5-0.1h0.1
			c0.3,0,0.4,0.1,0.4,0.2l-0.5,2.8h1.1c0.1,0,0.2,0,0.2,0.1s0.1,0.2,0.1,0.4v0.3c0,0.2,0,0.3-0.1,0.4c0,0.1-0.1,0.1-0.2,0.1H580
			l-0.4,2.4h1.2c0.1,0,0.2,0,0.2,0.1s0.1,0.2,0.1,0.4v0.3c0,0.2,0,0.3-0.1,0.4c0,0.1-0.1,0.1-0.2,0.1h-1.5l-0.5,2.8
			c0,0.1-0.1,0.2-0.2,0.3c-0.1,0.1-0.3,0.1-0.5,0.1h-0.1c-0.2,0-0.3,0-0.3-0.1c-0.1,0-0.1-0.1-0.1-0.2c0,0,0.1-0.5,0.2-1.4
			c0,0,0.1-0.5,0.3-1.5h-1.9l-0.5,2.8c0,0.1-0.1,0.2-0.2,0.3c-0.1,0.1-0.3,0.1-0.5,0.1H575C574.8,285.3,574.7,285.3,574.7,285.2z
			 M578.4,280.9l0.4-2.4h-1.9l-0.4,2.4H578.4z"/>
		<path class="st5" d="M583.6,284.3c-0.6-0.7-0.9-1.7-0.9-3c0-1.4,0.3-2.7,1-3.8c0.7-1.1,1.4-2,2.3-2.6s1.5-0.9,1.9-0.9
			c0.1,0,0.3,0.1,0.4,0.3c0.1,0.2,0.2,0.4,0.2,0.5c0,0.1,0,0.1-0.1,0.2c-1.1,0.4-1.9,1-2.6,1.8c-0.7,0.7-1.1,1.6-1.4,2.5
			c0.6-0.4,1.3-0.5,2.2-0.5c0.6,0,1.1,0.1,1.5,0.4s0.8,0.6,1.1,1.1c0.3,0.5,0.4,1.1,0.4,1.7c0,0.7-0.2,1.2-0.5,1.8
			c-0.3,0.5-0.7,0.9-1.2,1.2c-0.5,0.3-1.1,0.4-1.8,0.4C585,285.3,584.1,285,583.6,284.3z M587.1,283.9c0.3-0.2,0.6-0.4,0.8-0.7
			c0.2-0.3,0.3-0.7,0.3-1.2c0-0.7-0.2-1.3-0.6-1.6c-0.4-0.4-0.9-0.5-1.5-0.5c-0.7,0-1.4,0.2-2,0.5c0,0.4-0.1,0.7-0.1,1
			c0,1,0.2,1.7,0.6,2.1c0.4,0.4,0.9,0.6,1.5,0.6C586.5,284.2,586.8,284.1,587.1,283.9z"/>
		<path class="st5" d="M592.1,284.3c-0.6-0.7-0.9-1.7-0.9-3c0-1.4,0.3-2.7,1-3.8c0.7-1.1,1.4-2,2.3-2.6s1.5-0.9,1.9-0.9
			c0.1,0,0.3,0.1,0.4,0.3c0.1,0.2,0.2,0.4,0.2,0.5c0,0.1,0,0.1-0.1,0.2c-1.1,0.4-1.9,1-2.6,1.8c-0.7,0.7-1.1,1.6-1.4,2.5
			c0.6-0.4,1.3-0.5,2.2-0.5c0.6,0,1.1,0.1,1.5,0.4s0.8,0.6,1.1,1.1c0.3,0.5,0.4,1.1,0.4,1.7c0,0.7-0.2,1.2-0.5,1.8
			c-0.3,0.5-0.7,0.9-1.2,1.2c-0.5,0.3-1.1,0.4-1.8,0.4C593.5,285.3,592.7,285,592.1,284.3z M595.7,283.9c0.3-0.2,0.6-0.4,0.8-0.7
			c0.2-0.3,0.3-0.7,0.3-1.2c0-0.7-0.2-1.3-0.6-1.6c-0.4-0.4-0.9-0.5-1.5-0.5c-0.7,0-1.4,0.2-2,0.5c0,0.4-0.1,0.7-0.1,1
			c0,1,0.2,1.7,0.6,2.1c0.4,0.4,0.9,0.6,1.5,0.6C595,284.2,595.4,284.1,595.7,283.9z"/>
		<path class="st5" d="M600.7,284.3c-0.6-0.7-0.9-1.7-0.9-3c0-1.4,0.3-2.7,1-3.8c0.7-1.1,1.4-2,2.3-2.6s1.5-0.9,1.9-0.9
			c0.1,0,0.3,0.1,0.4,0.3c0.1,0.2,0.2,0.4,0.2,0.5c0,0.1,0,0.1-0.1,0.2c-1.1,0.4-1.9,1-2.6,1.8c-0.7,0.7-1.1,1.6-1.4,2.5
			c0.6-0.4,1.3-0.5,2.2-0.5c0.6,0,1.1,0.1,1.5,0.4s0.8,0.6,1.1,1.1c0.3,0.5,0.4,1.1,0.4,1.7c0,0.7-0.2,1.2-0.5,1.8
			c-0.3,0.5-0.7,0.9-1.2,1.2c-0.5,0.3-1.1,0.4-1.8,0.4C602.1,285.3,601.2,285,600.7,284.3z M604.2,283.9c0.3-0.2,0.6-0.4,0.8-0.7
			c0.2-0.3,0.3-0.7,0.3-1.2c0-0.7-0.2-1.3-0.6-1.6c-0.4-0.4-0.9-0.5-1.5-0.5c-0.7,0-1.4,0.2-2,0.5c0,0.4-0.1,0.7-0.1,1
			c0,1,0.2,1.7,0.6,2.1c0.4,0.4,0.9,0.6,1.5,0.6C603.6,284.2,603.9,284.1,604.2,283.9z"/>
		<path class="st5" d="M609.2,284.3c-0.6-0.7-0.9-1.7-0.9-3c0-1.4,0.3-2.7,1-3.8c0.7-1.1,1.4-2,2.3-2.6s1.5-0.9,1.9-0.9
			c0.1,0,0.3,0.1,0.4,0.3c0.1,0.2,0.2,0.4,0.2,0.5c0,0.1,0,0.1-0.1,0.2c-1.1,0.4-1.9,1-2.6,1.8c-0.7,0.7-1.1,1.6-1.4,2.5
			c0.6-0.4,1.3-0.5,2.2-0.5c0.6,0,1.1,0.1,1.5,0.4s0.8,0.6,1.1,1.1c0.3,0.5,0.4,1.1,0.4,1.7c0,0.7-0.2,1.2-0.5,1.8
			c-0.3,0.5-0.7,0.9-1.2,1.2c-0.5,0.3-1.1,0.4-1.8,0.4C610.7,285.3,609.8,285,609.2,284.3z M612.8,283.9c0.3-0.2,0.6-0.4,0.8-0.7
			c0.2-0.3,0.3-0.7,0.3-1.2c0-0.7-0.2-1.3-0.6-1.6c-0.4-0.4-0.9-0.5-1.5-0.5c-0.7,0-1.4,0.2-2,0.5c0,0.4-0.1,0.7-0.1,1
			c0,1,0.2,1.7,0.6,2.1c0.4,0.4,0.9,0.6,1.5,0.6C612.2,284.2,612.5,284.1,612.8,283.9z"/>
		<path class="st5" d="M617.8,284.3c-0.6-0.7-0.9-1.7-0.9-3c0-1.4,0.3-2.7,1-3.8c0.7-1.1,1.4-2,2.3-2.6s1.5-0.9,1.9-0.9
			c0.1,0,0.3,0.1,0.4,0.3c0.1,0.2,0.2,0.4,0.2,0.5c0,0.1,0,0.1-0.1,0.2c-1.1,0.4-1.9,1-2.6,1.8c-0.7,0.7-1.1,1.6-1.4,2.5
			c0.6-0.4,1.3-0.5,2.2-0.5c0.6,0,1.1,0.1,1.5,0.4s0.8,0.6,1.1,1.1c0.3,0.5,0.4,1.1,0.4,1.7c0,0.7-0.2,1.2-0.5,1.8
			c-0.3,0.5-0.7,0.9-1.2,1.2c-0.5,0.3-1.1,0.4-1.8,0.4C619.2,285.3,618.4,285,617.8,284.3z M621.3,283.9c0.3-0.2,0.6-0.4,0.8-0.7
			c0.2-0.3,0.3-0.7,0.3-1.2c0-0.7-0.2-1.3-0.6-1.6c-0.4-0.4-0.9-0.5-1.5-0.5c-0.7,0-1.4,0.2-2,0.5c0,0.4-0.1,0.7-0.1,1
			c0,1,0.2,1.7,0.6,2.1c0.4,0.4,0.9,0.6,1.5,0.6C620.7,284.2,621,284.1,621.3,283.9z"/>
		<path class="st5" d="M626.4,284.3c-0.6-0.7-0.9-1.7-0.9-3c0-1.4,0.3-2.7,1-3.8c0.7-1.1,1.4-2,2.3-2.6s1.5-0.9,1.9-0.9
			c0.1,0,0.3,0.1,0.4,0.3c0.1,0.2,0.2,0.4,0.2,0.5c0,0.1,0,0.1-0.1,0.2c-1.1,0.4-1.9,1-2.6,1.8c-0.7,0.7-1.1,1.6-1.4,2.5
			c0.6-0.4,1.3-0.5,2.2-0.5c0.6,0,1.1,0.1,1.5,0.4s0.8,0.6,1.1,1.1c0.3,0.5,0.4,1.1,0.4,1.7c0,0.7-0.2,1.2-0.5,1.8
			c-0.3,0.5-0.7,0.9-1.2,1.2c-0.5,0.3-1.1,0.4-1.8,0.4C627.8,285.3,626.9,285,626.4,284.3z M629.9,283.9c0.3-0.2,0.6-0.4,0.8-0.7
			c0.2-0.3,0.3-0.7,0.3-1.2c0-0.7-0.2-1.3-0.6-1.6c-0.4-0.4-0.9-0.5-1.5-0.5c-0.7,0-1.4,0.2-2,0.5c0,0.4-0.1,0.7-0.1,1
			c0,1,0.2,1.7,0.6,2.1c0.4,0.4,0.9,0.6,1.5,0.6C629.3,284.2,629.6,284.1,629.9,283.9z"/>
	</g>
	<path class="st5" d="M556.9,291.3h-14.7c-2.2,0-4-1.8-4-4v-14.7c0-2.2,1.8-4,4-4h14.7c2.2,0,4,1.8,4,4v14.7
		C560.9,289.5,559.1,291.3,556.9,291.3z"/>
</g>
<g>
	<path class="st6" d="M310.3,43.4c-0.1-0.2-0.1-0.3-0.1-0.5c0-0.2,0-0.3,0.1-0.3l4.6-5.8c0.4-0.5,0.6-0.9,0.8-1.2s0.3-0.5,0.3-0.7
		c0-0.2,0.1-0.4,0.1-0.7c0-0.6-0.2-1-0.6-1.4c-0.4-0.3-1-0.5-1.6-0.5c-0.5,0-0.9,0.1-1.3,0.2s-0.7,0.3-1,0.5
		c-0.2,0.1-0.4,0.2-0.4,0.2c-0.1,0-0.2-0.1-0.4-0.4c-0.1-0.2-0.2-0.4-0.2-0.5c0-0.2,0.2-0.5,0.6-0.7c0.4-0.2,0.8-0.4,1.3-0.5
		c0.5-0.1,1-0.2,1.4-0.2c1.2,0,2.1,0.3,2.8,0.8c0.7,0.5,1,1.3,1,2.2c0,0.6-0.1,1.1-0.3,1.6c-0.2,0.5-0.5,1-1,1.7
		c-0.5,0.7-1.4,1.8-2.8,3.5l-1.3,1.6h5.2c0.1,0,0.2,0,0.3,0.1c0.1,0.1,0.1,0.2,0.1,0.4v0.2c0,0.2,0,0.3-0.1,0.4
		c-0.1,0.1-0.1,0.1-0.3,0.1h-6.9C310.5,43.6,310.4,43.6,310.3,43.4z"/>
	<path class="st6" d="M321.4,43.6c-0.5-0.1-0.9-0.3-1.2-0.4s-0.4-0.3-0.4-0.5c0-0.2,0.1-0.4,0.2-0.6c0.2-0.2,0.3-0.3,0.4-0.3
		c0.1,0,0.2,0.1,0.5,0.2c0.3,0.2,0.7,0.3,1,0.4c0.3,0.1,0.7,0.1,1.2,0.1c0.8,0,1.4-0.2,2-0.7s0.8-1.1,0.8-2c0-0.8-0.3-1.4-0.8-1.8
		c-0.6-0.4-1.4-0.6-2.4-0.6h-1.5c-0.2,0-0.3,0-0.4-0.1c-0.1-0.1-0.1-0.2-0.1-0.4l0.3-5.2c0-0.2,0.1-0.3,0.2-0.4
		c0.1-0.1,0.2-0.1,0.4-0.1h4.8c0.1,0,0.2,0,0.3,0.1c0.1,0.1,0.1,0.2,0.1,0.4v0.2c0,0.2,0,0.3-0.1,0.4c-0.1,0.1-0.1,0.1-0.3,0.1h-3.9
		l-0.2,3.7h0.9c0.7,0,1.4,0.1,2.1,0.4s1.2,0.6,1.6,1.2c0.4,0.6,0.6,1.3,0.6,2.2c0,1.4-0.4,2.4-1.3,3s-1.9,0.9-3.1,0.9
		C322.5,43.7,322,43.7,321.4,43.6z"/>
	<path class="st6" d="M330.5,42.5c-0.6-0.8-1-1.9-1-3.4c0-1.6,0.4-3,1.1-4.2s1.6-2.2,2.6-2.9c1-0.7,1.7-1.1,2.2-1.1
		c0.2,0,0.3,0.1,0.4,0.4c0.1,0.2,0.2,0.4,0.2,0.6c0,0.1,0,0.2-0.1,0.2c-1.2,0.5-2.2,1.1-2.9,2c-0.7,0.8-1.3,1.8-1.6,2.8
		c0.7-0.4,1.5-0.6,2.4-0.6c0.6,0,1.2,0.2,1.7,0.5c0.5,0.3,0.9,0.7,1.2,1.3c0.3,0.6,0.5,1.2,0.5,1.9c0,0.7-0.2,1.4-0.5,2
		c-0.3,0.6-0.8,1-1.4,1.3c-0.6,0.3-1.2,0.5-2,0.5C332.1,43.7,331.1,43.3,330.5,42.5z M334.5,42.2c0.3-0.2,0.6-0.4,0.9-0.8
		c0.2-0.4,0.4-0.8,0.4-1.3c0-0.8-0.2-1.4-0.7-1.8s-1-0.6-1.7-0.6c-0.8,0-1.5,0.2-2.2,0.6c0,0.5-0.1,0.8-0.1,1.1
		c0,1.1,0.2,1.9,0.7,2.4s1,0.7,1.7,0.7C333.8,42.4,334.1,42.3,334.5,42.2z"/>
	<path class="st6" d="M339.8,47V37c0-0.8,0-1.4-0.1-1.7c-0.1-0.3-0.1-0.5-0.1-0.6c0-0.1,0.1-0.2,0.3-0.3c0.2-0.1,0.4-0.1,0.6-0.1
		c0.2,0,0.3,0.1,0.4,0.3c0.1,0.2,0.1,0.4,0.2,0.5s0.1,0.3,0.1,0.4c0.9-0.9,1.8-1.4,2.9-1.4c0.7,0,1.4,0.2,1.9,0.6
		c0.5,0.4,0.9,1,1.2,1.7s0.4,1.6,0.4,2.5c0,1-0.2,1.9-0.5,2.6c-0.3,0.7-0.7,1.3-1.3,1.6c-0.6,0.4-1.2,0.6-1.9,0.6
		c-0.5,0-1-0.1-1.4-0.2c-0.4-0.2-0.8-0.4-1.2-0.7V47c0,0.3-0.2,0.4-0.7,0.4h-0.1C340,47.4,339.8,47.2,339.8,47z M345.3,41.5
		c0.4-0.6,0.6-1.4,0.6-2.5c0-1.2-0.2-2.1-0.6-2.7c-0.4-0.6-0.9-0.9-1.6-0.9c-0.4,0-0.8,0.1-1.3,0.3c-0.4,0.2-0.8,0.5-1.2,0.9v4.9
		c0.6,0.5,1.4,0.8,2.2,0.8C344.3,42.4,344.9,42.1,345.3,41.5z"/>
	<path class="st6" d="M349.1,43.6c-0.1,0-0.2-0.1-0.2-0.2c0-0.1,0-0.2,0.1-0.3l2.9-4.2l-2.7-4c-0.1-0.1-0.1-0.2-0.1-0.3
		c0-0.2,0.3-0.3,0.8-0.3h0.2c0.2,0,0.4,0,0.5,0.1s0.2,0.1,0.3,0.2l1.7,2.6c0.1,0.1,0.2,0.3,0.4,0.6c0.2-0.3,0.3-0.5,0.4-0.6l1.7-2.6
		c0.1-0.2,0.4-0.3,0.8-0.3h0.1c0.3,0,0.5,0,0.6,0.1c0.1,0,0.2,0.1,0.2,0.2c0,0.1,0,0.2-0.1,0.3l-2.7,4l2.9,4.3
		c0.1,0.1,0.1,0.2,0.1,0.3c0,0.2-0.3,0.3-0.8,0.3h-0.2c-0.2,0-0.4,0-0.5-0.1s-0.2-0.1-0.3-0.2l-1.9-2.9c-0.1-0.1-0.2-0.3-0.4-0.6
		c-0.2,0.3-0.3,0.5-0.4,0.6l-1.9,2.9c-0.1,0.2-0.4,0.3-0.8,0.3h-0.1C349.4,43.7,349.2,43.6,349.1,43.6z"/>
</g>
<line class="st7" x1="174.4" y1="94.1" x2="174.4" y2="243.1"/>
<g>
	<g>
		<line class="st8" x1="35.2" y1="22.8" x2="588.5" y2="22.8"/>
		<g>
			<polygon class="st6" points="38,26.9 22.6,22.8 38,18.7 			"/>
		</g>
		<g>
			<polygon class="st6" points="585.7,26.9 601.1,22.8 585.7,18.7 			"/>
		</g>
	</g>
</g>
<line class="st7" x1="603.6" y1="32.3" x2="603.6" y2="133.5"/>
<line class="st7" x1="20.1" y1="32.3" x2="20.1" y2="133.5"/>
<line class="st7" x1="144.6" y1="153.7" x2="293.7" y2="153.7"/>
<line class="st7" x1="144.6" y1="222.9" x2="293.7" y2="222.9"/>
<g>
	<g>
		<line class="st8" x1="153.9" y1="209.2" x2="153.9" y2="168.1"/>
		<g>
			<polygon class="st6" points="158,206.4 153.9,221.7 149.8,206.4 			"/>
		</g>
		<g>
			<polygon class="st6" points="158,170.9 153.9,155.6 149.8,170.9 			"/>
		</g>
	</g>
</g>
<g>
	<path class="st6" d="M113.4,200.9c-0.6-0.1-1-0.2-1.3-0.4c-0.3-0.2-0.5-0.3-0.5-0.5c0-0.2,0.1-0.4,0.2-0.6s0.3-0.3,0.4-0.3
		c0.1,0,0.3,0,0.5,0.1c0.8,0.3,1.5,0.5,2.3,0.5c0.7,0,1.3-0.2,1.8-0.6s0.8-1,0.8-1.9c0-0.9-0.2-1.5-0.7-1.8c-0.5-0.4-1.1-0.5-2-0.5
		h-0.6c-0.1,0-0.2,0-0.3-0.1c-0.1-0.1-0.1-0.2-0.1-0.4v-0.2c0-0.2,0-0.3,0.1-0.4c0.1-0.1,0.2-0.1,0.3-0.1h0.5c0.6,0,1-0.1,1.4-0.4
		c0.4-0.3,0.6-0.6,0.8-0.9c0.2-0.4,0.2-0.7,0.2-1c0-0.4-0.2-0.8-0.5-1.2c-0.3-0.4-0.9-0.5-1.7-0.5c-0.5,0-0.9,0-1.3,0.1
		c-0.3,0.1-0.6,0.2-0.9,0.3c-0.2,0.1-0.3,0.1-0.4,0.1c-0.1,0-0.2-0.1-0.4-0.4c-0.1-0.2-0.2-0.4-0.2-0.6c0-0.3,0.4-0.5,1.1-0.7
		c0.8-0.2,1.5-0.3,2.1-0.3c1.1,0,2,0.3,2.6,0.8s1,1.3,1,2.4c0,0.6-0.2,1.1-0.5,1.5c-0.4,0.4-0.8,0.8-1.3,1v0.1
		c0.6,0.2,1.1,0.5,1.6,1.1s0.7,1.3,0.7,2.2c0,0.9-0.2,1.6-0.6,2.1c-0.4,0.6-0.9,1-1.5,1.2c-0.6,0.3-1.2,0.4-1.9,0.4
		C114.6,201.1,113.9,201,113.4,200.9z"/>
	<path class="st6" d="M122.3,199.9c-0.6-0.8-1-1.9-1-3.4c0-1.6,0.4-3,1.1-4.2s1.6-2.2,2.6-2.9s1.7-1.1,2.2-1.1
		c0.2,0,0.3,0.1,0.4,0.4c0.1,0.2,0.2,0.4,0.2,0.6c0,0.1,0,0.2-0.1,0.2c-1.2,0.5-2.2,1.1-2.9,2s-1.3,1.8-1.6,2.8
		c0.7-0.4,1.5-0.6,2.4-0.6c0.6,0,1.2,0.2,1.7,0.5c0.5,0.3,0.9,0.7,1.2,1.3c0.3,0.6,0.5,1.2,0.5,1.9c0,0.7-0.2,1.4-0.5,2
		c-0.3,0.6-0.8,1-1.4,1.3c-0.6,0.3-1.2,0.5-2,0.5C123.9,201.1,123,200.7,122.3,199.9z M126.3,199.5c0.3-0.2,0.6-0.4,0.9-0.8
		c0.2-0.4,0.4-0.8,0.4-1.3c0-0.8-0.2-1.4-0.7-1.8c-0.5-0.4-1-0.6-1.7-0.6c-0.8,0-1.5,0.2-2.2,0.6c0,0.5-0.1,0.8-0.1,1.1
		c0,1.1,0.2,1.9,0.7,2.4c0.5,0.5,1,0.7,1.7,0.7C125.6,199.8,126,199.7,126.3,199.5z"/>
	<path class="st6" d="M131.6,204.3v-10c0-0.8,0-1.4-0.1-1.7c-0.1-0.3-0.1-0.5-0.1-0.6c0-0.1,0.1-0.2,0.3-0.3
		c0.2-0.1,0.4-0.1,0.6-0.1c0.2,0,0.3,0.1,0.4,0.3s0.1,0.4,0.2,0.5s0.1,0.3,0.1,0.4c0.9-0.9,1.8-1.4,2.9-1.4c0.7,0,1.4,0.2,1.9,0.6
		c0.5,0.4,0.9,1,1.2,1.7c0.3,0.7,0.4,1.6,0.4,2.5c0,1-0.2,1.9-0.5,2.6s-0.7,1.3-1.3,1.6s-1.2,0.6-1.9,0.6c-0.5,0-1-0.1-1.4-0.2
		c-0.4-0.2-0.8-0.4-1.2-0.7v4.2c0,0.3-0.2,0.4-0.7,0.4h-0.1C131.8,204.7,131.6,204.6,131.6,204.3z M137.2,198.9
		c0.4-0.6,0.6-1.4,0.6-2.5c0-1.2-0.2-2.1-0.6-2.7s-0.9-0.9-1.6-0.9c-0.4,0-0.8,0.1-1.3,0.3c-0.4,0.2-0.8,0.5-1.2,0.9v4.9
		c0.6,0.5,1.4,0.8,2.2,0.8C136.1,199.7,136.7,199.5,137.2,198.9z"/>
	<path class="st6" d="M140.9,200.9c-0.1,0-0.2-0.1-0.2-0.2c0-0.1,0-0.2,0.1-0.3l2.9-4.2l-2.7-4c-0.1-0.1-0.1-0.2-0.1-0.3
		c0-0.2,0.3-0.3,0.8-0.3h0.2c0.2,0,0.4,0,0.5,0.1c0.1,0,0.2,0.1,0.3,0.2l1.7,2.6c0.1,0.1,0.2,0.3,0.4,0.6c0.2-0.3,0.3-0.5,0.4-0.6
		l1.7-2.6c0.1-0.2,0.4-0.3,0.8-0.3h0.1c0.3,0,0.5,0,0.6,0.1c0.1,0,0.2,0.1,0.2,0.2c0,0.1,0,0.2-0.1,0.3l-2.7,4l2.9,4.3
		c0.1,0.1,0.1,0.2,0.1,0.3c0,0.2-0.3,0.3-0.8,0.3h-0.2c-0.2,0-0.4,0-0.5-0.1c-0.1,0-0.2-0.1-0.3-0.2l-1.9-2.9
		c-0.1-0.1-0.2-0.3-0.4-0.6c-0.2,0.3-0.3,0.5-0.4,0.6l-1.9,2.9c-0.1,0.2-0.4,0.3-0.8,0.3h-0.1C141.2,201,141,201,140.9,200.9z"/>
</g>
<g>
	<g>
		<path class="st5" d="M312.3,285.1c-0.1,0-0.1-0.1-0.1-0.2c0,0,0.1-0.5,0.2-1.4c0,0,0.1-0.5,0.3-1.5h-1.2c-0.1,0-0.2,0-0.2-0.1
			c-0.1-0.1-0.1-0.2-0.1-0.4v-0.3c0-0.2,0-0.3,0.1-0.4c0.1-0.1,0.1-0.1,0.2-0.1h1.5l0.4-2.4h-1.3c-0.1,0-0.2,0-0.2-0.1
			c-0.1-0.1-0.1-0.2-0.1-0.4v-0.3c0-0.2,0-0.3,0.1-0.4c0.1-0.1,0.1-0.1,0.2-0.1h1.5l0.5-2.7c0-0.1,0.1-0.2,0.2-0.3
			c0.1-0.1,0.3-0.1,0.5-0.1h0.1c0.3,0,0.4,0.1,0.4,0.2l-0.5,2.8h1.9l0.5-2.7c0-0.1,0.1-0.2,0.2-0.3c0.1-0.1,0.3-0.1,0.5-0.1h0.1
			c0.3,0,0.4,0.1,0.4,0.2l-0.5,2.8h1.1c0.1,0,0.2,0,0.2,0.1s0.1,0.2,0.1,0.4v0.3c0,0.2,0,0.3-0.1,0.4c0,0.1-0.1,0.1-0.2,0.1h-1.3
			l-0.4,2.4h1.2c0.1,0,0.2,0,0.2,0.1s0.1,0.2,0.1,0.4v0.3c0,0.2,0,0.3-0.1,0.4c0,0.1-0.1,0.1-0.2,0.1H317l-0.5,2.8
			c0,0.1-0.1,0.2-0.2,0.3c-0.1,0.1-0.3,0.1-0.5,0.1h-0.1c-0.2,0-0.3,0-0.3-0.1c-0.1,0-0.1-0.1-0.1-0.2c0,0,0.1-0.5,0.2-1.4
			c0,0,0.1-0.5,0.3-1.5h-1.9l-0.5,2.8c0,0.1-0.1,0.2-0.2,0.3c-0.1,0.1-0.3,0.1-0.5,0.1h-0.1C312.5,285.1,312.4,285.1,312.3,285.1z
			 M316.1,280.7l0.4-2.4h-1.9l-0.4,2.4H316.1z"/>
		<path class="st5" d="M321.3,284.3c-0.6-0.6-1-1.4-1-2.5c0-0.8,0.2-1.4,0.5-1.8c0.3-0.4,0.7-0.8,1.3-1c-0.4-0.2-0.7-0.6-1-1
			s-0.4-0.9-0.4-1.5c0-0.9,0.3-1.6,0.9-2c0.6-0.5,1.3-0.7,2.2-0.7c0.9,0,1.6,0.2,2.2,0.7c0.6,0.5,0.9,1.2,0.9,2c0,1.1-0.5,2-1.6,2.4
			c0.6,0.3,1.1,0.6,1.4,1s0.5,1,0.5,1.8c0,1.1-0.3,1.9-1,2.5c-0.6,0.6-1.5,0.8-2.5,0.8C322.8,285.2,322,284.9,321.3,284.3z
			 M325.3,283.5c0.4-0.4,0.6-0.9,0.6-1.6c0-0.4-0.1-0.8-0.3-1.1c-0.2-0.3-0.4-0.5-0.7-0.6c-0.3-0.1-0.7-0.3-1.2-0.5l-0.5-0.2
			c-0.5,0.3-0.8,0.6-1.1,1s-0.4,0.8-0.4,1.4c0,0.7,0.2,1.2,0.6,1.6s0.9,0.6,1.5,0.6C324.4,284,324.9,283.8,325.3,283.5z
			 M325.6,276.6c0-0.5-0.2-0.9-0.5-1.2c-0.3-0.3-0.7-0.4-1.2-0.4c-0.5,0-0.9,0.1-1.2,0.4s-0.5,0.7-0.5,1.2c0,0.4,0.1,0.7,0.3,1
			s0.4,0.4,0.7,0.6s0.6,0.3,1.1,0.4C325.1,278,325.6,277.4,325.6,276.6z"/>
		<path class="st5" d="M330.5,284.6c-0.5-0.4-1-1-1.3-1.9c-0.3-0.9-0.5-1.9-0.5-3.2s0.2-2.3,0.5-3.2c0.3-0.9,0.8-1.5,1.3-1.9
			c0.5-0.4,1.2-0.6,1.8-0.6s1.3,0.2,1.8,0.6c0.6,0.4,1,1,1.3,1.9s0.5,1.9,0.5,3.2s-0.2,2.3-0.5,3.2s-0.8,1.5-1.3,1.9
			c-0.6,0.4-1.2,0.6-1.8,0.6S331.1,285,330.5,284.6z M333.5,283.6c0.3-0.3,0.6-0.8,0.8-1.5c0.2-0.7,0.3-1.5,0.3-2.6
			c0-1.1-0.1-1.9-0.3-2.6c-0.2-0.7-0.5-1.2-0.8-1.5c-0.3-0.3-0.7-0.5-1.1-0.5c-0.4,0-0.8,0.2-1.1,0.5c-0.3,0.3-0.6,0.8-0.8,1.5
			s-0.3,1.6-0.3,2.6c0,1.1,0.1,1.9,0.3,2.6s0.5,1.2,0.8,1.5c0.3,0.3,0.7,0.5,1.1,0.5C332.8,284,333.2,283.9,333.5,283.6z"/>
		<path class="st5" d="M339.3,284c-0.1,0.3-0.1,0.6-0.3,0.9c-0.1,0.1-0.2,0.2-0.4,0.2h-0.1c-0.3,0-0.5-0.1-0.5-0.4v-11.4
			c0-0.2,0.2-0.4,0.6-0.4h0.1c0.4,0,0.6,0.1,0.6,0.4v4c0.3-0.3,0.7-0.5,1-0.6s0.8-0.2,1.2-0.2c0.6,0,1.2,0.2,1.7,0.5
			c0.5,0.3,0.9,0.8,1.1,1.5c0.3,0.6,0.4,1.4,0.4,2.3c0,0.8-0.1,1.6-0.4,2.2c-0.3,0.7-0.6,1.2-1.1,1.5c-0.5,0.4-1,0.5-1.6,0.5
			C340.9,285.2,340,284.8,339.3,284z M343,283.2c0.3-0.6,0.5-1.4,0.5-2.4c0-1-0.2-1.7-0.5-2.2c-0.4-0.5-0.9-0.8-1.6-0.8
			c-0.4,0-0.7,0.1-1,0.2c-0.3,0.1-0.7,0.3-0.9,0.5v4.4c0.3,0.4,0.7,0.6,1,0.8c0.4,0.2,0.7,0.3,1.1,0.3
			C342.2,284,342.6,283.7,343,283.2z"/>
		<path class="st5" d="M347.6,284.2c-0.7-0.7-1-1.8-1-3.3c0-1.5,0.4-2.6,1.1-3.3c0.7-0.7,1.6-1,2.7-1c0.6,0,1.2,0.1,1.7,0.2
			c0.5,0.1,0.7,0.3,0.7,0.5c0,0.1-0.1,0.3-0.2,0.5c-0.1,0.2-0.2,0.3-0.3,0.3c0,0,0,0-0.1,0c0,0-0.1,0-0.1,0
			c-0.6-0.3-1.2-0.4-1.7-0.4c-1.5,0-2.3,1-2.3,3.1c0,1.1,0.2,1.9,0.6,2.4c0.4,0.5,1,0.8,1.9,0.8c0.7,0,1.3-0.1,1.8-0.4l0.2-0.1
			c0.1,0,0.2,0.1,0.4,0.3s0.2,0.4,0.2,0.5s-0.1,0.3-0.3,0.4c-0.2,0.1-0.5,0.2-0.9,0.3c-0.4,0.1-0.8,0.1-1.2,0.1
			C349.2,285.2,348.2,284.8,347.6,284.2z"/>
		<path class="st5" d="M356,284.6c-0.5-0.4-1-1-1.3-1.9c-0.3-0.9-0.5-1.9-0.5-3.2s0.2-2.3,0.5-3.2c0.3-0.9,0.8-1.5,1.3-1.9
			c0.5-0.4,1.2-0.6,1.8-0.6s1.3,0.2,1.8,0.6c0.6,0.4,1,1,1.3,1.9s0.5,1.9,0.5,3.2s-0.2,2.3-0.5,3.2s-0.8,1.5-1.3,1.9
			c-0.6,0.4-1.2,0.6-1.8,0.6S356.5,285,356,284.6z M358.9,283.6c0.3-0.3,0.6-0.8,0.8-1.5c0.2-0.7,0.3-1.5,0.3-2.6
			c0-1.1-0.1-1.9-0.3-2.6c-0.2-0.7-0.5-1.2-0.8-1.5c-0.3-0.3-0.7-0.5-1.1-0.5c-0.4,0-0.8,0.2-1.1,0.5c-0.3,0.3-0.6,0.8-0.8,1.5
			s-0.3,1.6-0.3,2.6c0,1.1,0.1,1.9,0.3,2.6s0.5,1.2,0.8,1.5c0.3,0.3,0.7,0.5,1.1,0.5C358.2,284,358.6,283.9,358.9,283.6z"/>
		<path class="st5" d="M364.5,284.6c-0.5-0.4-1-1-1.3-1.9c-0.3-0.9-0.5-1.9-0.5-3.2s0.2-2.3,0.5-3.2c0.3-0.9,0.8-1.5,1.3-1.9
			c0.5-0.4,1.2-0.6,1.8-0.6s1.3,0.2,1.8,0.6c0.6,0.4,1,1,1.3,1.9s0.5,1.9,0.5,3.2s-0.2,2.3-0.5,3.2s-0.8,1.5-1.3,1.9
			c-0.6,0.4-1.2,0.6-1.8,0.6S365.1,285,364.5,284.6z M367.5,283.6c0.3-0.3,0.6-0.8,0.8-1.5c0.2-0.7,0.3-1.5,0.3-2.6
			c0-1.1-0.1-1.9-0.3-2.6c-0.2-0.7-0.5-1.2-0.8-1.5c-0.3-0.3-0.7-0.5-1.1-0.5c-0.4,0-0.8,0.2-1.1,0.5c-0.3,0.3-0.6,0.8-0.8,1.5
			s-0.3,1.6-0.3,2.6c0,1.1,0.1,1.9,0.3,2.6s0.5,1.2,0.8,1.5c0.3,0.3,0.7,0.5,1.1,0.5C366.8,284,367.1,283.9,367.5,283.6z"/>
	</g>
	<path class="st0" d="M298.2,291.3h-14.7c-2.2,0-4-1.8-4-4v-14.7c0-2.2,1.8-4,4-4h14.7c2.2,0,4,1.8,4,4v14.7
		C302.2,289.5,300.4,291.3,298.2,291.3z"/>
</g>
<line class="st9" x1="0" y1="320" x2="0" y2="0"/>
<g>
</g>
<g>
</g>
<g>
</g>
<g>
</g>
<g>
</g>
<g>
</g>
<g>
</g>
</svg>
