<svg version="1.1" id="Laag_1" xmlns="http://www.w3.org/2000/svg" x="0" y="0" viewBox="0 0 24 24" style="enable-background:new 0 0 24 24" xml:space="preserve">
    <path fill="#7f7f7f" d="M4.8 13.9 8.1 12l-3.2-1.9c-.4-.2-.6-.4-.8-.7-.6-1-.3-2.2.6-2.8.6-.4 1.4-.4 2.1 0L10 8.5V4.7c0-1.1.9-2 2-2s2 .9 2 2v3.8l3.2-1.9c.9-.6 2.2-.4 2.8.5s.4 2.2-.5 2.8c-.1.1-.2.1-.2.1l-3.4 2 3.3 1.9c.3.2.6.4.8.7.6.9.3 2.2-.7 2.7-.6.4-1.4.4-2 0L14 15.5v3.8c0 .9-.5 1.7-1.3 2-1 .4-2.2-.2-2.5-1.2-.2-.3-.2-.5-.2-.8v-3.8l-3.2 1.9c-.9.6-2.2.4-2.8-.6-.6-.9-.4-2.2.5-2.8.1 0 .2 0 .3-.1z"/>
    <path d="M-6-6h36v36H-6V-6z" style="fill:none"/>
</svg>
