<svg id="asterisk" xmlns="http://www.w3.org/2000/svg" viewBox="0 0 24 24">
  <path fill="currentColor" d="M8.014 20.99C7.518 21.663 7.01 22 6.494 22c-.519 0-1.037-.224-1.555-.673-.518-.45-.777-.887-.777-1.314 0-.426.203-.864.608-1.313l3.784-5.32-5.068-1.616C2.496 11.45 2 10.934 2 10.215c0-.404.068-.763.203-1.077.27-.943.833-1.414 1.689-1.414.18 0 .495.045.946.135l5.203 1.683V4.02c0-1.347.675-2.02 2.027-2.02 1.35 0 2.027.673 2.027 2.02v5.522l5.067-1.683c.45-.09.833-.135 1.149-.135.315 0 .675.224 1.08.673.406.45.609 1.044.609 1.785 0 .74-.495 1.268-1.486 1.582l-5.136 1.616 3.852 5.32c.36.404.54.83.54 1.28 0 .449-.259.898-.777 1.347-.518.449-1.025.673-1.52.673-.496 0-.991-.337-1.487-1.01L12 15.4l-3.986 5.59Z"/>
</svg>
