<svg viewBox="0 0 24 24" version="1.1" xmlns="http://www.w3.org/2000/svg" xmlns:xlink="http://www.w3.org/1999/xlink">
    <g id="*" transform="translate(2, 2)" fill="currentColor">
        <path d="M6.01351351,18.989899 C5.51801802,19.6632997 5.01126126,20 4.49324324,20 C3.97522523,20 3.45720721,19.7755331 2.93918919,19.3265993 C2.42117117,18.8776655 2.16216216,18.4399551 2.16216216,18.013468 C2.16216216,17.5869809 2.36486486,17.1492705 2.77027027,16.7003367 L6.55405405,11.3804714 L1.48648649,9.76430976 C0.495495495,9.45005612 0,8.93378227 0,8.21548822 C0,7.81144781 0.0675675676,7.45230079 0.202702703,7.13804714 C0.472972973,6.1952862 1.03603604,5.72390572 1.89189189,5.72390572 C2.07207207,5.72390572 2.38738739,5.7687991 2.83783784,5.85858586 L8.04054054,7.54208754 L8.04054054,2.02020202 C8.04054054,0.673400673 8.71621622,0 10.0675676,0 C11.4189189,0 12.0945946,0.673400673 12.0945946,2.02020202 L12.0945946,7.54208754 L17.1621622,5.85858586 C17.6126126,5.7687991 17.9954955,5.72390572 18.3108108,5.72390572 C18.6261261,5.72390572 18.9864865,5.94837262 19.3918919,6.3973064 C19.7972973,6.84624018 20,7.44107744 20,8.18181818 C20,8.92255892 19.5045045,9.45005612 18.5135135,9.76430976 L13.3783784,11.3804714 L17.2297297,16.7003367 C17.5900901,17.1043771 17.7702703,17.5308642 17.7702703,17.979798 C17.7702703,18.4287318 17.5112613,18.8776655 16.9932432,19.3265993 C16.4752252,19.7755331 15.9684685,20 15.472973,20 C14.9774775,20 14.481982,19.6632997 13.9864865,18.989899 L10,13.4006734 L6.01351351,18.989899 Z" id="Path"></path>
    </g>
</svg>