<svg id="asterisk" viewBox="0 0 24 24" xmlns="http://www.w3.org/2000/svg">
    <path fill="currentColor" d="M9.0105 18.6425C8.6385 19.1473 8.2575 19.4 7.8705 19.4C7.48125 19.4 7.09275 19.232 6.70425 18.8953C6.31575 18.5578 6.1215 18.23 6.1215 17.9098C6.1215 17.5903 6.27375 17.2618 6.5775 16.925L9.4155 12.935L5.6145 11.723C4.872 11.4875 4.5 11.1005 4.5 10.5613C4.5 10.2583 4.551 9.98902 4.65225 9.75352C4.85475 9.04627 5.277 8.69302 5.919 8.69302C6.054 8.69302 6.29025 8.72677 6.6285 8.79427L10.5308 10.0565V5.91502C10.5308 4.90477 11.037 4.40002 12.051 4.40002C13.0635 4.40002 13.5712 4.90477 13.5712 5.91502V10.0565L17.3715 8.79427C17.709 8.72677 17.9963 8.69302 18.2333 8.69302C18.4695 8.69302 18.7395 8.86102 19.0433 9.19777C19.3478 9.53527 19.5 9.98077 19.5 10.5365C19.5 11.0915 19.1287 11.4875 18.3855 11.723L14.5335 12.935L17.4225 16.925C17.6925 17.228 17.8275 17.5475 17.8275 17.885C17.8275 18.2218 17.6333 18.5585 17.2448 18.8953C16.8562 19.232 16.476 19.4 16.1047 19.4C15.7327 19.4 15.3615 19.1473 14.9895 18.6425L12 14.45L9.0105 18.6425Z"/>
</svg>
