<svg id="balloon-outline" viewBox="0 0 24 24" xmlns="http://www.w3.org/2000/svg">
    <path fill="currentColor" d="M18.417 5.29999C18.5716 5.30001 18.7197 5.36159 18.8291 5.47089C18.9384 5.58021 18.9999 5.7284 19 5.883V15.217C19 15.3716 18.9385 15.5197 18.8291 15.6291C18.7197 15.7385 18.5717 15.8 18.417 15.8H15.459L13.0156 18.5246C12.9611 18.585 12.8937 18.633 12.8193 18.6662C12.7451 18.6993 12.6643 18.7168 12.583 18.717C12.5111 18.7175 12.4395 18.7035 12.373 18.676C12.2636 18.6336 12.1691 18.5588 12.1025 18.4621C12.0362 18.3655 12.0004 18.2511 12 18.134V15.8H5.58301C5.42842 15.7999 5.28022 15.7384 5.1709 15.6291C5.06159 15.5197 5.00004 15.3716 5 15.217V5.883C5.00009 5.7284 5.06158 5.58021 5.1709 5.47089C5.28022 5.36157 5.42842 5.30008 5.58301 5.29999H18.417ZM6.16699 14.634H12.583C12.7376 14.634 12.8867 14.6946 12.9961 14.8039C13.1055 14.9133 13.167 15.0623 13.167 15.217V16.6115L14.7656 14.8264C14.8202 14.7659 14.8866 14.7169 14.9609 14.6838C15.0352 14.6507 15.116 14.6342 15.1973 14.634H17.834V6.46698H6.16699V14.634ZM13.75 12.3C13.9047 12.3 14.0537 12.3615 14.1631 12.4709C14.2723 12.5802 14.3339 12.7285 14.334 12.883C14.334 13.0376 14.2724 13.1867 14.1631 13.2961C14.0537 13.4055 13.9047 13.467 13.75 13.467H7.91699C7.76228 13.467 7.6133 13.4055 7.50391 13.2961C7.39457 13.1867 7.33301 13.0377 7.33301 12.883C7.33313 12.7285 7.39469 12.5802 7.50391 12.4709C7.6133 12.3615 7.76228 12.3 7.91699 12.3H13.75ZM16.084 9.96698C16.2385 9.9671 16.3868 10.0286 16.4961 10.1379C16.6054 10.2472 16.667 10.3954 16.667 10.55C16.667 10.7046 16.6053 10.8527 16.4961 10.9621C16.3868 11.0714 16.2385 11.1329 16.084 11.133H7.91699C7.76228 11.133 7.6133 11.0715 7.50391 10.9621C7.39476 10.8527 7.33301 10.7045 7.33301 10.55C7.33303 10.3955 7.39472 10.2472 7.50391 10.1379C7.6133 10.0285 7.76228 9.96698 7.91699 9.96698H16.084ZM16.084 7.633C16.2385 7.63311 16.3868 7.69468 16.4961 7.80389C16.6055 7.91329 16.667 8.06227 16.667 8.21698C16.6669 8.37155 16.6054 8.51976 16.4961 8.62909C16.3868 8.73838 16.2385 8.79987 16.084 8.79999H7.91699C7.76228 8.79999 7.6133 8.73849 7.50391 8.62909C7.39471 8.51978 7.33308 8.37149 7.33301 8.21698C7.33301 8.06227 7.39451 7.91329 7.50391 7.80389C7.6133 7.6945 7.76228 7.633 7.91699 7.633H16.084Z"/>
</svg>
