<svg id="balloon-solid" viewBox="0 0 24 24" xmlns="http://www.w3.org/2000/svg">
    <path fill="currentColor" fill-rule="evenodd" clip-rule="evenodd" d="M12.3733 18.9573C12.4399 18.9861 12.5113 19.0006 12.5833 19C12.7479 18.9996 12.9047 18.9266 13.015 18.7991L15.4592 15.9565H18.4167C18.7388 15.9565 19 15.684 19 15.3478V5.60869C19 5.27252 18.7388 5 18.4167 5H5.58333C5.26117 5 5 5.27252 5 5.60869V15.3478C5 15.684 5.26117 15.9565 5.58333 15.9565H12V18.3913C12.0007 18.6422 12.149 18.867 12.3733 18.9573ZM16.0833 7.43477C16.4055 7.43477 16.6666 7.70729 16.6666 8.04346C16.6666 8.37963 16.4055 8.65216 16.0833 8.65216H7.91664C7.59448 8.65216 7.33331 8.37963 7.33331 8.04346C7.33331 7.70729 7.59448 7.43477 7.91664 7.43477H16.0833ZM16.6667 10.4782C16.6667 10.1421 16.4055 9.86954 16.0833 9.86954H7.91667C7.5945 9.86954 7.33333 10.1421 7.33333 10.4782C7.33333 10.8144 7.5945 11.0869 7.91667 11.0869H16.0833C16.4055 11.0869 16.6667 10.8144 16.6667 10.4782ZM13.75 12.3043C14.0722 12.3043 14.3333 12.5768 14.3333 12.913C14.3333 13.2492 14.0722 13.5217 13.75 13.5217H7.91667C7.5945 13.5217 7.33333 13.2492 7.33333 12.913C7.33333 12.5768 7.5945 12.3043 7.91667 12.3043H13.75Z"/>
</svg>
