<svg id="bars" viewBox="0 0 24 24" xmlns="http://www.w3.org/2000/svg">
    <path fill="currentColor" d="M19.4639 16.0004C19.7597 16.0004 19.9998 16.2397 20 16.5355V17.8636C20 18.1597 19.7599 18.3998 19.4639 18.3998H4.53613C4.24011 18.3998 4 18.1597 4 17.8636V16.5355C4.00024 16.2397 4.24026 16.0004 4.53613 16.0004H19.4639ZM19.4639 10.8002C19.7599 10.8002 20 11.0403 20 11.3363V12.6644C19.9998 12.9602 19.7597 13.1996 19.4639 13.1996H4.53613C4.24026 13.1996 4.00025 12.9602 4 12.6644V11.3363C4 11.0403 4.24011 10.8002 4.53613 10.8002H19.4639ZM19.4639 5.59998C19.7599 5.59998 20 5.84008 20 6.13611V7.46423C19.9999 7.76014 19.7598 8.00037 19.4639 8.00037H4.53613C4.24019 8.00037 4.00014 7.76014 4 7.46423V6.13611C4 5.84008 4.24011 5.59998 4.53613 5.59998H19.4639Z"/>
</svg>
