<svg id="bars" width="24" height="24" viewBox="0 0 24 24" fill="none" xmlns="http://www.w3.org/2000/svg">
<path fill-rule="evenodd" clip-rule="evenodd" d="M4 6.13601C4 5.83998 4.23998 5.60001 4.536 5.60001H19.464C19.76 5.60001 20 5.83998 20 6.13601V7.46401C20 7.76003 19.76 8 19.464 8H4.536C4.23997 8 4 7.76003 4 7.464V6.13601ZM4.00001 11.336C4.00001 11.04 4.23998 10.8 4.53601 10.8H19.464C19.76 10.8 20 11.04 20 11.336V12.664C20 12.96 19.76 13.2 19.464 13.2H4.536C4.23998 13.2 4.00001 12.96 4.00001 12.664V11.336ZM4.53601 16C4.23998 16 4.00001 16.24 4.00001 16.536V17.864C4.00001 18.16 4.23998 18.4 4.536 18.4H19.464C19.76 18.4 20 18.16 20 17.864V16.536C20 16.24 19.76 16 19.464 16H4.53601Z" fill="currentColor"/>
</svg>
