<svg id="bell" viewBox="0 0 24 24" xmlns="http://www.w3.org/2000/svg">
    <path fill="currentColor" d="M14.0025 18.0029C13.9988 18.464 14.1503 19.9954 12.0035 20.0029C9.8606 20.0067 10.0006 18.4943 10.0006 18.0029H14.0025ZM11.981 4C12.3704 4.00003 13.0842 4.10976 13.0768 5.50781C15.6997 5.93112 17.0036 8.51291 17.0074 9.97559V14.9678L18.4742 16.8203C18.5571 16.96 18.4364 17.009 18.1646 16.9902H5.83554C5.56363 17.0091 5.44223 16.9599 5.52499 16.8203L6.99179 14.9678V9.97559C6.99557 8.51294 8.29956 5.93119 10.9225 5.50781C10.881 4.16629 11.6787 4.00756 11.981 4Z"/>
</svg>
