<svg id="bell" viewBox="0 0 24 24" xmlns="http://www.w3.org/2000/svg">
    <path fill="currentColor" fill-rule="evenodd" clip-rule="evenodd" d="M14.0035 18.0029C13.9997 18.464 14.1502 19.9954 12.0035 20.0029C9.86061 20.0066 10.0005 18.4943 10.0005 18.0029H14.0035ZM11.981 4C12.3703 4.00001 13.0842 4.10968 13.0767 5.50781C15.6997 5.93112 17.0036 8.51291 17.0074 9.97559V14.9678L18.4742 16.8203C18.5571 16.96 18.4364 17.0091 18.1646 16.9902H5.83548C5.56336 17.0091 5.44276 16.9602 5.52591 16.8203L6.99173 14.9678V9.97559C6.99551 8.51295 8.29955 5.93122 10.9224 5.50781C10.8809 4.16629 11.6786 4.00756 11.981 4Z"/>
</svg>
