<svg id="buildings" width="24" height="24" viewBox="0 0 24 24" fill="none" xmlns="http://www.w3.org/2000/svg">
<path fill-rule="evenodd" clip-rule="evenodd" d="M16.0833 8.5H19V18.4167H16.0833V19H12.5833V9.66667H9.08334V6.16667L16.0833 5V8.5ZM5 19H7.91666V17.25H9.08333V19H12V10.25H5V19ZM9.66668 11.4167H10.8333V12.5833H9.66668V11.4167ZM10.8333 13.1667H9.66668V14.3333H10.8333V13.1667ZM9.66668 14.9167H10.8333V16.0833H9.66668V14.9167ZM7.33335 11.4167H6.16668V12.5833H7.33335V11.4167ZM7.91666 11.4167H9.08333V12.5833H7.91666V11.4167ZM7.33335 13.1667H6.16668V14.3333H7.33335V13.1667ZM7.91666 13.1667H9.08333V14.3333H7.91666V13.1667ZM7.33335 14.9167H6.16668V16.0833H7.33335V14.9167ZM7.91666 14.9167H9.08333V16.0833H7.91666V14.9167ZM16.6667 17.25H15.5V16.0833H16.6667V17.25ZM15.5 15.5H16.6667V14.3333H15.5V15.5ZM16.6667 13.75H15.5V12.5833H16.6667V13.75ZM15.5 12H16.6667V10.8333H15.5V12ZM16.6667 10.25H15.5V9.08333H16.6667V10.25ZM17.25 17.25H18.4166V16.0833H17.25V17.25ZM18.4166 15.5H17.25V14.3333H18.4166V15.5ZM17.25 13.75H18.4166V12.5833H17.25V13.75ZM18.4166 12H17.25V10.8333H18.4166V12ZM17.25 10.25H18.4166V9.08333H17.25V10.25Z" fill="currentColor"/>
</svg>
