<svg id="calendar" viewBox="0 0 24 24" xmlns="http://www.w3.org/2000/svg">
    <path fill="currentColor" d="M6.55566 7.98633C6.55566 8.48461 6.95972 8.88867 7.45801 8.88867H8.76465C9.26284 8.88856 9.66699 8.48454 9.66699 7.98633V6.67188H14.333V7.98633C14.333 8.48454 14.7372 8.88856 15.2354 8.88867H16.542C17.0403 8.88867 17.4443 8.48461 17.4443 7.98633V6.67188H18.417C18.7373 6.67623 18.9958 6.93555 19 7.25586V18.417C18.9956 18.7372 18.7371 18.9956 18.417 19H5.58301C5.26285 18.9956 5.00436 18.7371 5 18.417V7.25586C5.00419 6.93555 5.26274 6.67623 5.58301 6.67188H6.55566V7.98633ZM6.89746 10.5918C6.83237 10.5898 6.76947 10.6149 6.72266 10.6602C6.67582 10.7055 6.64849 10.7678 6.64844 10.833V17.0088C6.6484 17.0741 6.67574 17.1372 6.72266 17.1826C6.76945 17.2277 6.83249 17.252 6.89746 17.25H17.1025C17.1675 17.252 17.2305 17.2277 17.2773 17.1826C17.3243 17.1372 17.3516 17.0741 17.3516 17.0088V10.833C17.3515 10.7678 17.3242 10.7055 17.2773 10.6602C17.2305 10.6149 17.1676 10.5898 17.1025 10.5918H6.89746ZM8.76465 5C8.83314 5.00011 8.88844 5.05556 8.88867 5.12402V7.98633C8.88867 8.05499 8.83328 8.11121 8.76465 8.11133H7.45801C7.38928 8.11133 7.33301 8.05506 7.33301 7.98633V5.12402C7.33323 5.05549 7.38942 5 7.45801 5H8.76465ZM16.542 5C16.6106 5 16.6668 5.05549 16.667 5.12402V7.98633C16.667 8.05506 16.6107 8.11133 16.542 8.11133H15.2354C15.2184 8.1113 15.2022 8.10773 15.1875 8.10156C15.1426 8.08276 15.1113 8.03802 15.1113 7.98633V5.12402C15.1116 5.05556 15.1669 5.00012 15.2354 5H16.542Z"/>
</svg>
