<svg id="calendar" width="24" height="24" viewBox="0 0 24 24" fill="none" xmlns="http://www.w3.org/2000/svg">
<path fill-rule="evenodd" clip-rule="evenodd" d="M7.33333 5.12444C7.33333 5.05572 7.38904 5 7.45777 5H8.76444C8.83317 5 8.88888 5.05572 8.88888 5.12444V7.98667C8.88888 8.0554 8.83317 8.11111 8.76444 8.11111H7.45777C7.38904 8.11111 7.33333 8.0554 7.33333 7.98667V5.12444ZM15.1111 5.12444C15.1111 5.05572 15.1668 5 15.2356 5H16.5422C16.611 5 16.6667 5.05572 16.6667 5.12444V6.67222V7.98667C16.6667 7.99096 16.6665 7.99521 16.666 7.99939C16.6597 8.06214 16.6067 8.11111 16.5422 8.11111H15.2356C15.1669 8.11111 15.1111 8.0554 15.1111 7.98668C15.1111 7.98668 15.1111 7.98667 15.1111 7.98667V6.67222V5.12444ZM19 18.4167V7.25556C18.9958 6.93514 18.7371 6.67641 18.4167 6.67222H17.4444V7.98667C17.4444 8.48495 17.0405 8.88889 16.5422 8.88889H15.2356C14.7373 8.88889 14.3333 8.48495 14.3333 7.98667V6.67222H9.66667V7.98667C9.66667 8.48495 9.26273 8.88889 8.76444 8.88889H7.45778C6.95949 8.88889 6.55556 8.48495 6.55556 7.98667V6.67222H5.58333C5.26292 6.67641 5.00419 6.93514 5 7.25556V18.4167C5.00419 18.7371 5.26292 18.9958 5.58333 19H18.4167C18.7371 18.9958 18.9958 18.7371 19 18.4167ZM17.2778 10.66C17.2309 10.6146 17.1675 10.5901 17.1022 10.5922H6.89778C6.8325 10.5901 6.76915 10.6146 6.72224 10.66C6.67533 10.7055 6.64886 10.768 6.64889 10.8333V17.0089C6.64886 17.0742 6.67533 17.1367 6.72224 17.1822C6.76915 17.2276 6.8325 17.2521 6.89778 17.25H17.1022C17.1675 17.2521 17.2309 17.2276 17.2778 17.1822C17.3247 17.1367 17.3511 17.0742 17.3511 17.0089V10.8333C17.3511 10.768 17.3247 10.7055 17.2778 10.66Z" fill="currentColor"/>
</svg>
