<svg id="call" viewBox="0 0 24 24" xmlns="http://www.w3.org/2000/svg">
    <path fill="currentColor" d="M18.9999 15.7291V18.3636C18.9999 18.7151 18.715 19 18.3636 19C11.1208 18.6776 5.32237 12.8792 5 5.63641C5 5.46764 5.06705 5.30578 5.18639 5.18644C5.30573 5.0671 5.46759 5.00005 5.63636 5.00005H8.18181C8.49705 4.996 8.76775 5.22338 8.81817 5.5346L9.61998 8.81822C9.65878 9.02067 9.59712 9.22937 9.45453 9.37822L7.81272 11.09C8.98753 13.2392 10.7544 15.0061 12.9036 16.1809L14.6218 14.5455C14.7668 14.4003 14.9729 14.3339 15.1754 14.3673L18.4654 15.0927C18.7766 15.1432 19.004 15.4139 18.9999 15.7291Z"/>
</svg>
