<svg id="check-circle" width="24" height="24" viewBox="0 0 24 24" fill="none" xmlns="http://www.w3.org/2000/svg">
<path fill-rule="evenodd" clip-rule="evenodd" d="M20 12C20 16.4183 16.4183 20 12 20C7.58172 20 4 16.4183 4 12C4 9.87827 4.84285 7.84344 6.34315 6.34315C7.84344 4.84285 9.87827 4 12 4C16.4183 4 20 7.58172 20 12ZM5.45454 12C5.45454 8.38504 8.38504 5.45454 12 5.45454C15.615 5.45454 18.5455 8.38504 18.5455 12C18.5455 15.615 15.615 18.5455 12 18.5455C8.38504 18.5455 5.45454 15.615 5.45454 12Z" fill="currentColor"/>
</svg>
