<svg id="check-circle" viewBox="0 0 24 24" xmlns="http://www.w3.org/2000/svg">
    <path fill="currentColor" d="M10.6255 16.3636L7.12 12.9527C7.05736 12.89 7.00782 12.8155 6.97424 12.7334C6.94066 12.6514 6.92371 12.5635 6.92439 12.4748C6.92506 12.3862 6.94335 12.2986 6.97818 12.2171C7.01301 12.1355 7.06369 12.0618 7.12727 12C7.26354 11.8645 7.44786 11.7885 7.64 11.7885C7.83213 11.7885 8.01646 11.8645 8.15273 12L10.6255 14.4L15.8473 9.30909C15.9835 9.17364 16.1679 9.0976 16.36 9.0976C16.5521 9.0976 16.7365 9.17364 16.8727 9.30909C16.9404 9.37173 16.9943 9.44767 17.0312 9.53214C17.0681 9.61662 17.0872 9.70781 17.0872 9.8C17.0872 9.89219 17.0681 9.98338 17.0312 10.0679C16.9943 10.1523 16.9404 10.2283 16.8727 10.2909L10.6255 16.3636ZM12 5.45455C10.7054 5.45455 9.43993 5.83843 8.36354 6.55765C7.28715 7.27688 6.4482 8.29914 5.95279 9.49516C5.45738 10.6912 5.32776 12.0073 5.58031 13.277C5.83287 14.5466 6.45627 15.7129 7.37166 16.6283C8.28706 17.5437 9.45335 18.1671 10.723 18.4197C11.9927 18.6722 13.3088 18.5426 14.5048 18.0472C15.7009 17.5518 16.7231 16.7129 17.4423 15.6365C18.1616 14.5601 18.5455 13.2946 18.5455 12C18.5455 10.264 17.8558 8.59917 16.6283 7.37166C15.4008 6.14415 13.736 5.45455 12 5.45455ZM12 4C13.5822 4 15.129 4.46919 16.4446 5.34824C17.7602 6.22729 18.7855 7.47672 19.391 8.93853C19.9965 10.4003 20.155 12.0089 19.8463 13.5607C19.5376 15.1126 18.7757 16.538 17.6569 17.6569C16.538 18.7757 15.1126 19.5376 13.5607 19.8463C12.0089 20.155 10.4003 19.9965 8.93853 19.391C7.47672 18.7855 6.22729 17.7602 5.34824 16.4446C4.46919 15.129 4 13.5822 4 12C4 9.87827 4.84285 7.84344 6.34315 6.34315C7.84344 4.84285 9.87827 4 12 4ZM10.6255 16.3636L7.12 12.9527C7.05736 12.89 7.00782 12.8155 6.97424 12.7334C6.94066 12.6514 6.92371 12.5635 6.92439 12.4748C6.92506 12.3862 6.94335 12.2986 6.97818 12.2171C7.01301 12.1355 7.06369 12.0618 7.12727 12C7.26354 11.8645 7.44786 11.7885 7.64 11.7885C7.83213 11.7885 8.01646 11.8645 8.15273 12L10.6255 14.4L15.8473 9.30909C15.9835 9.17364 16.1679 9.0976 16.36 9.0976C16.5521 9.0976 16.7365 9.17364 16.8727 9.30909C16.9404 9.37173 16.9943 9.44767 17.0312 9.53214C17.0681 9.61662 17.0872 9.70781 17.0872 9.8C17.0872 9.89219 17.0681 9.98338 17.0312 10.0679C16.9943 10.1523 16.9404 10.2283 16.8727 10.2909L10.6255 16.3636Z"/>
</svg>
