<svg id="chevron-up-up" width="24" height="24" viewBox="0 0 24 24" fill="none" xmlns="http://www.w3.org/2000/svg">
<path d="M11.9226 4.99999L18.64 10.9286C19.12 11.3516 19.12 12.0375 18.64 12.4605C18.16 12.8835 17.3817 12.8835 16.9017 12.4605L11.9226 8.08113L6.95334 12.4605C6.46044 12.7789 5.77686 12.7293 5.3497 12.3441C4.92254 11.959 4.88189 11.3556 5.25435 10.9286L11.9226 4.99999Z" fill="currentColor"/>
<path d="M11.9226 11.2222L18.64 17.1508C19.12 17.5738 19.12 18.2597 18.64 18.6827C18.16 19.1058 17.3817 19.1058 16.9017 18.6827L11.9226 14.3034L6.95334 18.6827C6.46044 19.0011 5.77686 18.9515 5.3497 18.5664C4.92254 18.1812 4.88189 17.5778 5.25435 17.1508L11.9226 11.2222Z" fill="currentColor"/>
</svg>
