<svg id="chevron-up-down" width="24" height="24" viewBox="0 0 24 24" fill="none" xmlns="http://www.w3.org/2000/svg">
<path d="M12.0707 20L5.92915 14.5118C5.49028 14.1202 5.49028 13.4853 5.92915 13.0937C6.36801 12.7021 7.07956 12.7021 7.51842 13.0937L12.0707 17.1477L16.6141 13.0937C17.0647 12.7989 17.6897 12.8449 18.0803 13.2014C18.4708 13.5579 18.508 14.1165 18.1674 14.5118L12.0707 20Z" fill="currentColor"/>
<path d="M12.0707 4.00001L5.92915 9.4882C5.49028 9.8798 5.49028 10.5147 5.92915 10.9063C6.36801 11.2979 7.07956 11.2979 7.51842 10.9063L12.0707 6.85227L16.6141 10.9063C17.0647 11.2011 17.6897 11.1551 18.0803 10.7986C18.4708 10.4421 18.508 9.88347 18.1674 9.4882L12.0707 4.00001Z" fill="currentColor"/>
</svg>
