<svg id="chevron-down-up" width="24" height="24" viewBox="0 0 24 24" fill="none" xmlns="http://www.w3.org/2000/svg">
<path d="M11.9293 12.8L18.0709 18.2882C18.5097 18.6798 18.5097 19.3147 18.0709 19.7063C17.632 20.0979 16.9204 20.0979 16.4816 19.7063L11.9293 15.6523L7.38591 19.7063C6.93526 20.001 6.31028 19.9551 5.91973 19.5986C5.52918 19.242 5.49202 18.6835 5.83255 18.2882L11.9293 12.8Z" fill="currentColor"/>
<path d="M11.9293 11.2L18.0709 5.71182C18.5097 5.32021 18.5097 4.6853 18.0709 4.2937C17.632 3.9021 16.9204 3.9021 16.4816 4.2937L11.9293 8.34775L7.38591 4.2937C6.93526 3.99895 6.31028 4.04487 5.91973 4.40142C5.52918 4.75796 5.49202 5.31655 5.83255 5.71182L11.9293 11.2Z" fill="currentColor"/>
</svg>
