<svg id="chevron-down-up" viewBox="0 0 24 24" xmlns="http://www.w3.org/2000/svg">
    <path fill="currentColor" d="M11.5 12.7022C11.7616 12.4286 12.1988 12.4282 12.4609 12.7012L17.6699 18.1319C17.8648 18.334 17.9745 18.6088 17.9746 18.8956C17.9746 19.1825 17.8649 19.458 17.6699 19.6602C17.2618 20.0807 16.6054 20.0807 16.1972 19.6602L11.9804 15.2745L7.77145 19.669C7.47314 19.9776 7.02612 20.0685 6.63864 19.8995C6.2512 19.7303 5.99921 19.3341 5.99997 18.8956C5.998 18.6078 6.10924 18.3317 6.30759 18.1319L11.5 12.7022ZM6.63864 4.08405C7.02611 3.915 7.47314 4.00595 7.77145 4.31451L11.9804 8.70905L16.1972 4.3233C16.6053 3.90283 17.2618 3.90286 17.6699 4.3233C17.8649 4.52548 17.9746 4.80098 17.9746 5.08795C17.9745 5.37475 17.8648 5.64953 17.6699 5.85162L12.4609 11.2823C12.1988 11.5554 11.7616 11.5549 11.5 11.2813L6.30759 5.85162C6.10924 5.65176 5.99799 5.37575 5.99997 5.08795C5.99921 4.64946 6.25119 4.25318 6.63864 4.08405Z"/>
</svg>
