<svg id="chevron-down-double" width="24" height="24" viewBox="0 0 24 24" fill="none" xmlns="http://www.w3.org/2000/svg">
<path d="M12.0774 13.4025L5.36001 6.99772C4.88 6.54071 4.88 5.79976 5.36001 5.34275C5.84002 4.88575 6.61827 4.88575 7.09827 5.34275L12.0774 10.0739L17.0467 5.34275C17.5396 4.99878 18.2231 5.05236 18.6503 5.46846C19.0775 5.88455 19.1181 6.53643 18.7456 6.99772L12.0774 13.4025Z" fill="currentColor"/>
<path d="M12.0774 19L5.36001 12.5952C4.88 12.1382 4.88 11.3972 5.36001 10.9402C5.84002 10.4832 6.61827 10.4832 7.09827 10.9402L12.0774 15.6714L17.0467 10.9402C17.5396 10.5963 18.2231 10.6499 18.6503 11.0659C19.0775 11.482 19.1181 12.1339 18.7456 12.5952L12.0774 19Z" fill="currentColor"/>
</svg>
