<svg id="chevron-down-down" viewBox="0 0 24 24" xmlns="http://www.w3.org/2000/svg">
    <path fill="currentColor" d="M6.64867 11.584C7.03615 11.4149 7.48317 11.5059 7.78149 11.8145L11.9905 16.209L16.2073 11.8232C16.6154 11.4028 17.2718 11.4028 17.6799 11.8232C17.875 12.0254 17.9846 12.3009 17.9846 12.5879C17.9845 12.8747 17.8748 13.1495 17.6799 13.3516L12.4709 18.7822C12.2088 19.0553 11.7717 19.0549 11.51 18.7812L6.31762 13.3516C6.11927 13.1517 6.00802 12.8757 6.01 12.5879C6.00925 12.1494 6.26123 11.7531 6.64867 11.584ZM6.64867 5.08398C7.03615 4.91494 7.48317 5.00588 7.78149 5.31445L11.9905 9.70898L16.2073 5.32324C16.6154 4.90276 17.2718 4.9028 17.6799 5.32324C17.875 5.52542 17.9846 5.80092 17.9846 6.08789C17.9845 6.37468 17.8748 6.64947 17.6799 6.85156L12.4709 12.2822C12.2088 12.5553 11.7717 12.5549 11.51 12.2812L6.31762 6.85156C6.11927 6.6517 6.00802 6.37569 6.01 6.08789C6.00925 5.6494 6.26123 5.25312 6.64867 5.08398Z"/>
</svg>
