<svg id="chevron-up-up" viewBox="0 0 24 24" xmlns="http://www.w3.org/2000/svg">
    <path fill="currentColor" d="M6.64868 12.4028C7.03615 12.5718 7.48318 12.4809 7.78149 12.1723L11.9905 7.77777L16.2073 12.1635C16.6154 12.584 17.2718 12.584 17.6799 12.1635C17.875 11.9613 17.9846 11.6858 17.9846 11.3989C17.9845 11.1121 17.8748 10.8373 17.6799 10.6352L12.4709 5.20453C12.2088 4.93145 11.7717 4.9319 11.51 5.20551L6.31763 10.6352C6.11928 10.8351 6.00803 11.1111 6.01001 11.3989C6.00925 11.8374 6.26123 12.2336 6.64868 12.4028ZM6.64868 18.9028C7.03615 19.0718 7.48318 18.9809 7.78149 18.6723L11.9905 14.2778L16.2073 18.6635C16.6154 19.084 17.2718 19.084 17.6799 18.6635C17.875 18.4613 17.9846 18.1858 17.9846 17.8989C17.9845 17.6121 17.8748 17.3373 17.6799 17.1352L12.4709 11.7045C12.2088 11.4314 11.7717 11.4319 11.51 11.7055L6.31763 17.1352C6.11928 17.3351 6.00803 17.6111 6.01001 17.8989C6.00925 18.3374 6.26123 18.7336 6.64868 18.9028Z"/>
</svg>
