<svg id="chevron-up-down" viewBox="0 0 24 24" xmlns="http://www.w3.org/2000/svg">
    <path fill="currentColor" d="M6.73868 12.5977C7.12624 12.4286 7.57318 12.5194 7.87149 12.8281L12.0805 17.2227L16.2973 12.8369C16.7054 12.4164 17.3618 12.4164 17.7699 12.8369C17.9648 13.039 18.0745 13.3138 18.0746 13.6006C18.0746 13.8876 17.965 14.1631 17.7699 14.3652L12.5609 19.7959C12.2988 20.0688 11.8616 20.0685 11.6 19.7949L6.40762 14.3652C6.20908 14.1653 6.09794 13.8886 6.10001 13.6006C6.09935 13.1623 6.3514 12.7668 6.73868 12.5977ZM11.6 4.20508C11.8617 3.93141 12.2988 3.9318 12.5609 4.20508L17.7699 9.63477C17.965 9.83695 18.0746 10.1124 18.0746 10.3994C18.0746 10.6864 17.965 10.9619 17.7699 11.1641C17.3618 11.5843 16.7053 11.5844 16.2973 11.1641L12.0805 6.77734L7.87149 11.1719C7.57318 11.4806 7.12625 11.5724 6.73868 11.4033C6.35118 11.2342 6.09928 10.8379 6.10001 10.3994C6.09794 10.1114 6.20906 9.83471 6.40762 9.63477L11.6 4.20508Z"/>
</svg>
