<svg id="circle-notch" width="24" height="24" viewBox="0 0 24 24" fill="none" xmlns="http://www.w3.org/2000/svg">
<path d="M12 20C7.55289 19.9634 3.97446 16.3399 4.00034 11.8997C3.96668 8.21563 6.43508 4.97611 10.0001 4.02561C10.2246 3.96844 10.4627 4.00794 10.6567 4.13448C10.8506 4.26102 10.9824 4.46299 11.02 4.69121C11.0769 4.90658 11.0455 5.13568 10.933 5.32796C10.8204 5.52025 10.6359 5.65995 10.4201 5.71623C7.6099 6.46972 5.66254 9.02113 5.68027 11.9263C5.66914 15.4276 8.49329 18.2801 12 18.3094C15.5172 18.2801 18.3456 15.4114 18.3197 11.8997C18.3375 8.99451 16.3901 6.44309 13.5799 5.68961C13.1435 5.57222 12.8783 5.13098 12.98 4.69121C13.0176 4.46299 13.1494 4.26102 13.3434 4.13448C13.5373 4.00794 13.7755 3.96844 13.9999 4.02561C17.5553 4.97363 20.0211 8.19889 19.9997 11.873C20.0192 14.0102 19.1871 16.0675 17.6867 17.5918C16.1863 19.1161 14.1405 19.9824 12 20Z" fill="currentColor"/>
</svg>
