<svg id="clock" width="24" height="24" viewBox="0 0 24 24" fill="none" xmlns="http://www.w3.org/2000/svg">
<path fill-rule="evenodd" clip-rule="evenodd" d="M4 12C4 7.58172 7.55284 4 11.9355 4C14.0401 4 16.0585 4.84285 17.5467 6.34315C19.0349 7.84344 19.871 9.87827 19.871 12C19.871 16.4183 16.3181 20 11.9355 20C7.55284 20 4 16.4183 4 12ZM12.6569 7.75999V12C12.6593 12.0954 12.6395 12.19 12.5991 12.2764C12.5644 12.3671 12.5102 12.4491 12.4404 12.5164L9.92273 15.0618C9.78727 15.1995 9.60288 15.2769 9.41053 15.2769C9.21817 15.2769 9.03378 15.1995 8.89833 15.0618C8.76176 14.9252 8.68494 14.7394 8.68494 14.5454C8.68494 14.3515 8.76176 14.1656 8.89833 14.0291L11.214 11.7018V7.75999C11.214 7.35833 11.537 7.03271 11.9355 7.03271C12.3339 7.03271 12.6569 7.35833 12.6569 7.75999Z" fill="currentColor"/>
</svg>
