<svg id="clock-solid" viewBox="0 0 24 24" xmlns="http://www.w3.org/2000/svg">
    <path fill="currentColor" fill-rule="evenodd" clip-rule="evenodd" d="M4 11.935C4 7.48078 7.58172 3.86993 12 3.86993C14.1217 3.86993 16.1566 4.71964 17.6569 6.23213C19.1571 7.74462 20 9.79599 20 11.935C20 16.3892 16.4183 20 12 20C7.58172 20 4 16.3892 4 11.935ZM12.7272 7.66048V11.9349C12.7297 12.0311 12.7098 12.1265 12.6691 12.2136C12.634 12.3051 12.5794 12.3877 12.5091 12.4555L9.97088 15.0217C9.83432 15.1605 9.64843 15.2385 9.45451 15.2385C9.2606 15.2385 9.07471 15.1605 8.93815 15.0217C8.80047 14.884 8.72303 14.6966 8.72303 14.5011C8.72303 14.3056 8.80047 14.1182 8.93815 13.9805L11.2727 11.6343V7.66048C11.2727 7.25555 11.5983 6.92729 12 6.92729C12.4016 6.92729 12.7272 7.25555 12.7272 7.66048Z"/>
</svg>
