<svg id="clock-outline" viewBox="0 0 24 24" xmlns="http://www.w3.org/2000/svg">
    <g clip-path="url(#clip0_9862_68238)">
        <path fill="currentColor" d="M12 5.25C13.335 5.25 14.6401 5.64588 15.7501 6.38758C16.8601 7.12928 17.7253 8.18349 18.2362 9.41689C18.7471 10.6503 18.8808 12.0075 18.6203 13.3169C18.3599 14.6262 17.717 15.829 16.773 16.773C15.829 17.717 14.6262 18.3599 13.3169 18.6203C12.0075 18.8808 10.6503 18.7471 9.41689 18.2362C8.18349 17.7253 7.12928 16.8601 6.38758 15.7501C5.64588 14.6401 5.25 13.335 5.25 12C5.25 10.2098 5.96116 8.4929 7.22703 7.22703C8.4929 5.96116 10.2098 5.25 12 5.25ZM12 3.75C10.3683 3.75 8.77326 4.23385 7.41655 5.14038C6.05984 6.0469 5.00242 7.33537 4.378 8.84286C3.75357 10.3504 3.5902 12.0092 3.90853 13.6095C4.22685 15.2098 5.01259 16.6798 6.16637 17.8336C7.32016 18.9874 8.79017 19.7732 10.3905 20.0915C11.9909 20.4098 13.6497 20.2464 15.1571 19.622C16.6646 18.9976 17.9531 17.9402 18.8596 16.5835C19.7662 15.2268 20.25 13.6317 20.25 12C20.25 9.81196 19.3808 7.71354 17.8336 6.16637C16.2865 4.61919 14.188 3.75 12 3.75ZM12.75 12V7.6275C12.75 7.42859 12.671 7.23782 12.5303 7.09717C12.3897 6.95652 12.1989 6.8775 12 6.8775C11.8011 6.8775 11.6103 6.95652 11.4697 7.09717C11.329 7.23782 11.25 7.42859 11.25 7.6275V11.6925L8.8425 14.0925C8.77221 14.1622 8.71641 14.2452 8.67834 14.3366C8.64026 14.428 8.62066 14.526 8.62066 14.625C8.62066 14.724 8.64026 14.822 8.67834 14.9134C8.71641 15.0048 8.77221 15.0878 8.8425 15.1575C8.91223 15.2278 8.99518 15.2836 9.08657 15.3217C9.17797 15.3597 9.276 15.3793 9.375 15.3793C9.47401 15.3793 9.57204 15.3597 9.66344 15.3217C9.75483 15.2836 9.83778 15.2278 9.9075 15.1575L12.525 12.5325C12.5975 12.4631 12.6539 12.3786 12.69 12.285C12.732 12.196 12.7525 12.0984 12.75 12Z"/>
    </g>
    <defs>
        <clipPath id="clip0_9862_68238">
            <rect fill="white" height="18" transform="translate(3 3)" width="18"/>
        </clipPath>
    </defs>
</svg>
