<svg id="copy-outline" viewBox="0 0 24 24" xmlns="http://www.w3.org/2000/svg">
    <path fill="currentColor" d="M16.5909 4H11.8182C11.4565 4 11.1097 4.14367 10.8539 4.3994C10.5982 4.65513 10.4545 5.00198 10.4545 5.36364V6.72727H6.36364C6.00198 6.72727 5.65513 6.87094 5.3994 7.12667C5.14367 7.3824 5 7.72925 5 8.09091V17.6364C5 17.998 5.14367 18.3449 5.3994 18.6006C5.65513 18.8563 6.00198 19 6.36364 19H13.1818C13.5435 19 13.8903 18.8563 14.1461 18.6006C14.4018 18.3449 14.5455 17.998 14.5455 17.6364V16.2727H18.6364C18.998 16.2727 19.3449 16.1291 19.6006 15.8733C19.8563 15.6176 20 15.2708 20 14.9091V7.40909L16.5909 4ZM15.9091 5.40455L18.5955 8.09091H15.9091V5.40455ZM13.1818 17.6364H6.36364V8.09091H10.4545V14.9091C10.4545 15.2708 10.5982 15.6176 10.8539 15.8733C11.1097 16.1291 11.4565 16.2727 11.8182 16.2727H13.1818V17.6364ZM18.6364 14.9091H11.8182V5.36364H14.5455V9.45455H18.6364V14.9091Z"/>
</svg>
