<svg id="copy" width="24" height="24" viewBox="0 0 24 24" fill="none" xmlns="http://www.w3.org/2000/svg">
<path fill-rule="evenodd" clip-rule="evenodd" d="M8.60776 6.47542H6.32222C5.59198 6.47542 5 7.0674 5 7.79764V17.6778C5 18.408 5.59198 19 6.32222 19H12.9389C13.6692 19 14.2611 18.408 14.2611 17.6778V17.6749H10.5522C9.47832 17.6749 8.60776 16.8044 8.60776 15.7305V6.47542Z" fill="currentColor"/>
<path fill-rule="evenodd" clip-rule="evenodd" d="M15.085 5H11.126C10.4817 5 9.95937 5.52233 9.95937 6.16667V15.3174C9.95937 15.9618 10.4817 16.4841 11.126 16.4841H17.8333C18.4777 16.4841 19 15.9618 19 15.3174V8.82438H15.0919V8.31511H15.085V5ZM19 7.49929H16.4101V5.02696L19 7.45299V7.49929Z" fill="currentColor"/>
</svg>
