<svg id="copy-solid" viewBox="0 0 24 24" xmlns="http://www.w3.org/2000/svg">
    <path fill="currentColor" d="M8.60742 15.7305C8.60744 16.8042 9.47809 17.6746 10.5518 17.6748H14.2607V17.6777C14.2607 18.408 13.6687 19 12.9385 19H6.32227C5.59202 19 5 18.408 5 17.6777V7.79785C5 7.06761 5.59202 6.47559 6.32227 6.47559H8.60742V15.7305ZM15.085 8.31543H15.0918V8.8252H19V15.3174C19 15.9617 18.4773 16.4843 17.833 16.4844H11.126C10.4818 16.4842 9.95898 15.9616 9.95898 15.3174V6.16699C9.95898 5.52279 10.4818 5.00021 11.126 5H15.085V8.31543ZM19 7.45312V7.5H16.4102V5.02734L19 7.45312Z"/>
</svg>
