<svg id="cross" viewBox="0 0 24 24" xmlns="http://www.w3.org/2000/svg">
    <path fill="currentColor" d="M15.7757 6.40889L11.9927 10.1919L8.17891 6.37814C7.6776 5.87683 6.86809 5.87355 6.37082 6.37082C5.87355 6.86809 5.87683 7.6776 6.37814 8.17891L10.1919 11.9927L6.40889 15.7757C5.91163 16.273 5.9149 17.0825 6.41621 17.5838C6.91753 18.0851 7.72704 18.0884 8.22431 17.5911L12.0073 13.8081L15.8211 17.6219C16.3224 18.1232 17.1319 18.1265 17.6292 17.6292C18.1265 17.1319 18.1232 16.3224 17.6219 15.8211L13.8081 12.0073L17.5911 8.22431C18.0884 7.72704 18.0851 6.91753 17.5838 6.41621C17.0825 5.9149 16.273 5.91163 15.7757 6.40889Z"/>
</svg>
