<svg id="crown" viewBox="0 0 24 24" xmlns="http://www.w3.org/2000/svg">
    <path fill="currentColor" d="M16.7598 17.6797C16.8143 17.6748 16.8677 17.6995 16.8994 17.7441C16.931 17.7887 16.9367 17.8468 16.9141 17.8965L16.6064 18.7764C16.553 18.905 16.4303 18.9919 16.291 19H7.625C7.48779 18.9909 7.36833 18.9038 7.31738 18.7764L7.01562 17.9238C6.99233 17.873 6.99891 17.8135 7.03223 17.7686C7.06572 17.7235 7.12108 17.7004 7.17676 17.708L16.7598 17.6797ZM11.9756 7.94336C12.0345 7.94338 12.0902 7.9708 12.126 8.01758L14.1494 10.3584C14.2309 10.4657 14.2309 10.6144 14.1494 10.7217C13.8383 11.1083 13.6455 11.577 13.5957 12.0703C13.5807 12.5482 13.7568 13.0129 14.085 13.3613C14.4131 13.7097 14.8668 13.9131 15.3457 13.9277C15.871 13.8287 16.3492 13.5592 16.7041 13.1602C16.8116 13.0515 16.9434 12.9693 17.0889 12.9219L18.6924 12.4961C18.832 12.4614 18.8808 12.5309 18.832 12.6494L17.5859 16.0869C17.5326 16.2153 17.4105 16.3023 17.2715 16.3105L6.72168 16.2822C6.58396 16.2747 6.46352 16.1871 6.41406 16.0586L5.1748 12.6289C5.1328 12.5032 5.19627 12.4328 5.32227 12.4678L6.93945 12.9365C7.08302 12.9842 7.21458 13.0629 7.32422 13.167C7.67841 13.5495 8.14771 13.807 8.66113 13.9004C9.14014 13.8858 9.59366 13.6815 9.92188 13.333C10.2501 12.9845 10.4262 12.52 10.4111 12.042C10.3505 11.5662 10.1593 11.1161 9.8584 10.7422C9.77674 10.6348 9.77673 10.4863 9.8584 10.3789L11.8252 8.01758C11.8609 7.97082 11.9166 7.94336 11.9756 7.94336ZM6.16895 9.6875C6.81446 9.6875 7.33772 10.2411 7.33789 10.9238C7.33789 11.6067 6.81457 12.1611 6.16895 12.1611C5.52335 12.1611 5 11.6067 5 10.9238C5.00017 10.2411 5.52346 9.68753 6.16895 9.6875ZM17.8311 9.6875C18.4765 9.68755 18.9998 10.2411 19 10.9238C19 11.6067 18.4766 12.1611 17.8311 12.1611C17.1854 12.1611 16.6621 11.6067 16.6621 10.9238C16.6623 10.2411 17.1855 9.6875 17.8311 9.6875ZM12.0137 5C12.6592 5 13.1825 5.5535 13.1826 6.23633C13.1826 6.91924 12.6593 7.47266 12.0137 7.47266C11.3682 7.47243 10.8447 6.9191 10.8447 6.23633C10.8448 5.55364 11.3683 5.00022 12.0137 5Z"/>
</svg>
