<svg id="crown" width="24" height="24" viewBox="0 0 24 24" fill="none" xmlns="http://www.w3.org/2000/svg">
<path fill-rule="evenodd" clip-rule="evenodd" d="M13.1831 6.23653C13.1831 6.91944 12.6597 7.47305 12.0141 7.47305C11.3684 7.47305 10.8451 6.91944 10.8451 6.23653C10.8451 5.55361 11.3684 5 12.0141 5C12.6597 5 13.1831 5.55361 13.1831 6.23653ZM7.338 10.9242C7.338 11.6071 6.81462 12.1607 6.169 12.1607C5.52338 12.1607 5 11.6071 5 10.9242C5 10.2412 5.52338 9.68764 6.169 9.68764C6.81462 9.68764 7.338 10.2412 7.338 10.9242ZM17.831 12.1607C18.4766 12.1607 19 11.6071 19 10.9242C19 10.2412 18.4766 9.68764 17.831 9.68764C17.1853 9.68764 16.662 10.2412 16.662 10.9242C16.662 11.6071 17.1853 12.1607 17.831 12.1607ZM17.271 16.3104C17.4103 16.3022 17.5326 16.2154 17.586 16.0868L18.832 12.6497C18.881 12.5309 18.832 12.4611 18.692 12.496L17.089 12.9221C16.9435 12.9695 16.8115 13.051 16.704 13.1597C16.3491 13.5588 15.8714 13.8291 15.346 13.9281C14.867 13.9135 14.4134 13.7095 14.0851 13.361C13.7569 13.0124 13.5809 12.5479 13.596 12.0699C13.6458 11.5765 13.8379 11.1082 14.149 10.7215C14.2307 10.6142 14.2307 10.4656 14.149 10.3583L12.126 8.01796C12.0903 7.971 12.0346 7.94343 11.9755 7.94343C11.9164 7.94343 11.8608 7.971 11.825 8.01796L9.85802 10.3792C9.77634 10.4866 9.77634 10.6351 9.85802 10.7425C10.159 11.1164 10.3504 11.5661 10.411 12.0419C10.4261 12.52 10.2501 12.9845 9.92191 13.333C9.59367 13.6816 9.14008 13.8856 8.66102 13.9002C8.14746 13.8068 7.67823 13.5493 7.32402 13.1667C7.21425 13.0625 7.08279 12.9837 6.93902 12.9361L5.32202 12.4681C5.19602 12.4331 5.13302 12.503 5.17502 12.6287L6.41402 16.0589C6.46352 16.1875 6.58416 16.2751 6.72202 16.2824L17.271 16.3104ZM7.03221 17.7682C7.06575 17.7231 7.12128 17.6999 7.17703 17.7076L16.76 17.6796C16.8146 17.6748 16.8677 17.6992 16.8994 17.7438C16.9311 17.7884 16.9367 17.8464 16.914 17.8962L16.606 18.7764C16.5526 18.905 16.4303 18.9919 16.291 19H7.62503C7.48778 18.9909 7.36797 18.904 7.31703 18.7764L7.01603 17.9241C6.99247 17.8731 6.99868 17.8134 7.03221 17.7682Z" fill="currentColor"/>
</svg>
