<svg id="cultural" width="24" height="24" viewBox="0 0 24 24" fill="none" xmlns="http://www.w3.org/2000/svg">
<path fill-rule="evenodd" clip-rule="evenodd" d="M17.7845 10.0926H6.22182C5.58545 10.0926 5.45182 9.80625 5.88454 9.45632L11.1027 5.2571C11.5753 4.9143 12.2147 4.9143 12.6873 5.2571L18.1091 9.45632C18.5482 9.81261 18.4018 10.0926 17.7845 10.0926ZM8.18182 15.8188H6.90909V10.7288H8.18182V15.8188ZM10.7273 10.7288H9.45455V15.8188H10.7273V10.7288ZM13.2727 10.7288H14.5455V15.8188H13.2727V10.7288ZM17.0909 10.7288H15.8182V15.8188H17.0909V10.7288ZM17.7273 16.455V17.7275H19V19H5V17.7275H6.27273V16.455H17.7273ZM12 6.91134C12.7029 6.91134 13.2727 7.48106 13.2727 8.18383C13.2727 8.88661 12.7029 9.45632 12 9.45632C11.2971 9.45632 10.7273 8.88661 10.7273 8.18383C10.7273 7.48106 11.2971 6.91134 12 6.91134Z" fill="currentColor"/>
</svg>
