<svg id="document-pencil" xmlns="http://www.w3.org/2000/svg" viewBox="0 0 24 24">
    <path d="M11.0439 6.77319H6.33301V18.2283H15.667V12.4109L17 11.0779V18.2273C16.9998 18.93 16.4032 19.5007 15.667 19.5007H6.33301C5.59687 19.5006 5.00016 18.93 5 18.2273V6.77319C5.00021 6.07058 5.59691 5.50091 6.33301 5.50073H12.3164L11.0439 6.77319ZM11.1201 14.0525L8.3125 14.9744C8.23058 15.0201 8.12797 15.0054 8.06152 14.9392C7.99523 14.8728 7.98062 14.7702 8.02637 14.6882L8.94336 11.8816L11.1201 14.0525ZM17.4111 7.77417L11.6045 13.5447L9.42188 11.3738L15.2285 5.59741L17.4111 7.77417ZM16.6582 4.50366C16.8354 4.52137 16.9985 4.61055 17.1084 4.75073L18.2754 5.91772C18.5455 6.15243 18.5771 6.5618 18.3457 6.83472L17.9541 7.21948L15.7773 5.04272L16.168 4.65796C16.3034 4.54203 16.4808 4.48603 16.6582 4.50366Z" fill="currentColor"/>
</svg>
