<svg id="document-pencil" viewBox="0 0 24 24" xmlns="http://www.w3.org/2000/svg">
    <path fill="currentColor" d="M11.0439 6.77313H6.33301V18.2282H15.667V12.4108L17 11.0778V18.2272C16.9998 18.93 16.4032 19.5006 15.667 19.5007H6.33301C5.59687 19.5005 5.00016 18.9299 5 18.2272V6.77313C5.00021 6.07052 5.59691 5.50085 6.33301 5.50067H12.3164L11.0439 6.77313ZM11.1201 14.0524L8.3125 14.9743C8.23058 15.02 8.12797 15.0053 8.06152 14.9391C7.99523 14.8727 7.98062 14.7701 8.02637 14.6882L8.94336 11.8815L11.1201 14.0524ZM17.4111 7.77411L11.6045 13.5446L9.42188 11.3737L15.2285 5.59735L17.4111 7.77411ZM16.6582 4.5036C16.8354 4.52131 16.9985 4.61049 17.1084 4.75067L18.2754 5.91766C18.5455 6.15237 18.5771 6.56174 18.3457 6.83466L17.9541 7.21942L15.7773 5.04266L16.168 4.6579C16.3034 4.54197 16.4808 4.48597 16.6582 4.5036Z"/>
</svg>
