<svg id="download" viewBox="0 0 24 24" xmlns="http://www.w3.org/2000/svg">
    <path fill="currentColor" fill-rule="evenodd" clip-rule="evenodd" d="M12 15.1818L16.2764 11.0073C16.5818 10.7273 16.4546 10.4727 16.0537 10.4791H14.2273V5.52182C14.2307 5.38679 14.1803 5.25593 14.0872 5.15806C13.9941 5.06019 13.866 5.00333 13.7309 5H10.2691C10.1341 5.00333 10.0059 5.06019 9.9128 5.15806C9.81971 5.25593 9.76932 5.38679 9.77274 5.52182V10.4918H7.94638C7.54547 10.4918 7.4182 10.7273 7.73638 11.0327L12 15.1818ZM5 19V15.1818H19V19H5ZM15.1818 17.0909C15.1818 17.7938 14.612 18.3636 13.9091 18.3636C13.2062 18.3636 12.6363 17.7938 12.6363 17.0909C12.6363 16.388 13.2062 15.8182 13.9091 15.8182C14.612 15.8182 15.1818 16.388 15.1818 17.0909ZM17.0909 18.3636C17.7938 18.3636 18.3637 17.7938 18.3637 17.0909C18.3637 16.388 17.7938 15.8182 17.0909 15.8182C16.388 15.8182 15.8182 16.388 15.8182 17.0909C15.8182 17.7938 16.388 18.3636 17.0909 18.3636Z"/>
</svg>
