<svg id="energy" viewBox="0 0 24 24" xmlns="http://www.w3.org/2000/svg">
    <path fill="currentColor" fill-rule="evenodd" clip-rule="evenodd" d="M18.7516 9.99375C18.8965 9.94654 18.9954 9.81312 18.9979 9.6615C19.0146 9.50973 18.932 9.36427 18.7926 9.3001C18.2414 9.11358 17.3676 8.69389 17.2327 8.38496C17.2981 7.83509 17.4588 7.30063 17.7077 6.80532C17.7054 6.78596 17.7054 6.76639 17.7077 6.74703C17.7321 6.62562 17.6923 6.50024 17.6022 6.41478C17.4982 6.31369 17.3437 6.28389 17.2093 6.339H17.1506C16.6563 6.58596 16.1225 6.74571 15.5732 6.81114C15.233 6.67125 14.8343 5.80274 14.6466 5.25482C14.6017 5.1037 14.4621 5 14.3036 5C14.145 5 14.0054 5.1037 13.9605 5.25482C13.8219 5.77227 13.5894 6.2602 13.2744 6.69457C13.2555 6.71502 13.2338 6.73268 13.2099 6.74703C12.5742 6.71091 11.9512 6.55463 11.3744 6.28654C11.2323 6.23141 11.0708 6.26581 10.9639 6.37397C10.8625 6.48579 10.8415 6.64834 10.9111 6.782C11.209 7.29794 11.3873 7.87345 11.433 8.46657C11.4182 8.49511 11.3983 8.52078 11.3744 8.54234C10.913 8.88252 10.4004 9.1481 9.85556 9.32925C9.71117 9.37642 9.61358 9.51042 9.61358 9.6615C9.61358 9.81258 9.71117 9.94658 9.85556 9.99375C10.42 10.1751 10.9508 10.4468 11.4272 10.7981C11.4511 10.8197 11.471 10.8454 11.4858 10.8739C11.4393 11.4669 11.261 12.0422 10.9639 12.5585C10.8943 12.6921 10.9153 12.8547 11.0167 12.9665C11.1225 13.0723 11.2809 13.1065 11.4213 13.0539C11.9963 12.7866 12.6172 12.6303 13.2509 12.5935C13.2748 12.6078 13.2966 12.6255 13.3154 12.6459C13.6305 13.0803 13.863 13.5682 14.0016 14.0857V14.1206C14.0155 14.1407 14.0273 14.1622 14.0367 14.1848C14.4259 14.9525 15.2017 15.4518 16.0658 15.4904H16.1361C16.7839 15.4904 17.309 16.0124 17.309 16.6562C17.309 17.3001 16.7839 17.822 16.1361 17.822C15.6994 17.822 15.4622 17.4614 15.2032 17.0677C14.8919 16.5944 14.5491 16.0733 13.7904 16.0733H10.7059C10.4392 15.0466 9.50908 14.3281 8.44229 14.3247H6.68303V14.9076H5.58642C5.26255 14.9076 5 15.1685 5 15.4904C5 15.8124 5.26255 16.0733 5.58642 16.0733H6.68303V17.2391H5.58642C5.26255 17.2391 5 17.5001 5 17.822C5 18.1439 5.26255 18.4049 5.58642 18.4049H6.68303V18.9878H8.44229C9.50571 18.9858 10.4347 18.2729 10.7059 17.2508H13.7846C14.1125 17.2508 14.2907 17.5464 14.5006 17.8945C14.8012 18.3931 15.1668 18.9995 16.1303 18.9995C16.9683 19.0172 17.7522 18.5891 18.1866 17.8766C18.621 17.164 18.64 16.2753 18.2365 15.545C17.8329 14.8148 17.068 14.354 16.23 14.3363H16.1185C15.5462 14.3256 15.0584 13.9207 14.9457 13.3629C15.0701 13.0358 15.2833 12.7493 15.5614 12.5352C16.1108 12.6006 16.6445 12.7604 17.1389 13.0073H17.1975C17.332 13.0624 17.4865 13.0326 17.5904 12.9315C17.6897 12.8293 17.7196 12.6788 17.6667 12.5468C17.6643 12.5275 17.6643 12.5079 17.6667 12.4885C17.4177 11.9932 17.257 11.4588 17.1917 10.9089C17.3266 10.5766 18.2003 10.1803 18.7516 9.99375ZM15.8136 8.6939C16.002 8.98215 16.1037 9.31782 16.1068 9.66151C16.1015 10.0012 15.9998 10.3325 15.8136 10.6175C15.7542 10.701 15.6895 10.7808 15.6201 10.8564L15.5849 10.8972L15.538 10.938C15.4632 11.0084 15.3828 11.0728 15.2976 11.1304C14.5818 11.5999 13.6322 11.5023 13.0281 10.8972C12.6996 10.5676 12.5107 10.1254 12.5004 9.66151C12.5181 9.2078 12.7064 8.77722 13.0281 8.45491C13.6322 7.84984 14.5818 7.75228 15.2976 8.22176C15.3828 8.27939 15.4632 8.34371 15.538 8.41411L15.5849 8.45491L15.6201 8.49572C15.6883 8.55813 15.7529 8.6243 15.8136 8.6939Z"/>
</svg>
