<svg id="energy" xmlns="http://www.w3.org/2000/svg" viewBox="0 0 24 24">
  <path fill="currentColor" d="M8,8ZM24,8V8Zm0,0a.61.61,0,0,1-.42.57c-.94.32-2.43,1-2.66,1.57a8.22,8.22,0,0,0,.81,2.71l0,0a.42.42,0,0,0,0,.1.62.62,0,0,1-.13.66h0a.62.62,0,0,1-.67.13l-.1,0,0,0a8.15,8.15,0,0,0-2.69-.81,3.25,3.25,0,0,0-1.05,1.42,2.08,2.08,0,0,0,2,1.67h.19a4,4,0,0,1-.17,8c-2.79,0-2.64-3-4-3H9.86A4,4,0,0,1,6,24H3V23H1.13a1,1,0,1,1,0-2H3V19H1.13a1,1,0,1,1,0-2H3V16H6a4,4,0,0,1,3.86,3h5.26c2.37,0,2.36,3,4,3a2,2,0,0,0,0-4L19,18a4.08,4.08,0,0,1-3.46-2.24h0a.6.6,0,0,0-.06-.11h0l0-.06a7.54,7.54,0,0,0-1.17-2.47.5.5,0,0,0-.11-.09,8.54,8.54,0,0,0-3.12.79.65.65,0,0,1-.69-.15.62.62,0,0,1-.09-.7,6.9,6.9,0,0,0,.89-2.89.46.46,0,0,0-.1-.13A9.3,9.3,0,0,0,8.41,8.57a.6.6,0,0,1,0-1.14A9.3,9.3,0,0,0,11,6.08a.46.46,0,0,0,.1-.13,6.86,6.86,0,0,0-.89-2.89.62.62,0,0,1,.09-.7A.65.65,0,0,1,11,2.21,8.54,8.54,0,0,0,14.13,3a.5.5,0,0,0,.11-.09A7.54,7.54,0,0,0,15.41.44a.61.61,0,0,1,1.17,0c.32.94,1,2.43,1.58,2.67a8.15,8.15,0,0,0,2.69-.81l0,0,.1,0a.62.62,0,0,1,.67.13h0A.62.62,0,0,1,21.8,3a.42.42,0,0,0,0,.1l0,0a8.22,8.22,0,0,0-.81,2.71c.23.53,1.72,1.25,2.66,1.57A.61.61,0,0,1,24,8ZM19.07,8a3.1,3.1,0,0,0-.5-1.66h0A4.23,4.23,0,0,0,18.24,6l-.06-.07-.08-.07a3.29,3.29,0,0,0-.41-.33h0a3.07,3.07,0,0,0-3.87.4A3.11,3.11,0,0,0,12.92,8V8a3.11,3.11,0,0,0,.9,2.12,3.07,3.07,0,0,0,3.87.4h0a3.29,3.29,0,0,0,.41-.33l.08-.07.06-.07a4.23,4.23,0,0,0,.33-.41h0A3.1,3.1,0,0,0,19.07,8Z"/>
</svg>
