<svg id="environment" viewBox="0 0 24 24" xmlns="http://www.w3.org/2000/svg">
    <path fill="currentColor" fill-rule="evenodd" clip-rule="evenodd" d="M17.7911 10.8333C17.9816 10.7894 18.1753 10.7602 18.3702 10.7458C19.1868 9.76584 19.2911 7.695 17.681 6.24834C16.7718 5.44917 15.8799 5 14.0729 5C13.737 5 13.3895 5 13.0015 5.04667C11.8726 5.21232 10.7616 5.48378 9.68292 5.8575C9.68292 5.8575 10.4879 6.365 11.0845 9.13584C11.5999 11.545 13.4532 12.8575 14.4841 12.9742C14.6067 12.9742 14.7246 12.985 14.8388 12.9956L14.8388 12.9956C14.9457 13.0054 15.0493 13.015 15.1501 13.015C16.0073 13.015 16.5922 12.7875 16.7023 12.4317C16.8027 12.0987 16.9305 11.7748 17.0845 11.4633C17.4096 12.1297 17.5799 12.8617 17.5826 13.6042C17.5826 13.672 17.5693 13.7428 17.5561 13.8128L17.5561 13.8128C17.5432 13.8813 17.5305 13.949 17.5305 14.0125C17.5305 14.1408 17.7332 14.3567 17.8664 14.3217C18.1936 13.9373 18.4701 13.5118 18.6888 13.0558C18.7504 12.925 18.7667 12.7771 18.7351 12.6358C18.5121 11.9907 18.1938 11.383 17.7911 10.8333ZM5.62884 13.2542C5.82381 13.2399 6.01742 13.2106 6.20799 13.1667C5.80472 12.6152 5.48645 12.0056 5.26397 11.3583C5.23234 11.2171 5.24866 11.0692 5.3103 10.9383C5.52857 10.4804 5.80502 10.0529 6.1327 9.66668C6.26591 9.66668 6.46861 9.85918 6.46861 9.98751C6.46861 10.051 6.45587 10.1187 6.44298 10.1872C6.42981 10.2572 6.41649 10.328 6.41649 10.3958C6.41915 11.1383 6.58947 11.8704 6.91456 12.5367C7.06855 12.2252 7.19641 11.9013 7.2968 11.5683C7.40684 11.2125 7.99178 10.985 8.84893 10.985C8.94979 10.985 9.05336 10.9946 9.1603 11.0044C9.27442 11.015 9.39237 11.0258 9.51496 11.0258C10.5459 11.1425 12.3991 12.455 12.9146 14.8642C13.5111 17.635 14.3161 18.1425 14.3161 18.1425C13.2374 18.5162 12.1264 18.7877 10.9976 18.9533C10.6096 19 10.2563 19 9.92616 19C8.1192 19 7.2273 18.5508 6.31803 17.7342C4.70798 16.2875 4.81223 14.2167 5.62884 13.2542ZM9.23698 15.5C8.60772 14.9465 8.06149 14.304 7.61534 13.5925L6.86824 14.1058C7.3663 14.8869 7.97728 15.5888 8.68099 16.1883C9.94354 17.1917 10.7544 16.8183 10.8412 16.7717C11.0491 16.6539 11.1343 16.3965 11.0381 16.1767C10.9893 16.0712 10.9003 15.9901 10.7913 15.9516C10.6823 15.9132 10.5624 15.9207 10.459 15.9725L10.4561 15.9732C10.4174 15.9838 9.99746 16.0982 9.23698 15.5ZM14.7621 8.49999C15.3988 9.05761 15.951 9.70616 16.4011 10.425L17.1308 9.89415C16.6328 9.11305 16.0218 8.41115 15.3181 7.81165C14.0555 6.80832 13.2447 7.18165 13.1578 7.22832C12.9499 7.34604 12.8647 7.6035 12.9609 7.82332C13.0097 7.92877 13.0987 8.00991 13.2078 8.04835C13.3168 8.08679 13.4366 8.07926 13.5401 8.02749C13.5403 8.02749 13.5413 8.02722 13.543 8.02677C13.5816 8.01622 14.0016 7.90175 14.7621 8.49999Z"/>
</svg>
