<svg id="environment" width="24" height="24" viewBox="0 0 24 24" fill="none" xmlns="http://www.w3.org/2000/svg">
<path fill-rule="evenodd" clip-rule="evenodd" d="M17.7267 10.8333C17.9172 10.7894 18.1109 10.7601 18.3058 10.7458C19.1224 9.76583 19.2267 7.695 17.6166 6.24833C16.7074 5.44917 15.8155 5 14.0085 5C13.6726 5 13.3251 5 12.9371 5.04667C11.8082 5.21232 10.6972 5.48377 9.61852 5.8575C9.61852 5.8575 10.4235 6.365 11.0201 9.13583C11.5355 11.545 13.3888 12.8575 14.4197 12.9742C14.5423 12.9742 14.6602 12.985 14.7744 12.9956L14.7744 12.9956C14.8813 13.0054 14.9849 13.015 15.0857 13.015C15.9429 13.015 16.5278 12.7875 16.6379 12.4317C16.7383 12.0987 16.8661 11.7748 17.0201 11.4633C17.3452 12.1297 17.5155 12.8617 17.5182 13.6042C17.5182 13.672 17.5049 13.7428 17.4917 13.8128L17.4917 13.8128C17.4788 13.8813 17.4661 13.949 17.4661 14.0125C17.4661 14.1408 17.6688 14.3567 17.802 14.3217C18.1292 13.9373 18.4057 13.5118 18.6244 13.0558C18.686 12.925 18.7023 12.7771 18.6707 12.6358C18.4477 11.9907 18.1294 11.383 17.7267 10.8333ZM5.56443 13.2542C5.75941 13.2399 5.95302 13.2106 6.14359 13.1667C5.74031 12.6152 5.42205 12.0056 5.19957 11.3583C5.16794 11.2171 5.18426 11.0692 5.2459 10.9383C5.46417 10.4804 5.74062 10.0529 6.0683 9.66667C6.2015 9.66667 6.40421 9.85917 6.40421 9.98751C6.40421 10.051 6.39146 10.1187 6.37858 10.1872C6.36541 10.2572 6.35208 10.328 6.35208 10.3958C6.35474 11.1383 6.52507 11.8703 6.85016 12.5367C7.00415 12.2252 7.132 11.9013 7.2324 11.5683C7.34244 11.2125 7.92738 10.985 8.78453 10.985C8.88539 10.985 8.98896 10.9946 9.0959 11.0044C9.21002 11.015 9.32797 11.0258 9.45056 11.0258C10.4815 11.1425 12.3347 12.455 12.8502 14.8642C13.4467 17.635 14.2517 18.1425 14.2517 18.1425C13.173 18.5162 12.062 18.7877 10.9332 18.9533C10.5452 19 10.1919 19 9.86176 19C8.0548 19 7.1629 18.5508 6.25363 17.7342C4.64358 16.2875 4.74783 14.2167 5.56443 13.2542ZM9.17257 15.5C8.54332 14.9465 7.99709 14.3039 7.55094 13.5925L6.80383 14.1058C7.3019 14.8869 7.91287 15.5888 8.61659 16.1883C9.87914 17.1917 10.69 16.8183 10.7768 16.7717C10.9847 16.6539 11.0699 16.3965 10.9737 16.1767C10.9249 16.0712 10.8359 15.9901 10.7269 15.9516C10.6179 15.9132 10.498 15.9207 10.3946 15.9725L10.3917 15.9732C10.353 15.9838 9.93306 16.0982 9.17257 15.5ZM14.6977 8.49998C15.3344 9.05761 15.8866 9.70616 16.3367 10.425L17.0664 9.89415C16.5684 9.11304 15.9574 8.41115 15.2537 7.81165C13.9911 6.80832 13.1803 7.18165 13.0934 7.22831C12.8855 7.34604 12.8003 7.6035 12.8965 7.82331C12.9453 7.92877 13.0343 8.00991 13.1434 8.04835C13.2524 8.08678 13.3722 8.07926 13.4757 8.02748C13.4759 8.02748 13.4769 8.02722 13.4786 8.02676C13.5172 8.01622 13.9372 7.90174 14.6977 8.49998Z" fill="currentColor"/>
</svg>
