<svg id="external-link" viewBox="0 0 24 24" xmlns="http://www.w3.org/2000/svg">
    <path fill="currentColor" d="M10.9766 6.86621C11.1911 6.86647 11.3652 7.04124 11.3652 7.25586V7.9248C11.3652 8.13942 11.1911 8.31322 10.9766 8.31348H7.35352C6.57374 8.3135 6.2627 8.42708 6.2627 9.2002V16.667C6.26279 17.4398 6.57385 17.6874 7.35352 17.6875H14.6484C15.4281 17.6874 15.9715 17.4398 15.9717 16.667V11.9219C15.9719 11.7072 16.1467 11.5332 16.3613 11.5332H16.7568C16.9714 11.5333 17.1453 11.7073 17.1455 11.9219V16.667C17.1453 17.9554 16.0917 18.9999 14.792 19H7.35352C6.0538 18.9999 5.00019 17.9554 5 16.667V9.2002C5 7.91162 6.05368 6.86635 7.35352 6.86621H10.9766ZM19 5V9.31836C18.9999 9.62601 18.8226 9.70036 18.5986 9.47656L17.2178 8.10547L13.1299 12.1904C12.9547 12.367 12.7156 12.4668 12.4668 12.4668C12.2181 12.4667 11.9798 12.3669 11.8047 12.1904C11.6281 12.0153 11.5283 11.7769 11.5283 11.5283C11.5284 11.2797 11.6281 11.0413 11.8047 10.8662L15.8926 6.79102L14.4922 5.3916C14.2777 5.17717 14.3435 5 14.6514 5H19Z"/>
</svg>
