<svg id="external-link" width="24" height="24" viewBox="0 0 24 24" fill="none" xmlns="http://www.w3.org/2000/svg">
<path fill-rule="evenodd" clip-rule="evenodd" d="M11.365 7.25556C11.365 7.04078 11.1909 6.86667 10.9761 6.86667H7.35378C6.05382 6.86667 5 7.91134 5 9.2V16.6667C5 17.9553 6.05383 19 7.35378 19H14.7917C16.0917 19 17.1455 17.9553 17.1455 16.6667V11.9222C17.1455 11.7074 16.9714 11.5333 16.7566 11.5333H16.3609C16.1462 11.5333 15.972 11.7074 15.972 11.9222L15.972 16.6667C15.972 17.4399 15.428 17.6875 14.648 17.6875H7.35378C6.57381 17.6875 6.26269 17.4399 6.26269 16.6667L6.26269 9.2C6.26269 8.4268 6.57381 8.31397 7.35378 8.31397L10.9761 8.31397C11.1909 8.31397 11.365 8.13986 11.365 7.92508V7.25556Z" fill="currentColor"/>
<path d="M14.6511 5C14.3431 5 14.2778 5.1772 14.4924 5.39172L15.8923 6.7907L11.8047 10.8664C11.628 11.0415 11.5286 11.2799 11.5286 11.5286C11.5286 11.7773 11.628 12.0157 11.8047 12.1908C11.9799 12.3674 12.2184 12.4667 12.4673 12.4667C12.7161 12.4667 12.9547 12.3674 13.1299 12.1908L17.2175 8.10575L18.5987 9.47676C18.8227 9.70059 19 9.62598 19 9.3182V5H14.6511Z" fill="currentColor"/>
</svg>
