<svg id="eye-slash" width="24" height="24" viewBox="0 0 24 24" fill="none" xmlns="http://www.w3.org/2000/svg">
<path fill-rule="evenodd" clip-rule="evenodd" d="M16.4554 8.39316L17.9528 7.03124C18.1162 6.8826 18.1162 6.6416 17.9528 6.49295C17.7893 6.34431 17.5244 6.34431 17.361 6.49295L15.7698 7.94017C14.6467 7.25644 13.3633 6.7621 12 6.7621C7.58 6.7621 4 11.9581 4 11.9581C4 11.9581 5.37906 13.9597 7.4821 15.4783L6.04725 16.7834C5.88382 16.932 5.88382 17.173 6.04725 17.3217C6.21067 17.4703 6.47564 17.4703 6.63906 17.3217L8.16345 15.9352C9.30232 16.64 10.6096 17.1542 12 17.1542C16.42 17.1542 20 11.9581 20 11.9581C20 11.9581 18.5936 9.91686 16.4554 8.39316ZM14.8393 8.78658C13.9394 8.28639 12.9761 7.9621 12 7.9621C10.2409 7.9621 8.52337 9.01533 7.14398 10.2532C6.4745 10.854 5.92928 11.4583 5.55147 11.9131L5.51417 11.9581L5.55147 12.0032C5.92928 12.458 6.4745 13.0623 7.14398 13.6631C7.53489 14.0139 7.95295 14.3499 8.39142 14.6512L9.48952 13.6525C9.07728 13.1438 8.83337 12.5136 8.83337 11.8312V11.8006C9.11119 12.3893 9.68893 12.7808 10.3376 12.8811L12.644 10.7833C12.6362 10.7386 12.6265 10.6939 12.615 10.6493C12.3759 9.7244 11.4058 9.12033 10.38 9.2576C10.9134 8.94421 11.5332 8.7767 12.1667 8.77467C12.9206 8.77467 13.6161 9.00418 14.1745 9.39116L14.8393 8.78658ZM14.772 9.92434L15.5447 9.2215C16.0065 9.53392 16.4462 9.88542 16.856 10.2532C17.5255 10.854 18.0707 11.4583 18.4485 11.9131L18.4858 11.9581L18.4485 12.0032C18.0707 12.458 17.5255 13.0623 16.856 13.6631C15.4766 14.901 13.7591 15.9542 12 15.9542C10.9988 15.9542 10.0112 15.6131 9.09166 15.0909L10.0662 14.2046C10.6394 14.6317 11.3705 14.8877 12.1667 14.8877C14.0077 14.8877 15.5 13.5192 15.5 11.8312C15.5 11.11 15.2276 10.4471 14.772 9.92434Z" fill="currentColor"/>
</svg>
