<svg id="eye-slash" viewBox="0 0 24 24" xmlns="http://www.w3.org/2000/svg">
    <path fill="currentColor" d="M17.3604 6.5813C17.5238 6.43265 17.7897 6.43265 17.9531 6.5813C18.1165 6.72995 18.1165 6.97175 17.9531 7.12036L16.4551 8.48169C18.5934 10.0055 20 12.0471 20 12.0471L19.8379 12.2698C19.0926 13.2639 15.8678 17.2434 12 17.2434L11.5879 17.2278C10.3514 17.1386 9.1897 16.6574 8.16406 16.0227L6.63867 17.4104C6.47536 17.5586 6.21119 17.5586 6.04785 17.4104C5.88455 17.2619 5.88384 17.021 6.04688 16.8723L7.48242 15.5657C5.8028 14.3529 4.5843 12.8329 4.16211 12.2698L4 12.0471C4 12.0471 7.58 6.85083 12 6.85083C13.3629 6.85083 14.6457 7.34512 15.7686 8.02856L17.3604 6.5813ZM14.7705 10.0139C15.2261 10.5366 15.4999 11.1981 15.5 11.9192C15.5 13.6072 14.0078 14.9757 12.167 14.9758C11.3706 14.9758 10.6397 14.7195 10.0664 14.2922L9.0918 15.179C10.0115 15.7011 10.9988 16.0432 12 16.0432C13.7591 16.0432 15.4771 14.99 16.8564 13.7522C17.5257 13.1516 18.0704 12.5468 18.4482 12.092C18.4606 12.0772 18.4724 12.0616 18.4844 12.0471C18.4724 12.0325 18.4606 12.0171 18.4482 12.0022C18.0705 11.5475 17.5257 10.9427 16.8564 10.342C16.4465 9.97412 16.0059 9.62327 15.5439 9.31079L14.7705 10.0139ZM12 8.05103C10.2409 8.05103 8.52294 9.10415 7.14355 10.342C6.47426 10.9427 5.9295 11.5475 5.55176 12.0022C5.53922 12.0173 5.5268 12.0324 5.51465 12.0471C5.52675 12.0618 5.53928 12.077 5.55176 12.092C5.92955 12.5468 6.47426 13.1516 7.14355 13.7522C7.53432 14.1029 7.95327 14.4373 8.3916 14.7385L9.49219 13.7375C9.08032 13.229 8.83301 12.6013 8.83301 11.9192V11.8889C9.11083 12.4776 9.68919 12.8677 10.3379 12.968L12.6416 10.8723C12.6338 10.8276 12.6268 10.7823 12.6152 10.7375C12.3761 9.81276 11.4055 9.20868 10.3799 9.34595C10.9133 9.03256 11.5335 8.86555 12.167 8.86353C12.9201 8.86358 13.6128 9.09539 14.1709 9.48169L14.8379 8.87427C13.9384 8.37463 12.9755 8.05103 12 8.05103Z"/>
</svg>
