<svg id="eye-slash" xmlns="http://www.w3.org/2000/svg" viewBox="0 0 24 24">
  <path fill="currentColor" d="M18.72,6.7l3-3L20.29,2.29,17,5.55A9.91,9.91,0,0,0,12,4C5.37,4,0,12.5,0,12.5a26.34,26.34,0,0,0,4.74,5.35L2,20.54,3.46,22l2.89-2.89A10.3,10.3,0,0,0,12,21c6.63,0,12-8.5,12-8.5A26.13,26.13,0,0,0,18.72,6.7ZM2.44,12.5C4.29,10,8.13,6,12,6a7.61,7.61,0,0,1,3.57,1l-.82.81a5,5,0,0,0-5.43,0A2.91,2.91,0,0,1,12.63,10L9,13.64A3,3,0,0,1,7,12V12a5,5,0,0,0,.83,2.75L6.16,16.43A23.7,23.7,0,0,1,2.44,12.5ZM12,19a8.16,8.16,0,0,1-4.2-1.38l1.45-1.45a5,5,0,0,0,6.92-6.92l1.11-1.12a22.62,22.62,0,0,1,4.28,4.37C19.71,15,15.87,19,12,19Z"/>
</svg>