<svg id="eye" viewBox="0 0 24 24" xmlns="http://www.w3.org/2000/svg">
    <path fill="currentColor" d="M12 6.40002C16.402 6.40002 19.9711 11.9545 20 11.9996C20 11.9996 16.42 17.6002 12 17.6002L11.793 17.5963C7.46874 17.4264 4 11.9996 4 11.9996C4.02893 11.9545 7.59796 6.40002 12 6.40002ZM12 7.60022C10.2741 7.60022 8.56673 8.71784 7.17676 10.0621C6.50552 10.7113 5.95869 11.3656 5.5791 11.858C5.54144 11.9069 5.50585 11.9543 5.47168 11.9996C5.50599 12.0451 5.54127 12.0931 5.5791 12.1422C5.95866 12.6346 6.50559 13.288 7.17676 13.9371C8.56677 15.2815 10.274 16.4 12 16.4C13.726 16.4 15.4332 15.2815 16.8232 13.9371C17.4944 13.288 18.0413 12.6346 18.4209 12.1422C18.4586 12.0933 18.4931 12.045 18.5273 11.9996C18.4933 11.9545 18.4584 11.9067 18.4209 11.858C18.0413 11.3656 17.4945 10.7113 16.8232 10.0621C15.4333 8.71784 13.7259 7.60022 12 7.60022ZM12.167 8.56897C14.0077 8.56912 15.4998 10.0438 15.5 11.8629C15.5 13.6821 14.0078 15.1567 12.167 15.1569C10.326 15.1569 8.83301 13.6822 8.83301 11.8629V11.8307C9.24471 12.7705 10.3152 13.244 11.2988 12.9215C12.2826 12.5987 12.8542 11.5862 12.6152 10.5895C12.3761 9.59272 11.4056 8.94154 10.3799 9.08948C10.9133 8.75173 11.5335 8.57115 12.167 8.56897Z"/>
</svg>
