<svg id="eye" width="24" height="24" viewBox="0 0 24 24" fill="none" xmlns="http://www.w3.org/2000/svg">
<path fill-rule="evenodd" clip-rule="evenodd" d="M12 6.39999C16.42 6.39999 20 12 20 12C20 12 16.42 17.6 12 17.6C7.58 17.6 4 12 4 12C4 12 7.58 6.39999 12 6.39999ZM5.57885 12.1424C5.5409 12.0932 5.5047 12.0456 5.4703 12C5.5047 11.9544 5.5409 11.9068 5.57885 11.8576C5.95843 11.3652 6.50552 10.7118 7.17676 10.0626C8.56677 8.71816 10.274 7.59999 12 7.59999C13.726 7.59999 15.4332 8.71816 16.8232 10.0626C17.4945 10.7118 18.0416 11.3652 18.4212 11.8576C18.4591 11.9068 18.4953 11.9544 18.5297 12C18.4953 12.0456 18.4591 12.0932 18.4212 12.1424C18.0416 12.6348 17.4945 13.2882 16.8232 13.9374C15.4332 15.2818 13.726 16.4 12 16.4C10.274 16.4 8.56677 15.2818 7.17676 13.9374C6.50552 13.2882 5.95843 12.6348 5.57885 12.1424ZM10.38 9.08951C10.9134 8.75177 11.5332 8.57123 12.1667 8.56904C14.0077 8.56904 15.5 10.0439 15.5 11.8632C15.5 13.6825 14.0077 15.1573 12.1667 15.1573C10.3258 15.1573 8.83337 13.6825 8.83337 11.8632V11.8302C9.24505 12.7704 10.3154 13.2438 11.2991 12.921C12.2829 12.5982 12.854 11.5861 12.615 10.5894C12.3759 9.59261 11.4058 8.94157 10.38 9.08951Z" fill="currentColor"/>
</svg>
