<svg id="favicon" viewBox="0 0 24 24" xmlns="http://www.w3.org/2000/svg">
    <path fill="currentColor" d="M12 3C7.01976 3 3 7.01976 3 12C3 16.9802 7.01976 21 12 21C16.9802 21 21 16.9802 21 12C20.9644 7.01976 16.9447 3 12 3Z"/>
    <path fill="#275937" d="M11.9999 5.99988C8.6704 5.99988 5.99988 8.6704 5.99988 11.9999C5.99988 15.3294 8.6704 17.9999 11.9999 17.9999C15.2947 17.9999 17.9999 15.3294 17.9999 11.9999C17.9999 8.6704 15.2947 5.99988 11.9999 5.99988Z"/>
    <path fill="#E17000" d="M14.9999 12C14.9999 10.3483 13.6516 9 11.9999 9C10.3483 9 8.99994 10.3483 8.99994 12C8.99994 13.6854 10.3483 15 11.9999 15C13.6516 15 14.9999 13.6517 14.9999 12Z"/>
</svg>
