<svg id="favicon" width="24" height="24" viewBox="0 0 24 24" fill="none" xmlns="http://www.w3.org/2000/svg">
<path d="M11.9032 0C5.31646 0 0 5.35968 0 12C0 18.6403 5.31646 24 11.9032 24C18.49 24 23.8065 18.6403 23.8065 12C23.7594 5.35968 18.4429 0 11.9032 0Z" fill="currentColor"/>
<path d="M11.9032 4C7.49969 4 3.96771 7.56069 3.96771 12C3.96771 16.4393 7.49969 20 11.9032 20C16.2608 20 19.8387 16.4393 19.8387 12C19.8387 7.56069 16.2608 4 11.9032 4Z" fill="#275937"/>
<path d="M15.871 12C15.871 9.79775 14.0877 8 11.9032 8C9.71874 8 7.93549 9.79775 7.93549 12C7.93549 14.2472 9.71874 16 11.9032 16C14.0877 16 15.871 14.2022 15.871 12Z" fill="#E17000"/>
</svg>
