<svg id="filter" viewBox="0 0 24 24" xmlns="http://www.w3.org/2000/svg">
    <path fill="currentColor" d="M19 5.35407C19 5.15852 18.8433 5 18.65 5H5.35C5.1567 5 5 5.15852 5 5.35407V6.83329C5.01119 7.05595 5.09927 7.26757 5.24889 7.43127L10.4444 12.5692C10.5924 12.734 10.6802 12.945 10.6933 13.1672V16.4167C10.7078 16.6378 10.7987 16.8467 10.95 17.0069L13.0811 18.9267C13.2211 19.0604 13.3378 19.0054 13.3378 18.8087V13.1672C13.3527 12.9431 13.4402 12.7302 13.5867 12.5613L18.7744 7.43127C18.9156 7.26425 18.9953 7.05297 19 6.83329V5.35407Z"/>
</svg>
