<svg id="forbidden" width="24" height="24" viewBox="0 0 24 24" fill="none" xmlns="http://www.w3.org/2000/svg">
<path fill-rule="evenodd" clip-rule="evenodd" d="M12 4C7.58172 4 4 7.58172 4 12C4 16.4183 7.58172 20 12 20C16.4183 20 20 16.4183 20 12C20 9.87827 19.1571 7.84344 17.6569 6.34315C16.1566 4.84285 14.1217 4 12 4ZM5.45454 12C5.4623 10.5143 5.97525 9.07552 6.90909 7.92001L16.08 17.0909C14.9271 18.0294 13.4866 18.543 12 18.5455C10.264 18.5455 8.59917 17.8559 7.37166 16.6283C6.14415 15.4008 5.45454 13.736 5.45454 12ZM7.92 6.90909L17.0909 16.08C19.0686 13.474 18.8185 9.80804 16.5052 7.49478C14.192 5.18152 10.526 4.93142 7.92 6.90909Z" fill="currentColor"/>
</svg>
