<svg id="hammer" viewBox="0 0 24 24" xmlns="http://www.w3.org/2000/svg">
    <path fill="currentColor" fill-rule="evenodd" clip-rule="evenodd" d="M13.2679 8.19543C13.53 8.46479 13.5357 8.8993 13.2793 9.16281L13.1414 9.30452L14.2523 10.4277L11.4427 13.2115L10.3603 12.0591L6.14126 16.3959C5.88604 16.6582 5.4622 16.6535 5.20015 16.3842C4.9381 16.1148 4.9324 15.6803 5.18876 15.4168L9.42373 11.0636L8.57606 10.1583L11.2319 7.37327L12.1832 8.33245L12.3291 8.18255C12.5832 7.92021 13.0059 7.92606 13.2679 8.19543ZM19 17.5741C19 17.8774 18.7653 18.1257 18.477 18.1257L12.4373 18.1269C12.1491 18.1269 11.9144 17.8786 11.9144 17.5752C11.9144 17.2778 12.1445 17.0236 12.4373 17.0236H13.0811C12.9193 16.9299 12.8088 16.7484 12.8088 16.5399C12.8088 16.2425 13.0389 15.9883 13.3317 15.9883H17.5815C17.8698 15.9872 18.1056 16.2354 18.1056 16.5388C18.1056 16.7472 17.994 16.9299 17.831 17.0236H18.4759C18.7653 17.0225 19 17.2707 19 17.5741ZM11.1157 6.03932C11.3242 6.25365 11.3287 6.60031 11.1248 6.80878L8.02575 9.99433C7.8218 10.204 7.48569 10.1993 7.27719 9.98496C7.06869 9.77064 7.06413 9.42397 7.26808 9.21551L10.3671 6.02995C10.5711 5.82032 10.9072 5.825 11.1157 6.03932ZM15.5216 10.567C15.7301 10.7813 15.7346 11.128 15.5307 11.3365L12.4316 14.522C12.2277 14.7317 11.8916 14.727 11.6831 14.5127C11.4746 14.2983 11.47 13.9517 11.674 13.7432L14.773 10.5577C14.9758 10.348 15.3119 10.3527 15.5216 10.567Z"/>
</svg>
