<svg id="hammer" xmlns="http://www.w3.org/2000/svg" viewBox="0 0 24 24">
    <path fill="currentColor" d="M13.811 6.564c.375.385.383 1.006.017 1.382l-.197.203 1.587 1.604-4.014 3.977-1.546-1.646-6.028 6.195a.936.936 0 0 1-1.344-.016c-.374-.385-.383-1.006-.016-1.382l6.05-6.22-1.211-1.293 3.794-3.978 1.359 1.37.208-.214a.932.932 0 0 1 1.341.018ZM22 19.962c0 .434-.335.788-.747.788l-8.628.002c-.412 0-.747-.354-.747-.788 0-.425.328-.788.747-.788h.92a.796.796 0 0 1-.39-.69c0-.426.33-.789.748-.789h6.07c.412-.002.75.353.75.786 0 .298-.16.56-.393.693h.921c.414-.002.749.353.749.787ZM10.737 3.484a.794.794 0 0 1 .013 1.1l-4.428 4.55a.743.743 0 0 1-1.069-.013.794.794 0 0 1-.013-1.1l4.427-4.55a.743.743 0 0 1 1.07.013Zm6.294 6.468a.794.794 0 0 1 .013 1.1l-4.427 4.55a.743.743 0 0 1-1.07-.013.794.794 0 0 1-.013-1.1l4.427-4.55c.29-.3.77-.293 1.07.013Z"/>
</svg>