<svg id="health" width="24" height="24" viewBox="0 0 24 24" fill="none" xmlns="http://www.w3.org/2000/svg">
<path fill-rule="evenodd" clip-rule="evenodd" d="M15.2142 5C15.4125 5 15.6225 5 15.85 5.05727V5.03182C17.25 5.17182 18.8075 6.49545 19 9.02181V9.86181C18.9596 10.4082 18.8496 10.9458 18.6733 11.4591H15.1733L14.5083 12.3182L13.1492 8.64H12.0642L10.565 13.0945L8.96667 9.98909L7.87583 11.4273H5.32667C5.15393 10.9238 5.04405 10.3972 5 9.86181V9.02181C5.1925 6.49545 6.77917 5.17182 8.15 5.03182C8.3775 5 8.5875 5 8.78583 5C9.977 5 11.1019 6.02612 11.6565 6.53198C11.8379 6.69746 11.9583 6.80727 12 6.80727C12.0416 6.80727 12.1614 6.69777 12.3419 6.53267C12.8949 6.02705 14.0181 5 15.2142 5ZM12 19C15.255 16.6009 17.1333 14.5455 18.1192 12.6936L15.7217 12.7L14.1583 14.7427L12.6358 10.6255L11.2242 14.8318L10.1683 14.9209L8.78001 12.2291L8.42417 12.7H5.88667C6.86667 14.5455 8.74501 16.6073 12 19Z" fill="currentColor"/>
</svg>
