<svg id="help-solid" viewBox="0 0 24 24" xmlns="http://www.w3.org/2000/svg">
    <path fill="currentColor" fill-rule="evenodd" clip-rule="evenodd" d="M12 4C7.58172 4 4 7.58172 4 12C4 16.4183 7.58172 20 12 20C16.4183 20 20 16.4183 20 12C20 9.87827 19.1571 7.84344 17.6569 6.34315C16.1566 4.84285 14.1217 4 12 4ZM12 16.3636C11.5983 16.3636 11.2727 16.038 11.2727 15.6363C11.2727 15.2347 11.5983 14.9091 12 14.9091C12.4016 14.9091 12.7273 15.2347 12.7273 15.6363C12.7273 16.038 12.4016 16.3636 12 16.3636ZM12.7272 13.5199V13.4544C12.7272 13.0478 13.096 12.8267 13.5304 12.5664C14.1525 12.1936 14.9091 11.7402 14.9091 10.5453C14.9091 8.93867 13.6066 7.63623 12 7.63623C10.3933 7.63623 9.09088 8.93867 9.09088 10.5453V10.6108C9.09088 11.0124 9.41649 11.338 9.81815 11.338C10.2198 11.338 10.5454 11.0124 10.5454 10.6108V10.5453C10.5454 9.742 11.1966 9.09078 12 9.09078C12.8033 9.09078 13.4545 9.742 13.4545 10.5453C13.4545 11.0869 13.0046 11.3811 12.5134 11.7023C11.9229 12.0884 11.2727 12.5135 11.2727 13.4544V13.5199C11.2727 13.9215 11.5983 14.2471 12 14.2471C12.4016 14.2471 12.7272 13.9215 12.7272 13.5199Z"/>
</svg>
