<svg id="help-outline" viewBox="0 0 24 24" xmlns="http://www.w3.org/2000/svg">
    <path fill="currentColor" d="M12 5.45455C13.2946 5.45455 14.5601 5.83843 15.6365 6.55765C16.7129 7.27688 17.5518 8.29914 18.0472 9.49516C18.5426 10.6912 18.6722 12.0073 18.4197 13.277C18.1671 14.5466 17.5437 15.7129 16.6283 16.6283C15.7129 17.5437 14.5466 18.1671 13.277 18.4197C12.0073 18.6722 10.6912 18.5426 9.49516 18.0472C8.29914 17.5518 7.27688 16.7129 6.55766 15.6365C5.83843 14.5601 5.45455 13.2946 5.45455 12C5.45455 10.264 6.14416 8.59917 7.37167 7.37166C8.59918 6.14415 10.264 5.45455 12 5.45455ZM12 4C10.4178 4 8.87103 4.46919 7.55544 5.34824C6.23985 6.22729 5.21447 7.47672 4.60897 8.93853C4.00347 10.4003 3.84504 12.0089 4.15372 13.5607C4.4624 15.1126 5.22433 16.538 6.34315 17.6569C7.46197 18.7757 8.88743 19.5376 10.4393 19.8463C11.9911 20.155 13.5997 19.9965 15.0615 19.391C16.5233 18.7855 17.7727 17.7602 18.6518 16.4446C19.5308 15.129 20 13.5822 20 12C20 9.87827 19.1571 7.84344 17.6569 6.34315C16.1566 4.84285 14.1217 4 12 4ZM12 16.3636C12.1438 16.3636 12.2845 16.321 12.4041 16.2411C12.5237 16.1612 12.6169 16.0476 12.6719 15.9147C12.727 15.7818 12.7414 15.6356 12.7133 15.4945C12.6852 15.3534 12.616 15.2238 12.5143 15.1221C12.4125 15.0204 12.283 14.9511 12.1419 14.9231C12.0008 14.895 11.8546 14.9094 11.7217 14.9644C11.5888 15.0195 11.4752 15.1127 11.3953 15.2323C11.3154 15.3519 11.2727 15.4925 11.2727 15.6364C11.2727 15.8292 11.3494 16.0142 11.4857 16.1506C11.6221 16.287 11.8071 16.3636 12 16.3636ZM12 7.63636C11.2285 7.63636 10.4885 7.94286 9.94296 8.48842C9.3974 9.03398 9.09091 9.77391 9.09091 10.5455V10.6109C9.09091 10.8038 9.16753 10.9888 9.30392 11.1252C9.44031 11.2616 9.6253 11.3382 9.81818 11.3382C10.0111 11.3382 10.1961 11.2616 10.3324 11.1252C10.4688 10.9888 10.5455 10.8038 10.5455 10.6109V10.5455C10.5455 10.1597 10.6987 9.78972 10.9715 9.51693C11.2443 9.24415 11.6142 9.09091 12 9.09091C12.3858 9.09091 12.7557 9.24415 13.0285 9.51693C13.3013 9.78972 13.4545 10.1597 13.4545 10.5455C13.4545 11.7382 11.2727 11.7309 11.2727 13.4545V13.52C11.2727 13.7129 11.3494 13.8979 11.4857 14.0343C11.6221 14.1706 11.8071 14.2473 12 14.2473C12.1929 14.2473 12.3779 14.1706 12.5143 14.0343C12.6507 13.8979 12.7273 13.7129 12.7273 13.52V13.4545C12.7273 12.4655 14.9091 12.5745 14.9091 10.5455C14.9091 9.77391 14.6026 9.03398 14.057 8.48842C13.5115 7.94286 12.7715 7.63636 12 7.63636Z"/>
</svg>
