<svg id="help" width="24" height="24" viewBox="0 0 24 24" fill="none" xmlns="http://www.w3.org/2000/svg">
<path fill-rule="evenodd" clip-rule="evenodd" d="M12 4C7.58172 4 4 7.58172 4 12C4 16.4183 7.58172 20 12 20C16.4183 20 20 16.4183 20 12C20 9.87827 19.1571 7.84344 17.6569 6.34315C16.1566 4.84285 14.1217 4 12 4ZM12 16.3636C11.5983 16.3636 11.2727 16.038 11.2727 15.6364C11.2727 15.2347 11.5983 14.9091 12 14.9091C12.4017 14.9091 12.7273 15.2347 12.7273 15.6364C12.7273 16.038 12.4017 16.3636 12 16.3636ZM12.7273 13.52V13.4545C12.7273 13.0479 13.0961 12.8269 13.5304 12.5666C14.1525 12.1937 14.9091 11.7403 14.9091 10.5455C14.9091 8.93881 13.6066 7.63636 12 7.63636C10.3933 7.63636 9.09089 8.93881 9.09089 10.5455V10.6109C9.09089 11.0126 9.4165 11.3382 9.81817 11.3382C10.2198 11.3382 10.5454 11.0126 10.5454 10.6109V10.5455C10.5454 9.74213 11.1967 9.09091 12 9.09091C12.8033 9.09091 13.4545 9.74213 13.4545 10.5455C13.4545 11.0871 13.0046 11.3812 12.5134 11.7024C11.9229 12.0885 11.2727 12.5136 11.2727 13.4545V13.52C11.2727 13.9217 11.5983 14.2473 12 14.2473C12.4016 14.2473 12.7273 13.9217 12.7273 13.52Z" fill="currentColor"/>
</svg>
