<svg id="home" width="24" height="24" viewBox="0 0 24 24" fill="none" xmlns="http://www.w3.org/2000/svg">
<path fill-rule="evenodd" clip-rule="evenodd" d="M18.8873 10.8941L12.1806 5.06311C12.0738 4.97896 11.9233 4.97896 11.8165 5.06311L5.10984 10.8941C4.98456 11.0163 4.96398 11.2103 5.06084 11.3561H5.87292V18.706C5.87292 18.8684 6.00456 19 6.16695 19H17.8302C17.9926 19 18.1242 18.8684 18.1242 18.706V11.3631H18.9363C19.0371 11.2158 19.0164 11.0173 18.8873 10.8941ZM15.814 12.448C15.9427 12.448 16.0482 12.5503 16.052 12.679V15.717C16.0482 15.8457 15.9427 15.9481 15.814 15.948H13.0697C12.9421 15.948 12.8386 15.8446 12.8386 15.717V12.7C12.8386 12.5725 12.9421 12.469 13.0697 12.469H15.814V12.448ZM10.7735 17.425C10.9022 17.4251 11.0077 17.3227 11.0115 17.194L11.0045 12.511C11.0045 12.3796 10.8979 12.273 10.7665 12.273H8.02918C7.90047 12.2768 7.7981 12.3823 7.79816 12.511V17.18C7.79418 17.2449 7.81774 17.3084 7.86304 17.3551C7.90834 17.4017 7.9712 17.4271 8.03618 17.425H10.7735Z" fill="currentColor"/>
</svg>
