<svg id="info-solid" viewBox="0 0 24 24" xmlns="http://www.w3.org/2000/svg">
    <path fill="currentColor" fill-rule="evenodd" clip-rule="evenodd" d="M12 4C7.58172 4 4 7.58172 4 12C4 16.4183 7.58172 20 12 20C16.4183 20 20 16.4183 20 12C20 9.87827 19.1571 7.84344 17.6569 6.34315C16.1566 4.84285 14.1217 4 12 4ZM12 15.8328C11.5407 15.845 11.1576 15.4846 11.1418 15.0255V11.3092C11.1827 10.8638 11.5563 10.5229 12.0036 10.5229C12.4509 10.5229 12.8245 10.8638 12.8654 11.3092V15.0255C12.8578 15.2474 12.7624 15.4571 12.6 15.6085C12.4377 15.76 12.2218 15.8406 12 15.8328ZM11.59 7.71636C11.2163 7.88322 10.9814 8.2602 10.9963 8.66911C11.0158 9.20916 11.4595 9.63674 11.9999 9.63639C12.4091 9.63612 12.7771 9.38747 12.9301 9.00795C13.0831 8.62843 12.9903 8.19405 12.6957 7.9101C12.4011 7.62615 11.9636 7.54949 11.59 7.71636Z"/>
</svg>
