<svg id="info-outline" viewBox="0 0 24 24" xmlns="http://www.w3.org/2000/svg">
    <path fill="currentColor" d="M12 4C14.1217 4 16.1569 4.84248 17.6572 6.34277C19.1575 7.84306 20 9.87827 20 12C20 16.4183 16.4183 20 12 20C7.58172 20 4 16.4183 4 12C4 7.58172 7.58172 4 12 4ZM12 4.95605C8.10977 4.95605 4.95605 8.10977 4.95605 12C4.95605 15.8902 8.10977 19.0439 12 19.0439C15.8902 19.0439 19.0439 15.8902 19.0439 12C19.0439 10.1318 18.3015 8.34052 16.9805 7.01953C15.6595 5.69855 13.8682 4.95605 12 4.95605ZM12.0049 10.1533C12.5638 10.1535 13.0308 10.5801 13.082 11.1367V15.7822C13.0725 16.0595 12.9529 16.3215 12.75 16.5107C12.5471 16.7 12.2773 16.8008 12 16.791C11.4261 16.8063 10.9477 16.356 10.9277 15.7822V11.1367C10.9789 10.58 11.4458 10.1533 12.0049 10.1533ZM11.4873 6.64551C11.9543 6.43693 12.5018 6.53276 12.8701 6.8877C13.2381 7.24253 13.354 7.78556 13.1631 8.25977C12.9719 8.73412 12.5114 9.04551 12 9.0459C11.3246 9.04634 10.7698 8.51179 10.7451 7.83691C10.7266 7.3258 11.0203 6.85411 11.4873 6.64551Z"/>
</svg>
