<svg id="info" width="24" height="24" viewBox="0 0 24 24" fill="none" xmlns="http://www.w3.org/2000/svg">
<path d="M4.70245 12.0406C4.70245 7.9478 7.99229 4.63819 12.0404 4.63819C13.9849 4.63819 15.8508 5.4169 17.2273 6.8046C18.604 8.19246 19.3783 10.0758 19.3783 12.0406C19.3783 16.1334 16.0884 19.443 12.0404 19.443C7.99229 19.443 4.70245 16.1334 4.70245 12.0406Z" stroke="#39870C" stroke-width="1.19515"/>
<path d="M12.0404 15.8734C11.5848 15.8856 11.2048 15.5252 11.1891 15.0661V11.3497C11.2297 10.9043 11.6003 10.5635 12.044 10.5635C12.4876 10.5635 12.8582 10.9043 12.8988 11.3497V15.0661C12.8913 15.288 12.7966 15.4977 12.6356 15.6491C12.4746 15.8006 12.2604 15.8812 12.0404 15.8734Z" fill="currentColor"/>
<path d="M11.0447 8.70976C11.03 8.30085 11.263 7.92387 11.6336 7.75701C12.0042 7.59014 12.4382 7.6668 12.7305 7.95075C13.0227 8.2347 13.1147 8.66908 12.963 9.0486C12.8113 9.42812 12.4462 9.67677 12.0403 9.67704C11.5042 9.67739 11.0642 9.24981 11.0447 8.70976Z" fill="currentColor"/>
</svg>
