<svg id="info-active" width="24" height="24" viewBox="0 0 24 24" fill="none" xmlns="http://www.w3.org/2000/svg">
<path fill-rule="evenodd" clip-rule="evenodd" d="M12.0403 4.04062C7.6577 4.04062 4.10486 7.62234 4.10486 12.0406C4.10486 16.4589 7.6577 20.0406 12.0403 20.0406C16.423 20.0406 19.9758 16.4589 19.9758 12.0406C19.9758 9.91889 19.1398 7.88406 17.6516 6.38376C16.1634 4.88347 14.145 4.04062 12.0403 4.04062ZM12.0403 15.8734C11.5848 15.8856 11.2048 15.5252 11.1891 15.0661V11.3497C11.2297 10.9043 11.6003 10.5635 12.044 10.5635C12.4876 10.5635 12.8582 10.9043 12.8988 11.3497V15.0661C12.8913 15.2879 12.7966 15.4977 12.6356 15.6491C12.4745 15.8005 12.2604 15.8812 12.0403 15.8734ZM11.6336 7.75699C11.263 7.92385 11.03 8.30083 11.0447 8.70974C11.0641 9.24978 11.5042 9.67737 12.0403 9.67701C12.4461 9.67675 12.8112 9.42809 12.963 9.04858C13.1147 8.66906 13.0227 8.23468 12.7305 7.95073C12.4382 7.66678 12.0042 7.59012 11.6336 7.75699Z" fill="currentColor"/>
</svg>
