<svg id="info-i" viewBox="0 0 24 24" xmlns="http://www.w3.org/2000/svg">
    <path fill="currentColor" d="M11.9484 9.44629C12.8712 9.44638 13.6192 10.2005 13.6193 11.1309V18.4189C13.6057 18.852 13.422 19.2622 13.1085 19.5586C12.7951 19.8548 12.3777 20.0131 11.9484 19.999C11.5188 20.0131 11.1007 19.855 10.7872 19.5586C10.4738 19.2622 10.291 18.8519 10.2775 18.4189V11.1309C10.2776 10.2004 11.0254 9.44629 11.9484 9.44629ZM12.0001 4C13.0733 4.00004 13.9434 4.87708 13.9435 5.95898C13.9435 7.04093 13.0733 7.91793 12.0001 7.91797C10.9269 7.91797 10.0568 7.04095 10.0568 5.95898C10.0568 4.87706 10.9269 4 12.0001 4Z"/>
</svg>
