<svg id="internet" viewBox="0 0 24 24" xmlns="http://www.w3.org/2000/svg">
    <path fill="currentColor" d="M11.8086 5C15.5684 5.00026 18.616 8.04793 18.6162 11.8076L18.6074 12.1582C18.5589 13.1151 18.3099 14.0184 17.9062 14.8311L18.1797 14.9326L18.208 14.9443L18.2451 14.9668L18.2822 14.998L18.3135 15.0352L18.3311 15.0625L18.3506 15.1045L18.3633 15.1514L18.3662 15.1768V15.2266L18.3613 15.2617L18.3496 15.3018L18.3369 15.3311L18.3154 15.3672L18.3008 15.3867L18.2832 15.4053L18.2471 15.4365L17.2773 16.1289L18.9189 17.8213L18.9404 17.8457L18.9668 17.8857L18.9834 17.9248L18.9951 17.9648L19 18.0049L18.998 18.0547L18.9941 18.0791L18.9805 18.126L18.9648 18.1602L18.9424 18.1943L18.9248 18.2158L18.292 18.9062C18.2413 18.9616 18.1738 18.9931 18.1045 18.999L18.0518 18.998C17.9672 19.0065 17.8792 18.9779 17.8154 18.9121L16.2275 17.2744L15.6182 18.2334L15.5898 18.2695L15.5771 18.2852L15.541 18.3145L15.4971 18.3398L15.4678 18.3516L15.416 18.3643L15.3975 18.3662C15.3774 18.3678 15.3573 18.3668 15.3379 18.3643C15.308 18.3603 15.2774 18.3518 15.249 18.3379L15.2148 18.3174L15.1787 18.2891L15.1396 18.2441L15.1133 18.1963L15.1025 18.1709L14.9863 17.8281C14.0376 18.3299 12.9566 18.6152 11.8086 18.6152C8.16611 18.6151 5.19129 15.7553 5.00879 12.1582L5 11.8076C5.00025 8.04784 8.04867 5.00015 11.8086 5ZM11.3291 15.4746C10.8654 15.4994 10.4271 15.5433 10.0146 15.6055C10.2091 16.1391 10.4399 16.5863 10.6914 16.9258C10.8987 17.2055 11.1152 17.4035 11.3291 17.5225V15.4746ZM12.2871 17.5225C12.5036 17.4021 12.7222 17.2009 12.9316 16.916C13.1859 16.5702 13.4173 16.1141 13.6123 15.5703C13.2317 15.5102 12.8341 15.4708 12.4219 15.457V15.4561L12.2871 15.4541V17.5225ZM9.06348 15.7939C8.64847 15.8969 8.26641 16.023 7.91602 16.1709C8.45794 16.655 9.09029 17.0376 9.78418 17.2939C9.50956 16.8794 9.27039 16.3835 9.0752 15.8271L9.07422 15.8252L9.06348 15.7939ZM14.4189 16.1455C14.2487 16.5734 14.0531 16.9599 13.832 17.293C14.1247 17.1851 14.4053 17.0531 14.6738 16.9023L14.4189 16.1455ZM5.97852 12.2871C6.07451 13.4702 6.52335 14.5533 7.21875 15.4326C7.6963 15.2024 8.2231 15.0178 8.79688 14.873C8.61659 14.1227 8.50137 13.2927 8.46484 12.418V12.416L8.46094 12.2871H5.97852ZM9.41992 12.2871C9.45074 13.1523 9.56401 13.9626 9.73828 14.6787C10.1754 14.6077 10.6367 14.5559 11.1211 14.5254H11.123L11.3291 14.5137V12.2871H9.41992ZM12.2871 14.4971C12.8439 14.5074 13.3775 14.558 13.8857 14.6436C13.8895 14.6278 13.8918 14.6116 13.8955 14.5957L13.6035 13.7295L13.5957 13.6963L13.5918 13.6455L13.5947 13.6064L13.6084 13.5527L13.6221 13.5215L13.6328 13.501C13.6614 13.4532 13.7042 13.4126 13.7578 13.3877L13.7959 13.374L13.8184 13.3672L13.8701 13.3613H13.8887L13.9336 13.3662L13.9609 13.373L14.1025 13.4248C14.1448 13.0909 14.178 12.7449 14.1934 12.3887L14.1963 12.2871H12.2871V14.4971ZM15.1553 12.2871C15.1386 12.7973 15.0938 13.2925 15.0264 13.7666L17.0029 14.4971C17.3509 13.8258 17.5735 13.0789 17.6377 12.2871H15.1553ZM7.13965 8.28418C6.48891 9.14487 6.07079 10.1909 5.97852 11.3291H8.46094C8.48946 10.4576 8.59474 9.62878 8.76562 8.87598C8.17187 8.72441 7.6294 8.52747 7.13965 8.28418ZM9.70703 9.07031C9.55054 9.75329 9.44883 10.5169 9.41992 11.3291H11.3291V9.23926C10.7564 9.21039 10.2157 9.15403 9.70703 9.07031ZM13.918 9.10742C13.4 9.1963 12.8557 9.24733 12.2871 9.25781V11.3291H14.1963C14.168 10.5316 14.0696 9.78083 13.918 9.10742ZM16.3184 8.36914C16.0549 8.49512 15.7483 8.62043 15.4023 8.73633C15.2247 8.79583 15.0417 8.84881 14.8555 8.89941C15.0233 9.64577 15.1271 10.4665 15.1553 11.3291H17.6377C17.5455 10.1927 17.1284 9.14799 16.4795 8.28809C16.4321 8.31245 16.3785 8.34038 16.3184 8.36914ZM12.2871 8.29883C12.7666 8.28929 13.2237 8.2467 13.6592 8.17676C13.4625 7.59661 13.224 7.10917 12.9609 6.74023C12.7427 6.43445 12.5138 6.21869 12.2871 6.09277V8.29883ZM11.3291 6.09277C11.1264 6.2053 10.9221 6.38929 10.7246 6.64648C10.4498 7.00451 10.197 7.49011 9.98926 8.07812L9.99023 8.0791L9.96875 8.1416C10.3947 8.2077 10.8481 8.25451 11.3291 8.28027V6.09277ZM13.833 6.32227C14.1373 6.78119 14.3952 7.34167 14.6016 7.97363C14.7706 7.92821 14.9373 7.88118 15.0986 7.82715C15.3666 7.73735 15.6036 7.63942 15.8105 7.54492C15.2448 7.01419 14.5742 6.59589 13.833 6.32227ZM9.7832 6.32129C9.04379 6.59435 8.375 7.01201 7.81055 7.54102C8.17762 7.70377 8.58169 7.83868 9.02148 7.9502C9.22678 7.32753 9.48239 6.77477 9.7832 6.32129Z"/>
</svg>
