<svg id="internet" width="24" height="24" viewBox="0 0 24 24" fill="none" xmlns="http://www.w3.org/2000/svg">
<path fill-rule="evenodd" clip-rule="evenodd" d="M11.7086 5C15.4136 5 18.4171 8.00339 18.4171 11.7082C18.4171 15.4131 15.4136 18.4165 11.7086 18.4165C8.00353 18.4165 5 15.4131 5 11.7082C5 8.00339 8.00353 5 11.7086 5ZM11.417 15.2211C10.7768 15.2475 10.1813 15.308 9.63027 15.4024C10.063 16.7056 10.7096 17.5982 11.4172 17.7931L11.417 15.2211ZM12.0002 15.2076L12.3375 15.2141C12.8469 15.2311 13.3342 15.2845 13.7975 15.3693C13.3654 16.6897 12.7141 17.596 12.0005 17.7929L12.0002 15.2076ZM9.05291 15.5176C8.4443 15.6567 7.89792 15.8421 7.41255 16.0734C8.17101 16.8203 9.12261 17.3704 10.1855 17.6423C9.76209 17.1739 9.39978 16.514 9.12088 15.7191L9.05291 15.5176ZM14.3364 15.6023L14.3735 15.4898C14.6256 15.5516 14.8698 15.6225 15.1058 15.7015C15.4262 15.8088 15.707 15.9235 15.9457 16.0376L16.0097 16.0691C15.2506 16.8178 14.2971 17.3697 13.2312 17.6418C13.6757 17.1511 14.0525 16.4494 14.3364 15.6023ZM8.503 12.0004L5.59019 12.0004C5.65484 13.377 6.17393 14.6347 7.00082 15.6269C7.5577 15.3425 8.18751 15.1194 8.89 14.9563C8.68363 14.1611 8.55238 13.2675 8.51279 12.3186L8.503 12.0004ZM14.9142 12.0004L17.827 12.0004C17.7624 13.3754 17.2444 14.6318 16.4199 15.6236C16.4003 15.6131 16.3791 15.6019 16.3561 15.5901L16.1974 15.5114C15.9376 15.3872 15.6348 15.2635 15.2911 15.1484C15.0469 15.0666 14.7946 14.9931 14.5342 14.93C14.7592 14.0525 14.8932 13.0569 14.9142 12.0004ZM11.4168 11.9999L9.08648 12.0006C9.10821 13.037 9.24472 14.0033 9.46405 14.8396C9.95231 14.7528 10.4724 14.6921 11.0242 14.6574L11.4168 14.6371V11.9999ZM12.0002 11.9999L14.3306 12.0006L14.3209 12.3052C14.2817 13.2125 14.1547 14.0599 13.9623 14.8048C13.3464 14.6898 12.6913 14.626 12.0007 14.6248L12.0002 11.9999ZM6.91962 7.89031L6.91525 7.89465C6.13809 8.87007 5.65246 10.088 5.59019 11.4167L8.50302 11.4167C8.52306 10.4027 8.64729 9.44483 8.85612 8.59363C8.13292 8.42366 7.48749 8.18924 6.91962 7.89031ZM9.41757 8.76128L9.4295 8.713C10.0355 8.82225 10.6904 8.89122 11.3942 8.92016L11.4169 8.92055V11.4166L9.08648 11.4165C9.1066 10.4552 9.22546 9.55418 9.41757 8.76128ZM16.4986 7.89052L16.399 7.94591C16.3439 7.97505 16.2766 8.00907 16.1974 8.04698C15.9376 8.17117 15.6347 8.29485 15.2911 8.40996C15.0573 8.48828 14.816 8.55905 14.5676 8.62141C14.7725 9.4653 14.8943 10.4135 14.9141 11.4167L17.827 11.4167C17.7646 10.0862 17.2777 8.86663 16.4986 7.89052ZM13.855 8.77309L13.9959 8.74654C14.1902 9.543 14.3104 10.4493 14.3306 11.4165L12.0002 11.4166L12.0007 8.93356C12.6514 8.93245 13.2705 8.87578 13.855 8.77309ZM12.0005 5.62356L12.0002 8.35004C12.6514 8.34883 13.2647 8.2895 13.8409 8.18286C13.4093 6.78874 12.7381 5.8271 12.0005 5.62356ZM9.58735 8.14857L9.62632 8.02693L9.68146 7.86537C10.1127 6.64348 10.7367 5.8108 11.4172 5.62339L11.4169 8.33726C10.7602 8.3102 10.1503 8.24722 9.58735 8.14857ZM13.2317 5.77416L13.3046 5.85834C13.7584 6.39222 14.1376 7.14965 14.4141 8.05749C14.6519 7.99911 14.8826 7.93162 15.1058 7.85684C15.4262 7.74951 15.707 7.63485 15.9457 7.52072L16.1042 7.44185C15.3299 6.6452 14.3414 6.05813 13.2317 5.77416ZM10.1058 5.79515L10.186 5.77464C9.70429 6.30653 9.30207 7.08603 9.01103 8.03132C8.32053 7.87016 7.70962 7.6486 7.17825 7.36721L7.31759 7.4379L7.43225 7.3231C8.16814 6.60542 9.08401 6.07141 10.1058 5.79515Z" fill="currentColor"/>
<path d="M9.63027 15.4024L9.59744 15.2107L9.37443 15.2489L9.44573 15.4637L9.63027 15.4024ZM11.417 15.2211L11.6114 15.2211L11.6114 15.0185L11.409 15.0268L11.417 15.2211ZM11.4172 17.7931L11.3656 17.9806L11.6117 18.0483L11.6116 17.7931L11.4172 17.7931ZM12.3375 15.2141L12.344 15.0197L12.3412 15.0197L12.3375 15.2141ZM12.0002 15.2076L12.004 15.0132L11.8058 15.0094L11.8058 15.2076L12.0002 15.2076ZM13.7975 15.3693L13.9823 15.4297L14.0515 15.2181L13.8325 15.178L13.7975 15.3693ZM12.0005 17.7929L11.8061 17.793L11.8061 18.0483L12.0523 17.9804L12.0005 17.7929ZM7.41255 16.0734L7.32889 15.8979L7.07841 16.0173L7.27611 16.212L7.41255 16.0734ZM9.05291 15.5176L9.23715 15.4554L9.18096 15.2888L9.00957 15.328L9.05291 15.5176ZM10.1855 17.6423L10.1373 17.8307L10.7625 17.9907L10.3298 17.512L10.1855 17.6423ZM9.12088 15.7191L8.93662 15.7813L8.9374 15.7835L9.12088 15.7191ZM14.3735 15.4898L14.4197 15.301L14.2451 15.2582L14.1888 15.4289L14.3735 15.4898ZM14.3364 15.6023L14.5207 15.6641L14.521 15.6632L14.3364 15.6023ZM15.1058 15.7015L15.1676 15.5171L15.1058 15.7015ZM15.9457 16.0376L16.0316 15.8632L16.0296 15.8622L15.9457 16.0376ZM16.0097 16.0691L16.1462 16.2076L16.3409 16.0155L16.0956 15.8947L16.0097 16.0691ZM13.2312 17.6418L13.0871 17.5113L12.6536 17.99L13.2793 17.8302L13.2312 17.6418ZM5.59019 12.0004L5.59019 11.8059L5.38641 11.8059L5.39596 12.0095L5.59019 12.0004ZM8.503 12.0004L8.69736 11.9944L8.69156 11.8059H8.503L8.503 12.0004ZM7.00082 15.6269L6.85145 15.7514L6.9509 15.8707L7.08925 15.8001L7.00082 15.6269ZM8.89 14.9563L8.93398 15.1457L9.12833 15.1006L9.07821 14.9075L8.89 14.9563ZM8.51279 12.3186L8.31842 12.3246L8.31851 12.3268L8.51279 12.3186ZM17.827 12.0004L18.0212 12.0095L18.0308 11.8059L17.827 11.8059V12.0004ZM14.9142 12.0004V11.8059H14.7235L14.7197 11.9965L14.9142 12.0004ZM16.4199 15.6236L16.3278 15.7949L16.4678 15.8701L16.5694 15.7479L16.4199 15.6236ZM16.3561 15.5901L16.4452 15.4172L16.4424 15.4158L16.3561 15.5901ZM16.1974 15.5114L16.2837 15.3372L16.2812 15.336L16.1974 15.5114ZM15.2911 15.1484L15.3529 14.9641L15.2911 15.1484ZM14.5342 14.93L14.3459 14.8817L14.2969 15.0725L14.4884 15.1189L14.5342 14.93ZM9.08648 12.0006L9.08643 11.8061L8.88792 11.8062L8.89208 12.0047L9.08648 12.0006ZM11.4168 11.9999H11.6113V11.8054L11.4168 11.8055L11.4168 11.9999ZM9.46405 14.8396L9.27596 14.8889L9.32147 15.0624L9.49808 15.031L9.46405 14.8396ZM11.0242 14.6574L11.0141 14.4632L11.012 14.4634L11.0242 14.6574ZM11.4168 14.6371L11.4269 14.8313L11.6113 14.8218V14.6371H11.4168ZM14.3306 12.0006L14.5249 12.0068L14.5314 11.8062L14.3307 11.8061L14.3306 12.0006ZM12.0002 11.9999L12.0003 11.8055L11.8058 11.8054L11.8058 12L12.0002 11.9999ZM14.3209 12.3052L14.5151 12.3136L14.5152 12.3114L14.3209 12.3052ZM13.9623 14.8048L13.9267 14.9959L14.1052 15.0292L14.1506 14.8534L13.9623 14.8048ZM12.0007 14.6248L11.8062 14.6249L11.8063 14.819L12.0003 14.8193L12.0007 14.6248ZM6.91525 7.89465L6.7782 7.75671L6.7702 7.76466L6.76317 7.77348L6.91525 7.89465ZM6.91962 7.89031L7.01019 7.71825L6.88386 7.65174L6.78258 7.75236L6.91962 7.89031ZM5.59019 11.4167L5.39596 11.4076L5.38642 11.6112L5.59019 11.6112L5.59019 11.4167ZM8.50302 11.4167L8.50302 11.6112H8.69366L8.69743 11.4206L8.50302 11.4167ZM8.85612 8.59363L9.04496 8.63996L9.09174 8.44927L8.9006 8.40435L8.85612 8.59363ZM9.4295 8.713L9.464 8.52164L9.2845 8.48928L9.24074 8.66635L9.4295 8.713ZM9.41757 8.76128L9.2288 8.71463L9.2286 8.7155L9.41757 8.76128ZM11.3942 8.92016L11.3862 9.1145L11.3909 9.11458L11.3942 8.92016ZM11.4169 8.92055H11.6113V8.72938L11.4202 8.72613L11.4169 8.92055ZM11.4169 11.4166L11.4168 11.611L11.6113 11.611V11.4166H11.4169ZM9.08648 11.4165L8.89208 11.4124L8.88793 11.611L9.08648 11.611L9.08648 11.4165ZM16.399 7.94591L16.49 8.11779L16.4934 8.11587L16.399 7.94591ZM16.4986 7.89052L16.6506 7.76922L16.548 7.64064L16.4042 7.72056L16.4986 7.89052ZM16.1974 8.04698L16.1135 7.87156L16.1974 8.04698ZM15.2911 8.40996L15.3528 8.59434L15.2911 8.40996ZM14.5676 8.62141L14.5203 8.43281L14.3331 8.47979L14.3787 8.66729L14.5676 8.62141ZM14.9141 11.4167L14.7197 11.4205L14.7235 11.6112H14.9141V11.4167ZM17.827 11.4167V11.6111L18.0307 11.6111L18.0212 11.4076L17.827 11.4167ZM13.9959 8.74654L14.1849 8.70048L14.1412 8.52133L13.96 8.55546L13.9959 8.74654ZM13.855 8.77309L13.8886 8.96461L13.891 8.96417L13.855 8.77309ZM14.3306 11.4165L14.3306 11.611L14.5292 11.6109L14.525 11.4124L14.3306 11.4165ZM12.0002 11.4166L11.8058 11.4166L11.8058 11.611L12.0003 11.611L12.0002 11.4166ZM12.0007 8.93356L12.0003 8.73911L11.8063 8.73944L11.8062 8.93353L12.0007 8.93356ZM12.0002 8.35004L11.8058 8.35002L11.8058 8.54485L12.0006 8.54449L12.0002 8.35004ZM12.0005 5.62356L12.0523 5.43612L11.8061 5.3682L11.8061 5.62354L12.0005 5.62356ZM13.8409 8.18286L13.8763 8.37406L14.0914 8.33426L14.0267 8.12536L13.8409 8.18286ZM9.62632 8.02693L9.44227 7.96412L9.44115 7.96761L9.62632 8.02693ZM9.58735 8.14857L9.40218 8.08925L9.33415 8.30161L9.55379 8.3401L9.58735 8.14857ZM9.68146 7.86537L9.49809 7.80066L9.49744 7.80257L9.68146 7.86537ZM11.4172 5.62339L11.6116 5.62341L11.6116 5.36815L11.3656 5.43593L11.4172 5.62339ZM11.4169 8.33726L11.4089 8.53154L11.6114 8.53988L11.6114 8.33728L11.4169 8.33726ZM13.3046 5.85834L13.4528 5.73241L13.4515 5.73097L13.3046 5.85834ZM13.2317 5.77416L13.2799 5.58579L12.6773 5.43162L13.0847 5.90153L13.2317 5.77416ZM14.4141 8.05749L14.2281 8.11414L14.2817 8.29021L14.4605 8.24633L14.4141 8.05749ZM15.1058 7.85684L15.0441 7.67246L15.1058 7.85684ZM15.9457 7.52072L16.0296 7.69616L16.0323 7.69481L15.9457 7.52072ZM16.1042 7.44185L16.1908 7.61594L16.4293 7.49731L16.2437 7.30633L16.1042 7.44185ZM10.186 5.77464L10.3301 5.90516L10.7639 5.42608L10.1378 5.58626L10.186 5.77464ZM10.1058 5.79515L10.0576 5.60675L10.055 5.60745L10.1058 5.79515ZM9.01103 8.03132L8.96684 8.22068L9.14349 8.26191L9.19687 8.08854L9.01103 8.03132ZM7.17825 7.36721L7.26623 7.19381L7.08725 7.53905L7.17825 7.36721ZM7.31759 7.4379L7.22962 7.61131L7.35545 7.67515L7.45517 7.57531L7.31759 7.4379ZM7.43225 7.3231L7.29648 7.18388L7.29467 7.18569L7.43225 7.3231ZM18.6116 11.7082C18.6116 7.89599 15.521 4.80556 11.7086 4.80556V5.19444C15.3062 5.19444 18.2227 8.11078 18.2227 11.7082H18.6116ZM11.7086 18.6109C15.521 18.6109 18.6116 15.5205 18.6116 11.7082H18.2227C18.2227 15.3057 15.3062 18.2221 11.7086 18.2221V18.6109ZM4.80556 11.7082C4.80556 15.5205 7.89615 18.6109 11.7086 18.6109V18.2221C8.11091 18.2221 5.19444 15.3057 5.19444 11.7082H4.80556ZM11.7086 4.80556C7.89615 4.80556 4.80556 7.89599 4.80556 11.7082H5.19444C5.19444 8.11078 8.11091 5.19444 11.7086 5.19444V4.80556ZM9.66309 15.594C10.2048 15.5012 10.792 15.4415 11.425 15.4154L11.409 15.0268C10.7616 15.0535 10.1577 15.1147 9.59744 15.2107L9.66309 15.594ZM11.4688 17.6056C11.1727 17.5241 10.867 17.2891 10.5769 16.8976C10.2883 16.5082 10.0267 15.9793 9.8148 15.3411L9.44573 15.4637C9.66655 16.1287 9.94464 16.6977 10.2644 17.1291C10.5826 17.5585 10.954 17.8672 11.3656 17.9806L11.4688 17.6056ZM11.2225 15.2211L11.2228 17.7931L11.6116 17.7931L11.6114 15.2211L11.2225 15.2211ZM12.3412 15.0197L12.004 15.0132L11.9965 15.402L12.3338 15.4085L12.3412 15.0197ZM13.8325 15.178C13.3597 15.0915 12.8629 15.0371 12.344 15.0197L12.331 15.4084C12.831 15.4252 13.3087 15.4775 13.7625 15.5605L13.8325 15.178ZM12.0523 17.9804C12.4672 17.8659 12.8413 17.5528 13.1612 17.1176C13.4828 16.6803 13.7618 16.1035 13.9823 15.4297L13.6127 15.3088C13.4011 15.9556 13.1384 16.4921 12.8479 16.8873C12.5558 17.2846 12.2474 17.5231 11.9488 17.6055L12.0523 17.9804ZM11.8058 15.2076L11.8061 17.793L12.195 17.7929L12.1947 15.2076L11.8058 15.2076ZM7.49621 16.249C7.96689 16.0246 8.49946 15.8436 9.09624 15.7071L9.00957 15.328C8.38914 15.4699 7.82895 15.6596 7.32889 15.8979L7.49621 16.249ZM10.2337 17.454C9.20492 17.1907 8.28356 16.6583 7.54898 15.9349L7.27611 16.212C8.05847 16.9824 9.0403 17.55 10.1373 17.8307L10.2337 17.454ZM8.9374 15.7835C9.22189 16.5943 9.59535 17.2794 10.0413 17.7727L10.3298 17.512C9.92882 17.0683 9.57768 16.4337 9.30436 15.6547L8.9374 15.7835ZM8.86866 15.5797L8.93664 15.7812L9.30513 15.657L9.23715 15.4554L8.86866 15.5797ZM14.1888 15.4289L14.1517 15.5414L14.521 15.6632L14.5581 15.5507L14.1888 15.4289ZM15.1676 15.5171C14.9265 15.4364 14.6771 15.364 14.4197 15.301L14.3272 15.6787C14.5741 15.7391 14.8132 15.8086 15.0441 15.8859L15.1676 15.5171ZM16.0296 15.8622C15.7832 15.7444 15.495 15.6268 15.1676 15.5171L15.0441 15.8859C15.3575 15.9909 15.6308 16.1026 15.8618 16.2131L16.0296 15.8622ZM16.0956 15.8947L16.0316 15.8632L15.8598 16.2121L15.9237 16.2436L16.0956 15.8947ZM13.2793 17.8302C14.3794 17.5494 15.3633 16.9798 16.1462 16.2076L15.8731 15.9307C15.138 16.6558 14.2147 17.19 13.1831 17.4534L13.2793 17.8302ZM14.152 15.5405C13.8735 16.3715 13.508 17.0466 13.0871 17.5113L13.3754 17.7724C13.8434 17.2556 14.2314 16.5274 14.5207 15.6641L14.152 15.5405ZM5.59019 12.1948L8.503 12.1948L8.503 11.8059L5.59019 11.8059L5.59019 12.1948ZM7.15019 15.5024C6.34946 14.5416 5.84701 13.3241 5.78442 11.9913L5.39596 12.0095C5.46266 13.4299 5.99839 14.7278 6.85145 15.7514L7.15019 15.5024ZM8.84603 14.7669C8.13053 14.933 7.48543 15.1611 6.91239 15.4537L7.08925 15.8001C7.62997 15.524 8.24448 15.3058 8.93398 15.1457L8.84603 14.7669ZM8.31851 12.3268C8.35863 13.288 8.49165 14.1954 8.70179 15.0052L9.07821 14.9075C8.8756 14.1268 8.74614 13.2469 8.70706 12.3105L8.31851 12.3268ZM8.30865 12.0064L8.31843 12.3246L8.70714 12.3127L8.69736 11.9944L8.30865 12.0064ZM17.827 11.8059L14.9142 11.8059V12.1948L17.827 12.1948V11.8059ZM16.5694 15.7479C17.42 14.7247 17.9546 13.4282 18.0212 12.0095L17.6327 11.9913C17.5702 13.3225 17.0689 14.5388 16.2704 15.4993L16.5694 15.7479ZM16.267 15.7629C16.289 15.7743 16.3093 15.785 16.3278 15.7949L16.5119 15.4523C16.4913 15.4413 16.4691 15.4296 16.4452 15.4172L16.267 15.7629ZM16.111 15.6856L16.2697 15.7643L16.4424 15.4158L16.2837 15.3372L16.111 15.6856ZM15.2293 15.3328C15.5659 15.4456 15.8614 15.5663 16.1135 15.6868L16.2812 15.336C16.0139 15.2081 15.7036 15.0815 15.3529 14.9641L15.2293 15.3328ZM14.4884 15.1189C14.7432 15.1807 14.9901 15.2527 15.2293 15.3328L15.3529 14.9641C15.1037 14.8806 14.8461 14.8055 14.58 14.741L14.4884 15.1189ZM14.7197 11.9965C14.6991 13.0395 14.5668 14.02 14.3459 14.8817L14.7226 14.9783C14.9516 14.085 15.0874 13.0744 15.1086 12.0042L14.7197 11.9965ZM9.08654 12.195L11.4169 12.1944L11.4168 11.8055L9.08643 11.8061L9.08654 12.195ZM9.65213 14.7902C9.43697 13.9699 9.30232 13.0188 9.28088 11.9965L8.89208 12.0047C8.91411 13.0551 9.05247 14.0367 9.27596 14.8889L9.65213 14.7902ZM11.012 14.4634C10.4537 14.4985 9.92629 14.5599 9.43002 14.6481L9.49808 15.031C9.97833 14.9456 10.4911 14.8858 11.0364 14.8515L11.012 14.4634ZM11.4068 14.443L11.0141 14.4633L11.0342 14.8516L11.4269 14.8313L11.4068 14.443ZM11.2224 11.9999V14.6371H11.6113V11.9999H11.2224ZM14.3307 11.8061L12.0003 11.8055L12.0002 12.1944L14.3305 12.195L14.3307 11.8061ZM14.5152 12.3114L14.5249 12.0068L14.1363 11.9944L14.1265 12.299L14.5152 12.3114ZM14.1506 14.8534C14.3466 14.0944 14.4755 13.2335 14.5151 12.3136L14.1266 12.2968C14.088 13.1916 13.9628 14.0254 13.7741 14.7561L14.1506 14.8534ZM12.0003 14.8193C12.6792 14.8204 13.3224 14.8831 13.9267 14.9959L13.998 14.6136C13.3704 14.4965 12.7035 14.4316 12.001 14.4304L12.0003 14.8193ZM11.8058 12L11.8062 14.6249L12.1951 14.6248L12.1947 11.9999L11.8058 12ZM7.05229 8.03259L7.05666 8.02825L6.78258 7.75236L6.7782 7.75671L7.05229 8.03259ZM5.78443 11.4258C5.84471 10.1394 6.31479 8.96034 7.06732 8.01582L6.76317 7.77348C5.9614 8.7798 5.46021 10.0367 5.39596 11.4076L5.78443 11.4258ZM8.50302 11.2223L5.59019 11.2223L5.59019 11.6112L8.50302 11.6112L8.50302 11.2223ZM8.66727 8.5473C8.45475 9.41356 8.32892 10.3858 8.30861 11.4129L8.69743 11.4206C8.71721 10.4197 8.83982 9.47611 9.04496 8.63996L8.66727 8.5473ZM6.82904 8.06237C7.41356 8.37007 8.07486 8.60975 8.81163 8.78292L8.9006 8.40435C8.19098 8.23756 7.56141 8.00842 7.01019 7.71825L6.82904 8.06237ZM9.24074 8.66635L9.22881 8.71463L9.60634 8.80794L9.61827 8.75965L9.24074 8.66635ZM11.4022 8.72588C10.706 8.69725 10.0601 8.62911 9.464 8.52164L9.39501 8.90436C10.0109 9.0154 10.6748 9.08518 11.3862 9.11444L11.4022 8.72588ZM11.4202 8.72613L11.3975 8.72574L11.3909 9.11458L11.4135 9.11496L11.4202 8.72613ZM11.6113 11.4166V8.92055H11.2224V11.4166H11.6113ZM9.08648 11.611L11.4168 11.611L11.4169 11.2222L9.08649 11.2221L9.08648 11.611ZM9.2286 8.7155C9.03296 9.52292 8.91247 10.438 8.89208 11.4124L9.28088 11.4206C9.30072 10.4724 9.41796 9.58543 9.60655 8.80707L9.2286 8.7155ZM16.4934 8.11587L16.5931 8.06048L16.4042 7.72056L16.3045 7.77595L16.4934 8.11587ZM16.2812 8.2224C16.3627 8.18346 16.4324 8.14825 16.49 8.11776L16.308 7.77406C16.2555 7.80185 16.1906 7.83468 16.1135 7.87156L16.2812 8.2224ZM15.3528 8.59434C15.7036 8.47686 16.0139 8.35025 16.2812 8.2224L16.1135 7.87156C15.8614 7.9921 15.5659 8.11283 15.2293 8.22558L15.3528 8.59434ZM14.615 8.81C14.8682 8.74642 15.1143 8.67425 15.3528 8.59434L15.2293 8.22558C15.0002 8.30232 14.7638 8.37168 14.5203 8.43281L14.615 8.81ZM15.1086 11.4129C15.0885 10.3967 14.9651 9.43432 14.7566 8.57553L14.3787 8.66729C14.58 9.49628 14.7002 10.4303 14.7197 11.4205L15.1086 11.4129ZM17.827 11.2223L14.9141 11.2223V11.6112L17.827 11.6111V11.2223ZM16.3467 8.01182C17.1011 8.95701 17.5724 10.1376 17.6327 11.4258L18.0212 11.4076C17.9569 10.0348 17.4544 8.77625 16.6506 7.76922L16.3467 8.01182ZM13.96 8.55546L13.819 8.582L13.891 8.96417L14.0319 8.93763L13.96 8.55546ZM14.525 11.4124C14.5045 10.432 14.3826 9.51157 14.1849 8.70048L13.807 8.79261C13.9977 9.57443 14.1163 10.4665 14.1362 11.4206L14.525 11.4124ZM12.0003 11.611L14.3306 11.611L14.3306 11.2221L12.0002 11.2221L12.0003 11.611ZM11.8062 8.93353L11.8058 11.4166L12.1947 11.4166L12.1951 8.93359L11.8062 8.93353ZM13.8214 8.58157C13.2479 8.68232 12.6399 8.73803 12.0003 8.73911L12.001 9.128C12.6628 9.12688 13.293 9.06923 13.8886 8.9646L13.8214 8.58157ZM12.1947 8.35006L12.195 5.62358L11.8061 5.62354L11.8058 8.35002L12.1947 8.35006ZM13.8055 7.99166C13.241 8.09614 12.6394 8.15441 11.9999 8.1556L12.0006 8.54449C12.6634 8.54325 13.2884 8.48285 13.8763 8.37406L13.8055 7.99166ZM11.9488 5.811C12.2577 5.89623 12.5767 6.14841 12.8772 6.56966C13.1758 6.98832 13.4436 7.55693 13.6552 8.24036L14.0267 8.12536C13.8067 7.41466 13.523 6.8054 13.1938 6.34382C12.8664 5.88484 12.481 5.55443 12.0523 5.43612L11.9488 5.811ZM9.44115 7.96761L9.40218 8.08925L9.77253 8.2079L9.8115 8.08625L9.44115 7.96761ZM9.49744 7.80257L9.4423 7.96413L9.81034 8.08974L9.86548 7.92817L9.49744 7.80257ZM11.3656 5.43593C10.9696 5.54496 10.611 5.83486 10.3016 6.23807C9.99077 6.64303 9.71839 7.17642 9.4981 7.80066L9.86482 7.93008C10.0757 7.33243 10.331 6.83853 10.6101 6.47484C10.8906 6.10938 11.1842 5.88923 11.4688 5.81086L11.3656 5.43593ZM11.6114 8.33728L11.6116 5.62341L11.2227 5.62337L11.2225 8.33724L11.6114 8.33728ZM9.55379 8.3401C10.1263 8.44042 10.7448 8.50418 11.4089 8.53154L11.4249 8.14298C10.7755 8.11622 10.1743 8.05402 9.62091 7.95705L9.55379 8.3401ZM13.4515 5.73097L13.3786 5.64679L13.0847 5.90153L13.1577 5.98571L13.4515 5.73097ZM14.6001 8.00085C14.3187 7.07675 13.929 6.29278 13.4528 5.73241L13.1565 5.98426C13.5877 6.49166 13.9566 7.22255 14.2281 8.11414L14.6001 8.00085ZM15.0441 7.67246C14.8256 7.74563 14.6002 7.81161 14.3678 7.86865L14.4605 8.24633C14.7037 8.18662 14.9395 8.11761 15.1676 8.04121L15.0441 7.67246ZM15.8618 7.3453C15.6308 7.45575 15.3575 7.56748 15.0441 7.67246L15.1676 8.04121C15.495 7.93154 15.7832 7.81395 16.0296 7.69614L15.8618 7.3453ZM16.0176 7.26776L15.8591 7.34663L16.0323 7.69481L16.1908 7.61594L16.0176 7.26776ZM13.1835 5.96254C14.2576 6.2374 15.2147 6.80573 15.9648 7.57738L16.2437 7.30633C15.445 6.48468 14.4253 5.87887 13.2799 5.58579L13.1835 5.96254ZM10.1378 5.58626L10.0576 5.60677L10.154 5.98353L10.2341 5.96302L10.1378 5.58626ZM9.19687 8.08854C9.48278 7.15992 9.87374 6.40908 10.3301 5.90516L10.0418 5.64412C9.53484 6.20397 9.12137 7.01215 8.8252 7.9741L9.19687 8.08854ZM7.08725 7.53905C7.63572 7.8295 8.26281 8.05636 8.96684 8.22068L9.05523 7.84197C8.37824 7.68396 7.78352 7.46771 7.26925 7.19538L7.08725 7.53905ZM7.40556 7.2645L7.26623 7.19381L7.09028 7.54062L7.22962 7.61131L7.40556 7.2645ZM7.29467 7.18569L7.18001 7.3005L7.45517 7.57531L7.56983 7.46051L7.29467 7.18569ZM10.055 5.60745C9.00049 5.89257 8.05555 6.44363 7.29649 7.1839L7.56801 7.46231C8.28073 6.76722 9.16753 6.25026 10.1565 5.98285L10.055 5.60745Z" fill="currentColor"/>
<path d="M13.7992 13.2833L13.8176 13.2833L13.8637 13.2884L13.8914 13.2952L18.1683 14.8763L18.1968 14.8886L18.2346 14.911L18.2723 14.9426L18.3044 14.9803L18.3222 15.0085L18.3414 15.0508L18.3541 15.0978L18.3576 15.1234L18.3577 15.1747L18.3525 15.2102L18.3407 15.251L18.3282 15.2799L18.3064 15.3167L18.2912 15.3367L18.2737 15.3558L18.2366 15.3872L17.2538 16.0889L18.9182 17.8051L18.9397 17.8302L18.9662 17.8708L18.9835 17.91L18.9948 17.9506L19 17.9913L18.9985 18.0419L18.9946 18.0664L18.9807 18.1139L18.9645 18.1487L18.9419 18.1835L18.9238 18.2052L18.2821 18.9052C18.2307 18.9614 18.1623 18.9928 18.092 18.9988L18.0391 18.9985C17.9532 19.0072 17.8642 18.978 17.7994 18.9112L16.1892 17.2509L15.5714 18.2231L15.5428 18.2601L15.5293 18.275L15.493 18.3053L15.4486 18.3309L15.4186 18.3428L15.3663 18.3553L15.3478 18.3573C15.3272 18.359 15.3068 18.3583 15.2868 18.3557C15.2563 18.3517 15.226 18.3427 15.1971 18.3285L15.1625 18.3085L15.1259 18.2794L15.0865 18.2341L15.0591 18.1857L15.049 18.1598L13.5287 13.657L13.5209 13.6232L13.5169 13.5715L13.52 13.5323L13.5336 13.4778L13.5472 13.4453L13.5584 13.4249C13.5874 13.3763 13.6311 13.3357 13.6856 13.3104L13.724 13.2958L13.7467 13.2896L13.7992 13.2833Z" fill="currentColor"/>
</svg>
