<svg id="label" width="24" height="24" viewBox="0 0 24 24" fill="none" xmlns="http://www.w3.org/2000/svg">
<path fill-rule="evenodd" clip-rule="evenodd" d="M19 7.37706C18.9804 7.00014 18.8322 6.64138 18.58 6.36082L17.6409 5.42051C17.3607 5.16804 17.0024 5.01959 16.6259 5H13.6568C13.2782 5.0188 12.9158 5.16022 12.6244 5.40299L5.16962 12.3531C4.94346 12.5809 4.94346 12.9488 5.16962 13.1766L10.8628 18.8302C11.0903 19.0566 11.4577 19.0566 11.6852 18.8302L18.5975 11.3836C18.84 11.0918 18.9812 10.729 19 10.3498V7.37706ZM17.25 7.92022C17.25 8.56534 16.7277 9.08831 16.0834 9.08831C15.4391 9.08831 14.9168 8.56534 14.9168 7.92022C14.9168 7.27511 15.4391 6.75214 16.0834 6.75214C16.7277 6.75214 17.25 7.27511 17.25 7.92022Z" fill="currentColor"/>
</svg>
