<svg id="label" viewBox="0 0 24 24" xmlns="http://www.w3.org/2000/svg">
    <path fill="currentColor" fill-rule="evenodd" clip-rule="evenodd" d="M18.5 7.762C18.4797 7.37162 18.3262 7.00005 18.065 6.70947L17.0923 5.73558C16.8021 5.47409 16.431 5.32034 16.0411 5.30005H12.966C12.5738 5.31952 12.1986 5.46599 11.8967 5.71743L4.17568 12.9158C3.94144 13.1517 3.94144 13.5328 4.17568 13.7687L10.0722 19.6241C10.3078 19.8587 10.6884 19.8587 10.924 19.6241L18.0831 11.9116C18.3343 11.6094 18.4806 11.2336 18.5 10.841V7.762ZM16.6875 8.32463C16.6875 8.99279 16.1465 9.53444 15.4792 9.53444C14.8119 9.53444 14.2709 8.99279 14.2709 8.32463C14.2709 7.65647 14.8119 7.11482 15.4792 7.11482C16.1465 7.11482 16.6875 7.65647 16.6875 8.32463Z"/>
</svg>
