<svg id="landscape" viewBox="0 0 24 24" xmlns="http://www.w3.org/2000/svg">
    <path fill="currentColor" d="M9.66667 5L11.4167 11.4167H5L6.75 6.16667L8.5 6.75L9.66667 5ZM17.25 10.25L15.5 9.66667L13.1667 13.75L19 15.5V8.5L17.25 10.25ZM7.91667 14.3333C8.5 14.66 10.5417 15.9317 10.7225 16.0833C10.7225 16.0833 5.58333 18.4167 5 19H15.2958C16.4625 17.25 17.0458 16.0833 16.4625 15.5C15.8792 14.9167 10.7108 13.8958 10.8333 13.75C11.1017 13.4292 13.75 11.4167 13.75 11.4167H12.5833C12.5833 11.4167 7.23417 13.96 7.91667 14.3333ZM17.8333 6.75C17.833 6.80231 17.8173 6.85338 17.7883 6.8969C17.7593 6.94043 17.7181 6.97453 17.67 6.995H17.6233C17.2304 7.12467 16.8632 7.32209 16.5383 7.57833C16.5312 8.03828 16.6481 8.49166 16.8767 8.89083C16.9019 8.94224 16.9104 9.00027 16.901 9.05677C16.8916 9.11326 16.8647 9.16539 16.8242 9.20583C16.7828 9.24529 16.73 9.27052 16.6734 9.27786C16.6167 9.28521 16.5592 9.27428 16.5092 9.24667C16.1594 9.05095 15.7786 8.91678 15.3833 8.85H15.3192C15.0054 9.20323 14.7619 9.61305 14.6017 10.0575C14.5831 10.1139 14.5471 10.1629 14.4989 10.1975C14.4507 10.2321 14.3927 10.2505 14.3333 10.25C14.2794 10.2467 14.2276 10.2279 14.1841 10.1958C14.1406 10.1637 14.1074 10.1197 14.0883 10.0692C13.9741 9.63812 13.7626 9.23901 13.47 8.9025H13.4C12.9743 8.96719 12.5612 9.09705 12.175 9.2875C12.1268 9.31205 12.0721 9.32076 12.0187 9.31238C11.9653 9.304 11.9158 9.27896 11.8775 9.24083C11.8381 9.20221 11.811 9.15282 11.7996 9.09886C11.7882 9.04489 11.793 8.98876 11.8133 8.9375C12.0117 8.52408 12.1398 8.08052 12.1925 7.625C11.8351 7.3943 11.4561 7.19894 11.0608 7.04167H11.0142C10.9609 7.02329 10.9148 6.98861 10.8823 6.94254C10.8498 6.89647 10.8327 6.84135 10.8333 6.785V6.75C10.8395 6.70214 10.8585 6.65683 10.8883 6.61884C10.918 6.58086 10.9575 6.5516 11.0025 6.53417H11.0492C11.4444 6.37689 11.8234 6.18153 12.1808 5.95083C12.1739 5.62603 12.1128 5.30466 12 5H16.6667C16.5337 5.27972 16.4773 5.58971 16.5033 5.89833C16.8282 6.15458 17.1954 6.352 17.5883 6.48167H17.635C17.6935 6.49744 17.7449 6.53254 17.7809 6.58126C17.817 6.62998 17.8354 6.68945 17.8333 6.75ZM15.6808 6.75C15.6808 6.75 15.6808 6.75 15.6808 6.70917C15.6901 6.63361 15.6901 6.55722 15.6808 6.48167C15.6169 6.1794 15.451 5.90828 15.211 5.71373C14.971 5.51918 14.6715 5.41301 14.3625 5.41301C14.0535 5.41301 13.754 5.51918 13.514 5.71373C13.274 5.90828 13.1081 6.1794 13.0442 6.48167C13.0349 6.55722 13.0349 6.63361 13.0442 6.70917C13.0442 6.70917 13.0442 6.70917 13.0442 6.75C13.0442 6.79083 13.0442 6.75 13.0442 6.79083C13.0349 6.86639 13.0349 6.94278 13.0442 7.01833C13.1081 7.3206 13.274 7.59172 13.514 7.78627C13.754 7.98082 14.0535 8.08699 14.3625 8.08699C14.6715 8.08699 14.971 7.98082 15.211 7.78627C15.451 7.59172 15.6169 7.3206 15.6808 7.01833C15.6901 6.94278 15.6901 6.86639 15.6808 6.79083V6.75Z"/>
</svg>
