<svg id="land" viewBox="0 0 24 24" xmlns="http://www.w3.org/2000/svg">
    <path fill="currentColor" fill-rule="evenodd" clip-rule="evenodd" d="M17.0527 7.15896L15.2645 5.01623H19V5.56795L17.0527 7.15896ZM10.7209 12.3233C10.4166 12.1278 10.0636 12.0233 9.70272 12.0218V12.0731C9.42955 12.0647 9.1579 12.1172 8.90727 12.2271L5 7.41558V5.01624H13.7436L16.1427 7.90315L10.7209 12.3233ZM7.94 14.6393C7.10696 15.3837 6.09211 15.8908 5 16.1084V9.25036L8.06091 13.0226C7.8953 13.3066 7.80746 13.6298 7.80636 13.9592C7.80971 14.1922 7.85499 14.4226 7.94 14.6393ZM9.41636 14.6569C9.13673 14.5387 8.95434 14.264 8.95184 13.9592C8.94843 13.7562 9.02604 13.5604 9.16722 13.4156C9.30842 13.2709 9.50137 13.1894 9.70275 13.1894C10.0102 13.1868 10.2887 13.3718 10.4075 13.6577C10.5263 13.9435 10.4619 14.2735 10.2446 14.4926C10.0272 14.7118 9.69991 14.7767 9.41636 14.6569ZM9.70272 15.871C9.3313 15.8687 8.96861 15.7572 8.65909 15.5502C7.59959 16.4215 6.34241 17.0144 5 17.276V19.13H13.1582L10.4154 15.7363C10.1893 15.8298 9.94716 15.8778 9.70272 15.8774V15.871ZM14.3355 7.64012C14.3442 8.20344 13.9547 8.69358 13.4075 8.80798C12.8603 8.92239 12.3097 8.6288 12.0955 8.10844C12.031 7.96093 11.9985 7.80129 12 7.64012C12.0452 7.02361 12.5545 6.54666 13.1677 6.54666C13.781 6.54666 14.2903 7.02361 14.3355 7.64012ZM9.32723 19.0081L9.37814 19.0787L10.7272 17.9496L10.0527 17.0899L9.54359 17.5069L8.90723 16.7114L8.0545 17.4171L8.69087 18.2126L9.32723 19.0081ZM9.70911 10.7901L9.6582 10.7259L6.51457 6.87669L7.46911 6.06194L9.60092 8.67941L10.7273 7.81333L11.7836 9.0964L9.70911 10.7901ZM18.3636 10.2448L17.5809 9.3466L16.6836 10.0972L15.5 11.1044L16.2509 12.0026L17.4345 11.0018L19 12.8815V14.6393L17.7273 13.0868L14.0364 16.1854L15.8182 18.3345L19 15.6465V19.13H14.6409L11.3 14.9921C11.4997 14.6853 11.6058 14.3262 11.6055 13.9592C11.6052 13.7087 11.5577 13.4605 11.4655 13.2279L19 7.06273V11.0531L18.3636 10.2448Z"/>
</svg>
