<svg id="landscape" xmlns="http://www.w3.org/2000/svg" viewBox="0 0 24 24">
  <path fill="currentColor" d="M8,0l3,11H0L3,2,6,3ZM21,9,18,8l-4,7,10,3V6ZM5,16c1,.56,4.5,2.74,4.81,3C9.81,19,1,23,0,24H17.65c2-3,3-5,2-6S9.79,15.25,10,15c.46-.55,5-4,5-4H13S3.83,15.36,5,16ZM22,3h0a.46.46,0,0,1-.28.42l-.08,0h0a6.08,6.08,0,0,0-1.86,1,4.39,4.39,0,0,0,.58,2.25.47.47,0,0,1-.09.54.46.46,0,0,1-.54.07,6,6,0,0,0-1.93-.68h-.11a6.37,6.37,0,0,0-1.23,2.07A.48.48,0,0,1,16,9a.48.48,0,0,1-.42-.31,5,5,0,0,0-1.06-2h-.12a7.19,7.19,0,0,0-2.1.66.44.44,0,0,1-.51-.08.48.48,0,0,1-.11-.52,7.08,7.08,0,0,0,.65-2.25,11.24,11.24,0,0,0-1.94-1h0l-.08,0A.46.46,0,0,1,10,3.06h0V3h0V3h0a.46.46,0,0,1,.29-.37l.08,0h0a11.24,11.24,0,0,0,1.94-1A5,5,0,0,0,12,0H20a3,3,0,0,0-.28,1.54,6.08,6.08,0,0,0,1.86,1h0l.08,0A.46.46,0,0,1,22,3ZM18.31,3s0,0,0-.07a1.61,1.61,0,0,0,0-.39h0a2.31,2.31,0,0,0-4.52,0h0a1.61,1.61,0,0,0,0,.39s0,0,0,.07,0,0,0,.07a1.61,1.61,0,0,0,0,.39h0a2.31,2.31,0,0,0,4.52,0h0a1.61,1.61,0,0,0,0-.39S18.31,3,18.31,3Z"/>
</svg>