<svg id="land" xmlns="http://www.w3.org/2000/svg" viewBox="0 0 24 24">
  <path fill="currentColor" d="M5.62,16A9.84,9.84,0,0,1,1,18.29V7.6l4.81,5.88a2.9,2.9,0,0,0-.4,1.46A3,3,0,0,0,5.62,16Zm1.59-1.08a1.19,1.19,0,1,0,1.18-1.18A1.18,1.18,0,0,0,7.21,14.94Zm1.18-3a3,3,0,0,1,1.6.47L18.51,5.5,14.74,1H1V4.74l6.14,7.5A2.91,2.91,0,0,1,8.39,12Zm0,6a3,3,0,0,1-1.64-.5A13,13,0,0,1,1,20.11V23H13.82L9.51,17.71A2.94,2.94,0,0,1,8.39,17.93ZM17.13,1l2.81,3.34L23,1.86V1ZM15.67,5.09a1.83,1.83,0,0,1-3.52.73A1.77,1.77,0,0,1,12,5.09a1.84,1.84,0,0,1,3.67,0ZM7.88,22.92l-.08-.11-1-1.24-1-1.24,1.34-1.1,1,1.24.8-.65L10,21.16ZM8.4,10l-.08-.1h0l-4.94-6,1.5-1.27L8.23,6.71,10,5.36l1.66,2ZM20.77,7.75,22,9.15,23,10.41V4.19L11.16,13.8a3.08,3.08,0,0,1,.22,1.14,2.93,2.93,0,0,1-.48,1.61L16.15,23H23V17.57l-5,4.19L15.2,18.41,21,13.58,23,16V13.26l-2.46-2.93-1.86,1.56-1.18-1.4,1.86-1.57Z"/>
</svg>
