<svg id="layers" viewBox="0 0 24 24" xmlns="http://www.w3.org/2000/svg">
    <path fill="currentColor" fill-rule="evenodd" clip-rule="evenodd" d="M18.7112 9.65676L12.8477 5.40526C12.4199 5.13263 12.2022 5 12 5C11.7978 5 11.5801 5.13263 11.1523 5.40526L5.28877 9.65676C4.89217 9.95149 4.9155 10.2315 5.28877 10.5631L11.1368 14.8072C11.5723 15.1167 11.79 15.2567 12 15.2567C12.21 15.264 12.4277 15.1167 12.8632 14.8072L18.7112 10.5631C19.0845 10.2315 19.1078 9.95149 18.7112 9.65676ZM18.7112 14.2988C19.0845 13.9746 19.1078 13.6946 18.7112 13.3925L18.0502 12.9135L12.8632 16.6787C12.4277 16.9808 12.21 17.1282 12 17.1282C11.7949 17.1354 11.5824 16.9879 11.1668 16.6996L11.1368 16.6787L5.94979 12.9135L5.28877 13.3925C4.89217 13.6946 4.9155 13.9746 5.28877 14.2988L11.1368 18.5429C11.5723 18.8524 11.79 18.9997 12 18.9997C12.21 19.0071 12.4277 18.8524 12.8632 18.5429L18.7112 14.2988Z"/>
</svg>
