<svg id="light-bulb" viewBox="0 0 24 24" xmlns="http://www.w3.org/2000/svg">
    <path fill="currentColor" d="M11.2499 19.0492C11.5278 19.0127 12.3529 19.014 12.6298 19.0541C12.9403 19.099 13.1086 19.3158 13.0683 19.6312C13.0629 19.6739 13.0213 19.7822 12.997 19.8138C12.9382 19.8902 12.7942 19.9616 12.6972 19.973C12.4169 20.0059 11.3964 20.0141 11.1357 19.9662C10.7005 19.8862 10.6783 19.1246 11.2499 19.0492ZM12.7558 10.8295C13.1493 10.5404 13.6535 10.8994 13.4716 11.3734C13.3596 11.6649 12.6498 12.1603 12.4453 12.4584C12.3285 12.629 12.4134 12.7309 12.4169 12.9056C12.4412 14.2194 12.4134 15.5385 12.4169 16.8529C12.4169 16.9911 12.3582 17.1891 12.4599 17.3148H13.5244C13.5581 17.3148 13.7176 17.438 13.747 17.4789C13.9301 17.738 13.8176 18.1038 13.5185 18.2045L10.3242 18.1888C10.0221 18.0536 9.94511 17.6179 10.2119 17.4047C10.2325 17.388 10.35 17.3158 10.3603 17.3148H11.4257V17.3138C11.5673 17.178 11.4713 16.9869 11.4677 16.8217C11.4411 15.4015 11.473 13.9683 11.4902 12.5511C11.476 12.4201 10.6208 11.6825 10.4804 11.4838C10.3148 11.2491 10.3355 10.9154 10.6103 10.7826C11.1737 10.5095 11.5264 11.4145 11.956 11.6078C12.0541 11.5967 12.6071 10.9385 12.7558 10.8295ZM12.166 7.06287C15.4541 7.23046 17.1852 11.1299 15.1367 13.7426C14.739 14.2501 14.1063 14.5383 14.0429 15.2386C14.0169 15.5236 14.1104 16.0245 13.954 16.2543C13.7293 16.5837 13.1664 16.4855 13.1249 16.0463C13.0615 15.3789 13.1363 14.5723 13.5576 14.0306C13.7756 13.7499 14.0931 13.547 14.3242 13.2806C15.573 11.8423 15.2629 9.59013 13.704 8.52771C11.3142 6.89964 8.21659 9.12654 8.87494 11.9427C9.04321 12.6626 9.37099 13.0563 9.86029 13.5619L9.85931 13.5609C10.2463 13.9607 10.5196 14.1728 10.6796 14.7504C10.7719 15.0844 10.8015 15.7295 10.7607 16.0736C10.7145 16.4638 10.1732 16.5779 9.94916 16.265C9.76724 16.0112 9.86784 15.5513 9.83881 15.2406C9.77296 14.5362 9.02274 14.1341 8.62396 13.5697C6.6408 10.7607 8.78128 6.88993 12.166 7.06287ZM18.4775 9.46716C19.0282 9.40129 19.2261 10.1643 18.6943 10.3607C18.4149 10.4637 17.6303 10.6918 17.3515 10.723C17.1482 10.7458 16.9663 10.5836 16.9081 10.3969C16.8103 10.0837 16.9736 9.89281 17.2529 9.79041C17.4623 9.71361 17.886 9.58967 18.205 9.51794L18.4775 9.46716ZM5.5351 9.29333V9.29431C5.82044 9.32856 6.48059 9.5152 6.7597 9.61755C7.03876 9.71995 7.2021 9.91002 7.10443 10.223C7.04633 10.4099 6.86442 10.5719 6.66107 10.5492C6.38235 10.518 5.59652 10.2899 5.31732 10.1869C4.78627 9.99013 4.98454 9.22749 5.5351 9.29333ZM6.92865 5.39685C7.08931 5.24427 7.34086 5.25334 7.52045 5.36169C7.63483 5.42994 8.372 6.18134 8.4726 6.31287C8.80932 6.75479 8.34829 7.30154 7.8847 7.02673C7.77211 6.96029 7.00399 6.17754 6.90326 6.04529C6.75979 5.85726 6.74724 5.56931 6.92865 5.39685ZM16.707 5.36169C16.8866 5.25331 17.1391 5.24415 17.2997 5.39685C17.4811 5.56932 17.4686 5.85729 17.3251 6.04529C17.225 6.17693 16.4572 6.95924 16.3437 7.02673C15.8801 7.30157 15.4183 6.75478 15.7548 6.31287C15.8549 6.18188 16.5912 5.43151 16.707 5.36169ZM11.9277 4.00037C12.4965 3.99019 12.3709 4.58689 12.3857 4.9574C12.3987 5.28117 12.5221 5.85145 12.2314 6.08435C11.9837 6.28187 11.6284 6.19433 11.5146 5.89685C11.4394 5.69911 11.4474 4.78605 11.4687 4.5365C11.4918 4.26544 11.6268 4.00585 11.9277 4.00037Z"/>
</svg>
