<svg id="light-bulb" xmlns="http://www.w3.org/2000/svg" viewBox="0 0 24 24">
  <path fill="currentColor" d="M7.088 13.125c.525.543.895.83 1.112 1.614.126.454.166 1.33.11 1.797-.063.53-.797.684-1.1.26-.248-.345-.11-.969-.15-1.39-.09-.957-1.109-1.502-1.65-2.268-2.692-3.812.214-9.066 4.808-8.832 4.463.228 6.812 5.52 4.031 9.066-.54.69-1.397 1.08-1.483 2.03-.036.387.091 1.067-.121 1.379-.305.448-1.07.314-1.126-.282-.086-.906.015-2 .587-2.736.296-.38.727-.655 1.04-1.017 1.696-1.952 1.275-5.009-.841-6.45-3.244-2.21-7.447.811-6.554 4.634.229.977.673 1.511 1.338 2.198l-.001-.003Z"/>
  <path fill="currentColor" d="M9.213 18.22c.192-.185.062-.443.057-.667-.036-1.928.008-3.874.031-5.797-.02-.178-1.18-1.178-1.37-1.448-.226-.318-.198-.772.175-.952.765-.371 1.243.858 1.826 1.12.132-.013.885-.908 1.087-1.056.534-.392 1.217.094.97.738-.151.395-1.115 1.068-1.392 1.473-.159.231-.043.37-.038.606.033 1.783-.005 3.574 0 5.358 0 .188-.08.456.058.627h1.445c.046 0 .262.167.302.223a.645.645 0 0 1-.31.984l-4.336-.022c-.41-.183-.514-.775-.152-1.064.028-.023.19-.122.201-.122h1.446v-.002ZM11.346 21.612a.712.712 0 0 1-.408.217c-.38.044-1.764.055-2.118-.01-.591-.108-.622-1.142.155-1.244.377-.05 1.497-.048 1.873.007.421.06.649.354.594.782a.807.807 0 0 1-.096.248ZM9.895.15c.772-.013.6.797.62 1.3.018.439.186 1.213-.209 1.53a.615.615 0 0 1-.973-.255c-.102-.268-.09-1.508-.062-1.847.032-.368.215-.72.624-.727ZM1.218 7.335c.387.047 1.282.3 1.661.439s.601.397.468.822c-.079.254-.325.473-.601.442-.378-.042-1.444-.35-1.823-.49-.721-.267-.452-1.303.295-1.213ZM18.783 7.57c-.387.047-1.283.3-1.662.44-.378.138-.6.397-.468.821.08.254.326.473.602.442.378-.042 1.444-.35 1.822-.49.722-.267.453-1.302-.294-1.213ZM3.11 2.046c.217-.207.559-.195.803-.048.155.092 1.155 1.113 1.291 1.29.457.6-.169 1.342-.798.969-.152-.09-1.195-1.153-1.331-1.331-.195-.256-.212-.646.034-.88ZM17.184 2.046c-.218-.207-.56-.195-.803-.048-.155.092-1.156 1.113-1.292 1.29-.457.6.169 1.342.798.969.153-.09 1.196-1.153 1.332-1.331.194-.256.211-.646-.035-.88Z"/>
</svg>
