<svg id="location-orange" viewBox="0 0 24 24" xmlns="http://www.w3.org/2000/svg">
    <path fill="#E17000" d="M11.75 4.28247C8.87656 4.30927 6.51566 6.55868 6.35001 9.42747C6.35001 13.9275 11 19.7175 11.75 19.7175C12.5 19.7175 17.15 13.9275 17.15 9.42747C17.15 6.85497 14.45 4.28247 11.75 4.28247ZM11.75 12.645C9.93014 12.6869 8.42003 11.2473 8.37501 9.42747C8.39661 8.55415 8.7644 7.72522 9.3974 7.12318C10.0304 6.52113 10.8767 6.19531 11.75 6.21747C12.6233 6.19531 13.4696 6.52113 14.1026 7.12318C14.7356 7.72522 15.1034 8.55415 15.125 9.42747C15.08 11.2473 13.5699 12.6869 11.75 12.645Z"/>
    <path fill="black" d="M11.75 3C8.1575 3 5 6 5 9.4275C5 12.315 6.635 15.36 7.61 16.9275C8.75 18.75 10.4375 21 11.75 21C13.0625 21 14.75 18.75 15.8975 16.9125C16.8725 15.36 18.5 12.315 18.5 9.4125C18.5 6.1275 15.2225 3 11.75 3ZM11.75 19.7175C11 19.7175 6.35 13.9275 6.35 9.4275C6.51566 6.55871 8.87655 4.3093 11.75 4.2825C14.45 4.2825 17.15 6.855 17.15 9.4275C17.15 13.9275 12.5 19.7175 11.75 19.7175Z"/>
    <path fill="#191919" d="M13.625 9.46277C13.625 8.52808 12.8196 7.71008 11.75 7.71008C10.6804 7.71008 9.87504 8.52808 9.875 9.46277C9.875 10.3975 10.6804 11.2155 11.75 11.2155C12.8196 11.2155 13.625 10.3975 13.625 9.46277ZM15.125 9.46277C15.125 11.2925 13.5799 12.7155 11.75 12.7155C9.92015 12.7155 8.375 11.2925 8.375 9.46277C8.37504 7.63305 9.92017 6.21008 11.75 6.21008C13.5798 6.21008 15.125 7.63305 15.125 9.46277Z"/>
</svg>
