<svg id="location-map" width="24" height="24" viewBox="0 0 24 24" fill="none" xmlns="http://www.w3.org/2000/svg">
<path fill-rule="evenodd" clip-rule="evenodd" d="M13.1715 7.92175C13.1715 10.4754 15.6777 13.7653 16.0857 13.7653C16.4995 13.7653 18.9999 10.4812 18.9999 7.92175C18.8929 6.3547 17.6487 5.10728 16.0857 5C14.4993 5.05437 13.2257 6.33118 13.1715 7.92175ZM14.3997 7.22902C14.6818 6.54484 15.3473 6.09858 16.0857 6.09858C16.569 6.09703 17.033 6.28842 17.3753 6.6305C17.7176 6.97258 17.91 7.4372 17.91 7.92175C17.9124 8.66205 17.4694 9.33077 16.7879 9.61571C16.1064 9.90065 15.3208 9.74561 14.7978 9.22298C14.2749 8.70034 14.1177 7.91319 14.3997 7.22902Z" fill="currentColor"/>
<path fill-rule="evenodd" clip-rule="evenodd" d="M15.4417 14.7915C15.0339 14.34 14.504 13.6254 13.9938 12.7714L14.5231 16.7198L12.5834 17.4921V12.2773L12.6823 12.2058L13.0372 11.949L13.0467 11.9422L13.047 11.942L13.3995 11.687C13.2239 11.3351 13.0589 10.9708 12.9116 10.6005L12.8956 10.6116L12.8752 10.6264L12.8738 10.6274L12.8684 10.6173L12.8672 10.6183L12.8085 10.662L12.6411 10.7868L12.3535 11.0037L11.9985 11.2605L11.8667 11.161L11.8566 11.1534L9.96005 9.72327C9.89622 9.6736 9.82278 9.63778 9.7444 9.61808C9.66735 9.60366 9.58831 9.60366 9.51126 9.61808L6.92344 10.5706C6.75572 10.6359 6.63126 10.7804 6.59122 10.9562L5.01172 18.3366C4.97212 18.5213 5.03442 18.7132 5.17492 18.8391C5.27216 18.9269 5.39975 18.973 5.53045 18.9677C5.58453 18.976 5.63957 18.976 5.69365 18.9677L9.04499 17.799L11.8135 18.9151C11.9254 18.9619 12.0513 18.9619 12.1632 18.9151L14.9667 17.799L18.318 18.9677C18.3692 18.9859 18.4229 18.9957 18.4771 18.9968C18.7311 19.027 18.9617 18.8386 18.9864 18.5895C19.0036 18.5153 19.0048 18.437 18.9883 18.36L18.3252 15.2248L18.2188 14.7L17.9155 13.203C17.59 13.7124 17.2662 14.1567 16.9803 14.5044L17.1817 15.4565L17.1817 15.4565L17.1838 15.4662L17.2994 16.013L17.6108 17.4855L15.7142 16.8241L15.4417 14.7915ZM11.4167 17.4972L9.86746 16.8727L10.2062 11.3701L11.2961 12.192L11.4167 12.2829V17.4972ZM8.71044 16.6801L9.0584 11.0279L7.65871 11.5431L6.38583 17.4907L8.66083 16.6974L8.71044 16.6801Z" fill="currentColor"/>
</svg>
