<svg id="location" width="24" height="24" viewBox="0 0 24 24" fill="none" xmlns="http://www.w3.org/2000/svg">
<path fill-rule="evenodd" clip-rule="evenodd" d="M6.7 9.33333C6.7 14 11.2563 20 11.9903 20C12.7442 20 17.2806 14 17.2806 9.33333C17.2806 6.66667 14.6355 4 11.9903 4C9.10921 4.09667 6.79588 6.4288 6.7 9.33333ZM8.68389 9.33333C8.68389 7.49238 10.1642 6 11.9903 6C12.8673 6 13.7083 6.35119 14.3284 6.97631C14.9484 7.60143 15.2968 8.44928 15.2968 9.33333C15.2968 11.1743 13.8164 12.6667 11.9903 12.6667C10.1642 12.6667 8.68389 11.1743 8.68389 9.33333Z" fill="currentColor"/>
</svg>
