<svg id="location-outline" xmlns="http://www.w3.org/2000/svg" viewBox="0 0 24 24">
  <path fill="#E17000" d="M12 5.14a4.853 4.853 0 0 0-4.8 4.573c0 4 4.133 9.147 4.8 9.147.667 0 4.8-5.147 4.8-9.147 0-2.286-2.4-4.573-4.8-4.573Zm0 7.433a2.933 2.933 0 0 1-3-2.86 2.927 2.927 0 0 1 3-2.853 2.927 2.927 0 0 1 3 2.853 2.933 2.933 0 0 1-3 2.86Z"/>
  <path fill="#000" d="M12 4C8.807 4 6 6.667 6 9.713c0 2.567 1.453 5.274 2.32 6.667C9.333 18 10.833 20 12 20c1.167 0 2.667-2 3.687-3.633C16.553 14.987 18 12.28 18 9.7 18 6.78 15.087 4 12 4Zm0 14.86c-.667 0-4.8-5.147-4.8-9.147A4.853 4.853 0 0 1 12 5.14c2.4 0 4.8 2.287 4.8 4.573 0 4-4.133 9.147-4.8 9.147Z"/>
  <path fill="#191919" d="M13.667 9.745c0-.831-.716-1.558-1.667-1.558-.95 0-1.667.727-1.667 1.558 0 .83.716 1.558 1.667 1.558.95 0 1.667-.728 1.667-1.558Zm1.333 0c0 1.626-1.373 2.89-3 2.89s-3-1.264-3-2.89c0-1.627 1.373-2.892 3-2.892s3 1.265 3 2.892Z"/>
</svg>
