<svg id="location-search" viewBox="0 0 24 24" xmlns="http://www.w3.org/2000/svg">
    <path fill="currentColor" fill-rule="evenodd" clip-rule="evenodd" d="M19 12C19 12.3222 18.7388 12.5833 18.4167 12.5833H16.62C16.3503 14.691 14.691 16.3503 12.5833 16.62V18.4167C12.5833 18.7388 12.3222 19 12 19C11.6778 19 11.4167 18.7388 11.4167 18.4167V16.6258C9.289 16.3754 7.60518 14.7084 7.33333 12.5833H5.58333C5.26117 12.5833 5 12.3222 5 12C5 11.6778 5.26117 11.4167 5.58333 11.4167H7.36833C7.63771 9.28935 9.32212 7.61938 11.4517 7.36833V5.58333C11.4517 5.26117 11.7128 5 12.035 5C12.3572 5 12.6183 5.26117 12.6183 5.58333V7.37417C14.7142 7.65908 16.3564 9.31801 16.62 11.4167H18.4167C18.7388 11.4167 19 11.6778 19 12ZM14.3333 12C14.3333 13.2887 13.2887 14.3333 12 14.3333C10.7113 14.3333 9.66667 13.2887 9.66667 12C9.66667 10.7113 10.7113 9.66666 12 9.66666C13.2887 9.66666 14.3333 10.7113 14.3333 12ZM12 8.5C13.933 8.5 15.5 10.067 15.5 12C15.5 13.933 13.933 15.5 12 15.5C10.067 15.5 8.5 13.933 8.5 12C8.5 10.067 10.067 8.5 12 8.5Z"/>
</svg>
