<svg id="location-outline" width="24" height="24" viewBox="0 0 24 24" fill="none" xmlns="http://www.w3.org/2000/svg">
<path fill-rule="evenodd" clip-rule="evenodd" d="M7.52 9.71335C7.65744 7.16331 9.61611 5.16384 12 5.14001C14.24 5.14001 16.48 7.42668 16.48 9.71335C16.48 13.7133 12.6222 18.86 12 18.86C11.3778 18.86 7.52 13.7133 7.52 9.71335ZM9.2 9.71332C9.23736 11.3309 10.4902 12.6106 12 12.5733C13.5098 12.6106 14.7626 11.3309 14.8 9.71332C14.7821 8.93704 14.4769 8.20021 13.9518 7.66506C13.4266 7.1299 12.7245 6.84029 12 6.85998C11.2755 6.84029 10.5734 7.1299 10.0482 7.66506C9.52306 8.20021 9.21793 8.93704 9.2 9.71332Z" fill="#E17000"/>
<path fill-rule="evenodd" clip-rule="evenodd" d="M6.4 9.71333C6.4 6.66667 9.01956 4 12 4C14.8809 4 17.6 6.78 17.6 9.7C17.6 12.28 16.2498 14.9867 15.4409 16.3667C14.4889 18 13.0889 20 12 20C10.9111 20 9.51111 18 8.56533 16.38C7.75644 14.9867 6.4 12.28 6.4 9.71333ZM7.52 9.71334C7.52 13.7133 11.3778 18.86 12 18.86C12.6222 18.86 16.48 13.7133 16.48 9.71334C16.48 7.42667 14.24 5.14 12 5.14C9.61611 5.16383 7.65744 7.1633 7.52 9.71334Z" fill="black"/>
</svg>
