<svg id="lock" viewBox="0 0 24 24" xmlns="http://www.w3.org/2000/svg">
    <path fill="currentColor" fill-rule="evenodd" clip-rule="evenodd" d="M15.71 10.2042V8.73822C15.71 6.67366 14.1117 5 12.14 5C10.1683 5 8.56999 6.67366 8.56999 8.73822V10.2042H6.39999V19H17.6V10.2042H15.71ZM10.1099 8.73825C10.1099 7.56429 11.0188 6.6126 12.1399 6.6126C13.2611 6.6126 14.17 7.56429 14.17 8.73825V10.2042H10.1099V8.73825ZM13.225 16.4345C13.2236 16.215 13.1603 16.0008 13.043 15.8188C13.7926 15.3678 14.1153 14.4112 13.8026 13.5673C13.4899 12.7233 12.6355 12.2449 11.7916 12.4412C10.9476 12.6375 10.3671 13.4497 10.425 14.3529C10.4632 14.9644 10.7918 15.515 11.3 15.8188C11.0521 16.2102 11.069 16.7232 11.3419 17.0957C11.6149 17.4683 12.0837 17.6183 12.5089 17.469C12.934 17.3197 13.2217 16.9041 13.225 16.4345Z"/>
</svg>
