<svg id="lock" width="24" height="24" viewBox="0 0 24 24" fill="none" xmlns="http://www.w3.org/2000/svg">
<path fill-rule="evenodd" clip-rule="evenodd" d="M16.24 9.94764V8.27225C16.24 5.91275 14.4133 4 12.16 4C9.90668 4 8.08 5.91275 8.08 8.27225V9.94764H5.6V20H18.4V9.94764H16.24ZM9.83995 8.27226C9.83995 6.93058 10.8786 5.84294 12.1599 5.84294C13.4412 5.84294 14.4799 6.93058 14.4799 8.27226V9.94765H9.83995V8.27226ZM13.4 17.0681C13.3984 16.8172 13.326 16.5724 13.192 16.3644C14.0487 15.8489 14.4175 14.7557 14.0601 13.7912C13.7028 12.8266 12.7263 12.2799 11.7618 12.5042C10.7973 12.7286 10.1338 13.6568 10.2 14.689C10.2436 15.3878 10.6192 16.0171 11.2 16.3644C10.9167 16.8116 10.936 17.3979 11.2479 17.8237C11.5598 18.2495 12.0956 18.4209 12.5816 18.2503C13.0675 18.0797 13.3963 17.6047 13.4 17.0681Z" fill="currentColor"/>
</svg>
