<svg id="magnet" width="24" height="24" viewBox="0 0 24 24" fill="none" xmlns="http://www.w3.org/2000/svg">
<path fill-rule="evenodd" clip-rule="evenodd" d="M11.0768 6.49417L13.5712 4L15.9807 6.40934L13.4863 8.90351L11.0768 6.49417ZM4 13.5604L6.49436 11.0663L8.90388 13.4756L6.40952 15.9698L4 13.5604ZM17.2264 7.65732L17.7223 8.16122C20.5939 11.0246 20.7699 15.4958 18.1382 18.1352C15.5066 20.7747 11.0271 20.5907 8.16348 17.7193L7.65955 17.2234L10.1552 14.7039L10.6592 15.1998C12.147 16.7195 14.3787 16.8955 15.6426 15.6397C16.9064 14.384 16.7224 12.1444 15.2266 10.6567L14.7307 10.1528L17.2264 7.65732Z" fill="currentColor"/>
</svg>
