<svg id="mail-outline" viewBox="0 0 24 24" xmlns="http://www.w3.org/2000/svg">
    <path fill="currentColor" d="M19.3333 6H4.66667C4.48986 6 4.32029 6.07024 4.19526 6.19526C4.07024 6.32029 4 6.48986 4 6.66667V17.3333C4 17.5101 4.07024 17.6797 4.19526 17.8047C4.32029 17.9298 4.48986 18 4.66667 18H19.3333C19.5101 18 19.6797 17.9298 19.8047 17.8047C19.9298 17.6797 20 17.5101 20 17.3333V6.66667C20 6.48986 19.9298 6.32029 19.8047 6.19526C19.6797 6.07024 19.5101 6 19.3333 6ZM17.5933 7.33333L12.2067 11.5867C12.1373 11.6413 12.0516 11.671 11.9633 11.671C11.8751 11.671 11.7894 11.6413 11.72 11.5867L6.39333 7.33333H17.5933ZM5.33333 16.6667V8.18667L10.9 12.6667C11.2023 12.8922 11.5695 13.0138 11.9467 13.0133C12.3579 13.0167 12.7562 12.8697 13.0667 12.6L18.6667 8.18V16.6667H5.33333Z"/>
</svg>
