<svg id="map-location" xmlns="http://www.w3.org/2000/svg" viewBox="0 0 24 24">
  <path fill="currentColor" d="M19,15c-.7,0-5-5.63-5-10a5.18,5.18,0,0,1,5-5,5.38,5.38,0,0,1,5,5C24,9.38,19.71,15,19,15ZM19,1.88A3.13,3.13,0,1,0,22.13,5,3.12,3.12,0,0,0,19,1.88ZM20.68,16l1.23,5.77-4-1.35L17.52,16l-2-3,.62,7.49-3.22,1.3v-9.4L14,11.55h0l.33-.24-.85-1.6-.39.29L12,10.82,8.49,8.18A1,1,0,0,0,8.12,8h0a1.09,1.09,0,0,0-.4,0h0L3.28,9.63a.93.93,0,0,0-.57.66L0,22.92a.9.9,0,0,0,.28.86A.86.86,0,0,0,.89,24,.92.92,0,0,0,1.17,24L6.92,22l4.75,1.91h0a.78.78,0,0,0,.6,0h0L17.08,22,22.83,24a.87.87,0,0,0,.28.05.86.86,0,0,0,.59-.23.9.9,0,0,0,.28-.86L22.08,14ZM6.11,20.42l-4,1.35L4.35,11.15,7,10.21Zm5,1.37-3.22-1.3.82-9.91,2.4,1.81Z"/>
</svg>
