<svg id="map-layers" viewBox="0 0 24 24" xmlns="http://www.w3.org/2000/svg">
    <path fill="currentColor" d="M13.7778 5C14.9437 5 15.8889 5.94518 15.8889 7.11111V8.11111H16.8889C18.0548 8.11111 19 9.05629 19 10.2222V16.8889C19 18.0548 18.0548 19 16.8889 19H10.2222C9.05629 19 8.11111 18.0548 8.11111 16.8889V15.8889H7.11111C5.98836 15.8889 5.07032 15.0124 5.00385 13.9064L5 13.7778V7.11111C5 5.94518 5.94518 5 7.11111 5H13.7778ZM15.8889 13.7778C15.8889 14.9437 14.9437 15.8889 13.7778 15.8889H9.66667V16.8889C9.66667 17.1957 9.9154 17.4444 10.2222 17.4444H16.8889C17.1957 17.4444 17.4444 17.1957 17.4444 16.8889V10.2222C17.4444 9.9154 17.1957 9.66667 16.8889 9.66667H15.8889V13.7778ZM13.7778 6.55556H7.11111C6.80429 6.55556 6.55556 6.80429 6.55556 7.11111V13.7778C6.55556 14.0846 6.80429 14.3333 7.11111 14.3333H13.7778C14.0846 14.3333 14.3333 14.0846 14.3333 13.7778V7.11111C14.3333 6.80429 14.0846 6.55556 13.7778 6.55556Z"/>
</svg>
