<svg id="map-location" viewBox="0 0 24 24" xmlns="http://www.w3.org/2000/svg">
    <path fill="currentColor" d="M9.74414 9.61816C9.82252 9.63786 9.89613 9.67396 9.95996 9.72363L11.8564 11.1533L11.8662 11.1611L11.999 11.2607L12.3535 11.0039L12.6416 10.7871L12.8086 10.6621L12.8672 10.6182L12.8682 10.6172L12.874 10.6279L12.875 10.626L12.8955 10.6113L12.9121 10.6006C13.0593 10.9709 13.2238 11.3357 13.3994 11.6875L13.0469 11.9424L13.0371 11.9492L12.6826 12.2061L12.583 12.2773V17.4922L14.5234 16.7197L13.9941 12.7715C14.5044 13.6254 15.0336 14.3405 15.4414 14.792L15.7139 16.8242L17.6113 17.4854L17.2998 16.0127L17.1836 15.4658L17.1816 15.4561L16.9805 14.5049C17.2663 14.1571 17.5904 13.7124 17.916 13.2031L18.2188 14.7002L18.3252 15.2246L18.9883 18.3604C19.0047 18.4373 19.0035 18.5157 18.9863 18.5898C18.9615 18.8386 18.7313 19.0269 18.4775 18.9971C18.4234 18.996 18.3694 18.9859 18.3184 18.9678L14.9668 17.7988L12.1631 18.915C12.0512 18.9618 11.9254 18.9618 11.8135 18.915L9.04492 17.7988L5.69336 18.9678C5.63937 18.9761 5.58426 18.9761 5.53027 18.9678C5.39963 18.973 5.272 18.9265 5.1748 18.8389C5.03453 18.713 4.97226 18.5215 5.01172 18.3369L6.59082 10.9561C6.63088 10.7802 6.75615 10.6356 6.92383 10.5703L9.51172 9.61816C9.58855 9.60384 9.66731 9.60382 9.74414 9.61816ZM9.86719 16.873L11.417 17.4971V12.2832L11.2959 12.1924L10.2061 11.3701L9.86719 16.873ZM7.65918 11.543L6.38574 17.4912L8.66113 16.6973L8.70996 16.6797L9.05859 11.0283L7.65918 11.543ZM16.0859 5C17.6488 5.10738 18.893 6.35489 19 7.92188C18.9999 10.4809 16.5004 13.7645 16.0859 13.7656C15.678 13.7656 13.172 10.4755 13.1719 7.92188C13.2261 6.3313 14.4995 5.05437 16.0859 5ZM16.0859 6.09863C15.3475 6.09864 14.6814 6.54532 14.3994 7.22949C14.1177 7.91349 14.2751 8.70015 14.7979 9.22266C15.3208 9.74529 16.1066 9.90017 16.7881 9.61523C17.4694 9.33023 17.9125 8.662 17.9102 7.92188C17.9102 7.43733 17.7173 6.97294 17.375 6.63086C17.0328 6.28883 16.5692 6.09714 16.0859 6.09863Z"/>
</svg>
