<svg id="map" viewBox="0 0 24 24" xmlns="http://www.w3.org/2000/svg">
    <path fill="currentColor" d="M14.8428 5.71912C15.0215 5.58226 15.248 5.56211 15.4424 5.66541C15.4782 5.68442 15.511 5.70167 15.542 5.71814L15.6025 5.75037C15.8728 5.89394 16.126 6.0293 17.7461 6.89001C17.925 6.9851 18.0561 7.17302 18.0986 7.39783L19.9844 17.3646C20.0891 17.9183 19.6403 18.3956 19.1807 18.2191L15.4717 16.7933L12.2412 18.2094C12.1267 18.2595 12.0027 18.2689 11.8848 18.2377L11.7979 18.2064L8.6875 16.7972L4.82812 18.3588C4.39305 18.5345 3.96098 18.1188 4.00293 17.601L4.01465 17.514L5.82812 7.56091C5.87501 7.30366 6.03617 7.09554 6.25 7.01599L9.10352 5.95642C9.28241 5.89006 9.47786 5.92174 9.63477 6.04236L12.0234 7.87927L12.0322 7.87341C13.8711 6.46402 14.2451 6.1773 14.583 5.91833L14.6445 5.87146C14.7061 5.82428 14.7693 5.77543 14.8428 5.71912ZM6.97363 8.28259L5.46582 16.5511L8.1084 15.4828L8.5332 7.70251L6.97363 8.28259ZM12.5488 9.22498L12.4727 16.5443L14.8135 15.5189L14.6523 7.61365C14.2697 7.9067 13.6597 8.37355 12.5488 9.22498ZM9.2207 15.4701L11.3643 16.4398L11.4395 9.18201L9.64062 7.79724L9.2207 15.4701ZM15.9219 15.4271L18.5283 16.4281L16.9463 8.07166L16.8926 8.04333C16.3647 7.76287 16.0101 7.57437 15.7588 7.4408L15.9219 15.4271Z"/>
</svg>
