<svg id="map" width="24" height="24" viewBox="0 0 24 24" fill="none" xmlns="http://www.w3.org/2000/svg">
<path fill-rule="evenodd" clip-rule="evenodd" d="M14.8426 5.71931C15.0213 5.58231 15.2474 5.56193 15.4419 5.66527L15.5417 5.71829L15.6026 5.75065L17.7465 6.88969C17.9254 6.98475 18.0558 7.17301 18.0983 7.39786L19.9846 17.3651C20.0894 17.9189 19.6405 18.3959 19.1807 18.2193L15.4713 16.7938L12.2412 18.2094C12.1267 18.2596 12.0028 18.2689 11.8849 18.2376L11.7978 18.2065L8.68704 16.7971L4.82843 18.359C4.39326 18.535 3.96082 18.1192 4.00283 17.6012L4.01431 17.514L5.82823 7.56062C5.87514 7.30319 6.03633 7.09513 6.25037 7.0157L9.104 5.95674C9.28298 5.89032 9.47794 5.92185 9.63489 6.0426L12.023 7.87977L12.032 7.87355L14.5829 5.91838L14.6442 5.87136L14.8426 5.71931ZM15.7592 7.44112L15.9225 15.4269L18.5283 16.4278L16.946 8.0717L16.893 8.0435L15.7592 7.44112ZM14.8142 15.5194L14.6525 7.61404L12.5495 9.22593L12.4732 16.5445L14.8142 15.5194ZM9.64097 7.79843L11.44 9.18233L11.3643 16.4404L9.2214 15.4704L9.64097 7.79843ZM8.10851 15.4835L8.53402 7.70297L6.97364 8.28236L5.46627 16.5515L8.10851 15.4835Z" fill="currentColor"/>
</svg>
