<svg id="maps" width="24" height="24" viewBox="0 0 24 24" fill="none" xmlns="http://www.w3.org/2000/svg">
<path fill-rule="evenodd" clip-rule="evenodd" d="M17.0527 7.159L15.2646 5.01627H19V5.56799L17.0527 7.159ZM10.7209 12.3234C10.4166 12.1279 10.0636 12.0233 9.70273 12.0218V12.0732C9.42956 12.0647 9.15791 12.1173 8.90728 12.2271L5.00001 7.41562V5.01627H13.7436L16.1427 7.90318L10.7209 12.3234ZM7.94001 14.6393C7.10697 15.3838 6.09213 15.8909 5.00001 16.1084V9.25039L8.06092 13.0226C7.89531 13.3066 7.80747 13.6298 7.80637 13.9593C7.80972 14.1922 7.855 14.4226 7.94001 14.6393ZM9.41637 14.6569C9.13674 14.5388 8.95436 14.2641 8.95185 13.9592C8.94844 13.7563 9.02605 13.5604 9.16723 13.4157C9.30843 13.2709 9.50138 13.1894 9.70276 13.1894C10.0102 13.1868 10.2887 13.3719 10.4075 13.6577C10.5263 13.9436 10.462 14.2735 10.2446 14.4926C10.0272 14.7118 9.69992 14.7767 9.41637 14.6569ZM9.70273 15.871C9.33131 15.8688 8.96862 15.7573 8.6591 15.5503C7.5996 16.4215 6.34243 17.0144 5.00001 17.276V19.1301H13.1582L10.4155 15.7363C10.1893 15.8299 9.94717 15.8778 9.70273 15.8775V15.871ZM14.3355 7.64016C14.3442 8.20347 13.9548 8.69361 13.4076 8.80802C12.8604 8.92242 12.3097 8.62883 12.0955 8.10848C12.0311 7.96097 11.9985 7.80132 12 7.64016C12.0452 7.02364 12.5545 6.54669 13.1678 6.54669C13.781 6.54669 14.2903 7.02364 14.3355 7.64016ZM9.32724 19.0082L9.37815 19.0787L10.7272 17.9496L10.0527 17.09L9.5436 17.507L8.90724 16.7115L8.05451 17.4171L8.69088 18.2127L9.32724 19.0082ZM9.70912 10.7901L9.65821 10.7259L6.51458 6.87672L7.46912 6.06197L9.60094 8.67944L10.7273 7.81337L11.7837 9.09644L9.70912 10.7901ZM18.3636 10.2448L17.5809 9.34664L16.6837 10.0972L15.5 11.1044L16.2509 12.0026L17.4346 11.0018L19 12.8815V14.6393L17.7273 13.0868L14.0364 16.1854L15.8182 18.3346L19 15.6465V19.1301H14.6409L11.3 14.9922C11.4997 14.6853 11.6059 14.3263 11.6055 13.9593C11.6052 13.7088 11.5577 13.4606 11.4655 13.2279L19 7.06277V11.0531L18.3636 10.2448Z" fill="currentColor"/>
</svg>
