<svg id="marker" viewBox="0 0 24 24" xmlns="http://www.w3.org/2000/svg">
    <path fill="currentColor" fill-rule="evenodd" clip-rule="evenodd" d="M18.9104 7.64529C19.0149 7.75253 19.0297 7.91933 18.9458 8.0436L12.1127 17.1396L7.43549 12.2289L16.0947 5.05918C16.212 4.96817 16.3789 4.98372 16.4776 5.09485L18.9104 7.64529ZM10.6521 18.5363L11.359 17.7991L6.68182 12.8944L5.97494 13.6376C5.86595 13.7721 5.82075 13.9481 5.85124 14.1191L6.22235 16.3663L5.63328 16.9609C5.5308 17.0689 5.5308 17.2392 5.63328 17.3473L5.91014 17.6386L5.09135 18.5541C5.0172 18.6164 4.9845 18.7157 5.007 18.8103C5.02951 18.905 5.10332 18.9785 5.19738 19H6.28714C6.3712 18.9895 6.44968 18.952 6.51099 18.893L6.85264 18.6195L7.13539 18.9168C7.18212 18.9666 7.24709 18.9948 7.31506 18.9948C7.38302 18.9948 7.448 18.9666 7.49472 18.9168L8.08379 18.2926L10.2221 18.679C10.3794 18.6995 10.5375 18.6471 10.6521 18.5363Z"/>
</svg>
