<svg id="measurement" xmlns="http://www.w3.org/2000/svg" viewBox="0 0 24 24">
  <path fill="currentColor" d="M20,2a2,2,0,0,1,2,2V20a2,2,0,0,1-2,2H4a2,2,0,0,1-2-2V4A2,2,0,0,1,4,2H20m0-2H4A4,4,0,0,0,0,4V20a4,4,0,0,0,4,4H20a4,4,0,0,0,4-4V4a4,4,0,0,0-4-4ZM6,19V5A1,1,0,0,0,4,5V19a1,1,0,0,0,2,0Zm14,0V5a1,1,0,0,0-2,0V19a1,1,0,0,0,2,0ZM11,9.92a.33.33,0,0,1-.11-.28,2.41,2.41,0,0,1,.18-.93,5.77,5.77,0,0,1,.49-.9c.1-.14.2-.28.3-.4.19-.27.33-.48.42-.64a.94.94,0,0,0,.14-.45c0-.46-.24-.69-.73-.69a1.3,1.3,0,0,0-.46.08,3.26,3.26,0,0,0-.43.2.52.52,0,0,1-.22.1c-.08,0-.17-.06-.27-.19a2.3,2.3,0,0,1-.25-.44A1,1,0,0,1,10,5a.81.81,0,0,1,.58-.75A3.18,3.18,0,0,1,11.86,4a2.1,2.1,0,0,1,1.57.59A2.23,2.23,0,0,1,14,6.2a2.34,2.34,0,0,1-.25,1.14,4.23,4.23,0,0,1-.68.93l-.17.19a5,5,0,0,0-.51.63,1.42,1.42,0,0,0-.23.58.36.36,0,0,1-.15.26.69.69,0,0,1-.37.07h-.23A.7.7,0,0,1,11,9.92ZM17,18l-2-2v1H9V16L7,18l2,2V19h6v1Zm-5-7a1,1,0,1,0,1,1A1,1,0,0,0,12,11Z"/>
</svg>
