<svg id="measurement" width="24" height="24" viewBox="0 0 24 24" fill="none" xmlns="http://www.w3.org/2000/svg">
<path fill-rule="evenodd" clip-rule="evenodd" d="M5.58333 19C5.26117 19 5 18.7388 5 18.4167V5.58333C5 5.26117 5.26117 5 5.58333 5C5.9055 5 6.16667 5.26117 6.16667 5.58333V18.4167C6.16667 18.7388 5.9055 19 5.58333 19ZM19 18.4167V5.58333C19 5.26117 18.7388 5 18.4167 5C18.0945 5 17.8333 5.26117 17.8333 5.58333V18.4167C17.8333 18.7388 18.0945 19 18.4167 19C18.7388 19 19 18.7388 19 18.4167ZM15.5 14.9167V14.3333L16.6667 15.5L15.5 16.6667V16.0833H8.50004V16.6667L7.33337 15.5L8.50004 14.3333V14.9167H15.5ZM12 13.75C12.3221 13.75 12.5833 13.4888 12.5833 13.1667C12.5833 12.8445 12.3221 12.5833 12 12.5833C11.6778 12.5833 11.4166 12.8445 11.4166 13.1667C11.4166 13.4888 11.6778 13.75 12 13.75ZM9.66663 9.08333C9.66663 7.79467 10.7113 6.75 12 6.75C13.2886 6.75 14.3333 7.79467 14.3333 9.08333C14.3333 10.0417 13.7265 10.4054 13.2275 10.7044C12.8791 10.9132 12.5833 11.0905 12.5833 11.4167V11.4692C12.5833 11.7913 12.3221 12.0525 12 12.0525C11.6778 12.0525 11.4166 11.7913 11.4166 11.4692V11.4167C11.4166 10.662 11.9381 10.321 12.4118 10.0113C12.8058 9.75371 13.1666 9.51776 13.1666 9.08333C13.1666 8.439 12.6443 7.91667 12 7.91667C11.3556 7.91667 10.8333 8.439 10.8333 9.08333V9.13583C10.8333 9.458 10.5721 9.71917 10.25 9.71917C9.9278 9.71917 9.66663 9.458 9.66663 9.13583V9.08333Z" fill="currentColor"/>
</svg>
