<svg id="minus-square-outline" viewBox="0 0 24 24" xmlns="http://www.w3.org/2000/svg">
    <path fill="currentColor" d="M16.5 6C16.8978 6 17.2794 6.15804 17.5607 6.43934C17.842 6.72064 18 7.10218 18 7.5V16.5C18 16.8978 17.842 17.2794 17.5607 17.5607C17.2794 17.842 16.8978 18 16.5 18H7.5C7.10218 18 6.72064 17.842 6.43934 17.5607C6.15804 17.2794 6 16.8978 6 16.5V7.5C6 7.10218 6.15804 6.72064 6.43934 6.43934C6.72064 6.15804 7.10218 6 7.5 6H16.5ZM16.5 4.5H7.5C6.70435 4.5 5.94129 4.81607 5.37868 5.37868C4.81607 5.94129 4.5 6.70435 4.5 7.5V16.5C4.5 17.2956 4.81607 18.0587 5.37868 18.6213C5.94129 19.1839 6.70435 19.5 7.5 19.5H16.5C17.2956 19.5 18.0587 19.1839 18.6213 18.6213C19.1839 18.0587 19.5 17.2956 19.5 16.5V7.5C19.5 6.70435 19.1839 5.94129 18.6213 5.37868C18.0587 4.81607 17.2956 4.5 16.5 4.5ZM15.75 12C15.7669 11.8204 15.7128 11.6413 15.5992 11.5011C15.4857 11.3609 15.3217 11.2708 15.1425 11.25H8.8575C8.67829 11.2708 8.51435 11.3609 8.4008 11.5011C8.28724 11.6413 8.23311 11.8204 8.25 12C8.23311 12.1796 8.28724 12.3587 8.4008 12.4989C8.51435 12.6391 8.67829 12.7292 8.8575 12.75H15.1425C15.3217 12.7292 15.4857 12.6391 15.5992 12.4989C15.7128 12.3587 15.7669 12.1796 15.75 12Z"/>
</svg>
