<svg id="more-vertical" viewBox="0 0 24 24" xmlns="http://www.w3.org/2000/svg">
    <path fill="currentColor" fill-rule="evenodd" clip-rule="evenodd" d="M9.9837 18C9.9837 19.1046 10.8864 20 12 20C13.1135 20 14.0162 19.1046 14.0162 18C14.0162 16.8954 13.1135 16 12 16C10.8864 16 9.9837 16.8954 9.9837 18ZM9.9837 6.00001C9.9837 7.10458 10.8864 8.00001 12 8.00001C13.1135 8.00001 14.0162 7.10458 14.0162 6.00001C14.0162 4.89543 13.1135 4 12 4C10.8864 4 9.9837 4.89543 9.9837 6.00001ZM12 14C10.8864 14 9.9837 13.1046 9.9837 12C9.9837 10.8954 10.8864 10 12 10C13.1135 10 14.0162 10.8954 14.0162 12C14.0162 13.1046 13.1135 14 12 14Z"/>
</svg>
