<svg id="more-horizontal" viewBox="0 0 24 24" xmlns="http://www.w3.org/2000/svg">
    <path fill="currentColor" fill-rule="evenodd" clip-rule="evenodd" d="M6 9.98376C4.89543 9.98376 4 10.8865 4 12C4 13.1136 4.89543 14.0163 6 14.0163C7.10457 14.0163 8.00001 13.1136 8.00001 12C8.00001 10.8865 7.10457 9.98376 6 9.98376ZM18 9.98377C16.8954 9.98377 16 10.8865 16 12C16 13.1136 16.8954 14.0163 18 14.0163C19.1046 14.0163 20 13.1136 20 12C20 10.8865 19.1046 9.98377 18 9.98377ZM9.99999 12C9.99999 10.8865 10.8954 9.98377 12 9.98377C13.1046 9.98377 14 10.8865 14 12C14 13.1136 13.1046 14.0163 12 14.0163C10.8954 14.0163 9.99999 13.1136 9.99999 12Z"/>
</svg>
