<svg id="municipality" viewBox="0 0 24 24" xmlns="http://www.w3.org/2000/svg">
    <path fill="currentColor" fill-rule="evenodd" clip-rule="evenodd" d="M17.8333 6.09667C18.206 5.9378 18.6273 5.9378 19 6.09667V5.2975C18.6276 5.13727 18.2057 5.13727 17.8333 5.2975C17.25 5.53667 16.6667 5.72917 16.0833 5.14583V5H15.5V8.72167L14.3333 8.5V7.04167L12 6.16667L9.66667 7.04167V8.5L5 9.375V10.25H9.66667V10.8333H5V18.4167H9.66667V19H11.4167V15.5H12.5833V19H14.3333V18.4167H19V10.8333H14.3333V10.25H19V9.375L16.0833 8.82667V7.45C16.6667 8.03333 17.25 7.84083 17.8333 7.59583C18.206 7.43696 18.6273 7.43696 19 7.59583V6.8025C18.6273 6.64363 18.206 6.64363 17.8333 6.8025C17.25 7.04167 16.6667 7.24 16.0833 6.65667V5.95083C16.6667 6.53417 17.25 6.33583 17.8333 6.09667ZM14.3333 10.25H9.66667V9.66667H14.3333V10.25ZM6.16667 16.6667H7.33333V12H6.16667V16.6667ZM9.66667 16.6667H8.5V12H9.66667V16.6667ZM15.5 16.6667H14.3333V12H15.5V16.6667ZM16.6667 16.6667H17.8333V12H16.6667V16.6667ZM11.4167 12.5833H12.5833V11.4167H11.4167V12.5833ZM11.4167 7.91667C11.4167 8.23883 11.6778 8.5 12 8.5C12.3222 8.5 12.5833 8.23883 12.5833 7.91667C12.5833 7.5945 12.3222 7.33333 12 7.33333C11.6778 7.33333 11.4167 7.5945 11.4167 7.91667Z"/>
</svg>
