<svg id="nature" xmlns="http://www.w3.org/2000/svg" viewBox="0 0 24 24">
  <path fill="currentColor" d="M23,22.41c0,.79-22,.79-22,0,0-.3.74-.58,2-.81V19.21a2.35,2.35,0,0,1-2-2.44C1,13.36,2.67,11,3.5,11S6,13.36,6,16.77a2.35,2.35,0,0,1-2,2.44v2.24A61.55,61.55,0,0,1,12,21c1.8,0,3.5.06,5,.16V16.43a4.29,4.29,0,0,1-3.37-2.65,7,7,0,0,0,1-9.95C15.75,1.43,17.14,0,18,0,19.69,0,23,4.72,23,11.55a4.72,4.72,0,0,1-4,4.88v4.89C21.44,21.58,23,22,23,22.41ZM11,18V12.9a5,5,0,1,0-1,.1h0v5.05c-1.72.16-3,.71-3,1.36s8,.79,8,0S13.21,18,11,18Z"/>
</svg>
