<svg id="nature" width="24" height="24" viewBox="0 0 24 24" fill="none" xmlns="http://www.w3.org/2000/svg">
<path fill-rule="evenodd" clip-rule="evenodd" d="M6.27411 18.1464C5.47258 18.2864 5.00184 18.4568 5.00184 18.6394C5.00184 19.1202 18.9969 19.1202 18.9969 18.6394C18.9969 18.3898 18.0045 18.1342 16.4523 17.976V14.9998C17.9692 14.7773 19.0666 13.4964 18.9969 12.0297C18.9969 7.87273 16.8912 5 15.8162 5C15.2691 5 14.3849 5.87034 13.6724 7.33105C14.4392 8.21016 14.8039 9.34758 14.6842 10.4869C14.5645 11.6261 13.9706 12.6714 13.0363 13.3869C13.3987 14.2521 14.2158 14.8668 15.18 14.9998V17.8786C14.2258 17.8177 13.1444 17.7812 11.9993 17.7812C10.2986 17.7667 8.5986 17.8582 6.91025 18.0551V16.6918C7.67024 16.5832 8.22038 15.941 8.18253 15.2067C8.18253 13.1313 7.12018 11.6949 6.59218 11.6949C6.06419 11.6949 5.00184 13.1313 5.00184 15.2067C4.96398 15.941 5.51413 16.5832 6.27411 16.6918V18.1464ZM11.3632 12.8513V15.9553C12.7691 15.9553 13.9078 16.3327 13.9078 16.8135C13.9078 17.2943 8.81866 17.2091 8.81866 16.8135C8.81866 16.4179 9.63291 16.0831 10.7271 15.9857V12.9122C9.03263 12.9105 7.637 11.6383 7.55344 10.0191C7.46988 8.39989 8.72773 7.00229 10.4138 6.84098C12.0998 6.67966 13.622 7.81128 13.8752 9.41425C14.1284 11.0172 13.0238 12.5287 11.3632 12.8513Z" fill="currentColor"/>
</svg>
