<svg id="new-window" width="24" height="24" viewBox="0 0 24 24" fill="none" xmlns="http://www.w3.org/2000/svg">
<path fill-rule="evenodd" clip-rule="evenodd" d="M19 6.16667V15.5C19 16.1443 18.4777 16.6667 17.8333 16.6667H16.6667V17.8333C16.6667 18.4777 16.1443 19 15.5 19H6.16667C5.52233 19 5 18.4777 5 17.8333V8.5C5 7.85567 5.52233 7.33333 6.16667 7.33333H7.33333V6.16667C7.33333 5.52233 7.85567 5 8.5 5H17.8333C18.4777 5 19 5.52233 19 6.16667ZM15.5 16.6667H8.5C7.85567 16.6667 7.33333 16.1443 7.33333 15.5V9.66667H6.16667V17.25C6.16667 17.5722 6.42783 17.8333 6.75 17.8333H14.9167C15.2388 17.8333 15.5 17.5722 15.5 17.25V16.6667ZM8.5 6.16666C8.5 5.8445 8.76117 5.58333 9.08333 5.58333C9.23804 5.58333 9.38642 5.64479 9.49581 5.75418C9.60521 5.86358 9.66667 6.01195 9.66667 6.16666C9.66667 6.48883 9.4055 6.75 9.08333 6.75C8.76117 6.75 8.5 6.48883 8.5 6.16666ZM10.8333 5.58333C10.5111 5.58333 10.25 5.8445 10.25 6.16666C10.25 6.48883 10.5111 6.75 10.8333 6.75C11.1555 6.75 11.4166 6.48883 11.4166 6.16666C11.4166 6.01195 11.3552 5.86358 11.2458 5.75418C11.1364 5.64479 10.988 5.58333 10.8333 5.58333ZM12.5833 6.75C12.2612 6.75 12 6.48883 12 6.16666C12 5.8445 12.2612 5.58333 12.5833 5.58333C12.738 5.58333 12.8864 5.64479 12.9958 5.75418C13.1052 5.86358 13.1667 6.01195 13.1667 6.16666C13.1667 6.48883 12.9055 6.75 12.5833 6.75Z" fill="currentColor"/>
<path d="M8.86039 14.9152V7.72074H17.4159V14.9152C17.4159 15.0226 17.3289 15.1096 17.2215 15.1096H9.05483C8.94744 15.1096 8.86039 15.0226 8.86039 14.9152Z" stroke="white" stroke-width="0.777778"/>
<path d="M15.434 11.2732C15.4613 11.5638 15.2514 11.8229 14.9615 11.8566H13.684V13.1341C13.6504 13.424 13.3913 13.6339 13.1007 13.6066C12.8101 13.6339 12.551 13.424 12.5174 13.1341V11.8566H11.2399C10.9499 11.8229 10.74 11.5638 10.7674 11.2732C10.74 10.9826 10.9499 10.7235 11.2399 10.6899H12.5174V9.41239C12.551 9.12247 12.8101 8.91257 13.1007 8.93989C13.3913 8.91257 13.6504 9.12247 13.684 9.41239V10.6899H14.9615C15.2514 10.7235 15.4613 10.9826 15.434 11.2732Z" fill="white"/>
</svg>
