<svg id="new-window" viewBox="0 0 24 24" xmlns="http://www.w3.org/2000/svg">
    <path fill="currentColor" d="M17.833 5C18.4773 5 19 5.52266 19 6.16699V15.5C19 16.1443 18.4773 16.667 17.833 16.667H16.667V17.833C16.667 18.4773 16.1443 19 15.5 19H6.16699C5.52266 19 5 18.4773 5 17.833V8.5C5 7.85567 5.52266 7.33301 6.16699 7.33301H7.33301V6.16699C7.33301 5.52266 7.85567 5 8.5 5H17.833ZM6.16699 17.25C6.16699 17.5722 6.42783 17.833 6.75 17.833H14.917C15.239 17.8328 15.5 17.5721 15.5 17.25V16.667H8.5C7.85567 16.667 7.33301 16.1443 7.33301 15.5V9.66699H6.16699V17.25ZM8.47168 14.915C8.47177 15.1969 8.67167 15.433 8.9375 15.4873L9.05469 15.499H17.2217C17.5437 15.4989 17.8046 15.2371 17.8047 14.915V7.33203H8.47168V14.915ZM17.0273 14.7207H9.24902V8.10938H17.0273V14.7207ZM13.1006 8.93945C12.8102 8.91223 12.5513 9.1224 12.5176 9.41211V10.6895H11.2402C10.9866 10.7189 10.7934 10.9213 10.7676 11.166V11.3799C10.7932 11.6248 10.9864 11.827 11.2402 11.8564H12.5176V13.1338C12.547 13.3873 12.7486 13.5805 12.9932 13.6064H13.208C13.4527 13.5806 13.6542 13.3874 13.6836 13.1338V11.8564H14.9619C15.2156 11.8269 15.408 11.6247 15.4336 11.3799V11.166C15.4077 10.9214 15.2154 10.719 14.9619 10.6895H13.6836V9.41211C13.6498 9.12236 13.3911 8.91214 13.1006 8.93945ZM9.08301 5.58301C8.76099 5.58318 8.5 5.84493 8.5 6.16699C8.50018 6.4889 8.7611 6.74982 9.08301 6.75C9.40506 6.75 9.66681 6.48901 9.66699 6.16699C9.66699 6.01228 9.60549 5.8633 9.49609 5.75391C9.3867 5.64451 9.23772 5.58301 9.08301 5.58301ZM10.833 5.58301C10.511 5.58317 10.25 5.84493 10.25 6.16699C10.2502 6.48891 10.5111 6.74984 10.833 6.75C11.1551 6.75 11.4168 6.48901 11.417 6.16699C11.417 6.01229 11.3555 5.8633 11.2461 5.75391C11.1367 5.64451 10.9877 5.58301 10.833 5.58301ZM12.583 5.58301C12.261 5.58318 12 5.84493 12 6.16699C12.0002 6.4889 12.2611 6.74982 12.583 6.75C12.9051 6.75 13.1668 6.48901 13.167 6.16699C13.167 6.01228 13.1055 5.8633 12.9961 5.75391C12.8867 5.64451 12.7377 5.58301 12.583 5.58301Z"/>
</svg>
