<svg id="new-window" xmlns="http://www.w3.org/2000/svg" viewBox="0 0 24 24">
  <path fill="currentColor" d="M18,11a.92.92,0,0,1-.81,1H15v2.19A.92.92,0,0,1,14,15a.92.92,0,0,1-1-.81V12H10.81A.92.92,0,0,1,10,11a.92.92,0,0,1,.81-1H13V7.81A.92.92,0,0,1,14,7a.92.92,0,0,1,1,.81V10h2.19A.92.92,0,0,1,18,11Zm6-9V18a2,2,0,0,1-2,2H20v2a2,2,0,0,1-2,2H2a2,2,0,0,1-2-2V6A2,2,0,0,1,2,4H4V2A2,2,0,0,1,6,0H22A2,2,0,0,1,24,2ZM18,20H6a2,2,0,0,1-2-2V8H2V21a1,1,0,0,0,1,1H17a1,1,0,0,0,1-1ZM22,4H6V17a1,1,0,0,0,1,1H21a1,1,0,0,0,1-1ZM7,1A1,1,0,1,0,8,2,1,1,0,0,0,7,1Zm3,0a1,1,0,1,0,1,1A1,1,0,0,0,10,1Zm3,0a1,1,0,1,0,1,1A1,1,0,0,0,13,1Z"/>
</svg>
