<svg id="paperclip" width="24" height="24" viewBox="0 0 24 24" fill="none" xmlns="http://www.w3.org/2000/svg">
<path d="M18.284 9.85266L10.7252 18.0192C10.161 18.6571 9.38334 19.0117 8.5746 18.9997C7.59666 18.9712 6.66932 18.515 5.99773 17.732C5.35897 17.0304 5 16.0779 5 15.0845C5 14.0912 5.35897 13.1387 5.99773 12.4371L11.915 5.9515C12.0832 5.76633 12.3284 5.69402 12.5582 5.76179C12.7879 5.82957 12.9674 6.02714 13.029 6.28008C13.0906 6.53302 13.0249 6.80291 12.8567 6.98807L6.9394 13.4737C6.13374 14.3645 6.13374 15.8046 6.9394 16.6954C7.3656 17.2022 7.95446 17.5062 8.58096 17.5429C9.02753 17.5402 9.45333 17.335 9.75805 16.9756L17.3423 8.81608C17.5679 8.55519 17.6834 8.20185 17.6605 7.84255C17.6419 7.4641 17.4995 7.10584 17.2596 6.83399C16.8004 6.33091 16.0582 6.33091 15.599 6.83399L9.08997 13.9079C8.9744 14.0384 8.9744 14.2466 9.08997 14.3772C9.1474 14.4402 9.22523 14.4754 9.3063 14.4752C9.38766 14.477 9.46604 14.4415 9.52263 14.3772L14.2055 9.27834C14.3261 9.1323 14.4971 9.04904 14.6764 9.04904C14.8557 9.04904 15.0266 9.1323 15.1472 9.27834C15.2841 9.40608 15.3655 9.59148 15.3716 9.78887C15.3777 9.98626 15.3077 10.1773 15.179 10.3149L10.4707 15.4137C9.81865 16.0906 8.80032 16.0906 8.1483 15.4137C7.83938 15.0781 7.66548 14.6203 7.66548 14.1425C7.66548 13.6648 7.83938 13.2069 8.1483 12.8713L14.6509 5.79742C15.6398 4.73419 17.2188 4.73419 18.2076 5.79742C18.687 6.33161 18.9683 7.04329 18.9966 7.79352C19.0331 8.55973 18.7743 9.30735 18.284 9.85266Z" fill="currentColor"/>
</svg>
