<svg id="parking" viewBox="0 0 24 24" xmlns="http://www.w3.org/2000/svg">
    <path fill="currentColor" fill-rule="evenodd" clip-rule="evenodd" d="M19 17.4444C19 18.3036 18.3036 19 17.4444 19H6.55556C5.69645 19 5 18.3036 5 17.4444V6.55556C5 5.69645 5.69645 5 6.55556 5H17.4444C18.3036 5 19 5.69645 19 6.55556V17.4444ZM15.1111 9.47222C14.9626 9.15481 14.7282 8.88536 14.4344 8.69445C14.1631 8.53438 13.8655 8.42377 13.5555 8.36778C13.1677 8.27995 12.7709 8.23818 12.3733 8.24334H9.26218V15.5933H11.2222V13.2056H12.4044C12.8632 13.2174 13.3201 13.1408 13.75 12.98C14.1152 12.8266 14.4479 12.6049 14.73 12.3267C14.9444 12.1034 15.1112 11.8387 15.22 11.5489C15.3337 11.2401 15.3916 10.9135 15.3911 10.5844C15.3898 10.1964 15.2937 9.8146 15.1111 9.47222ZM13.05 11.5178C13.1685 11.4179 13.2595 11.2894 13.3144 11.1444C13.3858 10.9714 13.4253 10.787 13.4311 10.6C13.4356 10.4082 13.3784 10.2201 13.2678 10.0633C13.1663 9.92548 13.0292 9.81792 12.8711 9.75221C12.6881 9.676 12.4935 9.63129 12.2956 9.61999H11.2222V11.8133H11.7433C12.0037 11.8176 12.2639 11.7994 12.5211 11.7589C12.7152 11.7254 12.8974 11.6424 13.05 11.5178Z"/>
</svg>
