<svg id="pencil" width="24" height="24" viewBox="0 0 24 24" fill="none" xmlns="http://www.w3.org/2000/svg">
<path fill-rule="evenodd" clip-rule="evenodd" d="M15.8907 5.20945L15.3694 5.72292L18.2718 8.62482L18.7932 8.11135C19.1019 7.74733 19.0602 7.20279 18.6998 6.8899L17.1435 5.33393C16.9969 5.14686 16.7802 5.02778 16.5437 5.00427C16.3072 4.98077 16.0713 5.05489 15.8907 5.20945ZM17.5482 9.36391L9.80571 17.0582L6.89547 14.1641L14.638 6.46201L17.5482 9.36391ZM5.08206 18.918C4.99337 18.8293 4.97444 18.6925 5.03572 18.5831L6.2574 14.841L9.15986 17.7351L5.41701 18.9643C5.30758 19.0256 5.17074 19.0066 5.08206 18.918Z" fill="currentColor"/>
</svg>
