<svg id="pending" width="24" height="24" viewBox="0 0 24 24" fill="none" xmlns="http://www.w3.org/2000/svg">
<path fill-rule="evenodd" clip-rule="evenodd" d="M5.99999 9.98373C4.89542 9.98373 3.99998 10.8864 3.99998 12C3.99998 13.1135 4.89542 14.0163 5.99999 14.0163C7.10456 14.0163 7.99999 13.1135 7.99999 12C7.99999 10.8864 7.10456 9.98373 5.99999 9.98373ZM18 9.98374C16.8954 9.98374 16 10.8864 16 12C16 13.1136 16.8954 14.0163 18 14.0163C19.1046 14.0163 20 13.1136 20 12C20 10.8864 19.1046 9.98374 18 9.98374ZM9.99998 12C9.99998 10.8864 10.8954 9.98374 12 9.98374C13.1046 9.98374 14 10.8864 14 12C14 13.1136 13.1046 14.0163 12 14.0163C10.8954 14.0163 9.99998 13.1136 9.99998 12Z" fill="currentColor"/>
</svg>
