<svg id="pin-outline" viewBox="0 0 24 24" xmlns="http://www.w3.org/2000/svg">
    <path fill="#39870C" fill-rule="evenodd" clip-rule="evenodd" d="M7.34091 8.17807C7.76721 5.95188 9.67618 4.32706 11.9246 4.27661C14.1731 4.32706 16.082 5.95188 16.5083 8.17807C16.9347 10.4043 15.7628 12.6287 13.6946 13.5192L12.8577 18.6781C12.8577 19.1976 12.44 19.6188 11.9246 19.6188C11.4093 19.6188 10.9915 19.1976 10.9915 18.6781L10.1547 13.5192C8.08645 12.6287 6.9146 10.4043 7.34091 8.17807ZM8.22186 9.45038C8.41353 11.5266 10.2348 13.0555 12.2949 12.8697C13.6253 12.7348 14.7802 11.8873 15.3164 10.6524C14.7327 11.3557 13.9025 11.805 12.9985 11.9066C12.0536 11.9981 11.1115 11.7073 10.3795 11.0981C9.64753 10.489 9.18569 9.61157 9.09571 8.65901C8.98063 7.55593 9.36411 6.4592 10.1399 5.6727C8.80817 6.4314 8.05356 7.91764 8.22186 9.45038Z"/>
    <path fill="black" fill-rule="evenodd" clip-rule="evenodd" d="M6.00017 9.07715C5.97551 5.75131 8.62569 3.03284 11.9246 3C15.2236 3.03284 17.8737 5.75131 17.8491 9.07715C17.8702 11.256 16.7311 13.2791 14.8646 14.3779L14.1241 18.8051C14.1241 20.0173 13.1493 21 11.9468 21C10.7444 21 9.76961 20.0173 9.76961 18.8051L9.02905 14.3779C7.14546 13.2905 5.98822 11.2653 6.00017 9.07715ZM12.8577 18.6781L13.6946 13.5192C15.7628 12.6287 16.9347 10.4043 16.5084 8.17807C16.0821 5.95188 14.1731 4.32706 11.9246 4.27661C9.67619 4.32706 7.76722 5.95188 7.34091 8.17807C6.91461 10.4043 8.08646 12.6287 10.1547 13.5192L10.9915 18.6781C10.9915 19.1976 11.4093 19.6188 11.9246 19.6188C12.44 19.6188 12.8577 19.1976 12.8577 18.6781Z"/>
</svg>
