<svg id="pin-outline" width="24" height="24" viewBox="0 0 24 24" fill="none" xmlns="http://www.w3.org/2000/svg">
<path fill-rule="evenodd" clip-rule="evenodd" d="M7.65466 8.60276C8.0336 6.62393 9.73046 5.17964 11.7291 5.1348C13.7277 5.17964 15.4246 6.62393 15.8035 8.60276C16.1824 10.5816 15.1408 12.5589 13.3024 13.3505L12.5585 17.9361C12.5585 18.3979 12.1872 18.7723 11.7291 18.7723C11.271 18.7723 10.8997 18.3979 10.8997 17.9361L10.1558 13.3505C8.31736 12.5589 7.27572 10.5816 7.65466 8.60276ZM8.43771 9.73372C8.60809 11.5793 10.227 12.9383 12.0582 12.7731C13.2408 12.6532 14.2674 11.8998 14.744 10.8022C14.2252 11.4274 13.4871 11.8267 12.6836 11.917C11.8437 11.9984 11.0063 11.7398 10.3556 11.1984C9.70497 10.6569 9.29445 9.877 9.21447 9.03028C9.11218 8.04976 9.45305 7.07489 10.1426 6.37578C8.95887 7.05018 8.28811 8.37128 8.43771 9.73372Z" fill="currentColor"/>
<path fill-rule="evenodd" clip-rule="evenodd" d="M6.46288 9.40191C6.44096 6.44561 8.79668 4.02919 11.7291 4C14.6615 4.02919 17.0172 6.44561 16.9953 9.40191C17.014 11.3387 16.0015 13.137 14.3424 14.1136L13.6841 18.0489C13.6841 19.1265 12.8177 20 11.7488 20C10.68 20 9.81349 19.1265 9.81349 18.0489L9.15522 14.1136C7.48092 13.1471 6.45226 11.3469 6.46288 9.40191ZM12.5585 17.9361L13.3023 13.3505C15.1408 12.5589 16.1824 10.5816 15.8035 8.60276C15.4245 6.62393 13.7277 5.17964 11.7291 5.1348C9.73045 5.17964 8.03359 6.62393 7.65465 8.60276C7.27571 10.5816 8.31735 12.5589 10.1558 13.3505L10.8996 17.9361C10.8996 18.3979 11.271 18.7723 11.7291 18.7723C12.1871 18.7723 12.5585 18.3979 12.5585 17.9361Z" fill="black"/>
</svg>
