<svg id="pin" viewBox="0 0 24 24" xmlns="http://www.w3.org/2000/svg">
    <path fill="currentColor" fill-rule="evenodd" clip-rule="evenodd" d="M12.9517 19.0001L13.8378 13.6271C16.0314 12.7223 17.2833 10.3794 16.826 8.03495C16.3687 5.69055 14.3299 4 11.9599 4C9.58982 4 7.55101 5.69055 7.09369 8.03495C6.63637 10.3794 7.88836 12.7223 10.0819 13.6271L10.968 19.0001C10.968 19.5523 11.4121 20 11.9599 20C12.5077 20 12.9517 19.5523 12.9517 19.0001ZM9.30513 9.76891C9.98921 11.2263 11.5137 12.0871 13.1038 11.9138C14.058 11.8133 14.9369 11.3452 15.5571 10.6073C14.8502 12.2048 13.1956 13.154 11.4722 12.9505C9.74875 12.747 8.35646 11.4381 8.03491 9.71908C7.71336 8.00009 8.53716 6.26988 10.0687 5.44759C8.92749 6.57722 8.62105 8.31149 9.30513 9.76891Z"/>
</svg>
