<svg id="plus-square-outline" viewBox="0 0 24 24" xmlns="http://www.w3.org/2000/svg">
    <path fill="currentColor" d="M16.2 6.4C16.5713 6.4 16.9274 6.5475 17.1899 6.81005C17.4525 7.0726 17.6 7.4287 17.6 7.8V16.2C17.6 16.5713 17.4525 16.9274 17.1899 17.1899C16.9274 17.4525 16.5713 17.6 16.2 17.6H7.8C7.4287 17.6 7.0726 17.4525 6.81005 17.1899C6.5475 16.9274 6.4 16.5713 6.4 16.2V7.8C6.4 7.4287 6.5475 7.0726 6.81005 6.81005C7.0726 6.5475 7.4287 6.4 7.8 6.4H16.2ZM16.2 5H7.8C7.05739 5 6.3452 5.295 5.8201 5.8201C5.295 6.3452 5 7.05739 5 7.8V16.2C5 16.9426 5.295 17.6548 5.8201 18.1799C6.3452 18.705 7.05739 19 7.8 19H16.2C16.9426 19 17.6548 18.705 18.1799 18.1799C18.705 17.6548 19 16.9426 19 16.2V7.8C19 7.05739 18.705 6.3452 18.1799 5.8201C17.6548 5.295 16.9426 5 16.2 5ZM14.933 11.3H12.7V9.067C12.6806 8.89974 12.5965 8.74673 12.4656 8.64074C12.3348 8.53476 12.1676 8.48424 12 8.5C11.8324 8.48424 11.6652 8.53476 11.5344 8.64074C11.4035 8.74673 11.3194 8.89974 11.3 9.067V11.3H9.067C8.89974 11.3194 8.74673 11.4035 8.64074 11.5344C8.53476 11.6652 8.48424 11.8324 8.5 12C8.48424 12.1676 8.53476 12.3348 8.64074 12.4656C8.74673 12.5965 8.89974 12.6806 9.067 12.7H11.3V14.933C11.3194 15.1003 11.4035 15.2533 11.5344 15.3593C11.6652 15.4652 11.8324 15.5158 12 15.5C12.1676 15.5158 12.3348 15.4652 12.4656 15.3593C12.5965 15.2533 12.6806 15.1003 12.7 14.933V12.7H14.933C15.1003 12.6806 15.2533 12.5965 15.3593 12.4656C15.4652 12.3348 15.5158 12.1676 15.5 12C15.5158 11.8324 15.4652 11.6652 15.3593 11.5344C15.2533 11.4035 15.1003 11.3194 14.933 11.3Z"/>
</svg>
