<svg id="plus-square-solid" viewBox="0 0 24 24" xmlns="http://www.w3.org/2000/svg">
    <path fill="currentColor" d="M16.2002 5C17.7464 5.00011 18.9999 6.25356 19 7.7998V16.2002C18.9999 17.7464 17.7464 18.9999 16.2002 19H7.7998C6.25356 18.9999 5.00011 17.7464 5 16.2002V7.7998C5.00011 6.25356 6.25356 5.00011 7.7998 5H16.2002ZM12.0283 8.5C11.6418 8.50007 11.3281 8.81364 11.3281 9.2002V11.2998H9.22852C8.84192 11.2998 8.52832 11.6134 8.52832 12C8.52832 12.3866 8.84192 12.7002 9.22852 12.7002H11.3281V14.7998C11.3281 15.1864 11.6418 15.4999 12.0283 15.5C12.4149 15.5 12.7285 15.1864 12.7285 14.7998V12.7002H14.8281C15.2147 12.7002 15.5283 12.3866 15.5283 12C15.5283 11.6134 15.2147 11.2998 14.8281 11.2998H12.7285V9.2002C12.7285 8.8136 12.4149 8.5 12.0283 8.5Z"/>
</svg>
