<svg id="plus-circle-solid" viewBox="0 0 24 24" xmlns="http://www.w3.org/2000/svg">
    <path fill="currentColor" d="M12 4C16.4183 4 20 7.58172 20 12C20 16.4183 16.4183 20 12 20C7.58172 20 4 16.4183 4 12C4 7.58172 7.58172 4 12 4ZM12.0322 8C11.5906 8.00016 11.2325 8.35816 11.2324 8.7998V11.2002H8.83301C8.39118 11.2002 8.03223 11.5582 8.03223 12C8.03223 12.4418 8.39118 12.7998 8.83301 12.7998H11.2324V15.2002C11.2325 15.6418 11.5906 15.9998 12.0322 16C12.474 16 12.8329 15.6419 12.833 15.2002V12.7998H15.2324C15.6742 12.7998 16.0322 12.4418 16.0322 12C16.0322 11.5582 15.6742 11.2002 15.2324 11.2002H12.833V8.7998C12.8329 8.35807 12.474 8 12.0322 8Z"/>
</svg>
