<svg id="plus-circle" width="24" height="24" viewBox="0 0 24 24" fill="none" xmlns="http://www.w3.org/2000/svg">
<path fill-rule="evenodd" clip-rule="evenodd" d="M20 12C20 7.58172 16.4183 4 12 4C7.58172 4 4 7.58172 4 12C4 16.4183 7.58172 20 12 20C16.4183 20 20 16.4183 20 12ZM12.0325 8C12.4743 8 12.8325 8.35817 12.8325 8.8V11.2H15.2325C15.6743 11.2 16.0325 11.5582 16.0325 12C16.0325 12.4418 15.6743 12.8 15.2325 12.8H12.8325V15.2C12.8325 15.6418 12.4743 16 12.0325 16C11.5907 16 11.2325 15.6418 11.2325 15.2V12.8H8.83252C8.39069 12.8 8.03252 12.4418 8.03252 12C8.03252 11.5582 8.39069 11.2 8.83252 11.2H11.2325V8.8C11.2325 8.35817 11.5907 8 12.0325 8Z" fill="currentColor"/>
</svg>
