<svg id="plus-circle-outline" viewBox="0 0 24 24" xmlns="http://www.w3.org/2000/svg">
    <path fill="currentColor" d="M12 4C16.418 4.00028 20 7.61141 20 12.0654C19.9998 16.5193 16.4179 20.1296 12 20.1299C7.58187 20.1299 4.00022 16.5194 4 12.0654C4 7.61124 7.58173 4 12 4ZM12 5.61328C8.46539 5.61329 5.59961 8.50208 5.59961 12.0654C5.59981 15.6286 8.46552 18.5166 12 18.5166C15.5343 18.5163 18.4002 15.6284 18.4004 12.0654C18.4004 8.50224 15.5344 5.61355 12 5.61328ZM12.7998 8.03223V11.2588H15.999V12.8711H12.7998V16.0977H11.1992V12.8711H7.99902V11.2588H11.1992V8.03223H12.7998Z"/>
</svg>
