<svg id="plus-square" width="24" height="24" viewBox="0 0 24 24" fill="none" xmlns="http://www.w3.org/2000/svg">
<path fill-rule="evenodd" clip-rule="evenodd" d="M19 7.8C19 6.2536 17.7464 5 16.2 5H7.8C6.2536 5 5 6.2536 5 7.8V16.2C5 17.7464 6.2536 19 7.8 19H16.2C17.7464 19 19 17.7464 19 16.2V7.8ZM12.0285 8.5C12.4151 8.5 12.7285 8.8134 12.7285 9.2V11.3H14.8285C15.2151 11.3 15.5285 11.6134 15.5285 12C15.5285 12.3866 15.2151 12.7 14.8285 12.7H12.7285V14.8C12.7285 15.1866 12.4151 15.5 12.0285 15.5C11.6419 15.5 11.3285 15.1866 11.3285 14.8V12.7H9.22846C8.84186 12.7 8.52845 12.3866 8.52845 12C8.52845 11.6134 8.84185 11.3 9.22845 11.3H11.3285V9.2C11.3285 8.8134 11.6419 8.5 12.0285 8.5Z" fill="currentColor"/>
</svg>
