<svg id="postcard" viewBox="0 0 24 24" xmlns="http://www.w3.org/2000/svg">
    <path fill="currentColor" d="M19.3333 6C19.5101 6 19.6797 6.07024 19.8047 6.19526C19.9298 6.32029 20 6.48986 20 6.66667V17.3333C20 17.5101 19.9298 17.6797 19.8047 17.8047C19.6797 17.9298 19.5101 18 19.3333 18H4.66667C4.48986 18 4.32029 17.9298 4.19526 17.8047C4.07024 17.6797 4 17.5101 4 17.3333V6.66667C4 6.48986 4.07024 6.32029 4.19526 6.19526C4.32029 6.07024 4.48986 6 4.66667 6H19.3333ZM18.6667 7.33333H5.33333V16.6667H18.6667V7.33333ZM14 14V15.3333H6.66667V14H14ZM12.6667 11.3333V12.6667H6.66667V11.3333H12.6667ZM18 8V12H14.6667V8H18Z"/>
</svg>
