<svg id="print" viewBox="0 0 24 24" xmlns="http://www.w3.org/2000/svg">
    <path fill="currentColor" d="M18.5424 9.89809H16.2124V6.39945C16.2124 6.0283 16.0649 5.67234 15.8025 5.40989C15.54 5.14744 15.1841 5 14.8129 5H7.81563C7.44447 5 7.08852 5.14744 6.82607 5.40989C6.56362 5.67234 6.41618 6.0283 6.41618 6.39945V9.89809H5.48554C5.3612 9.89809 5.24196 9.94748 5.15404 10.0354C5.06612 10.1233 5.01672 10.2426 5.01672 10.3669V15.0271C5.01672 15.1514 5.06612 15.2707 5.15404 15.3586C5.24196 15.4465 5.3612 15.4959 5.48554 15.4959H6.18527L5.72345 17.4202C5.68094 17.6207 5.68613 17.8283 5.7386 18.0265C5.79107 18.2246 5.88935 18.4076 6.02551 18.5608C6.16168 18.714 6.33193 18.8331 6.52254 18.9084C6.71315 18.9837 6.9188 19.0132 7.1229 18.9945H15.4567C15.6608 19.0132 15.8664 18.9837 16.057 18.9084C16.2476 18.8331 16.4179 18.714 16.554 18.5608C16.6902 18.4076 16.7885 18.2246 16.841 18.0265C16.8934 17.8283 16.8986 17.6207 16.8561 17.4202L16.4153 15.4959H18.5145C18.576 15.4959 18.637 15.4838 18.6939 15.4602C18.7507 15.4367 18.8024 15.4021 18.846 15.3586C18.8895 15.3151 18.924 15.2634 18.9476 15.2065C18.9711 15.1496 18.9833 15.0887 18.9833 15.0271V10.3669C18.9835 10.2473 18.938 10.1321 18.856 10.0449C18.774 9.95776 18.6619 9.90523 18.5424 9.89809ZM7.81563 6.39945H14.8129V9.89809H7.81563V6.39945ZM17.2619 13.3967C17.0544 13.3967 16.8514 13.3352 16.6788 13.2198C16.5062 13.1045 16.3717 12.9406 16.2923 12.7488C16.2128 12.557 16.192 12.346 16.2325 12.1424C16.273 11.9388 16.373 11.7517 16.5198 11.605C16.6666 11.4582 16.8536 11.3582 17.0572 11.3177C17.2608 11.2772 17.4718 11.298 17.6636 11.3774C17.8554 11.4569 18.0193 11.5914 18.1346 11.764C18.25 11.9366 18.3115 12.1395 18.3115 12.3471C18.3115 12.6255 18.201 12.8925 18.0041 13.0893C17.8073 13.2861 17.5403 13.3967 17.2619 13.3967ZM14.6939 14.0965L15.5126 17.5181L15.4497 17.5951H7.23486L7.16489 17.5181L7.96257 14.0965H14.6939Z"/>
</svg>
