<svg id="print" width="24" height="24" viewBox="0 0 24 24" fill="none" xmlns="http://www.w3.org/2000/svg">
<mask id="path-1-inside-1_2_1865" fill="white">
<path fill-rule="evenodd" clip-rule="evenodd" d="M13.3429 5.59999H7.8301C7.16735 5.59999 6.6301 6.13725 6.6301 6.79999V11.7456H16.0801V8.22532L13.3429 5.59999Z"/>
</mask>
<path d="M12.543 8.97129H12.143V9.37129H12.543V8.97129ZM16.0801 8.57129H12.543V9.37129H16.0801V8.57129ZM12.943 8.97129V5.61109H12.143V8.97129H12.943ZM13.3429 5.59999L13.8966 5.02263L13.6645 4.79999H13.3429V5.59999ZM6.6301 11.7456H5.8301V12.5456H6.6301V11.7456ZM16.0801 11.7456V12.5456H16.8801V11.7456H16.0801ZM16.0801 8.22532H16.8801V7.88413L16.6339 7.64796L16.0801 8.22532ZM7.8301 6.39999H13.3429V4.79999H7.8301V6.39999ZM7.4301 6.79999C7.4301 6.57908 7.60918 6.39999 7.8301 6.39999V4.79999C6.72553 4.79999 5.8301 5.69542 5.8301 6.79999H7.4301ZM7.4301 11.7456V6.79999H5.8301V11.7456H7.4301ZM6.6301 12.5456H16.0801V10.9456H6.6301V12.5456ZM15.2801 8.22532V11.7456H16.8801V8.22532H15.2801ZM12.7891 6.17735L15.5263 8.80269L16.6339 7.64796L13.8966 5.02263L12.7891 6.17735Z" fill="currentColor" mask="url(#path-1-inside-1_2_1865)"/>
<mask id="path-3-inside-2_2_1865" fill="white">
<path d="M15.9501 18.4H6.4972C6.4972 18.4 6.39999 18.3578 6.39999 18.3227L7.32341 14.6716H15.0834L15.9987 18.3227C16.0054 18.3552 15.9852 18.3873 15.9501 18.4Z"/>
</mask>
<path d="M6.4972 18.4L6.17906 19.134C6.27948 19.1775 6.38775 19.2 6.4972 19.2V18.4ZM6.39999 18.3227L5.62441 18.1266C5.6082 18.1907 5.59999 18.2566 5.59999 18.3227H6.39999ZM7.32341 14.6716V13.8716C6.95714 13.8716 6.63764 14.1203 6.54784 14.4754L7.32341 14.6716ZM15.0834 14.6716L15.8594 14.4771C15.7702 14.1212 15.4503 13.8716 15.0834 13.8716V14.6716ZM15.9987 18.3227L16.7821 18.1604C16.7798 18.1496 16.7774 18.1389 16.7747 18.1282L15.9987 18.3227ZM15.9501 17.6H6.4972V19.2H15.9501V17.6ZM6.4972 18.4C6.81533 17.6659 6.81544 17.666 6.81555 17.666C6.81558 17.666 6.81569 17.6661 6.81576 17.6661C6.81591 17.6662 6.81605 17.6663 6.81619 17.6663C6.81647 17.6664 6.81675 17.6666 6.81703 17.6667C6.81758 17.6669 6.81812 17.6672 6.81864 17.6674C6.81969 17.6678 6.82068 17.6683 6.82163 17.6687C6.82352 17.6695 6.82526 17.6703 6.82687 17.6711C6.83002 17.6725 6.83305 17.674 6.83611 17.6755C6.8406 17.6777 6.85168 17.6832 6.86719 17.6928C6.87641 17.6984 6.92138 17.7258 6.97371 17.7769C7.00062 17.8031 7.04859 17.8539 7.09346 17.9301C7.13795 18.0056 7.19999 18.1415 7.19999 18.3227H5.59999C5.59999 18.6767 5.82081 18.8874 5.85665 18.9224C5.92721 18.9912 5.99648 19.0357 6.03 19.0563C6.06981 19.0807 6.10519 19.099 6.12791 19.1102C6.14008 19.1162 6.15071 19.1212 6.15917 19.1251C6.16344 19.1271 6.16727 19.1288 6.17058 19.1303C6.17224 19.131 6.17378 19.1317 6.1752 19.1323C6.1759 19.1326 6.17658 19.1329 6.17722 19.1332C6.17755 19.1333 6.17786 19.1335 6.17817 19.1336C6.17832 19.1337 6.17847 19.1337 6.17862 19.1338C6.17869 19.1338 6.17881 19.1339 6.17884 19.1339C6.17895 19.1339 6.17906 19.134 6.4972 18.4ZM7.17557 18.5189L8.09899 14.8678L6.54784 14.4754L5.62441 18.1266L7.17557 18.5189ZM7.32341 15.4716H15.0834V13.8716H7.32341V15.4716ZM14.3074 14.8661L15.2227 18.5173L16.7747 18.1282L15.8594 14.4771L14.3074 14.8661ZM15.2154 18.485C15.127 18.0585 15.4097 17.7445 15.6786 17.6474L16.2216 19.1525C16.5607 19.0301 16.8839 18.6518 16.7821 18.1604L15.2154 18.485Z" fill="currentColor" mask="url(#path-3-inside-2_2_1865)"/>
<path fill-rule="evenodd" clip-rule="evenodd" d="M4.4 11.04C4.17909 11.04 4 11.2191 4 11.44V16.3466C4 16.5676 4.17909 16.7466 4.4 16.7466H6.91564L7.38471 14.8529H14.9845L15.4495 16.7466H19.6C19.8209 16.7466 20 16.5676 20 16.3466V11.44C20 11.2191 19.8209 11.04 19.6 11.04H4.4Z" fill="currentColor"/>
<ellipse cx="16.9615" cy="13.64" rx="0.8611" ry="0.84" fill="white"/>
</svg>
