<svg id="question" viewBox="0 0 24 24" xmlns="http://www.w3.org/2000/svg">
    <path fill="currentColor" fill-rule="evenodd" clip-rule="evenodd" d="M6.70999 9.33333C6.70999 6.38781 9.07855 4 12.0003 4C14.9221 4 17.2906 6.38781 17.2906 9.33333C17.2906 11.5239 15.9148 12.3552 14.7834 13.0387C13.9936 13.5159 13.3229 13.9211 13.3229 14.6667V14.7867C13.3229 15.523 12.7308 16.12 12.0003 16.12C11.2699 16.12 10.6777 15.523 10.6777 14.7867V14.6667C10.6777 12.9416 11.8601 12.1623 12.934 11.4544C13.8273 10.8656 14.6455 10.3263 14.6455 9.33333C14.6455 7.86057 13.4612 6.66667 12.0003 6.66667C10.5394 6.66667 9.35515 7.86057 9.35515 9.33333V9.45333C9.35515 10.1897 8.76301 10.7867 8.03257 10.7867C7.30213 10.7867 6.70999 10.1897 6.70999 9.45333V9.33333ZM12.0003 17.3333C12.7308 17.3333 13.3229 17.9303 13.3229 18.6667C13.3229 19.403 12.7308 20 12.0003 20C11.6496 20 11.3132 19.8595 11.0651 19.6095C10.8171 19.3594 10.6777 19.0203 10.6777 18.6667C10.6777 17.9303 11.2699 17.3333 12.0003 17.3333Z"/>
</svg>
