<svg id="question" width="24" height="24" viewBox="0 0 24 24" fill="none" xmlns="http://www.w3.org/2000/svg">
<path fill-rule="evenodd" clip-rule="evenodd" d="M6.73389 9.33333C6.73389 6.38781 9.10244 4 12.0242 4C14.946 4 17.3145 6.38781 17.3145 9.33333C17.3145 11.5239 15.9387 12.3552 14.8073 13.0387C14.0175 13.5159 13.3468 13.9211 13.3468 14.6667V14.7867C13.3468 15.523 12.7547 16.12 12.0242 16.12C11.2938 16.12 10.7016 15.523 10.7016 14.7867V14.6667C10.7016 12.9416 11.884 12.1623 12.9579 11.4544C13.8512 10.8656 14.6694 10.3263 14.6694 9.33333C14.6694 7.86057 13.4851 6.66667 12.0242 6.66667C10.5633 6.66667 9.37905 7.86057 9.37905 9.33333V9.45333C9.37905 10.1897 8.78691 10.7867 8.05647 10.7867C7.32603 10.7867 6.73389 10.1897 6.73389 9.45333V9.33333ZM12.0242 17.3333C12.7547 17.3333 13.3468 17.9303 13.3468 18.6667C13.3468 19.403 12.7547 20 12.0242 20C11.6735 20 11.337 19.8595 11.089 19.6095C10.841 19.3594 10.7016 19.0203 10.7016 18.6667C10.7016 17.9303 11.2938 17.3333 12.0242 17.3333Z" fill="currentColor"/>
</svg>
