<svg id="redo" viewBox="0 0 24 24" xmlns="http://www.w3.org/2000/svg">
    <path fill="currentColor" d="M12.2495 4.50091C14.3058 4.49324 16.2833 5.29199 17.7574 6.72576L18.999 5.49251C19.274 5.21753 19.499 5.30919 19.499 5.70083V9.61723C19.5001 9.71165 19.4823 9.80533 19.4467 9.89278C19.4111 9.98023 19.3583 10.0597 19.2916 10.1264C19.2248 10.1932 19.1454 10.246 19.0579 10.2816C18.9705 10.3172 18.8768 10.335 18.7824 10.3338H14.866C14.4743 10.3338 14.3827 10.1089 14.6576 9.83388L16.5575 7.92568C15.4102 6.79339 13.8614 6.16127 12.2495 6.16746C10.6773 6.14295 9.15974 6.74351 8.03011 7.83721C6.90048 8.9309 6.25119 10.4283 6.22488 12.0004C6.25119 13.5725 6.90048 15.0699 8.03011 16.1636C9.15974 17.2573 10.6773 17.8578 12.2495 17.8333C13.4363 17.8435 14.5996 17.5024 15.593 16.853C16.5865 16.2036 17.3656 15.2748 17.8324 14.1836C17.8734 14.0784 17.9353 13.9827 18.0144 13.9021C18.0935 13.8216 18.1881 13.758 18.2925 13.7151C18.3969 13.6723 18.5089 13.6511 18.6218 13.6528C18.7346 13.6546 18.846 13.6792 18.949 13.7253C19.0526 13.7648 19.1472 13.8246 19.2274 13.9012C19.3075 13.9778 19.3716 14.0696 19.4159 14.1713C19.4601 14.2729 19.4836 14.3824 19.485 14.4933C19.4864 14.6041 19.4656 14.7141 19.424 14.8169C18.8237 16.2184 17.8222 17.4109 16.5455 18.2442C15.2688 19.0776 13.774 19.5145 12.2495 19.4999C10.2279 19.5311 8.27652 18.759 6.82364 17.3529C5.37076 15.9469 4.53507 14.0219 4.5 12.0004C4.53507 9.97889 5.37076 8.05387 6.82364 6.64786C8.27652 5.24184 10.2279 4.4697 12.2495 4.50091Z"/>
</svg>
