<svg id="safety" xmlns="http://www.w3.org/2000/svg" viewBox="0 0 24 24">
  <path fill="currentColor" d="M23.79,4.08a.79.79,0,0,0-.56-.23h0A3.05,3.05,0,0,1,21,3,2.85,2.85,0,0,1,20.19.78.76.76,0,0,0,20,.23.79.79,0,0,0,19.42,0H4.58A.79.79,0,0,0,4,.23a.76.76,0,0,0-.21.55A2.85,2.85,0,0,1,3,3a3.05,3.05,0,0,1-2.18.9h0a.79.79,0,0,0-.57.23A.77.77,0,0,0,0,4.64,23.46,23.46,0,0,0,11.59,23.89a.82.82,0,0,0,.82,0A23.46,23.46,0,0,0,24,4.64.77.77,0,0,0,23.79,4.08ZM10.86,16.86,6,12.17a.93.93,0,0,1,0-1.35,1,1,0,0,1,1.41,0l3.4,3.31,7.18-7a1,1,0,0,1,1.41,0,.93.93,0,0,1,0,1.36Z"/>
</svg>
