<svg id="scale" viewBox="0 0 24 24" xmlns="http://www.w3.org/2000/svg">
    <path fill="currentColor" fill-rule="evenodd" clip-rule="evenodd" d="M20 17.5805V6.39867C20 5.95756 19.6418 5.59997 19.2 5.59997C18.7582 5.59997 18.4 5.95756 18.4 6.39867V17.5805C18.4 18.0216 18.7582 18.3792 19.2 18.3792C19.6418 18.3792 20 18.0216 20 17.5805ZM4.8 18.3792C4.35817 18.3792 4 18.0216 4 17.5805V6.39868C4 5.95757 4.35817 5.59998 4.8 5.59998C5.24183 5.59998 5.6 5.95757 5.6 6.39868V17.5805C5.6 18.0216 5.24183 18.3792 4.8 18.3792ZM9.6 10.4129V17.6013C9.6 18.0424 9.24183 18.4 8.8 18.4C8.35817 18.4 8 18.0424 8 17.6013V10.4129C8 9.97182 8.35817 9.61423 8.8 9.61423C9.24183 9.61423 9.6 9.97182 9.6 10.4129ZM12.8 17.6013V10.4129C12.8 9.97182 12.4418 9.61423 12 9.61423C11.5582 9.61423 11.2 9.97182 11.2 10.4129V17.6013C11.2 18.0424 11.5582 18.4 12 18.4C12.4418 18.4 12.8 18.0424 12.8 17.6013ZM16 10.4129V17.6013C16 18.0424 15.6418 18.4 15.2 18.4C14.7582 18.4 14.4 18.0424 14.4 17.6013V10.4129C14.4 9.97182 14.7582 9.61423 15.2 9.61423C15.6418 9.61423 16 9.97182 16 10.4129Z"/>
</svg>
