<svg id="scale" width="24" height="24" viewBox="0 0 24 24" fill="none" xmlns="http://www.w3.org/2000/svg">
<path fill-rule="evenodd" clip-rule="evenodd" d="M20 17.5806V6.39871C20 5.9576 19.6418 5.60001 19.2 5.60001C18.7582 5.60001 18.4 5.9576 18.4 6.39871V17.5806C18.4 18.0217 18.7582 18.3793 19.2 18.3793C19.6418 18.3793 20 18.0217 20 17.5806ZM4.8 18.3793C4.35817 18.3793 4 18.0217 4 17.5806V6.39872C4 5.9576 4.35817 5.60001 4.8 5.60001C5.24183 5.60001 5.6 5.9576 5.6 6.39872V17.5806C5.6 18.0217 5.24183 18.3793 4.8 18.3793ZM9.6 10.413V17.6013C9.6 18.0424 9.24183 18.4 8.8 18.4C8.35817 18.4 8 18.0424 8 17.6013V10.413C8 9.97186 8.35817 9.61426 8.8 9.61426C9.24183 9.61426 9.6 9.97186 9.6 10.413ZM12.8 17.6013V10.413C12.8 9.97186 12.4418 9.61426 12 9.61426C11.5582 9.61426 11.2 9.97186 11.2 10.413V17.6013C11.2 18.0424 11.5582 18.4 12 18.4C12.4418 18.4 12.8 18.0424 12.8 17.6013ZM16 10.413V17.6013C16 18.0424 15.6418 18.4 15.2 18.4C14.7582 18.4 14.4 18.0424 14.4 17.6013V10.413C14.4 9.97186 14.7582 9.61426 15.2 9.61426C15.6418 9.61426 16 9.97186 16 10.413Z" fill="currentColor"/>
</svg>
