<svg id="search" viewBox="0 0 24 24" xmlns="http://www.w3.org/2000/svg">
    <path fill="currentColor" fill-rule="evenodd" clip-rule="evenodd" d="M15.3359 14.0915L18.7423 17.4979C19.0859 17.8416 19.0859 18.3987 18.7423 18.7423C18.3987 19.0859 17.8416 19.0859 17.4979 18.7423L14.0915 15.3359C13.1184 16.0601 11.9371 16.4503 10.724 16.448C7.56273 16.448 5 13.8853 5 10.724C5 7.56273 7.56273 5 10.724 5C13.8853 5 16.448 7.56273 16.448 10.724C16.4503 11.9371 16.0601 13.1184 15.3359 14.0915ZM9.2008 7.05405C7.71892 7.67042 6.75454 9.11908 6.75769 10.724C6.76624 12.9098 8.53829 14.6784 10.7241 14.6826C12.329 14.6826 13.7758 13.7154 14.3892 12.2323C15.0027 10.7492 14.6619 9.04262 13.5259 7.90886C12.39 6.7751 10.6827 6.43768 9.2008 7.05405Z"/>
</svg>
