<svg id="security" width="24" height="24" viewBox="0 0 24 24" fill="none" xmlns="http://www.w3.org/2000/svg">
<path fill-rule="evenodd" clip-rule="evenodd" d="M18.5505 7.246C18.6729 7.24557 18.7904 7.29384 18.8771 7.38017C18.9603 7.4681 19.0045 7.58589 18.9996 7.70683C18.8017 12.3559 16.255 16.5857 12.239 18.9359C12.091 19.0214 11.9087 19.0214 11.7607 18.9359C7.74461 16.5857 5.19793 12.3559 5 7.70683C5.00892 7.59271 5.06109 7.48629 5.14583 7.40934C5.23401 7.32156 5.35392 7.27317 5.47832 7.27517C5.95545 7.27777 6.41362 7.08861 6.74995 6.75017C7.08317 6.4052 7.25116 5.93311 7.21078 5.45518C7.20685 5.33612 7.251 5.22049 7.33327 5.13435C7.42286 5.0451 7.54519 4.99659 7.6716 5.00019H16.328C16.4544 4.99659 16.5768 5.0451 16.6664 5.13435C16.7444 5.22236 16.7843 5.33777 16.7772 5.45518C16.7399 5.93488 16.9122 6.40722 17.2497 6.75017C17.5979 7.08527 18.0675 7.26427 18.5505 7.246ZM8.49992 12.0993L11.3349 14.8351L16.3164 9.95266C16.4264 9.85006 16.4888 9.7064 16.4888 9.556C16.4888 9.40559 16.4264 9.26194 16.3164 9.15933C16.0889 8.93316 15.7214 8.93316 15.4939 9.15933L11.3057 13.2426L9.3224 11.3118C9.09489 11.0856 8.72744 11.0856 8.49992 11.3118C8.39183 11.4143 8.33061 11.5566 8.33061 11.7056C8.33061 11.8545 8.39183 11.9969 8.49992 12.0993Z" fill="currentColor"/>
</svg>
