<svg id="settings" width="24" height="24" viewBox="0 0 24 24" fill="none" xmlns="http://www.w3.org/2000/svg">
<path fill-rule="evenodd" clip-rule="evenodd" d="M13.8922 5.27938C13.8327 5.30371 13.8021 5.36992 13.8222 5.43098L14.003 5.91497C13.6165 6.13934 13.2841 6.4459 13.0292 6.81296L12.5802 6.59721C12.5205 6.57484 12.4535 6.59967 12.4228 6.65552L12.0846 7.33776C12.0709 7.36629 12.0693 7.39918 12.0803 7.42887C12.0913 7.45856 12.1139 7.48251 12.1429 7.4952L12.6094 7.71095C12.4981 8.15001 12.4881 8.60863 12.5802 9.05211L12.0963 9.23287C12.0617 9.23473 12.03 9.25261 12.0106 9.28121C11.9911 9.30981 11.9862 9.34585 11.9971 9.37865L12.2654 10.1075C12.2897 10.167 12.3559 10.1976 12.417 10.1775L12.9009 9.99675C13.1253 10.3832 13.4318 10.7157 13.7989 10.9705L13.5831 11.437C13.5579 11.4967 13.5834 11.5657 13.6415 11.5945L14.3412 11.9152C14.3697 11.9289 14.4026 11.9305 14.4323 11.9195C14.462 11.9085 14.4859 11.8859 14.4986 11.8569L14.7143 11.3904C15.1461 11.5068 15.5984 11.5247 16.038 11.4429L16.2187 11.9269C16.2279 11.9561 16.2488 11.9802 16.2765 11.9934C16.3041 12.0067 16.336 12.0079 16.3645 11.9968L17.0934 11.7286C17.1529 11.7043 17.1834 11.6381 17.1633 11.577L16.9826 11.093C17.3712 10.8693 17.7056 10.5627 17.9622 10.195L18.4287 10.4108C18.4883 10.436 18.5573 10.4105 18.5861 10.3524L18.9068 9.67021C18.9205 9.64168 18.9221 9.60879 18.9111 9.5791C18.9001 9.54941 18.8775 9.52546 18.8485 9.51277L18.4112 9.27952C18.5102 8.84386 18.5102 8.39152 18.4112 7.95586L18.8951 7.77509C18.9297 7.77324 18.9614 7.75536 18.9808 7.72676C19.0003 7.69816 19.0052 7.66212 18.9943 7.62932L18.726 6.90043C18.7017 6.84092 18.6355 6.81036 18.5744 6.83045L18.0905 7.01122C17.8644 6.62414 17.5558 6.29165 17.1867 6.03742L17.4024 5.57093C17.4162 5.5424 17.4177 5.50952 17.4067 5.47982C17.3957 5.45013 17.3731 5.42619 17.3441 5.41349L16.6619 5.09278C16.6319 5.08107 16.5986 5.08107 16.5686 5.09278C16.5404 5.10606 16.5177 5.12874 16.5045 5.15692L16.2887 5.62341C15.8501 5.51015 15.3915 5.49819 14.9476 5.58842L14.7668 5.08112C14.7473 5.0201 14.6822 4.98625 14.6211 5.00531L13.8922 5.27938ZM9.01169 9.82184C9.01169 9.7381 9.07957 9.67023 9.1633 9.67023H10.1721C10.2558 9.67023 10.3237 9.7381 10.3237 9.82184V10.4924C10.897 10.5964 11.4405 10.8254 11.9155 11.163L12.3936 10.6848C12.4229 10.6553 12.4628 10.6385 12.5044 10.6382C12.544 10.64 12.5815 10.6566 12.6094 10.6848L13.3208 11.3962C13.3778 11.4569 13.3778 11.5514 13.3208 11.612L12.8426 12.0901C13.179 12.5646 13.4042 13.1087 13.5015 13.682H14.1779C14.2616 13.682 14.3295 13.7499 14.3295 13.8336V14.8424C14.3295 14.8826 14.3135 14.9212 14.2851 14.9496C14.2567 14.9781 14.2181 14.994 14.1779 14.994H13.5074C13.4033 15.5674 13.1744 16.1109 12.8368 16.5859L13.3149 17.0641C13.372 17.1247 13.372 17.2192 13.3149 17.2798L12.6036 17.9912C12.5429 18.0483 12.4484 18.0483 12.3878 17.9912L11.9097 17.5131C11.4353 17.8495 10.8912 18.0747 10.3178 18.172V18.8484C10.3178 18.8886 10.3019 18.9272 10.2734 18.9556C10.245 18.984 10.2064 19 10.1662 19H9.18662C9.10289 19 9.03502 18.9321 9.03502 18.8484V18.1778C8.46162 18.0738 7.91815 17.8449 7.44317 17.5073L6.96503 17.9854C6.90442 18.0424 6.8099 18.0424 6.74928 17.9854L6.00875 17.3032C5.95174 17.2425 5.95174 17.148 6.00875 17.0874L6.48689 16.6093C6.15049 16.1348 5.92529 15.5907 5.82799 15.0174H5.1516C5.06788 15.0174 5 14.9495 5 14.8658V13.857C5 13.7732 5.06788 13.7054 5.1516 13.7054H5.82216C5.92617 13.132 6.1551 12.5885 6.49272 12.1135L6.01459 11.6353C5.95757 11.5747 5.95757 11.4802 6.01459 11.4196L6.74928 10.679C6.77111 10.6555 6.79959 10.6392 6.83092 10.6324C6.87256 10.6326 6.9124 10.6494 6.94171 10.679L7.41984 11.1572C7.89424 10.8208 8.43833 10.5955 9.01169 10.4982V9.82184ZM10.808 14.1094C10.7003 13.5632 10.2215 13.1693 9.66476 13.1689C9.35681 13.1686 9.06125 13.2902 8.8426 13.5071C8.44733 13.8991 8.38429 14.5159 8.69207 14.9798C8.99985 15.4438 9.59261 15.6254 10.1075 15.4136C10.6223 15.2018 10.9157 14.6556 10.808 14.1094ZM17.0111 7.59212C16.5747 6.88001 15.6959 6.57567 14.9126 6.86544C14.4796 7.02563 14.1275 7.35052 13.933 7.76926C13.5812 8.52674 13.8139 9.42723 14.4887 9.91941C15.1634 10.4116 16.0919 10.3581 16.7057 9.79182C17.3195 9.22549 17.4474 8.30424 17.0111 7.59212Z" fill="currentColor"/>
</svg>
