<svg id="share" viewBox="0 0 24 24" xmlns="http://www.w3.org/2000/svg">
    <path fill="currentColor" d="M17.2383 10.7236C17.6584 10.7238 17.9997 11.0652 18 11.4854V16.8955C17.9999 17.4479 17.7874 17.9829 17.4023 18.3809C17.0161 18.7798 16.4859 19.0087 15.9287 19.0088H8.07129C7.51403 19.0088 6.98497 18.7798 6.59863 18.3809C6.21322 17.9828 6.0001 17.4482 6 16.8955V11.4854C6.00025 11.0651 6.34141 10.7236 6.76172 10.7236C7.18186 10.7238 7.52319 11.0652 7.52344 11.4854V16.8955C7.52354 17.0599 7.58684 17.2132 7.69238 17.3223C7.79719 17.4303 7.93407 17.4863 8.07129 17.4863H15.9287C16.066 17.4862 16.2038 17.4304 16.3086 17.3223C16.4139 17.2133 16.4774 17.0597 16.4775 16.8955V11.4854C16.4778 11.0652 16.8181 10.7238 17.2383 10.7236ZM14.8086 7.83203C15.013 8.03383 14.9473 8.20049 14.6523 8.20312L12.8398 8.22559L12.8838 13.6309C12.8865 13.8633 12.7962 14.0871 12.6338 14.2529C12.4714 14.4188 12.2501 14.5134 12.0186 14.5146C11.7868 14.5177 11.5627 14.4277 11.3975 14.2646C11.2323 14.1016 11.1396 13.8782 11.1387 13.6455L11.1006 8.24707L9.25684 8.26367C8.97415 8.26618 8.89945 8.1058 9.10059 7.90039L11.9404 5L14.8086 7.83203Z"/>
</svg>
