<svg id="soil" viewBox="0 0 24 24" xmlns="http://www.w3.org/2000/svg">
    <path fill="currentColor" fill-rule="evenodd" clip-rule="evenodd" d="M12.844 6.21892C12.7557 6.56614 12.7557 6.93023 12.844 7.27745C12.9459 7.48275 13.6968 7.59822 13.9768 7.56615C14.597 7.50846 15.0984 7.03211 15.1922 6.41138C15.2492 6.12406 15.2743 5.83316 15.2993 5.54403C15.3077 5.44581 15.3162 5.3478 15.3259 5.2502C15.3386 5.05773 15.275 5 15.084 5C14.7531 5.01283 14.435 5.02566 14.1168 5.07057C13.4775 5.10424 12.9479 5.58216 12.844 6.21892ZM11.3786 6.9967C11.467 7.34392 11.467 7.70801 11.3786 8.05523C11.2768 8.26052 10.5259 8.376 10.2459 8.34392C9.62325 8.28904 9.11855 7.81204 9.02409 7.18916C8.96709 6.90184 8.942 6.61095 8.91706 6.32182V6.32182C8.90859 6.2236 8.90013 6.12558 8.89045 6.02797C8.87772 5.83551 8.94136 5.77777 9.13227 5.77777C9.45682 5.77777 9.78136 5.77777 10.1059 5.84834C10.7451 5.88202 11.2748 6.35994 11.3786 6.9967ZM13.5556 10.1082C13.6106 10.7345 14.0842 11.2411 14.701 11.3336C15.08 11.3988 15.4625 11.4417 15.8465 11.4619C16.0437 11.4619 16.101 11.4106 16.0946 11.2117C16.0946 10.8909 16.0628 10.5701 16.0183 10.2365C15.9843 9.59009 15.507 9.05541 14.8728 8.95347C14.5302 8.86736 14.1718 8.86736 13.8292 8.95347C13.6319 9.06253 13.5556 9.81954 13.5556 10.1082ZM17.7273 16.3633L18.3636 17.0048V16.9727C18.68 16.9727 18.8391 16.9521 18.9191 17.022C19 17.0927 19 17.2561 19 17.6271V19H5V17.6271C5 17.6282 5.00497 17.6188 5.01451 17.6008C5.11299 17.4148 5.69877 16.3084 6.34273 16.3376C6.49281 16.3376 6.63848 16.1236 6.77546 15.9223C6.92307 15.7054 7.0606 15.5033 7.18273 15.5998L7.43727 15.7923L7.67273 15.5485C8.18182 14.3039 10.7273 14.3039 10.7273 14.3039C10.8504 14.1819 10.995 14.084 11.1536 14.0152C10.642 12.9831 10.2839 11.8807 10.0909 10.7434C10.0909 9.42183 11.5036 8.73538 12.2355 8.71613C12.4885 8.71613 12.6936 8.92294 12.6936 9.17804C12.6936 9.43315 12.4885 9.63995 12.2355 9.63995C12.2036 9.63995 10.9309 9.65278 10.9309 10.7241C10.9309 11.0898 11.1473 11.9431 12 13.8677C12.7536 14.0202 13.4297 14.436 13.9091 15.0417C14.6546 15.0417 15.1818 15.275 15.6185 15.4684C15.9274 15.605 16.191 15.7217 16.4545 15.7217C17.0909 15.7217 17.7273 15.7217 17.7273 16.3633Z"/>
</svg>
