<svg id="sort" width="24" height="24" viewBox="0 0 24 24" fill="none" xmlns="http://www.w3.org/2000/svg">
<path fill-rule="evenodd" clip-rule="evenodd" d="M12.8388 4.33882C12.6074 4.13138 12.314 4.01181 12.0074 4C11.7009 4.01181 11.4075 4.13138 11.1761 4.33882C10.6919 4.75294 7.23855 7.76471 5.97781 8.89412C5.80134 9.02597 5.67272 9.21479 5.61238 9.43059C5.56331 9.74531 5.66178 10.0654 5.87784 10.2935C6.09391 10.5217 6.40206 10.631 6.70867 10.5882H17.3062C17.6083 10.6213 17.9082 10.5077 18.1177 10.2809C18.3271 10.0541 18.4222 9.73984 18.3751 9.43059C18.3147 9.21479 18.1861 9.02597 18.0096 8.89412C16.7763 7.80236 13.323 4.75294 12.8388 4.33882ZM11.1762 19.6612C11.4076 19.8686 11.701 19.9882 12.0075 20C12.3141 19.9882 12.6075 19.8686 12.8389 19.6612C13.3231 19.2471 16.7764 16.1976 18.0097 15.1059C18.3643 14.8506 18.4964 14.3741 18.3263 13.9643C18.1561 13.5546 17.7304 13.3239 17.3063 13.4118H6.70876C6.28466 13.3239 5.85889 13.5546 5.68876 13.9643C5.51862 14.3741 5.65075 14.8506 6.0053 15.1059C7.23864 16.2353 10.692 19.2471 11.1762 19.6612Z" fill="currentColor"/>
</svg>
