<svg id="sort" viewBox="0 0 24 24" xmlns="http://www.w3.org/2000/svg">
    <path fill="currentColor" fill-rule="evenodd" clip-rule="evenodd" d="M17.3061 13.4121C17.7301 13.3243 18.1564 13.5543 18.3266 13.9639C18.4966 14.3734 18.3644 14.8501 18.0102 15.1055C16.777 16.1971 13.3244 19.2462 12.8393 19.6611C12.6078 19.8686 12.3138 19.9882 12.0072 20C11.7008 19.9881 11.4075 19.8685 11.1762 19.6611C10.6919 19.247 7.2386 16.2349 6.00528 15.1055C5.65089 14.8501 5.51877 14.3735 5.68888 13.9639C5.85909 13.5545 6.28454 13.3245 6.70841 13.4121H17.3061ZM12.0072 4C12.3138 4.01181 12.6078 4.13142 12.8393 4.33887C13.3245 4.75395 16.7761 7.80294 18.0092 8.89453C18.1857 9.02638 18.3151 9.21487 18.3754 9.43066C18.4225 9.73987 18.327 10.0545 18.1176 10.2812C17.9082 10.5079 17.6081 10.6209 17.3061 10.5879H6.70841C6.40208 10.6305 6.09432 10.5217 5.87833 10.2939C5.66227 10.0658 5.56365 9.74538 5.61271 9.43066C5.67303 9.21492 5.80154 9.02637 5.97794 8.89453C7.23868 7.76512 10.692 4.75299 11.1762 4.33887C11.4075 4.13149 11.7008 4.01185 12.0072 4Z"/>
</svg>
