<svg id="sort-ascending" viewBox="0 0 24 24" xmlns="http://www.w3.org/2000/svg">
    <path fill="currentColor" d="M12.0074 4C12.314 4.01181 12.6074 4.13138 12.8388 4.33882C13.323 4.75294 16.7763 7.80236 18.0097 8.89412C18.1861 9.02597 18.3147 9.21479 18.3751 9.43059C18.4222 9.73984 18.3271 10.0541 18.1177 10.2809C17.9082 10.5077 17.6084 10.6213 17.3062 10.5882H6.70868C6.40207 10.631 6.09391 10.5217 5.87785 10.2935C5.66178 10.0654 5.56332 9.74531 5.61239 9.43059C5.67273 9.21479 5.80135 9.02597 5.97782 8.89412C7.23856 7.76471 10.6919 4.75294 11.1761 4.33882C11.4075 4.13138 11.7009 4.01181 12.0074 4Z"/>
</svg>
