<svg id="sound" viewBox="0 0 24 24" xmlns="http://www.w3.org/2000/svg">
    <path fill="currentColor" fill-rule="evenodd" clip-rule="evenodd" d="M15.2 6.23997V17.76C15.2 18.1134 14.8418 18.4 14.4 18.4C13.9582 18.4 13.6 18.1134 13.6 17.76V6.23997C13.6 5.88651 13.9582 5.59997 14.4 5.59997C14.8418 5.59997 15.2 5.88651 15.2 6.23997ZM12.8 8.79998V15.2C12.8 15.5534 12.4418 15.84 12 15.84C11.5582 15.84 11.2 15.5534 11.2 15.2V8.79998C11.2 8.44652 11.5582 8.15998 12 8.15998C12.4418 8.15998 12.8 8.44652 12.8 8.79998ZM8 9.43997V14.56C8 14.9134 7.64183 15.2 7.2 15.2C6.75817 15.2 6.4 14.9134 6.4 14.56V9.43997C6.4 9.08651 6.75817 8.79997 7.2 8.79997C7.64183 8.79997 8 9.08651 8 9.43997ZM4.8 13.92C4.35817 13.92 4 13.6334 4 13.28V10.72C4 10.3665 4.35817 10.08 4.8 10.08C5.24183 10.08 5.6 10.3665 5.6 10.72V13.28C5.6 13.6334 5.24183 13.92 4.8 13.92ZM20 12.64V11.36C20 11.0065 19.6418 10.72 19.2 10.72C18.7582 10.72 18.4 11.0065 18.4 11.36V12.64C18.4 12.9935 18.7582 13.28 19.2 13.28C19.6418 13.28 20 12.9935 20 12.64ZM10.4 13.28V10.7199C10.4 10.3665 10.0418 10.0799 9.6 10.0799C9.15817 10.0799 8.8 10.3665 8.8 10.7199V13.28C8.8 13.6334 9.15817 13.92 9.6 13.92C10.0418 13.92 10.4 13.6334 10.4 13.28ZM17.6 15.2V8.79998C17.6 8.44652 17.2418 8.15998 16.8 8.15998C16.3582 8.15998 16 8.44652 16 8.79998V15.2C16 15.5534 16.3582 15.84 16.8 15.84C17.2418 15.84 17.6 15.5534 17.6 15.2Z"/>
</svg>
