<svg id="status-warning-inline-negative" xmlns="http://www.w3.org/2000/svg" viewBox="0 0 24 24">
<g id="status-warning-inline-negative">
	<path fill="#CE3F51" d="M9.8,3.3L0.6,17.9c-0.8,1.3-0.4,2.9,0.8,3.7C1.9,21.9,2.4,22,2.9,22h18.4c1.5,0,2.7-1.2,2.7-2.7
		c0-0.5-0.1-1-0.4-1.4L14.4,3.3c-0.8-1.3-2.5-1.6-3.7-0.8C10.3,2.7,10,2.9,9.8,3.3L9.8,3.3z"/>
	<path fill="#FFFFFF" d="M12.7,3.7c0.2,0.1,0.3,0.2,0.4,0.4l9.2,14.6c0.4,0.6,0.2,1.3-0.4,1.7c-0.2,0.1-0.4,0.2-0.7,0.2H2.9
		c-0.7,0-1.2-0.6-1.2-1.2c0-0.2,0.1-0.5,0.2-0.7L11,4.1c0.3-0.5,1-0.7,1.6-0.5C12.6,3.6,12.7,3.7,12.7,3.7z"/>
	<path fill="#CE3F51" d="M11.1,14.7l-0.1-6.1c0-0.7,0.5-1.1,1.1-1.1c0.7,0,1.1,0.5,1.1,1.1l-0.1,6.1c0,0.5-0.5,0.9-1,0.9
		S11.1,15.2,11.1,14.7z M12.1,16.6c-0.5,0-1,0.4-1,1s0.4,1,1,1c0.5,0,1-0.4,1-1C13.1,17.1,12.6,16.6,12.1,16.6z"/>
</g>
</svg>
