<svg id="status-error" width="24" height="24" viewBox="0 0 24 24" fill="none" xmlns="http://www.w3.org/2000/svg">
<path d="M14.7112 4H9.28878C8.90301 4 8.53305 4.15325 8.26027 4.42603L4.42603 8.26027C4.15325 8.53305 4 8.90301 4 9.28878V14.7112C4 15.097 4.15325 15.467 4.42603 15.7397L8.26027 19.574C8.53305 19.8468 8.90301 20 9.28878 20H14.7112C15.097 20 15.467 19.8468 15.7397 19.574L19.574 15.7397C19.8468 15.467 20 15.097 20 14.7112V9.28878C20 8.90301 19.8468 8.53305 19.574 8.26027L15.7397 4.42603C15.467 4.15325 15.097 4 14.7112 4Z" fill="white"/>
<path fill-rule="evenodd" clip-rule="evenodd" d="M14.4602 5.09091C14.7174 5.09091 14.964 5.19308 15.1459 5.37493L18.6251 8.85415C18.8069 9.036 18.9091 9.28265 18.9091 9.53982V14.4602C18.9091 14.7174 18.8069 14.964 18.6251 15.1459L15.1459 18.6251C14.964 18.8069 14.7174 18.9091 14.4602 18.9091H9.53983C9.28265 18.9091 9.036 18.8069 8.85415 18.6251L5.37493 15.1459C5.19308 14.964 5.09091 14.7174 5.09091 14.4602V9.53983C5.09091 9.28265 5.19308 9.036 5.37493 8.85415L8.85415 5.37493C9.036 5.19308 9.28265 5.09091 9.53983 5.09091L14.4602 5.09091Z" fill="#CE3F51"/>
<path d="M15.4454 8.5546C15.7 8.8092 15.7 9.22199 15.4454 9.47659L12.9218 12L15.4454 14.5234C15.7 14.778 15.7 15.1908 15.4454 15.4454C15.1908 15.7 14.778 15.7 14.5234 15.4454L12 12.9218L9.47659 15.4454C9.22199 15.7 8.8092 15.7 8.5546 15.4454C8.3 15.1908 8.3 14.778 8.5546 14.5234L11.078 12L8.5546 9.47659C8.3 9.22199 8.3 8.8092 8.5546 8.5546C8.8092 8.3 9.22199 8.3 9.47659 8.5546L12 11.078L14.5234 8.5546C14.778 8.3 15.1908 8.3 15.4454 8.5546Z" fill="white"/>
</svg>
