<svg id="status-success" viewBox="0 0 24 24" xmlns="http://www.w3.org/2000/svg">
    <path fill="white" d="M12 3C7.02944 3 3 7.02944 3 12C3 16.9706 7.02944 21 12 21C16.9706 21 21 16.9706 21 12C21 9.61305 20.0518 7.32387 18.364 5.63604C16.6761 3.94821 14.3869 3 12 3Z"/>
    <path fill="#39870C" d="M12 4.125C16.3492 4.125 19.875 7.65076 19.875 12C19.875 16.3492 16.3492 19.875 12 19.875C7.65076 19.875 4.125 16.3492 4.125 12C4.125 7.65076 7.65076 4.125 12 4.125"/>
    <path fill="white" d="M14.9047 8.91538C15.1586 8.58807 15.6297 8.52854 15.957 8.7824C16.2843 9.03627 16.3439 9.50739 16.09 9.83469L11.2236 16.1089L7.91995 12.4805C7.64139 12.1739 7.66407 11.6996 7.97062 11.421C8.27717 11.1425 8.7515 11.1652 9.03007 11.4717L11.1323 13.7783L14.9047 8.91538Z"/>
</svg>
