<svg id="status-danger" xmlns="http://www.w3.org/2000/svg" viewBox="0 0 24 24">
  <g>
    <path d="M22.6,18.51c.86,1.37.29,2.49-1.25,2.49H2.65C1.11,21,.54,19.88,1.4,18.51L10.44,4a1.7,1.7,0,0,1,3.12,0Z" fill="#ce3f51"/>
    <path d="M12,3a1.9,1.9,0,0,1,1.56,1l9,14.48c.86,1.37.29,2.49-1.25,2.49H2.65C1.11,21,.54,19.88,1.4,18.51L10.44,4A1.9,1.9,0,0,1,12,3m0-1A2.89,2.89,0,0,0,9.6,3.5L.55,18a2.75,2.75,0,0,0-.28,2.81A2.59,2.59,0,0,0,2.65,22h18.7a2.59,2.59,0,0,0,2.38-1.21A2.75,2.75,0,0,0,23.45,18L14.4,3.5A2.89,2.89,0,0,0,12,2Z" fill="#fff"/>
  </g>
  <path d="M12,16a1,1,0,0,1-1-.91V8.91a1,1,0,0,1,2,0v6.18A1,1,0,0,1,12,16Zm0,1a1,1,0,1,0,1,1A1,1,0,0,0,12,17Z" fill="#fff"/>
</svg>
