<svg id="status-warning" viewBox="0 0 24 24" xmlns="http://www.w3.org/2000/svg">
    <path fill="#191919" d="M10.2735 5.70765L3.31548 16.2133C3.10939 16.5245 3 16.885 3 17.253C3 18.3283 3.91416 19.2001 5.04183 19.2001H18.9579C19.3439 19.2001 19.7219 19.0958 20.0483 18.8992C21.0017 18.325 21.2864 17.1225 20.6843 16.2133L13.7262 5.70765C13.5641 5.46291 13.3469 5.25572 13.0902 5.10114C12.1368 4.52692 10.8757 4.79846 10.2735 5.70765Z"/>
    <path fill="#DCD400" d="M12.4955 5.99892C12.6121 6.06918 12.7109 6.16336 12.7846 6.27461L19.7426 16.7802C20.0164 17.1935 19.8869 17.7401 19.4535 18.0011C19.3052 18.0905 19.1334 18.1379 18.9579 18.1379H5.04183C4.52925 18.1379 4.11372 17.7416 4.11372 17.2528C4.11372 17.0856 4.16345 16.9217 4.25713 16.7802L11.2152 6.27461C11.4706 5.88889 11.987 5.75566 12.4071 5.95182L12.4955 5.99892Z"/>
    <path fill="#191919" d="M11.2574 13.9653L11.146 9.58974C11.146 9.09903 11.4847 8.77551 11.9999 8.77551C12.5151 8.77551 12.8537 9.09903 12.8537 9.58974L12.7424 13.9653C12.7077 14.3313 12.3852 14.6111 11.9999 14.6096C11.6146 14.6111 11.2921 14.3313 11.2574 13.9653Z"/>
    <path fill="#191919" d="M11.9999 15.3176C11.5898 15.3176 11.2574 15.6346 11.2574 16.0257C11.2574 16.4167 11.5898 16.7337 11.9999 16.7337C12.41 16.7337 12.7424 16.4167 12.7424 16.0257C12.7424 15.6346 12.41 15.3176 11.9999 15.3176Z"/>
</svg>
