<svg id="status-info" width="24" height="24" viewBox="0 0 24 24" fill="none" xmlns="http://www.w3.org/2000/svg">
<path fill-rule="evenodd" clip-rule="evenodd" d="M16.4545 5C17.8604 5 19 6.13964 19 7.54545V16.4545C19 17.8604 17.8604 19 16.4545 19H7.54545C6.13964 19 5 17.8604 5 16.4545V7.54545C5 6.13964 6.13964 5 7.54545 5H16.4545Z" fill="white"/>
<path fill-rule="evenodd" clip-rule="evenodd" d="M7.76817 5.95456H16.2318C17.2335 5.95456 18.0454 6.76655 18.0454 7.7682V16.2318C18.0454 17.2335 17.2335 18.0455 16.2318 18.0455H7.76817C6.76653 18.0455 5.95454 17.2335 5.95454 16.2318V7.7682C5.95454 6.76655 6.76653 5.95456 7.76817 5.95456Z" fill="#2B5780"/>
<path d="M13.0788 15.7877C13.0788 16.2379 12.7139 16.6028 12.2637 16.6028C11.8136 16.6028 11.4486 16.2379 11.4486 15.7877L11.4486 11.7119L10.9692 11.7124C10.6526 11.7124 10.3933 11.4669 10.3714 11.1558L10.3699 11.113C10.3699 10.7821 10.6382 10.5137 10.9692 10.5137H12.4795C12.8104 10.5137 13.0788 10.7821 13.0788 11.113V15.7877Z" fill="white"/>
<ellipse cx="12.0479" cy="8.50002" rx="1.05479" ry="1.05479" fill="white"/>
</svg>
