<svg id="status-warning" width="24" height="24" viewBox="0 0 24 24" fill="none" xmlns="http://www.w3.org/2000/svg">
<path d="M10.4654 6.40676L4.28043 15.7451C4.09723 16.0217 4 16.3421 4 16.6693C4 17.6251 4.81258 18.4 5.81495 18.4H18.1848C18.5279 18.4 18.8639 18.3073 19.154 18.1326C20.0015 17.6222 20.2546 16.5533 19.7193 15.7451L13.5344 6.40676C13.3903 6.18921 13.1972 6.00504 12.9691 5.86765C12.1216 5.35723 11.0006 5.5986 10.4654 6.40676Z" fill="#191919"/>
<path d="M12.4404 6.66581C12.5441 6.72827 12.6319 6.81198 12.6974 6.91086L18.8823 16.2492C19.1256 16.6165 19.0106 17.1024 18.6254 17.3344C18.4935 17.4138 18.3408 17.456 18.1848 17.456H5.81497C5.35935 17.456 4.98999 17.1038 4.98999 16.6693C4.98999 16.5206 5.03419 16.3749 5.11746 16.2492L11.3024 6.91086C11.5295 6.56801 11.9885 6.44958 12.3618 6.62394L12.4404 6.66581Z" fill="#DCD400"/>
<path d="M11.3399 13.747L11.2409 9.85758C11.2409 9.42139 11.5419 9.13382 11.9999 9.13382C12.4579 9.13382 12.7589 9.42139 12.7589 9.85758L12.6599 13.747C12.629 14.0723 12.3424 14.321 11.9999 14.3197C11.6574 14.321 11.3707 14.0723 11.3399 13.747Z" fill="#191919"/>
<path d="M11.9999 14.949C11.6354 14.949 11.3399 15.2308 11.3399 15.5784C11.3399 15.926 11.6354 16.2077 11.9999 16.2077C12.3644 16.2077 12.6599 15.926 12.6599 15.5784C12.6599 15.2308 12.3644 14.949 11.9999 14.949Z" fill="#191919"/>
</svg>
