<svg id="status-warning" xmlns="http://www.w3.org/2000/svg" viewBox="0 0 26 24" >
<g id="status-warning">
	<path fill="#191919" d="M10.7,3.1L1.3,18c-0.8,1.3-0.4,3,0.9,3.8c0.4,0.3,1,0.4,1.5,0.4h18.7c1.5,0,2.8-1.2,2.8-2.8
		c0-0.5-0.1-1-0.4-1.5L15.3,3.1c-0.8-1.3-2.5-1.7-3.8-0.9C11.2,2.5,10.9,2.8,10.7,3.1L10.7,3.1z"/>
	<path fill="#DCD400" d="M13.7,3.5c0.2,0.1,0.3,0.2,0.4,0.4l9.4,14.8c0.4,0.6,0.2,1.4-0.4,1.7c-0.2,0.1-0.4,0.2-0.7,0.2H3.6
		c-0.7,0-1.2-0.6-1.2-1.2c0-0.2,0.1-0.5,0.2-0.7l9.4-14.8c0.3-0.5,1-0.7,1.6-0.5C13.6,3.5,13.7,3.5,13.7,3.5z"/>
	<path fill="#191919" d="M12,14.8l-0.1-6.2c0-0.7,0.5-1.1,1.1-1.1s1.1,0.5,1.1,1.1L14,14.8c-0.1,0.5-0.5,0.9-1,0.9
		C12.5,15.7,12.1,15.3,12,14.8z M13,16.7c-0.6,0-1,0.5-1,1c0,0.6,0.4,1,1,1s1-0.5,1-1S13.6,16.7,13,16.7z"/>
</g>
</svg>
