<svg xmlns="http://www.w3.org/2000/svg" viewBox="0 0 24 24">
  <g id="Page-1" fill="none" fill-rule="evenodd" stroke="none" stroke-width="1">
    <g id="status-error">
      <path id="Rectangle" d="M0 0h24v24H0z"/>
      <path id="Outer" fill="#FFF" fill-rule="nonzero" d="M15.728 1H8.272a2 2 0 0 0-1.414.586L1.586 6.858A2 2 0 0 0 1 8.272v7.456a2 2 0 0 0 .586 1.414l5.272 5.272A2 2 0 0 0 8.272 23h7.456a2 2 0 0 0 1.414-.586l5.272-5.272A2 2 0 0 0 23 15.728V8.272a2 2 0 0 0-.586-1.414l-5.272-5.272A2 2 0 0 0 15.728 1Z"/>
      <path id="Inner" fill="#ce3f51" d="m16.228 2.793 4.98 4.98a1 1 0 0 1 .292.706v7.042a1 1 0 0 1-.293.707l-4.98 4.98a1 1 0 0 1-.706.292H8.479a1 1 0 0 1-.707-.293l-4.98-4.98a1 1 0 0 1-.292-.706V8.479a1 1 0 0 1 .293-.707l4.98-4.98a1 1 0 0 1 .706-.292h7.042a1 1 0 0 1 .707.293Z"/>
      <path id="Cross" fill="#FFF" fill-rule="nonzero" d="M16.737 7.263c.35.35.35.917 0 1.267L13.267 12l3.47 3.47a.896.896 0 1 1-1.267 1.267L12 13.267l-3.47 3.47a.896.896 0 1 1-1.267-1.267l3.47-3.47-3.47-3.47A.896.896 0 1 1 8.53 7.263l3.47 3.47 3.47-3.47a.896.896 0 0 1 1.267 0Z"/>
    </g>
  </g>
</svg>
