<svg id="status-warning-red-outline" viewBox="0 0 24 24" xmlns="http://www.w3.org/2000/svg">
    <path fill="#CE3F51" d="M10.2735 5.70764L3.31548 16.2132C3.10939 16.5244 3 16.8849 3 17.253C3 18.3283 3.91415 19.2 5.04182 19.2H18.9579C19.3438 19.2 19.7219 19.0957 20.0482 18.8992C21.0016 18.325 21.2864 17.1224 20.6842 16.2132L13.7262 5.70764C13.5641 5.46291 13.3468 5.25571 13.0902 5.10114C12.1367 4.52692 10.8757 4.79846 10.2735 5.70764Z"/>
    <path fill="white" d="M12.4955 5.99917C12.6121 6.06943 12.7109 6.1636 12.7846 6.27485L19.7426 16.7805C20.0163 17.1937 19.8869 17.7403 19.4535 18.0013C19.3052 18.0907 19.1333 18.1381 18.9579 18.1381H5.04184C4.52926 18.1381 4.11374 17.7418 4.11374 17.2531C4.11374 17.0858 4.16346 16.9219 4.25714 16.7805L11.2152 6.27485C11.4706 5.88914 11.987 5.7559 12.4071 5.95206L12.4955 5.99917Z"/>
    <path fill="#CE3F51" d="M11.2574 13.9656L11.1461 9.58998C11.1461 9.09927 11.4847 8.77576 11.9999 8.77576C12.5151 8.77576 12.8538 9.09927 12.8538 9.58998L12.7424 13.9656C12.7077 14.3315 12.3852 14.6113 11.9999 14.6099C11.6146 14.6113 11.2921 14.3315 11.2574 13.9656Z"/>
    <path fill="#CE3F51" d="M11.9999 15.3176C11.5898 15.3176 11.2574 15.6346 11.2574 16.0256C11.2574 16.4167 11.5898 16.7337 11.9999 16.7337C12.4099 16.7337 12.7423 16.4167 12.7423 16.0256C12.7423 15.6346 12.4099 15.3176 11.9999 15.3176Z"/>
</svg>
