<svg id="status-warning-red-solid" viewBox="0 0 24 24" xmlns="http://www.w3.org/2000/svg">
    <path fill="white" d="M10.2735 5.70765L3.31548 16.2133C3.10939 16.5244 3 16.8849 3 17.253C3 18.3283 3.91416 19.2 5.04182 19.2H18.9579C19.3439 19.2 19.7219 19.0957 20.0482 18.8992C21.0017 18.325 21.2864 17.1224 20.6843 16.2133L13.7262 5.70765C13.5641 5.46291 13.3468 5.25571 13.0902 5.10114C12.1368 4.52692 10.8757 4.79846 10.2735 5.70765Z"/>
    <path fill="#CE3F51" d="M12.4955 5.99892C12.6122 6.06918 12.7109 6.16336 12.7846 6.2746L19.7427 16.7802C20.0164 17.1935 19.8869 17.7401 19.4536 18.0011C19.3052 18.0904 19.1334 18.1379 18.958 18.1379H5.04187C4.52929 18.1379 4.11377 17.7416 4.11377 17.2528C4.11377 17.0855 4.16349 16.9217 4.25717 16.7802L11.2152 6.2746C11.4707 5.88889 11.987 5.75566 12.4071 5.95182L12.4955 5.99892Z"/>
    <path fill="white" d="M11.2574 13.9654L11.146 9.58986C11.146 9.09915 11.4847 8.77563 11.9999 8.77563C12.5151 8.77563 12.8537 9.09915 12.8537 9.58986L12.7424 13.9654C12.7077 14.3314 12.3852 14.6112 11.9999 14.6097C11.6146 14.6112 11.2921 14.3314 11.2574 13.9654Z"/>
    <path fill="white" d="M11.9999 15.3177C11.5898 15.3177 11.2574 15.6347 11.2574 16.0258C11.2574 16.4168 11.5898 16.7338 11.9999 16.7338C12.4099 16.7338 12.7423 16.4168 12.7423 16.0258C12.7423 15.6347 12.4099 15.3177 11.9999 15.3177Z"/>
</svg>
