<svg id="status-info-negative" width="24" height="24" viewBox="0 0 24 24" fill="none" xmlns="http://www.w3.org/2000/svg">
<path fill-rule="evenodd" clip-rule="evenodd" d="M16.4545 5C17.8604 5 19 6.13964 19 7.54545V16.4545C19 17.8604 17.8604 19 16.4545 19H7.54545C6.13964 19 5 17.8604 5 16.4545V7.54545C5 6.13964 6.13964 5 7.54545 5H16.4545Z" fill="#2B5780"/>
<path fill-rule="evenodd" clip-rule="evenodd" d="M7.7682 5.95453H16.2318C17.2335 5.95453 18.0455 6.76652 18.0455 7.76817V16.2318C18.0455 17.2334 17.2335 18.0454 16.2318 18.0454H7.7682C6.76655 18.0454 5.95456 17.2334 5.95456 16.2318V7.76817C5.95456 6.76652 6.76655 5.95453 7.7682 5.95453Z" fill="white"/>
<path d="M13.0788 15.7877C13.0788 16.2378 12.7139 16.6027 12.2637 16.6027C11.8136 16.6027 11.4486 16.2378 11.4486 15.7877L11.4486 11.7119L10.9692 11.7123C10.6526 11.7123 10.3933 11.4668 10.3714 11.1558L10.3699 11.113C10.3699 10.782 10.6382 10.5137 10.9692 10.5137H12.4795C12.8104 10.5137 13.0788 10.782 13.0788 11.113V15.7877Z" fill="#2B5780"/>
<circle cx="12.048" cy="8.49998" r="1.05479" fill="#2B5780"/>
</svg>
