<svg id="status-success" xmlns="http://www.w3.org/2000/svg" width="24" height="24" viewBox="0 0 24 24" fill="none">
    <path d="M12 4C7.58172 4 4 7.58172 4 12C4 16.4183 7.58172 20 12 20C16.4183 20 20 16.4183 20 12C20 9.87827 19.1571 7.84344 17.6569 6.34315C16.1566 4.84285 14.1217 4 12 4Z" fill="white"/>
    <path d="M12 5C15.866 5 19 8.13401 19 12C19 15.866 15.866 19 12 19C8.13401 19 5 15.866 5 12C5 8.13401 8.13401 5 12 5" fill="#39870C"/>
    <path d="M14.582 9.25805C14.8077 8.96712 15.2264 8.9142 15.5174 9.13985C15.8083 9.36551 15.8612 9.78429 15.6356 10.0752L11.3099 15.6523L8.3733 12.427C8.12568 12.1546 8.14585 11.7329 8.41834 11.4853C8.69083 11.2377 9.11245 11.2579 9.36007 11.5304L11.2287 13.5806L14.582 9.25805Z" fill="white"/>
</svg>