<svg id="status-info-outline" viewBox="0 0 24 24" xmlns="http://www.w3.org/2000/svg">
    <path fill="#2B5780" fill-rule="evenodd" clip-rule="evenodd" d="M17.7273 3C19.5347 3 21 4.46525 21 6.27273V17.7273C21 19.5347 19.5347 21 17.7273 21H6.27273C4.46525 21 3 19.5347 3 17.7273V6.27273C3 4.46525 4.46525 3 6.27273 3H17.7273Z"/>
    <path fill="white" fill-rule="evenodd" clip-rule="evenodd" d="M6.55917 4.22717H17.441C18.7288 4.22717 19.7728 5.27116 19.7728 6.55899V17.4408C19.7728 18.7286 18.7288 19.7726 17.441 19.7726H6.55917C5.27135 19.7726 4.22736 18.7286 4.22736 17.4408V6.55899C4.22736 5.27116 5.27135 4.22717 6.55917 4.22717Z"/>
    <path fill="#2B5780" d="M13.387 16.8698C13.387 17.4486 12.9178 17.9178 12.339 17.9178C11.7603 17.9178 11.2911 17.4486 11.2911 16.8698L11.291 11.6295L10.6747 11.6301C10.2676 11.6301 9.93426 11.3144 9.90605 10.9146L9.90411 10.8595C9.90411 10.434 10.2491 10.089 10.6747 10.089H12.6164C13.042 10.089 13.387 10.434 13.387 10.8595V16.8698Z"/>
    <circle fill="#2B5780" cx="12.0617" cy="7.50009" r="1.35616"/>
</svg>
