<svg id="status-error" viewBox="0 0 24 24" xmlns="http://www.w3.org/2000/svg">
    <path fill="white" d="M15.0501 3H8.94988C8.51589 3 8.09968 3.1724 7.7928 3.47928L3.47928 7.7928C3.1724 8.09968 3 8.51589 3 8.94988V15.0501C3 15.4841 3.1724 15.9003 3.47928 16.2072L7.7928 20.5207C8.09968 20.8276 8.51589 21 8.94988 21H15.0501C15.4841 21 15.9003 20.8276 16.2072 20.5207L20.5207 16.2072C20.8276 15.9003 21 15.4841 21 15.0501V8.94988C21 8.51589 20.8276 8.09968 20.5207 7.7928L16.2072 3.47928C15.9003 3.1724 15.4841 3 15.0501 3Z"/>
    <path fill="#CE3F51" fill-rule="evenodd" clip-rule="evenodd" d="M14.7676 4.22705C15.057 4.22705 15.3344 4.34199 15.539 4.54657L19.4532 8.46069C19.6577 8.66527 19.7727 8.94275 19.7727 9.23208V14.7675C19.7727 15.0568 19.6577 15.3343 19.4532 15.5389L15.539 19.453C15.3345 19.6576 15.057 19.7725 14.7676 19.7725H9.23225C8.94292 19.7725 8.66544 19.6576 8.46086 19.453L4.54674 15.5389C4.34215 15.3343 4.22722 15.0568 4.22722 14.7675L4.22722 9.23208C4.22722 8.94275 4.34215 8.66527 4.54674 8.46069L8.46086 4.54657C8.66544 4.34199 8.94292 4.22705 9.23225 4.22705L14.7676 4.22705Z"/>
    <path fill="white" d="M15.8761 8.12388C16.1625 8.41031 16.1625 8.8747 15.8761 9.16112L13.037 12L15.8761 14.8388C16.1625 15.1252 16.1625 15.5896 15.8761 15.8761C15.5897 16.1625 15.1253 16.1625 14.8389 15.8761L12 13.0369L9.16118 15.8761C8.87476 16.1625 8.41037 16.1625 8.12394 15.8761C7.83751 15.5896 7.83751 15.1252 8.12394 14.8388L10.9628 12L8.12394 9.16112C7.83751 8.8747 7.83751 8.41031 8.12394 8.12388C8.41037 7.83745 8.87476 7.83745 9.16118 8.12388L12 10.9627L14.8389 8.12388C15.1253 7.83745 15.5897 7.83745 15.8761 8.12388Z"/>
</svg>
