<svg id="status-forbidden" width="24" height="24" viewBox="0 0 24 24" fill="none" xmlns="http://www.w3.org/2000/svg">
<path fill-rule="evenodd" clip-rule="evenodd" d="M12 4.66666C7.94992 4.66666 4.66668 7.9499 4.66668 12C4.66668 16.0501 7.94992 19.3333 12 19.3333C16.0501 19.3333 19.3333 16.0501 19.3333 12C19.3333 10.0551 18.5607 8.18981 17.1855 6.81454C15.8102 5.43927 13.9449 4.66666 12 4.66666ZM17.5 12C17.5005 13.1405 17.1438 14.2526 16.48 15.18L8.82001 7.52C10.4956 6.33423 12.6924 6.18155 14.5159 7.12414C16.3393 8.06673 17.4852 9.94732 17.4867 12H17.5ZM7.52 8.82C6.85622 9.74745 6.49953 10.8595 6.5 12C6.49797 14.0573 7.64567 15.9433 9.47385 16.8869C11.302 17.8305 13.5042 17.6734 15.18 16.48L7.52 8.82Z" fill="#CE3F51"/>
<path fill-rule="evenodd" clip-rule="evenodd" d="M4 12C4 7.58172 7.58172 4 12 4C14.1217 4 16.1566 4.84285 17.6569 6.34315C19.1571 7.84344 20 9.87827 20 12C20 16.4183 16.4183 20 12 20C7.58172 20 4 16.4183 4 12ZM19.3333 12C19.3333 7.9499 16.0501 4.66666 12 4.66666C7.94993 4.66666 4.66668 7.9499 4.66668 12C4.66668 16.0501 7.94993 19.3333 12 19.3333C16.0501 19.3333 19.3333 16.0501 19.3333 12ZM15.8867 8.1133C17.7821 10.0087 18.0328 12.9952 16.48 15.18L8.81999 7.52001C11.0048 5.96721 13.9913 6.21794 15.8867 8.1133ZM12 17.5C13.1405 17.5005 14.2525 17.1438 15.18 16.48L7.51999 8.82C6.33422 10.4955 6.18154 12.6924 7.12413 14.5159C8.06672 16.3393 9.94731 17.4852 12 17.4867V17.5ZM9.89334 7.65333C10.5493 7.33256 11.2699 7.16609 12 7.16666C14.6679 7.17033 16.8297 9.33214 16.8333 12C16.8339 12.7301 16.6674 13.4507 16.3467 14.1067L9.89334 7.65333ZM7.16668 12C7.17036 14.6679 9.33216 16.8297 12 16.8333C12.7302 16.8339 13.4508 16.6674 14.1067 16.3467L7.65335 9.89333C7.33258 10.5492 7.16611 11.2699 7.16668 12Z" fill="white"/>
</svg>
