<svg id="status-forbidden" viewBox="0 0 24 24" xmlns="http://www.w3.org/2000/svg">
    <path fill="#CE3F51" fill-rule="evenodd" clip-rule="evenodd" d="M12.0001 3.75C7.44371 3.75 3.75006 7.44365 3.75006 12C3.75006 16.5563 7.44371 20.25 12.0001 20.25C16.5564 20.25 20.2501 16.5563 20.2501 12C20.2501 9.81196 19.3809 7.71354 17.8337 6.16637C16.2865 4.61919 14.1881 3.75 12.0001 3.75ZM18.1876 12.0001C18.1881 13.2831 17.7868 14.5342 17.0401 15.5776L8.42258 6.96006C10.3076 5.62606 12.779 5.45429 14.8304 6.51471C16.8818 7.57512 18.1709 9.69079 18.1726 12.0001H18.1876ZM6.96 8.4223C6.21325 9.46569 5.81197 10.7167 5.8125 11.9998C5.81022 14.3143 7.10138 16.4361 9.15809 17.4976C11.2148 18.5591 13.6922 18.3824 15.5775 17.0398L6.96 8.4223Z"/>
    <path fill="white" fill-rule="evenodd" clip-rule="evenodd" d="M3 12C3 7.02944 7.02944 3 12 3C14.3869 3 16.6761 3.94821 18.364 5.63604C20.0518 7.32387 21 9.61305 21 12C21 16.9706 16.9706 21 12 21C7.02944 21 3 16.9706 3 12ZM20.2501 12C20.2501 7.4436 16.5564 3.74995 12.0001 3.74995C7.44371 3.74995 3.75006 7.4436 3.75006 12C3.75006 16.5563 7.44371 20.25 12.0001 20.25C16.5564 20.25 20.2501 16.5563 20.2501 12ZM16.3726 7.62761C18.5048 9.75989 18.7869 13.1197 17.04 15.5777L8.42251 6.96017C10.8805 5.21326 14.2403 5.49533 16.3726 7.62761ZM12 18.1873C13.2831 18.1878 14.5341 17.7866 15.5775 17.0398L6.95999 8.4223C5.62599 10.3073 5.45422 12.7788 6.51464 14.8302C7.57505 16.8816 9.69072 18.1706 12 18.1723V18.1873ZM9.62997 7.10996C10.3679 6.74909 11.1786 6.56181 12 6.56246C15.0013 6.56659 17.4333 8.99862 17.4375 12C17.4381 12.8214 17.2508 13.6321 16.89 14.37L9.62997 7.10996ZM6.56256 12.0001C6.56669 15.0014 8.99872 17.4335 12.0001 17.4376C12.8215 17.4383 13.6322 17.251 14.3701 16.8901L7.11006 9.63011C6.74919 10.368 6.56191 11.1787 6.56256 12.0001Z"/>
</svg>
