<svg id="status-info-solid" viewBox="0 0 24 24" xmlns="http://www.w3.org/2000/svg">
    <path fill="white" fill-rule="evenodd" clip-rule="evenodd" d="M17.7273 3C19.5347 3 21 4.46525 21 6.27273V17.7273C21 19.5347 19.5347 21 17.7273 21H6.27273C4.46525 21 3 19.5347 3 17.7273V6.27273C3 4.46525 4.46525 3 6.27273 3H17.7273Z"/>
    <path fill="#2B5780" fill-rule="evenodd" clip-rule="evenodd" d="M6.55908 4.22729H17.4409C18.7287 4.22729 19.7727 5.27129 19.7727 6.55911V17.4409C19.7727 18.7288 18.7287 19.7727 17.4409 19.7727H6.55908C5.27125 19.7727 4.22726 18.7288 4.22726 17.4409V6.55911C4.22726 5.27129 5.27125 4.22729 6.55908 4.22729Z"/>
    <path fill="white" d="M13.387 16.8698C13.387 17.4486 12.9178 17.9178 12.339 17.9178C11.7603 17.9178 11.2911 17.4486 11.2911 16.8698L11.291 11.6295L10.6747 11.6301C10.2676 11.6301 9.93426 11.3144 9.90605 10.9146L9.90411 10.8595C9.90411 10.434 10.2491 10.089 10.6747 10.089H12.6164C13.042 10.089 13.387 10.434 13.387 10.8595V16.8698Z"/>
    <ellipse fill="white" cx="12.0616" cy="7.50008" rx="1.35616" ry="1.35616"/>
</svg>
