<svg id="table-outline" viewBox="0 0 24 24" xmlns="http://www.w3.org/2000/svg">
    <path fill="currentColor" d="M16.6667 5H7.33333C6.71449 5 6.121 5.24583 5.68342 5.68342C5.24583 6.121 5 6.71449 5 7.33333L5 16.6667C5 17.2855 5.24583 17.879 5.68342 18.3166C6.121 18.7542 6.71449 19 7.33333 19H16.6667C17.2855 19 17.879 18.7542 18.3166 18.3166C18.7542 17.879 19 17.2855 19 16.6667V7.33333C19 6.71449 18.7542 6.121 18.3166 5.68342C17.879 5.24583 17.2855 5 16.6667 5ZM6.16667 16.6667V9.66667H9.08333V17.8333H7.33333C7.02391 17.8333 6.72717 17.7104 6.50838 17.4916C6.28958 17.2728 6.16667 16.9761 6.16667 16.6667ZM10.25 17.8333V9.66667H13.75V17.8333H10.25ZM16.6667 17.8333H14.9167V9.66667H17.8333V16.6667C17.8333 16.9761 17.7104 17.2728 17.4916 17.4916C17.2728 17.7104 16.9761 17.8333 16.6667 17.8333ZM6.16667 8.5V7.33333C6.16667 7.02391 6.28958 6.72717 6.50838 6.50838C6.72717 6.28958 7.02391 6.16667 7.33333 6.16667H16.6667C16.9761 6.16667 17.2728 6.28958 17.4916 6.50838C17.7104 6.72717 17.8333 7.02391 17.8333 7.33333V8.5H6.16667Z"/>
</svg>
