<svg id="times" width="24" height="24" viewBox="0 0 24 24" fill="none" xmlns="http://www.w3.org/2000/svg">
<path d="M16.405 5.47704L11.9915 9.89056L7.54206 5.44116C6.9572 4.8563 6.01277 4.85247 5.43262 5.43262C4.85247 6.01277 4.8563 6.9572 5.44116 7.54206L9.89056 11.9915L5.47704 16.405C4.8969 16.9851 4.90072 17.9296 5.48558 18.5144C6.07045 19.0993 7.01488 19.1031 7.59502 18.523L12.0085 14.1094L16.4579 18.5588C17.0428 19.1437 17.9872 19.1475 18.5674 18.5674C19.1475 17.9872 19.1437 17.0428 18.5588 16.4579L14.1094 12.0085L18.523 7.59502C19.1031 7.01488 19.0993 6.07045 18.5144 5.48558C17.9296 4.90072 16.9851 4.8969 16.405 5.47704Z" fill="currentColor"/>
</svg>
