<svg id="to-do-list" viewBox="0 0 24 24" xmlns="http://www.w3.org/2000/svg">
    <path fill="currentColor" d="M17.222 4C17.8733 4 18.4017 4.52843 18.4017 5.17969V18.8232C18.4017 19.4745 17.8733 20.0029 17.222 20.0029H6.77966C6.1284 20.0029 5.59998 19.4745 5.59998 18.8232V5.17969C5.59998 4.52843 6.1284 4 6.77966 4H17.222ZM7.00623 18.5967H16.9955V5.40625H7.00623V18.5967ZM10.9701 14.5439C11.1649 14.3477 11.4828 14.3462 11.6791 14.541C11.8752 14.7359 11.8758 15.0528 11.681 15.249L9.66736 17.2793L9.31384 17.6348L8.95837 17.2812L7.95642 16.2832C7.76055 16.088 7.76032 15.7711 7.95544 15.5752C8.1506 15.3793 8.4675 15.3782 8.66345 15.5732L9.30896 16.2168L10.9701 14.5439ZM15.4828 15.29C15.8836 15.29 16.2084 15.6148 16.2084 16.0156C16.2082 16.4162 15.8834 16.7412 15.4828 16.7412H12.932C12.5315 16.741 12.2066 16.4161 12.2064 16.0156C12.2064 15.615 12.5314 15.2902 12.932 15.29H15.4828ZM10.9623 10.5303C11.1571 10.334 11.475 10.3326 11.6713 10.5273C11.8674 10.7222 11.868 11.0391 11.6732 11.2354L9.65955 13.2656L9.30603 13.6211L8.95056 13.2676L7.94861 12.2695C7.75284 12.0744 7.75274 11.7575 7.94763 11.5615C8.14277 11.3656 8.45969 11.3645 8.65564 11.5596L9.30115 12.2031L10.9623 10.5303ZM15.4769 11.2754C15.8771 11.2759 16.2023 11.6007 16.2025 12.001C16.2025 12.4014 15.8773 12.7261 15.4769 12.7266H12.9291C12.5283 12.7266 12.2035 12.4018 12.2035 12.001C12.2037 11.6004 12.5284 11.2754 12.9291 11.2754H15.4769ZM10.9779 6.5166C11.1727 6.3203 11.4906 6.31883 11.6869 6.51367C11.8828 6.70854 11.8835 7.02551 11.6888 7.22168L9.67517 9.25195L9.32166 9.60742L8.96619 9.25391L7.96423 8.25586C7.76834 8.0607 7.76818 7.7438 7.96326 7.54785C8.15842 7.35195 8.47532 7.3508 8.67126 7.5459L9.31677 8.18945L10.9779 6.5166ZM15.4906 7.26172C15.8913 7.26172 16.2161 7.58662 16.2162 7.9873C16.2162 8.38808 15.8914 8.71289 15.4906 8.71289H12.9398C12.5391 8.71283 12.2142 8.38804 12.2142 7.9873C12.2143 7.58667 12.5392 7.26178 12.9398 7.26172H15.4906Z"/>
</svg>
