<svg id="trash" viewBox="0 0 24 24" xmlns="http://www.w3.org/2000/svg">
    <path fill="currentColor" d="M16.1393 8.37598C16.6252 8.37598 17.0191 8.72378 17.0192 9.15332V18.2236C17.0187 18.6407 16.646 18.9833 16.1744 19H7.84338C7.35764 19 6.96376 18.652 6.9635 18.2227V9.15332C6.96352 8.72378 7.35749 8.37598 7.84338 8.37598H16.1393ZM9.19788 9.71289C8.89184 9.7129 8.64332 9.93261 8.64319 10.2031V17.3359C8.64342 17.6064 8.8919 17.8252 9.19788 17.8252C9.50386 17.8252 9.75233 17.6064 9.75256 17.3359V10.2031C9.75243 9.93261 9.50391 9.71289 9.19788 9.71289ZM12.0485 9.71289C11.7424 9.71291 11.4939 9.93262 11.4938 10.2031V17.3359C11.494 17.6064 11.7425 17.8252 12.0485 17.8252C12.3544 17.8252 12.6029 17.6064 12.6031 17.3359V10.2031C12.603 9.93261 12.3545 9.71289 12.0485 9.71289ZM14.899 9.71289C14.593 9.7129 14.3445 9.93261 14.3444 10.2031V17.3359C14.3445 17.4658 14.4036 17.5898 14.5074 17.6816C14.6114 17.7735 14.752 17.8252 14.899 17.8252C15.205 17.8252 15.4535 17.6064 15.4537 17.3359V10.2031C15.4536 9.93261 15.2051 9.71289 14.899 9.71289ZM13.4733 5C13.8574 5.01961 14.1579 5.29237 14.1774 5.625V5.74707H17.0367C17.1316 5.74497 17.2237 5.77639 17.2916 5.83496C17.3595 5.89349 17.3981 5.97382 17.3981 6.05762L17.6002 7.11523C17.598 7.19905 17.5573 7.27883 17.4879 7.33594C17.4183 7.39306 17.3249 7.42317 17.2301 7.41895H6.76917C6.67446 7.42307 6.58182 7.39298 6.51233 7.33594C6.44283 7.27883 6.40228 7.1991 6.40002 7.11523L6.63733 6.08887C6.63964 6.00429 6.68033 5.92358 6.74963 5.86523C6.8189 5.80706 6.91192 5.77526 7.00745 5.77734H9.90198V5.625C9.92149 5.29249 10.2212 5.01978 10.6051 5H13.4733Z"/>
</svg>
