<svg id="trash" width="24" height="24" viewBox="0 0 24 24" fill="none" xmlns="http://www.w3.org/2000/svg">
<path fill-rule="evenodd" clip-rule="evenodd" d="M18.0474 4.95428C18.125 5.02122 18.1688 5.11303 18.1687 5.20889L18.4 6.41778C18.3974 6.51369 18.3511 6.60461 18.2716 6.66989C18.1921 6.73517 18.0861 6.76927 17.9777 6.76444H6.02232C5.91393 6.76927 5.80794 6.73517 5.72842 6.66989C5.64889 6.60461 5.60258 6.51369 5.60001 6.41778L5.87149 5.24444C5.87413 5.14778 5.92011 5.056 5.99931 4.98931C6.07852 4.92263 6.18445 4.8865 6.2938 4.88889H9.60189V4.79111C9.57904 4.37695 9.93802 4.0239 10.4063 4H13.6842C14.1525 4.0239 14.5115 4.37695 14.4886 4.79111V4.85333H17.7565C17.8649 4.85094 17.9698 4.88734 18.0474 4.95428ZM17.7364 19.1126V19.1111V8.74669C17.7364 8.25577 17.2862 7.8578 16.7309 7.8578H7.24907C6.69375 7.8578 6.24357 8.25577 6.24357 8.74669V19.1111C6.24357 19.6021 6.69375 20 7.24907 20H16.7711C17.3102 19.981 17.736 19.5893 17.7364 19.1126ZM15.3132 18.6578C15.1452 18.6578 14.9841 18.5988 14.8653 18.4938C14.7465 18.3888 14.6798 18.2463 14.6798 18.0978V9.94668C14.6798 9.6374 14.9634 9.38668 15.3132 9.38668C15.6631 9.38668 15.9467 9.6374 15.9467 9.94668V18.0978C15.9467 18.4071 15.6631 18.6578 15.3132 18.6578ZM8.16414 18.0978C8.16414 18.4071 8.44775 18.6578 8.79761 18.6578C9.14746 18.6578 9.43107 18.4071 9.43107 18.0978V9.94668C9.43107 9.6374 9.14746 9.38668 8.79761 9.38668C8.44775 9.38668 8.16414 9.6374 8.16414 9.94668V18.0978ZM12.0554 18.6578C11.7056 18.6578 11.422 18.4071 11.422 18.0978V9.94668C11.422 9.6374 11.7056 9.38668 12.0554 9.38668C12.4053 9.38668 12.6889 9.6374 12.6889 9.94668V18.0978C12.6889 18.4071 12.4053 18.6578 12.0554 18.6578Z" fill="currentColor"/>
</svg>
