<svg id="undo" width="24" height="24" viewBox="0 0 24 24" fill="none" xmlns="http://www.w3.org/2000/svg">
<path d="M11.7314 4.00098C9.53639 3.9911 7.42565 4.84527 5.85535 6.37887L4.53906 5.06267C4.2409 4.76452 4.00091 4.86633 4.00091 5.28082V9.46213C3.99094 9.66121 4.06314 9.85565 4.20062 9.99999C4.33809 10.1443 4.5288 10.2259 4.72814 10.2257H8.93881C9.36061 10.2257 9.46242 9.97843 9.16425 9.68755L7.13528 7.6369C8.35764 6.42558 10.0104 5.74829 11.7314 5.75349C13.4126 5.72824 15.0349 6.37243 16.2408 7.54412C17.4466 8.71582 18.1371 10.3189 18.1601 12C18.1003 15.4925 15.2242 18.2773 11.7314 18.2247C9.14019 18.2514 6.78744 16.7165 5.76808 14.3343C5.57091 13.8728 5.0413 13.6532 4.57542 13.8398C4.35172 13.9241 4.17154 14.0952 4.07571 14.3143C3.97988 14.5333 3.97651 14.7817 4.06636 15.0033C5.37859 18.063 8.4021 20.0336 11.7314 19.999C16.2216 20.0679 19.9203 16.4897 20 12C19.9203 7.51029 16.2216 3.93211 11.7314 4.00098Z" fill="currentColor"/>
</svg>
