<svg xmlns="http://www.w3.org/2000/svg" width="24" height="24" viewBox="0 0 24 24">
  <path fill="currentColor" d="M12.2482 4.50092C10.1904 4.49166 8.21155 5.29244 6.73939 6.73019L5.50537 5.49625C5.22584 5.21674 5.00085 5.31218 5.00085 5.70077L5.00085 9.62075C4.99151 9.80738 5.05919 9.98967 5.18808 10.125C5.31696 10.2603 5.49575 10.3368 5.68263 10.3366H9.63014C10.0256 10.3366 10.121 10.1048 9.84149 9.83208L7.93932 7.90959C9.08529 6.77398 10.6348 6.13902 12.2482 6.1439C13.8243 6.12022 15.3452 6.72416 16.4757 7.82262C17.6062 8.92108 18.2536 10.4239 18.2751 12C18.2191 15.2742 15.5227 17.885 12.2482 17.8357C9.81893 17.8607 7.61322 16.4217 6.65758 14.1884C6.47273 13.7557 5.97622 13.5499 5.53946 13.7248C5.32974 13.8039 5.16082 13.9643 5.07098 14.1696C4.98113 14.375 4.97797 14.6079 5.06221 14.8156C6.29242 17.6841 9.12697 19.5315 12.2482 19.4991C16.4577 19.5636 19.9253 16.2091 20 12C19.9253 7.7909 16.4577 4.43636 12.2482 4.50092Z"/>
</svg>