<svg id="users" width="24" height="24" viewBox="0 0 24 24" fill="none" xmlns="http://www.w3.org/2000/svg">
<path fill-rule="evenodd" clip-rule="evenodd" d="M13.7808 7.01332C14.1711 6.51266 14.7498 6.22235 15.3606 6.22075H15.3869C16.5466 6.22075 17.4867 7.22248 17.4867 8.45817C17.4867 9.69386 16.5466 10.6956 15.3869 10.6956C14.7629 10.6935 14.173 10.3921 13.7808 9.87496C13.1492 11.3484 11.6393 12.1536 10.1539 11.8092C8.66843 11.4648 7.60902 10.064 7.60902 8.44414C7.60902 6.82431 8.66843 5.42344 10.1539 5.07907C11.6393 4.7347 13.1492 5.53992 13.7808 7.01332ZM18.0397 12.6665L18.9415 14.9951C19.106 15.4861 18.9283 16.0121 18.349 16.0051H15.7885L16.3217 17.4079C16.5718 18.1583 16.3019 19 15.4462 19H5.96091C5.09203 18.979 4.84189 18.1583 5.09203 17.4079L6.48092 13.8448C6.90507 13.0194 7.64069 12.427 8.50173 12.2176C9.73407 13.084 11.3018 13.2011 12.6355 12.5262C12.9313 12.0868 13.3621 11.7717 13.8532 11.6355C14.3029 11.9409 14.8275 12.0971 15.3606 12.0843C15.8776 12.084 16.3841 11.9284 16.8219 11.6355C17.3468 11.7794 17.7895 12.1542 18.0397 12.6665Z" fill="currentColor"/>
</svg>
