<svg id="user-solid" viewBox="0 0 24 24" xmlns="http://www.w3.org/2000/svg">
    <path fill="currentColor" d="M9.52383 12C11.0692 13.1509 13.0763 13.1763 14.6449 12.0654C15.5477 12.3234 16.3107 12.9977 16.7445 13.9199L18.2982 18.1299C18.5781 19.0195 18.284 19.9998 17.3266 20H6.65079C5.72259 20 5.42076 19.0196 5.70059 18.1299L7.25528 13.9199C7.72776 12.9433 8.55489 12.2428 9.52383 12ZM12.1283 4C14.1281 4 15.7493 5.65061 15.7494 7.65039C15.7494 9.65026 14.1282 11.3008 12.1283 11.3008C10.1285 11.3007 8.50723 9.65021 8.50723 7.65039C8.50734 5.65066 10.1286 4.00008 12.1283 4Z"/>
</svg>
