<svg id="users" viewBox="0 0 24 24" xmlns="http://www.w3.org/2000/svg">
    <path fill="currentColor" fill-rule="evenodd" clip-rule="evenodd" d="M16.8223 11.6356C17.347 11.7796 17.79 12.1538 18.0401 12.6659L18.9415 14.995C19.106 15.4859 18.928 16.0118 18.3487 16.0047H15.7882L16.3214 17.4081C16.5714 18.1585 16.3019 18.9998 15.4464 18.9999H5.96102C5.09229 18.9788 4.84196 18.1584 5.09188 17.4081L6.48055 13.8446C6.9047 13.0192 7.641 12.4271 8.50204 12.2176C9.73434 13.0839 11.3022 13.2011 12.6358 12.5262C12.9316 12.0869 13.3625 11.7718 13.8536 11.6356C14.3031 11.9408 14.8276 12.0965 15.3604 12.0838C15.8774 12.0835 16.3845 11.9285 16.8223 11.6356ZM10.1544 5.07896C11.6397 4.73482 13.1498 5.54027 13.7813 7.01353C14.1716 6.51294 14.7497 6.22224 15.3604 6.22056H15.3868C16.5464 6.22056 17.4863 7.22225 17.4864 8.45787C17.4864 9.69356 16.5465 10.6952 15.3868 10.6952C14.763 10.693 14.1735 10.3918 13.7813 9.87486C13.1498 11.3481 11.6397 12.1535 10.1544 11.8094C8.669 11.4651 7.60954 10.0639 7.60946 8.4442C7.60946 6.82437 8.66894 5.42334 10.1544 5.07896Z"/>
</svg>
