<svg id="user-outline" viewBox="0 0 24 24" xmlns="http://www.w3.org/2000/svg">
    <path fill="currentColor" d="M12.1275 12H12.2715C13.3119 11.9958 14.3086 11.5806 15.0443 10.8449C15.7801 10.1091 16.1953 9.11247 16.1995 8.072V7.928C16.1953 6.88753 15.7801 5.89087 15.0443 5.15514C14.3086 4.41941 13.3119 4.00421 12.2715 4H12.1275C11.087 4.00421 10.0903 4.41941 9.35461 5.15514C8.61887 5.89087 8.20368 6.88753 8.19947 7.928V8.072C8.20368 9.11247 8.61887 10.1091 9.35461 10.8449C10.0903 11.5806 11.087 11.9958 12.1275 12ZM9.79947 7.928C9.80158 7.31122 10.0475 6.72031 10.4837 6.28419C10.9198 5.84806 11.5107 5.60211 12.1275 5.6H12.2715C12.8882 5.60211 13.4792 5.84806 13.9153 6.28419C14.3514 6.72031 14.5974 7.31122 14.5995 7.928V8.072C14.5974 8.68878 14.3514 9.27969 13.9153 9.71582C13.4792 10.1519 12.8882 10.3979 12.2715 10.4H12.1275C11.5107 10.3979 10.9198 10.1519 10.4837 9.71582C10.0475 9.27969 9.80158 8.68878 9.79947 8.072V7.928ZM19.2875 18.184L17.5355 13.864C17.2839 13.4117 16.9404 13.0171 16.527 12.7057C16.1137 12.3943 15.6396 12.173 15.1355 12.056C14.27 12.5803 13.2754 12.8529 12.2635 12.843C11.2516 12.8331 10.2625 12.5412 9.40747 12C8.87601 12.1139 8.37462 12.3388 7.93619 12.66C7.49776 12.9813 7.13219 13.3916 6.86347 13.864L5.11147 18.184C4.79947 19.048 5.13547 20 6.20747 20H18.2075C19.2635 20 19.5995 19.048 19.2875 18.184ZM6.75947 18.4L8.35947 14.504C8.58016 14.1539 8.91289 13.8888 9.30347 13.752C10.2606 14.2171 11.3113 14.4579 12.3755 14.456C13.3833 14.4537 14.379 14.2354 15.2955 13.816C15.6274 13.9483 15.9079 14.1839 16.0955 14.488L17.6955 18.4H6.75947Z"/>
</svg>
