<svg id="user" width="24" height="24" viewBox="0 0 24 24" fill="none" xmlns="http://www.w3.org/2000/svg">
<path fill-rule="evenodd" clip-rule="evenodd" d="M12.1286 4C10.1287 4 8.50743 5.65069 8.50743 7.6506C8.50743 9.65052 10.1287 11.3012 12.1286 11.3012C14.1285 11.3012 15.7498 9.65052 15.7498 7.6506C15.7498 5.65069 14.1285 4 12.1286 4ZM16.7444 13.9197L18.2989 18.1298C18.5789 19.0196 18.2842 20 17.3264 20H6.65081C5.7225 20 5.42042 19.0196 5.70039 18.1298L7.25495 13.9197C7.72748 12.9429 8.55508 12.2428 9.52416 12C11.0695 13.151 13.076 13.1768 14.6446 12.0659C15.5476 12.3238 16.3105 12.9974 16.7444 13.9197Z" fill="currentColor"/>
</svg>
