<svg id="users" viewBox="0 0 24 24" xmlns="http://www.w3.org/2000/svg">
    <path fill="currentColor" d="M16.8223 11.6357C17.3469 11.7797 17.7899 12.154 18.04 12.666L18.9414 14.9951C19.106 15.4861 18.9279 16.0119 18.3486 16.0049H15.7881L16.3213 17.4082C16.5713 18.1586 16.3019 18.9999 15.4463 19H5.96094C5.0922 18.979 4.84188 18.1586 5.0918 17.4082L6.48047 13.8447C6.90462 13.0193 7.64092 12.4272 8.50195 12.2178C9.73426 13.0841 11.3021 13.2012 12.6357 12.5264C12.9315 12.087 13.3624 11.772 13.8535 11.6357C14.303 11.9409 14.8275 12.0967 15.3604 12.084C15.8774 12.0836 16.3844 11.9287 16.8223 11.6357ZM10.1543 5.0791C11.6396 4.73496 13.1497 5.54041 13.7812 7.01367C14.1715 6.51308 14.7496 6.22237 15.3604 6.2207H15.3867C16.5464 6.2207 17.4862 7.22239 17.4863 8.45801C17.4863 9.6937 16.5464 10.6953 15.3867 10.6953C14.7629 10.6932 14.1734 10.3919 13.7812 9.875C13.1497 11.3482 11.6396 12.1537 10.1543 11.8096C8.66892 11.4652 7.60946 10.0641 7.60938 8.44434C7.60938 6.82451 8.66886 5.42348 10.1543 5.0791Z"/>
</svg>
