<svg id="water" width="24" height="24" viewBox="0 0 24 24" fill="none" xmlns="http://www.w3.org/2000/svg">
<path fill-rule="evenodd" clip-rule="evenodd" d="M12.4395 20C15.7248 20 18.3911 17.608 18.3911 14.664C18.3911 12.4791 16.2553 9.70185 14.5848 7.52975C14.3531 7.22846 14.1303 6.93881 13.9235 6.664C13.2822 5.86749 12.7804 4.96658 12.4395 4C12.0975 4.96772 11.5929 5.86887 10.9477 6.664C10.7446 6.93381 10.5263 7.21792 10.2993 7.51331C8.62842 9.68782 6.48792 12.4736 6.48792 14.664C6.48792 17.6 9.15424 20 12.4395 20ZM9.2257 12.312C9.0492 13.5225 9.51622 14.7375 10.4557 15.512H10.4874C11.6698 16.584 13.2252 16.848 14.1933 16.216C13.5645 17.2808 12.3825 17.884 11.159 17.7642C9.9355 17.6444 8.89062 16.8232 8.47685 15.6563C8.06307 14.4894 8.35481 13.1866 9.2257 12.312Z" fill="currentColor"/>
</svg>
