<svg id="water" viewBox="0 0 24 24" xmlns="http://www.w3.org/2000/svg">
    <path fill="currentColor" fill-rule="evenodd" clip-rule="evenodd" d="M11.9516 20C15.2369 20 17.9032 17.608 17.9032 14.664C17.9032 12.4791 15.7674 9.70185 14.0969 7.52975C13.8652 7.22846 13.6424 6.93881 13.4355 6.664C12.7943 5.86749 12.2925 4.96658 11.9516 4C11.6096 4.96772 11.105 5.86887 10.4597 6.664C10.2566 6.93381 10.0383 7.21792 9.81137 7.51331C8.14051 9.68782 6 12.4736 6 14.664C6 17.6 8.66632 20 11.9516 20ZM8.73778 12.312C8.56129 13.5225 9.0283 14.7375 9.96778 15.512H9.99952C11.1819 16.584 12.7373 16.848 13.7054 16.216C13.0766 17.2808 11.8945 17.884 10.6711 17.7642C9.44759 17.6444 8.4027 16.8232 7.98893 15.6563C7.57516 14.4894 7.86689 13.1866 8.73778 12.312Z"/>
</svg>
