<svg id="weather" width="24" height="24" viewBox="0 0 24 24" fill="none" xmlns="http://www.w3.org/2000/svg">
<path fill-rule="evenodd" clip-rule="evenodd" d="M18.7782 9.98593C18.9123 9.93307 19.0003 9.80339 18.9998 9.65923C19.0044 9.50258 18.9044 9.36197 18.7549 9.31502H18.6965C18.1731 9.1419 17.6836 8.87938 17.2499 8.5391C17.1157 8.21823 17.4424 7.30813 17.699 6.7889C17.7701 6.64941 17.7416 6.47986 17.629 6.37119C17.5163 6.26253 17.3458 6.24027 17.209 6.31635C16.7428 6.58106 16.2332 6.76081 15.7041 6.84724H15.6282C15.2071 6.37725 14.8803 5.83058 14.6657 5.23706C14.6154 5.09497 14.481 5 14.3303 5C14.1796 5 14.0452 5.09497 13.9949 5.23706C13.8386 5.80989 13.5555 6.34025 13.1666 6.7889H13.0791C12.5102 6.70525 11.9586 6.5299 11.4458 6.26968C11.3095 6.20619 11.1481 6.23368 11.0405 6.33871C10.9329 6.44374 10.9015 6.6044 10.9616 6.74223C11.2255 7.29348 11.395 7.88508 11.4633 8.49243C10.9895 8.82469 10.4809 9.10442 9.94661 9.32669H9.88245C9.76595 9.37516 9.68383 9.48171 9.66662 9.60672V9.65923V9.71173C9.67781 9.84327 9.76089 9.9578 9.88245 10.0093H9.91745C10.7415 9.62786 11.6752 9.5554 12.5483 9.80508C12.5454 9.77598 12.5454 9.74667 12.5483 9.71757V9.65923V9.60089C12.548 9.49874 12.5598 9.39693 12.5833 9.29752C12.7621 8.47411 13.4907 7.88677 14.3332 7.88677C15.1757 7.88677 15.9043 8.47411 16.0832 9.29752C16.1067 9.39693 16.1184 9.49874 16.1182 9.60089V9.65923V9.71757C16.1184 9.81971 16.1067 9.92153 16.0832 10.0209C15.9472 10.7262 15.4029 11.282 14.7007 11.4328C14.784 11.5605 14.8562 11.6952 14.9166 11.8353H15.0682C16.0071 11.8357 16.8832 12.3067 17.4015 13.0896C17.4866 13.0839 17.567 13.0489 17.629 12.9904C17.74 12.8823 17.7684 12.7148 17.699 12.5762C17.4424 12.057 17.1274 11.1469 17.2499 10.826C17.6859 10.4606 18.1837 10.1761 18.7199 9.98593H18.7782ZM9.40995 18.6086C10.0639 18.6174 10.7029 18.4126 11.2299 18.0252L11.5858 17.7685L11.7608 18.1652C12.0151 18.6766 12.5371 19 13.1082 19C13.6794 19 14.2014 18.6766 14.4557 18.1652L14.6074 17.8268L14.9457 18.0485C15.2505 18.2195 15.5938 18.3098 15.9432 18.311C16.426 18.33 16.8965 18.1561 17.251 17.8278C17.6055 17.4995 17.815 17.0437 17.8332 16.5608C17.8243 15.9029 17.4387 15.3085 16.8415 15.0323L16.6199 14.9273L16.6665 14.7056C16.6754 14.6164 16.6754 14.5265 16.6665 14.4373C16.6256 13.5933 15.9124 12.9399 15.0682 12.9729C14.8696 12.9726 14.6723 13.0062 14.4849 13.0721L14.0824 13.218L14.0241 12.8271C13.7927 11.6346 12.7297 10.7866 11.5158 10.826C10.8695 10.7976 10.2385 11.0278 9.76236 11.4657C9.28619 11.9036 9.00404 12.5132 8.97829 13.1596V13.3871L8.72163 13.5272C8.25178 13.631 7.81492 13.8494 7.44997 14.1631L7.23414 14.3498L7.00081 14.1806C6.77854 14.0149 6.50803 13.9267 6.23082 13.9297C5.91839 13.9123 5.61205 14.0211 5.38061 14.2317C5.14917 14.4423 5.01203 14.7371 5 15.0498C5.01656 15.3595 5.15566 15.6498 5.38659 15.8566C5.61752 16.0635 5.92129 16.17 6.23082 16.1525H6.52248L6.60415 16.415C6.87703 17.7341 8.0641 18.6622 9.40995 18.6086Z" fill="currentColor"/>
</svg>
