<svg id="wip" viewBox="0 0 24 24" xmlns="http://www.w3.org/2000/svg">
    <path fill="currentColor" d="M12 5.45455C13.2946 5.45455 14.5601 5.83843 15.6365 6.55765C16.7129 7.27688 17.5518 8.29914 18.0472 9.49516C18.5426 10.6912 18.6722 12.0073 18.4197 13.277C18.1671 14.5466 17.5437 15.7129 16.6283 16.6283C15.7129 17.5437 14.5466 18.1671 13.277 18.4197C12.0073 18.6722 10.6912 18.5426 9.49516 18.0472C8.29914 17.5518 7.27688 16.7128 6.55766 15.6365C5.83843 14.5601 5.45455 13.2946 5.45455 12C5.45455 10.264 6.14416 8.59917 7.37167 7.37166C8.59918 6.14415 10.264 5.45455 12 5.45455ZM12 4C10.4178 4 8.87103 4.46919 7.55544 5.34824C6.23985 6.22729 5.21447 7.47672 4.60897 8.93853C4.00347 10.4003 3.84504 12.0089 4.15372 13.5607C4.4624 15.1126 5.22433 16.538 6.34315 17.6569C7.46197 18.7757 8.88743 19.5376 10.4393 19.8463C11.9911 20.155 13.5997 19.9965 15.0615 19.391C16.5233 18.7855 17.7727 17.7602 18.6518 16.4446C19.5308 15.129 20 13.5822 20 12C20 9.87827 19.1571 7.84344 17.6569 6.34315C16.1566 4.84285 14.1217 4 12 4ZM17.0909 10.5455C17.076 10.3409 16.9816 10.1504 16.8281 10.0145C16.6745 9.8786 16.4739 9.80814 16.2691 9.81818H7.73091C7.5261 9.80814 7.32549 9.8786 7.17193 10.0145C7.01837 10.1504 6.92404 10.3409 6.90909 10.5455C6.92404 10.75 7.01837 10.9405 7.17193 11.0764C7.32549 11.2123 7.5261 11.2828 7.73091 11.2727H16.2691C16.4739 11.2828 16.6745 11.2123 16.8281 11.0764C16.9816 10.9405 17.076 10.75 17.0909 10.5455ZM17.0909 13.4545C17.076 13.25 16.9816 13.0595 16.8281 12.9236C16.6745 12.7877 16.4739 12.7172 16.2691 12.7273H7.73091C7.5261 12.7172 7.32549 12.7877 7.17193 12.9236C7.01837 13.0595 6.92404 13.25 6.90909 13.4545C6.92404 13.6591 7.01837 13.8496 7.17193 13.9855C7.32549 14.1214 7.5261 14.1919 7.73091 14.1818H16.2691C16.4739 14.1919 16.6745 14.1214 16.8281 13.9855C16.9816 13.8496 17.076 13.6591 17.0909 13.4545Z"/>
</svg>
