<svg id="air" xmlns="http://www.w3.org/2000/svg" viewBox="0 0 24 24">
  <path fill="currentColor" d="M24,8h0a.6.6,0,0,1-.38.56l-.1,0h0A8.18,8.18,0,0,0,21,10c-.21.55.33,2.11.77,3a.61.61,0,0,1-.12.71.63.63,0,0,1-.39.17,4.8,4.8,0,0,0-4-2.15H17a4.58,4.58,0,0,0-.37-.69A3.07,3.07,0,0,0,19,8.62h0a2.24,2.24,0,0,0,.06-.52s0-.07,0-.1,0-.07,0-.1A2.24,2.24,0,0,0,19,7.38h0a3.07,3.07,0,0,0-6,0h0a2.24,2.24,0,0,0-.06.52s0,.07,0,.1,0,.06,0,.1a.77.77,0,0,0,0,.15,6.49,6.49,0,0,0-4.51.35l-.06,0A.61.61,0,0,1,8,8.09V8H8V7.91a.61.61,0,0,1,.37-.48l.11,0h0A13.68,13.68,0,0,0,11.08,6a9.37,9.37,0,0,0-.86-3,.62.62,0,0,1,.83-.81,9.12,9.12,0,0,0,2.8.89H14A6.79,6.79,0,0,0,15.42.42a.61.61,0,0,1,1.15,0,8.43,8.43,0,0,0,1.65,2.76h.13a7.76,7.76,0,0,0,2.58-.91.61.61,0,0,1,.84.81c-.44.89-1,2.45-.77,3a8.18,8.18,0,0,0,2.48,1.33h0l.1,0A.6.6,0,0,1,24,8ZM10.68,22.34a5.15,5.15,0,0,1-3.12,1,4.72,4.72,0,0,1-4.81-3.76l-.14-.45h-.5A2,2,0,0,1,0,17.24a2,2,0,0,1,2.11-1.92,2.17,2.17,0,0,1,1.32.43l.4.29.37-.32a5,5,0,0,1,2.18-1.09l.44-.24V14a4.17,4.17,0,0,1,4.35-4,4.24,4.24,0,0,1,4.3,3.43l.1.67.69-.25a3,3,0,0,1,1-.17A2.64,2.64,0,0,1,20,16.19a2.32,2.32,0,0,1,0,.46l-.08.38.38.18A2.93,2.93,0,0,1,22,19.83a3.12,3.12,0,0,1-3.24,3,3.52,3.52,0,0,1-1.71-.45L16.47,22l-.26.58a2.58,2.58,0,0,1-4.62,0l-.3-.68Z"/>
</svg>
