<svg id="calendar" xmlns="http://www.w3.org/2000/svg" viewBox="0 0 24 24">
  <path fill="currentColor" d="M7,4.84A.16.16,0,0,1,6.84,5H5.16A.16.16,0,0,1,5,4.84V1.16A.16.16,0,0,1,5.16,1H6.84A.16.16,0,0,1,7,1.16ZM19,1.16A.16.16,0,0,0,18.84,1H17.16a.16.16,0,0,0-.16.16V4.84a.16.16,0,0,0,.16.16h1.68A.16.16,0,0,0,19,4.84ZM23,5V22a1,1,0,0,1-1,1H2a1,1,0,0,1-1-1V5A1,1,0,0,1,2,4H4v1A1.09,1.09,0,0,0,5,6H7a1.06,1.06,0,0,0,1-1V4h8v1a1.07,1.07,0,0,0,1,1h2a1.05,1.05,0,0,0,1-1V4h2A1,1,0,0,1,23,5Zm-2,5.55a.54.54,0,0,0-.53-.55H3.53a.54.54,0,0,0-.53.55v9.9a.54.54,0,0,0,.53.55H20.47a.54.54,0,0,0,.53-.55Z"/>
</svg>
