<?xml version="1.0" encoding="utf-8"?>
<!-- Generator: Adobe Illustrator 24.0.1, SVG Export Plug-In . SVG Version: 6.00 Build 0)  -->
<svg version="1.1" xmlns="http://www.w3.org/2000/svg" xmlns:xlink="http://www.w3.org/1999/xlink" x="0px" y="0px"
	 viewBox="0 0 24 24" style="enable-background:new 0 0 24 24;" xml:space="preserve">
<style type="text/css">
	.st0{display:none;}
	.st1{fill:#1D1D1B;}
	.st2{fill:#2B5780;}
	.st3{fill:#FFFFFF;}
	.st4{fill:#CE3F51;}
	.st5{fill:#39870C;}
	.st6{fill:#DCD400;}
	.st7{fill-rule:evenodd;clip-rule:evenodd;fill:#1D1D1B;}
</style>
<g id="Layer_3" class="st0">
</g>
<g id="Layer_1">
	<path class="st1" d="M8,6.8C8,6.9,7.9,7,7.8,7H6.2C6.1,7,6,6.9,6,6.8V3.2C6,3.1,6.1,3,6.2,3h1.7C7.9,3,8,3.1,8,3.2V6.8z"/>
	<path class="st1" d="M18,6.8C18,6.9,17.9,7,17.8,7h-1.7C16.1,7,16,6.9,16,6.8V3.2C16,3.1,16.1,3,16.2,3h1.7C17.9,3,18,3.1,18,3.2
		V6.8z"/>
	<path class="st7" d="M21,5.9v14.3c0,0.4-0.3,0.8-0.8,0.8H3.8C3.3,21,3,20.7,3,20.2V5.9c0-0.4,0.3-0.8,0.8-0.8H5v1.7
		C5,7.5,5.5,8,6.2,8h1.7C8.5,8,9,7.5,9,6.8V5.2h6v1.7C15,7.5,15.5,8,16.2,8h1.7C18.5,8,19,7.5,19,6.8V5.2h1.2
		C20.7,5.2,21,5.5,21,5.9z M16,6.8V5.2h2v1.7C18,6.9,17.9,7,17.8,7h-1.7C16.1,7,16,6.9,16,6.8z M18.6,10.2c0.2,0,0.3,0.1,0.3,0.3
		v7.9c0,0.2-0.1,0.3-0.3,0.3H5.4c-0.2,0-0.3-0.1-0.3-0.3v-7.9c0-0.2,0.1-0.3,0.3-0.3H18.6z"/>
</g>
<g id="Layer_4">
</g>
</svg>
