<?xml version="1.0" encoding="utf-8"?>
<!-- Generator: Adobe Illustrator 24.0.1, SVG Export Plug-In . SVG Version: 6.00 Build 0)  -->
<svg version="1.1" xmlns="http://www.w3.org/2000/svg" xmlns:xlink="http://www.w3.org/1999/xlink" x="0px" y="0px"
	 viewBox="0 0 24 24" style="enable-background:new 0 0 24 24;" xml:space="preserve">
<style type="text/css">
	.st0{display:none;}
	.st1{fill:#1D1D1B;}
	.st2{fill:#2B5780;}
	.st3{fill:#FFFFFF;}
	.st4{fill:#CE3F51;}
	.st5{fill:#39870C;}
	.st6{fill:#DCD400;}
	.st7{fill-rule:evenodd;clip-rule:evenodd;fill:#1D1D1B;}
</style>
<g id="Layer_3" class="st0">
</g>
<g id="Layer_1">
	<path class="st1" d="M18.3,2l-3.8,0h-3.4C10,2,9.1,2.9,9.1,4v0.3h-5C3,4.2,2,5.2,2,6.4v13.5C2,21.1,3,22,4.2,22h9
		c1.2,0,2.2-1,2.2-2.2v-0.5h4.8c1.1,0,1.9-0.9,1.9-1.9V5.7L18.3,2z M17.6,4.4l2.2,2.2h-2.2V4.4z M13.4,19.9c0,0.2-0.1,0.3-0.3,0.3
		l-9,0c-0.2,0-0.3-0.1-0.3-0.3V6.4c0-0.2,0.1-0.3,0.3-0.3l5,0v11.4c0,1.1,0.9,1.9,1.9,1.9h2.4V19.9z M20.1,17.5
		C20.1,17.5,20.1,17.5,20.1,17.5l-9.1,0.1c0,0-0.1,0-0.1-0.1V4c0,0,0-0.1,0.1-0.1h4.7V8v0.4h0.4h3.9V17.5z"/>
</g>
<g id="Layer_4">
</g>
</svg>
