<?xml version="1.0" encoding="utf-8"?>
<!-- Generator: Adobe Illustrator 24.0.1, SVG Export Plug-In . SVG Version: 6.00 Build 0)  -->
<svg version="1.1" xmlns="http://www.w3.org/2000/svg" xmlns:xlink="http://www.w3.org/1999/xlink" x="0px" y="0px"
	 viewBox="0 0 24 24" style="enable-background:new 0 0 24 24;" xml:space="preserve">
<style type="text/css">
	.st0{display:none;}
	.st1{fill:#1D1D1B;}
	.st2{fill:#2B5780;}
	.st3{fill:#FFFFFF;}
	.st4{fill:#CE3F51;}
	.st5{fill:#39870C;}
	.st6{fill:#DCD400;}
	.st7{fill-rule:evenodd;clip-rule:evenodd;fill:#1D1D1B;}
</style>
<g id="Layer_3" class="st0">
</g>
<g id="Layer_1">
	<g>
		<ellipse class="st1" cx="12" cy="3.6" rx="1.7" ry="1.8"/>
		<ellipse class="st1" cx="3.6" cy="10.3" rx="1.7" ry="1.8"/>
		<ellipse class="st1" cx="20.3" cy="10.3" rx="1.7" ry="1.8"/>
		<g>
			<g>
				<path class="st1" d="M19.5,18c0.2,0,0.4-0.1,0.4-0.3l1.8-4.9c0.1-0.2,0-0.3-0.2-0.2l-2.3,0.6c-0.2,0-0.4,0.2-0.5,0.3
					c0,0-1,1.1-1.9,1.1c-1.4,0-2.5-1.2-2.5-2.7C14.3,11,15,10,15,10c0.1-0.1,0.1-0.4,0-0.5l-2.9-3.4C12,6,11.8,6,11.7,6.1L8.9,9.5
					c-0.1,0.1-0.1,0.4,0,0.5c0,0,0.8,1,0.8,1.9c0,1.5-1.1,2.7-2.5,2.7c-0.9,0-1.9-1.1-1.9-1.1c-0.1-0.1-0.4-0.3-0.6-0.3l-2.3-0.7
					c-0.2-0.1-0.3,0-0.2,0.2l1.7,4.9C4,17.8,4.2,18,4.4,18H19.5z"/>
			</g>
			<g>
				<path class="st1" d="M5.1,20c-0.2,0-0.3,0.1-0.2,0.3l0.4,1.2c0.1,0.2,0.3,0.3,0.4,0.3h12.4c0.2,0,0.4-0.1,0.4-0.3l0.4-1.2
					c0.1-0.2,0-0.3-0.2-0.3H5.1z"/>
			</g>
		</g>
	</g>
</g>
<g id="Layer_4">
</g>
</svg>
