<?xml version="1.0" encoding="utf-8"?>
<!-- Generator: Adobe Illustrator 24.0.1, SVG Export Plug-In . SVG Version: 6.00 Build 0)  -->
<svg version="1.1" xmlns="http://www.w3.org/2000/svg" xmlns:xlink="http://www.w3.org/1999/xlink" x="0px" y="0px"
	 viewBox="0 0 24 24" style="enable-background:new 0 0 24 24;" xml:space="preserve">
<style type="text/css">
	.st0{display:none;}
	.st1{fill:#1D1D1B;}
	.st2{fill:#2B5780;}
	.st3{fill:#FFFFFF;}
	.st4{fill:#CE3F51;}
	.st5{fill:#39870C;}
	.st6{fill:#DCD400;}
	.st7{fill-rule:evenodd;clip-rule:evenodd;fill:#1D1D1B;}
</style>
<g id="Layer_3" class="st0">
</g>
<g id="Layer_1">
	<path class="st1" d="M17.7,8.6l-3.1,0V2.7C14.6,2.3,14.3,2,14,2h-4C9.6,2,9.3,2.3,9.3,2.7v5.9l-2.9,0c-0.6,0-0.7,0.3-0.3,0.8
		l5.9,5.9l6-6C18.4,8.9,18.3,8.6,17.7,8.6z"/>
	<path class="st1" d="M17,19.5c0,0.7-0.6,1.2-1.2,1.2c-0.7,0-1.2-0.6-1.2-1.2s0.6-1.2,1.2-1.2C16.4,18.2,17,18.8,17,19.5z M2,16.8
		V22h20v-5.2H2z M20.8,19.5c0,0.7-0.6,1.2-1.2,1.2s-1.2-0.6-1.2-1.2s0.6-1.2,1.2-1.2S20.8,18.8,20.8,19.5z"/>
</g>
<g id="Layer_4">
</g>
</svg>
