<?xml version="1.0" encoding="utf-8"?>
<!-- Generator: Adobe Illustrator 24.0.1, SVG Export Plug-In . SVG Version: 6.00 Build 0)  -->
<svg version="1.1" xmlns="http://www.w3.org/2000/svg" xmlns:xlink="http://www.w3.org/1999/xlink" x="0px" y="0px"
	 viewBox="0 0 24 24" style="enable-background:new 0 0 24 24;" xml:space="preserve">
<style type="text/css">
	.st0{display:none;}
	.st1{fill:#1D1D1B;}
	.st2{fill:#2B5780;}
	.st3{fill:#FFFFFF;}
	.st4{fill:#CE3F51;}
	.st5{fill:#39870C;}
	.st6{fill:#DCD400;}
	.st7{fill-rule:evenodd;clip-rule:evenodd;fill:#1D1D1B;}
</style>
<g id="Layer_3" class="st0">
</g>
<g id="Layer_1">
	<g>
		<path class="st1" d="M15.4,20.2H6.9c-1.5,0-2.7-1.2-2.7-2.7V9c0-1.5,1.2-2.7,2.7-2.7h3.6c0.6,0,1.1,0.5,1.1,1.1s-0.5,1.1-1.1,1.1
			H6.9C6.6,8.4,6.3,8.7,6.3,9v8.5c0,0.3,0.3,0.6,0.6,0.6h8.5c0.3,0,0.6-0.3,0.6-0.6v-4.7c0-0.6,0.5-1.1,1.1-1.1s1.1,0.5,1.1,1.1v4.7
			C18.2,19,17,20.2,15.4,20.2z"/>
		<path class="st1" d="M15.5,4.2c-0.3,0-0.4,0.2-0.2,0.4l1.5,1.5l-4.4,4.4c-0.4,0.4-0.4,1,0,1.4c0.2,0.2,0.5,0.3,0.7,0.3
			s0.5-0.1,0.7-0.3l4.4-4.4l1.5,1.5c0.2,0.2,0.4,0.2,0.4-0.2l0-4.6L15.5,4.2z"/>
	</g>
</g>
<g id="Layer_4">
</g>
</svg>
