<?xml version="1.0" encoding="utf-8"?>
<!-- Generator: Adobe Illustrator 24.0.1, SVG Export Plug-In . SVG Version: 6.00 Build 0)  -->
<svg version="1.1" xmlns="http://www.w3.org/2000/svg" xmlns:xlink="http://www.w3.org/1999/xlink" x="0px" y="0px"
	 viewBox="0 0 24 24" style="enable-background:new 0 0 24 24;" xml:space="preserve">
<style type="text/css">
	.st0{display:none;}
	.st1{fill:#1D1D1B;}
	.st2{fill:#2B5780;}
	.st3{fill:#FFFFFF;}
	.st4{fill:#CE3F51;}
	.st5{fill:#39870C;}
	.st6{fill:#DCD400;}
	.st7{fill-rule:evenodd;clip-rule:evenodd;fill:#1D1D1B;}
</style>
<g id="Layer_3" class="st0">
</g>
<g id="Layer_1">
	<path class="st1" d="M12,5.5c3.5,0,7.1,3.6,8.9,6c-1.9,2.4-5.4,6-8.9,6c-3.5,0-7.1-3.6-8.9-6C4.9,9.1,8.5,5.5,12,5.5 M12,3
		C5.4,3,0,11.5,0,11.5S5.4,20,12,20s12-8.5,12-8.5S18.6,3,12,3L12,3z"/>
	<g>
		<path class="st1" d="M12.2,6.5c-1,0-1.9,0.3-2.7,0.8c0.1,0,0.3,0,0.4,0c1.7,0,3,1.3,3,3s-1.3,3-3,3c-1.2,0-2.3-0.7-2.7-1.8
			c0,0,0,0,0,0c0,2.8,2.2,5,5,5s5-2.2,5-5S15,6.5,12.2,6.5z"/>
	</g>
</g>
<g id="Layer_4">
</g>
</svg>
