<?xml version="1.0" encoding="utf-8"?>
<!-- Generator: Adobe Illustrator 24.0.1, SVG Export Plug-In . SVG Version: 6.00 Build 0)  -->
<svg version="1.1" xmlns="http://www.w3.org/2000/svg" xmlns:xlink="http://www.w3.org/1999/xlink" x="0px" y="0px"
	 viewBox="0 0 24 24" style="enable-background:new 0 0 24 24;" xml:space="preserve">
<style type="text/css">
	.st0{display:none;}
	.st1{fill:#1D1D1B;}
	.st2{fill:#2B5780;}
	.st3{fill:#FFFFFF;}
	.st4{fill:#CE3F51;}
	.st5{fill:#39870C;}
	.st6{fill:#DCD400;}
	.st7{fill-rule:evenodd;clip-rule:evenodd;fill:#1D1D1B;}
</style>
<g id="Layer_3" class="st0">
</g>
<g id="Layer_1">
	<g>
		<path class="st1" d="M21,4.5C21,4.2,20.8,4,20.5,4H3.5C3.2,4,3,4.2,3,4.5v1.9c0,0.2,0.1,0.6,0.3,0.8l6.6,6.5
			c0.2,0.2,0.3,0.5,0.3,0.8v4.1c0,0.2,0.2,0.6,0.3,0.8l2.7,2.4c0.2,0.2,0.3,0.1,0.3-0.1v-7.2c0-0.2,0.1-0.6,0.3-0.8l6.7-6.5
			C20.9,6.9,21,6.6,21,6.3V4.5z"/>
	</g>
</g>
<g id="Layer_4">
</g>
</svg>
