<?xml version="1.0" encoding="utf-8"?>
<!-- Generator: Adobe Illustrator 24.0.1, SVG Export Plug-In . SVG Version: 6.00 Build 0)  -->
<svg version="1.1" xmlns="http://www.w3.org/2000/svg" xmlns:xlink="http://www.w3.org/1999/xlink" x="0px" y="0px"
	 viewBox="0 0 24 24" style="enable-background:new 0 0 24 24;" xml:space="preserve">
<style type="text/css">
	.st0{display:none;}
	.st1{fill:#1D1D1B;}
	.st2{fill:#2B5780;}
	.st3{fill:#FFFFFF;}
	.st4{fill:#CE3F51;}
	.st5{fill:#39870C;}
	.st6{fill:#DCD400;}
	.st7{fill-rule:evenodd;clip-rule:evenodd;fill:#1D1D1B;}
</style>
<g id="Layer_3" class="st0">
</g>
<g id="Layer_1">
	<g>
		<path class="st1" d="M17.5,12.6c0.2,0,0.3,0.1,0.3,0.3V14c0,0.2,0,0.5,0,0.6c0,0.2,0,0.4,0,0.6v2c0,0.2-0.1,0.3-0.3,0.3h-0.6
			c-0.2,0-0.5,0-0.7,0h0c-0.2,0-0.5,0-0.7,0h-1.9c-0.2,0-0.3-0.1-0.3-0.3v-2c0-0.2,0-0.5,0-0.6c0-0.2,0-0.4,0-0.6V13
			c0-0.2,0.2-0.3,0.3-0.3h1.9c0.2,0,0.4,0,0.5,0s0.3,0,0.5,0H17.5z M21.8,10.4l-9.6-8.3c-0.2-0.1-0.4-0.1-0.5,0l-9.6,8.3
			c-0.2,0.1-0.2,0.5-0.1,0.7l1.2,0v10.5c0,0.2,0.2,0.4,0.4,0.4h16.7c0.2,0,0.4-0.2,0.4-0.4V11.1l1.2,0C22.1,10.9,22,10.6,21.8,10.4z
			 M10.6,19.4c0,0.2-0.1,0.3-0.3,0.3H6.3c-0.2,0-0.3-0.1-0.3-0.3v-6.7c0-0.2,0.1-0.3,0.3-0.3h3.9c0.2,0,0.3,0.1,0.3,0.3V19.4z"/>
	</g>
</g>
<g id="Layer_4">
</g>
</svg>
