<?xml version="1.0" encoding="utf-8"?>
<!-- Generator: Adobe Illustrator 24.0.1, SVG Export Plug-In . SVG Version: 6.00 Build 0)  -->
<svg version="1.1" xmlns="http://www.w3.org/2000/svg" xmlns:xlink="http://www.w3.org/1999/xlink" x="0px" y="0px"
	 viewBox="0 0 24 24" style="enable-background:new 0 0 24 24;" xml:space="preserve">
<style type="text/css">
	.st0{display:none;}
	.st1{fill:#1D1D1B;}
	.st2{fill:#2B5780;}
	.st3{fill:#FFFFFF;}
	.st4{fill:#CE3F51;}
	.st5{fill:#39870C;}
	.st6{fill:#DCD400;}
	.st7{fill-rule:evenodd;clip-rule:evenodd;fill:#1D1D1B;}
</style>
<g id="Layer_3" class="st0">
</g>
<g id="Layer_1">
	<g>
		<path class="st1" d="M12,2.8c5.1,0,9.2,4.1,9.2,9.2s-4.1,9.2-9.2,9.2S2.8,17.1,2.8,12S6.9,2.8,12,2.8 M12,1C5.9,1,1,5.9,1,12
			s4.9,11,11,11s11-4.9,11-11S18.1,1,12,1L12,1z"/>
		<circle class="st1" cx="12" cy="7.4" r="1.4"/>
		<path class="st1" d="M12,17.3c-0.7,0-1.2-0.5-1.2-1.1V11c0-0.6,0.5-1.1,1.2-1.1s1.2,0.5,1.2,1.1v5.1C13.1,16.8,12.6,17.3,12,17.3z
			"/>
	</g>
</g>
<g id="Layer_4">
</g>
</svg>
