<?xml version="1.0" encoding="utf-8"?>
<!-- Generator: Adobe Illustrator 24.0.1, SVG Export Plug-In . SVG Version: 6.00 Build 0)  -->
<svg version="1.1" xmlns="http://www.w3.org/2000/svg" xmlns:xlink="http://www.w3.org/1999/xlink" x="0px" y="0px"
	 viewBox="0 0 24 24" style="enable-background:new 0 0 24 24;" xml:space="preserve">
<style type="text/css">
	.st0{display:none;}
	.st1{fill:#1D1D1B;}
	.st2{fill:#2B5780;}
	.st3{fill:#FFFFFF;}
	.st4{fill:#CE3F51;}
	.st5{fill:#39870C;}
	.st6{fill:#DCD400;}
	.st7{fill-rule:evenodd;clip-rule:evenodd;fill:#1D1D1B;}
</style>
<g id="Layer_3" class="st0">
</g>
<g id="Layer_1">
	<path class="st1" d="M12,17.5c-0.7,0-1.2-0.5-1.2-1.1v-5.1c0-0.6,0.5-1.1,1.2-1.1s1.2,0.5,1.2,1.1v5.1C13.1,17,12.6,17.5,12,17.5z
		 M12,1.2c-6.1,0-11,4.9-11,11s4.9,11,11,11s11-4.9,11-11S18.1,1.2,12,1.2z M10.6,7.7c0-0.8,0.6-1.4,1.4-1.4s1.4,0.6,1.4,1.4
		S12.8,9,12,9S10.6,8.4,10.6,7.7z"/>
</g>
<g id="Layer_4">
</g>
</svg>
