<?xml version="1.0" encoding="utf-8"?>
<!-- Generator: Adobe Illustrator 24.0.1, SVG Export Plug-In . SVG Version: 6.00 Build 0)  -->
<svg version="1.1" xmlns="http://www.w3.org/2000/svg" xmlns:xlink="http://www.w3.org/1999/xlink" x="0px" y="0px"
	 viewBox="0 0 24 24" style="enable-background:new 0 0 24 24;" xml:space="preserve">
<style type="text/css">
	.st0{display:none;}
	.st1{fill:#1D1D1B;}
	.st2{fill:#2B5780;}
	.st3{fill:#FFFFFF;}
	.st4{fill:#CE3F51;}
	.st5{fill:#39870C;}
	.st6{fill:#DCD400;}
	.st7{fill-rule:evenodd;clip-rule:evenodd;fill:#1D1D1B;}
</style>
<g id="Layer_3" class="st0">
</g>
<g id="Layer_1">
	<path class="st1" d="M17.5,9V7c0-2.8-2.3-5.1-5.1-5.1S7.3,4.2,7.3,7v2H4.2v12h16V9H17.5z M9.5,7c0-1.6,1.3-2.9,2.9-2.9
		s2.9,1.3,2.9,2.9v2H9.5V7z M13.7,16.7c0.2,0.2,0.3,0.5,0.3,0.8c0,0.8-0.7,1.5-1.5,1.5S11,18.3,11,17.5c0-0.3,0.1-0.6,0.3-0.8
		c-0.7-0.4-1.2-1.1-1.3-2c-0.1-1.4,1-2.6,2.4-2.6c1.4-0.1,2.6,1,2.6,2.4C15.1,15.3,14.5,16.2,13.7,16.7z"/>
</g>
<g id="Layer_4">
</g>
</svg>
