<svg id="municipality" xmlns="http://www.w3.org/2000/svg" viewBox="0 0 24 24">
  <path fill="currentColor" d="M22.92,16a.26.26,0,0,1,0,.33h-.67v5.5a.21.21,0,0,1-.21.21H13.92a.21.21,0,0,1-.21-.21V16.28H13a.26.26,0,0,1,0-.33l1.19-1H8.92a.21.21,0,0,1-.21-.21V9.28H8a.26.26,0,0,1,0-.33L13,5a.24.24,0,0,1,.26,0L17.92,9a.26.26,0,0,1,0,.33h-.67v3.29L18,12a.24.24,0,0,1,.26,0L20,13.52V12.21a2.35,2.35,0,0,1-2-2.44C18,6.36,19.67,4,20.5,4S23,6.36,23,9.77a2.35,2.35,0,0,1-2,2.44v2.15Zm-12,1L6.22,13A.21.21,0,0,0,6,13L1.08,17a.26.26,0,0,0,0,.33h.67v5.51a.21.21,0,0,0,.21.21h8.16a.21.21,0,0,0,.21-.21v-5.5H11A.25.25,0,0,0,10.92,17ZM3,12.41c0,.79,4,.79,4,0A1.4,1.4,0,0,0,6,11.2v-2A2.35,2.35,0,0,0,8,6.77C8,3.36,6.33,1,5.5,1S3,3.36,3,6.77A2.35,2.35,0,0,0,5,9.21V11C3.9,11,3,11.63,3,12.41Z"/>
</svg>
