<svg id="paperclip" xmlns="http://www.w3.org/2000/svg" viewBox="0 0 24 24">
  <path fill="currentColor" d="M21,9.25,10.14,19.74a4.24,4.24,0,0,1-3,1.26h0a5.28,5.28,0,0,1-3.68-1.63,4.75,4.75,0,0,1,0-6.8l8.45-8.34a1,1,0,0,1,1.35,0,.94.94,0,0,1,0,1.33L4.78,13.9h0a2.9,2.9,0,0,0,0,4.14,3.46,3.46,0,0,0,2.34,1.09A2.35,2.35,0,0,0,8.8,18.4h0L19.63,7.91a1.6,1.6,0,0,0,.46-1.24,1.93,1.93,0,0,0-.57-1.3,1.71,1.71,0,0,0-1.19-.49,1.66,1.66,0,0,0-1.19.49h0L7.85,14.46a.42.42,0,0,0,0,.6.46.46,0,0,0,.62,0l6.68-6.55a1,1,0,0,1,1.35,0,1,1,0,0,1,.28.67.91.91,0,0,1-.28.66h0L9.81,16.4h0a2.42,2.42,0,0,1-3.31,0,2.28,2.28,0,0,1,0-3.27L15.8,4a3.62,3.62,0,0,1,5.07,0A3.87,3.87,0,0,1,22,6.58,3.53,3.53,0,0,1,21,9.25Z"/>
</svg>
