<?xml version="1.0" encoding="utf-8"?>
<!-- Generator: Adobe Illustrator 24.0.1, SVG Export Plug-In . SVG Version: 6.00 Build 0)  -->
<svg version="1.1" xmlns="http://www.w3.org/2000/svg" xmlns:xlink="http://www.w3.org/1999/xlink" x="0px" y="0px"
	 viewBox="0 0 24 24" style="enable-background:new 0 0 24 24;" xml:space="preserve">
<style type="text/css">
	.st0{display:none;}
	.st1{fill:#1D1D1B;}
	.st2{fill:#2B5780;}
	.st3{fill:#FFFFFF;}
	.st4{fill:#CE3F51;}
	.st5{fill:#39870C;}
	.st6{fill:#DCD400;}
	.st7{fill-rule:evenodd;clip-rule:evenodd;fill:#1D1D1B;}
</style>
<g id="Layer_3" class="st0">
</g>
<g id="Layer_1">
	<path class="st1" d="M6.8,21.9c-1.3,0-2.7-0.6-3.8-1.7c-2-2-2-5.2,0-7.1l8.9-8.9c0.4-0.4,0.9-0.4,1.3,0c0.4,0.4,0.4,0.9,0,1.3
		l-8.9,8.9c-1.2,1.2-1.2,3.3,0,4.5c1.2,1.2,3,1.7,4.3,0.4L20,8.1c0.3-0.3,0.5-0.8,0.5-1.4c0-0.5-0.2-1.1-0.6-1.4
		c-0.7-0.7-1.9-0.7-2.6,0L7.5,15c-0.2,0.2-0.2,0.5,0,0.7c0.2,0.2,0.6,0.2,0.8,0l7-7c0.4-0.4,0.9-0.4,1.3,0c0.4,0.4,0.4,0.9,0,1.3
		l-7,7c-0.9,0.9-2.5,0.9-3.4,0c-0.9-0.9-0.9-2.4,0-3.4L16,4c1.4-1.4,3.8-1.4,5.2,0c0.7,0.7,1.1,1.7,1.2,2.7c0,1.1-0.3,2.1-1,2.8
		L10,20.6C9.1,21.4,8,21.9,6.8,21.9z"/>
</g>
<g id="Layer_4">
</g>
</svg>
