<svg id="paperclip" xmlns="http://www.w3.org/2000/svg" viewBox="0 0 24 24">
  <path fill="currentColor" d="M21.88,8.94,10,20.6A4.63,4.63,0,0,1,6.62,22h0a5.78,5.78,0,0,1-4.05-1.81,5.34,5.34,0,0,1,0-7.56l9.3-9.26a1,1,0,1,1,1.48,1.48l-9.3,9.26h0a3.26,3.26,0,0,0,0,4.6,3.79,3.79,0,0,0,2.58,1.21,2.55,2.55,0,0,0,1.85-.81h0L20.4,7.46a1.83,1.83,0,0,0,.5-1.39,2.24,2.24,0,0,0-.63-1.44,1.85,1.85,0,0,0-2.61,0h0L7.43,14.73a.48.48,0,0,0,0,.67.48.48,0,0,0,.34.14.46.46,0,0,0,.34-.14l7.36-7.28a1,1,0,0,1,1.48,0A1,1,0,0,1,17,9.6h0L9.6,16.88h0a2.66,2.66,0,0,1-3.65,0,2.55,2.55,0,0,1,0-3.63L16.17,3.15a4,4,0,0,1,5.59,0A4.31,4.31,0,0,1,23,6,3.89,3.89,0,0,1,21.88,8.94Z"/>
</svg>
