<svg id="parking" xmlns="http://www.w3.org/2000/svg" viewBox="0 0 24 24">
  <path fill="currentColor" d="M19,3H5A2,2,0,0,0,3,5V19a2,2,0,0,0,2,2H19a2,2,0,0,0,2-2V5A2,2,0,0,0,19,3Zm-2.91,8.4a2.93,2.93,0,0,1-.63,1,4,4,0,0,1-1.26.84,4.6,4.6,0,0,1-1.73.29H11v3.07H8.51V7.17h4A6.5,6.5,0,0,1,14,7.33a3.42,3.42,0,0,1,1.1.47,2.41,2.41,0,0,1,.87,1,3.06,3.06,0,0,1,.3,1.41A3.57,3.57,0,0,1,16.09,11.4ZM13.58,9.52a1.15,1.15,0,0,1,.21.69,2,2,0,0,1-.1.69,1.17,1.17,0,0,1-.34.48,1.47,1.47,0,0,1-.68.31,5.81,5.81,0,0,1-1,.07H11V8.94h1.38a2.26,2.26,0,0,1,.74.17A1.21,1.21,0,0,1,13.58,9.52ZM19,3H5A2,2,0,0,0,3,5V19a2,2,0,0,0,2,2H19a2,2,0,0,0,2-2V5A2,2,0,0,0,19,3Zm-2.91,8.4a2.93,2.93,0,0,1-.63,1,4,4,0,0,1-1.26.84,4.6,4.6,0,0,1-1.73.29H11v3.07H8.51V7.17h4A6.5,6.5,0,0,1,14,7.33a3.42,3.42,0,0,1,1.1.47,2.41,2.41,0,0,1,.87,1,3.06,3.06,0,0,1,.3,1.41A3.57,3.57,0,0,1,16.09,11.4ZM13.58,9.52a1.15,1.15,0,0,1,.21.69,2,2,0,0,1-.1.69,1.17,1.17,0,0,1-.34.48,1.47,1.47,0,0,1-.68.31,5.81,5.81,0,0,1-1,.07H11V8.94h1.38a2.26,2.26,0,0,1,.74.17A1.21,1.21,0,0,1,13.58,9.52Z"/>
</svg>
