<?xml version="1.0" encoding="utf-8"?>
<!-- Generator: Adobe Illustrator 24.0.1, SVG Export Plug-In . SVG Version: 6.00 Build 0)  -->
<svg version="1.1" xmlns="http://www.w3.org/2000/svg" xmlns:xlink="http://www.w3.org/1999/xlink" x="0px" y="0px"
	 viewBox="0 0 24 24" style="enable-background:new 0 0 24 24;" xml:space="preserve">
<style type="text/css">
	.st0{display:none;}
	.st1{fill:#1D1D1B;}
	.st2{fill:#2B5780;}
	.st3{fill:#FFFFFF;}
	.st4{fill:#CE3F51;}
	.st5{fill:#39870C;}
	.st6{fill:#DCD400;}
	.st7{fill-rule:evenodd;clip-rule:evenodd;fill:#1D1D1B;}
</style>
<g id="Layer_3" class="st0">
</g>
<g id="Layer_1">
	<path class="st1" d="M21.3,9h-4V5.6L13.7,2L9.9,2H6.5C5.4,2,4.5,2.9,4.5,3.9v5H2.7C2.3,9,2,9.3,2,9.7v6.7C2,16.7,2.3,17,2.7,17h1.1
		l-0.6,2.7c-0.3,1.3,0.6,2.3,2,2.3h11.6c1.4,0,2.3-1.1,2-2.3L18.1,17h3.2c0.4,0,0.7-0.3,0.7-0.7V9.7C22,9.3,21.7,9,21.3,9z M13,4.4
		l2.2,2.2H13V4.4z M6.4,3.9C6.4,3.9,6.4,3.9,6.4,3.9l4.8-0.1v4.1v0.4h0.4h3.9V9H6.4V3.9z M16.8,20.2H5.1c-0.1,0-0.1-0.1-0.1-0.1
		l1.1-5.2h9.6l1.1,5.2C16.9,20.2,16.8,20.2,16.8,20.2z M19.9,13c-0.7,0-1.2-0.6-1.2-1.2c0-0.7,0.6-1.2,1.2-1.2
		c0.7,0,1.2,0.6,1.2,1.2C21.2,12.5,20.6,13,19.9,13z"/>
</g>
<g id="Layer_4">
</g>
</svg>
