<?xml version="1.0" encoding="utf-8"?>
<!-- Generator: Adobe Illustrator 24.0.1, SVG Export Plug-In . SVG Version: 6.00 Build 0)  -->
<svg version="1.1" xmlns="http://www.w3.org/2000/svg" xmlns:xlink="http://www.w3.org/1999/xlink" x="0px" y="0px"
	 viewBox="0 0 24 24" style="enable-background:new 0 0 24 24;" xml:space="preserve">
<style type="text/css">
	.st0{display:none;}
	.st1{fill:#1D1D1B;}
	.st2{fill:#2B5780;}
	.st3{fill:#FFFFFF;}
	.st4{fill:#CE3F51;}
	.st5{fill:#39870C;}
	.st6{fill:#DCD400;}
	.st7{fill-rule:evenodd;clip-rule:evenodd;fill:#1D1D1B;}
</style>
<g id="Layer_3" class="st0">
</g>
<g id="Layer_1">
	<path class="st1" d="M20.7,19.1l-4.4-4.4c0.9-1.2,1.4-2.7,1.4-4.3c0-4.1-3.3-7.4-7.4-7.4S3,6.3,3,10.4s3.3,7.4,7.4,7.4
		c1.6,0,3.1-0.5,4.3-1.4l4.4,4.4c0.2,0.2,0.5,0.3,0.8,0.3s0.6-0.1,0.8-0.3C21.1,20.2,21.1,19.5,20.7,19.1z M5.3,10.4
		c0-2.8,2.3-5.1,5.1-5.1c2.8,0,5.1,2.3,5.1,5.1s-2.3,5.1-5.1,5.1C7.5,15.5,5.3,13.2,5.3,10.4z"/>
</g>
<g id="Layer_4">
</g>
</svg>
