<svg id="soil" xmlns="http://www.w3.org/2000/svg" viewBox="0 0 24 24">
  <path fill="currentColor" d="M14.09,6.55a3.32,3.32,0,0,1,0-1.65,2.14,2.14,0,0,1,2-1.79c.5-.07,1-.09,1.52-.11.3,0,.4.09.38.39-.06.6-.09,1.21-.21,1.81A2.13,2.13,0,0,1,15.87,7C15.43,7.05,14.25,6.87,14.09,6.55Zm-3.18,0a3.32,3.32,0,0,0,0-1.65,2.14,2.14,0,0,0-2-1.79C8.4,3,7.89,3,7.38,3c-.3,0-.4.09-.38.39.06.6.09,1.21.21,1.81A2.13,2.13,0,0,0,9.13,7C9.57,7.05,10.75,6.87,10.91,6.55ZM13,10.89a2.12,2.12,0,0,0,1.8,1.91,15.48,15.48,0,0,0,1.8.2c.31,0,.4-.08.39-.39,0-.5-.05-1-.12-1.52a2.14,2.14,0,0,0-1.8-2,3.39,3.39,0,0,0-1.64,0C13.12,9.26,13,10.44,13,10.89Zm9,9-1-1c0-1-1-1-2-1s-2-1.06-4-1.06A5.13,5.13,0,0,0,12,15c-1.34-3-1.68-4.33-1.68-4.9,0-1.67,2-1.69,2.05-1.69a.72.72,0,0,0,0-1.44C11.22,7,9,8.07,9,10.13a18.32,18.32,0,0,0,1.67,5.1,2.19,2.19,0,0,0-.67.45s-4,0-4.8,1.94L4.83,18l-.4-.3c-.37-.29-.83,1.15-1.32,1.15C2,18.8,1,20.88,1,20.86V23H23V20.86C23,19.71,23,19.84,22,19.84Z"/>
</svg>
