<?xml version="1.0" encoding="utf-8"?>
<!-- Generator: Adobe Illustrator 24.0.1, SVG Export Plug-In . SVG Version: 6.00 Build 0)  -->
<svg version="1.1" xmlns="http://www.w3.org/2000/svg" xmlns:xlink="http://www.w3.org/1999/xlink" x="0px" y="0px"
	 viewBox="0 0 24 24" style="enable-background:new 0 0 24 24;" xml:space="preserve">
<style type="text/css">
	.st0{display:none;}
	.st1{fill:#1D1D1B;}
	.st2{fill:#2B5780;}
	.st3{fill:#FFFFFF;}
	.st4{fill:#CE3F51;}
	.st5{fill:#39870C;}
	.st6{fill:#DCD400;}
	.st7{fill-rule:evenodd;clip-rule:evenodd;fill:#1D1D1B;}
</style>
<g id="Layer_3" class="st0">
</g>
<g id="Layer_1">
	<g>
		<g>
			<path class="st4" d="M22.7,17.8c0.9,1.4,0.3,2.6-1.3,2.6H2.6c-1.6,0-2.1-1.2-1.3-2.6L10.4,3c0.9-1.4,2.3-1.4,3.1,0L22.7,17.8z"/>
			<path class="st3" d="M12,1.9c0.6,0,1.1,0.4,1.6,1.1l9.1,14.9c0.9,1.4,0.3,2.6-1.3,2.6H2.6c-1.6,0-2.1-1.2-1.3-2.6L10.4,3
				C10.9,2.3,11.4,1.9,12,1.9 M12,1c-0.9,0-1.8,0.5-2.4,1.5L0.5,17.3c-0.6,1-0.7,2-0.3,2.8c0.4,0.7,1.3,1.2,2.3,1.2h18.8
				c1.1,0,1.9-0.4,2.3-1.2c0.4-0.8,0.3-1.8-0.3-2.8L14.4,2.5C13.8,1.5,12.9,1,12,1L12,1z"/>
		</g>
		<path class="st3" d="M12,14.9c-0.6,0-1.2-0.5-1.2-1.2V5.8c0-0.6,0.5-1.2,1.2-1.2c0.6,0,1.2,0.5,1.2,1.2v7.9
			C13.1,14.3,12.6,14.9,12,14.9z"/>
		<circle class="st3" cx="12" cy="17.4" r="1.4"/>
	</g>
</g>
<g id="Layer_4">
</g>
</svg>
