<?xml version="1.0" encoding="utf-8"?>
<!-- Generator: Adobe Illustrator 24.0.1, SVG Export Plug-In . SVG Version: 6.00 Build 0)  -->
<svg version="1.1" xmlns="http://www.w3.org/2000/svg" xmlns:xlink="http://www.w3.org/1999/xlink" x="0px" y="0px"
	 viewBox="0 0 24 24" style="enable-background:new 0 0 24 24;" xml:space="preserve">
<style type="text/css">
	.st0{display:none;}
	.st1{fill:#1D1D1B;}
	.st2{fill:#2B5780;}
	.st3{fill:#FFFFFF;}
	.st4{fill:#CE3F51;}
	.st5{fill:#39870C;}
	.st6{fill:#DCD400;}
	.st7{fill-rule:evenodd;clip-rule:evenodd;fill:#1D1D1B;}
</style>
<g id="Layer_3" class="st0">
</g>
<g id="Layer_1">
	<path class="st1" d="M20,0H4C1.8,0,0,1.8,0,4v2.8v2V20c0,2.2,1.8,4,4,4h16c2.2,0,4-1.8,4-4V8.8v-2V4C24,1.8,22.2,0,20,0z M4,22
		c-1.1,0-2-0.9-2-2V7.8h5.1V22H4z M9.1,22V7.8h5.7V22H9.1z M22,20c0,1.1-0.9,2-2,2h-3.3V7.8H22V20z M2,5.8V4c0-1.1,0.9-2,2-2h16
		c1.1,0,2,0.9,2,2v1.8H2z"/>
</g>
<g id="Layer_4">
</g>
</svg>
