<?xml version="1.0" encoding="utf-8"?>
<!-- Generator: Adobe Illustrator 24.0.1, SVG Export Plug-In . SVG Version: 6.00 Build 0)  -->
<svg version="1.1" xmlns="http://www.w3.org/2000/svg" xmlns:xlink="http://www.w3.org/1999/xlink" x="0px" y="0px"
	 viewBox="0 0 24 24" style="enable-background:new 0 0 24 24;" xml:space="preserve">
<style type="text/css">
	.st0{display:none;}
	.st1{fill:#1D1D1B;}
	.st2{fill:#2B5780;}
	.st3{fill:#FFFFFF;}
	.st4{fill:#CE3F51;}
	.st5{fill:#39870C;}
	.st6{fill:#DCD400;}
	.st7{fill-rule:evenodd;clip-rule:evenodd;fill:#1D1D1B;}
</style>
<g id="Layer_3" class="st0">
</g>
<g id="Layer_1">
	<path class="st1" d="M14,12.2l3.7-3.7c0.5-0.5,0.5-1.3,0-1.8s-1.3-0.5-1.8,0l-3.7,3.7L8.6,6.7c-0.5-0.5-1.3-0.5-1.8,0
		S6.3,8,6.8,8.5l3.7,3.7l-3.7,3.7c-0.5,0.5-0.5,1.3,0,1.8C7,17.9,7.4,18,7.7,18s0.6-0.1,0.9-0.4l3.7-3.7l3.7,3.7
		c0.2,0.2,0.6,0.4,0.9,0.4s0.6-0.1,0.9-0.4c0.5-0.5,0.5-1.3,0-1.8L14,12.2z"/>
</g>
<g id="Layer_4">
</g>
</svg>
