<?xml version="1.0" encoding="utf-8"?>
<!-- Generator: Adobe Illustrator 24.0.1, SVG Export Plug-In . SVG Version: 6.00 Build 0)  -->
<svg version="1.1" xmlns="http://www.w3.org/2000/svg" xmlns:xlink="http://www.w3.org/1999/xlink" x="0px" y="0px"
	 viewBox="0 0 24 24" style="enable-background:new 0 0 24 24;" xml:space="preserve">
<style type="text/css">
	.st0{display:none;}
	.st1{fill:#1D1D1B;}
	.st2{fill:#2B5780;}
	.st3{fill:#FFFFFF;}
	.st4{fill:#CE3F51;}
	.st5{fill:#39870C;}
	.st6{fill:#DCD400;}
	.st7{fill-rule:evenodd;clip-rule:evenodd;fill:#1D1D1B;}
</style>
<g id="Layer_3" class="st0">
</g>
<g id="Layer_1">
	<path class="st1" d="M18.2,4.4C18.2,4.1,18,4,17.8,4h-3.2V3.9c0-0.5-0.4-0.9-0.8-0.9h-3.3C10,3,9.7,3.4,9.7,3.9V4H6.4
		C6.1,4,6,4.1,6,4.4L5.7,5.7c0,0.2,0.2,0.4,0.4,0.4H18c0.2,0,0.4-0.2,0.4-0.4L18.2,4.4z"/>
	<path class="st1" d="M15.4,19.5c-0.3,0-0.6-0.3-0.6-0.6V9.7c0-0.3,0.3-0.6,0.6-0.6S16,9.3,16,9.7v9.2C16,19.2,15.7,19.5,15.4,19.5z
		 M17.8,20V8.3c0-0.5-0.4-1-1-1H7.3c-0.5,0-1,0.4-1,1V20c0,0.5,0.4,1,1,1h9.5C17.3,21,17.8,20.6,17.8,20z M8.9,19.5
		c-0.3,0-0.6-0.3-0.6-0.6V9.7c0-0.3,0.3-0.6,0.6-0.6s0.6,0.3,0.6,0.6v9.2C9.5,19.2,9.2,19.5,8.9,19.5z M12.1,19.5
		c-0.3,0-0.6-0.3-0.6-0.6V9.7c0-0.3,0.3-0.6,0.6-0.6s0.6,0.3,0.6,0.6v9.2C12.7,19.2,12.5,19.5,12.1,19.5z"/>
</g>
<g id="Layer_4">
</g>
</svg>
