<svg id="trash" xmlns="http://www.w3.org/2000/svg" viewBox="0 0 24 24">
  <path fill="currentColor" d="M19,2V5H5V2H9V1h6V2Zm0,6.16V21.84A1.16,1.16,0,0,1,17.84,23H6.16A1.16,1.16,0,0,1,5,21.84V8.16A1.16,1.16,0,0,1,6.16,7H17.84A1.16,1.16,0,0,1,19,8.16ZM9,9.6A.6.6,0,0,0,8.4,9H7.6a.6.6,0,0,0-.6.6V20.4a.6.6,0,0,0,.6.6h.8a.6.6,0,0,0,.6-.6Zm4,0a.6.6,0,0,0-.6-.6h-.8a.6.6,0,0,0-.6.6V20.4a.6.6,0,0,0,.6.6h.8a.6.6,0,0,0,.6-.6Zm4,0a.6.6,0,0,0-.6-.6h-.8a.6.6,0,0,0-.6.6V20.4a.6.6,0,0,0,.6.6h.8a.6.6,0,0,0,.6-.6Z"/>
</svg>
