<?xml version="1.0" encoding="utf-8"?>
<!-- Generator: Adobe Illustrator 24.0.1, SVG Export Plug-In . SVG Version: 6.00 Build 0)  -->
<svg version="1.1" xmlns="http://www.w3.org/2000/svg" xmlns:xlink="http://www.w3.org/1999/xlink" x="0px" y="0px"
	 viewBox="0 0 24 24" style="enable-background:new 0 0 24 24;" xml:space="preserve">
<style type="text/css">
	.st0{display:none;}
	.st1{fill:#1D1D1B;}
	.st2{fill:#2B5780;}
	.st3{fill:#FFFFFF;}
	.st4{fill:#CE3F51;}
	.st5{fill:#39870C;}
	.st6{fill:#DCD400;}
	.st7{fill-rule:evenodd;clip-rule:evenodd;fill:#1D1D1B;}
</style>
<g id="Layer_3" class="st0">
</g>
<g id="Layer_1">
	<g>
		<path class="st1" d="M6.3,16.2c-0.3,0-0.6,0.1-0.8,0.3C5,16.9,5,17.7,5.4,18.2C7.1,20,9.4,21,11.8,21c0.9,0,1.8-0.1,2.6-0.4
			c3.3-1.1,5.5-3.5,6.3-6.6c0.7-3-0.2-6.1-2.4-8.3C14.7,2.1,9,2.1,5.5,5.6C5.3,5.8,5.2,6.1,5.2,6.4c0,0.3,0.1,0.6,0.3,0.8
			C5.7,7.5,6,7.6,6.4,7.6c0.3,0,0.6-0.1,0.8-0.3c2.6-2.5,6.8-2.5,9.3,0c1.6,1.6,2.3,3.9,1.8,6.1c-0.5,2.3-2.3,4.1-4.7,4.9
			c-2.2,0.7-4.7,0.1-6.4-1.7C7,16.3,6.6,16.2,6.3,16.2z"/>
	</g>
	<path class="st1" d="M9.2,9C9.5,9.3,9.4,9.6,9,9.6l-5.7,0l0-5.7c0-0.4,0.2-0.5,0.5-0.2L9.2,9z"/>
</g>
<g id="Layer_4">
</g>
</svg>
