<?xml version="1.0" encoding="utf-8"?>
<!-- Generator: Adobe Illustrator 24.0.1, SVG Export Plug-In . SVG Version: 6.00 Build 0)  -->
<svg version="1.1" xmlns="http://www.w3.org/2000/svg" xmlns:xlink="http://www.w3.org/1999/xlink" x="0px" y="0px"
	 viewBox="0 0 24 24" style="enable-background:new 0 0 24 24;" xml:space="preserve">
<style type="text/css">
	.st0{display:none;}
	.st1{fill:#1D1D1B;}
	.st2{fill:#2B5780;}
	.st3{fill:#FFFFFF;}
	.st4{fill:#CE3F51;}
	.st5{fill:#39870C;}
	.st6{fill:#DCD400;}
	.st7{fill-rule:evenodd;clip-rule:evenodd;fill:#1D1D1B;}
</style>
<g id="Layer_3" class="st0">
</g>
<g id="Layer_1">
	<path class="st1" d="M16.9,3.3c-1,0-1.8,0.4-2.4,1.1C13.7,2.7,12,1.5,10,1.5c-2.7,0-4.9,2.2-4.9,4.9s2.2,4.9,4.9,4.9
		c2,0,3.6-1.2,4.4-2.8c0.6,0.7,1.5,1.2,2.4,1.2c1.8,0,3.2-1.4,3.2-3.2S18.6,3.3,16.9,3.3z"/>
	<path class="st1" d="M22.3,15.8l-1.4-3.3c-0.3-0.7-1-1.2-1.8-1.5c-0.6,0.4-1.4,0.6-2.2,0.6c-0.8,0-1.6-0.3-2.3-0.7
		c-0.8,0.2-1.5,0.7-1.8,1.3c-0.8,0.4-1.8,0.6-2.7,0.6c-1.3,0-2.5-0.4-3.5-1.1c-1.4,0.4-2.6,1.2-3.1,2.3l-2.1,5.1
		c-0.4,1.1,0,2.2,1.3,2.3h7.2H17c1.3,0,1.7-1.2,1.3-2.3l-0.8-2h3.9C22.3,17.2,22.6,16.5,22.3,15.8z"/>
</g>
<g id="Layer_4">
</g>
</svg>
