<svg id="users" xmlns="http://www.w3.org/2000/svg" viewBox="0 0 24 24">
  <path fill="currentColor" d="M5,7.09V6.91A4.93,4.93,0,0,1,9.91,2h.18a4.92,4.92,0,0,1,4.77,3.81,2.86,2.86,0,0,1,2-.81h.3A2.86,2.86,0,0,1,20,7.85v.3A2.86,2.86,0,0,1,17.15,11h-.3a2.83,2.83,0,0,1-2.5-1.52A4.9,4.9,0,0,1,10.09,12H9.91A4.93,4.93,0,0,1,5,7.09ZM22.91,16.6l-1.46-3.16a3.06,3.06,0,0,0-2-1.39A4.87,4.87,0,0,1,14.67,12a5.1,5.1,0,0,0-.94.37h0a6.83,6.83,0,0,1-7.21-.08,4.82,4.82,0,0,0-3.18,2.33L1.14,19.73C.75,20.81,1.17,22,2.51,22h15c1.34,0,1.76-1.19,1.37-2.27L18.12,18H22A1,1,0,0,0,22.91,16.6Z"/>
</svg>
