<?xml version="1.0" encoding="utf-8"?>
<!-- Generator: Adobe Illustrator 24.0.1, SVG Export Plug-In . SVG Version: 6.00 Build 0)  -->
<svg version="1.1" xmlns="http://www.w3.org/2000/svg" xmlns:xlink="http://www.w3.org/1999/xlink" x="0px" y="0px"
	 viewBox="0 0 24 24" style="enable-background:new 0 0 24 24;" xml:space="preserve">
<style type="text/css">
	.st0{display:none;}
	.st1{fill:#1D1D1B;}
	.st2{fill:#2B5780;}
	.st3{fill:#FFFFFF;}
	.st4{fill:#CE3F51;}
	.st5{fill:#39870C;}
	.st6{fill:#DCD400;}
	.st7{fill-rule:evenodd;clip-rule:evenodd;fill:#1D1D1B;}
</style>
<g id="Layer_3" class="st0">
</g>
<g id="Layer_1">
	<g>
		<g>
			<path class="st1" d="M12.4,11.8L12.4,11.8c-2.7,0-4.9-2.2-4.9-4.9v0C7.5,4.2,9.7,2,12.4,2h0c2.7,0,4.9,2.2,4.9,4.9v0
				C17.3,9.6,15.1,11.8,12.4,11.8z"/>
		</g>
		<path class="st1" d="M20.8,19.7l-2.1-5.1c-0.5-1.1-1.6-1.8-2.8-2.3c-1,0.6-2.2,1-3.4,1c-1.3,0-2.5-0.4-3.5-1.1
			c-1.4,0.4-2.6,1.2-3.1,2.3l-2.1,5.1C3.3,20.8,3.7,22,5,22h7.2h7.2C20.8,22,21.2,20.8,20.8,19.7z"/>
	</g>
</g>
<g id="Layer_4">
</g>
</svg>
