<?xml version="1.0" encoding="utf-8"?>
<!-- Generator: Adobe Illustrator 24.0.1, SVG Export Plug-In . SVG Version: 6.00 Build 0)  -->
<svg version="1.1" xmlns="http://www.w3.org/2000/svg" xmlns:xlink="http://www.w3.org/1999/xlink" x="0px" y="0px"
	 viewBox="0 0 24 24" style="enable-background:new 0 0 24 24;" xml:space="preserve">
<style type="text/css">
	.st0{display:none;}
	.st1{fill:#1D1D1B;}
	.st2{fill:#2B5780;}
	.st3{fill:#FFFFFF;}
	.st4{fill:#CE3F51;}
	.st5{fill:#39870C;}
	.st6{fill:#DCD400;}
	.st7{fill-rule:evenodd;clip-rule:evenodd;fill:#1D1D1B;}
</style>
<g id="Layer_3" class="st0">
</g>
<g id="Layer_1">
	<g>
		<path class="st1" d="M12.4,2C9.7,2,7.5,4.2,7.5,6.9s2.2,4.9,4.9,4.9c2.7,0,4.9-2.2,4.9-4.9S15.1,2,12.4,2z M12.4,9.7
			c-1.5,0-2.8-1.3-2.8-2.8s1.3-2.8,2.8-2.8c1.5,0,2.8,1.3,2.8,2.8S14,9.7,12.4,9.7z"/>
	</g>
	<path class="st1" d="M19.5,22h-7.2H5c-1.3,0-1.7-1.2-1.3-2.3l2.1-5.1c0.5-1.2,1.7-1.9,3.1-2.3c1,0.7,2.2,1.1,3.5,1.1
		c1.3,0,2.4-0.4,3.4-1c1.3,0.4,2.4,1.2,2.8,2.3l2.1,5.1C21.2,20.8,20.8,22,19.5,22z M18.2,19.3l-1.5-3.5c-0.3-0.7-0.5-1-1.4-1.3
		c-0.7,0.4-1.9,0.6-3,0.6s-2.3-0.2-3-0.6c-0.8,0.3-1.1,0.6-1.4,1.3l-1.5,3.5c-0.1,0.2-0.4,0.9,0.4,0.9h10.8
		C18.5,20.3,18.2,19.6,18.2,19.3z"/>
</g>
<g id="Layer_4">
</g>
</svg>
