<svg id="user-line" xmlns="http://www.w3.org/2000/svg" viewBox="0 0 24 24">
  <path fill="currentColor" d="M11.91,12h.18A4.93,4.93,0,0,0,17,7.09V6.91A4.93,4.93,0,0,0,12.09,2h-.18A4.93,4.93,0,0,0,7,6.91v.18A4.93,4.93,0,0,0,11.91,12ZM9,6.91A2.92,2.92,0,0,1,11.91,4h.18A2.92,2.92,0,0,1,15,6.91v.18A2.92,2.92,0,0,1,12.09,10h-.18A2.92,2.92,0,0,1,9,7.09ZM20.86,19.73l-2.19-5.4a4.63,4.63,0,0,0-3-2.26A6.8,6.8,0,0,1,8.51,12a4.82,4.82,0,0,0-3.18,2.33l-2.19,5.4C2.75,20.81,3.17,22,4.51,22h15C20.83,22,21.25,20.81,20.86,19.73ZM5.2,20l2-4.87a2.29,2.29,0,0,1,1.18-.94,8.75,8.75,0,0,0,3.84.88,8.82,8.82,0,0,0,3.65-.8,2.08,2.08,0,0,1,1,.84l2,4.89Z"/>
</svg>
