<?xml version="1.0" encoding="utf-8"?>
<!-- Generator: Adobe Illustrator 24.0.1, SVG Export Plug-In . SVG Version: 6.00 Build 0)  -->
<svg version="1.1" xmlns="http://www.w3.org/2000/svg" xmlns:xlink="http://www.w3.org/1999/xlink" x="0px" y="0px"
	 viewBox="0 0 24 24" style="enable-background:new 0 0 24 24;" xml:space="preserve">
<style type="text/css">
	.st0{display:none;}
	.st1{fill:#1D1D1B;}
	.st2{fill:#2B5780;}
	.st3{fill:#FFFFFF;}
	.st4{fill:#CE3F51;}
	.st5{fill:#39870C;}
	.st6{fill:#DCD400;}
	.st7{fill-rule:evenodd;clip-rule:evenodd;fill:#1D1D1B;}
</style>
<g id="Layer_3" class="st0">
</g>
<g id="Layer_1">
	<g>
		<path class="st1" d="M19.6,15.3c0,3.7-3.4,6.7-7.5,6.7s-7.5-3-7.5-6.7c0-3.1,3.5-7.2,5.6-10c1.5-2,1.9-3.3,1.9-3.3
			s0.4,1.4,1.9,3.3C16.1,8.2,19.6,12.2,19.6,15.3z M9.6,16.4c-1.3-1.2-1.8-2.7-1.6-4c-0.9,0.7-1.4,1.8-1.4,3c0,2.2,1.8,4.1,4.1,4.1
			c1.6,0,2.9-0.9,3.6-2.2C13.1,18.1,11.1,17.7,9.6,16.4z"/>
	</g>
</g>
<g id="Layer_4">
</g>
</svg>
