<svg xmlns="http://www.w3.org/2000/svg" viewBox="0 0 226.8 226.8"><style>.st11{fill:#39870c;stroke:#fff;stroke-width:3.7729;stroke-miterlimit:10}</style><g id="Icoon"><path d="M212 207.7s2.8-13-10.5-13.1c-13.4-.1-8.3-26.7-26.3-26.8-14.5 0-1.7-24-16.8-24.2-27.4-.3-39.4-10.6-56.9-10.6-8.9 0-18.6 19.3-19.9 23.3-19.3 1.2-4.5 9.6-24.4 9.9-9.8.2-10.6 13.8-16.3 20.6-8.4 2.8-7.6 1.7-12.9 7.1-5.2 5.3-9.2 13.2-9.2 13.2l193.2.6z" fill="#39870c"/><path d="M134.1 85.1l58.5 30.4s-25.3 43.2-61 43.2c-11.7 0-27.4-10.6-27.4-27 0-14.9 29.9-46.6 29.9-46.6z" fill="#39870c" stroke="#fff" stroke-width="4.252" stroke-miterlimit="10"/><path class="st11" d="M196.4 19.1l-4.7-1.9c-4.2-1.7-9 .4-10.7 4.6l-26.3 65.5 20.1 8L201 29.8c1.7-4.2-.4-9-4.6-10.7zM154.1 88.4l-3.9 9.6c-1.7 4.2.4 9 4.6 10.7l4.7 1.9c4.2 1.7 9-.4 10.7-4.6l3.9-9.6-20-8z"/></g></svg>