<svg xmlns="http://www.w3.org/2000/svg" viewBox="0 0 226.8 226.8"><style>.st0{fill:#39870c}.st1{fill:#fff}</style><g id="Icoon"><path class="st0" d="M217.2 153.6h-5.4v49.2c0 1.1-.9 2-2 2h-78.1c-1.1 0-2-.9-2-2v-49.3l-5.4.1c-.7-.9-.5-2.4.3-3.1l21.9-17.2v-26.8h-3.2c-.4-.5-.3-1.4.2-1.8l26.1-20.4c.4-.3 1-.3 1.4 0l26.1 20.4c.5.4.6 1.3.2 1.8h-3.2v26.1l22.8 17.8c.8.8 1 2.3.3 3.2z"/><circle class="st1" cx="170.4" cy="113.6" r="11.5"/><path class="st0" d="M135.2 160.8H81.9v-146l53.3 11.7z"/><path class="st1" d="M89.1 34.2h8.5V56h-8.5zM104.4 34.2h8.5V56h-8.5zM119.8 34.2h8.5V56h-8.5zM89.1 63.9h8.5v21.8h-8.5zM104.4 63.9h8.5v21.8h-8.5zM119.8 63.9h8.5v21.8h-8.5zM89.1 93.6h8.5v21.8h-8.5zM104.4 93.6h8.5v21.8h-8.5zM119.8 93.6h8.5v21.8h-8.5zM89.1 123.3h8.5v21.8h-8.5zM104.4 123.3h8.5v21.8h-8.5zM119.8 123.3h8.5v21.8h-8.5z"/><g><path class="st0" d="M143.2 129.8c0-.6-.3-1.2-1.9-1l-32.3 22v-21c0-.6-.3-1.2-1.9-1l-32.3 22v-21c0-.6-.3-1.2-1.9-1l-30.9 22c-.3.2-.4.5-.4.8v59.5c0 .6.5 1 1 1h99.5c.6 0 1-.5 1-1v-81.3z"/><path class="st1" d="M76.4 190.1H55.1c-.8 0-1.4-.6-1.4-1.4v-16.3c0-.8.6-1.4 1.4-1.4h21.3c.8 0 1.4.6 1.4 1.4v16.3c0 .8-.6 1.4-1.4 1.4zM105.5 190.1H84.2c-.8 0-1.4-.6-1.4-1.4v-16.3c0-.8.6-1.4 1.4-1.4h21.3c.8 0 1.4.6 1.4 1.4v16.3c0 .8-.7 1.4-1.4 1.4zM134.5 190.1h-21.3c-.8 0-1.4-.6-1.4-1.4v-16.3c0-.8.6-1.4 1.4-1.4h21.3c.8 0 1.4.6 1.4 1.4v16.3c.1.8-.6 1.4-1.4 1.4z"/><path class="st0" d="M36.4 212.5H15.7c-.8 0-1.4-.6-1.4-1.4V93c0-.8.6-1.4 1.4-1.4h20.7c.8 0 1.4.6 1.4 1.4v118c0 .8-.6 1.5-1.4 1.5z"/></g></g></svg>