<svg xmlns="http://www.w3.org/2000/svg" viewBox="0 0 226.8 226.8"><style>.st0{fill:#39870c}</style><g id="Icoon"><path class="st0" d="M44.8 62.8c-11.5 0-11.5 12.4-11.5 12.4v128.1h23.4V75.2c-.1 0-.4-12.4-11.9-12.4zM75.5 62.8C64 62.8 64 75.2 64 75.2v128.1h23.4V75.2c-.1 0-.4-12.4-11.9-12.4zM106.2 62.8c-11.5 0-11.5 12.4-11.5 12.4v128.1H118V75.2s-.3-12.4-11.8-12.4zM136.9 62.8c-11.5 0-11.5 12.4-11.5 12.4v128.1h23.4V75.2c-.1 0-.4-12.4-11.9-12.4zM178.6 39h-23.1c-.8 0-1.4-.6-1.4-1.4V15.9c0-.8.6-1.4 1.4-1.4h23.1c.8 0 1.4.6 1.4 1.4v21.7c0 .8-.6 1.4-1.4 1.4zM211 39h-26.2c-.8 0-1.4-.6-1.4-1.4V15.9c0-.8.6-1.4 1.4-1.4H211c.8 0 1.4.6 1.4 1.4v21.7c0 .8-.6 1.4-1.4 1.4zM165.9 93h-10.1c-.8 0-1.4-.6-1.4-1.4V69.8c0-.8.6-1.4 1.4-1.4h10.1c.8 0 1.4.6 1.4 1.4v21.7c0 .9-.6 1.5-1.4 1.5zM211 93h-38.9c-.8 0-1.4-.6-1.4-1.4V69.8c0-.8.6-1.4 1.4-1.4H211c.8 0 1.4.6 1.4 1.4v21.7c0 .9-.6 1.5-1.4 1.5zM178.6 203.3h-23.1c-.8 0-1.4-.6-1.4-1.4v-21.7c0-.8.6-1.4 1.4-1.4h23.1c.8 0 1.4.6 1.4 1.4v21.7c0 .8-.6 1.4-1.4 1.4zM211 203.3h-26.2c-.8 0-1.4-.6-1.4-1.4v-21.7c0-.8.6-1.4 1.4-1.4H211c.8 0 1.4.6 1.4 1.4v21.7c0 .8-.6 1.4-1.4 1.4zM186.7 121.8h-31.2c-.8 0-1.4-.6-1.4-1.4V98.7c0-.8.6-1.4 1.4-1.4h31.2c.8 0 1.4.6 1.4 1.4v21.7c0 .8-.6 1.4-1.4 1.4zM211 121.8h-18.2c-.8 0-1.4-.6-1.4-1.4V98.7c0-.8.6-1.4 1.4-1.4H211c.8 0 1.4.6 1.4 1.4v21.7c0 .8-.6 1.4-1.4 1.4zM165.3 176.1h-9.9c-.8 0-1.4-.6-1.4-1.4V153c0-.8.6-1.4 1.4-1.4h9.9c.8 0 1.4.6 1.4 1.4v21.7c0 .8-.6 1.4-1.4 1.4zM211 176.1h-39c-.8 0-1.4-.6-1.4-1.4V153c0-.8.6-1.4 1.4-1.4h39c.8 0 1.4.6 1.4 1.4v21.7c0 .8-.6 1.4-1.4 1.4zM192.5 65h-36.8c-.8 0-1.4-.6-1.4-1.4V43.8c0-.8.6-1.4 1.4-1.4h36.8c.8 0 1.4.6 1.4 1.4v19.8c0 .8-.7 1.4-1.4 1.4zM211 65h-12c-.8 0-1.4-.6-1.4-1.4V43.8c0-.8.6-1.4 1.4-1.4h12c.8 0 1.4.6 1.4 1.4v19.8c0 .8-.6 1.4-1.4 1.4zM192.5 148.1h-36.8c-.8 0-1.4-.6-1.4-1.4v-19.8c0-.8.6-1.4 1.4-1.4h36.8c.8 0 1.4.6 1.4 1.4v19.8c0 .8-.7 1.4-1.4 1.4zM211 148.1h-12c-.8 0-1.4-.6-1.4-1.4v-19.8c0-.8.6-1.4 1.4-1.4h12c.8 0 1.4.6 1.4 1.4v19.8c0 .8-.6 1.4-1.4 1.4z"/><circle cx="58.7" cy="168" r="42.5" fill="#fff" stroke="#39870c" stroke-width="4" stroke-miterlimit="10"/><path class="st0" d="M56.3 190.9c-.4-.3-.7-.8-.7-1.4v-16.9H38.7c-.7 0-1.2-.2-1.5-.5-.3-.3-.4-1-.4-1.9v-.7c0-2.1.6-3.2 1.9-3.2h16.9v-16.9c0-.7.2-1.2.7-1.5.4-.3 1.2-.4 2.2-.4h.7c1 0 1.7.2 2.2.5.4.3.7.8.7 1.4v16.9h16.8c.7 0 1.2.2 1.5.7.3.4.4 1.2.4 2.2v.7c0 1-.1 1.7-.4 2.2-.3.4-.8.7-1.5.7h-17v16.9c0 .6-.2 1.1-.7 1.4-.4.3-1.2.5-2.2.5h-.7c-.9-.3-1.6-.4-2-.7z"/></g></svg>