<svg xmlns="http://www.w3.org/2000/svg" viewBox="0 0 226.8 226.8"><style>.st0{fill:#39870c}.st1{fill:#fff}</style><g id="Icoon"><path class="st0" d="M198.2 90.7S94.7 66.3 80.8 67c-36.3 2-69.7 57.5-65.7 70.4s25.8 18.9 42.1 18c9.2-.5 19.1-4.6 19.1-4.6s-.4-17.8 15.8-23.6c11.3-4 52.5-18 52.5-18l53.6-18.5z"/><path class="st1" d="M126.4 96.7l-8.9 1.8-.8-13.8 9.1.6zM134.4 95l-5.2 1.2-.6-10.9 5.3.5zM139.8 94l-3 .5-.4-8.5 2.9.3z"/><ellipse transform="rotate(-50.074 90.229 138.75)" class="st0" cx="90.2" cy="138.8" rx="8.6" ry="5.8"/><ellipse transform="rotate(-50.074 106.404 131.825)" class="st0" cx="106.4" cy="131.8" rx="7.8" ry="5.2"/><ellipse transform="rotate(-51.053 130.343 120.607)" class="st0" cx="130.3" cy="120.6" rx="5.2" ry="3.5"/><ellipse transform="rotate(-51.053 139.503 116.433)" class="st0" cx="139.5" cy="116.4" rx="4.2" ry="2.8"/><path class="st1" d="M57.8 77.8c3.4-1.8 28.2-.4 29.3 2 1.1 2.4-18.6 23.7-20.2 24.7-1.6 1.1-5.4 3.7-21.4 2.5-7.3-.5-14.5-1.1-12.4-4.3 5.7-8.4 21.3-23.1 24.7-24.9z"/><g><path class="st0" d="M216.2 150.5h-7.4c-1.6 0-3.4 1.1-4 2.4l-.6 1.5L195 135c-.5-1.3-1.6-3.3-5.4-4.5-6.7-2.2-19.1-3.3-32.6-3.3s-25.9 1.1-32.6 3.3c-3.8 1.2-4.9 3.2-5.4 4.5l-9.9 20.9v-.1l-1.2-2.9c-.6-1.3-2.4-2.4-4-2.4h-7.4c-1.6 0-2.5 1.1-1.9 2.4l1.2 2.9c.6 1.3 2.4 2.4 4 2.4h4.6l2 3.5-2.9 6.1c-.7.3-1.1.9-1.1 1.6V208c0 2 1.6 3.5 3.5 3.5h15c2 0 3.5-1.6 3.5-3.5v-3.7h65.8v3.7c0 2 1.6 3.5 3.5 3.5h15c2 0 3.5-1.6 3.5-3.5l-.1-38.6c0-.9-.7-1.6-1.5-1.8l-3.4-7.2 1.3-2.3h4.6c1.6 0 3.4-1.1 4-2.4l1.2-2.9c.4-1.2-.4-2.3-2.1-2.3zM108 158.1zM157 127.2z"/><path class="st1" d="M156.3 153.6h38.1c2 0-5.3-15.5-7.2-17.4-1.2-1.2-60.5-1.2-61.7 0-1.9 1.9-9.2 17.4-7.2 17.4h38zM138.6 183.8h-18.1c-2 0-4.1-1.6-4.7-3.7l-1.8-5.6c-.6-2 .4-3.7 2.4-3.7h18.1c2 0 4.1 1.6 4.7 3.7l1.8 5.6c.6 2.1-.4 3.7-2.4 3.7zM175.3 183.8h18.1c2 0 4.1-1.6 4.7-3.7l1.8-5.6c.6-2-.4-3.7-2.4-3.7h-18.1c-2 0-4.1 1.6-4.7 3.7l-1.8 5.6c-.6 2.1.5 3.7 2.4 3.7z"/></g><g><path class="st0" d="M20.7 26.8l-6 2.2 13.7 20.4s15 3.5 23.9 2.9c8.9-.6 28.3-3.2 41.7-6s49-15.9 52.8-17.2c3.8-1.3 9.9-4.1 11.1-5.4s4.3-3.8 3.2-4.8c-1.1-1-2.7-2.1-4.8-1.3-2.1.8 1.4 0 1.4 0s-8.8-2.7-13.5-2.1c-4.8.6-90.7 25.9-97.9 25.3-4.6-.4-25.6-14-25.6-14z"/><path class="st0" d="M38.7 68.2c-.9 0-1.6-.6-1.9-1.4-.4-1.6.9-2.4 4.4-4.3h.1l32.6-14.1c1.4-.8 3.9-2.4 6.3-4 4.1-2.7 6.7-4.4 8-4.9l27.8-7.9c.6-.2 1-.3 1.3-.3.9 0 1.6.6 1.9 1.4.4 1.6-.9 2.4-4.4 4.3L90.1 50.4c-3.5 1.9-8 4-10.1 4.6L40.1 67.9c-.7.2-1.1.3-1.4.3z"/><path class="st1" d="M117.2 33c.6 0-.7.9-3.4 2.4L89.2 48.8c-3.4 1.8-7.8 3.9-9.8 4.5L39.5 66.2c-.4.1-.7.2-.9.2-.6 0 .7-.9 3.4-2.4l32.6-14.1c3.4-1.8 12-8.1 14-8.8l27.8-7.9c.4-.1.7-.2.8-.2m0-3.5c-.5 0-1.1.1-1.9.3l-27.7 7.9h-.2c-1.4.5-3.7 1.9-8.4 5.1-2.3 1.5-4.7 3.1-6.1 3.9l-32.4 14-.1.1-.1.1c-3.4 1.8-6 3.3-5.2 6.3.4 1.6 1.9 2.7 3.6 2.7.6 0 1.1-.1 1.9-.4l39.9-12.9c2.2-.7 6.8-2.8 10.4-4.8l24.6-13.4c3.4-1.8 6-3.3 5.2-6.3-.3-1.5-1.8-2.6-3.5-2.6z"/><g><path class="st0" d="M116.4 32.7l-27.8 7.9c-2 .6-10.6 6.9-14 8.8L42 63.5c-3.4 1.8-4.5 2.8-2.5 2.2l39.9-12.9c2-.6 6.4-2.7 9.8-4.5l24.6-13.4c3.5-1.9 4.6-2.9 2.6-2.2z"/></g></g></g></svg>