<svg xmlns="http://www.w3.org/2000/svg" viewBox="0 0 226.8 226.8"><style>.st0{fill:#39870c}</style><g id="Icoon"><path class="st0" d="M203 49.3c0-.1 0-.1 0 0 0-1.1-.6-2.1-1.6-2.5-.1-.1-.3-.1-.4-.2h-.2c-5.1-2-10-4.6-10.7-5.7-.9-2.3 1.4-9.1 3.3-12.9.5-1 .3-2.3-.5-3.1-.8-.8-2.1-1-3.1-.4-2.8 1.5-8.3 3.9-11.1 3.9-.4 0-.6-.1-.6-.1-1.6-.9-5-6.8-7.1-11.9-.4-1-1.4-1.6-2.5-1.6s-2 .8-2.4 1.8c-1.8 5.4-4.7 10.9-6.1 11.5 0 0-.2.1-.7.1-3.3 0-9.8-2.8-12-3.8-1-.5-2.2-.3-3 .5-.8.8-1 1.9-.6 3 2 4.6 4 10.8 3.7 12.9-1.3 1.2-6.5 3.9-11.1 5.9-.2.1-.3.1-.5.2-.9.4-1.5 1.2-1.6 2.1V49.8c.1.9.7 1.7 1.6 2.1.2.1.3.1.5.2 4.6 2 9.8 4.7 11.1 5.9.2 2.1-1.7 8.3-3.7 12.9-.4 1-.2 2.2.6 3 .8.8 2 1 3 .5 2.2-1.1 8.8-3.8 12-3.8.5 0 .7.1.7.1 1.3.6 4.2 6.1 6.1 11.5.4 1 1.3 1.8 2.4 1.8 1.1 0 2.1-.6 2.5-1.6 2.1-5.1 5.5-11 7.1-11.9 0 0 .2-.1.6-.1 2.7 0 8.3 2.4 11.1 3.9 1 .5 2.3.4 3.1-.4.8-.8 1-2 .5-3.1-1.9-3.8-4.2-10.5-3.3-12.9.7-1.1 5.6-3.8 10.7-5.7h.2c.1-.1.3-.1.4-.2 1-.7 1.6-1.6 1.6-2.7zm-34.4 13.2c-6.4 0-11.7-4.5-13-10.6-.1-.7-.2-1.5-.3-2.2v-.4-.4c0-.8.1-1.5.3-2.2 1.2-6 6.6-10.6 13-10.6s11.7 4.5 13 10.6c.1.7.2 1.5.3 2.2v.8c0 .8-.1 1.5-.3 2.2-1.3 6.1-6.6 10.6-13 10.6zM153.4 104.2h-.4c-2.9-21.5-21.3-38.1-43.6-38.1-17.6 0-32.8 10.3-39.9 25.3-3.2-1.2-6.7-1.9-10.3-1.9-16.2 0-29.4 13.1-29.4 29.4 0 4.2.9 8.1 2.4 11.7-10.2.8-18.2 9.2-18.2 19.6 0 10.9 8.8 19.7 19.7 19.7h119.7v-.2c18.1 0 32.7-14.7 32.7-32.7 0-18.1-14.6-32.8-32.7-32.8z"/><path d="M205.2 175.9c.2-.9.3-1.8.3-2.8 0-8.5-6.9-15.3-15.3-15.3-2 0-3.8.4-5.5 1-1.5-11.1-11-19.6-22.4-19.6-12.5 0-22.7 10.1-22.7 22.7v.8c-4.3 1.1-8.1 3.2-11.2 6.2-2.1-1.7-4.8-2.8-7.8-2.8-6.8 0-12.4 5.5-12.4 12.4 0 6.8 5.5 12.4 12.4 12.4h.3c1.8 12 12.2 21.3 24.8 21.3 6.1 0 11.7-2.2 16-5.8 2.1 5.3 7.2 9 13.1 9 5.9 0 11-3.6 13.1-8.8 2.7 1.7 5.8 2.6 9.2 2.6 9.7 0 17.6-7.9 17.6-17.6-.1-6.9-3.9-12.8-9.5-15.7z" fill="#39870c" stroke="#fff" stroke-width="5.333" stroke-miterlimit="10"/></g></svg>