<svg xmlns="http://www.w3.org/2000/svg" viewBox="0 0 226.8 226.8"><style>.st0{fill:#39870c}.st1{fill:#fff}</style><g id="Icoon"><path class="st0" d="M102.1 198.5h-59c-.1-.6-.1-1.1-.1-1.7 0-4.8 3.3-8.8 7.9-10.7-2.4-1.6-4-4.2-4-7.1 0-4.8 4.5-8.7 9.9-8.7.7-2.6 2.4-5 5-6.6 5.7-3.6 13.6-2.4 17.6 2.6 1.1 1.4 1.8 2.9 2.1 4.4 3.4-.3 7.2 1.2 9.8 4.1 2.4 2.6 3.2 5.8 2.6 8.5.6-.1 1.1-.1 1.7-.1 5.5 0 9.9 4 9.9 8.8.1 2.6-1.3 4.9-3.4 6.5z"/><path class="st0" d="M188.2 102.1c-.1-11.6-7.9-21.5-19.1-25.9 5.9-3.9 9.8-10.1 9.7-17.1-.1-11.7-10.8-21.2-24.1-21.2-1.6-6.3-5.7-12.1-12.1-16.1-13.8-8.7-33-5.9-42.8 6.3-2.7 3.3-4.3 7-5.1 10.7-8.2-.7-17.5 2.8-23.9 10-5.7 6.4-7.9 14.1-6.4 20.6-1.3-.2-2.7-.4-4.1-.3-13.3-.1-24.1 9.5-24 21.3 0 8.2 5.4 15.2 13.1 18.8-.4.3-.8.5-1.1.9-8.8 8.8-6.3 23.6 5.7 32.9 5.6 4.4 12.2 6.7 18.7 7.1l.1.1c.5.4 13.2 9.5 17.7 11.9 3.4 1.8 5.9 2.5 7 2.8.8 1.3 3.1 5.8 3.3 13.3.4 21.5-.5 24.9-4.1 27.8-3.4 2.8 29.1 3.2 26 0-3.6-3.8-8.6-9.1-9.9-27.7-.7-9.3-.1-12.5.2-13.4 10.9 1.1 15.8-5.2 17.9-9.5 9.4 3.9 21.4 3.2 31.3-2.8 10.9-6.6 15.9-17.7 13.7-27.7 7.5-5.4 12.4-13.6 12.3-22.8zm-89 54.3c-3 1-10-3.5-15.1-7.8 2.8-1.1 5.4-2.6 7.5-4.7.5-.5.9-1.1 1.3-1.7 1.6.7 3.3 1.3 5 1.9 1.4 6.1 2 11.5 1.3 12.3zm9.9-.9c-2.5.2-2.8-3.9-2.9-4.7-.1-1-.4-2.9-.8-4.8 2.7.5 5.4.8 8.2.9-1 4.2-3 8.5-4.5 8.6zm12.6 2c-1.7 1.4-5.1 1.6-5.6 1.4 0-1 2.6-5.9 5.2-10.3 1.2 1.3 2.4 2.5 3.8 3.5-.4 1.4-1.5 3.9-3.4 5.4z"/><path class="st1" d="M149.4 199.5c-12.3 0-13.5-2.6-13.8-3.4-.5-1.2-.3-2.5.6-3.5 2.2-2.4 5.1-5.7 6.4-18 .3-3 .4-5 .4-6.4-2.3 1.3-4.9 2.1-7.6 2.1h-1c-5.7-.4-10.6-4-12.8-9.2-3.1-.8-6.1-2.3-8.8-4.3-7-5.4-10.5-13.7-9.3-21.7-4.8-4.7-7.3-11.2-7-17.9.4-7.8 4.6-14.7 11.1-18.7-2.6-3.4-4-7.6-3.8-12 .4-9.2 7.7-16.5 16.8-17.1 1.7-4.4 4.7-8.2 8.7-10.8 3.6-2.3 7.7-3.5 11.9-3.5 7.7 0 14.9 3.9 19.1 10.4 1.3 2.1 2.3 4.3 2.9 6.7 1.5.2 3 .5 4.5 1.1 3.6-2.1 7.6-3.2 11.8-3.2 12.8 0 23.2 10.4 23.2 23.2 0 4.9-1.6 9.8-4.5 13.7.9 2.4 1.3 4.9 1.2 7.4-.2 3.4-1.3 6.6-3.1 9.3 3.4 5 5.1 11 4.7 17.1-.9 14.2-12.8 25.3-27 25.3-.6 0-1.2 0-1.8-.1-2.6-.2-5.1-.7-7.5-1.6-1.4.9-2.5 1.6-3.3 2-1.6.8-2.9 1.3-3.9 1.7-.6 1.3-1.4 3.7-1.6 7.2-.9 14.5-.3 16.7.9 18 .9 1 1.2 2.3.7 3.5-.7 2.1-2.8 2.7-8.1 2.7z"/><path class="st1" d="M141.4 57.9c6.5 0 12.9 3.2 16.7 9.1 1.6 2.5 2.6 5.2 3 7.9h.5c2.2 0 4.5.5 6.7 1.5 3.3-2.2 7.2-3.5 11.5-3.5 11.3 0 20.4 9.1 20.4 20.4 0 5.1-1.9 9.7-5 13.3 1.2 2.3 1.8 4.9 1.7 7.7-.2 3.7-1.6 6.9-3.9 9.4 3.7 4.6 5.8 10.6 5.4 16.9-.9 12.8-11.5 22.7-24.2 22.7-.5 0-1.1 0-1.6-.1-2.9-.2-5.6-.9-8.1-2-1.7 1.1-3.2 2.2-4.2 2.7-2.2 1.2-3.8 1.6-4.6 1.8-.5.9-2.2 4.1-2.5 9.5-.9 15.5-.4 18 1.8 20.2.8.8-1.9 1.2-5.5 1.2-5.3 0-12.3-.8-11.1-2.2 2.4-2.6 5.8-6.2 7.2-19.6.7-6.7.4-9 .3-9.7l-.9-2.1c-2.2 2.7-5.6 4.4-9.3 4.4h-.8c-5.2-.3-9.4-4-10.8-8.8-3.2-.6-6.4-2-9.2-4.1-6.8-5.2-9.6-13.4-7.9-20.5-4.7-4.1-7.6-10.1-7.3-16.8.4-8.3 5.7-15.2 12.9-18-3.7-3-5.9-7.6-5.7-12.7.4-8.2 7-14.5 15.1-14.5h.9c1.2-4.5 4-8.5 8.2-11.2 3.1-1.9 6.7-2.9 10.3-2.9m7.1 100.8c1.4 0 1.7-2.8 1.8-3.3.1-.7.3-2.1.6-3.4-1.3.2-2.6.3-3.9.3.4 1.3.5 2.6.4 4 0 .4-.1.9-.2 1.3.4.7.7 1.1 1 1.2.2-.1.3-.1.3-.1m6.9 1.1c1 0 2.4-.6 3.8-1.4-1.6-1.2-3-2.6-4.2-4.1-.5 2.8-.7 4.9-.4 5.3.3.2.5.2.8.2m-14-107.5c-4.8 0-9.4 1.4-13.5 3.9-4 2.6-7.2 6.2-9.2 10.5-9.7 1.5-17.2 9.6-17.6 19.6-.2 4 .8 8 2.7 11.4-5.9 4.6-9.6 11.6-10 19.3-.3 7 2.2 13.8 6.9 19-.8 8.6 3.1 17.3 10.5 23 2.6 2 5.4 3.5 8.5 4.4 2.8 5.5 8.3 9.2 14.6 9.6h1.2c1.5 0 3-.2 4.5-.6 0 .5-.1 1.1-.2 1.7-1.2 11.4-3.7 14.2-5.7 16.4l-.1.1c-1.7 1.8-2.1 4.3-1.1 6.5 1.5 3.4 5.1 4.1 8.4 4.6 2.4.3 5.3.5 8 .5 4.8 0 9.2-.3 10.8-4.3.9-2.2.4-4.8-1.3-6.6-.1-.1-.1-.2-.1-.2-.8-1.6-.2-12.2 0-15.7.1-2.3.6-4 .9-5.1.9-.3 1.9-.8 3.1-1.4.6-.3 1.4-.8 2.3-1.4 2.3.7 4.6 1.1 7 1.3.7 0 1.3.1 2 .1 15.7 0 28.8-12.3 29.9-28 .4-6.1-1.1-12.1-4.1-17.3 1.6-2.8 2.5-5.9 2.6-9.2.1-2.4-.2-4.8-.9-7.1 2.7-4.2 4.2-9.1 4.2-14.2 0-14.4-11.7-26.1-26.1-26.1-4.2 0-8.3 1-12 2.9-.7-.2-1.4-.4-2-.5-.7-2-1.6-3.9-2.8-5.7-4.7-7-12.7-11.4-21.4-11.4z"/><path class="st0" d="M196.7 114.4c.1-2.8-.5-5.4-1.7-7.7 3.1-3.6 5-8.2 5-13.3 0-11.3-9.1-20.4-20.4-20.4-4.3 0-8.2 1.3-11.5 3.5-2.3-1.1-4.8-1.6-7.1-1.5-.4-2.7-1.4-5.4-3-7.9-5.8-9.2-18-11.9-27-6.1-4.2 2.7-7 6.7-8.2 11.2-8.5-.5-15.6 6-16 14.4-.2 5.1 2 9.7 5.7 12.7-7.3 2.8-12.6 9.6-12.9 18-.3 6.6 2.6 12.7 7.3 16.8-1.7 7.1 1.2 15.3 7.9 20.5 2.8 2.2 6 3.5 9.2 4.1 1.3 4.8 5.8 7.1 10.8 8.8 5.3 1.8 11.4.7 11.4.7.2.7 0 0-.7 6.7-1.4 13.4-4.8 17-7.2 19.6-2 2.2 18.7 3.1 16.6 1-2.2-2.2-2.7-4.7-1.8-20.2.3-5.4 1.9-8.5 2.5-9.5 3.7-1.3 10.8-6 11.7-7.2 2.5 1.1 5.9 2.7 8.7 2.9 13.4.9 21.4-7.5 22.3-20.9.4-6.4-1.7-12.4-5.4-16.9 2.2-2.4 3.7-5.7 3.8-9.3zm-49.1 35.8c-.1 1.1-.4 7.7-.4 7.7-.6-.2-6.5-8.6-7.2-11 3.2-.9 7.1-.9 8.9-4.7-.6 2.7-1.1 6.5-1.3 8zm8.5 8.7c-.6-.9-.3-8.4.8-13.8 2.4 3 5.2 6.4 8.2 8.8-2.6 2.6-9 5-9 5z"/></g></svg>