<?xml version="1.0" encoding="utf-8"?>
<!-- Generator: Adobe Illustrator 22.0.1, SVG Export Plug-In . SVG Version: 6.00 Build 0)  -->
<svg version="1.1" id="Layer_1" xmlns="http://www.w3.org/2000/svg" xmlns:xlink="http://www.w3.org/1999/xlink" x="0px" y="0px"
	 width="12px" height="12px" viewBox="0 0 12 12" style="enable-background:new 0 0 12 12;" xml:space="preserve">
<style type="text/css">
	.st0{fill:#39870C;}
</style>
<path class="st0" d="M10.1,11.8l1.7-1.7c0.3-0.3,0.3-0.8,0-1.1l-3-3l3-3c0.3-0.3,0.3-0.8,0-1.1l-1.7-1.7C9.8-0.1,9.3-0.1,9,0.2l-3,3
	l-3-3c-0.3-0.3-0.8-0.3-1.1,0L0.2,1.9c-0.3,0.3-0.3,0.8,0,1.1l3,3l-3,3c-0.3,0.3-0.3,0.8,0,1.1l1.7,1.7c0.3,0.3,0.8,0.3,1.1,0l3-3
	l3,3C9.3,12.1,9.8,12.1,10.1,11.8z"/>
</svg>
