<svg id="environment" xmlns="http://www.w3.org/2000/svg" viewBox="0 0 24 24">
  <path fill="currentColor" d="M2,14a6.65,6.65,0,0,1-1,.15C-.41,15.8-.59,19.35,2.19,21.83,3.76,23.23,5.3,24,8.42,24c.57,0,1.18,0,1.85-.08A31.64,31.64,0,0,0,16,22.53s-1.39-.87-2.42-5.62c-.89-4.13-4.09-6.38-5.87-6.58-.41,0-.79-.07-1.15-.07-1.48,0-2.49.39-2.68,1a10.7,10.7,0,0,1-.66,1.66,8.39,8.39,0,0,1-.86-3.67c0-.23.09-.48.09-.7S2.1,8,1.87,8A10.05,10.05,0,0,0,.45,10.18a1.11,1.11,0,0,0-.08.72A11.66,11.66,0,0,0,2,14Zm2.43.73A14.92,14.92,0,0,0,7.23,18c1.37,1.07,2.1.81,2.11.81a.74.74,0,0,1,1,.35A.8.8,0,0,1,10,20.18c-.15.08-1.55.72-3.73-1a16,16,0,0,1-3.13-3.57ZM22,10a6.65,6.65,0,0,1,1-.15c1.41-1.68,1.59-5.23-1.19-7.71C20.24.77,18.7,0,15.58,0,15,0,14.4,0,13.73.08A31.64,31.64,0,0,0,8,1.47s1.39.87,2.42,5.62c.89,4.13,4.09,6.38,5.87,6.58.41,0,.79.07,1.15.07,1.48,0,2.49-.39,2.68-1a10.7,10.7,0,0,1,.66-1.66,8.39,8.39,0,0,1,.86,3.67c0,.23-.09.48-.09.7s.35.59.58.53a10.05,10.05,0,0,0,1.42-2.17,1.11,1.11,0,0,0,.08-.72A11.66,11.66,0,0,0,22,10ZM19.6,9.3A14.92,14.92,0,0,0,16.77,6c-1.37-1.07-2.1-.81-2.11-.81a.74.74,0,0,1-1-.35A.8.8,0,0,1,14,3.82c.15-.08,1.55-.72,3.73,1a16,16,0,0,1,3.13,3.57Z"/>
</svg>
