<svg id="health" xmlns="http://www.w3.org/2000/svg" viewBox="0 0 24 24">
  <path fill="currentColor" d="M22.49,13.09C20.8,16,17.58,19.23,12,23c-5.58-3.76-8.8-7-10.48-9.9H5.87l.61-.74,2.38,4.23,1.81-.14,2.42-6.61,2.61,6.47,2.68-3.21Zm-3.89-12C18.21,1,17.85,1,17.51,1,14.79,1,12.29,3.84,12,3.84S9.2,1,6.49,1c-.34,0-.7,0-1.09.05C3.05,1.27.33,3.35,0,7.32V8.64A9.42,9.42,0,0,0,.56,11.1H4.93L6.8,8.84l2.74,4.88,2.57-7,1.86,0,2.33,5.78,1.14-1.35,6,0A9.28,9.28,0,0,0,24,8.64V7.32C23.67,3.35,21,1.27,18.6,1.05Z"/>
</svg>
