<svg id="land" xmlns="http://www.w3.org/2000/svg" viewBox="0 0 24 24">
  <path fill="currentColor" d="M24,24H21l-1.38-1.81,1.67-1.27-.82-1.08,1.8-1.38L24,20.78M9.38,15.52h0a1,1,0,0,0-1-1h0a1,1,0,0,0-1,1h0a1,1,0,0,0,1,1h0A1,1,0,0,0,9.38,15.52ZM5.89,9v1.31H4.5l2.2,3.49,1.75-1.31,1.77,2.39a9.44,9.44,0,0,1,1.43-2.23L7.6,7.5H2.73L3.67,9ZM14,10.51a19.42,19.42,0,0,1-1.23-3H9.57l3.11,4.06A9.38,9.38,0,0,1,14,10.51Zm-13.1-3H0v7.45l.68-.4.92,1.53L4,14.63l1.47,2.46L1.6,19.41l-.08-.12h0L0,16.74V20.1c2.22.56,5.61.8,7.82-1.3ZM22.76,9.75c.45.06.87.13,1.24.21V12a15.7,15.7,0,0,0-2.23-.38C20.61,13.59,19.36,15,19,15S17.73,14,16.73,12.42a9.13,9.13,0,0,0-4,3.88L15,19a2.1,2.1,0,0,1,.79-.16,2.07,2.07,0,0,1,1.17.36L24,13.53v1.64l-6.29,5a2.2,2.2,0,0,1,.15.77,2.15,2.15,0,0,1-.28,1l1.51,2h-1.6l-.86-1.14a2,2,0,0,1-.89.21,2.19,2.19,0,0,1-1.13-.33L12.94,24H10.81l3-2.24a2,2,0,0,1-.16-.81A2.11,2.11,0,0,1,14,19.81L12.1,17.53c-.09.17-.18.34-.26.51l-.34.71c-1.73,3.47-5.34,4.82-8.62,4.82A11.52,11.52,0,0,1,0,23.2V21.12c2.63.88,7.69.8,9.71-3.26l.33-.69c1.08-2.22,2.3-4.73,5.67-6.48A13,13,0,0,1,14,5a5.18,5.18,0,0,1,5-5,5.38,5.38,0,0,1,5,5A11.86,11.86,0,0,1,22.76,9.75ZM14.91,21a.84.84,0,0,0,.83.84.84.84,0,0,0,0-1.68A.84.84,0,0,0,14.91,21ZM15.88,5A3.13,3.13,0,1,0,19,1.88,3.11,3.11,0,0,0,15.88,5Z"/>
</svg>
