<svg id="layers" xmlns="http://www.w3.org/2000/svg" viewBox="0 0 24 24">
  <path fill="currentColor" d="M20.63,14.39c.51.41.48.79,0,1.23l-7.52,5.76c-.56.42-.84.63-1.11.62h0c-.27,0-.55-.2-1.11-.62L3.37,15.62c-.48-.44-.51-.82,0-1.23l.85-.65,6.67,5.11c.56.41.84.62,1.11.61h0c.27,0,.55-.2,1.11-.61l6.67-5.11ZM13.09,3.55l7.54,5.77c.51.4.48.78,0,1.23l-7.52,5.76c-.56.42-.84.62-1.11.61h0c-.27,0-.55-.19-1.11-.61L3.37,10.55c-.48-.45-.51-.83,0-1.23l7.54-5.77C11.46,3.18,11.74,3,12,3S12.54,3.18,13.09,3.55Z"/>
</svg>
