<svg id="location-outline" xmlns="http://www.w3.org/2000/svg" viewBox="0 0 24 24">
  <g>
    <ellipse cx="12" cy="8.57" rx="4.5" ry="4.29" fill="none"/>
    <path d="M12,1.71A7.28,7.28,0,0,0,4.8,8.57c0,6,6.2,13.72,7.2,13.72s7.2-7.72,7.2-13.72C19.2,5.14,15.6,1.71,12,1.71Zm0,11.15A4.4,4.4,0,0,1,7.5,8.57,4.39,4.39,0,0,1,12,4.29a4.39,4.39,0,0,1,4.5,4.28A4.4,4.4,0,0,1,12,12.86Z" fill="#e17000"/>
    <path d="M12,0C7.21,0,3,4,3,8.57c0,3.85,2.18,7.91,3.48,10C8,21,10.25,24,12,24s4-3,5.53-5.45c1.3-2.07,3.47-6.13,3.47-10C21,4.17,16.63,0,12,0Zm0,22.29c-1,0-7.2-7.72-7.2-13.72A7.28,7.28,0,0,1,12,1.71c3.6,0,7.2,3.43,7.2,6.86C19.2,14.57,13,22.29,12,22.29Z"/>
  </g>
</svg>
