<svg xmlns="http://www.w3.org/2000/svg" width="24" height="24" viewBox="0 0 24 24"><path fill="currentColor" d="M10.2857143,-1 C11.7847729,-1 13,0.215227108 13,1.71428571 L13,3 L14.2857143,3 C15.7847729,3 17,4.21522711 17,5.71428571 L17,14.2857143 C17,15.7847729 15.7847729,17 14.2857143,17 L5.71428571,17 C4.21522711,17 3,15.7847729 3,14.2857143 L3,13 L1.71428571,13 C0.270747797,13 -0.909593834,11.8731227 -0.995046385,10.451061 L-1,10.2857143 L-1,1.71428571 C-1,0.215227108 0.215227108,-1 1.71428571,-1 L10.2857143,-1 Z M13,10.2857143 C13,11.7847729 11.7847729,13 10.2857143,13 L5,13 L5,14.2857143 C5,14.6802034 5.31979661,15 5.71428571,15 L14.2857143,15 C14.6802034,15 15,14.6802034 15,14.2857143 L15,5.71428571 C15,5.31979661 14.6802034,5 14.2857143,5 L13,5 L13,10.2857143 Z M10.2857143,1 L1.71428571,1 C1.31979661,1 1,1.31979661 1,1.71428571 L1,10.2857143 C1,10.6802034 1.31979661,11 1.71428571,11 L10.2857143,11 C10.6802034,11 11,10.6802034 11,10.2857143 L11,1.71428571 C11,1.31979661 10.6802034,1 10.2857143,1 Z" transform="translate(4 4)"/></svg>