<svg id="municipality" xmlns="http://www.w3.org/2000/svg" viewBox="0 0 24 24">
  <path fill="currentColor" d="M16,10V9H8v1H0V23H8v1h3V18h2v6h3V23h8V10ZM4,20H2V12H4Zm4,0H6V12H8Zm5-7H11V11h2Zm5,7H16V12h2Zm4,0H20V12h2ZM22,1.88a2.55,2.55,0,0,1,2,0V.51a2.53,2.53,0,0,0-2,0c-1,.41-2,.74-3-.26V0H18V6.38L16,6V3.5L12,2,8,3.5V6L0,7.5V9H8V8h8V9h8V7.5l-5-.94V4.2c1,1,2,.67,3,.25a2.55,2.55,0,0,1,2,0V3.09a2.55,2.55,0,0,0-2,0c-1,.41-2,.75-3-.25V1.63C20,2.63,21,2.29,22,1.88ZM12,6a1,1,0,1,1,1-1A1,1,0,0,1,12,6Z"/>
</svg>
