<svg id="pin-outline" xmlns="http://www.w3.org/2000/svg" viewBox="0 0 24 24">
  <g>
    <path d="M8.18,7.54a4.94,4.94,0,0,1,1.41-4A5.16,5.16,0,0,0,7,8.64a5.07,5.07,0,0,0,5.55,4.58,5,5,0,0,0,4.08-3,4.77,4.77,0,0,1-3.13,1.68A4.83,4.83,0,0,1,8.18,7.54Z" fill="none"/>
    <path d="M12,1.71A6.45,6.45,0,0,0,9.61,14.09L10.74,21a1.26,1.26,0,1,0,2.52,0l1.13-6.91A6.45,6.45,0,0,0,12,1.71Zm.5,11.51A5.07,5.07,0,0,1,7,8.64,5.16,5.16,0,0,1,9.59,3.58a4.94,4.94,0,0,0-1.41,4,4.83,4.83,0,0,0,5.27,4.35,4.77,4.77,0,0,0,3.13-1.68A5,5,0,0,1,12.5,13.22Z" fill="#79b929"/>
    <path d="M12,0A8.08,8.08,0,0,0,4,8.14a8.13,8.13,0,0,0,4.09,7.1l1,5.93a2.94,2.94,0,0,0,5.88,0l1-5.93A8.13,8.13,0,0,0,20,8.14,8.08,8.08,0,0,0,12,0Zm2.39,14.09L13.26,21a1.26,1.26,0,1,1-2.52,0L9.61,14.09A6.45,6.45,0,0,1,12,1.71a6.45,6.45,0,0,1,2.39,12.38Z"/>
  </g>
</svg>
