<svg id="procedures" xmlns="http://www.w3.org/2000/svg" viewBox="0 0 24 24">
  <path fill="currentColor" d="M7.14,8a.26.26,0,0,0-.26.26V9.42a6.64,6.64,0,0,0-2.73,1.13l-.82-.82a.27.27,0,0,0-.19-.08A.27.27,0,0,0,3,9.73L1.74,11a.27.27,0,0,0,0,.37l.82.82a6.81,6.81,0,0,0-1.15,2.73H.26a.26.26,0,0,0-.26.26v1.73a.26.26,0,0,0,.26.26H1.42a6.64,6.64,0,0,0,1.13,2.73l-.82.82a.27.27,0,0,0,0,.37L3,22.26a.27.27,0,0,0,.37,0l.82-.82a6.81,6.81,0,0,0,2.73,1.15v1.15a.26.26,0,0,0,.26.26H8.86a.26.26,0,0,0,.26-.26V22.58a6.64,6.64,0,0,0,2.73-1.13l.82.82a.27.27,0,0,0,.37,0l1.22-1.22a.27.27,0,0,0,0-.37l-.82-.82a6.81,6.81,0,0,0,1.15-2.73h1.15a.26.26,0,0,0,.26-.26V15.14a.26.26,0,0,0-.26-.26H14.58a6.64,6.64,0,0,0-1.13-2.73l.82-.82a.27.27,0,0,0,0-.37L13.05,9.74a.27.27,0,0,0-.18-.08.27.27,0,0,0-.19.08l-.82.82A6.81,6.81,0,0,0,9.13,9.41V8.26A.26.26,0,0,0,8.87,8ZM8,14a2,2,0,1,1-1.41.58A2,2,0,0,1,8,14ZM15.25.47a.21.21,0,0,0-.12.26l.31.83A5.23,5.23,0,0,0,13.77,3.1L13,2.73a.22.22,0,0,0-.27.1L12.15,4a.2.2,0,0,0,.1.27l.8.37A5.12,5.12,0,0,0,13,6.94l-.83.31A.19.19,0,0,0,12,7.5l.46,1.25a.21.21,0,0,0,.26.12l.83-.31a5.23,5.23,0,0,0,1.54,1.67l-.37.8a.21.21,0,0,0,.1.27l1.2.55a.2.2,0,0,0,.27-.1l.37-.8a5.12,5.12,0,0,0,2.27.09l.31.83a.19.19,0,0,0,.25.12l1.25-.46a.21.21,0,0,0,.12-.26l-.31-.83A5.23,5.23,0,0,0,22.23,8.9l.8.37a.21.21,0,0,0,.27-.1L23.85,8a.2.2,0,0,0-.1-.27L23,7.33A5.12,5.12,0,0,0,23,5.06l.83-.31A.19.19,0,0,0,24,4.5l-.46-1.25a.21.21,0,0,0-.26-.12l-.83.31A5.23,5.23,0,0,0,20.9,1.77l.37-.8a.2.2,0,0,0-.1-.27L20,.15a.22.22,0,0,0-.16,0,.23.23,0,0,0-.11.11l-.37.8A5.12,5.12,0,0,0,17.06,1L16.75.13A.2.2,0,0,0,16.5,0ZM17,3.19a3,3,0,1,1-1.68,1.55A3,3,0,0,1,17,3.19Z"/>
</svg>
