<svg xmlns="http://www.w3.org/2000/svg" width="254" height="72" viewBox="0 0 254 72">
  <g fill="none" fill-rule="evenodd">
    <path fill="#80BC00" fill-rule="nonzero" d="M24,4.54747351e-13 C10.7193676,4.54747351e-13 0,10.7193676 0,24 C0,37.2806324 10.7193676,48 24,48 C37.2806324,48 48,37.2806324 48,24 C47.9051383,10.7193676 37.1857708,4.54747351e-13 24,4.54747351e-13 Z"/>
    <path fill="#275937" fill-rule="nonzero" d="M24,8 C15.1213873,8 8,15.1213873 8,24 C8,32.8786127 15.1213873,40 24,40 C32.7861272,40 40,32.8786127 40,24 C40,15.1213873 32.7861272,8 24,8 Z"/>
    <path fill="#E17000" fill-rule="nonzero" d="M24,32 C28.4044944,32 32,28.4044944 32,24 C32,19.5955056 28.4044944,16 24,16 C19.5955056,16 16,19.5955056 16,24 C16,28.494382 19.5955056,32 24,32 L24,32 Z"/>
    <path fill="#666" fill-rule="nonzero" d="M70.58,67 C72.4466667,67 73.9433333,66.4466667 75.07,65.34 C76.1966667,64.2333333 76.76,62.4533333 76.76,60 C76.76,57.56 76.1966667,55.7833333 75.07,54.67 C73.9433333,53.5566667 72.4466667,53 70.58,53 L70.58,53 L66.54,53 C66.3266667,53 66.1733333,53.0466667 66.08,53.14 C65.9866667,53.2333333 65.94,53.3866667 65.94,53.6 L65.94,53.6 L65.94,66.4 C65.94,66.6133333 65.9866667,66.7666667 66.08,66.86 C66.1733333,66.9533333 66.3266667,67 66.54,67 L66.54,67 L70.58,67 Z M70.44,65.48 L67.7,65.48 L67.7,54.52 L70.44,54.52 C71.7866667,54.52 72.8733333,54.9633333 73.7,55.85 C74.5266667,56.7366667 74.94,58.12 74.94,60 C74.94,61.8933333 74.5266667,63.28 73.7,64.16 C72.8733333,65.04 71.7866667,65.48 70.44,65.48 L70.44,65.48 Z M82.78,67.12 C84.14,67.12 85.22,66.7733333 86.02,66.08 C86.82,65.3866667 87.22,64.44 87.22,63.24 C87.22,62.4 87.0433333,61.71 86.69,61.17 C86.3366667,60.63 85.9066667,60.2166667 85.4,59.93 C84.8933333,59.6433333 84.24,59.3466667 83.44,59.04 C82.6933333,58.7466667 82.17,58.53 81.87,58.39 C81.57,58.25 81.3033333,58.04 81.07,57.76 C80.8366667,57.48 80.72,57.1133333 80.72,56.66 C80.72,55.9533333 80.9566667,55.4 81.43,55 C81.9033333,54.6 82.5266667,54.4 83.3,54.4 C84.02,54.4 84.7133333,54.5733333 85.38,54.92 C85.42,54.9466667 85.5033333,54.9933333 85.63,55.06 C85.7566667,55.1266667 85.8533333,55.16 85.92,55.16 C86.0133333,55.16 86.1433333,55.02 86.31,54.74 C86.4766667,54.46 86.56,54.2466667 86.56,54.1 C86.56,53.9133333 86.4266667,53.74 86.16,53.58 C85.8533333,53.3666667 85.42,53.1966667 84.86,53.07 C84.3,52.9433333 83.7933333,52.88 83.34,52.88 C82.46,52.88 81.6833333,53.0366667 81.01,53.35 C80.3366667,53.6633333 79.8166667,54.1 79.45,54.66 C79.0833333,55.22 78.9,55.86 78.9,56.58 C78.9,57.3933333 79.06,58.05 79.38,58.55 C79.7,59.05 80.0866667,59.4266667 80.54,59.68 C80.9933333,59.9333333 81.6066667,60.2133333 82.38,60.52 C83.1,60.8 83.65,61.0366667 84.03,61.23 C84.41,61.4233333 84.7333333,61.6833333 85,62.01 C85.2666667,62.3366667 85.4,62.7466667 85.4,63.24 C85.4,63.9466667 85.1566667,64.5166667 84.67,64.95 C84.1833333,65.3833333 83.5533333,65.6 82.78,65.6 C82.1266667,65.6 81.5633333,65.52 81.09,65.36 C80.6166667,65.2 80.1733333,65.0066667 79.76,64.78 C79.5333333,64.6466667 79.3933333,64.58 79.34,64.58 C79.2333333,64.58 79.09,64.72 78.91,65 C78.73,65.28 78.64,65.5 78.64,65.66 C78.64,65.8066667 78.7666667,65.9733333 79.02,66.16 C79.3666667,66.4266667 79.88,66.6533333 80.56,66.84 C81.24,67.0266667 81.98,67.12 82.78,67.12 Z M95.2,67.12 C97.2133333,67.12 98.7466667,66.51 99.8,65.29 C100.853333,64.07 101.38,62.2933333 101.38,59.96 C101.38,57.6266667 100.853333,55.8633333 99.8,54.67 C98.7466667,53.4766667 97.2133333,52.88 95.2,52.88 C93.1866667,52.88 91.6566667,53.4766667 90.61,54.67 C89.5633333,55.8633333 89.04,57.6266667 89.04,59.96 C89.04,62.2933333 89.5666667,64.07 90.62,65.29 C91.6733333,66.51 93.2,67.12 95.2,67.12 Z M95.2,65.6 C93.7866667,65.6 92.71,65.12 91.97,64.16 C91.23,63.2 90.86,61.8 90.86,59.96 C90.86,58.1333333 91.23,56.75 91.97,55.81 C92.71,54.87 93.7866667,54.4 95.2,54.4 C96.6133333,54.4 97.6933333,54.87 98.44,55.81 C99.1866667,56.75 99.56,58.1333333 99.56,59.96 C99.56,61.8 99.1866667,63.2 98.44,64.16 C97.6933333,65.12 96.6133333,65.6 95.2,65.6 Z M112.92,67.04 C113.453333,67.04 113.72,66.8933333 113.72,66.6 L113.72,66.6 L113.72,54.52 L117.5,54.52 C117.646667,54.52 117.75,54.4733333 117.81,54.38 C117.87,54.2866667 117.9,54.1333333 117.9,53.92 L117.9,53.92 L117.9,53.6 C117.9,53.3866667 117.87,53.2333333 117.81,53.14 C117.75,53.0466667 117.646667,53 117.5,53 L117.5,53 L108.12,53 C107.986667,53 107.886667,53.0466667 107.82,53.14 C107.753333,53.2333333 107.72,53.3866667 107.72,53.6 L107.72,53.6 L107.72,53.92 C107.72,54.1333333 107.753333,54.2866667 107.82,54.38 C107.886667,54.4733333 107.986667,54.52 108.12,54.52 L108.12,54.52 L111.96,54.52 L111.96,66.6 C111.96,66.8933333 112.226667,67.04 112.76,67.04 L112.76,67.04 L112.92,67.04 Z M123.54,67.12 C125.033333,67.12 126.163333,66.67 126.93,65.77 C127.696667,64.87 128.08,63.5533333 128.08,61.82 C128.08,60.0733333 127.69,58.7366667 126.91,57.81 C126.13,56.8833333 125.006667,56.42 123.54,56.42 C122.046667,56.42 120.9,56.8866667 120.1,57.82 C119.3,58.7533333 118.9,60.0866667 118.9,61.82 C118.9,63.54 119.296667,64.8533333 120.09,65.76 C120.883333,66.6666667 122.033333,67.12 123.54,67.12 Z M123.48,65.68 C122.506667,65.68 121.793333,65.3633333 121.34,64.73 C120.886667,64.0966667 120.66,63.1133333 120.66,61.78 C120.66,60.4333333 120.886667,59.4433333 121.34,58.81 C121.793333,58.1766667 122.506667,57.86 123.48,57.86 C124.453333,57.86 125.173333,58.18 125.64,58.82 C126.106667,59.46 126.34,60.4466667 126.34,61.78 C126.34,63.1133333 126.106667,64.0966667 125.64,64.73 C125.173333,65.3633333 124.453333,65.68 123.48,65.68 Z M134.92,67.12 C136.413333,67.12 137.543333,66.67 138.31,65.77 C139.076667,64.87 139.46,63.5533333 139.46,61.82 C139.46,60.0733333 139.07,58.7366667 138.29,57.81 C137.51,56.8833333 136.386667,56.42 134.92,56.42 C133.426667,56.42 132.28,56.8866667 131.48,57.82 C130.68,58.7533333 130.28,60.0866667 130.28,61.82 C130.28,63.54 130.676667,64.8533333 131.47,65.76 C132.263333,66.6666667 133.413333,67.12 134.92,67.12 Z M134.86,65.68 C133.886667,65.68 133.173333,65.3633333 132.72,64.73 C132.266667,64.0966667 132.04,63.1133333 132.04,61.78 C132.04,60.4333333 132.266667,59.4433333 132.72,58.81 C133.173333,58.1766667 133.886667,57.86 134.86,57.86 C135.833333,57.86 136.553333,58.18 137.02,58.82 C137.486667,59.46 137.72,60.4466667 137.72,61.78 C137.72,63.1133333 137.486667,64.0966667 137.02,64.73 C136.553333,65.3633333 135.833333,65.68 134.86,65.68 Z M144.78,67.12 C145.753333,67.12 146.24,66.92 146.24,66.52 C146.24,66.3866667 146.2,66.1966667 146.12,65.95 C146.04,65.7033333 145.94,65.58 145.82,65.58 C145.753333,65.58 145.656667,65.5966667 145.53,65.63 C145.403333,65.6633333 145.213333,65.68 144.96,65.68 C144.626667,65.68 144.363333,65.5733333 144.17,65.36 C143.976667,65.1466667 143.88,64.76 143.88,64.2 L143.88,64.2 L143.88,52.4 C143.88,52.1066667 143.613333,51.96 143.08,51.96 L143.08,51.96 L143,51.96 C142.466667,51.96 142.2,52.1066667 142.2,52.4 L142.2,52.4 L142.2,64.36 C142.2,65.3866667 142.463333,66.1033333 142.99,66.51 C143.516667,66.9166667 144.113333,67.12 144.78,67.12 Z M149.26,67.04 C149.793333,67.04 150.06,66.8933333 150.06,66.6 L150.06,66.6 L150.06,62.04 L150.14,62.04 L154.14,66.78 C154.233333,66.8866667 154.366667,66.9566667 154.54,66.99 C154.713333,67.0233333 154.94,67.04 155.22,67.04 L155.22,67.04 L155.3,67.04 C155.62,67.04 155.846667,67.02 155.98,66.98 C156.113333,66.94 156.18,66.8666667 156.18,66.76 C156.18,66.68 156.12,66.5733333 156,66.44 L156,66.44 L151.88,61.56 L155.6,57.16 C155.733333,57.0133333 155.8,56.88 155.8,56.76 C155.8,56.68 155.74,56.6166667 155.62,56.57 C155.5,56.5233333 155.326667,56.5 155.1,56.5 L155.1,56.5 L155.02,56.5 C154.46,56.5 154.106667,56.5933333 153.96,56.78 L153.96,56.78 L150.14,61.34 L150.06,61.34 L150.06,52.4 C150.06,52.1066667 149.793333,51.96 149.26,51.96 L149.26,51.96 L149.18,51.96 C148.646667,51.96 148.38,52.1066667 148.38,52.4 L148.38,52.4 L148.38,66.6 C148.38,66.8933333 148.646667,67.04 149.18,67.04 L149.18,67.04 L149.26,67.04 Z M159.54,54.68 C160.18,54.68 160.5,54.52 160.5,54.2 L160.5,54.2 L160.5,53.08 C160.5,52.76 160.206667,52.6 159.62,52.6 C158.98,52.6 158.66,52.76 158.66,53.08 L158.66,53.08 L158.66,54.2 C158.66,54.52 158.953333,54.68 159.54,54.68 Z M159.62,67.04 C160.153333,67.04 160.42,66.8933333 160.42,66.6 L160.42,66.6 L160.42,56.94 C160.42,56.6466667 160.153333,56.5 159.62,56.5 L159.62,56.5 L159.54,56.5 C159.006667,56.5 158.74,56.6466667 158.74,56.94 L158.74,56.94 L158.74,66.6 C158.74,66.8933333 159.006667,67.04 159.54,67.04 L159.54,67.04 L159.62,67.04 Z M166.94,67.12 C167.913333,67.12 168.4,66.92 168.4,66.52 C168.4,66.3866667 168.36,66.1966667 168.28,65.95 C168.2,65.7033333 168.1,65.58 167.98,65.58 C167.913333,65.58 167.816667,65.5966667 167.69,65.63 C167.563333,65.6633333 167.373333,65.68 167.12,65.68 C166.786667,65.68 166.523333,65.5733333 166.33,65.36 C166.136667,65.1466667 166.04,64.76 166.04,64.2 L166.04,64.2 L166.04,57.98 L167.72,57.98 C167.866667,57.98 167.97,57.9333333 168.03,57.84 C168.09,57.7466667 168.12,57.5933333 168.12,57.38 L168.12,57.38 L168.12,57.14 C168.12,56.9266667 168.09,56.7733333 168.03,56.68 C167.97,56.5866667 167.866667,56.54 167.72,56.54 L167.72,56.54 L166.04,56.54 L166.04,54.44 C166.04,54.1466667 165.84,54 165.44,54 L165.44,54 L165.24,54 C164.853333,54 164.64,54.1466667 164.6,54.44 L164.6,54.44 L164.36,56.54 L163.36,56.54 C163.226667,56.54 163.126667,56.5866667 163.06,56.68 C162.993333,56.7733333 162.96,56.9266667 162.96,57.14 L162.96,57.14 L162.96,57.38 C162.96,57.5933333 162.993333,57.7466667 163.06,57.84 C163.126667,57.9333333 163.226667,57.98 163.36,57.98 L163.36,57.98 L164.36,57.98 L164.36,64.36 C164.36,65.3866667 164.623333,66.1033333 165.15,66.51 C165.676667,66.9166667 166.273333,67.12 166.94,67.12 Z"/>
    <path fill="#39870C" fill-rule="nonzero" d="M72.2751323 13.25C69.5492063 13.25 67.5047619 14.0192308 66.1417989 15.6538462 64.778836 17.1923077 64 19.5961538 64 22.5769231 64 25.5576923 64.6814815 27.9615385 66.1417989 29.5 67.6021164 31.1346154 69.6465608 31.9038462 72.2751323 31.9038462 74.9037037 31.9038462 77.0455026 31.0384615 78.4084656 29.5 79.7714286 27.8653846 80.5502646 25.5576923 80.5502646 22.5769231 80.5502646 19.5961538 79.8687831 17.1923077 78.4084656 15.6538462 77.0455026 14.0192308 75.0010582 13.25 72.2751323 13.25zM77.3375661 22.5769231C77.3375661 24.7884615 76.8507937 26.4230769 75.9746032 27.4807692 75.0984127 28.5384615 73.9301587 29.1153846 72.2751323 29.1153846 70.6201058 29.1153846 69.4518519 28.6346154 68.5756614 27.4807692 67.6994709 26.3269231 67.3100529 24.6923077 67.3100529 22.5769231 67.3100529 20.3653846 67.6994709 18.7307692 68.5756614 17.6730769 69.4518519 16.6153846 70.6201058 16.1346154 72.2751323 16.1346154 73.9301587 16.1346154 75.0984127 16.6153846 75.9746032 17.6730769 76.8507937 18.7307692 77.3375661 20.3653846 77.3375661 22.5769231zM100.215873 18.4423077C99.3396825 17.8653846 98.4634921 17.6730769 97.3925926 17.6730769 95.9322751 17.6730769 94.6666667 18.25 93.4984127 19.4038462 92.7195767 18.25 91.5513228 17.6730769 89.7989418 17.6730769 88.4359788 17.6730769 87.2677249 18.1538462 86.1968254 19.1153846 86.1968254 19.1153846 86.1968254 19.0192308 86.1968254 19.0192308 86.1968254 18.8269231 86.0994709 18.7307692 86.0994709 18.6346154 85.9047619 18.4423077 85.8074074 18.3461538 85.8074074 18.25 85.7100529 18.1538462 85.6126984 18.0576923 85.4179894 17.9615385 85.1259259 17.8653846 84.7365079 17.7692308 83.957672 18.0576923 83.2761905 18.25 83.178836 18.7307692 83.178836 18.9230769 83.178836 19.0192308 83.178836 19.0192308 83.373545 19.9807692 83.4708995 20.3653846 83.4708995 21.0384615 83.4708995 22.0961538L83.4708995 30.8461538C83.4708995 31.1346154 83.568254 31.9038462 85.0285714 31.9038462 86.3915344 31.9038462 86.4888889 31.2307692 86.4888889 30.8461538L86.4888889 21.9038462 86.7809524 21.6153846C86.9756614 21.3269231 87.2677249 21.1346154 87.7544974 20.8461538 88.6306878 20.3653846 89.8962963 20.2692308 90.5777778 20.9423077 90.8698413 21.3269231 91.0645503 21.7115385 91.0645503 22.3846154L91.0645503 30.8461538C91.0645503 31.1346154 91.1619048 31.9038462 92.6222222 31.9038462 93.9851852 31.9038462 94.0825397 31.2307692 94.0825397 30.8461538L94.0825397 22.1923077C94.0825397 22.0961538 94.0825397 21.9038462 94.0825397 21.8076923 94.9587302 20.8461538 95.8349206 20.3653846 96.7111111 20.3653846 97.3925926 20.3653846 97.8793651 20.5576923 98.1714286 20.8461538 98.4634921 21.2307692 98.6582011 21.7115385 98.6582011 22.2884615L98.6582011 30.75C98.6582011 31.0384615 98.7555556 31.8076923 100.215873 31.8076923 101.578836 31.8076923 101.67619 31.1346154 101.67619 30.75L101.67619 22.0961538C101.67619 21.2307692 101.578836 20.4615385 101.286772 19.8846154 101.092063 19.3076923 100.702646 18.7307692 100.215873 18.4423077zM116.182011 17.7692308L111.898413 17.7692308C111.41164 17.6730769 110.730159 17.5769231 110.146032 17.5769231 108.393651 17.5769231 107.030688 18.0576923 106.057143 18.9230769 105.083598 19.7884615 104.596825 20.9423077 104.596825 22.3846154 104.596825 23.25 104.791534 24.1153846 105.278307 24.7884615 105.57037 25.2692308 105.959788 25.6538462 106.349206 26.0384615 105.278307 26.7115385 104.986243 27.4807692 104.986243 28.1538462 104.986243 28.7307692 105.180952 29.5 105.959788 30.1730769 104.499471 30.9423077 103.720635 32 103.720635 33.25 103.720635 34.5961538 104.304762 35.6538462 105.473016 36.2307692 106.543915 36.8076923 108.004233 37 110.048677 37 111.995767 37 113.650794 36.6153846 114.819048 35.8461538 116.084656 34.9807692 116.668783 33.9230769 116.668783 32.6730769 116.668783 31.6153846 116.279365 30.75 115.597884 30.1730769 114.916402 29.5961538 114.137566 29.1153846 113.261376 28.9230769 112.385185 28.7307692 111.508995 28.6346154 110.730159 28.4423077 109.951323 28.3461538 109.269841 28.25 108.685714 28.0576923 108.393651 27.9615385 108.101587 27.8653846 108.101587 27.7692308 108.101587 27.4807692 108.783069 27.2884615 109.756614 27.1923077L110.048677 27.1923077C111.801058 27.1923077 113.164021 26.7115385 114.137566 25.8461538 115.111111 24.9807692 115.597884 23.8269231 115.597884 22.3846154 115.597884 21.7115385 115.500529 21.0384615 115.208466 20.4615385L116.084656 20.4615385C116.279365 20.4615385 117.058201 20.3653846 117.058201 19.2115385L117.058201 18.9230769C117.155556 17.8653846 116.37672 17.7692308 116.182011 17.7692308zM110.146032 24.4038462C108.491005 24.4038462 107.809524 23.7307692 107.809524 22.3846154 107.809524 20.9423077 108.491005 20.3653846 110.146032 20.3653846 111.801058 20.3653846 112.48254 21.0384615 112.48254 22.3846154 112.579894 23.8269231 111.801058 24.4038462 110.146032 24.4038462zM112.774603 33.8269231C112.190476 34.2115385 111.314286 34.3076923 110.243386 34.3076923 108.685714 34.3076923 106.933333 34.1153846 106.933333 33.0576923 106.933333 32.6730769 107.128042 32.3846154 107.51746 32.0961538 108.004233 31.7115385 108.491005 31.4230769 108.977778 31.2307692 109.172487 31.2307692 109.561905 31.3269231 109.951323 31.4230769 111.508995 31.6153846 112.677249 31.9038462 113.261376 32.1923077 113.456085 32.2884615 113.553439 32.4807692 113.553439 32.7692308 113.553439 32.9615385 113.553439 33.3461538 112.774603 33.8269231zM130.006349 25.5576923C130.298413 25.1730769 130.395767 24.8846154 130.395767 24.6923077 130.395767 18.9230769 127.183069 17.6730769 124.554497 17.6730769 122.607407 17.6730769 121.049735 18.3461538 119.978836 19.5961538 118.907937 20.8461538 118.32381 22.6730769 118.32381 24.9807692 118.32381 27.2884615 118.907937 29.1153846 119.978836 30.2692308 121.049735 31.4230769 122.802116 32 125.04127 32 126.306878 32 127.377778 31.8076923 128.351323 31.4230769 129.130159 31.1346154 130.006349 30.6538462 130.006349 29.9807692 130.006349 29.6923077 129.908995 29.4038462 129.616931 29.0192308 129.422222 28.7307692 129.130159 28.25 128.643386 28.25 128.546032 28.25 128.448677 28.25 127.86455 28.5384615 126.98836 29.0192308 126.014815 29.3076923 124.943915 29.3076923 123.873016 29.3076923 122.996825 29.0192308 122.510053 28.4423077 122.02328 27.9615385 121.731217 27.1923077 121.633862 26.2307692L129.130159 26.2307692C129.519577 26.1346154 129.908995 25.6538462 130.006349 25.5576923zM121.633862 23.3461538C122.02328 20.6538462 123.483598 20.3653846 124.651852 20.3653846 125.722751 20.3653846 127.085714 20.6538462 127.183069 23.3461538L121.633862 23.3461538zM141.980952 17.7692308C141.688889 17.7692308 140.617989 17.7692308 140.42328 18.5384615L137.502646 27.2884615 134.582011 18.5384615C134.387302 18.0576923 133.900529 17.7692308 133.121693 17.7692308L132.926984 17.7692308C131.856085 17.7692308 131.369312 18.0576923 131.369312 18.6346154 131.369312 18.7307692 131.369312 18.9230769 131.466667 19.1153846L135.555556 31.1346154C135.750265 31.6153846 136.237037 31.9038462 137.015873 31.9038462L137.892063 31.9038462C138.670899 31.9038462 139.255026 31.6153846 139.352381 31.1346154L143.44127 19.1153846C143.538624 18.9230769 143.538624 18.7307692 143.538624 18.6346154 143.44127 18.25 143.149206 17.7692308 141.980952 17.7692308zM147.043386 17.7692308C145.680423 17.7692308 145.583069 18.4423077 145.583069 18.8269231L145.583069 30.8461538C145.583069 31.1346154 145.680423 31.9038462 147.140741 31.9038462 148.503704 31.9038462 148.601058 31.2307692 148.601058 30.8461538L148.601058 18.7307692C148.601058 18.4423077 148.406349 17.7692308 147.043386 17.7692308zM147.238095 12.0961538L146.946032 12.0961538C145.583069 12.0961538 145.485714 12.7692308 145.485714 13.1538462L145.485714 14.5961538C145.485714 14.8846154 145.583069 15.6538462 146.946032 15.6538462L147.238095 15.6538462C148.601058 15.6538462 148.698413 14.9807692 148.698413 14.5961538L148.698413 13.1538462C148.698413 12.7692308 148.503704 12.0961538 147.238095 12.0961538zM158.531217 17.6730769C157.265608 17.6730769 156.097354 18.1538462 155.026455 19.1153846 155.026455 19.1153846 155.026455 19.0192308 155.026455 19.0192308 155.026455 18.8269231 154.929101 18.7307692 154.929101 18.6346154 154.831746 18.5384615 154.831746 18.4423077 154.734392 18.3461538 154.637037 18.25 154.539683 18.1538462 154.344974 18.0576923 154.05291 17.9615385 153.663492 17.8653846 152.884656 18.1538462 152.203175 18.3461538 152.008466 18.8269231 152.008466 19.0192308 152.008466 19.1153846 152.008466 19.1153846 152.203175 20.0769231 152.300529 20.4615385 152.300529 21.1346154 152.300529 22.1923077L152.300529 30.9423077C152.300529 31.2307692 152.397884 32 153.858201 32 155.221164 32 155.318519 31.3269231 155.318519 30.9423077L155.318519 22C156.097354 21.0384615 156.973545 20.5576923 158.044444 20.5576923 158.725926 20.5576923 159.310053 20.75 159.602116 21.0384615 159.991534 21.3269231 160.088889 21.8076923 160.088889 22.4807692L160.088889 30.9423077C160.088889 31.2307692 160.186243 32 161.646561 32 163.009524 32 163.106878 31.3269231 163.106878 30.9423077L163.106878 22.2884615C163.106878 20.9423077 162.71746 19.7884615 161.84127 19.0192308 161.159788 18.0576923 159.991534 17.6730769 158.531217 17.6730769zM177.710053 17.7692308L173.426455 17.7692308C172.939683 17.6730769 172.258201 17.5769231 171.674074 17.5769231 169.921693 17.5769231 168.55873 18.0576923 167.585185 18.9230769 166.61164 19.7884615 166.124868 20.9423077 166.124868 22.3846154 166.124868 23.25 166.319577 24.1153846 166.806349 24.7884615 167.098413 25.2692308 167.487831 25.6538462 167.877249 26.0384615 166.806349 26.7115385 166.514286 27.4807692 166.514286 28.1538462 166.514286 28.7307692 166.708995 29.5 167.487831 30.1730769 166.027513 30.9423077 165.248677 32 165.248677 33.25 165.248677 34.5961538 165.832804 35.6538462 167.001058 36.2307692 168.071958 36.8076923 169.532275 37 171.57672 37 173.52381 37 175.178836 36.6153846 176.34709 35.8461538 177.612698 34.9807692 178.196825 33.9230769 178.196825 32.6730769 178.196825 31.6153846 177.807407 30.75 177.125926 30.1730769 176.444444 29.5961538 175.665608 29.1153846 174.789418 28.9230769 173.913228 28.7307692 173.134392 28.6346154 172.258201 28.4423077 171.479365 28.3461538 170.797884 28.25 170.213757 28.0576923 169.921693 27.9615385 169.62963 27.8653846 169.62963 27.7692308 169.62963 27.4807692 170.311111 27.2884615 171.284656 27.1923077L171.57672 27.1923077C173.329101 27.1923077 174.692063 26.7115385 175.665608 25.8461538 176.639153 24.9807692 177.125926 23.8269231 177.125926 22.3846154 177.125926 21.7115385 177.028571 21.0384615 176.736508 20.4615385L177.612698 20.4615385C177.807407 20.4615385 178.586243 20.3653846 178.586243 19.2115385L178.586243 18.9230769C178.683598 17.8653846 177.904762 17.7692308 177.710053 17.7692308zM171.674074 24.4038462C170.019048 24.4038462 169.337566 23.7307692 169.337566 22.3846154 169.337566 20.9423077 170.019048 20.3653846 171.674074 20.3653846 173.329101 20.3653846 174.010582 21.0384615 174.010582 22.3846154 174.010582 23.8269231 173.329101 24.4038462 171.674074 24.4038462zM174.205291 33.8269231C173.621164 34.2115385 172.744974 34.3076923 171.674074 34.3076923 170.116402 34.3076923 168.364021 34.1153846 168.364021 33.0576923 168.364021 32.6730769 168.55873 32.3846154 168.948148 32.0961538 169.434921 31.7115385 169.921693 31.4230769 170.408466 31.2307692 170.603175 31.2307692 170.992593 31.3269231 171.382011 31.4230769 172.939683 31.6153846 174.107937 31.9038462 174.692063 32.1923077 174.886772 32.2884615 174.984127 32.4807692 174.984127 32.7692308 175.081481 32.9615385 175.081481 33.3461538 174.205291 33.8269231zM184.330159 22.8653846C183.551323 22.5769231 183.161905 22.3846154 182.967196 22.2884615 182.772487 22.0961538 182.675132 21.9038462 182.675132 21.5192308 182.675132 21.2307692 182.772487 20.9423077 183.06455 20.75 183.746032 20.2692308 185.206349 20.2692308 186.179894 20.8461538 186.471958 21.0384615 186.569312 21.0384615 186.764021 21.0384615 187.250794 21.0384615 187.542857 20.6538462 187.737566 20.2692308 187.932275 19.8846154 188.126984 19.5 188.126984 19.2115385 188.126984 18.5384615 187.348148 18.25 186.764021 18.0576923 186.08254 17.8653846 185.206349 17.6730769 184.330159 17.6730769 182.967196 17.6730769 181.798942 18.0576923 181.020106 18.8269231 180.143915 19.5961538 179.657143 20.5576923 179.657143 21.7115385 179.657143 22.8653846 179.949206 23.7307692 180.533333 24.3076923 181.11746 24.8846154 181.993651 25.2692308 183.161905 25.6538462 184.427513 26.0384615 185.01164 26.3269231 185.206349 26.5192308 185.498413 26.8076923 185.595767 27.1923077 185.595767 27.6730769 185.595767 28.1538462 185.401058 28.5384615 185.108995 28.8269231 184.719577 29.1153846 184.330159 29.3076923 183.746032 29.3076923 183.161905 29.3076923 182.577778 29.2115385 182.18836 29.1153846 181.798942 28.9230769 181.409524 28.8269231 181.214815 28.7307692 180.825397 28.4423077 180.728042 28.4423077 180.533333 28.4423077 180.046561 28.4423077 179.754497 28.8269231 179.559788 29.2115385 179.267725 29.5961538 179.17037 29.9807692 179.17037 30.1730769 179.17037 30.8461538 180.046561 31.3269231 180.728042 31.6153846 181.604233 32 182.675132 32.1923077 183.940741 32.1923077 185.206349 32.1923077 186.374603 31.8076923 187.250794 30.9423077 188.224339 30.0769231 188.613757 29.0192308 188.613757 27.7692308 188.613757 26.5192308 188.321693 25.4615385 187.640212 24.8846154 187.153439 23.9230769 185.985185 23.3461538 184.330159 22.8653846z"/>
    <path fill="#275937" fill-rule="nonzero" d="M196.207407 29.0192308C196.110053 29.0192308 196.012698 29.0192308 195.720635 29.1153846 195.525926 29.1153846 195.331217 29.2115385 195.039153 29.2115385 194.74709 29.2115385 194.162963 29.2115385 194.162963 27.8653846L194.162963 13.0576923C194.162963 12.7692308 194.065608 12 192.605291 12 191.242328 12 191.144974 12.6730769 191.144974 13.0576923L191.144974 28.0576923C191.144974 29.5 191.534392 30.5576923 192.313228 31.1346154 193.092063 31.7115385 193.968254 32 194.844444 32 196.402116 32 197.180952 31.6153846 197.180952 30.75 197.180952 30.5576923 197.083598 30.2692308 196.986243 29.8846154 196.791534 29.2115385 196.402116 29.0192308 196.207407 29.0192308zM204.48254 17.6730769C202.438095 17.6730769 200.880423 18.3461538 199.809524 19.5961538 198.738624 20.8461538 198.154497 22.5769231 198.154497 24.8846154 198.154497 27.1923077 198.738624 28.9230769 199.809524 30.1730769 200.880423 31.4230769 202.53545 32 204.48254 32 206.526984 32 208.084656 31.4230769 209.155556 30.1730769 210.226455 28.9230769 210.713228 27.1923077 210.713228 24.8846154 210.713228 22.5769231 210.129101 20.8461538 209.155556 19.5961538 207.987302 18.25 206.42963 17.6730769 204.48254 17.6730769zM204.385185 20.3653846C205.456085 20.3653846 206.234921 20.6538462 206.721693 21.3269231 207.208466 22 207.500529 23.1538462 207.500529 24.7884615 207.500529 26.3269231 207.208466 27.4807692 206.721693 28.1538462 206.234921 28.8269231 205.456085 29.1153846 204.385185 29.1153846 203.314286 29.1153846 202.53545 28.8269231 202.048677 28.1538462 201.561905 27.4807692 201.269841 26.3269231 201.269841 24.6923077 201.269841 23.1538462 201.561905 22 202.048677 21.2307692 202.53545 20.6538462 203.314286 20.3653846 204.385185 20.3653846zM219.280423 24.5L223.661376 19.3076923C223.953439 19.0192308 224.050794 18.7307692 224.050794 18.4423077 224.050794 17.8653846 223.564021 17.6730769 222.590476 17.6730769 221.714286 17.6730769 221.130159 17.8653846 220.838095 18.1538462L216.749206 22.9615385 216.749206 13.0576923C216.749206 12.7692308 216.651852 12 215.191534 12 213.828571 12 213.731217 12.6730769 213.731217 13.0576923L213.731217 30.75C213.731217 31.0384615 213.828571 31.8076923 215.288889 31.8076923 216.651852 31.8076923 216.749206 31.1346154 216.749206 30.75L216.749206 26.2307692 221.032804 31.2307692C221.324868 31.6153846 221.908995 31.7115385 222.88254 31.7115385 223.271958 31.7115385 224.440212 31.7115385 224.440212 30.8461538 224.440212 30.6538462 224.342857 30.3653846 224.050794 30.1730769L219.280423 24.5zM237.777778 25.5576923C238.069841 25.1730769 238.167196 24.8846154 238.167196 24.6923077 238.167196 18.9230769 234.954497 17.6730769 232.325926 17.6730769 230.378836 17.6730769 228.821164 18.3461538 227.750265 19.5961538 226.679365 20.8461538 226.095238 22.6730769 226.095238 24.9807692 226.095238 27.2884615 226.679365 29.1153846 227.750265 30.2692308 228.821164 31.4230769 230.573545 32 232.812698 32 234.078307 32 235.149206 31.8076923 236.122751 31.4230769 236.901587 31.1346154 237.777778 30.6538462 237.777778 29.9807692 237.777778 29.6923077 237.680423 29.4038462 237.38836 29.0192308 237.193651 28.7307692 236.901587 28.25 236.414815 28.25 236.31746 28.25 236.220106 28.25 235.635979 28.5384615 234.759788 29.0192308 233.786243 29.3076923 232.715344 29.3076923 231.644444 29.3076923 230.768254 29.0192308 230.281481 28.4423077 229.794709 27.9615385 229.502646 27.1923077 229.405291 26.2307692L236.901587 26.2307692C237.291005 26.1346154 237.680423 25.6538462 237.777778 25.5576923zM229.405291 23.3461538C229.794709 20.6538462 231.255026 20.3653846 232.42328 20.3653846 233.49418 20.3653846 234.857143 20.6538462 234.954497 23.3461538L229.405291 23.3461538zM247.12381 29.8846154C246.929101 29.2115385 246.539683 29.1153846 246.247619 29.1153846 246.150265 29.1153846 246.150265 29.1153846 245.760847 29.2115385 245.566138 29.2115385 245.371429 29.3076923 245.079365 29.3076923 244.787302 29.3076923 244.203175 29.3076923 244.203175 27.9615385L244.203175 20.6538462 245.858201 20.6538462C246.05291 20.6538462 246.831746 20.5576923 246.831746 19.4038462L246.831746 19.1153846C246.831746 17.9615385 246.05291 17.8653846 245.858201 17.8653846L244.203175 17.8653846 244.203175 15.75C244.203175 15.5576923 244.10582 14.6923077 242.937566 14.6923077L242.645503 14.6923077C241.574603 14.6923077 241.379894 15.4615385 241.379894 15.6538462L241.087831 17.8653846 240.21164 17.8653846C240.016931 17.8653846 239.238095 17.9615385 239.238095 19.1153846L239.238095 19.4038462C239.238095 20.5576923 240.016931 20.6538462 240.21164 20.6538462L240.990476 20.6538462 240.990476 28.0576923C240.990476 29.5 241.379894 30.5576923 242.15873 31.1346154 242.937566 31.7115385 243.813757 32 244.689947 32 246.247619 32 247.026455 31.6153846 247.026455 30.75 247.318519 30.4615385 247.221164 30.1730769 247.12381 29.8846154z"/>
    <path fill="#E17000" fill-rule="nonzero" d="M252.346416,43.5940228 L198.945392,47.9925553 C197.875427,48.0903004 197,47.2105939 197,46.2331423 L197,36.1653902 C197,35.1879385 197.680887,34.4059772 198.653584,34.4059772 L252.054608,30.0074447 C253.124573,29.9096996 254,30.7894061 254,31.7668577 L254,41.7368646 C254,42.7143163 253.221843,43.4962776 252.346416,43.5940228 Z"/>
    <path fill="#FFF" fill-rule="nonzero" d="M212.193103 45.3C212.096552 45.2 212.096552 45.1 212.096552 45L212.289655 36.5C212.289655 36.3 212.289655 36.2 212.386207 36.2 212.482759 36.1 212.57931 36.1 212.675862 36.1L214.993103 35.9C215.862069 35.8 216.537931 36 217.02069 36.3 217.503448 36.6 217.793103 37.1 217.793103 37.8 217.793103 38.1 217.793103 38.5 217.6 38.8 217.503448 39.1 217.310345 39.4 217.02069 39.7 216.827586 40 216.537931 40.1 216.248276 40.3L216.248276 40.4C216.248276 40.4 216.441379 40.4 216.731034 40.5 217.02069 40.6 217.310345 40.8 217.6 41.1 217.889655 41.4 217.986207 41.7 218.082759 42.2 218.17931 43.2 217.889655 43.9 217.310345 44.5 216.731034 45 215.862069 45.4 214.703448 45.5L212.386207 45.7C212.386207 45.4 212.289655 45.4 212.193103 45.3zM215.186207 44.1C215.765517 44 216.248276 43.8 216.634483 43.5 216.924138 43.1 217.117241 42.6 217.02069 42.1 217.02069 41.7 216.827586 41.3 216.441379 41.1 216.055172 40.9 215.668966 40.8 214.993103 40.9L213.255172 41 213.158621 44.3 215.186207 44.1zM214.896552 39.8C215.282759 39.8 215.572414 39.7 215.862069 39.5 216.151724 39.3 216.344828 39.1 216.537931 38.8 216.731034 38.5 216.731034 38.2 216.731034 37.9 216.731034 37.5 216.537931 37.2 216.248276 37 215.958621 36.8 215.475862 36.8 214.896552 36.8L213.351724 36.9 213.255172 39.9 214.896552 39.8zM219.724138 44.7C219.627586 44.7 219.627586 44.6 219.627586 44.5L219.82069 35.8C219.82069 35.7 219.82069 35.6 219.917241 35.5 220.013793 35.4 220.110345 35.4 220.206897 35.4L224.744828 35C224.937931 35 224.937931 35.1 224.937931 35.3L224.937931 35.4C224.937931 35.6 224.937931 35.8 224.937931 35.9 224.937931 36 224.841379 36.1 224.648276 36.1L220.882759 36.4 220.786207 39.5 224.165517 39.2C224.358621 39.2 224.358621 39.3 224.455172 39.5L224.455172 39.6C224.455172 39.8 224.455172 40 224.455172 40.1 224.455172 40.2 224.358621 40.3 224.165517 40.3L220.786207 40.6 220.689655 43.9 224.455172 43.6C224.648276 43.6 224.648276 43.7 224.648276 43.9L224.648276 44C224.648276 44.2 224.648276 44.4 224.648276 44.5 224.648276 44.6 224.551724 44.7 224.358621 44.7L219.82069 45.1C219.917241 44.7 219.82069 44.7 219.724138 44.7zM228.703448 43.9C228.606897 43.9 228.606897 43.8 228.606897 43.7L228.8 35.6 226.289655 35.8C226.096552 35.8 226.096552 35.7 226 35.5L226 35.3C226 35.2 226 35 226 34.9 226 34.8 226.096552 34.7 226.193103 34.7L232.275862 34.2C232.468966 34.2 232.468966 34.3 232.468966 34.5L232.468966 34.6C232.468966 34.8 232.468966 34.9 232.468966 35.1 232.468966 35.2 232.372414 35.3 232.17931 35.3L229.765517 35.5 229.572414 43.6C229.572414 43.7 229.475862 43.8 229.475862 43.8 229.37931 43.9 229.282759 43.9 229.089655 43.9L228.993103 43.9C228.896552 44 228.8 44 228.703448 43.9zM232.275862 43.5C232.275862 43.5 232.275862 43.4 232.372414 43.3L235.558621 34.2C235.558621 34.1 235.751724 34 236.041379 33.9L236.427586 33.9C236.717241 33.9 236.910345 33.9 236.910345 34.1L239.806897 42.6C239.806897 42.6 239.806897 42.7 239.806897 42.7 239.806897 42.9 239.613793 43 239.227586 43L239.131034 43C238.841379 43 238.648276 43 238.648276 42.8L237.972414 40.7 234.206897 41 233.434483 43.3C233.434483 43.4 233.241379 43.5 232.951724 43.6L232.855172 43.6C232.468966 43.7 232.372414 43.6 232.275862 43.5zM237.682759 39.8L236.427586 35.9C236.331034 35.7 236.331034 35.4 236.331034 35.1L236.331034 35.1C236.234483 35.4 236.234483 35.7 236.137931 35.9L234.689655 40 237.682759 39.8z"/>
  </g>
</svg>
