<?xml version="1.0" encoding="UTF-8"?>
<svg width="121.373634px" height="100.080178px" viewBox="0 0 121.373634 100.080178" version="1.1" xmlns="http://www.w3.org/2000/svg" xmlns:xlink="http://www.w3.org/1999/xlink">
    <title id="title">In ontwikkeling</title>
    <desc id="desc">Schep in aarde met een label met de tekst In ontwikkeling</desc>
    <g id="Landingspagina" stroke="none" stroke-width="1" fill="none" fill-rule="evenodd">
        <g id="In-ontwikkeling-Copy" transform="translate(-0, 0)">
            <g id="bodem-en-schep-copy" transform="translate(21.1543, 0)" fill="#39870C">
                <path d="M34.3299,45.9250697 C34.2869,45.9246799 34.2439,45.9246799 34.2007,45.9246799 C30.5201,45.9246799 26.5087,53.7016897 25.9711,55.313488 C22.0359,55.5518182 21.5287,56.4954929 21.0395,57.4054545 C20.5365,58.3412368 20.0526,59.2413573 15.8804,59.302645 C13.2312,59.3553583 12.1724,61.7150809 11.0983,64.1085167 C10.5292,65.3767531 9.9559,66.6544409 9.1395,67.6034746 C8.4972,67.8120866 7.985,67.967011 7.5629,68.0946531 C5.7017,68.6573502 5.5912,68.690771 3.8046,70.4644118 C1.6542,72.6001274 0,77.0145144 0,77.0145144 L80.0061879,77 C80.0061879,77 81.0558,70.7868299 75.556,70.7464911 C72.9898,70.7278807 72.0642,68.4193123 71.0709,65.9415938 C69.9192,63.0689642 68.6763,59.9690148 64.6796,59.9473838 C61.7109,59.9473838 61.5093,57.577138 61.3049,55.1737637 C61.2164,54.1326523 61.1273,53.0854998 60.8126,52.2219181 C56.8627,55.0481678 52.0528,57.254525 46.6487,57.254525 C43.9563,57.254525 40.8962,56.0800227 38.5112,54.0526568 C36.2257,52.1099633 34.4926,49.3243447 34.3299,45.9250697 Z M36.3403,46.0440399 C38.7246,46.3071191 40.9401,46.9707606 43.3491,47.692377 C47.1732,48.8378432 51.4846,50.1292695 57.7319,50.1959163 C58.5341,50.206342 59.1459,50.3749075 59.6156,50.6609818 C55.9029,53.3147684 51.4972,55.3057905 46.6487,55.3057905 C44.5024,55.3057905 41.8969,54.3445772 39.8259,52.5841879 C37.9221,50.9658613 36.5333,48.7281294 36.3403,46.0440399 Z" id="Shape"></path>
                <path d="M53.7009,30.7681048 L47.899,27.8303875 L47.8899,27.8401312 C47.5559,28.1967496 47.0776,28.7140412 46.5032,29.3539082 C45.3535,30.6346165 43.8229,32.4016315 42.2947,34.3513404 C40.7635,36.3048494 39.2503,38.4219546 38.1244,40.4049868 C36.9769,42.4262143 36.3173,44.163706 36.3173,45.4002755 C36.3173,48.3709264 37.7719,50.8380243 39.8259,52.583993 C41.8969,54.3443823 44.5024,55.3055956 46.6487,55.3055956 C53.6296,55.3055956 59.6927,51.1780785 64.0909,46.8876471 C66.2748,44.7572905 68.0101,42.6235236 69.1996,41.0212741 C69.7295,40.3075501 70.1498,39.7011039 70.4518,39.2496795 L63.4132,35.6858338 C62.4142,37.6807534 59.9763,38.6552181 57.8123,37.8019647 L57.8119,37.8018672 L55.8686,37.0364043 L55.8682,37.0362094 C53.632,36.1543096 52.4988,33.6593448 53.4141,31.4559107 L53.4146,31.4547414 L53.7009,30.7681048 Z M55.4833,31.6705638 L61.6375,34.7866877 C61.0996,35.9198769 59.7382,36.4591891 58.5623,35.9954878 L58.5619,35.9952929 L56.6186,35.22983 L56.6184,35.22983 L56.6182,35.2297325 C55.381,34.7414771 54.7775,33.3686911 55.2678,32.1875631 L55.268,32.1869784 L55.4833,31.6705638 Z" id="Shape"></path>
                <path d="M68.0055,1.48223005 L68.006,1.4810803 C68.5073,0.275948766 69.9163,-0.311756439 71.1284,0.166257422 L71.1288,0.166416244 L73.0721,0.931865525 C74.3097,1.41996798 74.9134,2.79333864 74.4227,3.97469074 L74.4211,3.97839334 L63.9568,29.4685912 L57.5039,26.9661238 L68.0055,1.48223005 Z" id="Path"></path>
                <path d="M56.5063,29.2176916 L62.9203,31.7175283 L61.6859,34.6783381 C61.1845,35.8853843 59.775,36.4736098 58.5625,35.9953903 L56.6188,35.22983 C55.3813,34.7414771 54.7777,33.3685936 55.268,32.1875631 L56.5063,29.2176916 Z" id="Path"></path>
            </g>
            <g id="In-ontwikkeling-label-Copy" transform="translate(60.6868, 84.3908) rotate(5) translate(-60.6868, -84.3908)translate(0.6868, 73.8908)">
                <rect id="Rectangle-Copy" fill="#8B4A6A" x="0" y="0" width="120" height="21" rx="2"></rect>
                <g id="in-ontwikkeling" transform="translate(7.7696, 3.0612)" fill="#FFFFFF" fill-rule="nonzero">
                    <path d="M0.752,12.08 C0.261333333,12.08 0.016,11.9466667 0.016,11.68 L0.016,4.048 C0.016,3.78133333 0.261333333,3.648 0.752,3.648 L0.912,3.648 C1.40266667,3.648 1.648,3.78133333 1.648,4.048 L1.648,11.68 C1.648,11.9466667 1.40266667,12.08 0.912,12.08 L0.752,12.08 Z M0.848,2.624 C0.282666667,2.624 -2.46550256e-14,2.49066667 -2.46550256e-14,2.224 L-2.46550256e-14,1.184 C-2.46550256e-14,0.917333333 0.282666667,0.784 0.848,0.784 C1.40266667,0.784 1.68,0.917333333 1.68,1.184 L1.68,2.224 C1.68,2.49066667 1.40266667,2.624 0.848,2.624 Z" id="Shape"></path>
                    <path d="M4.944,12.08 C4.45333333,12.08 4.208,11.9466667 4.208,11.68 L4.208,6.224 C4.208,5.52 4.176,5.008 4.112,4.688 C4.048,4.368 4.016,4.18666667 4.016,4.144 C4.016,3.99466667 4.14933333,3.888 4.416,3.824 C4.68266667,3.76 4.928,3.728 5.152,3.728 C5.312,3.728 5.42666667,3.80266667 5.496,3.952 C5.56533333,4.10133333 5.61866667,4.26133333 5.656,4.432 C5.69333333,4.60266667 5.71733333,4.72 5.728,4.784 C6.048,4.41066667 6.42666667,4.11466667 6.864,3.896 C7.30133333,3.67733333 7.744,3.568 8.192,3.568 C9.00266667,3.568 9.62933333,3.79466667 10.072,4.248 C10.5146667,4.70133333 10.736,5.33866667 10.736,6.16 L10.736,11.68 C10.736,11.9466667 10.4906667,12.08 10,12.08 L9.824,12.08 C9.33333333,12.08 9.088,11.9466667 9.088,11.68 L9.088,6.352 C9.088,5.91466667 8.96533333,5.576 8.72,5.336 C8.47466667,5.096 8.11733333,4.976 7.648,4.976 C7.30666667,4.976 6.976,5.07466667 6.656,5.272 C6.336,5.46933333 6.06933333,5.72266667 5.856,6.032 L5.856,11.68 C5.856,11.9466667 5.61066667,12.08 5.12,12.08 L4.944,12.08 Z" id="Path"></path>
                    <path d="M20.272,12.16 C19.0453333,12.16 18.112,11.7946667 17.472,11.064 C16.832,10.3333333 16.512,9.27466667 16.512,7.888 C16.512,6.50133333 16.8373333,5.43466667 17.488,4.688 C18.1386667,3.94133333 19.0666667,3.568 20.272,3.568 C21.4773333,3.568 22.3973333,3.93866667 23.032,4.68 C23.6666667,5.42133333 23.984,6.49066667 23.984,7.888 C23.984,9.27466667 23.6693333,10.3333333 23.04,11.064 C22.4106667,11.7946667 21.488,12.16 20.272,12.16 Z M20.24,10.8 C20.944,10.8 21.464,10.56 21.8,10.08 C22.136,9.6 22.304,8.864 22.304,7.872 C22.304,6.88 22.136,6.14133333 21.8,5.656 C21.464,5.17066667 20.944,4.928 20.24,4.928 C19.5466667,4.928 19.0346667,5.17066667 18.704,5.656 C18.3733333,6.14133333 18.208,6.88 18.208,7.872 C18.208,8.864 18.3706667,9.6 18.696,10.08 C19.0213333,10.56 19.536,10.8 20.24,10.8 Z" id="Shape"></path>
                    <path d="M26.8,12.08 C26.3093333,12.08 26.064,11.9466667 26.064,11.68 L26.064,6.224 C26.064,5.52 26.032,5.008 25.968,4.688 C25.904,4.368 25.872,4.18666667 25.872,4.144 C25.872,3.99466667 26.0053333,3.888 26.272,3.824 C26.5386667,3.76 26.784,3.728 27.008,3.728 C27.168,3.728 27.2826667,3.80266667 27.352,3.952 C27.4213333,4.10133333 27.4746667,4.26133333 27.512,4.432 C27.5493333,4.60266667 27.5733333,4.72 27.584,4.784 C27.904,4.41066667 28.2826667,4.11466667 28.72,3.896 C29.1573333,3.67733333 29.6,3.568 30.048,3.568 C30.8586667,3.568 31.4853333,3.79466667 31.928,4.248 C32.3706667,4.70133333 32.592,5.33866667 32.592,6.16 L32.592,11.68 C32.592,11.9466667 32.3466667,12.08 31.856,12.08 L31.68,12.08 C31.1893333,12.08 30.944,11.9466667 30.944,11.68 L30.944,6.352 C30.944,5.91466667 30.8213333,5.576 30.576,5.336 C30.3306667,5.096 29.9733333,4.976 29.504,4.976 C29.1626667,4.976 28.832,5.07466667 28.512,5.272 C28.192,5.46933333 27.9253333,5.72266667 27.712,6.032 L27.712,11.68 C27.712,11.9466667 27.4666667,12.08 26.976,12.08 L26.8,12.08 Z" id="Path"></path>
                    <path d="M37.424,12.16 C36.8373333,12.16 36.3333333,11.9813333 35.912,11.624 C35.4906667,11.2666667 35.28,10.672 35.28,9.84 L35.28,5.04 L34.64,5.04 C34.512,5.04 34.4186667,4.99466667 34.36,4.904 C34.3013333,4.81333333 34.272,4.66666667 34.272,4.464 L34.272,4.256 C34.272,4.05333333 34.3013333,3.90666667 34.36,3.816 C34.4186667,3.72533333 34.512,3.68 34.64,3.68 L35.28,3.68 L35.488,2.048 C35.52,1.78133333 35.7226667,1.648 36.096,1.648 L36.352,1.648 C36.736,1.648 36.928,1.78133333 36.928,2.048 L36.928,3.68 L38.112,3.68 C38.24,3.68 38.3333333,3.72533333 38.392,3.816 C38.4506667,3.90666667 38.48,4.05333333 38.48,4.256 L38.48,4.464 C38.48,4.66666667 38.4506667,4.81333333 38.392,4.904 C38.3333333,4.99466667 38.24,5.04 38.112,5.04 L36.928,5.04 L36.928,9.76 C36.928,10.144 36.9946667,10.4133333 37.128,10.568 C37.2613333,10.7226667 37.456,10.8 37.712,10.8 C37.8613333,10.8 37.9866667,10.7866667 38.088,10.76 C38.1893333,10.7333333 38.2666667,10.72 38.32,10.72 C38.4266667,10.72 38.5173333,10.8346667 38.592,11.064 C38.6666667,11.2933333 38.704,11.4666667 38.704,11.584 C38.704,11.968 38.2773333,12.16 37.424,12.16 Z" id="Path"></path>
                    <path d="M42.48,12.08 C42.0533333,12.08 41.8186667,11.9893333 41.776,11.808 L39.68,4.256 C39.6373333,4.128 39.616,4.032 39.616,3.968 C39.616,3.75466667 39.888,3.648 40.432,3.648 C40.9333333,3.648 41.2053333,3.73866667 41.248,3.92 L42.48,8.704 C42.5333333,8.91733333 42.6453333,9.48266667 42.816,10.4 L42.88,10.4 C43.008,9.664 43.12,9.09333333 43.216,8.688 L44.432,3.936 C44.496,3.744 44.7306667,3.648 45.136,3.648 L45.328,3.648 C45.744,3.648 45.9733333,3.744 46.016,3.936 L47.248,8.704 C47.408,9.30133333 47.5253333,9.87733333 47.6,10.432 L47.632,10.432 L47.696,10.048 C47.8026667,9.44 47.8933333,8.99733333 47.968,8.72 L49.2,3.92 C49.2426667,3.73866667 49.488,3.648 49.936,3.648 C50.4266667,3.648 50.672,3.75466667 50.672,3.968 C50.672,4.05333333 50.6613333,4.128 50.64,4.192 L48.56,11.808 C48.5386667,11.904 48.464,11.9733333 48.336,12.016 C48.208,12.0586667 48.048,12.08 47.856,12.08 L47.28,12.08 C46.864,12.08 46.6346667,11.9893333 46.592,11.808 L45.424,7.184 C45.3493333,6.87466667 45.2746667,6.44266667 45.2,5.888 L45.152,5.888 C45.056,6.528 44.9813333,6.95466667 44.928,7.168 L43.76,11.808 C43.7173333,11.9893333 43.4773333,12.08 43.04,12.08 L42.48,12.08 Z" id="Path"></path>
                    <path d="M53.184,12.08 C52.6933333,12.08 52.448,11.9466667 52.448,11.68 L52.448,4.048 C52.448,3.78133333 52.6933333,3.648 53.184,3.648 L53.344,3.648 C53.8346667,3.648 54.08,3.78133333 54.08,4.048 L54.08,11.68 C54.08,11.9466667 53.8346667,12.08 53.344,12.08 L53.184,12.08 Z M53.28,2.624 C52.7146667,2.624 52.432,2.49066667 52.432,2.224 L52.432,1.184 C52.432,0.917333333 52.7146667,0.784 53.28,0.784 C53.8346667,0.784 54.112,0.917333333 54.112,1.184 L54.112,2.224 C54.112,2.49066667 53.8346667,2.624 53.28,2.624 Z" id="Shape"></path>
                    <path d="M63.136,11.568 C63.2213333,11.696 63.264,11.792 63.264,11.856 C63.264,11.9306667 63.2053333,11.9866667 63.088,12.024 C62.9706667,12.0613333 62.7733333,12.08 62.496,12.08 L62.272,12.08 C62.048,12.08 61.8613333,12.064 61.712,12.032 C61.5626667,12 61.4506667,11.936 61.376,11.84 L58.448,8.08 L58.384,8.096 L58.384,11.68 C58.384,11.9466667 58.144,12.08 57.664,12.08 L57.488,12.08 C56.9973333,12.08 56.752,11.9466667 56.752,11.68 L56.752,0.4 C56.752,0.133333333 56.9973333,-3.63647053e-13 57.488,-3.63647053e-13 L57.664,-3.63647053e-13 C58.144,-3.63647053e-13 58.384,0.133333333 58.384,0.4 L58.384,7.328 L58.448,7.328 L61.184,3.888 C61.3226667,3.728 61.6213333,3.648 62.08,3.648 L62.288,3.648 C62.5013333,3.648 62.664,3.66933333 62.776,3.712 C62.888,3.75466667 62.944,3.808 62.944,3.872 C62.944,3.968 62.8906667,4.07466667 62.784,4.192 L60.048,7.616 L63.136,11.568 Z" id="Path"></path>
                    <path d="M71.472,11.568 C71.5573333,11.696 71.6,11.792 71.6,11.856 C71.6,11.9306667 71.5413333,11.9866667 71.424,12.024 C71.3066667,12.0613333 71.1093333,12.08 70.832,12.08 L70.608,12.08 C70.384,12.08 70.1973333,12.064 70.048,12.032 C69.8986667,12 69.7866667,11.936 69.712,11.84 L66.784,8.08 L66.72,8.096 L66.72,11.68 C66.72,11.9466667 66.48,12.08 66,12.08 L65.824,12.08 C65.3333333,12.08 65.088,11.9466667 65.088,11.68 L65.088,0.4 C65.088,0.133333333 65.3333333,2.36052856e-12 65.824,2.36052856e-12 L66,2.36052856e-12 C66.48,2.36052856e-12 66.72,0.133333333 66.72,0.4 L66.72,7.328 L66.784,7.328 L69.52,3.888 C69.6586667,3.728 69.9573333,3.648 70.416,3.648 L70.624,3.648 C70.8373333,3.648 71,3.66933333 71.112,3.712 C71.224,3.75466667 71.28,3.808 71.28,3.872 C71.28,3.968 71.2266667,4.07466667 71.12,4.192 L68.384,7.616 L71.472,11.568 Z" id="Path"></path>
                    <path d="M76.384,12.16 C73.7173333,12.16 72.384,10.7466667 72.384,7.92 C72.384,6.48 72.7093333,5.39466667 73.36,4.664 C74.0106667,3.93333333 74.944,3.568 76.16,3.568 C77.28,3.568 78.1173333,3.93066667 78.672,4.656 C79.2266667,5.38133333 79.504,6.41066667 79.504,7.744 C79.504,7.85066667 79.4266667,8 79.272,8.192 C79.1173333,8.384 78.992,8.48 78.896,8.48 L74.112,8.48 C74.176,9.29066667 74.3946667,9.88 74.768,10.248 C75.1413333,10.616 75.6853333,10.8 76.4,10.8 C76.8053333,10.8 77.16,10.752 77.464,10.656 C77.768,10.56 78.0293333,10.456 78.248,10.344 C78.4666667,10.232 78.592,10.176 78.624,10.176 C78.7413333,10.176 78.8773333,10.2986667 79.032,10.544 C79.1866667,10.7893333 79.264,10.9706667 79.264,11.088 C79.264,11.2586667 79.1226667,11.4266667 78.84,11.592 C78.5573333,11.7573333 78.192,11.8933333 77.744,12 C77.296,12.1066667 76.8426667,12.16 76.384,12.16 Z M77.824,7.2 C77.824,6.464 77.6826667,5.90133333 77.4,5.512 C77.1173333,5.12266667 76.6933333,4.928 76.128,4.928 C74.9226667,4.928 74.2506667,5.68533333 74.112,7.2 L77.824,7.2 Z" id="Shape"></path>
                    <path d="M83.552,12.16 C82.9653333,12.16 82.464,11.9813333 82.048,11.624 C81.632,11.2666667 81.424,10.672 81.424,9.84 L81.424,0.4 C81.424,0.133333333 81.664,1.07085863e-12 82.144,1.07085863e-12 L82.32,1.07085863e-12 C82.8106667,1.07085863e-12 83.056,0.133333333 83.056,0.4 L83.056,9.76 C83.056,10.144 83.1253333,10.4133333 83.264,10.568 C83.4026667,10.7226667 83.5946667,10.8 83.84,10.8 C83.9893333,10.8 84.1146667,10.7866667 84.216,10.76 C84.3173333,10.7333333 84.3946667,10.72 84.448,10.72 C84.5546667,10.72 84.6453333,10.8346667 84.72,11.064 C84.7946667,11.2933333 84.832,11.4666667 84.832,11.584 C84.832,11.968 84.4053333,12.16 83.552,12.16 Z" id="Path"></path>
                    <path d="M86.992,12.08 C86.5013333,12.08 86.256,11.9466667 86.256,11.68 L86.256,4.048 C86.256,3.78133333 86.5013333,3.648 86.992,3.648 L87.152,3.648 C87.6426667,3.648 87.888,3.78133333 87.888,4.048 L87.888,11.68 C87.888,11.9466667 87.6426667,12.08 87.152,12.08 L86.992,12.08 Z M87.088,2.624 C86.5226667,2.624 86.24,2.49066667 86.24,2.224 L86.24,1.184 C86.24,0.917333333 86.5226667,0.784 87.088,0.784 C87.6426667,0.784 87.92,0.917333333 87.92,1.184 L87.92,2.224 C87.92,2.49066667 87.6426667,2.624 87.088,2.624 Z" id="Shape"></path>
                    <path d="M91.184,12.08 C90.6933333,12.08 90.448,11.9466667 90.448,11.68 L90.448,6.224 C90.448,5.52 90.416,5.008 90.352,4.688 C90.288,4.368 90.256,4.18666667 90.256,4.144 C90.256,3.99466667 90.3893333,3.888 90.656,3.824 C90.9226667,3.76 91.168,3.728 91.392,3.728 C91.552,3.728 91.6666667,3.80266667 91.736,3.952 C91.8053333,4.10133333 91.8586667,4.26133333 91.896,4.432 C91.9333333,4.60266667 91.9573333,4.72 91.968,4.784 C92.288,4.41066667 92.6666667,4.11466667 93.104,3.896 C93.5413333,3.67733333 93.984,3.568 94.432,3.568 C95.2426667,3.568 95.8693333,3.79466667 96.312,4.248 C96.7546667,4.70133333 96.976,5.33866667 96.976,6.16 L96.976,11.68 C96.976,11.9466667 96.7306667,12.08 96.24,12.08 L96.064,12.08 C95.5733333,12.08 95.328,11.9466667 95.328,11.68 L95.328,6.352 C95.328,5.91466667 95.2053333,5.576 94.96,5.336 C94.7146667,5.096 94.3573333,4.976 93.888,4.976 C93.5466667,4.976 93.216,5.07466667 92.896,5.272 C92.576,5.46933333 92.3093333,5.72266667 92.096,6.032 L92.096,11.68 C92.096,11.9466667 91.8506667,12.08 91.36,12.08 L91.184,12.08 Z" id="Path"></path>
                    <path d="M102.192,15.44 C99.92,15.44 98.784,14.7306667 98.784,13.312 C98.784,12.8746667 98.912,12.48 99.168,12.128 C99.424,11.776 99.7653333,11.5146667 100.192,11.344 L100.208,11.296 C99.7813333,11.008 99.568,10.5813333 99.568,10.016 C99.568,9.39733333 99.8666667,8.896 100.464,8.512 C100.026667,8.29866667 99.6906667,7.99466667 99.456,7.6 C99.2213333,7.20533333 99.104,6.75733333 99.104,6.256 C99.104,5.43466667 99.392,4.78133333 99.968,4.296 C100.544,3.81066667 101.338667,3.568 102.352,3.568 C102.661333,3.568 103.002667,3.60533333 103.376,3.68 L106.192,3.68 C106.32,3.68 106.413333,3.72533333 106.472,3.816 C106.530667,3.90666667 106.56,4.05333333 106.56,4.256 L106.56,4.464 C106.56,4.66666667 106.530667,4.81066667 106.472,4.896 C106.413333,4.98133333 106.325333,5.024 106.208,5.024 C106.058667,5.024 105.872,5.01333333 105.648,4.992 C105.424,4.97066667 105.248,4.944 105.12,4.912 L105.104,4.944 C105.413333,5.28533333 105.568,5.72266667 105.568,6.256 C105.568,7.06666667 105.285333,7.70933333 104.72,8.184 C104.154667,8.65866667 103.376,8.896 102.384,8.896 C101.914667,8.896 101.573333,8.96266667 101.36,9.096 C101.146667,9.22933333 101.04,9.44533333 101.04,9.744 C101.04,10.064 101.194667,10.2826667 101.504,10.4 C101.813333,10.5173333 102.293333,10.6133333 102.944,10.688 L103.536,10.768 C104.336,10.8853333 104.96,11.104 105.408,11.424 C105.856,11.744 106.08,12.2506667 106.08,12.944 C106.08,13.7333333 105.744,14.3466667 105.072,14.784 C104.4,15.2213333 103.44,15.44 102.192,15.44 Z M102.336,7.616 C102.837333,7.616 103.242667,7.50933333 103.552,7.296 C103.861333,7.08266667 104.016,6.73066667 104.016,6.24 C104.016,5.76 103.861333,5.41066667 103.552,5.192 C103.242667,4.97333333 102.837333,4.864 102.336,4.864 C101.834667,4.864 101.432,4.97333333 101.128,5.192 C100.824,5.41066667 100.672,5.76 100.672,6.24 C100.672,6.73066667 100.824,7.08266667 101.128,7.296 C101.432,7.50933333 101.834667,7.616 102.336,7.616 Z M102.368,14.112 C103.093333,14.112 103.632,14.0213333 103.984,13.84 C104.336,13.6586667 104.512,13.3813333 104.512,13.008 C104.512,12.7626667 104.418667,12.5733333 104.232,12.44 C104.045333,12.3066667 103.816,12.2106667 103.544,12.152 C103.272,12.0933333 102.896,12.0373333 102.416,11.984 C101.850667,11.9093333 101.461333,11.8506667 101.248,11.808 C100.970667,11.9253333 100.749333,12.0853333 100.584,12.288 C100.418667,12.4906667 100.336,12.736 100.336,13.024 C100.336,13.408 100.493333,13.6853333 100.808,13.856 C101.122667,14.0266667 101.642667,14.112 102.368,14.112 Z" id="Shape"></path>
                </g>
            </g>
        </g>
    </g>
</svg>