<?xml version="1.0" encoding="utf-8"?>
<!-- Generator: Adobe Illustrator 23.0.6, SVG Export Plug-In . SVG Version: 6.00 Build 0)  -->
<svg version="1.1" xmlns="http://www.w3.org/2000/svg" xmlns:xlink="http://www.w3.org/1999/xlink" x="0px" y="0px"
	 viewBox="0 0 226.8 226.8" style="enable-background:new 0 0 226.8 226.8;" xml:space="preserve">
<style type="text/css">
	.st0{fill:#39870C;}
	.st1{fill:#FFFFFF;}
	.st2{display:none;fill:#39870C;}
	.st3{clip-path:url(#SVGID_2_);fill:#39870C;}
	.st4{fill:#FFFFFF;stroke:#39870C;stroke-width:4;stroke-miterlimit:10;}
	.st5{fill:none;}
	.st6{clip-path:url(#SVGID_4_);fill:#39870C;}
	.st7{clip-path:url(#SVGID_4_);}
	.st8{display:none;}
	.st9{display:inline;fill:#39870C;stroke:#FFFFFF;stroke-width:3.7729;stroke-miterlimit:10;}
	.st10{display:inline;}
	.st11{fill:#39870C;stroke:#FFFFFF;stroke-width:3.7729;stroke-miterlimit:10;}
	.st12{fill:#39870C;stroke:#FFFFFF;stroke-width:4.252;stroke-miterlimit:10;}
	.st13{fill:#FFFFFF;stroke:#39870C;stroke-width:4.8014;stroke-miterlimit:10;}
	.st14{fill:#39870C;stroke:#39870C;stroke-width:4.8014;stroke-miterlimit:10;}
	.st15{fill:none;stroke:#39870C;stroke-width:4.8014;stroke-miterlimit:10;}
	.st16{fill:#39870C;stroke:#FFFFFF;stroke-width:5.3333;stroke-miterlimit:10;}
</style>
<g id="Kader">
</g>
<g id="Icoon">
	<path class="st0" d="M207,106c1-11.5-6-22.1-16.8-27.4c6.2-3.4,10.6-9.2,11.2-16.2c1-11.7-9-22.1-22.2-23.2
		c-1.1-6.4-4.6-12.5-10.7-17.1c-13-9.9-32.4-8.8-43.2,2.5c-2.9,3.1-4.9,6.5-6,10.2c-8.1-1.4-17.6,1.3-24.7,7.8
		c-6.3,5.9-9.1,13.3-8.2,20c-1.3-0.3-2.7-0.6-4.1-0.7c-13.3-1.1-24.8,7.5-25.8,19.3c-0.7,8.2,4,15.6,11.4,19.8
		c-0.4,0.3-0.8,0.5-1.2,0.8c-9.6,8-8.3,22.9,2.8,33.3c5.2,4.8,11.6,7.7,18,8.7l0.1,0.1c0.5,0.4,12.3,10.6,16.6,13.4
		c3.2,2.1,5.6,3,6.7,3.4c0.7,1.4,2.6,6.1,2.1,13.5c-1.4,21.5-2.7,24.8-6.5,27.3c-3.7,2.5,28.7,5.7,25.9,2.2
		c-3.2-4.1-7.8-9.8-7.5-28.5c0.2-9.3,1-12.4,1.4-13.4c10.7,2,16.2-3.8,18.6-7.9c9,4.7,21.1,5.1,31.4,0c11.4-5.6,17.4-16.3,16.1-26.4
		C200.6,122.8,206.2,115.1,207,106z M113.5,152.3c-3.1,0.8-9.6-4.3-14.4-9.1c2.9-0.8,5.6-2.1,7.9-4c0.6-0.5,1-1.1,1.5-1.6
		c1.5,0.8,3.1,1.6,4.8,2.3C114.2,146.1,114.3,151.5,113.5,152.3z M123.5,152.2c-2.5,0-2.5-4.1-2.4-5c0-1-0.1-2.9-0.3-4.8
		c2.6,0.7,5.3,1.2,8.1,1.6C127.3,148.2,124.9,152.3,123.5,152.2z M135.8,155.4c-1.8,1.2-5.2,1.1-5.7,0.9c0.1-1,3.1-5.6,6.1-9.8
		c1,1.4,2.2,2.7,3.5,3.8C139.1,151.6,137.8,154,135.8,155.4z"/>
	<g>
		<circle class="st4" cx="59.3" cy="167.8" r="42.5"/>
		<g>
			<path class="st0" d="M39.3,172.3c-0.7,0-1.2-0.2-1.5-0.5c-0.3-0.3-0.4-1-0.4-1.9v-0.7c0-2.1,0.6-3.2,1.9-3.2h40
				c0.7,0,1.2,0.2,1.5,0.7c0.3,0.4,0.4,1.2,0.4,2.2v0.7c0,1-0.1,1.7-0.4,2.2c-0.3,0.4-0.8,0.7-1.5,0.7H39.3z"/>
		</g>
	</g>
</g>
</svg>
