<?xml version="1.0" encoding="utf-8"?>
<!-- Generator: Adobe Illustrator 23.0.6, SVG Export Plug-In . SVG Version: 6.00 Build 0)  -->
<svg version="1.1" xmlns="http://www.w3.org/2000/svg" xmlns:xlink="http://www.w3.org/1999/xlink" x="0px" y="0px"
	 viewBox="0 0 226.8 226.8" style="enable-background:new 0 0 226.8 226.8;" xml:space="preserve">
<style type="text/css">
	.st0{fill:#39870C;}
	.st1{fill:#FFFFFF;}
	.st2{display:none;fill:#39870C;}
	.st3{clip-path:url(#SVGID_2_);fill:#39870C;}
	.st4{fill:#FFFFFF;stroke:#39870C;stroke-width:4;stroke-miterlimit:10;}
	.st5{fill:none;}
	.st6{clip-path:url(#SVGID_4_);fill:#39870C;}
	.st7{clip-path:url(#SVGID_4_);}
	.st8{display:none;}
	.st9{display:inline;fill:#39870C;stroke:#FFFFFF;stroke-width:3.7729;stroke-miterlimit:10;}
	.st10{display:inline;}
	.st11{fill:#39870C;stroke:#FFFFFF;stroke-width:3.7729;stroke-miterlimit:10;}
	.st12{fill:#39870C;stroke:#FFFFFF;stroke-width:4.252;stroke-miterlimit:10;}
	.st13{fill:#FFFFFF;stroke:#39870C;stroke-width:4.8014;stroke-miterlimit:10;}
	.st14{fill:#39870C;stroke:#39870C;stroke-width:4.8014;stroke-miterlimit:10;}
	.st15{fill:none;stroke:#39870C;stroke-width:4.8014;stroke-miterlimit:10;}
	.st16{fill:#39870C;stroke:#FFFFFF;stroke-width:5.3333;stroke-miterlimit:10;}
</style>
<g id="Kader">
</g>
<g id="Icoon">
	<g>
		<path class="st0" d="M217.2,153.6l-5.4,0v49.2c0,1.1-0.9,2-2,2h-78.1c-1.1,0-2-0.9-2-2v-49.3l-5.4,0.1c-0.7-0.9-0.5-2.4,0.3-3.1
			l21.9-17.2v-26.8l-3.2,0c-0.4-0.5-0.3-1.4,0.2-1.8l26.1-20.4c0.4-0.3,1-0.3,1.4,0l26.1,20.4c0.5,0.4,0.6,1.3,0.2,1.8l-3.2,0v26.1
			l22.8,17.8C217.7,151.2,217.9,152.7,217.2,153.6z"/>
		<circle class="st1" cx="170.4" cy="113.6" r="11.5"/>
	</g>
	<g>
		<polygon class="st0" points="135.2,160.8 81.9,160.8 81.9,14.8 135.2,26.5 		"/>
		<rect x="89.1" y="34.2" class="st1" width="8.5" height="21.8"/>
		<rect x="104.4" y="34.2" class="st1" width="8.5" height="21.8"/>
		<rect x="119.8" y="34.2" class="st1" width="8.5" height="21.8"/>
		<rect x="89.1" y="63.9" class="st1" width="8.5" height="21.8"/>
		<rect x="104.4" y="63.9" class="st1" width="8.5" height="21.8"/>
		<rect x="119.8" y="63.9" class="st1" width="8.5" height="21.8"/>
		<rect x="89.1" y="93.6" class="st1" width="8.5" height="21.8"/>
		<rect x="104.4" y="93.6" class="st1" width="8.5" height="21.8"/>
		<rect x="119.8" y="93.6" class="st1" width="8.5" height="21.8"/>
		<rect x="89.1" y="123.3" class="st1" width="8.5" height="21.8"/>
		<rect x="104.4" y="123.3" class="st1" width="8.5" height="21.8"/>
		<rect x="119.8" y="123.3" class="st1" width="8.5" height="21.8"/>
	</g>
	<g>
		<path class="st0" d="M143.2,129.8c0-0.6-0.3-1.2-1.9-1l-32.3,22v-21c0-0.6-0.3-1.2-1.9-1l-32.3,22v-21c0-0.6-0.3-1.2-1.9-1
			L42,150.8c-0.3,0.2-0.4,0.5-0.4,0.8v59.5c0,0.6,0.5,1,1,1h99.5c0.6,0,1-0.5,1-1V129.8z"/>
		<path class="st1" d="M76.4,190.1H55.1c-0.8,0-1.4-0.6-1.4-1.4v-16.3c0-0.8,0.6-1.4,1.4-1.4h21.3c0.8,0,1.4,0.6,1.4,1.4v16.3
			C77.8,189.5,77.2,190.1,76.4,190.1z"/>
		<path class="st1" d="M105.5,190.1H84.2c-0.8,0-1.4-0.6-1.4-1.4v-16.3c0-0.8,0.6-1.4,1.4-1.4h21.3c0.8,0,1.4,0.6,1.4,1.4v16.3
			C106.9,189.5,106.2,190.1,105.5,190.1z"/>
		<path class="st1" d="M134.5,190.1h-21.3c-0.8,0-1.4-0.6-1.4-1.4v-16.3c0-0.8,0.6-1.4,1.4-1.4h21.3c0.8,0,1.4,0.6,1.4,1.4v16.3
			C136,189.5,135.3,190.1,134.5,190.1z"/>
		<path class="st0" d="M36.4,212.5H15.7c-0.8,0-1.4-0.6-1.4-1.4V93c0-0.8,0.6-1.4,1.4-1.4h20.7c0.8,0,1.4,0.6,1.4,1.4v118
			C37.8,211.8,37.2,212.5,36.4,212.5z"/>
	</g>
</g>
</svg>
