<svg id="browser" xmlns="http://www.w3.org/2000/svg" viewBox="0 0 80 80">
  <path d="M21,35H11v-10h10v10Zm12-10h-10v10h10v-10Zm12,0h-10v10h10v-10Zm12,0h-10v10h10v-10Zm12,0h-10v10h10v-10Zm-12,16H23v2H57v-2Zm23-27.63v53.25c0,4.61-3.6,8.37-8,8.37H8c-4.4,0-8-3.77-8-8.37V13.37C0,8.77,3.6,5,8,5H72c4.4,0,8,3.77,8,8.37Zm-56-2.37c0,1.1,.9,2,2,2s2-.9,2-2-.9-2-2-2-2,.9-2,2Zm-8,0c0,1.1,.9,2,2,2s2-.9,2-2-.9-2-2-2-2,.9-2,2Zm-8,0c0,1.1,.9,2,2,2s2-.9,2-2-.9-2-2-2-2,.9-2,2Zm68,6.11H4v49.52c0,2.3,1.8,4.19,4,4.19h3v-21.84H27v21.84h5v-21.84h16v21.84h5v-21.84h16v21.84h3c2.2,0,4-1.88,4-4.19V17.11Z" style="fill: #39870c;"/>
</svg>