<?xml version="1.0" encoding="utf-8"?>
<!-- Generator: Adobe Illustrator 23.0.6, SVG Export Plug-In . SVG Version: 6.00 Build 0)  -->
<svg version="1.1" xmlns="http://www.w3.org/2000/svg" xmlns:xlink="http://www.w3.org/1999/xlink" x="0px" y="0px"
	 viewBox="0 0 226.8 226.8" style="enable-background:new 0 0 226.8 226.8;" xml:space="preserve">
<style type="text/css">
	.st0{fill:#39870C;}
	.st1{fill:#FFFFFF;}
	.st2{display:none;fill:#39870C;}
	.st3{clip-path:url(#SVGID_2_);fill:#39870C;}
	.st4{fill:#FFFFFF;stroke:#39870C;stroke-width:4;stroke-miterlimit:10;}
	.st5{fill:none;}
	.st6{clip-path:url(#SVGID_4_);fill:#39870C;}
	.st7{clip-path:url(#SVGID_4_);}
	.st8{display:none;}
	.st9{display:inline;fill:#39870C;stroke:#FFFFFF;stroke-width:3.7729;stroke-miterlimit:10;}
	.st10{display:inline;}
	.st11{fill:#39870C;stroke:#FFFFFF;stroke-width:3.7729;stroke-miterlimit:10;}
	.st12{fill:#39870C;stroke:#FFFFFF;stroke-width:4.252;stroke-miterlimit:10;}
	.st13{fill:#FFFFFF;stroke:#39870C;stroke-width:4.8014;stroke-miterlimit:10;}
	.st14{fill:#39870C;stroke:#39870C;stroke-width:4.8014;stroke-miterlimit:10;}
	.st15{fill:none;stroke:#39870C;stroke-width:4.8014;stroke-miterlimit:10;}
	.st16{fill:#39870C;stroke:#FFFFFF;stroke-width:5.3333;stroke-miterlimit:10;}
</style>
<g id="Kader">
</g>
<g id="Icoon">
	<path class="st0" d="M211.2,96.3l-11.4,0.1v102.9c0,2.2-1.8,4.1-4.1,4.1H32.4c-2.2,0-4.1-1.8-4.1-4.1v-103l-11.4,0.1
		c-1.4-1.8-1.1-5.1,0.7-6.4l93.9-73.5c1.5-1.1,3.6-1.1,5.1,0l93.9,73.5C212.2,91.3,212.6,94.5,211.2,96.3z"/>
	<path class="st0" d="M180,74.2l-32.1-25.1c-1.2-1-1.4-2.8-0.5-4l3.8-4.9c1-1.2,2.8-1.4,4-0.5l32.1,25.1c1.2,1,1.4,2.8,0.5,4
		l-3.8,4.9C183,74.9,181.2,75.1,180,74.2z"/>
	<path class="st0" d="M190.2,54.4h-43.3c-0.8,0-1.4-0.6-1.4-1.4v-3.6c0-0.8,0.6-1.4,1.4-1.4h43.3c0.8,0,1.4,0.6,1.4,1.4V53
		C191.6,53.8,190.9,54.4,190.2,54.4z"/>
	<g>
		<circle class="st4" cx="58.7" cy="168" r="42.5"/>
		<g>
			<path class="st0" d="M56.3,190.9c-0.4-0.3-0.7-0.8-0.7-1.4v-16.9H38.7c-0.7,0-1.2-0.2-1.5-0.5c-0.3-0.3-0.4-1-0.4-1.9v-0.7
				c0-2.1,0.6-3.2,1.9-3.2h16.9v-16.9c0-0.7,0.2-1.2,0.7-1.5c0.4-0.3,1.2-0.4,2.2-0.4h0.7c1,0,1.7,0.2,2.2,0.5
				c0.4,0.3,0.7,0.8,0.7,1.4v16.9h16.8c0.7,0,1.2,0.2,1.5,0.7c0.3,0.4,0.4,1.2,0.4,2.2v0.7c0,1-0.1,1.7-0.4,2.2
				c-0.3,0.4-0.8,0.7-1.5,0.7H61.9v16.9c0,0.6-0.2,1.1-0.7,1.4c-0.4,0.3-1.2,0.5-2.2,0.5h-0.7C57.4,191.3,56.7,191.2,56.3,190.9z"/>
		</g>
	</g>
</g>
</svg>
