<?xml version="1.0" encoding="UTF-8"?>
<svg width="431px" height="218.500046px" viewBox="0 0 431 218.500046" version="1.1" xmlns="http://www.w3.org/2000/svg" xmlns:xlink="http://www.w3.org/1999/xlink">
    <title>404 illustratie</title>
    <g id="Foutmeldingen" stroke="none" stroke-width="1" fill="none" fill-rule="evenodd">
        <g id="Applicatie-niet-bereikbaar-open" transform="translate(-504, -191)">
            <g id="Group-16" transform="translate(351, 191)">
                <g id="404-illustratie" transform="translate(153, 0)">
                    <g id="Group-15" fill="#F2F2F2">
                        <path d="M250.395241,0 C279.450769,0 304.268093,18.1353816 314.132847,43.6979931 C321.060875,42.0964998 328.278884,41.25 335.694719,41.25 C388.330372,41.25 431,83.8948776 431,136.5 C431,171.051011 412.592945,201.305318 385.044867,218.002263 L23.1151365,218.000775 C8.55709328,199.644494 0,177.215742 0,153 C0,90.8679656 56.3328684,40.5 125.822983,40.5 C146.728463,40.5 166.443143,45.0585702 183.791447,53.1246144 C190.67358,22.71034 217.880729,0 250.395241,0 Z" id="Combined-Shape"></path>
                        <circle id="Oval-Copy-3" cx="56" cy="36" r="12"></circle>
                        <circle id="Oval-Copy-4" cx="38" cy="51" r="6"></circle>
                        <circle id="Oval-Copy-6" transform="translate(320.1363, 22.9647) rotate(15) translate(-320.1363, -22.9647)" cx="320.136297" cy="22.9647238" r="8"></circle>
                        <circle id="Oval-Copy-5" transform="translate(341.5505, 30.4142) rotate(15) translate(-341.5505, -30.4142)" cx="341.55051" cy="30.4142136" r="4"></circle>
                    </g>
                    <g id="Group-14" transform="translate(110, 110)">
                        <rect id="Rectangle-Copy-11" stroke="#527A5F" stroke-width="2.5" fill="#FFFFFF" x="149.836187" y="1.25" width="16.0107371" height="104.5" rx="2.5"></rect>
                        <path d="M164.596924,0 C165.977636,2.19900432e-15 167.096924,1.11928813 167.096924,2.5 L167.096924,104.5 C167.096924,105.880712 165.977636,107 164.596924,107 L157.383913,107.000652 C149.830547,103.552397 154.960016,96.3498652 156.940714,72.9372111 C157.491618,66.4253061 166.318591,13.424775 160.732484,1.40123794 L161.816475,0.147570204 C162.149697,0.134371038 162.504461,0.0792893105 162.871488,0.000365652415 L164.596924,0 Z" id="Combined-Shape" fill="#A9BDAF" opacity="0.5"></path>
                        <rect id="Rectangle-Copy-12" stroke="#527A5F" stroke-width="2.5" fill="#FFFFFF" x="43.2743761" y="1.25" width="16.0107371" height="104.5" rx="2.5"></rect>
                        <path d="M58.0351132,0 C59.415825,-2.53632657e-16 60.5351132,1.11928813 60.5351132,2.5 L60.5351132,104.5 C60.5351132,105.880712 59.415825,107 58.0351132,107 L50.8221023,107.000652 C43.268736,103.552397 48.3982051,96.3498652 50.378903,72.9372111 C50.9298067,66.4253061 59.7567803,13.424775 54.170673,1.40123794 L55.2546641,0.147570204 C55.5878865,0.134371038 55.9426506,0.0792893105 56.3096774,0.000365652415 L58.0351132,0 Z" id="Combined-Shape-Copy-3" fill="#A9BDAF" opacity="0.5"></path>
                        <rect id="Rectangle-Copy-15" stroke="#527A5F" stroke-width="2.5" x="43.2743761" y="1.25" width="16.0107371" height="104.5" rx="2.5"></rect>
                        <rect id="Rectangle-Copy-14" stroke="#527A5F" stroke-width="2.5" x="149.836187" y="1.25" width="16.0107371" height="104.5" rx="2.5"></rect>
                        <rect id="Rectangle-Copy-10" stroke="#527A5F" stroke-width="2.5" fill="#EBF3E6" x="1.25" y="52.25" width="208.122171" height="26" rx="2.5"></rect>
                        <rect id="Rectangle-Copy-9" stroke="#527A5F" stroke-width="2.5" fill="#EBF3E6" x="1.25" y="8.25" width="208.122171" height="26" rx="2.5"></rect>
                        <path d="M17.581,50.9991206 L9.944,79.4991206 L2.5,79.5 C1.11928813,79.5 -4.80043709e-15,78.3807119 0,77 L0,53.5 C-1.69088438e-16,52.1192881 1.11928813,51 2.5,51 L17.581,50.9991206 Z M47.581,50.9991206 L39.944,79.4991206 L26.508,79.4991206 L34.145,50.9991206 L47.581,50.9991206 Z M77.581,50.9991206 L69.944,79.4991206 L56.508,79.4991206 L64.145,50.9991206 L77.581,50.9991206 Z M107.581,50.9991206 L99.944,79.4991206 L86.508,79.4991206 L94.145,50.9991206 L107.581,50.9991206 Z M137.581,50.9991206 L129.944,79.4991206 L116.508,79.4991206 L124.145,50.9991206 L137.581,50.9991206 Z M167.581,50.9991206 L159.944,79.4991206 L146.508,79.4991206 L154.145,50.9991206 L167.581,50.9991206 Z M208.122171,51 C209.502883,51 210.622171,52.1192881 210.622171,53.5 L210.622171,77 C210.622171,78.3807119 209.502883,79.5 208.122171,79.5 L176.508,79.4991206 L184.145,50.9991206 L208.122171,51 Z M29.371,6.99912058 L21.734,35.4991206 L2.5,35.5 C1.11928813,35.5 -4.80043709e-15,34.3807119 0,33 L0,9.5 C-1.69088438e-16,8.11928813 1.11928813,7 2.5,7 L29.371,6.99912058 Z M59.371,6.99912058 L51.734,35.4991206 L38.298,35.4991206 L45.935,6.99912058 L59.371,6.99912058 Z M89.371,6.99912058 L81.734,35.4991206 L68.298,35.4991206 L75.935,6.99912058 L89.371,6.99912058 Z M119.371,6.99912058 L111.734,35.4991206 L98.298,35.4991206 L105.935,6.99912058 L119.371,6.99912058 Z M149.371,6.99912058 L141.734,35.4991206 L128.298,35.4991206 L135.935,6.99912058 L149.371,6.99912058 Z M179.371,6.99912058 L171.734,35.4991206 L158.298,35.4991206 L165.935,6.99912058 L179.371,6.99912058 Z M208.122171,7 C209.502883,7 210.622171,8.11928813 210.622171,9.5 L210.622171,33 C210.622171,34.3807119 209.502883,35.5 208.122171,35.5 L188.298,35.4991206 L195.935,6.99912058 L208.122171,7 Z" id="Combined-Shape" fill="#FFFFFF"></path>
                        <path d="M208.219842,7.003 L208.122171,7 C209.502883,7 210.622171,8.11928813 210.622171,9.5 L210.622171,33 C210.622171,34.3807119 209.502883,35.5 208.122171,35.5 L178.544842,35.5012802 C192.695911,32.0895918 203.931164,24.0029991 207.988131,9.71311667 L208.219842,7.003 Z" id="Combined-Shape" fill="#A9BDAF" opacity="0.5"></path>
                        <path d="M208.219842,51.003 L208.122171,51 C209.502883,51 210.622171,52.1192881 210.622171,53.5 L210.622171,77 C210.622171,78.3807119 209.502883,79.5 208.122171,79.5 L178.544842,79.5012802 C192.695911,76.0895918 203.931164,68.0029991 207.988131,53.7131167 L208.219842,51.003 Z" id="Combined-Shape-Copy-4" fill="#A9BDAF" opacity="0.5"></path>
                        <rect id="Rectangle-Copy-20" stroke="#527A5F" stroke-width="3" x="1.5" y="8.5" width="207.622171" height="25.5" rx="2.5"></rect>
                        <rect id="Rectangle-Copy-19" stroke="#527A5F" stroke-width="3" x="1.5" y="52.5" width="207.622171" height="25.5" rx="2.5"></rect>
                    </g>
                    <g id="Group-13" transform="translate(60, 74)">
                        <g id="Group-9">
                            <rect id="Rectangle-Copy" stroke="#527A5F" stroke-width="2.5" fill="#FFFFFF" x="1.25" y="1.25" width="80.0478816" height="54.5" rx="2.5"></rect>
                            <path d="M76.0455601,3.5 C77.4262719,3.5 78.5455601,4.61928813 78.5455601,6 L78.5455601,51 C78.5455601,52.3807119 77.4262719,53.5 76.0455601,53.5 L6.00203134,53.5 C4.62131947,53.5 3.50203134,52.3807119 3.50203134,51 L3.50175096,44.9207198 L44.947751,3.49971978 L76.0455601,3.5 Z" id="Combined-Shape" fill="#B0CF9E"></path>
                            <rect id="Rectangle" stroke="#527A5F" stroke-width="2" x="4.50203134" y="4.5" width="73.0435287" height="48" rx="2.5"></rect>
                        </g>
                        <rect id="Rectangle-Copy-3" stroke="#527A5F" stroke-width="2" fill="#FFFFFF" x="40.0220546" y="54.5" width="3.50319211" height="55" rx="1.75159605"></rect>
                        <path d="M41.5235055,106.5 C62.5006844,106.5 79.7319716,122.528766 81.6243898,143.000046 L1.4226212,143.000046 C3.31503943,122.528766 20.5463266,106.5 41.5235055,106.5 Z" id="Combined-Shape" stroke="#527A5F" stroke-width="2" fill="#EBF3E6" stroke-linejoin="round"></path>
                        <path d="M41.5235055,106.5 C62.5006844,106.5 79.7319716,122.528766 81.6243898,143.000046 L1.4226212,143.000046 C3.31503943,122.528766 20.5463266,106.5 41.5235055,106.5 Z" id="Combined-Shape-Copy-5" stroke="#527A5F" stroke-width="2" fill="#EBF3E6" stroke-linejoin="round"></path>
                        <path d="M13.8531728,130.538981 C13.0738099,134.344106 16.7559307,140.939114 13.0703434,142.165011 L12.7616212,142.999166 L1.4226212,143.000046 C2.77998196,128.316763 12.028663,115.919001 24.8907757,110.082166 C19.3972542,115.462703 15.6147464,121.938357 13.8531728,130.538981 Z" id="Combined-Shape" fill="#FFFFFF"></path>
                        <path d="M41.5235055,106.5 C62.5006844,106.5 79.7319716,122.528766 81.6243898,143.000046 L68.3940327,143.000864 C70.1915707,131.822658 61.1899959,118.961079 51.8932354,113.910912 C47.8966132,111.739875 43.2956053,110.711104 39.4939582,108.214685 C38.623052,107.642789 38.6839628,107.082259 39.7855024,106.536893 C40.3625581,106.512335 40.9415905,106.5 41.5235055,106.5 Z" id="Combined-Shape" fill="#A9BDAF" opacity="0.5"></path>
                        <path d="M41.5235055,106.5 C62.5006844,106.5 79.7319716,122.528766 81.6243898,143.000046 L1.4226212,143.000046 C3.31503943,122.528766 20.5463266,106.5 41.5235055,106.5 Z" id="Combined-Shape-Copy-6" stroke="#527A5F" stroke-width="3" stroke-linejoin="round"></path>
                    </g>
                    <g id="Group-12" transform="translate(298, 142)">
                        <path d="M41.7565028,1 L61.2344676,74 L7.3052886,74 L26.7832534,1 L41.7565028,1 Z" id="Rectangle" stroke="#527A5F" stroke-width="2" fill="#FFFFFF"></path>
                        <g id="Group-11" transform="translate(0, 0.6549)">
                            <path d="M53.7309582,41.3451327 L58.2669582,58.3451327 L10.2729582,58.3451327 L14.8089582,41.3451327 L53.7309582,41.3451327 Z M48.1269582,20.3451327 L50.5289582,29.3451327 L18.0109582,29.3451327 L20.4119582,20.3451327 L48.1269582,20.3451327 Z M44.3919582,6.34513274 L45.7259582,11.3451327 L22.8129582,11.3451327 L24.1469582,6.34513274 L44.3919582,6.34513274 Z" id="Combined-Shape" fill="#B0CF9E"></path>
                            <path d="M52.2643686,35.8469131 L60.935,68.3451327 L68.039466,68.3451327 L68.0401517,72.4750627 C65.1492846,73.6954902 61.8732689,73.4075566 58.5841506,72.9546538 L57.7424279,72.8359913 C57.6021701,72.815892 57.4619462,72.7957011 57.321785,72.7755227 L56.4818019,72.6554371 C55.2236495,72.4780362 53.9752558,72.318537 52.7576611,72.2529126 C42.7801142,71.7151546 32.4868271,72.5167099 22.8864895,69.7480317 C21.4226039,69.3258561 23.3106264,67.8580681 25.223604,66.5561589 L25.5335098,66.3466838 C26.3061942,65.8275879 27.0534233,65.3465176 27.5535232,64.9841944 C40.5294494,55.5831121 51.5901791,51.9445655 52.2643686,35.8469131 Z" id="Combined-Shape" fill="#A9BDAF" opacity="0.5"></path>
                            <rect id="Rectangle-Copy-8" stroke="#527A5F" stroke-width="2" x="1" y="69.3451327" width="66.039466" height="4"></rect>
                            <line x1="29.2669762" y1="3.09513274" x2="39.27278" y2="3.09513274" id="Line-2" stroke="#527A5F" stroke-width="2" stroke-linecap="round" stroke-linejoin="round"></line>
                            <polygon id="Rectangle-Copy-7" stroke="#527A5F" stroke-width="2.5" stroke-linejoin="round" points="26.6061703 5.15882506e-13 41.946927 5.15882506e-13 60.5417837 69.6902655 8.0113136 69.6902655"></polygon>
                            <rect id="Rectangle" stroke="#527A5F" stroke-width="2.5" fill="#FFFFFF" stroke-linejoin="round" x="0" y="68.3451327" width="68.039466" height="6"></rect>
                        </g>
                    </g>
                    <g id="Group-10" transform="translate(178.1574, 57.0016)">
                        <path d="M62.7634276,12.2333929 L62.7487727,62.7487727 L12.2333929,62.7634276 L12.2480477,12.2480477 L62.7634276,12.2333929 Z" id="Rectangle" stroke="#527A5F" stroke-width="2.5" fill="#FFFFFF" transform="translate(37.4984, 37.4984) rotate(45) translate(-37.4984, -37.4984)"></path>
                        <path d="M37.4984102,0.021750818 L74.9968204,37.4984102 L37.4984102,74.9750696 L20.5769356,58.0627508 L35.6389356,1.87975082 L37.4984102,0.021750818 Z" id="Combined-Shape" fill="#B0CF9E"></path>
                        <path d="M62.7634276,12.2333929 L62.7487727,62.7487727 L12.2333929,62.7634276 L12.2480477,12.2480477 L62.7634276,12.2333929 Z" id="Rectangle-Copy-17" stroke="#527A5F" stroke-width="2.5" transform="translate(37.4984, 37.4984) rotate(45) translate(-37.4984, -37.4984)"></path>
                        <g id="!" transform="translate(33.3481, 20.8984)" fill="#275937" fill-rule="nonzero">
                            <path d="M3.55,24 C2.58333333,24 1.91666667,23.875 1.55,23.625 C1.18333333,23.375 1,22.9666667 1,22.4 L1,1.6 C1,0.533333333 2,0 4,0 L6.15,0 C7.11666667,0 7.85833333,0.116666667 8.375,0.35 C8.89166667,0.583333333 9.15,0.933333333 9.15,1.4 L6.65,22.4 C6.58333333,22.9666667 6.38333333,23.375 6.05,23.625 C5.71666667,23.875 5.06666667,24 4.1,24 L3.55,24 Z M3,35.2 C1,35.2 0,34.6666667 0,33.6 L0,29 C0,27.9333333 1,27.4 3,27.4 L4.6,27.4 C6.6,27.4 7.6,27.9333333 7.6,29 L7.6,33.6 C7.6,34.6666667 6.6,35.2 4.6,35.2 L3,35.2 Z" id="Shape"></path>
                        </g>
                    </g>
                </g>
            </g>
        </g>
    </g>
</svg>