<svg viewBox="0 0 431 218.5" xmlns="http://www.w3.org/2000/svg">
    <g fill="none" fill-rule="evenodd">
        <g fill="#F2F2F2">
            <path d="M250.395 0c29.056 0 53.873 18.135 63.738 43.698a95.645 95.645 0 0 1 21.562-2.448C388.33 41.25 431 83.895 431 136.5c0 34.551-18.407 64.805-45.955 81.502l-361.93-.001C8.557 199.644 0 177.216 0 153 0 90.868 56.333 40.5 125.823 40.5c20.905 0 40.62 4.559 57.968 12.625C190.674 22.71 217.881 0 250.395 0Z"/>
            <circle cx="56" cy="36" r="12"/>
            <circle cx="38" cy="51" r="6"/>
            <circle transform="rotate(15 320.136 22.965)" cx="320.136" cy="22.965" r="8"/>
            <circle transform="rotate(15 341.55 30.414)" cx="341.551" cy="30.414" r="4"/>
        </g>
        <g transform="translate(110 110)">
            <rect stroke="#527A5F" stroke-width="2.5" fill="#FFF" x="149.836" y="1.25" width="16.011" height="104.5" rx="2.5"/>
            <path d="M164.597 0a2.5 2.5 0 0 1 2.5 2.5v102a2.5 2.5 0 0 1-2.5 2.5h-7.213c-7.553-3.448-2.424-10.65-.443-34.063.55-6.512 9.378-59.512 3.791-71.536l1.084-1.253A6.266 6.266 0 0 0 162.871 0h1.726Z" fill="#A9BDAF" opacity=".5"/>
            <rect stroke="#527A5F" stroke-width="2.5" fill="#FFF" x="43.274" y="1.25" width="16.011" height="104.5" rx="2.5"/>
            <path d="M58.035 0a2.5 2.5 0 0 1 2.5 2.5v102a2.5 2.5 0 0 1-2.5 2.5h-7.213c-7.553-3.448-2.424-10.65-.443-34.063.55-6.512 9.378-59.512 3.792-71.536L55.255.148A6.266 6.266 0 0 0 56.31 0h1.725Z" fill="#A9BDAF" opacity=".5"/>
            <rect stroke="#527A5F" stroke-width="2.5" x="43.274" y="1.25" width="16.011" height="104.5" rx="2.5"/>
            <rect stroke="#527A5F" stroke-width="2.5" x="149.836" y="1.25" width="16.011" height="104.5" rx="2.5"/>
            <rect stroke="#527A5F" stroke-width="2.5" fill="#EBF3E6" x="1.25" y="52.25" width="208.122" height="26" rx="2.5"/>
            <rect stroke="#527A5F" stroke-width="2.5" fill="#EBF3E6" x="1.25" y="8.25" width="208.122" height="26" rx="2.5"/>
            <path d="M17.581 51 9.944 79.5H2.5A2.5 2.5 0 0 1 0 77V53.5A2.5 2.5 0 0 1 2.5 51h15.081Zm30 0-7.637 28.5H26.508L34.145 51h13.436Zm30 0-7.637 28.5H56.508L64.145 51h13.436Zm30 0-7.637 28.5H86.508L94.145 51h13.436Zm30 0-7.637 28.5h-13.436l7.637-28.5h13.436Zm30 0-7.637 28.5h-13.436l7.637-28.5h13.436Zm40.541 0a2.5 2.5 0 0 1 2.5 2.5V77a2.5 2.5 0 0 1-2.5 2.5h-31.614l7.637-28.5h23.977ZM29.371 7l-7.637 28.5H2.5A2.5 2.5 0 0 1 0 33V9.5A2.5 2.5 0 0 1 2.5 7h26.871Zm30 0-7.637 28.5H38.298L45.935 7h13.436Zm30 0-7.637 28.5H68.298L75.935 7h13.436Zm30 0-7.637 28.5H98.298L105.935 7h13.436Zm30 0-7.637 28.5h-13.436L135.935 7h13.436Zm30 0-7.637 28.5h-13.436L165.935 7h13.436Zm28.751 0a2.5 2.5 0 0 1 2.5 2.5V33a2.5 2.5 0 0 1-2.5 2.5h-19.824L195.935 7h12.187Z" fill="#FFF"/>
            <path d="M208.22 7.003 208.122 7a2.5 2.5 0 0 1 2.5 2.5V33a2.5 2.5 0 0 1-2.5 2.5l-29.577.001c14.15-3.411 25.386-11.498 29.443-25.788l.232-2.71ZM208.22 51.003l-.098-.003a2.5 2.5 0 0 1 2.5 2.5V77a2.5 2.5 0 0 1-2.5 2.5l-29.577.001c14.15-3.411 25.386-11.498 29.443-25.788l.232-2.71Z" fill="#A9BDAF" opacity=".5"/>
            <rect stroke="#527A5F" stroke-width="3" x="1.5" y="8.5" width="207.622" height="25.5" rx="2.5"/>
            <rect stroke="#527A5F" stroke-width="3" x="1.5" y="52.5" width="207.622" height="25.5" rx="2.5"/>
        </g>
        <g transform="translate(60 74)">
            <rect stroke="#527A5F" stroke-width="2.5" fill="#FFF" x="1.25" y="1.25" width="80.048" height="54.5" rx="2.5"/>
            <path d="M76.046 3.5a2.5 2.5 0 0 1 2.5 2.5v45a2.5 2.5 0 0 1-2.5 2.5H6.002a2.5 2.5 0 0 1-2.5-2.5v-6.08L44.948 3.5h31.098Z" fill="#B0CF9E"/>
            <rect stroke="#527A5F" stroke-width="2" x="4.502" y="4.5" width="73.044" height="48" rx="2.5"/>
            <rect stroke="#527A5F" stroke-width="2" fill="#FFF" x="40.022" y="54.5" width="3.503" height="55" rx="1.752"/>
            <path d="M41.524 106.5c20.977 0 38.208 16.029 40.1 36.5H1.423c1.892-20.471 19.123-36.5 40.1-36.5Z" stroke="#527A5F" stroke-width="2" fill="#EBF3E6" stroke-linejoin="round"/>
            <path d="M41.524 106.5c20.977 0 38.208 16.029 40.1 36.5H1.423c1.892-20.471 19.123-36.5 40.1-36.5Z" stroke="#527A5F" stroke-width="2" fill="#EBF3E6" stroke-linejoin="round"/>
            <path d="M13.853 130.539c-.78 3.805 2.903 10.4-.783 11.626l-.308.834-11.34.001c1.358-14.683 10.607-27.081 23.469-32.918-5.494 5.38-9.276 11.856-11.038 20.457Z" fill="#FFF"/>
            <path d="M41.524 106.5c20.977 0 38.208 16.029 40.1 36.5h-13.23c1.798-11.177-7.204-24.039-16.5-29.09-3.997-2.17-8.598-3.199-12.4-5.695-.87-.572-.81-1.133.292-1.678a40.86 40.86 0 0 1 1.738-.037Z" fill="#A9BDAF" opacity=".5"/>
            <path d="M41.524 106.5c20.977 0 38.208 16.029 40.1 36.5H1.423c1.892-20.471 19.123-36.5 40.1-36.5Z" stroke="#527A5F" stroke-width="3" stroke-linejoin="round"/>
        </g>
        <path d="m339.757 143 19.477 73h-53.929l19.478-73h14.974Z" stroke="#527A5F" stroke-width="2" fill="#FFF"/>
        <path d="m351.731 184 4.536 17h-47.994l4.536-17h38.922Zm-5.604-21 2.402 9h-32.518l2.401-9h27.715Zm-3.735-14 1.334 5h-22.913l1.334-5h20.245Z" fill="#B0CF9E"/>
        <path d="M350.264 178.502 358.935 211h7.104l.001 4.13c-2.89 1.22-6.167.932-9.456.48l-.842-.12-.42-.06-.84-.12c-1.258-.177-2.507-.337-3.724-.402-9.978-.538-20.271.264-29.872-2.505-1.463-.422.425-1.89 2.338-3.192l.31-.21c.772-.519 1.52-1 2.02-1.362 12.975-9.401 24.036-13.04 24.71-29.137Z" fill="#A9BDAF" opacity=".5"/>
        <path stroke="#527A5F" stroke-width="2" d="M299 212h66.039v4H299z"/>
        <path stroke="#527A5F" stroke-width="2" stroke-linecap="round" stroke-linejoin="round" d="M327.267 145.75h10.006"/>
        <path stroke="#527A5F" stroke-width="2.5" stroke-linejoin="round" d="M324.606 142.655h15.34l18.596 69.69h-52.53z"/>
        <path stroke="#527A5F" stroke-width="2.5" fill="#FFF" stroke-linejoin="round" d="M298 211h68.039v6H298z"/>
        <path d="m251.386 94.5-35.73 35.71-35.73-35.71 35.73-35.71 35.73 35.71Z" stroke="#527A5F" stroke-width="2.5" fill="#FFF"/>
        <path d="M215.656 57.023 253.154 94.5l-37.498 37.477-16.922-16.913 15.062-56.183 1.86-1.858Z" fill="#B0CF9E"/>
        <path d="m251.386 94.5-35.73 35.71-35.73-35.71 35.73-35.71 35.73 35.71Z" stroke="#527A5F" stroke-width="2.5"/>
        <path d="M215.055 101.9c-.966 0-1.633-.125-2-.375-.366-.25-.55-.658-.55-1.225V79.5c0-1.067 1-1.6 3-1.6h2.15c.967 0 1.709.117 2.225.35.517.233.775.583.775 1.05l-2.5 21c-.066.567-.266.975-.6 1.225-.333.25-.983.375-1.95.375h-.55Zm-.55 11.2c-2 0-3-.533-3-1.6v-4.6c0-1.067 1-1.6 3-1.6h1.6c2 0 3 .533 3 1.6v4.6c0 1.067-1 1.6-3 1.6h-1.6Z" fill="#275937" fill-rule="nonzero"/>
    </g>
</svg>
