<?xml version="1.0" encoding="utf-8"?>
<!-- Generator: Adobe Illustrator 23.0.6, SVG Export Plug-In . SVG Version: 6.00 Build 0)  -->
<svg version="1.1" xmlns="http://www.w3.org/2000/svg" xmlns:xlink="http://www.w3.org/1999/xlink" x="0px" y="0px"
	 viewBox="0 0 226.8 226.8" style="enable-background:new 0 0 226.8 226.8;" xml:space="preserve">
<style type="text/css">
	.st0{fill:#39870C;}
	.st1{fill:#FFFFFF;}
	.st2{display:none;fill:#39870C;}
	.st3{clip-path:url(#SVGID_2_);fill:#39870C;}
	.st4{fill:#FFFFFF;stroke:#39870C;stroke-width:4;stroke-miterlimit:10;}
	.st5{fill:none;}
	.st6{clip-path:url(#SVGID_4_);fill:#39870C;}
	.st7{clip-path:url(#SVGID_4_);}
	.st8{display:none;}
	.st9{display:inline;fill:#39870C;stroke:#FFFFFF;stroke-width:3.7729;stroke-miterlimit:10;}
	.st10{display:inline;}
	.st11{fill:#39870C;stroke:#FFFFFF;stroke-width:3.7729;stroke-miterlimit:10;}
	.st12{fill:#39870C;stroke:#FFFFFF;stroke-width:4.252;stroke-miterlimit:10;}
	.st13{fill:#FFFFFF;stroke:#39870C;stroke-width:4.8014;stroke-miterlimit:10;}
	.st14{fill:#39870C;stroke:#39870C;stroke-width:4.8014;stroke-miterlimit:10;}
	.st15{fill:none;stroke:#39870C;stroke-width:4.8014;stroke-miterlimit:10;}
	.st16{fill:#39870C;stroke:#FFFFFF;stroke-width:5.3333;stroke-miterlimit:10;}
</style>
<g id="Kader">
</g>
<g id="Icoon">
	<polygon class="st0" points="139.7,22.9 158.5,80.6 77.4,80.6 113.4,29.6 125.4,33.1 	"/>
	<polygon class="st0" points="35.5,25.5 7.9,86.4 141,86.4 82.7,10.3 62.1,30.4 	"/>
	<g class="st8">
		<path class="st9" d="M169.9,147.1c10.8-16.9,13-34.7,2.1-41.6c-3.3-2.1-17.7-7.3-21.5-7.9c-12.7-1.9-22.6,13-25.7,32.8
			c-2,13.3,5.4,35.7,11.1,38C142.8,171.1,163.5,157.2,169.9,147.1z"/>
		<g class="st10">
			<path class="st11" d="M190.4,43.5l-4.7-2c-4.2-1.8-9,0.1-10.8,4.3l-19.3,44.6l19.8,8.6l19.3-44.6
				C196.4,50.2,194.5,45.3,190.4,43.5z"/>
			<path class="st11" d="M155,91.5l-4.1,9.5c-1.8,4.2,0.1,9,4.3,10.8l4.7,2c4.2,1.8,9-0.1,10.8-4.3l4.1-9.5L155,91.5z"/>
		</g>
	</g>
	<path class="st0" d="M175,78.6c0,0-70.1,20.1-62.9,24c5.1,2.7,28.7,7.5,30.3,8.7c4.3,3.5-128.6,58.3-128.6,58.3v42.8l139.8-0.2
		c0,0,36.5-99.8,28.8-104.9c-5.3-3.5-53.9-8.2-52.8-9.4C132,95.2,175,78.6,175,78.6z"/>
	<g>
		<g>
			<path class="st0" d="M60,159.8c-9.3,0-9.8-1.4-10.1-2.4c-0.3-0.9,0-2,0.8-2.7c1.3-1,1.8-2.7,1.6-14.6c-0.1-3-0.8-5-1.2-6
				c-0.9-0.3-2.1-0.8-3.6-1.6c-2.5-1.3-8.5-5.6-10.2-6.8c-4.2-0.4-8.2-2-11.5-4.6c-4.3-3.4-6.9-8-7.2-12.7c-0.2-3.1,0.7-6,2.4-8.4
				c-4-2.7-6.4-6.9-6.4-11.5c0-4,1.7-7.7,4.8-10.5c3.1-2.7,7.1-4.2,11.4-4.3c0,0,0,0,0,0c0-3.9,1.6-7.9,4.6-11.2
				c3.6-4,8.8-6.5,14-6.6c0.6-2,1.6-3.8,3-5.4c3.8-4.7,9.9-7.5,16.3-7.5c4.2,0,8.2,1.1,11.6,3.3c3.6,2.3,6.2,5.5,7.6,9.2
				c8.2,0.7,14.7,7,14.7,14.5c0,3.6-1.4,7-4,9.6c5.8,3.4,9.4,9.3,9.5,15.7c0,5.5-2.6,10.6-7.1,14.2c0.8,6.6-2.7,13.2-9.3,17.2
				c-3.6,2.2-7.8,3.4-12.1,3.4c0,0,0,0,0,0c-2.2,0-4.4-0.3-6.5-1c-1.6,2.3-4.5,5-9.6,5.1c-0.1,1.1,0,2.8,0.1,5.6
				c0.7,10.1,3.3,12.9,5.2,14.9c0.7,0.8,0.9,1.8,0.5,2.7C69,158.5,68.4,159.8,60,159.8z M48.6,123.1c1.1,0.8,2.1,1.4,2.9,1.7
				c-0.1-0.8-0.3-1.9-0.5-3.1c-0.1-0.1-0.3-0.1-0.4-0.2C50,122.1,49.3,122.6,48.6,123.1z"/>
			<path class="st1" d="M68.6,45.3c3.6,0,7.3,1,10.5,3c3.8,2.4,6.2,5.8,7.1,9.5c0,0,0,0,0,0c7.8,0,14.1,5.6,14.2,12.5
				c0,4.1-2.3,7.8-5.7,10.1c6.6,2.6,11.2,8.4,11.2,15.2c0,5.4-2.9,10.2-7.3,13.3c1.3,5.9-1.6,12.4-8,16.3c-3.4,2.1-7.3,3.1-11,3.1
				c-2.6,0-5.1-0.5-7.4-1.4c-1.1,2.3-3.7,5.6-9.1,5.6c-0.4,0-0.9,0-1.4-0.1c-0.2,0.6-0.5,2.4-0.1,7.9c0.8,10.9,3.7,14,5.8,16.3
				c0.9,0.9-3.2,1.3-7.3,1.3c-4.4,0-9-0.5-8-1.3c2.1-1.7,2.6-3.7,2.4-16.3c-0.1-4.4-1.4-7-1.9-7.8c-0.7-0.2-2.1-0.6-4.1-1.6
				c-2.7-1.4-10.1-6.7-10.4-7l-0.1,0c-3.8-0.3-7.7-1.6-11-4.2c-7-5.5-8.5-14.1-3.3-19.3c0.2-0.2,0.4-0.3,0.7-0.5
				c-4.5-2.1-7.7-6.2-7.7-11c0-6.9,6.3-12.6,14.1-12.6c0,0,0,0,0,0c0.8,0,1.6,0.1,2.4,0.2c-0.9-3.8,0.4-8.3,3.8-12.1
				c3.5-3.9,8.3-5.9,12.8-5.9c0.4,0,0.8,0,1.2,0c0.5-2.2,1.5-4.3,3-6.3C57.5,47.6,63,45.3,68.6,45.3 M53,127.4c0.2,0,0.4,0,0.6-0.1
				c0.4-0.5,0.1-3.6-0.8-7.2c-1-0.3-2-0.7-2.9-1.1c-0.3,0.3-0.5,0.7-0.8,1c-1.2,1.2-2.7,2.1-4.4,2.8C47.4,125,51,127.4,53,127.4
				 M59.3,126.8c0,0,0.1,0,0.1,0c0.8,0,2-2.6,2.7-5.1c-1.7-0.1-3.3-0.2-4.8-0.5c0.2,1.1,0.4,2.2,0.4,2.8
				C57.8,124.5,57.9,126.8,59.3,126.8 M63.9,128.8c0.7,0,2.1-0.2,2.9-0.8c1.1-0.9,1.8-2.4,2.1-3.2c-0.8-0.6-1.6-1.3-2.3-2
				c-1.6,2.6-3.1,5.5-3.1,6.1C63.6,128.8,63.7,128.8,63.9,128.8 M68.6,41C68.6,41,68.6,41,68.6,41c-7.1,0-13.8,3.1-18,8.3
				c-1.2,1.5-2.1,3.1-2.8,4.7c-5.2,0.5-10.4,3.1-14.1,7.2c-2.8,3.1-4.5,6.9-5,10.6c-9.2,0.9-16.4,8.1-16.4,16.8
				c0,4.6,2.1,8.9,5.7,12c-1.3,2.4-1.9,5.1-1.7,8c0.3,5.3,3.3,10.5,8,14.2c3.5,2.7,7.7,4.4,12,5c2.1,1.5,7.6,5.4,10,6.7
				c1.1,0.6,2.2,1,3,1.4c0.3,1,0.7,2.4,0.7,4.4c0.2,8.6-0.1,12.3-0.8,12.9c-1.5,1.2-2.1,3.2-1.5,5c1.2,3.3,5,3.9,12.1,3.9
				c7.4,0,10.1-0.9,11.3-3.6c0.7-1.7,0.4-3.6-0.9-4.9l0-0.1c-1.8-1.9-4-4.3-4.6-13.6c-0.1-1.4-0.1-2.6-0.2-3.5
				c3.3-0.5,6.2-2.1,8.3-4.6c1.8,0.4,3.7,0.7,5.6,0.7c4.7,0,9.2-1.3,13.2-3.7c6.9-4.2,10.8-11.1,10.4-18.1c4.5-4,7.1-9.4,7-15.1
				c0-6.3-3.2-12.2-8.5-16.1c1.9-2.7,3-5.9,3-9.2c0-8.2-6.7-15.1-15.3-16.5c-1.6-3.6-4.4-6.8-7.9-9C77.6,42.3,73.2,41,68.6,41
				L68.6,41L68.6,41z"/>
		</g>
		<path class="st0" d="M105.9,95.4c0-6.8-4.6-12.6-11.2-15.2c3.5-2.3,5.7-5.9,5.7-10.1c0-6.9-6.4-12.5-14.2-12.5
			c-0.9-3.7-3.4-7.1-7.1-9.5c-8.1-5.1-19.4-3.5-25.2,3.7c-1.6,1.9-2.5,4.1-3,6.3c-4.8-0.4-10.3,1.7-14,5.9
			c-3.4,3.7-4.6,8.3-3.8,12.1c-0.8-0.1-1.6-0.2-2.4-0.2c-7.8,0-14.1,5.7-14.1,12.6c0,4.8,3.2,8.9,7.7,11c-0.2,0.2-0.5,0.3-0.7,0.5
			c-5.2,5.2-3.7,13.8,3.3,19.3c3.3,2.6,7.2,3.9,11,4.2l0.1,0c0.3,0.2,7.7,5.6,10.4,7c2,1,3.4,1.5,4.1,1.6c0.5,0.8,1.8,3.4,1.9,7.8
			c0.3,12.6-0.3,14.6-2.4,16.3c-2,1.6,17.1,1.9,15.3,0c-2.1-2.3-5.1-5.3-5.8-16.3c-0.4-5.5-0.1-7.3,0.1-7.9
			c6.4,0.6,9.3-3.1,10.5-5.6c5.5,2.3,12.6,1.9,18.4-1.6c6.4-3.9,9.4-10.4,8-16.3C103,105.6,105.9,100.8,105.9,95.4z M53.6,127.3
			c-1.7,0.6-5.9-2-8.9-4.6c1.7-0.6,3.2-1.5,4.4-2.8c0.3-0.3,0.5-0.7,0.8-1c0.9,0.4,1.9,0.8,2.9,1.1C53.6,123.7,54,126.8,53.6,127.3z
			 M59.4,126.8c-1.5,0.1-1.6-2.3-1.7-2.8c0-0.6-0.2-1.7-0.4-2.8c1.6,0.3,3.2,0.4,4.8,0.5C61.4,124.2,60.2,126.7,59.4,126.8z
			 M66.8,128c-1,0.8-3,0.9-3.3,0.8c0-0.6,1.5-3.5,3.1-6.1c0.7,0.8,1.4,1.4,2.3,2C68.5,125.6,67.9,127.1,66.8,128z"/>
	</g>
	<path class="st0" d="M192.7,31.9C192.7,31.9,192.7,31.9,192.7,31.9C192.7,31.9,192.7,31.9,192.7,31.9c0-0.6-0.3-1-0.8-1.2
		c-0.1,0-0.1-0.1-0.2-0.1h-0.1c-2.5-1-5-2.3-5.3-2.9c-0.5-1.2,0.7-4.5,1.7-6.4c0.3-0.5,0.1-1.1-0.3-1.5c-0.4-0.4-1-0.5-1.5-0.2
		c-1.4,0.8-4.2,2-5.5,2c-0.2,0-0.3,0-0.3,0c-0.8-0.4-2.5-3.4-3.5-5.9c-0.2-0.5-0.7-0.8-1.3-0.8c-0.5,0-1,0.4-1.2,0.9
		c-0.9,2.7-2.4,5.4-3,5.7c0,0-0.1,0-0.3,0c-1.6,0-4.9-1.4-6-1.9c-0.5-0.2-1.1-0.1-1.5,0.2c-0.4,0.4-0.5,1-0.3,1.5
		c1,2.3,2,5.4,1.9,6.4c-0.7,0.6-3.3,1.9-5.5,2.9h0c-0.1,0-0.2,0.1-0.2,0.1c-0.4,0.2-0.7,0.6-0.8,1c0,0,0,0,0,0c0,0,0,0.1,0,0.1
		c0,0,0,0,0,0c0,0,0,0,0,0c0,0,0,0.1,0,0.1c0,0,0,0,0,0c0.1,0.5,0.4,0.9,0.8,1c0.1,0,0.2,0.1,0.2,0.1h0c2.3,1,4.9,2.3,5.5,2.9
		c0.1,1-0.9,4.1-1.9,6.4c-0.2,0.5-0.1,1.1,0.3,1.5c0.4,0.4,1,0.5,1.5,0.2c1.1-0.5,4.4-1.9,6-1.9c0.2,0,0.3,0,0.3,0
		c0.7,0.3,2.1,3,3,5.7c0.2,0.5,0.6,0.9,1.2,0.9c0.6,0,1.1-0.3,1.3-0.8c1.1-2.5,2.7-5.5,3.5-5.9c0,0,0.1,0,0.3,0c1.4,0,4.1,1.2,5.5,2
		c0.5,0.3,1.1,0.2,1.5-0.2c0.4-0.4,0.5-1,0.3-1.5c-0.9-1.9-2.1-5.3-1.7-6.4c0.3-0.5,2.8-1.9,5.3-2.9h0.1c0.1,0,0.1-0.1,0.2-0.1
		C192.4,33,192.7,32.5,192.7,31.9C192.7,31.9,192.7,31.9,192.7,31.9C192.7,31.9,192.7,31.9,192.7,31.9z M175.6,38.5
		c-3.2,0-5.8-2.3-6.5-5.3h0c-0.1-0.4-0.1-0.7-0.1-1.1c0-0.1,0-0.1,0-0.2c0-0.1,0-0.1,0-0.2c0-0.4,0.1-0.8,0.1-1.1h0
		c0.6-3,3.3-5.3,6.5-5.3s5.8,2.3,6.5,5.3h0c0.1,0.4,0.1,0.7,0.1,1.1c0,0.1,0,0.1,0,0.2c0,0.1,0,0.1,0,0.2c0,0.4-0.1,0.8-0.1,1.1h0
		C181.4,36.3,178.8,38.5,175.6,38.5z"/>
	<polygon class="st0" points="205.3,53.4 209.9,107.9 168.6,98.6 179,60.1 191.1,63.6 	"/>
</g>
</svg>
