<svg id="onderhoud" xmlns="http://www.w3.org/2000/svg" viewBox="0 0 80 80">
  <g>
    <path d="M74.46,55.55c-1.32.76-2.64,1.53-4,2.28a2,2,0,0,1-2.86-.78c-.37-.63-.73-1.27-1.09-1.91a1.92,1.92,0,0,1,.71-2.68c.54-.33,3.51-2,4.48-2.57a7.55,7.55,0,0,0-5.14-1.33A7.39,7.39,0,0,0,60,56.19a.53.53,0,0,1-.31.56l-2,1.13V42.53L56.18,29a1.44,1.44,0,0,0-1.34-1.05H51.7A1.09,1.09,0,0,0,50.61,29v1.77H43.48c0-4.6,0-10.6,0-12.81a4.1,4.1,0,0,1,.6-1.77,1.12,1.12,0,0,0,.07-.88c-.24-.72-.44-1.45-.64-2.18a.4.4,0,0,0-.46-.35H41.92a.4.4,0,0,0-.46.35c-.2.73-.4,1.46-.64,2.18a1.12,1.12,0,0,0,.07.88A4,4,0,0,1,41.48,18c0,2.21,0,8.21,0,12.81H25.37c-.07-1.36-.15-2.72-.23-4.08,0-.56-.2-.67-.72-.65-1.62.08-3.23.11-4.85.13-.44,0-.58.13-.58.58,0,1.34,0,2.68,0,4h-6.6V29a1.09,1.09,0,0,0-1.09-1.08H8.12A1.44,1.44,0,0,0,6.78,29L5.3,42.53V63a2.6,2.6,0,0,0,2.47,2.7H44.11L41,67.48a3.2,3.2,0,1,0,3.4,5.41L62.78,62.28a.54.54,0,0,1,.64,0,7.17,7.17,0,0,0,8.25-.2,7.29,7.29,0,0,0,3.2-6.75ZM18.89,39.89c0,2,0,3.93-.05,5.9H12.4l0-12.25h6.57C18.92,35.66,18.91,37.77,18.89,39.89Zm19.94-1.51a2.4,2.4,0,0,1,.08,4,.56.56,0,0,0-.32.6v2.83H26.23q-.35-6.12-.7-12.25H41.47v3.09H38.64A2.9,2.9,0,0,0,38.83,38.38Zm4.65-4.84h7.11l0,12.25H46.36V43a.59.59,0,0,0-.32-.6,2.4,2.4,0,0,1,.08-4,2.9,2.9,0,0,0,.19-1.75H43.48Zm-.12,37.07a1.09,1.09,0,0,1-2.1-.55,1.09,1.09,0,1,1,2.1.55Z" style="fill: #39870c"/>
    <path d="M9.74,21.93c1,0,2.1-.07,3.16-.09a1.21,1.21,0,0,0,1.17-.72,1.32,1.32,0,0,1,.72-.71,2.72,2.72,0,0,1,2.64.3,3.91,3.91,0,0,1,1.51,2.61c.07.33.17.44.53.42,1.69,0,3.37-.07,5.06-.08.33,0,.48-.09.53-.44a4.21,4.21,0,0,1,.77-1.84,6.32,6.32,0,0,1,7.24-1.82,11.35,11.35,0,0,1,4.7,3.51,4.63,4.63,0,0,0,1.11,1c.3.18.49.08.49-.28a2.74,2.74,0,0,0-.22-1,14.73,14.73,0,0,0-3.34-5.21c-2.79-2.71-5.38-3.89-8.69-3.93-2.77,0-5.55.09-8.32.14a1.16,1.16,0,0,0-1.12.73,1.26,1.26,0,0,1-.5.62,2.57,2.57,0,0,1-3.38-.69.88.88,0,0,0-.74-.47c-1.24,0-2.47,0-3.7.1A1.5,1.5,0,0,0,7.9,15.68c0,1.52,0,3.05.09,4.57A1.62,1.62,0,0,0,9.74,21.93Z" style="fill: #39870c"/>
  </g>
</svg>
