<?xml version="1.0" encoding="utf-8"?>
<!-- Generator: Adobe Illustrator 23.0.6, SVG Export Plug-In . SVG Version: 6.00 Build 0)  -->
<svg version="1.1" xmlns="http://www.w3.org/2000/svg" xmlns:xlink="http://www.w3.org/1999/xlink" x="0px" y="0px"
	 viewBox="0 0 226.8 226.8" style="enable-background:new 0 0 226.8 226.8;" xml:space="preserve">
<style type="text/css">
	.st0{fill:#39870C;}
	.st1{fill:#FFFFFF;}
	.st2{display:none;fill:#39870C;}
	.st3{clip-path:url(#SVGID_2_);fill:#39870C;}
	.st4{fill:#FFFFFF;stroke:#39870C;stroke-width:4;stroke-miterlimit:10;}
	.st5{fill:none;}
	.st6{clip-path:url(#SVGID_4_);fill:#39870C;}
	.st7{clip-path:url(#SVGID_4_);}
	.st8{display:none;}
	.st9{display:inline;fill:#39870C;stroke:#FFFFFF;stroke-width:3.7729;stroke-miterlimit:10;}
	.st10{display:inline;}
	.st11{fill:#39870C;stroke:#FFFFFF;stroke-width:3.7729;stroke-miterlimit:10;}
	.st12{fill:#39870C;stroke:#FFFFFF;stroke-width:4.252;stroke-miterlimit:10;}
	.st13{fill:#FFFFFF;stroke:#39870C;stroke-width:4.8014;stroke-miterlimit:10;}
	.st14{fill:#39870C;stroke:#39870C;stroke-width:4.8014;stroke-miterlimit:10;}
	.st15{fill:none;stroke:#39870C;stroke-width:4.8014;stroke-miterlimit:10;}
	.st16{fill:#39870C;stroke:#FFFFFF;stroke-width:5.3333;stroke-miterlimit:10;}
</style>
<g id="Kader">
</g>
<g id="Icoon">
	<path class="st0" d="M211.2,96.3l-11.4,0.1v102.9c0,2.2-1.8,4.1-4.1,4.1H32.4c-2.2,0-4.1-1.8-4.1-4.1v-103l-11.4,0.1
		c-1.4-1.8-1.1-5.1,0.7-6.4l93.9-73.5c1.5-1.1,3.6-1.1,5.1,0l93.9,73.5C212.2,91.3,212.6,94.5,211.2,96.3z"/>
	<g>
		<circle class="st4" cx="59.2" cy="168" r="42.5"/>
		<path class="st0" d="M58.9,142.4c-6.6,0-12.6,2.4-17.2,6.3c-1,0.8-1.1,2.1-0.4,3.1c0.8,1,2.1,1.1,3.1,0.4c0,0,0.1-0.1,0.1-0.1
			c3.9-3.3,8.9-5.3,14.3-5.3c11.5,0,20.9,8.7,22,19.9h-6.5l8.8,13.3l8.8-13.3h-6.7C84.2,153.1,72.8,142.4,58.9,142.4z M34.6,157.8
			l-8.8,13.3h6.7c1.1,13.6,12.5,24.3,26.4,24.3c6.6,0,12.6-2.4,17.2-6.3c1-0.8,1.1-2.1,0.4-3.1c-0.8-1-2.1-1.1-3.1-0.4
			c0,0-0.1,0.1-0.1,0.1c-3.9,3.3-8.9,5.3-14.3,5.3c-11.5,0-20.9-8.7-22-19.9h6.5L34.6,157.8z"/>
	</g>
	<rect x="126.9" y="105.2" class="st1" width="18.4" height="29.1"/>
	<rect x="150.4" y="105.2" class="st1" width="18.4" height="29.1"/>
	<rect x="126.9" y="139.7" class="st1" width="18.4" height="29.1"/>
	<rect x="150.4" y="139.7" class="st1" width="18.4" height="29.1"/>
</g>
</svg>
