<?xml version="1.0" encoding="utf-8"?>
<!-- Generator: Adobe Illustrator 23.0.6, SVG Export Plug-In . SVG Version: 6.00 Build 0)  -->
<svg version="1.1" xmlns="http://www.w3.org/2000/svg" xmlns:xlink="http://www.w3.org/1999/xlink" x="0px" y="0px"
	 viewBox="0 0 226.8 226.8" style="enable-background:new 0 0 226.8 226.8;" xml:space="preserve">
<style type="text/css">
	.st0{fill:#39870C;}
	.st1{fill:#FFFFFF;}
	.st2{display:none;fill:#39870C;}
	.st3{clip-path:url(#SVGID_2_);fill:#39870C;}
	.st4{fill:#FFFFFF;stroke:#39870C;stroke-width:4;stroke-miterlimit:10;}
	.st5{fill:none;}
	.st6{clip-path:url(#SVGID_4_);fill:#39870C;}
	.st7{clip-path:url(#SVGID_4_);}
	.st8{display:none;}
	.st9{display:inline;fill:#39870C;stroke:#FFFFFF;stroke-width:3.7729;stroke-miterlimit:10;}
	.st10{display:inline;}
	.st11{fill:#39870C;stroke:#FFFFFF;stroke-width:3.7729;stroke-miterlimit:10;}
	.st12{fill:#39870C;stroke:#FFFFFF;stroke-width:4.252;stroke-miterlimit:10;}
	.st13{fill:#FFFFFF;stroke:#39870C;stroke-width:4.8014;stroke-miterlimit:10;}
	.st14{fill:#39870C;stroke:#39870C;stroke-width:4.8014;stroke-miterlimit:10;}
	.st15{fill:none;stroke:#39870C;stroke-width:4.8014;stroke-miterlimit:10;}
	.st16{fill:#39870C;stroke:#FFFFFF;stroke-width:5.3333;stroke-miterlimit:10;}
</style>
<g id="Kader">
</g>
<g id="Icoon">
	<g>
		<path class="st0" d="M116.6,118.5c0,17.7-14.4,32.1-32.1,32.1s-32.1-14.4-32.1-32.1c0-25.4,32.1-64.1,32.1-64.1
			S116.6,93.1,116.6,118.5z"/>
		<path class="st1" d="M67.9,124.6c-2.4-6.3-2-12.6,0.6-16.2c-1.4-0.3-2.9-0.3-4.2,0.2c-5.3,2-7,10.4-3.9,18.8
			c3.2,8.3,10,13.5,15.4,11.5c1.3-0.5,2.4-1.4,3.3-2.6C74.7,135.3,70.2,130.9,67.9,124.6z"/>
	</g>
	<g>
		<g>
			<path class="st0" d="M137.6,120.3c-19.3,0-34.9-15.7-34.9-34.9c0-26.1,31.4-64.3,32.8-66l2.2-2.6l2.2,2.6
				c1.3,1.6,32.8,39.8,32.8,66C172.5,104.6,156.8,120.3,137.6,120.3z"/>
			<path class="st1" d="M137.6,21.2c0,0,32.1,38.8,32.1,64.1c0,17.7-14.4,32.1-32.1,32.1s-32.1-14.4-32.1-32.1
				C105.5,60,137.6,21.2,137.6,21.2 M137.6,12.3l-4.4,5.3c-0.3,0.4-8.4,10.1-16.5,23.2c-11.2,18-16.9,33-16.9,44.6
				c0,20.8,16.9,37.8,37.8,37.8s37.8-16.9,37.8-37.8c0-11.6-5.7-26.6-16.9-44.6c-8.1-13-16.2-22.8-16.5-23.2L137.6,12.3L137.6,12.3z
				"/>
		</g>
		<path class="st1" d="M120.9,91.5c-2.4-6.3-2-12.6,0.6-16.2c-1.4-0.3-2.9-0.3-4.2,0.2c-5.3,2-7,10.4-3.9,18.8
			c3.2,8.3,10,13.5,15.4,11.5c1.3-0.5,2.4-1.4,3.3-2.6C127.8,102.2,123.3,97.8,120.9,91.5z"/>
	</g>
	<path class="st0" d="M159.8,168.3c-2.6-1.3-2.1-5.3-7.5-8c-4.7-2.4-9.9,0.3-13.1,6.6l0,0c-1,1.8-2.3,2.4-3.5,1.8
		c-2.6-1.3-2.1-5.3-7.5-8c-4.7-2.4-9.8,0.2-13.1,6.5l0,0c-1,1.9-2.3,2.4-3.5,1.8c-2.6-1.3-2.1-5.3-7.5-8c-4.7-2.4-9.9,0.3-13.1,6.6
		l0,0c-0.8,1.5-1.8,2.1-2.7,2v0c-0.3,0-0.6-0.1-0.9-0.2c-2.6-1.3-2.1-5.3-7.5-8c-4.7-2.4-9.9,0.3-13.1,6.6l0,0
		c-1,1.8-2.3,2.4-3.5,1.8c-2.6-1.3-2.1-5.3-7.5-8c-4.7-2.4-9.8,0.2-13.1,6.5l0,0c-1,1.9-2.3,2.4-3.5,1.8c-2.6-1.3-2.1-5.3-7.5-8
		c-4.7-2.4-9.9,0.3-13.1,6.6l0,0c-0.8,1.5-1.8,2.1-2.7,2v9.2c3.8,0.4,7.6-2.4,10.2-7.4l0,0c1-1.8,2.3-2.4,3.5-1.8
		c2.6,1.3,2.1,5.3,7.5,8c4.7,2.4,9.8-0.2,13.1-6.5l0,0c1-1.9,2.3-2.4,3.5-1.8c2.6,1.3,2.1,5.3,7.5,8c4.7,2.4,9.9-0.3,13.1-6.6l0,0
		c1-1.8,2.3-2.4,3.5-1.8c2.6,1.3,2.1,5.3,7.5,8c1,0.5,2,0.8,3,0.9v0c3.8,0.4,7.6-2.4,10.2-7.4l0,0c1-1.8,2.3-2.4,3.5-1.8
		c2.6,1.3,2.1,5.3,7.5,8c4.7,2.4,9.8-0.2,13.1-6.5l0,0c1-1.9,2.3-2.4,3.5-1.8c2.6,1.3,2.1,5.3,7.5,8c4.7,2.4,9.9-0.3,13.1-6.6l0,0
		c1-1.8,2.3-2.4,3.5-1.8c2.6,1.3,2.1,5.3,7.5,8c1,0.5,2,0.8,3,0.9v-9.2C160.4,168.6,160.1,168.5,159.8,168.3z"/>
	<path class="st0" d="M209,193.1c-2.6-1.3-2.1-5.3-7.5-8c-4.7-2.4-9.9,0.3-13.1,6.6l0,0c-1,1.8-2.3,2.4-3.5,1.8
		c-2.6-1.3-2.1-5.3-7.5-8c-4.7-2.4-9.8,0.2-13.1,6.5l0,0c-1,1.9-2.3,2.4-3.5,1.8c-2.6-1.3-2.1-5.3-7.5-8c-4.7-2.4-9.9,0.3-13.1,6.6
		l0,0c-0.8,1.5-1.8,2.1-2.7,2v0c-0.3,0-0.6-0.1-0.9-0.2c-2.6-1.3-2.1-5.3-7.5-8c-4.7-2.4-9.9,0.3-13.1,6.6l0,0
		c-1,1.8-2.3,2.4-3.5,1.8c-2.6-1.3-2.1-5.3-7.5-8c-4.7-2.4-9.8,0.2-13.1,6.5l0,0c-1,1.9-2.3,2.4-3.5,1.8c-2.6-1.3-2.1-5.3-7.5-8
		c-4.7-2.4-9.9,0.3-13.1,6.6l0,0c-0.8,1.5-1.8,2.1-2.7,2v9.2c3.8,0.4,7.6-2.4,10.2-7.4l0,0c1-1.8,2.3-2.4,3.5-1.8
		c2.6,1.3,2.1,5.3,7.5,8c4.7,2.4,9.8-0.2,13.1-6.5l0,0c1-1.9,2.3-2.4,3.5-1.8c2.6,1.3,2.1,5.3,7.5,8c4.7,2.4,9.9-0.3,13.1-6.6l0,0
		c1-1.8,2.3-2.4,3.5-1.8c2.6,1.3,2.1,5.3,7.5,8c1,0.5,2,0.8,3,0.9v0c3.8,0.4,7.6-2.4,10.2-7.4l0,0c1-1.8,2.3-2.4,3.5-1.8
		c2.6,1.3,2.1,5.3,7.5,8c4.7,2.4,9.8-0.2,13.1-6.5l0,0c1-1.9,2.3-2.4,3.5-1.8c2.6,1.3,2.1,5.3,7.5,8c4.7,2.4,9.9-0.3,13.1-6.6l0,0
		c1-1.8,2.3-2.4,3.5-1.8c2.6,1.3,2.1,5.3,7.5,8c1,0.5,2,0.8,3,0.9v-9.2C209.6,193.3,209.3,193.3,209,193.1z"/>
</g>
</svg>
