<?xml version="1.0" encoding="utf-8"?>
<!-- Generator: Adobe Illustrator 23.0.6, SVG Export Plug-In . SVG Version: 6.00 Build 0)  -->
<svg version="1.1" xmlns="http://www.w3.org/2000/svg" xmlns:xlink="http://www.w3.org/1999/xlink" x="0px" y="0px"
	 viewBox="0 0 226.8 226.8" style="enable-background:new 0 0 226.8 226.8;" xml:space="preserve">
<style type="text/css">
	.st0{fill:#39870C;}
	.st1{fill:#FFFFFF;}
	.st2{display:none;fill:#39870C;}
	.st3{clip-path:url(#SVGID_2_);fill:#39870C;}
	.st4{fill:#FFFFFF;stroke:#39870C;stroke-width:4;stroke-miterlimit:10;}
	.st5{fill:none;}
	.st6{clip-path:url(#SVGID_4_);fill:#39870C;}
	.st7{clip-path:url(#SVGID_4_);}
	.st8{display:none;}
	.st9{display:inline;fill:#39870C;stroke:#FFFFFF;stroke-width:3.7729;stroke-miterlimit:10;}
	.st10{display:inline;}
	.st11{fill:#39870C;stroke:#FFFFFF;stroke-width:3.7729;stroke-miterlimit:10;}
	.st12{fill:#39870C;stroke:#FFFFFF;stroke-width:4.252;stroke-miterlimit:10;}
	.st13{fill:#FFFFFF;stroke:#39870C;stroke-width:4.8014;stroke-miterlimit:10;}
	.st14{fill:#39870C;stroke:#39870C;stroke-width:4.8014;stroke-miterlimit:10;}
	.st15{fill:none;stroke:#39870C;stroke-width:4.8014;stroke-miterlimit:10;}
	.st16{fill:#39870C;stroke:#FFFFFF;stroke-width:5.3333;stroke-miterlimit:10;}
</style>
<g id="Kader">
</g>
<g id="Icoon">
	<g>
		<g>
			<defs>
				<rect id="SVGID_3_" x="13.4" y="13.2" width="217.6" height="187.2"/>
			</defs>
			<clipPath id="SVGID_2_">
				<use xlink:href="#SVGID_3_"  style="overflow:visible;"/>
			</clipPath>
			<path class="st3" d="M211.1,167.9v-6.5h0c0-1-0.1-3.5-0.7-5.2l-19.6-77.4c-1.2-4.8-5.3-8.2-9.9-8.2H60.7c-4.6,0-8.7,3.4-9.9,8.2
				l-20,79c-0.2,0.9-0.4,2.6-0.4,2.9v7.2c0,6.1,4.6,11.1,10.3,11.1h160.1c3.9,0,6.2-1.7,7.5-3.1
				C211.1,172.6,211.1,168.2,211.1,167.9L211.1,167.9z"/>
			<g style="clip-path:url(#SVGID_2_);">
				<g>
					<path class="st1" d="M125.7,115.3h23.4l-2.8-30.9h-20.7V115.3z"/>
				</g>
			</g>
			<g style="clip-path:url(#SVGID_2_);">
				<g>
					<path class="st1" d="M50.4,164.6H78l3.3-39.1H57L50.4,164.6z"/>
				</g>
			</g>
			<g style="clip-path:url(#SVGID_2_);">
				<g>
					<path class="st1" d="M59,115.3h23.3l2.8-30.9H64.5L59,115.3z"/>
				</g>
			</g>
			<g style="clip-path:url(#SVGID_2_);">
				<g>
					<path class="st1" d="M88,164.6h27.7v-39.1H91.3L88,164.6z"/>
				</g>
			</g>
			<g style="clip-path:url(#SVGID_2_);">
				<g>
					<path class="st1" d="M92.3,115.3h23.4V84.4H95.1L92.3,115.3z"/>
				</g>
			</g>
			<g style="clip-path:url(#SVGID_2_);">
				<g>
					<path class="st1" d="M125.7,164.6h27.7l-3.3-39.1h-24.4V164.6z"/>
				</g>
			</g>
			<g style="clip-path:url(#SVGID_2_);">
				<g>
					<path class="st1" d="M159.1,115.3h23.3l-5.5-30.9h-20.6L159.1,115.3z"/>
				</g>
			</g>
			<g style="clip-path:url(#SVGID_2_);">
				<g>
					<path class="st1" d="M163.4,164.6H191l-6.5-39.1h-24.3L163.4,164.6z"/>
				</g>
			</g>
			<path class="st3" d="M96.3,63.8c0.2,0.1,0.4,0.2,0.6,0.3h24.2c-0.2-1.1-0.4-2.3-0.4-3.5c0-9.8,7.4-17.8,16.6-17.8
				c9.2,0,16.6,7.9,16.6,17.8c0,1.2-0.1,2.4-0.4,3.5H178c0.2-0.1,0.4-0.2,0.5-0.2c1.3-0.6,2.1-1.9,2-3.3c0-1.5-0.9-2.7-2.1-3.3
				c-6.6-2.7-13.2-6.5-14-8c-1.2-3.1,1.8-12.2,4.2-17.3c0.6-1.4,0.4-3-0.7-4.1c-1-1.1-2.6-1.3-3.9-0.6c-3.6,2-10.5,5.3-13.9,5.3
				c-0.5,0-0.7-0.1-0.7-0.1c-2-1.1-6.2-9.2-8.9-15.9c-0.5-1.4-1.8-2.2-3.2-2.2c-1.4,0.1-2.6,1-3,2.4c-2.3,7.3-5.9,14.6-7.6,15.4
				c0,0-0.2,0.1-0.9,0.1c-4.1,0-12.3-3.7-15.1-5.1c-1.3-0.6-2.7-0.4-3.7,0.7c-1,1-1.3,2.6-0.7,4c2.5,6.2,5,14.5,4.7,17.3
				c-1.7,1.7-8.7,5.5-14.6,8.2c-1.2,0.6-2,1.9-2,3.3C94.2,62,95.1,63.3,96.3,63.8L96.3,63.8z"/>
		</g>
		<path class="st0" d="M155.1,206h-65c-2,0-3.6-1.6-3.6-3.6v-3.6c0-6,4.9-10.9,10.8-10.9h7.2v-3.6h36.1v3.6h7.2
			c6,0,10.8,4.9,10.8,10.8v3.6C158.8,204.4,157.2,206,155.1,206L155.1,206z M155.1,206"/>
	</g>
	<g>
		<circle class="st4" cx="59.7" cy="167.8" r="42.5"/>
		<g>
			<path class="st0" d="M57.3,190.6c-0.4-0.3-0.7-0.8-0.7-1.4v-16.9H39.8c-0.7,0-1.2-0.2-1.5-0.5c-0.3-0.3-0.4-1-0.4-1.9v-0.7
				c0-2.1,0.6-3.2,1.9-3.2h16.9v-16.9c0-0.7,0.2-1.2,0.7-1.5c0.4-0.3,1.2-0.4,2.2-0.4h0.7c1,0,1.7,0.2,2.2,0.5
				c0.4,0.3,0.7,0.8,0.7,1.4V166h16.8c0.7,0,1.2,0.2,1.5,0.7c0.3,0.4,0.4,1.2,0.4,2.2v0.7c0,1-0.1,1.7-0.4,2.2
				c-0.3,0.4-0.8,0.7-1.5,0.7H63v16.9c0,0.6-0.2,1.1-0.7,1.4c-0.4,0.3-1.2,0.5-2.2,0.5h-0.7C58.5,191,57.8,190.9,57.3,190.6z"/>
		</g>
	</g>
</g>
</svg>
