<?xml version="1.0" encoding="utf-8"?>
<!-- Generator: Adobe Illustrator 23.0.6, SVG Export Plug-In . SVG Version: 6.00 Build 0)  -->
<svg version="1.1" xmlns="http://www.w3.org/2000/svg" xmlns:xlink="http://www.w3.org/1999/xlink" x="0px" y="0px"
	 viewBox="0 0 226.8 226.8" style="enable-background:new 0 0 226.8 226.8;" xml:space="preserve">
<style type="text/css">
	.st0{fill:#39870C;}
	.st1{fill:#FFFFFF;}
	.st2{display:none;fill:#39870C;}
	.st3{clip-path:url(#SVGID_2_);fill:#39870C;}
	.st4{fill:#FFFFFF;stroke:#39870C;stroke-width:4;stroke-miterlimit:10;}
	.st5{fill:none;}
	.st6{clip-path:url(#SVGID_4_);fill:#39870C;}
	.st7{clip-path:url(#SVGID_4_);}
	.st8{display:none;}
	.st9{display:inline;fill:#39870C;stroke:#FFFFFF;stroke-width:3.7729;stroke-miterlimit:10;}
	.st10{display:inline;}
	.st11{fill:#39870C;stroke:#FFFFFF;stroke-width:3.7729;stroke-miterlimit:10;}
	.st12{fill:#39870C;stroke:#FFFFFF;stroke-width:4.252;stroke-miterlimit:10;}
	.st13{fill:#FFFFFF;stroke:#39870C;stroke-width:4.8014;stroke-miterlimit:10;}
	.st14{fill:#39870C;stroke:#39870C;stroke-width:4.8014;stroke-miterlimit:10;}
	.st15{fill:none;stroke:#39870C;stroke-width:4.8014;stroke-miterlimit:10;}
	.st16{fill:#39870C;stroke:#FFFFFF;stroke-width:5.3333;stroke-miterlimit:10;}
</style>
<g id="Kader">
</g>
<g id="Icoon">
	<path class="st0" d="M212,207.7c0,0,2.8-13-10.5-13.1c-13.4-0.1-8.3-26.7-26.3-26.8c-14.5,0-1.7-24-16.8-24.2
		C131,143.3,119,133,101.5,133c-8.9,0-18.6,19.3-19.9,23.3c-19.3,1.2-4.5,9.6-24.4,9.9c-9.8,0.2-10.6,13.8-16.3,20.6
		c-8.4,2.8-7.6,1.7-12.9,7.1c-5.2,5.3-9.2,13.2-9.2,13.2L212,207.7z"/>
	<g>
		<path class="st12" d="M134.1,85.1l58.5,30.4c0,0-25.3,43.2-61,43.2c-11.7,0-27.4-10.6-27.4-27C104.2,116.8,134.1,85.1,134.1,85.1z
			"/>
		<g>
			<g>
				<path class="st11" d="M196.4,19.1l-4.7-1.9c-4.2-1.7-9,0.4-10.7,4.6l-26.3,65.5l20.1,8L201,29.8
					C202.7,25.6,200.6,20.8,196.4,19.1z"/>
				<path class="st11" d="M154.1,88.4l-3.9,9.6c-1.7,4.2,0.4,9,4.6,10.7l4.7,1.9c4.2,1.7,9-0.4,10.7-4.6l3.9-9.6L154.1,88.4z"/>
			</g>
		</g>
	</g>
</g>
</svg>
