<?xml version="1.0" encoding="utf-8"?>
<!-- Generator: Adobe Illustrator 23.0.6, SVG Export Plug-In . SVG Version: 6.00 Build 0)  -->
<svg version="1.1" xmlns="http://www.w3.org/2000/svg" xmlns:xlink="http://www.w3.org/1999/xlink" x="0px" y="0px"
	 viewBox="0 0 226.8 226.8" style="enable-background:new 0 0 226.8 226.8;" xml:space="preserve">
<style type="text/css">
	.st0{fill:#39870C;}
	.st1{fill:#FFFFFF;}
	.st2{display:none;fill:#39870C;}
	.st3{clip-path:url(#SVGID_2_);fill:#39870C;}
	.st4{fill:#FFFFFF;stroke:#39870C;stroke-width:4;stroke-miterlimit:10;}
	.st5{fill:none;}
	.st6{clip-path:url(#SVGID_4_);fill:#39870C;}
	.st7{clip-path:url(#SVGID_4_);}
	.st8{display:none;}
	.st9{display:inline;fill:#39870C;stroke:#FFFFFF;stroke-width:3.7729;stroke-miterlimit:10;}
	.st10{display:inline;}
	.st11{fill:#39870C;stroke:#FFFFFF;stroke-width:3.7729;stroke-miterlimit:10;}
	.st12{fill:#39870C;stroke:#FFFFFF;stroke-width:4.252;stroke-miterlimit:10;}
	.st13{fill:#FFFFFF;stroke:#39870C;stroke-width:4.8014;stroke-miterlimit:10;}
	.st14{fill:#39870C;stroke:#39870C;stroke-width:4.8014;stroke-miterlimit:10;}
	.st15{fill:none;stroke:#39870C;stroke-width:4.8014;stroke-miterlimit:10;}
	.st16{fill:#39870C;stroke:#FFFFFF;stroke-width:5.3333;stroke-miterlimit:10;}
</style>
<g id="Kader">
</g>
<g id="Icoon">
	<path class="st0" d="M192.4,98.3c-0.1,0-0.2,0-0.3,0c-0.8-3.5-3-6-5.5-6c-0.8,0-1.5,0.2-2.2,0.7V65.5c3-1.2,5.1-4.1,5.1-7.6
		c0-3.4-2.1-6.3-5-7.5c1.6-2.9,2.4-6.2,2.4-9.7c0-11.4-9.3-20.7-20.7-20.7c-5.9,0-11.2,2.5-14.9,6.4c-1-0.5-2.1-0.7-3.3-0.7
		c-2.2,0-4.1,0.9-5.6,2.2c-1.1-0.8-2.5-1.4-4.1-1.8c0-0.1,0-0.2,0-0.3c0-3.2-4-5.8-8.9-5.8c-2.1,0-4.1,0.5-5.6,1.3
		c-0.1,0-0.2-0.1-0.3-0.1c0-0.1,0-0.2,0-0.3c0-3.9-4.8-7-10.8-7c-5.9,0-10.7,3.1-10.7,7c-1.4-0.5-2.9-0.9-4.6-0.9
		c-4.9,0-8.9,2.6-8.9,5.8c0,0.1,0,0.2,0.1,0.3c-2.1,0.5-3.9,1.4-4.9,2.7c-1.5-2-3.8-3.2-6.5-3.2c-1.2,0-2.3,0.3-3.3,0.7
		c-3.8-3.9-9.1-6.4-14.9-6.4c-11.4,0-20.7,9.3-20.7,20.7c0,3.5,0.9,6.8,2.4,9.7c-2.9,1.2-5,4.1-5,7.5c0,3.5,2.2,6.5,5.3,7.6v26.8
		c-0.2,0-0.4,0-0.6,0c-2.6,0-4.7,2.5-5.5,6c-0.1,0-0.2,0-0.3,0c-3.2,0-5.8,4-5.8,8.9c0,4.9,2.6,8.9,5.8,8.9c0.1,0,0.2,0,0.3,0
		c0.8,3.6,3,6.2,5.6,6.2c0.2,0,0.4,0,0.6,0v38.1c-3.1,1.2-5.3,4.1-5.3,7.6c0,3.4,2.1,6.3,5,7.5c-1.6,2.9-2.4,6.2-2.4,9.7
		c0,11.4,9.3,20.7,20.7,20.7c5.9,0,11.2-2.5,14.9-6.4c1,0.5,2.1,0.7,3.3,0.7c2.6,0,5-1.3,6.5-3.2c1.1,1.3,2.8,2.2,4.9,2.7
		c0,0.1-0.1,0.2-0.1,0.3c0,3.2,4,5.8,8.9,5.8c1.7,0,3.3-0.3,4.6-0.9c0,3.9,4.8,7,10.7,7c5.9,0,10.8-3.1,10.8-7c0-0.1,0-0.2,0-0.3
		c0.1,0,0.2-0.1,0.3-0.1c1.5,0.8,3.5,1.3,5.6,1.3c4.9,0,8.9-2.6,8.9-5.8c0-0.1,0-0.2,0-0.3c1.6-0.3,3-1,4.1-1.8
		c1.5,1.4,3.4,2.2,5.6,2.2c1.2,0,2.3-0.3,3.3-0.7c3.8,3.9,9.1,6.4,14.9,6.4c11.4,0,20.7-9.3,20.7-20.7c0-3.5-0.9-6.8-2.4-9.7
		c2.9-1.2,5-4.1,5-7.5c0-3.4-2.1-6.4-5.1-7.6v-38.7c0.7,0.4,1.4,0.7,2.2,0.7c2.6,0,4.8-2.6,5.6-6.2c0.1,0,0.2,0,0.3,0
		c3.2,0,5.8-4,5.8-8.9C198.2,102.3,195.6,98.3,192.4,98.3z"/>
	<path class="st1" d="M161.1,187.5H65.4c-5.5,0-10-4.5-10-10V46.9c0-5.5,4.5-10,10-10h95.7c5.5,0,10,4.5,10,10v130.5
		C171.1,183,166.6,187.5,161.1,187.5z"/>
	<path class="st2" d="M161.2,182.6H65.4c-3.1,0-5.7-2.6-5.7-5.7V46.3c0-3.1,2.6-5.7,5.7-5.7h95.8c3.1,0,5.7,2.6,5.7,5.7v130.6
		C166.8,180.1,164.3,182.6,161.2,182.6z"/>
	<path class="st1" d="M65.4,45.5c-0.8,0-1.4,0.7-1.4,1.4v130.5c0,0.8,0.7,1.4,1.4,1.4h95.7c0.8,0,1.4-0.7,1.4-1.4V46.9
		c0-0.8-0.7-1.4-1.4-1.4H65.4z"/>
	<g>
		<rect x="72.5" y="66.4" class="st13" width="51.2" height="51.2"/>
		<rect x="98.1" y="117.7" class="st14" width="25.6" height="25.6"/>
		<rect x="72.5" y="143.3" class="st14" width="25.6" height="12.8"/>
		<rect x="98.1" y="143.3" class="st15" width="25.6" height="12.8"/>
		<rect x="123.7" y="66.4" class="st14" width="25.6" height="25.6"/>
		<rect x="123.7" y="92.1" class="st15" width="12.8" height="25.6"/>
		<rect x="136.5" y="92.1" class="st15" width="12.8" height="25.6"/>
		<rect x="123.7" y="117.7" class="st15" width="25.6" height="12.8"/>
		<rect x="123.7" y="130.5" class="st14" width="25.6" height="12.8"/>
		<line class="st15" x1="123.7" y1="54.7" x2="123.7" y2="64.8"/>
		<line class="st15" x1="147.3" y1="117.7" x2="157.5" y2="117.7"/>
	</g>
</g>
</svg>
