<?xml version="1.0" encoding="utf-8"?>
<!-- Generator: Adobe Illustrator 23.0.6, SVG Export Plug-In . SVG Version: 6.00 Build 0)  -->
<svg version="1.1" xmlns="http://www.w3.org/2000/svg" xmlns:xlink="http://www.w3.org/1999/xlink" x="0px" y="0px"
	 viewBox="0 0 226.8 226.8" style="enable-background:new 0 0 226.8 226.8;" xml:space="preserve">
<style type="text/css">
	.st0{fill:#39870C;}
	.st1{fill:#FFFFFF;}
	.st2{display:none;fill:#39870C;}
	.st3{clip-path:url(#SVGID_2_);fill:#39870C;}
	.st4{fill:#FFFFFF;stroke:#39870C;stroke-width:4;stroke-miterlimit:10;}
	.st5{fill:none;}
	.st6{clip-path:url(#SVGID_4_);fill:#39870C;}
	.st7{clip-path:url(#SVGID_4_);}
	.st8{display:none;}
	.st9{display:inline;fill:#39870C;stroke:#FFFFFF;stroke-width:3.7729;stroke-miterlimit:10;}
	.st10{display:inline;}
	.st11{fill:#39870C;stroke:#FFFFFF;stroke-width:3.7729;stroke-miterlimit:10;}
	.st12{fill:#39870C;stroke:#FFFFFF;stroke-width:4.252;stroke-miterlimit:10;}
	.st13{fill:#FFFFFF;stroke:#39870C;stroke-width:4.8014;stroke-miterlimit:10;}
	.st14{fill:#39870C;stroke:#39870C;stroke-width:4.8014;stroke-miterlimit:10;}
	.st15{fill:none;stroke:#39870C;stroke-width:4.8014;stroke-miterlimit:10;}
	.st16{fill:#39870C;stroke:#FFFFFF;stroke-width:5.3333;stroke-miterlimit:10;}
</style>
<g id="Kader">
</g>
<g id="Icoon">
	<path class="st0" d="M17.1,96.3l11.4,0.1v102.5c0,2.2,1.8,4.1,4.1,4.1h162.8c2.2,0,4.1-1.8,4.1-4.1V96.2l11.4,0.1
		c1.4-1.8,1.1-5-0.7-6.4L186.1,71V43l2.8,0c0.5-0.7,0.7-5.9,0-6.4l-46.7-0.1l-25.8-20c-1.5-1.1-3.5-1.1-5.1,0L17.8,89.9
		C16,91.2,15.7,94.5,17.1,96.3z"/>
	<g>
		<circle class="st4" cx="58.7" cy="168" r="42.5"/>
		<g>
			<path class="st0" d="M56.3,190.9c-0.4-0.3-0.7-0.8-0.7-1.4v-16.9H38.7c-0.7,0-1.2-0.2-1.5-0.5c-0.3-0.3-0.4-1-0.4-1.9v-0.7
				c0-2.1,0.6-3.2,1.9-3.2h16.9v-16.9c0-0.7,0.2-1.2,0.7-1.5c0.4-0.3,1.2-0.4,2.2-0.4h0.7c1,0,1.7,0.2,2.2,0.5
				c0.4,0.3,0.7,0.8,0.7,1.4v16.9h16.8c0.7,0,1.2,0.2,1.5,0.7c0.3,0.4,0.4,1.2,0.4,2.2v0.7c0,1-0.1,1.7-0.4,2.2
				c-0.3,0.4-0.8,0.7-1.5,0.7H61.9v16.9c0,0.6-0.2,1.1-0.7,1.4c-0.4,0.3-1.2,0.5-2.2,0.5h-0.7C57.4,191.3,56.7,191.2,56.3,190.9z"/>
		</g>
	</g>
</g>
</svg>
