<?xml version="1.0" encoding="utf-8"?>
<!-- Generator: Adobe Illustrator 23.0.6, SVG Export Plug-In . SVG Version: 6.00 Build 0)  -->
<svg version="1.1" xmlns="http://www.w3.org/2000/svg" xmlns:xlink="http://www.w3.org/1999/xlink" x="0px" y="0px"
	 viewBox="0 0 226.8 226.8" style="enable-background:new 0 0 226.8 226.8;" xml:space="preserve">
<style type="text/css">
	.st0{fill:#39870C;}
	.st1{fill:#FFFFFF;}
	.st2{display:none;fill:#39870C;}
	.st3{clip-path:url(#SVGID_2_);fill:#39870C;}
	.st4{fill:#FFFFFF;stroke:#39870C;stroke-width:4;stroke-miterlimit:10;}
	.st5{fill:none;}
	.st6{clip-path:url(#SVGID_4_);fill:#39870C;}
	.st7{clip-path:url(#SVGID_4_);}
	.st8{display:none;}
	.st9{display:inline;fill:#39870C;stroke:#FFFFFF;stroke-width:3.7729;stroke-miterlimit:10;}
	.st10{display:inline;}
	.st11{fill:#39870C;stroke:#FFFFFF;stroke-width:3.7729;stroke-miterlimit:10;}
	.st12{fill:#39870C;stroke:#FFFFFF;stroke-width:4.252;stroke-miterlimit:10;}
	.st13{fill:#FFFFFF;stroke:#39870C;stroke-width:4.8014;stroke-miterlimit:10;}
	.st14{fill:#39870C;stroke:#39870C;stroke-width:4.8014;stroke-miterlimit:10;}
	.st15{fill:none;stroke:#39870C;stroke-width:4.8014;stroke-miterlimit:10;}
	.st16{fill:#39870C;stroke:#FFFFFF;stroke-width:5.3333;stroke-miterlimit:10;}
</style>
<g id="Kader">
</g>
<g id="Icoon">
	<g>
		<path class="st0" d="M198.2,90.7c0,0-103.5-24.4-117.4-23.7c-36.3,2-69.7,57.5-65.7,70.4s25.8,18.9,42.1,18
			c9.2-0.5,19.1-4.6,19.1-4.6s-0.4-17.8,15.8-23.6c11.3-4,52.5-18,52.5-18L198.2,90.7z"/>
		<polygon class="st1" points="126.4,96.7 117.5,98.5 116.7,84.7 125.8,85.3 		"/>
		<polygon class="st1" points="134.4,95 129.2,96.2 128.6,85.3 133.9,85.8 		"/>
		<polygon class="st1" points="139.8,94 136.8,94.5 136.4,86 139.3,86.3 		"/>
		
			<ellipse transform="matrix(0.6418 -0.7669 0.7669 0.6418 -74.0876 118.8969)" class="st0" cx="90.2" cy="138.8" rx="8.6" ry="5.8"/>
		
			<ellipse transform="matrix(0.6418 -0.7669 0.7669 0.6418 -62.983 128.821)" class="st0" cx="106.4" cy="131.8" rx="7.8" ry="5.2"/>
		
			<ellipse transform="matrix(0.6286 -0.7777 0.7777 0.6286 -45.387 146.1615)" class="st0" cx="130.3" cy="120.6" rx="5.2" ry="3.5"/>
		
			<ellipse transform="matrix(0.6286 -0.7777 0.7777 0.6286 -38.7383 151.7346)" class="st0" cx="139.5" cy="116.4" rx="4.2" ry="2.8"/>
		<path class="st1" d="M57.8,77.8c3.4-1.8,28.2-0.4,29.3,2c1.1,2.4-18.6,23.7-20.2,24.7c-1.6,1.1-5.4,3.7-21.4,2.5
			c-7.3-0.5-14.5-1.1-12.4-4.3C38.8,94.3,54.4,79.6,57.8,77.8z"/>
	</g>
	<g>
		<g>
			<path class="st0" d="M216.2,150.5h-7.4c-1.6,0-3.4,1.1-4,2.4l-0.6,1.5L195,135c-0.5-1.3-1.6-3.3-5.4-4.5
				c-6.7-2.2-19.1-3.3-32.6-3.3c-13.5,0-25.9,1.1-32.6,3.3c-3.8,1.2-4.9,3.2-5.4,4.5l-9.9,20.9c0,0,0-0.1,0-0.1l-1.2-2.9
				c-0.6-1.3-2.4-2.4-4-2.4h-7.4c-1.6,0-2.5,1.1-1.9,2.4l1.2,2.9c0.6,1.3,2.4,2.4,4,2.4h4.6l2,3.5l-2.9,6.1
				c-0.7,0.3-1.1,0.9-1.1,1.6l0,38.6c0,2,1.6,3.5,3.5,3.5h15c2,0,3.5-1.6,3.5-3.5v-3.7h65.8v3.7c0,2,1.6,3.5,3.5,3.5h15
				c2,0,3.5-1.6,3.5-3.5l-0.1-38.6c0-0.9-0.7-1.6-1.5-1.8l-3.4-7.2l1.3-2.3h4.6c1.6,0,3.4-1.1,4-2.4l1.2-2.9
				C218.7,151.6,217.9,150.5,216.2,150.5z M108,158.1L108,158.1C108,158.1,108,158.1,108,158.1L108,158.1z"/>
			<polygon class="st0" points="157,127.2 157,127.2 157,127.2 			"/>
		</g>
		<path class="st1" d="M156.3,153.6h38.1c2,0-5.3-15.5-7.2-17.4c-1.2-1.2-60.5-1.2-61.7,0c-1.9,1.9-9.2,17.4-7.2,17.4H156.3
			L156.3,153.6z"/>
		<path class="st1" d="M138.6,183.8h-18.1c-2,0-4.1-1.6-4.7-3.7l-1.8-5.6c-0.6-2,0.4-3.7,2.4-3.7h18.1c2,0,4.1,1.6,4.7,3.7l1.8,5.6
			C141.6,182.2,140.6,183.8,138.6,183.8z"/>
		<path class="st1" d="M175.3,183.8h18.1c2,0,4.1-1.6,4.7-3.7l1.8-5.6c0.6-2-0.4-3.7-2.4-3.7h-18.1c-2,0-4.1,1.6-4.7,3.7l-1.8,5.6
			C172.3,182.2,173.4,183.8,175.3,183.8z"/>
	</g>
	<g>
		<g>
			<path class="st0" d="M20.7,26.8l-6,2.2l13.7,20.4c0,0,15,3.5,23.9,2.9c8.9-0.6,28.3-3.2,41.7-6s49-15.9,52.8-17.2
				c3.8-1.3,9.9-4.1,11.1-5.4s4.3-3.8,3.2-4.8c-1.1-1-2.7-2.1-4.8-1.3c-2.1,0.8,1.4,0,1.4,0s-8.8-2.7-13.5-2.1
				c-4.8,0.6-90.7,25.9-97.9,25.3C41.7,40.4,20.7,26.8,20.7,26.8z"/>
			<g>
				<path class="st0" d="M38.7,68.2c-0.9,0-1.6-0.6-1.9-1.4c-0.4-1.6,0.9-2.4,4.4-4.3l0.1,0l32.6-14.1c1.4-0.8,3.9-2.4,6.3-4
					c4.1-2.7,6.7-4.4,8-4.9l27.8-7.9c0.6-0.2,1-0.3,1.3-0.3c0.9,0,1.6,0.6,1.9,1.4c0.4,1.6-0.9,2.4-4.4,4.3L90.1,50.4
					c-3.5,1.9-8,4-10.1,4.6L40.1,67.9C39.4,68.1,39,68.2,38.7,68.2L38.7,68.2z"/>
				<path class="st1" d="M117.2,33c0.6,0-0.7,0.9-3.4,2.4L89.2,48.8c-3.4,1.8-7.8,3.9-9.8,4.5L39.5,66.2c-0.4,0.1-0.7,0.2-0.9,0.2
					c-0.6,0,0.7-0.9,3.4-2.4l32.6-14.1c3.4-1.8,12-8.1,14-8.8l27.8-7.9C116.8,33.1,117.1,33,117.2,33 M117.2,29.5
					c-0.5,0-1.1,0.1-1.9,0.3l-27.7,7.9l-0.1,0l-0.1,0c-1.4,0.5-3.7,1.9-8.4,5.1c-2.3,1.5-4.7,3.1-6.1,3.9l-32.4,14l-0.1,0.1
					l-0.1,0.1c-3.4,1.8-6,3.3-5.2,6.3c0.4,1.6,1.9,2.7,3.6,2.7c0.6,0,1.1-0.1,1.9-0.4l39.9-12.9c2.2-0.7,6.8-2.8,10.4-4.8l24.6-13.4
					c3.4-1.8,6-3.3,5.2-6.3C120.4,30.6,118.9,29.5,117.2,29.5L117.2,29.5z"/>
			</g>
		</g>
		<g>
			<path class="st0" d="M116.4,32.7l-27.8,7.9c-2,0.6-10.6,6.9-14,8.8L42,63.5c-3.4,1.8-4.5,2.8-2.5,2.2l39.9-12.9
				c2-0.6,6.4-2.7,9.8-4.5l24.6-13.4C117.3,33,118.4,32,116.4,32.7z"/>
		</g>
	</g>
</g>
</svg>
