<?xml version="1.0" encoding="utf-8"?>
<!-- Generator: Adobe Illustrator 23.0.6, SVG Export Plug-In . SVG Version: 6.00 Build 0)  -->
<svg version="1.1" xmlns="http://www.w3.org/2000/svg" xmlns:xlink="http://www.w3.org/1999/xlink" x="0px" y="0px"
	 viewBox="0 0 226.8 226.8" style="enable-background:new 0 0 226.8 226.8;" xml:space="preserve">
<style type="text/css">
	.st0{fill:#39870C;}
	.st1{fill:#FFFFFF;}
	.st2{display:none;fill:#39870C;}
	.st3{clip-path:url(#SVGID_2_);fill:#39870C;}
	.st4{fill:#FFFFFF;stroke:#39870C;stroke-width:4;stroke-miterlimit:10;}
	.st5{fill:none;}
	.st6{clip-path:url(#SVGID_4_);fill:#39870C;}
	.st7{clip-path:url(#SVGID_4_);}
	.st8{display:none;}
	.st9{display:inline;fill:#39870C;stroke:#FFFFFF;stroke-width:3.7729;stroke-miterlimit:10;}
	.st10{display:inline;}
	.st11{fill:#39870C;stroke:#FFFFFF;stroke-width:3.7729;stroke-miterlimit:10;}
	.st12{fill:#39870C;stroke:#FFFFFF;stroke-width:4.252;stroke-miterlimit:10;}
	.st13{fill:#FFFFFF;stroke:#39870C;stroke-width:4.8014;stroke-miterlimit:10;}
	.st14{fill:#39870C;stroke:#39870C;stroke-width:4.8014;stroke-miterlimit:10;}
	.st15{fill:none;stroke:#39870C;stroke-width:4.8014;stroke-miterlimit:10;}
	.st16{fill:#39870C;stroke:#FFFFFF;stroke-width:5.3333;stroke-miterlimit:10;}
</style>
<g id="Kader">
</g>
<g id="Icoon">
	<path class="st0" d="M102.1,198.5h-59c-0.1-0.6-0.1-1.1-0.1-1.7c0-4.8,3.3-8.8,7.9-10.7c-2.4-1.6-4-4.2-4-7.1
		c0-4.8,4.5-8.7,9.9-8.7c0.7-2.6,2.4-5,5-6.6c5.7-3.6,13.6-2.4,17.6,2.6c1.1,1.4,1.8,2.9,2.1,4.4c3.4-0.3,7.2,1.2,9.8,4.1
		c2.4,2.6,3.2,5.8,2.6,8.5c0.6-0.1,1.1-0.1,1.7-0.1c5.5,0,9.9,4,9.9,8.8C105.6,194.6,104.2,196.9,102.1,198.5z"/>
	<path class="st0" d="M188.2,102.1c-0.1-11.6-7.9-21.5-19.1-25.9c5.9-3.9,9.8-10.1,9.7-17.1c-0.1-11.7-10.8-21.2-24.1-21.2
		c-1.6-6.3-5.7-12.1-12.1-16.1c-13.8-8.7-33-5.9-42.8,6.3c-2.7,3.3-4.3,7-5.1,10.7c-8.2-0.7-17.5,2.8-23.9,10
		c-5.7,6.4-7.9,14.1-6.4,20.6c-1.3-0.2-2.7-0.4-4.1-0.3C47,69,36.2,78.6,36.3,90.4c0,8.2,5.4,15.2,13.1,18.8
		c-0.4,0.3-0.8,0.5-1.1,0.9c-8.8,8.8-6.3,23.6,5.7,32.9c5.6,4.4,12.2,6.7,18.7,7.1l0.1,0.1c0.5,0.4,13.2,9.5,17.7,11.9
		c3.4,1.8,5.9,2.5,7,2.8c0.8,1.3,3.1,5.8,3.3,13.3c0.4,21.5-0.5,24.9-4.1,27.8c-3.4,2.8,29.1,3.2,26,0c-3.6-3.8-8.6-9.1-9.9-27.7
		c-0.7-9.3-0.1-12.5,0.2-13.4c10.9,1.1,15.8-5.2,17.9-9.5c9.4,3.9,21.4,3.2,31.3-2.8c10.9-6.6,15.9-17.7,13.7-27.7
		C183.4,119.5,188.3,111.3,188.2,102.1z M99.2,156.4c-3,1-10-3.5-15.1-7.8c2.8-1.1,5.4-2.6,7.5-4.7c0.5-0.5,0.9-1.1,1.3-1.7
		c1.6,0.7,3.3,1.3,5,1.9C99.3,150.2,99.9,155.6,99.2,156.4z M109.1,155.5c-2.5,0.2-2.8-3.9-2.9-4.7c-0.1-1-0.4-2.9-0.8-4.8
		c2.7,0.5,5.4,0.8,8.2,0.9C112.6,151.1,110.6,155.4,109.1,155.5z M121.7,157.5c-1.7,1.4-5.1,1.6-5.6,1.4c0-1,2.6-5.9,5.2-10.3
		c1.2,1.3,2.4,2.5,3.8,3.5C124.7,153.5,123.6,156,121.7,157.5z"/>
	<g>
		<path class="st1" d="M149.4,199.5c-12.3,0-13.5-2.6-13.8-3.4c-0.5-1.2-0.3-2.5,0.6-3.5c2.2-2.4,5.1-5.7,6.4-18
			c0.3-3,0.4-5,0.4-6.4c-2.3,1.3-4.9,2.1-7.6,2.1c-0.3,0-0.7,0-1,0c-5.7-0.4-10.6-4-12.8-9.2c-3.1-0.8-6.1-2.3-8.8-4.3
			c-7-5.4-10.5-13.7-9.3-21.7c-4.8-4.7-7.3-11.2-7-17.9c0.4-7.8,4.6-14.7,11.1-18.7c-2.6-3.4-4-7.6-3.8-12
			c0.4-9.2,7.7-16.5,16.8-17.1c1.7-4.4,4.7-8.2,8.7-10.8c3.6-2.3,7.7-3.5,11.9-3.5c7.7,0,14.9,3.9,19.1,10.4
			c1.3,2.1,2.3,4.3,2.9,6.7c1.5,0.2,3,0.5,4.5,1.1c3.6-2.1,7.6-3.2,11.8-3.2c12.8,0,23.2,10.4,23.2,23.2c0,4.9-1.6,9.8-4.5,13.7
			c0.9,2.4,1.3,4.9,1.2,7.4c-0.2,3.4-1.3,6.6-3.1,9.3c3.4,5,5.1,11,4.7,17.1c-0.9,14.2-12.8,25.3-27,25.3c0,0,0,0,0,0
			c-0.6,0-1.2,0-1.8-0.1c-2.6-0.2-5.1-0.7-7.5-1.6c-1.4,0.9-2.5,1.6-3.3,2c-1.6,0.8-2.9,1.3-3.9,1.7c-0.6,1.3-1.4,3.7-1.6,7.2
			c-0.9,14.5-0.3,16.7,0.9,18c0.9,1,1.2,2.3,0.7,3.5C156.8,198.9,154.7,199.5,149.4,199.5z"/>
		<path class="st1" d="M141.4,57.9c6.5,0,12.9,3.2,16.7,9.1c1.6,2.5,2.6,5.2,3,7.9c0.2,0,0.3,0,0.5,0c2.2,0,4.5,0.5,6.7,1.5
			c3.3-2.2,7.2-3.5,11.5-3.5c11.3,0,20.4,9.1,20.4,20.4c0,5.1-1.9,9.7-5,13.3c1.2,2.3,1.8,4.9,1.7,7.7c-0.2,3.7-1.6,6.9-3.9,9.4
			c3.7,4.6,5.8,10.6,5.4,16.9c-0.9,12.8-11.5,22.7-24.2,22.7c-0.5,0-1.1,0-1.6-0.1c-2.9-0.2-5.6-0.9-8.1-2c-1.7,1.1-3.2,2.2-4.2,2.7
			c-2.2,1.2-3.8,1.6-4.6,1.8c-0.5,0.9-2.2,4.1-2.5,9.5c-0.9,15.5-0.4,18,1.8,20.2c0.8,0.8-1.9,1.2-5.5,1.2c-5.3,0-12.3-0.8-11.1-2.2
			c2.4-2.6,5.8-6.2,7.2-19.6c0.7-6.7,0.4-9,0.3-9.7l-0.9-2.1c-2.2,2.7-5.6,4.4-9.3,4.4c-0.3,0-0.5,0-0.8,0c-5.2-0.3-9.4-4-10.8-8.8
			c-3.2-0.6-6.4-2-9.2-4.1c-6.8-5.2-9.6-13.4-7.9-20.5c-4.7-4.1-7.6-10.1-7.3-16.8c0.4-8.3,5.7-15.2,12.9-18
			c-3.7-3-5.9-7.6-5.7-12.7c0.4-8.2,7-14.5,15.1-14.5c0.3,0,0.6,0,0.9,0c1.2-4.5,4-8.5,8.2-11.2C134.2,58.9,137.8,57.9,141.4,57.9
			 M148.5,158.7c1.4,0,1.7-2.8,1.8-3.3c0.1-0.7,0.3-2.1,0.6-3.4c-1.3,0.2-2.6,0.3-3.9,0.3c0.4,1.3,0.5,2.6,0.4,4
			c0,0.4-0.1,0.9-0.2,1.3c0.4,0.7,0.7,1.1,1,1.2C148.4,158.7,148.5,158.7,148.5,158.7 M155.4,159.8c1,0,2.4-0.6,3.8-1.4
			c-1.6-1.2-3-2.6-4.2-4.1c-0.5,2.8-0.7,4.9-0.4,5.3C154.9,159.8,155.1,159.8,155.4,159.8 M141.4,52.3L141.4,52.3
			c-4.8,0-9.4,1.4-13.5,3.9c-4,2.6-7.2,6.2-9.2,10.5c-9.7,1.5-17.2,9.6-17.6,19.6c-0.2,4,0.8,8,2.7,11.4c-5.9,4.6-9.6,11.6-10,19.3
			c-0.3,7,2.2,13.8,6.9,19c-0.8,8.6,3.1,17.3,10.5,23c2.6,2,5.4,3.5,8.5,4.4c2.8,5.5,8.3,9.2,14.6,9.6c0.4,0,0.8,0,1.2,0
			c1.5,0,3-0.2,4.5-0.6c0,0.5-0.1,1.1-0.2,1.7c-1.2,11.4-3.7,14.2-5.7,16.4l-0.1,0.1c-1.7,1.8-2.1,4.3-1.1,6.5
			c1.5,3.4,5.1,4.1,8.4,4.6c2.4,0.3,5.3,0.5,8,0.5c4.8,0,9.2-0.3,10.8-4.3c0.9-2.2,0.4-4.8-1.3-6.6c-0.1-0.1-0.1-0.2-0.1-0.2
			c-0.8-1.6-0.2-12.2,0-15.7c0.1-2.3,0.6-4,0.9-5.1c0.9-0.3,1.9-0.8,3.1-1.4c0.6-0.3,1.4-0.8,2.3-1.4c2.3,0.7,4.6,1.1,7,1.3
			c0.7,0,1.3,0.1,2,0.1c15.7,0,28.8-12.3,29.9-28c0.4-6.1-1.1-12.1-4.1-17.3c1.6-2.8,2.5-5.9,2.6-9.2c0.1-2.4-0.2-4.8-0.9-7.1
			c2.7-4.2,4.2-9.1,4.2-14.2c0-14.4-11.7-26.1-26.1-26.1c-4.2,0-8.3,1-12,2.9c-0.7-0.2-1.4-0.4-2-0.5c-0.7-2-1.6-3.9-2.8-5.7
			C158.1,56.7,150.1,52.3,141.4,52.3L141.4,52.3z"/>
	</g>
	<path class="st0" d="M196.7,114.4c0.1-2.8-0.5-5.4-1.7-7.7c3.1-3.6,5-8.2,5-13.3c0-11.3-9.1-20.4-20.4-20.4
		c-4.3,0-8.2,1.3-11.5,3.5c-2.3-1.1-4.8-1.6-7.1-1.5c-0.4-2.7-1.4-5.4-3-7.9C152.2,57.9,140,55.2,131,61c-4.2,2.7-7,6.7-8.2,11.2
		c-8.5-0.5-15.6,6-16,14.4c-0.2,5.1,2,9.7,5.7,12.7c-7.3,2.8-12.6,9.6-12.9,18c-0.3,6.6,2.6,12.7,7.3,16.8
		c-1.7,7.1,1.2,15.3,7.9,20.5c2.8,2.2,6,3.5,9.2,4.1c1.3,4.8,5.8,7.1,10.8,8.8c5.3,1.8,11.4,0.7,11.4,0.7c0.2,0.7,0,0-0.7,6.7
		c-1.4,13.4-4.8,17-7.2,19.6c-2,2.2,18.7,3.1,16.6,1c-2.2-2.2-2.7-4.7-1.8-20.2c0.3-5.4,1.9-8.5,2.5-9.5c3.7-1.3,10.8-6,11.7-7.2
		c2.5,1.1,5.9,2.7,8.7,2.9c13.4,0.9,21.4-7.5,22.3-20.9c0.4-6.4-1.7-12.4-5.4-16.9C195.1,121.3,196.6,118,196.7,114.4z M147.6,150.2
		c-0.1,1.1-0.4,7.7-0.4,7.7c-0.6-0.2-6.5-8.6-7.2-11c3.2-0.9,7.1-0.9,8.9-4.7C148.3,144.9,147.8,148.7,147.6,150.2z M156.1,158.9
		c-0.6-0.9-0.3-8.4,0.8-13.8c2.4,3,5.2,6.4,8.2,8.8C162.5,156.5,156.1,158.9,156.1,158.9z"/>
</g>
</svg>
