<?xml version="1.0" encoding="utf-8"?>
<!-- Generator: Adobe Illustrator 23.0.6, SVG Export Plug-In . SVG Version: 6.00 Build 0)  -->
<svg version="1.1" xmlns="http://www.w3.org/2000/svg" xmlns:xlink="http://www.w3.org/1999/xlink" x="0px" y="0px"
	 viewBox="0 0 226.8 226.8" style="enable-background:new 0 0 226.8 226.8;" xml:space="preserve">
<style type="text/css">
	.st0{fill:#39870C;}
	.st1{fill:#FFFFFF;}
	.st2{display:none;fill:#39870C;}
	.st3{clip-path:url(#SVGID_2_);fill:#39870C;}
	.st4{fill:#FFFFFF;stroke:#39870C;stroke-width:4;stroke-miterlimit:10;}
	.st5{fill:none;}
	.st6{clip-path:url(#SVGID_4_);fill:#39870C;}
	.st7{clip-path:url(#SVGID_4_);}
	.st8{display:none;}
	.st9{display:inline;fill:#39870C;stroke:#FFFFFF;stroke-width:3.7729;stroke-miterlimit:10;}
	.st10{display:inline;}
	.st11{fill:#39870C;stroke:#FFFFFF;stroke-width:3.7729;stroke-miterlimit:10;}
	.st12{fill:#39870C;stroke:#FFFFFF;stroke-width:4.252;stroke-miterlimit:10;}
	.st13{fill:#FFFFFF;stroke:#39870C;stroke-width:4.8014;stroke-miterlimit:10;}
	.st14{fill:#39870C;stroke:#39870C;stroke-width:4.8014;stroke-miterlimit:10;}
	.st15{fill:none;stroke:#39870C;stroke-width:4.8014;stroke-miterlimit:10;}
	.st16{fill:#39870C;stroke:#FFFFFF;stroke-width:5.3333;stroke-miterlimit:10;}
</style>
<g id="Kader">
</g>
<g id="Icoon">
	<g>
		<circle class="st4" cx="113.4" cy="113.4" r="56.7"/>
		<g>
			<path class="st0" d="M110.2,143.8c-0.6-0.4-0.9-1-0.9-1.9v-22.5H86.8c-0.9,0-1.6-0.2-1.9-0.7c-0.4-0.5-0.6-1.3-0.6-2.6v-0.9
				c0-2.8,0.8-4.3,2.5-4.3h22.5V88.5c0-0.9,0.3-1.6,0.9-1.9c0.6-0.4,1.5-0.6,2.9-0.6h0.9c1.3,0,2.3,0.2,2.9,0.6
				c0.6,0.4,0.9,1,0.9,1.9V111h22.4c0.9,0,1.6,0.3,1.9,0.9c0.4,0.6,0.6,1.5,0.6,2.9v0.9c0,1.3-0.2,2.3-0.6,2.9
				c-0.4,0.6-1,0.9-1.9,0.9h-22.4v22.5c0,0.8-0.3,1.5-0.9,1.9c-0.6,0.4-1.6,0.6-2.9,0.6h-0.9C111.7,144.4,110.8,144.2,110.2,143.8z"
				/>
		</g>
	</g>
</g>
</svg>
