<svg id="pen_papier" xmlns="http://www.w3.org/2000/svg" viewBox="0 0 80 80">
  <path d="M49.48,13H9.48v-2H49.48v2Zm0,9H9.48v2H49.48v-2Zm-8,11H9.48v2H41.48v-2Zm-6,11H9.48v2h26v-2Zm14,11H9.48v2H49.48v-2Zm0,11H9.48v2H49.48v-2Zm6.52-27v33c0,2.21-1.79,4-4,4H8c-2.21,0-4-1.79-4-4V8c0-2.21,1.79-4,4-4H52c2.21,0,4,1.79,4,4v14.16l4-4V8c0-4.42-3.58-8-8-8H8C3.58,0,0,3.58,0,8V72c0,4.42,3.58,8,8,8H52c4.42,0,8-3.58,8-8V35.5l-4,3.5Zm-3.37-10.85l-9.98,10.59,5.06,5.04,10.67-9.9-5.75-5.73ZM75.71,6.9l-3.69,3.69,3.89,3.87,3.69-3.69c.58-.57,.53-1.56-.11-2.2l-1.57-1.56c-.64-.64-1.63-.68-2.21-.11ZM40.05,45.77h0c-.1,.16-.06,.39,.11,.56s.41,.21,.56,.11h0l6.06-1.65-5.11-5.1-1.64,6.07Zm36.89-28.17l-6.55-6.53-16.18,16.11,5.08,5.06,15.2-15.14,.75,.75c.13,.13,.13,.35,0,.48l-9.85,9.85c-.13,.13-.14,.35,0,.48l.48,.48c.13,.13,.35,.13,.48,0l10.58-10.58c.27-.27,.27-.71,0-.97Z" style="fill: #39870c;"/>
</svg>