<svg id="technische-storing" xmlns="http://www.w3.org/2000/svg" viewBox="0 0 80 80">
  <path d="M54.4,10.61H3.13A3.14,3.14,0,0,0,0,13.74V45.42a3.13,3.13,0,0,0,3.13,3.12H21.42C17.71,50.3,10.75,54,10.14,54.79H47.38c-.55-.69-7.91-4.47-11.8-6.25H54.4a3.13,3.13,0,0,0,3.13-3.12V13.74A3.14,3.14,0,0,0,54.4,10.61Zm.25,35.17H2.88V13.54H54.65Z" style="fill: #39870c"/>
  <path d="M80,66.3a3.12,3.12,0,0,1-3.13,3.09H56.13A3.12,3.12,0,0,1,53,66.3V23.48a3.12,3.12,0,0,1,3.13-3.09H76.87A3.12,3.12,0,0,1,80,23.48ZM66.86,57.87A3.13,3.13,0,1,0,70,61,3.13,3.13,0,0,0,66.86,57.87Zm8.88-32.41H57.47v3.09H75.74Zm0,6.14H57.47v3.08H75.74Z" style="fill: #39870c"/>
  <rect x="9.24" y="55.92" width="39.29" height="4.18" rx="1.12" style="fill: #39870c"/>
  <path d="M31,17.93c-1.15-1.83-3-1.83-4.15,0L14.75,37.23c-1.15,1.83-.4,3.32,1.66,3.32H41.35c2.06,0,2.81-1.49,1.66-3.32Zm-2.08,16a1.27,1.27,0,0,1-1.33-1.21V24.43a1.34,1.34,0,0,1,2.66,0v8.25A1.27,1.27,0,0,1,28.88,33.89Zm1.33,2.66a1.33,1.33,0,1,1-1.33-1.33A1.33,1.33,0,0,1,30.21,36.55Z" style="fill: #39870c"/>
</svg>
