<svg id="forbidden" xmlns="http://www.w3.org/2000/svg" viewBox="0 0 24 24">
  <g>
    <path d="M12,1A11,11,0,1,0,23,12,11,11,0,0,0,12,1Zm8.25,11a8.19,8.19,0,0,1-1.53,4.77L7.23,5.28a8.24,8.24,0,0,1,13,6.72ZM3.75,12A8.19,8.19,0,0,1,5.28,7.23L16.77,18.72A8.24,8.24,0,0,1,3.75,12Z" style="fill: #ce3f51"/>
    <path d="M12,1A11,11,0,1,1,1,12,11,11,0,0,1,12,1m6.72,15.77A8.24,8.24,0,0,0,7.23,5.28L18.72,16.77M12,20.25a8.19,8.19,0,0,0,4.77-1.53L5.28,7.23a8.24,8.24,0,0,0,6.72,13M12,0A12,12,0,1,0,24,12,12,12,0,0,0,12,0ZM8.84,5.48A7.18,7.18,0,0,1,12,4.75,7.26,7.26,0,0,1,19.25,12a7.18,7.18,0,0,1-.73,3.16L8.84,5.48ZM12,19.25A7.26,7.26,0,0,1,4.75,12a7.18,7.18,0,0,1,.73-3.16l9.68,9.68a7.18,7.18,0,0,1-3.16.73Z" style="fill: #fff"/>
  </g>
</svg>
