<svg xmlns="http://www.w3.org/2000/svg" viewBox="0 0 226.8 226.8"><style>.st1{fill:#fff}.st14,.st15{fill:#39870c;stroke:#39870c;stroke-width:4.8014;stroke-miterlimit:10}.st15{fill:none}</style><g id="Icoon"><path d="M192.4 98.3h-.3c-.8-3.5-3-6-5.5-6-.8 0-1.5.2-2.2.7V65.5c3-1.2 5.1-4.1 5.1-7.6 0-3.4-2.1-6.3-5-7.5 1.6-2.9 2.4-6.2 2.4-9.7 0-11.4-9.3-20.7-20.7-20.7-5.9 0-11.2 2.5-14.9 6.4-1-.5-2.1-.7-3.3-.7-2.2 0-4.1.9-5.6 2.2-1.1-.8-2.5-1.4-4.1-1.8v-.3c0-3.2-4-5.8-8.9-5.8-2.1 0-4.1.5-5.6 1.3-.1 0-.2-.1-.3-.1v-.3c0-3.9-4.8-7-10.8-7-5.9 0-10.7 3.1-10.7 7-1.4-.5-2.9-.9-4.6-.9-4.9 0-8.9 2.6-8.9 5.8 0 .1 0 .2.1.3-2.1.5-3.9 1.4-4.9 2.7-1.5-2-3.8-3.2-6.5-3.2-1.2 0-2.3.3-3.3.7-3.8-3.9-9.1-6.4-14.9-6.4-11.4 0-20.7 9.3-20.7 20.7 0 3.5.9 6.8 2.4 9.7-2.9 1.2-5 4.1-5 7.5 0 3.5 2.2 6.5 5.3 7.6v26.8h-.6c-2.6 0-4.7 2.5-5.5 6h-.3c-3.2 0-5.8 4-5.8 8.9s2.6 8.9 5.8 8.9h.3c.8 3.6 3 6.2 5.6 6.2h.6v38.1c-3.1 1.2-5.3 4.1-5.3 7.6 0 3.4 2.1 6.3 5 7.5-1.6 2.9-2.4 6.2-2.4 9.7 0 11.4 9.3 20.7 20.7 20.7 5.9 0 11.2-2.5 14.9-6.4 1 .5 2.1.7 3.3.7 2.6 0 5-1.3 6.5-3.2 1.1 1.3 2.8 2.2 4.9 2.7 0 .1-.1.2-.1.3 0 3.2 4 5.8 8.9 5.8 1.7 0 3.3-.3 4.6-.9 0 3.9 4.8 7 10.7 7 5.9 0 10.8-3.1 10.8-7v-.3c.1 0 .2-.1.3-.1 1.5.8 3.5 1.3 5.6 1.3 4.9 0 8.9-2.6 8.9-5.8v-.3c1.6-.3 3-1 4.1-1.8 1.5 1.4 3.4 2.2 5.6 2.2 1.2 0 2.3-.3 3.3-.7 3.8 3.9 9.1 6.4 14.9 6.4 11.4 0 20.7-9.3 20.7-20.7 0-3.5-.9-6.8-2.4-9.7 2.9-1.2 5-4.1 5-7.5 0-3.4-2.1-6.4-5.1-7.6v-38.7c.7.4 1.4.7 2.2.7 2.6 0 4.8-2.6 5.6-6.2h.3c3.2 0 5.8-4 5.8-8.9-.2-4.8-2.8-8.8-6-8.8z" fill="#39870c"/><path class="st1" d="M161.1 187.5H65.4c-5.5 0-10-4.5-10-10V46.9c0-5.5 4.5-10 10-10h95.7c5.5 0 10 4.5 10 10v130.5c0 5.6-4.5 10.1-10 10.1z"/><path class="st1" d="M65.4 45.5c-.8 0-1.4.7-1.4 1.4v130.5c0 .8.7 1.4 1.4 1.4h95.7c.8 0 1.4-.7 1.4-1.4V46.9c0-.8-.7-1.4-1.4-1.4H65.4z"/><path fill="#fff" stroke="#39870c" stroke-width="4.801" stroke-miterlimit="10" d="M72.5 66.4h51.2v51.2H72.5z"/><path class="st14" d="M98.1 117.7h25.6v25.6H98.1zM72.5 143.3h25.6v12.8H72.5z"/><path class="st15" d="M98.1 143.3h25.6v12.8H98.1z"/><path class="st14" d="M123.7 66.4h25.6V92h-25.6z"/><path class="st15" d="M123.7 92.1h12.8v25.6h-12.8zM136.5 92.1h12.8v25.6h-12.8zM123.7 117.7h25.6v12.8h-25.6z"/><path class="st14" d="M123.7 130.5h25.6v12.8h-25.6z"/><path class="st15" d="M123.7 54.7v10.1M147.3 117.7h10.2"/></g></svg>