<svg xmlns="http://www.w3.org/2000/svg" viewBox="0 0 226.8 226.8"><style>.st0{fill:#39870c}</style><g id="Icoon"><path class="st0" d="M211.2 96.3l-11.4.1v102.9c0 2.2-1.8 4.1-4.1 4.1H32.4c-2.2 0-4.1-1.8-4.1-4.1v-103l-11.4.1c-1.4-1.8-1.1-5.1.7-6.4l93.9-73.5c1.5-1.1 3.6-1.1 5.1 0L210.5 90c1.7 1.3 2.1 4.5.7 6.3z"/><path class="st0" d="M180 74.2l-32.1-25.1c-1.2-1-1.4-2.8-.5-4l3.8-4.9c1-1.2 2.8-1.4 4-.5l32.1 25.1c1.2 1 1.4 2.8.5 4l-3.8 4.9c-1 1.2-2.8 1.4-4 .5z"/><path class="st0" d="M190.2 54.4h-43.3c-.8 0-1.4-.6-1.4-1.4v-3.6c0-.8.6-1.4 1.4-1.4h43.3c.8 0 1.4.6 1.4 1.4V53c0 .8-.7 1.4-1.4 1.4z"/><circle cx="58.7" cy="168" r="42.5" fill="#fff" stroke="#39870c" stroke-width="4" stroke-miterlimit="10"/><path class="st0" d="M56.3 190.9c-.4-.3-.7-.8-.7-1.4v-16.9H38.7c-.7 0-1.2-.2-1.5-.5-.3-.3-.4-1-.4-1.9v-.7c0-2.1.6-3.2 1.9-3.2h16.9v-16.9c0-.7.2-1.2.7-1.5.4-.3 1.2-.4 2.2-.4h.7c1 0 1.7.2 2.2.5.4.3.7.8.7 1.4v16.9h16.8c.7 0 1.2.2 1.5.7.3.4.4 1.2.4 2.2v.7c0 1-.1 1.7-.4 2.2-.3.4-.8.7-1.5.7h-17v16.9c0 .6-.2 1.1-.7 1.4-.4.3-1.2.5-2.2.5h-.7c-.9-.3-1.6-.4-2-.7z"/></g></svg>