<svg xmlns="http://www.w3.org/2000/svg" viewBox="0 0 80 80"><path d="M54.4 10.61H3.13A3.14 3.14 0 000 13.74v31.68a3.13 3.13 0 003.13 3.12h18.29C17.71 50.3 10.75 54 10.14 54.79h37.24c-.55-.69-7.91-4.47-11.8-6.25H54.4a3.13 3.13 0 003.13-3.12V13.74a3.14 3.14 0 00-3.13-3.13zm.25 35.17H2.88V13.54h51.77z" fill="#39870c"/><path d="M80 66.3a3.12 3.12 0 01-3.13 3.09H56.13A3.12 3.12 0 0153 66.3V23.48a3.12 3.12 0 013.13-3.09h20.74A3.12 3.12 0 0180 23.48zm-13.14-8.43A3.13 3.13 0 1070 61a3.13 3.13 0 00-3.14-3.13zm8.88-32.41H57.47v3.09h18.27zm0 6.14H57.47v3.08h18.27z" fill="#39870c"/><rect x="9.24" y="55.92" width="39.29" height="4.18" rx="1.12" fill="#39870c"/><path d="M31 17.93c-1.15-1.83-3-1.83-4.15 0l-12.1 19.3c-1.15 1.83-.4 3.32 1.66 3.32h24.94c2.06 0 2.81-1.49 1.66-3.32zm-2.08 16a1.27 1.27 0 01-1.33-1.21v-8.29a1.34 1.34 0 012.66 0v8.25a1.27 1.27 0 01-1.37 1.21zm1.33 2.66a1.33 1.33 0 11-1.33-1.33 1.33 1.33 0 011.29 1.29z" fill="#39870c"/></svg>