<svg xmlns="http://www.w3.org/2000/svg" viewBox="0 0 226.8 226.8"><style>.st0{fill:#39870c}.st1{fill:#fff}</style><g id="Icoon"><path class="st0" d="M92.5 100.9h80.3l38 99.6H50.3z"/><path class="st0" d="M44.7 151.1c-2.3 0-4.1-1.8-4.1-4.1v-14.4c0-2.3 1.8-4.1 4.1-4.1h5.9V57.8c0-2.3 1.8-4.1 4.1-4.1h25.6c2.3 0 4.1 1.8 4.1 4.1V61h96.3c1.7 0 3.1 1.4 3.1 3.1v20.1c0 1.7-1.4 3.1-3.1 3.1H84.5v41.1h7.7c2.3 0 4.1 1.8 4.1 4.1V147c0 2.3-1.8 4.1-4.1 4.1H44.7z"/><path class="st1" d="M80.4 55.8c1.1 0 2 .9 2 2v5.3h98.4c.5 0 1 .4 1 1v20.1c0 .5-.4 1-1 1H82.4V130.5h9.9c1.1 0 2 .9 2 2V147c0 1.1-.9 2-2 2H44.7c-1.1 0-2-.9-2-2v-14.4c0-1.1.9-2 2-2h8.1V57.8c0-1.1.9-2 2-2h25.6m0-4.2H54.7c-3.4 0-6.2 2.8-6.2 6.2v68.5h-3.8c-3.4 0-6.2 2.8-6.2 6.2V147c0 3.4 2.8 6.2 6.2 6.2h47.5c3.4 0 6.2-2.8 6.2-6.2v-14.4c0-3.4-2.8-6.2-6.2-6.2h-5.6V89.5h94.2c2.9 0 5.2-2.4 5.2-5.2V64.2c0-2.9-2.4-5.2-5.2-5.2H86.6v-1.1c0-3.5-2.8-6.3-6.2-6.3z"/><path class="st1" d="M87.9 79.3h8.5l6.7-11.6h-8.5zM102.7 79.3h8.5l6.6-11.6h-8.4zM117.5 79.3h8.5l6.6-11.6h-8.4zM132.3 79.3h8.5l6.6-11.6H139zM147.1 79.3h8.4l6.7-11.6h-8.5zM161.9 79.3h8.4l6.7-11.6h-8.5z"/><g><circle cx="58.7" cy="168" r="42.5" fill="#fff" stroke="#39870c" stroke-width="4" stroke-miterlimit="10"/><path class="st0" d="M56.3 190.9c-.4-.3-.7-.8-.7-1.4v-16.9H38.7c-.7 0-1.2-.2-1.5-.5-.3-.3-.4-1-.4-1.9v-.7c0-2.1.6-3.2 1.9-3.2h16.9v-16.9c0-.7.2-1.2.7-1.5.4-.3 1.2-.4 2.2-.4h.7c1 0 1.7.2 2.2.5.4.3.7.8.7 1.4v16.9h16.8c.7 0 1.2.2 1.5.7.3.4.4 1.2.4 2.2v.7c0 1-.1 1.7-.4 2.2-.3.4-.8.7-1.5.7h-17v16.9c0 .6-.2 1.1-.7 1.4-.4.3-1.2.5-2.2.5h-.7c-.9-.3-1.6-.4-2-.7z"/></g><path class="st1" d="M129.4 104.7h4.6l2.2 16.1H127zM127.1 129.2h8.7l4.1 30.2h-17.3zM142.5 200.7l-3.5-26h-15.8l-3.9 26z"/></g></svg>