<svg xmlns="http://www.w3.org/2000/svg" viewBox="0 0 226.8 226.8"><style>.st0{fill:#39870c}.st1{fill:#fff}</style><g id="Icoon"><path class="st0" d="M116.6 118.5c0 17.7-14.4 32.1-32.1 32.1s-32.1-14.4-32.1-32.1c0-25.4 32.1-64.1 32.1-64.1s32.1 38.7 32.1 64.1z"/><path class="st1" d="M67.9 124.6c-2.4-6.3-2-12.6.6-16.2-1.4-.3-2.9-.3-4.2.2-5.3 2-7 10.4-3.9 18.8 3.2 8.3 10 13.5 15.4 11.5 1.3-.5 2.4-1.4 3.3-2.6-4.4-1-8.9-5.4-11.2-11.7z"/><path class="st0" d="M137.6 120.3c-19.3 0-34.9-15.7-34.9-34.9 0-26.1 31.4-64.3 32.8-66l2.2-2.6 2.2 2.6c1.3 1.6 32.8 39.8 32.8 66-.2 19.2-15.9 34.9-35.1 34.9z"/><path class="st1" d="M137.6 21.2s32.1 38.8 32.1 64.1c0 17.7-14.4 32.1-32.1 32.1s-32.1-14.4-32.1-32.1c0-25.3 32.1-64.1 32.1-64.1m0-8.9l-4.4 5.3c-.3.4-8.4 10.1-16.5 23.2-11.2 18-16.9 33-16.9 44.6 0 20.8 16.9 37.8 37.8 37.8s37.8-16.9 37.8-37.8c0-11.6-5.7-26.6-16.9-44.6-8.1-13-16.2-22.8-16.5-23.2l-4.4-5.3z"/><path class="st1" d="M120.9 91.5c-2.4-6.3-2-12.6.6-16.2-1.4-.3-2.9-.3-4.2.2-5.3 2-7 10.4-3.9 18.8 3.2 8.3 10 13.5 15.4 11.5 1.3-.5 2.4-1.4 3.3-2.6-4.3-1-8.8-5.4-11.2-11.7z"/><path class="st0" d="M159.8 168.3c-2.6-1.3-2.1-5.3-7.5-8-4.7-2.4-9.9.3-13.1 6.6-1 1.8-2.3 2.4-3.5 1.8-2.6-1.3-2.1-5.3-7.5-8-4.7-2.4-9.8.2-13.1 6.5-1 1.9-2.3 2.4-3.5 1.8-2.6-1.3-2.1-5.3-7.5-8-4.7-2.4-9.9.3-13.1 6.6-.8 1.5-1.8 2.1-2.7 2-.3 0-.6-.1-.9-.2-2.6-1.3-2.1-5.3-7.5-8-4.7-2.4-9.9.3-13.1 6.6-1 1.8-2.3 2.4-3.5 1.8-2.6-1.3-2.1-5.3-7.5-8-4.7-2.4-9.8.2-13.1 6.5-1 1.9-2.3 2.4-3.5 1.8-2.6-1.3-2.1-5.3-7.5-8-4.7-2.4-9.9.3-13.1 6.6-.8 1.5-1.8 2.1-2.7 2v9.2c3.8.4 7.6-2.4 10.2-7.4 1-1.8 2.3-2.4 3.5-1.8 2.6 1.3 2.1 5.3 7.5 8 4.7 2.4 9.8-.2 13.1-6.5 1-1.9 2.3-2.4 3.5-1.8 2.6 1.3 2.1 5.3 7.5 8 4.7 2.4 9.9-.3 13.1-6.6 1-1.8 2.3-2.4 3.5-1.8 2.6 1.3 2.1 5.3 7.5 8 1 .5 2 .8 3 .9 3.8.4 7.6-2.4 10.2-7.4 1-1.8 2.3-2.4 3.5-1.8 2.6 1.3 2.1 5.3 7.5 8 4.7 2.4 9.8-.2 13.1-6.5 1-1.9 2.3-2.4 3.5-1.8 2.6 1.3 2.1 5.3 7.5 8 4.7 2.4 9.9-.3 13.1-6.6 1-1.8 2.3-2.4 3.5-1.8 2.6 1.3 2.1 5.3 7.5 8 1 .5 2 .8 3 .9v-9.2c-.3-.1-.6-.2-.9-.4zM209 193.1c-2.6-1.3-2.1-5.3-7.5-8-4.7-2.4-9.9.3-13.1 6.6-1 1.8-2.3 2.4-3.5 1.8-2.6-1.3-2.1-5.3-7.5-8-4.7-2.4-9.8.2-13.1 6.5-1 1.9-2.3 2.4-3.5 1.8-2.6-1.3-2.1-5.3-7.5-8-4.7-2.4-9.9.3-13.1 6.6-.8 1.5-1.8 2.1-2.7 2-.3 0-.6-.1-.9-.2-2.6-1.3-2.1-5.3-7.5-8-4.7-2.4-9.9.3-13.1 6.6-1 1.8-2.3 2.4-3.5 1.8-2.6-1.3-2.1-5.3-7.5-8-4.7-2.4-9.8.2-13.1 6.5-1 1.9-2.3 2.4-3.5 1.8-2.6-1.3-2.1-5.3-7.5-8-4.7-2.4-9.9.3-13.1 6.6-.8 1.5-1.8 2.1-2.7 2v9.2c3.8.4 7.6-2.4 10.2-7.4 1-1.8 2.3-2.4 3.5-1.8 2.6 1.3 2.1 5.3 7.5 8 4.7 2.4 9.8-.2 13.1-6.5 1-1.9 2.3-2.4 3.5-1.8 2.6 1.3 2.1 5.3 7.5 8 4.7 2.4 9.9-.3 13.1-6.6 1-1.8 2.3-2.4 3.5-1.8 2.6 1.3 2.1 5.3 7.5 8 1 .5 2 .8 3 .9 3.8.4 7.6-2.4 10.2-7.4 1-1.8 2.3-2.4 3.5-1.8 2.6 1.3 2.1 5.3 7.5 8 4.7 2.4 9.8-.2 13.1-6.5 1-1.9 2.3-2.4 3.5-1.8 2.6 1.3 2.1 5.3 7.5 8 4.7 2.4 9.9-.3 13.1-6.6 1-1.8 2.3-2.4 3.5-1.8 2.6 1.3 2.1 5.3 7.5 8 1 .5 2 .8 3 .9v-9.2c-.3-.2-.6-.2-.9-.4z"/></g></svg>