<svg xmlns="http://www.w3.org/2000/svg" xmlns:xlink="http://www.w3.org/1999/xlink" viewBox="0 0 226.8 226.8"><style>.st0{fill:#39870c}.st1{fill:#fff}.st3{clip-path:url(#SVGID_2_);fill:#39870c}</style><g id="Icoon"><defs><path id="SVGID_3_" d="M13.4 13.2H231v187.2H13.4z"/></defs><clipPath id="SVGID_2_"><use xlink:href="#SVGID_3_" overflow="visible"/></clipPath><path class="st3" d="M211.1 167.9v-6.5c0-1-.1-3.5-.7-5.2l-19.6-77.4c-1.2-4.8-5.3-8.2-9.9-8.2H60.7c-4.6 0-8.7 3.4-9.9 8.2l-20 79c-.2.9-.4 2.6-.4 2.9v7.2c0 6.1 4.6 11.1 10.3 11.1h160.1c3.9 0 6.2-1.7 7.5-3.1 2.8-3.3 2.8-7.7 2.8-8z"/><g clip-path="url(#SVGID_2_)"><path class="st1" d="M125.7 115.3h23.4l-2.8-30.9h-20.7v30.9z"/></g><g clip-path="url(#SVGID_2_)"><path class="st1" d="M50.4 164.6H78l3.3-39.1H57l-6.6 39.1z"/></g><g clip-path="url(#SVGID_2_)"><path class="st1" d="M59 115.3h23.3l2.8-30.9H64.5L59 115.3z"/></g><g clip-path="url(#SVGID_2_)"><path class="st1" d="M88 164.6h27.7v-39.1H91.3L88 164.6z"/></g><g clip-path="url(#SVGID_2_)"><path class="st1" d="M92.3 115.3h23.4V84.4H95.1l-2.8 30.9z"/></g><g clip-path="url(#SVGID_2_)"><path class="st1" d="M125.7 164.6h27.7l-3.3-39.1h-24.4v39.1z"/></g><g clip-path="url(#SVGID_2_)"><path class="st1" d="M159.1 115.3h23.3l-5.5-30.9h-20.6l2.8 30.9z"/></g><g clip-path="url(#SVGID_2_)"><path class="st1" d="M163.4 164.6H191l-6.5-39.1h-24.3l3.2 39.1z"/></g><path class="st3" d="M96.3 63.8l.6.3h24.2c-.2-1.1-.4-2.3-.4-3.5 0-9.8 7.4-17.8 16.6-17.8 9.2 0 16.6 7.9 16.6 17.8 0 1.2-.1 2.4-.4 3.5H178c.2-.1.4-.2.5-.2 1.3-.6 2.1-1.9 2-3.3 0-1.5-.9-2.7-2.1-3.3-6.6-2.7-13.2-6.5-14-8-1.2-3.1 1.8-12.2 4.2-17.3.6-1.4.4-3-.7-4.1-1-1.1-2.6-1.3-3.9-.6-3.6 2-10.5 5.3-13.9 5.3-.5 0-.7-.1-.7-.1-2-1.1-6.2-9.2-8.9-15.9-.5-1.4-1.8-2.2-3.2-2.2-1.4.1-2.6 1-3 2.4-2.3 7.3-5.9 14.6-7.6 15.4 0 0-.2.1-.9.1-4.1 0-12.3-3.7-15.1-5.1-1.3-.6-2.7-.4-3.7.7-1 1-1.3 2.6-.7 4 2.5 6.2 5 14.5 4.7 17.3-1.7 1.7-8.7 5.5-14.6 8.2-1.2.6-2 1.9-2 3.3-.2 1.3.7 2.6 1.9 3.1z"/><path class="st0" d="M155.1 206h-65c-2 0-3.6-1.6-3.6-3.6v-3.6c0-6 4.9-10.9 10.8-10.9h7.2v-3.6h36.1v3.6h7.2c6 0 10.8 4.9 10.8 10.8v3.6c.2 2.1-1.4 3.7-3.5 3.7zm0 0"/><g><circle cx="59.7" cy="167.8" r="42.5" fill="#fff" stroke="#39870c" stroke-width="4" stroke-miterlimit="10"/><path class="st0" d="M57.3 190.6c-.4-.3-.7-.8-.7-1.4v-16.9H39.8c-.7 0-1.2-.2-1.5-.5-.3-.3-.4-1-.4-1.9v-.7c0-2.1.6-3.2 1.9-3.2h16.9v-16.9c0-.7.2-1.2.7-1.5.4-.3 1.2-.4 2.2-.4h.7c1 0 1.7.2 2.2.5.4.3.7.8.7 1.4V166H80c.7 0 1.2.2 1.5.7.3.4.4 1.2.4 2.2v.7c0 1-.1 1.7-.4 2.2-.3.4-.8.7-1.5.7H63v16.9c0 .6-.2 1.1-.7 1.4-.4.3-1.2.5-2.2.5h-.7c-.9-.3-1.6-.4-2.1-.7z"/></g></g></svg>