<?xml version="1.0" encoding="utf-8"?>
<!-- Generator: Adobe Illustrator 23.1.1, SVG Export Plug-In . SVG Version: 6.00 Build 0)  -->
<svg version="1.1" id="Layer_1" xmlns="http://www.w3.org/2000/svg" xmlns:xlink="http://www.w3.org/1999/xlink" x="0px" y="0px"
	 viewBox="0 0 650 320" style="enable-background:new 0 0 650 320;" xml:space="preserve">
<style type="text/css">
	.st0{fill:none;stroke:#666666;stroke-width:0.9921;stroke-miterlimit:10;}
	.st1{fill:#676CB0;}
	.st2{fill:#666666;}
	.st3{fill:#39870C;}
	.st4{fill:#FFFFFF;}
	.st5{fill:#AFCF9D;}
	.st6{fill:none;stroke:#676CB0;stroke-width:0.8504;stroke-miterlimit:10;}
	.st7{fill:none;stroke:#FFFFFF;stroke-width:0.8504;stroke-miterlimit:10;}
	.st8{fill:none;stroke:#AFCF9D;stroke-width:1.1339;stroke-miterlimit:10;}
	.st9{fill:none;stroke:#676CB0;stroke-width:1.1339;stroke-miterlimit:10;}
	.st10{fill:none;stroke:#39870C;stroke-width:1.1339;stroke-miterlimit:10;}
	.st11{fill:none;stroke:#FFFFFF;stroke-width:1.1339;stroke-miterlimit:10;}
</style>
<line class="st0" x1="0.6" y1="320" x2="0.6" y2="0"/>
<rect x="93.4" y="130.6" class="st1" width="15.4" height="16.4"/>
<g>
	<g>
		<path class="st2" d="M52,276.6c-0.1,0-0.1-0.1-0.1-0.2c0,0,0.1-0.5,0.2-1.4c0,0,0.1-0.5,0.3-1.5h-1.2c-0.1,0-0.2,0-0.2-0.1
			c-0.1-0.1-0.1-0.2-0.1-0.4v-0.3c0-0.2,0-0.3,0.1-0.4c0.1-0.1,0.1-0.1,0.2-0.1h1.5l0.4-2.4h-1.3c-0.1,0-0.2,0-0.2-0.1
			c-0.1-0.1-0.1-0.2-0.1-0.4v-0.3c0-0.2,0-0.3,0.1-0.4c0.1-0.1,0.1-0.1,0.2-0.1h1.5l0.5-2.7c0-0.1,0.1-0.2,0.2-0.3
			c0.1-0.1,0.3-0.1,0.5-0.1h0.1c0.3,0,0.4,0.1,0.4,0.2l-0.5,2.8h1.9l0.5-2.7c0-0.1,0.1-0.2,0.2-0.3c0.1-0.1,0.3-0.1,0.5-0.1h0.1
			c0.3,0,0.4,0.1,0.4,0.2l-0.5,2.8h1.1c0.1,0,0.2,0,0.2,0.1s0.1,0.2,0.1,0.4v0.3c0,0.2,0,0.3-0.1,0.4c0,0.1-0.1,0.1-0.2,0.1h-1.3
			l-0.4,2.4h1.2c0.1,0,0.2,0,0.2,0.1s0.1,0.2,0.1,0.4v0.3c0,0.2,0,0.3-0.1,0.4c0,0.1-0.1,0.1-0.2,0.1h-1.5l-0.5,2.8
			c0,0.1-0.1,0.2-0.2,0.3c-0.1,0.1-0.3,0.1-0.5,0.1h-0.1c-0.2,0-0.3,0-0.3-0.1c-0.1,0-0.1-0.1-0.1-0.2c0,0,0.1-0.5,0.2-1.4
			c0,0,0.1-0.5,0.3-1.5h-1.9l-0.5,2.8c0,0.1-0.1,0.2-0.2,0.3c-0.1,0.1-0.3,0.1-0.5,0.1h-0.1C52.2,276.6,52.1,276.6,52,276.6z
			 M55.7,272.2l0.4-2.4h-1.9l-0.4,2.4H55.7z"/>
		<path class="st2" d="M61.5,276.6c-0.5-0.1-0.9-0.2-1.2-0.4c-0.3-0.1-0.4-0.3-0.4-0.4c0-0.1,0.1-0.3,0.2-0.5
			c0.1-0.2,0.3-0.3,0.4-0.3c0.1,0,0.2,0,0.4,0.1c0.7,0.3,1.4,0.4,2.1,0.4c0.6,0,1.1-0.2,1.6-0.5c0.5-0.3,0.7-0.9,0.7-1.7
			c0-0.8-0.2-1.3-0.6-1.6c-0.4-0.3-1-0.5-1.8-0.5h-0.5c-0.1,0-0.2,0-0.2-0.1c-0.1-0.1-0.1-0.2-0.1-0.4v-0.2c0-0.2,0-0.3,0.1-0.4
			c0.1-0.1,0.1-0.1,0.2-0.1h0.5c0.5,0,0.9-0.1,1.2-0.3c0.3-0.2,0.5-0.5,0.7-0.8c0.1-0.3,0.2-0.6,0.2-0.9c0-0.4-0.1-0.7-0.4-1.1
			s-0.8-0.5-1.5-0.5c-0.4,0-0.8,0-1.1,0.1c-0.3,0.1-0.6,0.2-0.8,0.3c-0.2,0.1-0.3,0.1-0.4,0.1c-0.1,0-0.2-0.1-0.3-0.3
			c-0.1-0.2-0.2-0.4-0.2-0.5c0-0.2,0.3-0.4,1-0.6s1.3-0.3,1.9-0.3c1,0,1.8,0.2,2.4,0.7c0.6,0.5,0.9,1.2,0.9,2.1c0,0.5-0.2,1-0.5,1.4
			c-0.3,0.4-0.7,0.7-1.2,0.8v0.1c0.5,0.1,1,0.5,1.4,1c0.4,0.5,0.6,1.2,0.6,2c0,0.8-0.2,1.4-0.5,1.9c-0.4,0.5-0.8,0.9-1.4,1.1
			s-1.1,0.3-1.7,0.3C62.5,276.7,62,276.7,61.5,276.6z"/>
		<path class="st2" d="M69.9,276.3c-0.1-0.2-0.2-0.4-0.2-0.5c0-0.1,0-0.1,0.1-0.2c1.1-0.4,1.9-1,2.6-1.8s1.1-1.6,1.4-2.5
			c-0.6,0.4-1.3,0.5-2.2,0.5c-0.6,0-1.1-0.1-1.5-0.4c-0.5-0.3-0.8-0.6-1.1-1.1c-0.3-0.5-0.4-1.1-0.4-1.7c0-0.7,0.2-1.2,0.5-1.8
			s0.7-0.9,1.2-1.2c0.5-0.3,1.1-0.4,1.8-0.4c1.1,0,2,0.3,2.5,1c0.6,0.7,0.9,1.7,0.9,3c0,1.4-0.3,2.7-1,3.8c-0.7,1.1-1.4,2-2.3,2.6
			c-0.8,0.6-1.5,0.9-1.9,0.9C70.2,276.6,70,276.5,69.9,276.3z M74.1,270.2c0-0.4,0.1-0.7,0.1-1c0-1-0.2-1.7-0.6-2.1
			c-0.4-0.4-0.9-0.6-1.5-0.6c-0.3,0-0.6,0.1-0.9,0.2c-0.3,0.2-0.6,0.4-0.8,0.7c-0.2,0.3-0.3,0.7-0.3,1.2c0,0.7,0.2,1.3,0.6,1.6
			c0.4,0.4,0.9,0.5,1.5,0.5C72.8,270.7,73.5,270.6,74.1,270.2z"/>
		<path class="st2" d="M78.1,275.9c-0.6-0.6-1-1.4-1-2.5c0-0.8,0.2-1.4,0.5-1.8c0.3-0.4,0.7-0.8,1.3-1c-0.4-0.2-0.7-0.6-1-1
			s-0.4-0.9-0.4-1.5c0-0.9,0.3-1.6,0.9-2c0.6-0.5,1.3-0.7,2.2-0.7c0.9,0,1.6,0.2,2.2,0.7c0.6,0.5,0.9,1.2,0.9,2c0,1.1-0.5,2-1.6,2.4
			c0.6,0.3,1.1,0.6,1.4,1s0.5,1,0.5,1.8c0,1.1-0.3,1.9-1,2.5c-0.6,0.6-1.5,0.8-2.5,0.8C79.6,276.7,78.7,276.4,78.1,275.9z M82.1,275
			c0.4-0.4,0.6-0.9,0.6-1.6c0-0.4-0.1-0.8-0.3-1.1c-0.2-0.3-0.4-0.5-0.7-0.6c-0.3-0.1-0.7-0.3-1.2-0.5L80,271
			c-0.5,0.3-0.8,0.6-1.1,1s-0.4,0.8-0.4,1.4c0,0.7,0.2,1.2,0.6,1.6s0.9,0.6,1.5,0.6C81.2,275.6,81.7,275.4,82.1,275z M82.4,268.1
			c0-0.5-0.2-0.9-0.5-1.2c-0.3-0.3-0.7-0.4-1.2-0.4c-0.5,0-0.9,0.1-1.2,0.4s-0.5,0.7-0.5,1.2c0,0.4,0.1,0.7,0.3,1s0.4,0.4,0.7,0.6
			s0.6,0.3,1.1,0.4C81.9,269.5,82.4,268.9,82.4,268.1z"/>
		<path class="st2" d="M86.6,276.6c-0.1,0-0.2-0.1-0.2-0.2c0,0,0-0.1,0.1-0.2l4.6-9.6h-5c-0.1,0-0.2,0-0.2-0.1
			c-0.1-0.1-0.1-0.2-0.1-0.4v-0.2c0-0.2,0-0.3,0.1-0.4s0.1-0.1,0.2-0.1h6.3c0.1,0,0.1,0.1,0.2,0.3c0.1,0.2,0.1,0.4,0.1,0.5
			c0,0.1,0,0.1,0,0.2l-4.7,10c0,0.1-0.1,0.1-0.2,0.2s-0.2,0.1-0.4,0.1h-0.2C86.9,276.6,86.7,276.6,86.6,276.6z"/>
		<path class="st2" d="M95.9,276.1c-0.5-0.4-1-1-1.3-1.9c-0.3-0.9-0.5-1.9-0.5-3.2s0.2-2.3,0.5-3.2c0.3-0.9,0.8-1.5,1.3-1.9
			c0.5-0.4,1.2-0.6,1.8-0.6s1.3,0.2,1.8,0.6c0.6,0.4,1,1,1.3,1.9s0.5,1.9,0.5,3.2s-0.2,2.3-0.5,3.2s-0.8,1.5-1.3,1.9
			c-0.6,0.4-1.2,0.6-1.8,0.6S96.4,276.5,95.9,276.1z M98.8,275.1c0.3-0.3,0.6-0.8,0.8-1.5c0.2-0.7,0.3-1.5,0.3-2.6
			c0-1.1-0.1-1.9-0.3-2.6c-0.2-0.7-0.5-1.2-0.8-1.5c-0.3-0.3-0.7-0.5-1.1-0.5c-0.4,0-0.8,0.2-1.1,0.5c-0.3,0.3-0.6,0.8-0.8,1.5
			s-0.3,1.6-0.3,2.6c0,1.1,0.1,1.9,0.3,2.6s0.5,1.2,0.8,1.5c0.3,0.3,0.7,0.5,1.1,0.5C98.1,275.6,98.5,275.4,98.8,275.1z"/>
		<path class="st2" d="M103.8,275.7c-0.7-0.7-1-1.8-1-3.3c0-1.5,0.4-2.6,1.1-3.3c0.7-0.7,1.6-1,2.7-1c0.6,0,1.2,0.1,1.7,0.2
			c0.5,0.1,0.7,0.3,0.7,0.5c0,0.1-0.1,0.3-0.2,0.5c-0.1,0.2-0.2,0.3-0.3,0.3c0,0,0,0-0.1,0c0,0-0.1,0-0.1,0
			c-0.6-0.3-1.2-0.4-1.7-0.4c-1.5,0-2.3,1-2.3,3.1c0,1.1,0.2,1.9,0.6,2.4c0.4,0.5,1,0.8,1.9,0.8c0.7,0,1.3-0.1,1.8-0.4l0.2-0.1
			c0.1,0,0.2,0.1,0.4,0.3s0.2,0.4,0.2,0.5s-0.1,0.3-0.3,0.4c-0.2,0.1-0.5,0.2-0.9,0.3c-0.4,0.1-0.8,0.1-1.2,0.1
			C105.4,276.7,104.5,276.4,103.8,275.7z"/>
	</g>
	<path class="st3" d="M40.2,282.8H20.8c-0.9,0-1.6-0.7-1.6-1.6v-19.5c0-0.9,0.7-1.6,1.6-1.6h19.5c0.9,0,1.6,0.7,1.6,1.6v19.5
		C41.8,282.1,41.1,282.8,40.2,282.8z"/>
</g>
<g>
	<g>
		<path class="st3" d="M20.9,50.7c-0.1-0.1-0.1-0.2-0.1-0.3v-7.2c0-0.2,0.2-0.3,0.6-0.3h0.3c0.2,0,0.4,0,0.5,0.1
			c0.1,0.1,0.1,0.1,0.1,0.2v6.3h2.7c0.1,0,0.2,0,0.2,0.1c0,0.1,0.1,0.2,0.1,0.4v0.3c0,0.2,0,0.3-0.1,0.4s-0.1,0.1-0.2,0.1h-3.7
			C21,50.8,20.9,50.8,20.9,50.7z"/>
		<path class="st3" d="M25.9,43.7V43c0-0.2,0.2-0.4,0.7-0.4c0.5,0,0.7,0.1,0.7,0.4v0.7c0,0.1-0.1,0.2-0.2,0.3s-0.3,0.1-0.6,0.1
			C26.2,44.1,25.9,44,25.9,43.7z M26,50.5v-5.3c0-0.2,0.2-0.3,0.6-0.3h0.2c0.4,0,0.6,0.1,0.6,0.3v5.3c0,0.2-0.2,0.3-0.6,0.3h-0.2
			C26.2,50.8,26,50.7,26,50.5z"/>
		<path class="st3" d="M28.8,50.5v-3.7c0-0.5,0-0.9-0.1-1.1s-0.1-0.4-0.1-0.4c0-0.1,0.1-0.2,0.4-0.2c0.2-0.1,0.5-0.1,0.7-0.1
			c0.1,0,0.2,0.1,0.3,0.2c0.1,0.1,0.1,0.2,0.1,0.3c0,0.1,0,0.2,0.1,0.2c0.2-0.2,0.4-0.5,0.7-0.6c0.3-0.2,0.6-0.2,1-0.2
			c1.1,0,1.7,0.6,1.7,1.8v3.8c0,0.1,0,0.2-0.1,0.2s-0.2,0.1-0.5,0.1h-0.2c-0.4,0-0.6-0.1-0.6-0.3v-3.6c0-0.6-0.3-0.8-0.8-0.8
			c-0.2,0-0.4,0.1-0.6,0.2c-0.2,0.1-0.3,0.3-0.5,0.5v3.8c0,0.2-0.2,0.3-0.6,0.3h-0.2C29,50.8,28.8,50.7,28.8,50.5z"/>
		<path class="st3" d="M39.9,50.7c0,0.1-0.2,0.2-0.6,0.2H39c-0.2,0-0.3,0-0.4,0c-0.1,0-0.2-0.1-0.2-0.2L36.5,48h0v2.5
			c0,0.2-0.2,0.3-0.6,0.3h-0.2c-0.4,0-0.6-0.1-0.6-0.3v-7.9c0-0.2,0.2-0.3,0.6-0.3h0.2c0.4,0,0.6,0.1,0.6,0.3v4.7l0,0l1.6-2.2
			c0.1-0.1,0.1-0.1,0.2-0.2c0.1,0,0.2,0,0.4,0h0.3c0.2,0,0.3,0,0.4,0c0.1,0,0.1,0.1,0.1,0.1c0,0.1,0,0.1-0.1,0.2l-1.7,2.3l2,2.8
			C39.8,50.5,39.9,50.6,39.9,50.7z"/>
		<path class="st3" d="M45.4,50.7c-0.3-0.1-0.5-0.4-0.7-0.6c0,0.2-0.1,0.4-0.1,0.6c0,0.1-0.1,0.2-0.2,0.2c-0.1,0-0.2,0.1-0.4,0.1
			h-0.1c-0.4,0-0.6-0.1-0.6-0.3v-7.9c0-0.2,0.2-0.3,0.6-0.3h0.2c0.4,0,0.6,0.1,0.6,0.3v2.6c0.4-0.3,0.8-0.4,1.3-0.4
			c0.7,0,1.3,0.3,1.7,0.8c0.4,0.5,0.6,1.3,0.6,2.2c0,0.6-0.1,1.2-0.3,1.6c-0.2,0.5-0.4,0.8-0.8,1c-0.3,0.2-0.7,0.4-1.1,0.4
			C45.9,50.9,45.6,50.8,45.4,50.7z M46.7,49.2c0.2-0.3,0.3-0.8,0.3-1.4c0-1.2-0.4-1.8-1.2-1.8c-0.4,0-0.7,0.1-1,0.3V49
			c0.2,0.2,0.3,0.4,0.5,0.5c0.2,0.1,0.4,0.2,0.6,0.2C46.2,49.7,46.5,49.6,46.7,49.2z"/>
		<path class="st3" d="M49.5,49.1v-3.8c0-0.1,0-0.2,0.1-0.2c0.1-0.1,0.2-0.1,0.5-0.1h0.2c0.4,0,0.6,0.1,0.6,0.3v3.6
			c0,0.6,0.3,0.8,0.8,0.8c0.2,0,0.4-0.1,0.6-0.2c0.2-0.1,0.3-0.3,0.5-0.5v-3.8c0-0.2,0.2-0.3,0.6-0.3h0.2c0.4,0,0.6,0.1,0.6,0.3v3.7
			c0,0.5,0,0.9,0.1,1.1s0.1,0.4,0.1,0.4c0,0.1-0.1,0.2-0.4,0.2c-0.2,0.1-0.5,0.1-0.7,0.1c-0.1,0-0.2-0.1-0.3-0.2
			c-0.1-0.1-0.1-0.2-0.1-0.4c0-0.1,0-0.2-0.1-0.3c-0.2,0.2-0.5,0.5-0.8,0.6c-0.3,0.2-0.6,0.2-1,0.2C50.1,50.9,49.5,50.3,49.5,49.1z"
			/>
		<path class="st3" d="M56.4,50.5c-0.3-0.3-0.4-0.7-0.4-1.3v-3.1h-0.3c-0.1,0-0.2,0-0.2-0.1c0-0.1-0.1-0.2-0.1-0.4v-0.2
			c0-0.2,0-0.3,0.1-0.4c0-0.1,0.1-0.1,0.2-0.1h0.3l0.1-1.1c0-0.2,0.2-0.3,0.5-0.3h0.3c0.3,0,0.5,0.1,0.5,0.3v1.1H58
			c0.1,0,0.2,0,0.2,0.1c0,0.1,0.1,0.2,0.1,0.4v0.2c0,0.2,0,0.3-0.1,0.4c0,0.1-0.1,0.1-0.2,0.1h-0.7v3.1c0,0.2,0,0.4,0.1,0.5
			c0.1,0.1,0.2,0.1,0.4,0.1c0.1,0,0.1,0,0.2,0c0.1,0,0.1,0,0.2,0c0.1,0,0.2,0.1,0.2,0.3c0.1,0.2,0.1,0.3,0.1,0.4
			c0,0.3-0.3,0.5-1,0.5C57.1,50.9,56.7,50.8,56.4,50.5z"/>
		<path class="st3" d="M60.1,50.5c-0.3-0.3-0.4-0.7-0.4-1.3v-3.1h-0.3c-0.1,0-0.2,0-0.2-0.1c0-0.1-0.1-0.2-0.1-0.4v-0.2
			c0-0.2,0-0.3,0.1-0.4c0-0.1,0.1-0.1,0.2-0.1h0.3l0.1-1.1c0-0.2,0.2-0.3,0.5-0.3h0.3c0.3,0,0.5,0.1,0.5,0.3v1.1h0.7
			c0.1,0,0.2,0,0.2,0.1c0,0.1,0.1,0.2,0.1,0.4v0.2c0,0.2,0,0.3-0.1,0.4c0,0.1-0.1,0.1-0.2,0.1h-0.7v3.1c0,0.2,0,0.4,0.1,0.5
			c0.1,0.1,0.2,0.1,0.4,0.1c0.1,0,0.1,0,0.2,0c0.1,0,0.1,0,0.2,0c0.1,0,0.2,0.1,0.2,0.3c0.1,0.2,0.1,0.3,0.1,0.4
			c0,0.3-0.3,0.5-1,0.5C60.8,50.9,60.4,50.8,60.1,50.5z"/>
		<path class="st3" d="M63.7,50.1c-0.5-0.5-0.7-1.3-0.7-2.2c0-1,0.2-1.7,0.7-2.2c0.5-0.5,1.1-0.8,2-0.8c0.9,0,1.5,0.3,2,0.8
			c0.5,0.5,0.7,1.3,0.7,2.2s-0.2,1.7-0.7,2.2s-1.1,0.8-2,0.8C64.8,50.9,64.1,50.6,63.7,50.1z M66.6,49.3c0.2-0.3,0.3-0.8,0.3-1.4
			c0-0.6-0.1-1.1-0.3-1.4c-0.2-0.3-0.5-0.5-0.9-0.5s-0.7,0.2-0.9,0.5c-0.2,0.3-0.3,0.8-0.3,1.4c0,0.6,0.1,1.1,0.3,1.4
			c0.2,0.3,0.5,0.5,0.9,0.5S66.4,49.6,66.6,49.3z"/>
		<path class="st3" d="M69.5,50.5v-3.7c0-0.5,0-0.9-0.1-1.1s-0.1-0.4-0.1-0.4c0-0.1,0.1-0.2,0.4-0.2C70,45,70.2,45,70.4,45
			c0.1,0,0.2,0.1,0.3,0.2c0.1,0.1,0.1,0.2,0.1,0.3c0,0.1,0,0.2,0.1,0.2c0.2-0.2,0.4-0.5,0.7-0.6c0.3-0.2,0.6-0.2,1-0.2
			c1.1,0,1.7,0.6,1.7,1.8v3.8c0,0.1,0,0.2-0.1,0.2s-0.2,0.1-0.5,0.1h-0.2c-0.4,0-0.6-0.1-0.6-0.3v-3.6c0-0.6-0.3-0.8-0.8-0.8
			c-0.2,0-0.4,0.1-0.6,0.2c-0.2,0.1-0.3,0.3-0.5,0.5v3.8c0,0.2-0.2,0.3-0.6,0.3h-0.2C69.7,50.8,69.5,50.7,69.5,50.5z"/>
	</g>
</g>
<g>
	<g>
		<path class="st3" d="M155.1,50.7c-0.1-0.1-0.1-0.2-0.1-0.3v-7.2c0-0.2,0.2-0.3,0.6-0.3h0.3c0.2,0,0.4,0,0.5,0.1
			c0.1,0.1,0.1,0.1,0.1,0.2v6.3h2.7c0.1,0,0.2,0,0.2,0.1c0,0.1,0.1,0.2,0.1,0.4v0.3c0,0.2,0,0.3-0.1,0.4s-0.1,0.1-0.2,0.1h-3.7
			C155.3,50.8,155.2,50.8,155.1,50.7z"/>
		<path class="st3" d="M160.3,43.7V43c0-0.2,0.2-0.4,0.7-0.4c0.5,0,0.7,0.1,0.7,0.4v0.7c0,0.1-0.1,0.2-0.2,0.3s-0.3,0.1-0.6,0.1
			C160.5,44.1,160.3,44,160.3,43.7z M160.3,50.5v-5.3c0-0.2,0.2-0.3,0.6-0.3h0.2c0.4,0,0.6,0.1,0.6,0.3v5.3c0,0.2-0.2,0.3-0.6,0.3
			h-0.2C160.5,50.8,160.3,50.7,160.3,50.5z"/>
		<path class="st3" d="M163.3,50.5v-3.7c0-0.5,0-0.9-0.1-1.1s-0.1-0.4-0.1-0.4c0-0.1,0.1-0.2,0.4-0.2c0.2-0.1,0.5-0.1,0.7-0.1
			c0.1,0,0.2,0.1,0.3,0.2c0.1,0.1,0.1,0.2,0.1,0.3c0,0.1,0,0.2,0.1,0.2c0.2-0.2,0.4-0.5,0.7-0.6c0.3-0.2,0.6-0.2,1-0.2
			c1.1,0,1.7,0.6,1.7,1.8v3.8c0,0.1,0,0.2-0.1,0.2s-0.2,0.1-0.5,0.1h-0.2c-0.4,0-0.6-0.1-0.6-0.3v-3.6c0-0.6-0.3-0.8-0.8-0.8
			c-0.2,0-0.4,0.1-0.6,0.2c-0.2,0.1-0.3,0.3-0.5,0.5v3.8c0,0.2-0.2,0.3-0.6,0.3h-0.2C163.5,50.8,163.3,50.7,163.3,50.5z"/>
		<path class="st3" d="M174.4,50.7c0,0.1-0.2,0.2-0.6,0.2h-0.3c-0.2,0-0.3,0-0.4,0c-0.1,0-0.2-0.1-0.2-0.2l-1.8-2.6h0v2.5
			c0,0.2-0.2,0.3-0.6,0.3h-0.2c-0.4,0-0.6-0.1-0.6-0.3v-7.9c0-0.2,0.2-0.3,0.6-0.3h0.2c0.4,0,0.6,0.1,0.6,0.3v4.7l0,0l1.6-2.2
			c0.1-0.1,0.1-0.1,0.2-0.2c0.1,0,0.2,0,0.4,0h0.3c0.2,0,0.3,0,0.4,0c0.1,0,0.1,0.1,0.1,0.1c0,0.1,0,0.1-0.1,0.2l-1.7,2.3l2,2.8
			C174.4,50.5,174.4,50.6,174.4,50.7z"/>
		<path class="st3" d="M180.1,50.7c-0.3-0.1-0.5-0.4-0.7-0.6c0,0.2-0.1,0.4-0.1,0.6c0,0.1-0.1,0.2-0.2,0.2c-0.1,0-0.2,0.1-0.4,0.1
			h-0.1c-0.4,0-0.6-0.1-0.6-0.3v-7.9c0-0.2,0.2-0.3,0.6-0.3h0.2c0.4,0,0.6,0.1,0.6,0.3v2.6c0.4-0.3,0.8-0.4,1.3-0.4
			c0.7,0,1.3,0.3,1.7,0.8c0.4,0.5,0.6,1.3,0.6,2.2c0,0.6-0.1,1.2-0.3,1.6c-0.2,0.5-0.4,0.8-0.8,1c-0.3,0.2-0.7,0.4-1.1,0.4
			C180.7,50.9,180.4,50.8,180.1,50.7z M181.5,49.2c0.2-0.3,0.3-0.8,0.3-1.4c0-1.2-0.4-1.8-1.2-1.8c-0.4,0-0.7,0.1-1,0.3V49
			c0.2,0.2,0.3,0.4,0.5,0.5c0.2,0.1,0.4,0.2,0.6,0.2C181,49.7,181.3,49.6,181.5,49.2z"/>
		<path class="st3" d="M184.4,49.1v-3.8c0-0.1,0-0.2,0.1-0.2c0.1-0.1,0.2-0.1,0.5-0.1h0.2c0.4,0,0.6,0.1,0.6,0.3v3.6
			c0,0.6,0.3,0.8,0.8,0.8c0.2,0,0.4-0.1,0.6-0.2c0.2-0.1,0.3-0.3,0.5-0.5v-3.8c0-0.2,0.2-0.3,0.6-0.3h0.2c0.4,0,0.6,0.1,0.6,0.3v3.7
			c0,0.5,0,0.9,0.1,1.1s0.1,0.4,0.1,0.4c0,0.1-0.1,0.2-0.4,0.2c-0.2,0.1-0.5,0.1-0.7,0.1c-0.1,0-0.2-0.1-0.3-0.2
			c-0.1-0.1-0.1-0.2-0.1-0.4c0-0.1,0-0.2-0.1-0.3c-0.2,0.2-0.5,0.5-0.8,0.6c-0.3,0.2-0.6,0.2-1,0.2C185,50.9,184.4,50.3,184.4,49.1z
			"/>
		<path class="st3" d="M191.4,50.5c-0.3-0.3-0.4-0.7-0.4-1.3v-3.1h-0.3c-0.1,0-0.2,0-0.2-0.1c0-0.1-0.1-0.2-0.1-0.4v-0.2
			c0-0.2,0-0.3,0.1-0.4c0-0.1,0.1-0.1,0.2-0.1h0.3l0.1-1.1c0-0.2,0.2-0.3,0.5-0.3h0.3c0.3,0,0.5,0.1,0.5,0.3v1.1h0.7
			c0.1,0,0.2,0,0.2,0.1c0,0.1,0.1,0.2,0.1,0.4v0.2c0,0.2,0,0.3-0.1,0.4c0,0.1-0.1,0.1-0.2,0.1h-0.7v3.1c0,0.2,0,0.4,0.1,0.5
			c0.1,0.1,0.2,0.1,0.4,0.1c0.1,0,0.1,0,0.2,0c0.1,0,0.1,0,0.2,0c0.1,0,0.2,0.1,0.2,0.3c0.1,0.2,0.1,0.3,0.1,0.4
			c0,0.3-0.3,0.5-1,0.5C192.1,50.9,191.7,50.8,191.4,50.5z"/>
		<path class="st3" d="M195.2,50.5c-0.3-0.3-0.4-0.7-0.4-1.3v-3.1h-0.3c-0.1,0-0.2,0-0.2-0.1c0-0.1-0.1-0.2-0.1-0.4v-0.2
			c0-0.2,0-0.3,0.1-0.4c0-0.1,0.1-0.1,0.2-0.1h0.3l0.1-1.1c0-0.2,0.2-0.3,0.5-0.3h0.3c0.3,0,0.5,0.1,0.5,0.3v1.1h0.7
			c0.1,0,0.2,0,0.2,0.1c0,0.1,0.1,0.2,0.1,0.4v0.2c0,0.2,0,0.3-0.1,0.4c0,0.1-0.1,0.1-0.2,0.1h-0.7v3.1c0,0.2,0,0.4,0.1,0.5
			c0.1,0.1,0.2,0.1,0.4,0.1c0.1,0,0.1,0,0.2,0c0.1,0,0.1,0,0.2,0c0.1,0,0.2,0.1,0.2,0.3c0.1,0.2,0.1,0.3,0.1,0.4
			c0,0.3-0.3,0.5-1,0.5C195.9,50.9,195.5,50.8,195.2,50.5z"/>
		<path class="st3" d="M198.9,50.1c-0.5-0.5-0.7-1.3-0.7-2.2c0-1,0.2-1.7,0.7-2.2c0.5-0.5,1.1-0.8,2-0.8c0.9,0,1.5,0.3,2,0.8
			c0.5,0.5,0.7,1.3,0.7,2.2s-0.2,1.7-0.7,2.2s-1.1,0.8-2,0.8C200,50.9,199.3,50.6,198.9,50.1z M201.8,49.3c0.2-0.3,0.3-0.8,0.3-1.4
			c0-0.6-0.1-1.1-0.3-1.4c-0.2-0.3-0.5-0.5-0.9-0.5s-0.7,0.2-0.9,0.5c-0.2,0.3-0.3,0.8-0.3,1.4c0,0.6,0.1,1.1,0.3,1.4
			c0.2,0.3,0.5,0.5,0.9,0.5S201.6,49.6,201.8,49.3z"/>
		<path class="st3" d="M204.9,50.5v-3.7c0-0.5,0-0.9-0.1-1.1s-0.1-0.4-0.1-0.4c0-0.1,0.1-0.2,0.4-0.2c0.2-0.1,0.5-0.1,0.7-0.1
			c0.1,0,0.2,0.1,0.3,0.2c0.1,0.1,0.1,0.2,0.1,0.3c0,0.1,0,0.2,0.1,0.2c0.2-0.2,0.4-0.5,0.7-0.6c0.3-0.2,0.6-0.2,1-0.2
			c1.1,0,1.7,0.6,1.7,1.8v3.8c0,0.1,0,0.2-0.1,0.2s-0.2,0.1-0.5,0.1h-0.2c-0.4,0-0.6-0.1-0.6-0.3v-3.6c0-0.6-0.3-0.8-0.8-0.8
			c-0.2,0-0.4,0.1-0.6,0.2c-0.2,0.1-0.3,0.3-0.5,0.5v3.8c0,0.2-0.2,0.3-0.6,0.3h-0.2C205.1,50.8,204.9,50.7,204.9,50.5z"/>
	</g>
</g>
<g>
	<g>
		<path class="st1" d="M20.9,96.2c-0.1-0.1-0.1-0.2-0.1-0.3v-7.2c0-0.2,0.2-0.3,0.6-0.3h0.3c0.2,0,0.4,0,0.5,0.1
			c0.1,0.1,0.1,0.1,0.1,0.2v6.3h2.7c0.1,0,0.2,0,0.2,0.1c0,0.1,0.1,0.2,0.1,0.4v0.3c0,0.2,0,0.3-0.1,0.4s-0.1,0.1-0.2,0.1h-3.7
			C21,96.3,20.9,96.3,20.9,96.2z"/>
		<path class="st1" d="M25.9,89.2v-0.7c0-0.2,0.2-0.4,0.7-0.4c0.5,0,0.7,0.1,0.7,0.4v0.7c0,0.1-0.1,0.2-0.2,0.3s-0.3,0.1-0.6,0.1
			C26.2,89.6,25.9,89.5,25.9,89.2z M26,96v-5.3c0-0.2,0.2-0.3,0.6-0.3h0.2c0.4,0,0.6,0.1,0.6,0.3V96c0,0.2-0.2,0.3-0.6,0.3h-0.2
			C26.2,96.3,26,96.2,26,96z"/>
		<path class="st1" d="M28.8,96v-3.7c0-0.5,0-0.9-0.1-1.1s-0.1-0.4-0.1-0.4c0-0.1,0.1-0.2,0.4-0.2c0.2-0.1,0.5-0.1,0.7-0.1
			c0.1,0,0.2,0.1,0.3,0.2c0.1,0.1,0.1,0.2,0.1,0.3c0,0.1,0,0.2,0.1,0.2c0.2-0.2,0.4-0.5,0.7-0.6c0.3-0.2,0.6-0.2,1-0.2
			c1.1,0,1.7,0.6,1.7,1.8V96c0,0.1,0,0.2-0.1,0.2s-0.2,0.1-0.5,0.1h-0.2c-0.4,0-0.6-0.1-0.6-0.3v-3.6c0-0.6-0.3-0.8-0.8-0.8
			c-0.2,0-0.4,0.1-0.6,0.2c-0.2,0.1-0.3,0.3-0.5,0.5V96c0,0.2-0.2,0.3-0.6,0.3h-0.2C29,96.3,28.8,96.2,28.8,96z"/>
		<path class="st1" d="M39.9,96.2c0,0.1-0.2,0.2-0.6,0.2H39c-0.2,0-0.3,0-0.4,0c-0.1,0-0.2-0.1-0.2-0.2l-1.8-2.6h0V96
			c0,0.2-0.2,0.3-0.6,0.3h-0.2c-0.4,0-0.6-0.1-0.6-0.3v-7.9c0-0.2,0.2-0.3,0.6-0.3h0.2c0.4,0,0.6,0.1,0.6,0.3v4.7l0,0l1.6-2.2
			c0.1-0.1,0.1-0.1,0.2-0.2c0.1,0,0.2,0,0.4,0h0.3c0.2,0,0.3,0,0.4,0c0.1,0,0.1,0.1,0.1,0.1c0,0.1,0,0.1-0.1,0.2l-1.7,2.3l2,2.8
			C39.8,96,39.9,96.1,39.9,96.2z"/>
		<path class="st1" d="M45.4,96.2c-0.3-0.1-0.5-0.4-0.7-0.6c0,0.2-0.1,0.4-0.1,0.6c0,0.1-0.1,0.2-0.2,0.2c-0.1,0-0.2,0.1-0.4,0.1
			h-0.1c-0.4,0-0.6-0.1-0.6-0.3v-7.9c0-0.2,0.2-0.3,0.6-0.3h0.2c0.4,0,0.6,0.1,0.6,0.3v2.6c0.4-0.3,0.8-0.4,1.3-0.4
			c0.7,0,1.3,0.3,1.7,0.8c0.4,0.5,0.6,1.3,0.6,2.2c0,0.6-0.1,1.2-0.3,1.6c-0.2,0.5-0.4,0.8-0.8,1c-0.3,0.2-0.7,0.4-1.1,0.4
			C45.9,96.4,45.6,96.3,45.4,96.2z M46.7,94.7c0.2-0.3,0.3-0.8,0.3-1.4c0-1.2-0.4-1.8-1.2-1.8c-0.4,0-0.7,0.1-1,0.3v2.7
			c0.2,0.2,0.3,0.4,0.5,0.5c0.2,0.1,0.4,0.2,0.6,0.2C46.2,95.2,46.5,95.1,46.7,94.7z"/>
		<path class="st1" d="M49.5,94.6v-3.8c0-0.1,0-0.2,0.1-0.2c0.1-0.1,0.2-0.1,0.5-0.1h0.2c0.4,0,0.6,0.1,0.6,0.3v3.6
			c0,0.6,0.3,0.8,0.8,0.8c0.2,0,0.4-0.1,0.6-0.2c0.2-0.1,0.3-0.3,0.5-0.5v-3.8c0-0.2,0.2-0.3,0.6-0.3h0.2c0.4,0,0.6,0.1,0.6,0.3v3.7
			c0,0.5,0,0.9,0.1,1.1s0.1,0.4,0.1,0.4c0,0.1-0.1,0.2-0.4,0.2c-0.2,0.1-0.5,0.1-0.7,0.1c-0.1,0-0.2-0.1-0.3-0.2
			c-0.1-0.1-0.1-0.2-0.1-0.4c0-0.1,0-0.2-0.1-0.3c-0.2,0.2-0.5,0.5-0.8,0.6c-0.3,0.2-0.6,0.2-1,0.2C50.1,96.4,49.5,95.8,49.5,94.6z"
			/>
		<path class="st1" d="M56.4,96c-0.3-0.3-0.4-0.7-0.4-1.3v-3.1h-0.3c-0.1,0-0.2,0-0.2-0.1c0-0.1-0.1-0.2-0.1-0.4v-0.2
			c0-0.2,0-0.3,0.1-0.4c0-0.1,0.1-0.1,0.2-0.1h0.3l0.1-1.1c0-0.2,0.2-0.3,0.5-0.3h0.3c0.3,0,0.5,0.1,0.5,0.3v1.1H58
			c0.1,0,0.2,0,0.2,0.1c0,0.1,0.1,0.2,0.1,0.4v0.2c0,0.2,0,0.3-0.1,0.4c0,0.1-0.1,0.1-0.2,0.1h-0.7v3.1c0,0.2,0,0.4,0.1,0.5
			c0.1,0.1,0.2,0.1,0.4,0.1c0.1,0,0.1,0,0.2,0c0.1,0,0.1,0,0.2,0c0.1,0,0.2,0.1,0.2,0.3c0.1,0.2,0.1,0.3,0.1,0.4
			c0,0.3-0.3,0.5-1,0.5C57.1,96.4,56.7,96.3,56.4,96z"/>
		<path class="st1" d="M60.1,96c-0.3-0.3-0.4-0.7-0.4-1.3v-3.1h-0.3c-0.1,0-0.2,0-0.2-0.1c0-0.1-0.1-0.2-0.1-0.4v-0.2
			c0-0.2,0-0.3,0.1-0.4c0-0.1,0.1-0.1,0.2-0.1h0.3l0.1-1.1c0-0.2,0.2-0.3,0.5-0.3h0.3c0.3,0,0.5,0.1,0.5,0.3v1.1h0.7
			c0.1,0,0.2,0,0.2,0.1c0,0.1,0.1,0.2,0.1,0.4v0.2c0,0.2,0,0.3-0.1,0.4c0,0.1-0.1,0.1-0.2,0.1h-0.7v3.1c0,0.2,0,0.4,0.1,0.5
			c0.1,0.1,0.2,0.1,0.4,0.1c0.1,0,0.1,0,0.2,0c0.1,0,0.1,0,0.2,0c0.1,0,0.2,0.1,0.2,0.3c0.1,0.2,0.1,0.3,0.1,0.4
			c0,0.3-0.3,0.5-1,0.5C60.8,96.4,60.4,96.3,60.1,96z"/>
		<path class="st1" d="M63.7,95.6c-0.5-0.5-0.7-1.3-0.7-2.2c0-1,0.2-1.7,0.7-2.2c0.5-0.5,1.1-0.8,2-0.8c0.9,0,1.5,0.3,2,0.8
			c0.5,0.5,0.7,1.3,0.7,2.2s-0.2,1.7-0.7,2.2s-1.1,0.8-2,0.8C64.8,96.4,64.1,96.1,63.7,95.6z M66.6,94.8c0.2-0.3,0.3-0.8,0.3-1.4
			c0-0.6-0.1-1.1-0.3-1.4c-0.2-0.3-0.5-0.5-0.9-0.5s-0.7,0.2-0.9,0.5c-0.2,0.3-0.3,0.8-0.3,1.4c0,0.6,0.1,1.1,0.3,1.4
			c0.2,0.3,0.5,0.5,0.9,0.5S66.4,95.1,66.6,94.8z"/>
		<path class="st1" d="M69.5,96v-3.7c0-0.5,0-0.9-0.1-1.1s-0.1-0.4-0.1-0.4c0-0.1,0.1-0.2,0.4-0.2c0.2-0.1,0.5-0.1,0.7-0.1
			c0.1,0,0.2,0.1,0.3,0.2c0.1,0.1,0.1,0.2,0.1,0.3c0,0.1,0,0.2,0.1,0.2c0.2-0.2,0.4-0.5,0.7-0.6c0.3-0.2,0.6-0.2,1-0.2
			c1.1,0,1.7,0.6,1.7,1.8V96c0,0.1,0,0.2-0.1,0.2s-0.2,0.1-0.5,0.1h-0.2c-0.4,0-0.6-0.1-0.6-0.3v-3.6c0-0.6-0.3-0.8-0.8-0.8
			c-0.2,0-0.4,0.1-0.6,0.2c-0.2,0.1-0.3,0.3-0.5,0.5V96c0,0.2-0.2,0.3-0.6,0.3h-0.2C69.7,96.3,69.5,96.2,69.5,96z"/>
	</g>
</g>
<g>
	<rect x="19.8" y="131.1" class="st1" width="55.7" height="16.2"/>
	<g>
		<path class="st4" d="M20.9,141.7c-0.1-0.1-0.1-0.2-0.1-0.3v-7.2c0-0.2,0.2-0.3,0.6-0.3h0.3c0.2,0,0.4,0,0.5,0.1
			c0.1,0.1,0.1,0.1,0.1,0.2v6.3h2.7c0.1,0,0.2,0,0.2,0.1s0.1,0.2,0.1,0.4v0.3c0,0.2,0,0.3-0.1,0.4c0,0.1-0.1,0.1-0.2,0.1h-3.7
			C21,141.8,20.9,141.8,20.9,141.7z"/>
		<path class="st4" d="M25.9,134.7V134c0-0.2,0.2-0.4,0.7-0.4c0.5,0,0.7,0.1,0.7,0.4v0.7c0,0.1-0.1,0.2-0.2,0.3s-0.3,0.1-0.6,0.1
			C26.2,135.1,25.9,135,25.9,134.7z M26,141.5v-5.3c0-0.2,0.2-0.3,0.6-0.3h0.2c0.4,0,0.6,0.1,0.6,0.3v5.3c0,0.2-0.2,0.3-0.6,0.3
			h-0.2C26.2,141.8,26,141.7,26,141.5z"/>
		<path class="st4" d="M28.8,141.5v-3.7c0-0.5,0-0.9-0.1-1.1s-0.1-0.4-0.1-0.4c0-0.1,0.1-0.2,0.4-0.2c0.2-0.1,0.5-0.1,0.7-0.1
			c0.1,0,0.2,0.1,0.3,0.2c0.1,0.1,0.1,0.2,0.1,0.3c0,0.1,0,0.2,0.1,0.2c0.2-0.2,0.4-0.5,0.7-0.6c0.3-0.2,0.6-0.2,1-0.2
			c1.1,0,1.7,0.6,1.7,1.8v3.8c0,0.1,0,0.2-0.1,0.2c-0.1,0.1-0.2,0.1-0.5,0.1h-0.2c-0.4,0-0.6-0.1-0.6-0.3v-3.6
			c0-0.6-0.3-0.8-0.8-0.8c-0.2,0-0.4,0.1-0.6,0.2c-0.2,0.1-0.3,0.3-0.5,0.5v3.8c0,0.2-0.2,0.3-0.6,0.3h-0.2
			C29,141.8,28.8,141.7,28.8,141.5z"/>
		<path class="st4" d="M39.9,141.7c0,0.1-0.2,0.2-0.6,0.2H39c-0.2,0-0.3,0-0.4,0c-0.1,0-0.2-0.1-0.2-0.2l-1.8-2.6h0v2.5
			c0,0.2-0.2,0.3-0.6,0.3h-0.2c-0.4,0-0.6-0.1-0.6-0.3v-7.9c0-0.2,0.2-0.3,0.6-0.3h0.2c0.4,0,0.6,0.1,0.6,0.3v4.7l0,0l1.6-2.2
			c0.1-0.1,0.1-0.1,0.2-0.2c0.1,0,0.2,0,0.4,0h0.3c0.2,0,0.3,0,0.4,0c0.1,0,0.1,0.1,0.1,0.1c0,0.1,0,0.1-0.1,0.2l-1.7,2.3l2,2.8
			C39.8,141.6,39.9,141.6,39.9,141.7z"/>
		<path class="st4" d="M45.4,141.7c-0.3-0.1-0.5-0.4-0.7-0.6c0,0.2-0.1,0.4-0.1,0.6c0,0.1-0.1,0.2-0.2,0.2c-0.1,0-0.2,0.1-0.4,0.1
			h-0.1c-0.4,0-0.6-0.1-0.6-0.3v-7.9c0-0.2,0.2-0.3,0.6-0.3h0.2c0.4,0,0.6,0.1,0.6,0.3v2.6c0.4-0.3,0.8-0.4,1.3-0.4
			c0.7,0,1.3,0.3,1.7,0.8c0.4,0.5,0.6,1.3,0.6,2.2c0,0.6-0.1,1.2-0.3,1.6c-0.2,0.5-0.4,0.8-0.8,1c-0.3,0.2-0.7,0.4-1.1,0.4
			C45.9,141.9,45.6,141.8,45.4,141.7z M46.7,140.3c0.2-0.3,0.3-0.8,0.3-1.4c0-1.2-0.4-1.8-1.2-1.8c-0.4,0-0.7,0.1-1,0.3v2.7
			c0.2,0.2,0.3,0.4,0.5,0.5c0.2,0.1,0.4,0.2,0.6,0.2C46.2,140.7,46.5,140.6,46.7,140.3z"/>
		<path class="st4" d="M49.5,140.1v-3.8c0-0.1,0-0.2,0.1-0.2c0.1-0.1,0.2-0.1,0.5-0.1h0.2c0.4,0,0.6,0.1,0.6,0.3v3.6
			c0,0.6,0.3,0.8,0.8,0.8c0.2,0,0.4-0.1,0.6-0.2c0.2-0.1,0.3-0.3,0.5-0.5v-3.8c0-0.2,0.2-0.3,0.6-0.3h0.2c0.4,0,0.6,0.1,0.6,0.3v3.7
			c0,0.5,0,0.9,0.1,1.1s0.1,0.4,0.1,0.4c0,0.1-0.1,0.2-0.4,0.2c-0.2,0.1-0.5,0.1-0.7,0.1c-0.1,0-0.2-0.1-0.3-0.2
			c-0.1-0.1-0.1-0.2-0.1-0.4s0-0.2-0.1-0.3c-0.2,0.2-0.5,0.5-0.8,0.6s-0.6,0.2-1,0.2C50.1,141.9,49.5,141.3,49.5,140.1z"/>
		<path class="st4" d="M56.4,141.5c-0.3-0.3-0.4-0.7-0.4-1.3v-3.1h-0.3c-0.1,0-0.2,0-0.2-0.1c0-0.1-0.1-0.2-0.1-0.4v-0.2
			c0-0.2,0-0.3,0.1-0.4c0-0.1,0.1-0.1,0.2-0.1h0.3l0.1-1.1c0-0.2,0.2-0.3,0.5-0.3h0.3c0.3,0,0.5,0.1,0.5,0.3v1.1H58
			c0.1,0,0.2,0,0.2,0.1c0,0.1,0.1,0.2,0.1,0.4v0.2c0,0.2,0,0.3-0.1,0.4c0,0.1-0.1,0.1-0.2,0.1h-0.7v3.1c0,0.2,0,0.4,0.1,0.5
			c0.1,0.1,0.2,0.1,0.4,0.1c0.1,0,0.1,0,0.2,0c0.1,0,0.1,0,0.2,0c0.1,0,0.2,0.1,0.2,0.3c0.1,0.2,0.1,0.3,0.1,0.4
			c0,0.3-0.3,0.5-1,0.5C57.1,141.9,56.7,141.8,56.4,141.5z"/>
		<path class="st4" d="M60.1,141.5c-0.3-0.3-0.4-0.7-0.4-1.3v-3.1h-0.3c-0.1,0-0.2,0-0.2-0.1c0-0.1-0.1-0.2-0.1-0.4v-0.2
			c0-0.2,0-0.3,0.1-0.4c0-0.1,0.1-0.1,0.2-0.1h0.3l0.1-1.1c0-0.2,0.2-0.3,0.5-0.3h0.3c0.3,0,0.5,0.1,0.5,0.3v1.1h0.7
			c0.1,0,0.2,0,0.2,0.1c0,0.1,0.1,0.2,0.1,0.4v0.2c0,0.2,0,0.3-0.1,0.4c0,0.1-0.1,0.1-0.2,0.1h-0.7v3.1c0,0.2,0,0.4,0.1,0.5
			c0.1,0.1,0.2,0.1,0.4,0.1c0.1,0,0.1,0,0.2,0c0.1,0,0.1,0,0.2,0c0.1,0,0.2,0.1,0.2,0.3c0.1,0.2,0.1,0.3,0.1,0.4
			c0,0.3-0.3,0.5-1,0.5C60.8,141.9,60.4,141.8,60.1,141.5z"/>
		<path class="st4" d="M63.7,141.1c-0.5-0.5-0.7-1.3-0.7-2.2c0-1,0.2-1.7,0.7-2.3c0.5-0.5,1.1-0.8,2-0.8c0.9,0,1.5,0.3,2,0.8
			c0.5,0.5,0.7,1.3,0.7,2.3s-0.2,1.7-0.7,2.2s-1.1,0.8-2,0.8C64.8,141.9,64.1,141.6,63.7,141.1z M66.6,140.3
			c0.2-0.3,0.3-0.8,0.3-1.4c0-0.6-0.1-1.1-0.3-1.4c-0.2-0.3-0.5-0.5-0.9-0.5s-0.7,0.2-0.9,0.5c-0.2,0.3-0.3,0.8-0.3,1.4
			c0,0.6,0.1,1.1,0.3,1.4c0.2,0.3,0.5,0.5,0.9,0.5S66.4,140.6,66.6,140.3z"/>
		<path class="st4" d="M69.5,141.5v-3.7c0-0.5,0-0.9-0.1-1.1s-0.1-0.4-0.1-0.4c0-0.1,0.1-0.2,0.4-0.2c0.2-0.1,0.5-0.1,0.7-0.1
			c0.1,0,0.2,0.1,0.3,0.2c0.1,0.1,0.1,0.2,0.1,0.3c0,0.1,0,0.2,0.1,0.2c0.2-0.2,0.4-0.5,0.7-0.6c0.3-0.2,0.6-0.2,1-0.2
			c1.1,0,1.7,0.6,1.7,1.8v3.8c0,0.1,0,0.2-0.1,0.2c-0.1,0.1-0.2,0.1-0.5,0.1h-0.2c-0.4,0-0.6-0.1-0.6-0.3v-3.6
			c0-0.6-0.3-0.8-0.8-0.8c-0.2,0-0.4,0.1-0.6,0.2c-0.2,0.1-0.3,0.3-0.5,0.5v3.8c0,0.2-0.2,0.3-0.6,0.3h-0.2
			C69.7,141.8,69.5,141.7,69.5,141.5z"/>
	</g>
</g>
<g>
	<rect x="133.6" y="131.1" class="st1" width="76" height="16.2"/>
</g>
<g>
	<rect x="244.4" y="131.1" class="st1" width="76" height="16.2"/>
</g>
<g>
	<g>
		<path class="st5" d="M20.9,187.2c-0.1-0.1-0.1-0.2-0.1-0.3v-7.2c0-0.2,0.2-0.3,0.6-0.3h0.3c0.2,0,0.4,0,0.5,0.1
			c0.1,0.1,0.1,0.1,0.1,0.2v6.3h2.7c0.1,0,0.2,0,0.2,0.1c0,0.1,0.1,0.2,0.1,0.4v0.3c0,0.2,0,0.3-0.1,0.4s-0.1,0.1-0.2,0.1h-3.7
			C21,187.3,20.9,187.3,20.9,187.2z"/>
		<path class="st5" d="M25.9,180.2v-0.7c0-0.2,0.2-0.4,0.7-0.4c0.5,0,0.7,0.1,0.7,0.4v0.7c0,0.1-0.1,0.2-0.2,0.3
			c-0.1,0.1-0.3,0.1-0.6,0.1C26.2,180.6,25.9,180.5,25.9,180.2z M26,187v-5.3c0-0.2,0.2-0.3,0.6-0.3h0.2c0.4,0,0.6,0.1,0.6,0.3v5.3
			c0,0.2-0.2,0.3-0.6,0.3h-0.2C26.2,187.3,26,187.2,26,187z"/>
		<path class="st5" d="M28.8,187v-3.7c0-0.5,0-0.9-0.1-1.1c0-0.2-0.1-0.4-0.1-0.4c0-0.1,0.1-0.2,0.4-0.2c0.2-0.1,0.5-0.1,0.7-0.1
			c0.1,0,0.2,0.1,0.3,0.2c0.1,0.1,0.1,0.2,0.1,0.3s0,0.2,0.1,0.2c0.2-0.2,0.4-0.4,0.7-0.6c0.3-0.2,0.6-0.2,1-0.2
			c1.1,0,1.7,0.6,1.7,1.8v3.8c0,0.1,0,0.2-0.1,0.2c-0.1,0.1-0.2,0.1-0.5,0.1h-0.2c-0.4,0-0.6-0.1-0.6-0.3v-3.6
			c0-0.6-0.3-0.8-0.8-0.8c-0.2,0-0.4,0.1-0.6,0.2c-0.2,0.1-0.3,0.3-0.5,0.5v3.8c0,0.2-0.2,0.3-0.6,0.3h-0.2
			C29,187.3,28.8,187.2,28.8,187z"/>
		<path class="st5" d="M39.9,187.2c0,0.1-0.2,0.2-0.6,0.2H39c-0.2,0-0.3,0-0.4,0c-0.1,0-0.2-0.1-0.2-0.2l-1.8-2.6h0v2.5
			c0,0.2-0.2,0.3-0.6,0.3h-0.2c-0.4,0-0.6-0.1-0.6-0.3v-7.9c0-0.2,0.2-0.3,0.6-0.3h0.2c0.4,0,0.6,0.1,0.6,0.3v4.7l0,0l1.6-2.2
			c0.1-0.1,0.1-0.1,0.2-0.2c0.1,0,0.2,0,0.4,0h0.3c0.2,0,0.3,0,0.4,0s0.1,0.1,0.1,0.1c0,0.1,0,0.1-0.1,0.2l-1.7,2.3l2,2.8
			C39.8,187.1,39.9,187.1,39.9,187.2z"/>
		<path class="st5" d="M45.4,187.2c-0.3-0.1-0.5-0.4-0.7-0.6c0,0.2-0.1,0.4-0.1,0.6c0,0.1-0.1,0.2-0.2,0.2c-0.1,0-0.2,0.1-0.4,0.1
			h-0.1c-0.4,0-0.6-0.1-0.6-0.3v-7.9c0-0.2,0.2-0.3,0.6-0.3h0.2c0.4,0,0.6,0.1,0.6,0.3v2.6c0.4-0.3,0.8-0.4,1.3-0.4
			c0.7,0,1.3,0.3,1.7,0.8c0.4,0.5,0.6,1.3,0.6,2.2c0,0.6-0.1,1.2-0.3,1.6c-0.2,0.5-0.4,0.8-0.8,1c-0.3,0.2-0.7,0.4-1.1,0.4
			C45.9,187.4,45.6,187.3,45.4,187.2z M46.7,185.8c0.2-0.3,0.3-0.8,0.3-1.4c0-1.2-0.4-1.8-1.2-1.8c-0.4,0-0.7,0.1-1,0.3v2.7
			c0.2,0.2,0.3,0.4,0.5,0.5c0.2,0.1,0.4,0.2,0.6,0.2C46.2,186.2,46.5,186.1,46.7,185.8z"/>
		<path class="st5" d="M49.5,185.6v-3.8c0-0.1,0-0.2,0.1-0.2c0.1-0.1,0.2-0.1,0.5-0.1h0.2c0.4,0,0.6,0.1,0.6,0.3v3.6
			c0,0.6,0.3,0.8,0.8,0.8c0.2,0,0.4-0.1,0.6-0.2c0.2-0.1,0.3-0.3,0.5-0.5v-3.8c0-0.2,0.2-0.3,0.6-0.3h0.2c0.4,0,0.6,0.1,0.6,0.3v3.7
			c0,0.5,0,0.9,0.1,1.1s0.1,0.4,0.1,0.4c0,0.1-0.1,0.2-0.4,0.2c-0.2,0.1-0.5,0.1-0.7,0.1c-0.1,0-0.2-0.1-0.3-0.2
			c-0.1-0.1-0.1-0.2-0.1-0.4c0-0.1,0-0.2-0.1-0.3c-0.2,0.2-0.5,0.4-0.8,0.6c-0.3,0.2-0.6,0.2-1,0.2
			C50.1,187.4,49.5,186.8,49.5,185.6z"/>
		<path class="st5" d="M56.4,187c-0.3-0.3-0.4-0.7-0.4-1.3v-3.1h-0.3c-0.1,0-0.2,0-0.2-0.1c0-0.1-0.1-0.2-0.1-0.4v-0.2
			c0-0.2,0-0.3,0.1-0.4c0-0.1,0.1-0.1,0.2-0.1h0.3l0.1-1.1c0-0.2,0.2-0.3,0.5-0.3h0.3c0.3,0,0.5,0.1,0.5,0.3v1.1H58
			c0.1,0,0.2,0,0.2,0.1c0,0.1,0.1,0.2,0.1,0.4v0.2c0,0.2,0,0.3-0.1,0.4c0,0.1-0.1,0.1-0.2,0.1h-0.7v3.1c0,0.2,0,0.4,0.1,0.5
			c0.1,0.1,0.2,0.1,0.4,0.1c0.1,0,0.1,0,0.2,0c0.1,0,0.1,0,0.2,0c0.1,0,0.2,0.1,0.2,0.3c0.1,0.2,0.1,0.3,0.1,0.4
			c0,0.3-0.3,0.5-1,0.5C57.1,187.4,56.7,187.3,56.4,187z"/>
		<path class="st5" d="M60.1,187c-0.3-0.3-0.4-0.7-0.4-1.3v-3.1h-0.3c-0.1,0-0.2,0-0.2-0.1c0-0.1-0.1-0.2-0.1-0.4v-0.2
			c0-0.2,0-0.3,0.1-0.4c0-0.1,0.1-0.1,0.2-0.1h0.3l0.1-1.1c0-0.2,0.2-0.3,0.5-0.3h0.3c0.3,0,0.5,0.1,0.5,0.3v1.1h0.7
			c0.1,0,0.2,0,0.2,0.1c0,0.1,0.1,0.2,0.1,0.4v0.2c0,0.2,0,0.3-0.1,0.4c0,0.1-0.1,0.1-0.2,0.1h-0.7v3.1c0,0.2,0,0.4,0.1,0.5
			c0.1,0.1,0.2,0.1,0.4,0.1c0.1,0,0.1,0,0.2,0c0.1,0,0.1,0,0.2,0c0.1,0,0.2,0.1,0.2,0.3c0.1,0.2,0.1,0.3,0.1,0.4
			c0,0.3-0.3,0.5-1,0.5C60.8,187.4,60.4,187.3,60.1,187z"/>
		<path class="st5" d="M63.7,186.6c-0.5-0.5-0.7-1.3-0.7-2.2c0-1,0.2-1.7,0.7-2.2c0.5-0.5,1.1-0.8,2-0.8c0.9,0,1.5,0.3,2,0.8
			s0.7,1.3,0.7,2.2s-0.2,1.7-0.7,2.2s-1.1,0.8-2,0.8C64.8,187.4,64.1,187.1,63.7,186.6z M66.6,185.8c0.2-0.3,0.3-0.8,0.3-1.4
			c0-0.6-0.1-1.1-0.3-1.4c-0.2-0.3-0.5-0.5-0.9-0.5s-0.7,0.2-0.9,0.5s-0.3,0.8-0.3,1.4c0,0.6,0.1,1.1,0.3,1.4s0.5,0.5,0.9,0.5
			S66.4,186.1,66.6,185.8z"/>
		<path class="st5" d="M69.5,187v-3.7c0-0.5,0-0.9-0.1-1.1c0-0.2-0.1-0.4-0.1-0.4c0-0.1,0.1-0.2,0.4-0.2c0.2-0.1,0.5-0.1,0.7-0.1
			c0.1,0,0.2,0.1,0.3,0.2c0.1,0.1,0.1,0.2,0.1,0.3s0,0.2,0.1,0.2c0.2-0.2,0.4-0.4,0.7-0.6c0.3-0.2,0.6-0.2,1-0.2
			c1.1,0,1.7,0.6,1.7,1.8v3.8c0,0.1,0,0.2-0.1,0.2c-0.1,0.1-0.2,0.1-0.5,0.1h-0.2c-0.4,0-0.6-0.1-0.6-0.3v-3.6
			c0-0.6-0.3-0.8-0.8-0.8c-0.2,0-0.4,0.1-0.6,0.2c-0.2,0.1-0.3,0.3-0.5,0.5v3.8c0,0.2-0.2,0.3-0.6,0.3h-0.2
			C69.7,187.3,69.5,187.2,69.5,187z"/>
	</g>
</g>
<g>
	<g>
		<path class="st2" d="M172.2,276.7c-0.1,0-0.1-0.1-0.1-0.2c0,0,0.1-0.5,0.2-1.4c0,0,0.1-0.5,0.3-1.5h-1.2c-0.1,0-0.2,0-0.2-0.1
			c-0.1-0.1-0.1-0.2-0.1-0.4v-0.3c0-0.2,0-0.3,0.1-0.4c0.1-0.1,0.1-0.1,0.2-0.1h1.5l0.4-2.4H172c-0.1,0-0.2,0-0.2-0.1
			c-0.1-0.1-0.1-0.2-0.1-0.4v-0.3c0-0.2,0-0.3,0.1-0.4c0.1-0.1,0.1-0.1,0.2-0.1h1.5l0.5-2.7c0-0.1,0.1-0.2,0.2-0.3
			c0.1-0.1,0.3-0.1,0.5-0.1h0.1c0.3,0,0.4,0.1,0.4,0.2l-0.5,2.8h1.9l0.5-2.7c0-0.1,0.1-0.2,0.2-0.3c0.1-0.1,0.3-0.1,0.5-0.1h0.1
			c0.3,0,0.4,0.1,0.4,0.2l-0.5,2.8h1.1c0.1,0,0.2,0,0.2,0.1s0.1,0.2,0.1,0.4v0.3c0,0.2,0,0.3-0.1,0.4c0,0.1-0.1,0.1-0.2,0.1h-1.3
			l-0.4,2.4h1.2c0.1,0,0.2,0,0.2,0.1s0.1,0.2,0.1,0.4v0.3c0,0.2,0,0.3-0.1,0.4c0,0.1-0.1,0.1-0.2,0.1h-1.5l-0.5,2.8
			c0,0.1-0.1,0.2-0.2,0.3c-0.1,0.1-0.3,0.1-0.5,0.1h-0.1c-0.2,0-0.3,0-0.3-0.1c-0.1,0-0.1-0.1-0.1-0.2c0,0,0.1-0.5,0.2-1.4
			c0,0,0.1-0.5,0.3-1.5h-1.9l-0.5,2.8c0,0.1-0.1,0.2-0.2,0.3c-0.1,0.1-0.3,0.1-0.5,0.1h-0.1C172.4,276.8,172.3,276.8,172.2,276.7z
			 M176,272.4l0.4-2.4h-1.9l-0.4,2.4H176z"/>
		<path class="st2" d="M181.1,275.8c-0.6-0.7-0.9-1.7-0.9-3c0-1.4,0.3-2.7,1-3.8c0.7-1.1,1.4-2,2.3-2.6s1.5-0.9,1.9-0.9
			c0.1,0,0.3,0.1,0.4,0.3c0.1,0.2,0.2,0.4,0.2,0.5c0,0.1,0,0.1-0.1,0.2c-1.1,0.4-1.9,1-2.6,1.8c-0.7,0.7-1.1,1.6-1.4,2.5
			c0.6-0.4,1.3-0.5,2.2-0.5c0.6,0,1.1,0.1,1.5,0.4s0.8,0.6,1.1,1.1c0.3,0.5,0.4,1.1,0.4,1.7c0,0.7-0.2,1.2-0.5,1.8
			c-0.3,0.5-0.7,0.9-1.2,1.2c-0.5,0.3-1.1,0.4-1.8,0.4C182.6,276.9,181.7,276.5,181.1,275.8z M184.7,275.5c0.3-0.2,0.6-0.4,0.8-0.7
			c0.2-0.3,0.3-0.7,0.3-1.2c0-0.7-0.2-1.3-0.6-1.6c-0.4-0.4-0.9-0.5-1.5-0.5c-0.7,0-1.4,0.2-2,0.5c0,0.4-0.1,0.7-0.1,1
			c0,1,0.2,1.7,0.6,2.1c0.4,0.4,0.9,0.6,1.5,0.6C184.1,275.7,184.4,275.6,184.7,275.5z"/>
		<path class="st2" d="M189.7,276.7c-0.1,0-0.2-0.1-0.2-0.2c0,0,0-0.1,0.1-0.2l4.6-9.6h-5c-0.1,0-0.2,0-0.2-0.1
			c-0.1-0.1-0.1-0.2-0.1-0.4v-0.2c0-0.2,0-0.3,0.1-0.4s0.1-0.1,0.2-0.1h6.3c0.1,0,0.1,0.1,0.2,0.3c0.1,0.2,0.1,0.4,0.1,0.5
			c0,0.1,0,0.1,0,0.2l-4.7,10c0,0.1-0.1,0.1-0.2,0.2s-0.2,0.1-0.4,0.1h-0.2C190,276.8,189.8,276.8,189.7,276.7z"/>
		<path class="st2" d="M198.3,275.8c-0.6-0.7-0.9-1.7-0.9-3c0-1.4,0.3-2.7,1-3.8c0.7-1.1,1.4-2,2.3-2.6s1.5-0.9,1.9-0.9
			c0.1,0,0.3,0.1,0.4,0.3c0.1,0.2,0.2,0.4,0.2,0.5c0,0.1,0,0.1-0.1,0.2c-1.1,0.4-1.9,1-2.6,1.8c-0.7,0.7-1.1,1.6-1.4,2.5
			c0.6-0.4,1.3-0.5,2.2-0.5c0.6,0,1.1,0.1,1.5,0.4s0.8,0.6,1.1,1.1c0.3,0.5,0.4,1.1,0.4,1.7c0,0.7-0.2,1.2-0.5,1.8
			c-0.3,0.5-0.7,0.9-1.2,1.2c-0.5,0.3-1.1,0.4-1.8,0.4C199.7,276.9,198.8,276.5,198.3,275.8z M201.8,275.5c0.3-0.2,0.6-0.4,0.8-0.7
			c0.2-0.3,0.3-0.7,0.3-1.2c0-0.7-0.2-1.3-0.6-1.6c-0.4-0.4-0.9-0.5-1.5-0.5c-0.7,0-1.4,0.2-2,0.5c0,0.4-0.1,0.7-0.1,1
			c0,1,0.2,1.7,0.6,2.1c0.4,0.4,0.9,0.6,1.5,0.6C201.2,275.7,201.5,275.6,201.8,275.5z"/>
		<path class="st2" d="M207.3,275.5c-0.8-0.9-1.3-2.4-1.3-4.3c0-3.8,1.7-5.7,5.2-5.7c0.5,0,1,0.1,1.5,0.2c0.5,0.1,0.9,0.2,1.2,0.4
			c0.3,0.1,0.4,0.3,0.4,0.4c0,0.1-0.1,0.3-0.2,0.6c-0.1,0.2-0.2,0.4-0.3,0.4c0,0-0.2-0.1-0.4-0.2c-0.2-0.1-0.5-0.2-0.9-0.4
			c-0.3-0.1-0.7-0.2-1.2-0.2c-1.3,0-2.2,0.4-2.8,1.1c-0.6,0.7-0.9,1.9-0.9,3.4c0,1.5,0.3,2.7,0.9,3.4c0.6,0.7,1.5,1.1,2.8,1.1
			c0.5,0,1-0.1,1.3-0.2c0.4-0.1,0.7-0.3,1.1-0.5c0.1-0.1,0.3-0.1,0.3-0.1c0.1,0,0.2,0.1,0.4,0.4c0.1,0.2,0.2,0.4,0.2,0.5
			c0,0.2-0.2,0.3-0.5,0.5c-0.3,0.2-0.7,0.3-1.2,0.4c-0.5,0.1-1,0.2-1.6,0.2C209.4,276.9,208.1,276.4,207.3,275.5z"/>
		<path class="st2" d="M216.7,276.7c-0.1-0.1-0.1-0.2-0.1-0.4v-10.2c0-0.2,0-0.3,0.1-0.4c0.1-0.1,0.2-0.1,0.4-0.1h2.9
			c1.2,0,2,0.3,2.7,0.8c0.6,0.5,0.9,1.2,0.9,2.1c0,0.5-0.2,1-0.5,1.5c-0.4,0.5-0.8,0.8-1.2,0.9v0.1c0,0,0.2,0,0.6,0.2
			c0.4,0.2,0.8,0.5,1.1,0.9c0.3,0.4,0.5,0.9,0.5,1.5c0,2.1-1.4,3.2-4.2,3.2h-2.8C216.9,276.8,216.8,276.7,216.7,276.7z M219.9,270.4
			c0.6,0,1.2-0.2,1.6-0.5c0.4-0.4,0.6-0.8,0.6-1.3c0-0.6-0.2-1-0.5-1.3c-0.4-0.3-0.9-0.4-1.7-0.4H218v3.6H219.9z M220.3,275.6
			c0.7,0,1.2-0.2,1.6-0.6c0.4-0.4,0.6-0.9,0.6-1.5c0-0.6-0.2-1.1-0.6-1.4c-0.4-0.3-1-0.5-1.8-0.5H218v3.9H220.3z"/>
		<path class="st2" d="M227,276.3c-0.5-0.4-1-1-1.3-1.9c-0.3-0.9-0.5-1.9-0.5-3.2s0.2-2.3,0.5-3.2c0.3-0.9,0.8-1.5,1.3-1.9
			c0.5-0.4,1.2-0.6,1.8-0.6s1.3,0.2,1.8,0.6c0.6,0.4,1,1,1.3,1.9s0.5,1.9,0.5,3.2s-0.2,2.3-0.5,3.2s-0.8,1.5-1.3,1.9
			c-0.6,0.4-1.2,0.6-1.8,0.6S227.5,276.7,227,276.3z M229.9,275.3c0.3-0.3,0.6-0.8,0.8-1.5c0.2-0.7,0.3-1.5,0.3-2.6
			c0-1.1-0.1-1.9-0.3-2.6c-0.2-0.7-0.5-1.2-0.8-1.5c-0.3-0.3-0.7-0.5-1.1-0.5c-0.4,0-0.8,0.2-1.1,0.5c-0.3,0.3-0.6,0.8-0.8,1.5
			s-0.3,1.6-0.3,2.6c0,1.1,0.1,1.9,0.3,2.6s0.5,1.2,0.8,1.5c0.3,0.3,0.7,0.5,1.1,0.5C229.2,275.7,229.6,275.6,229.9,275.3z"/>
	</g>
	<path class="st1" d="M160.5,282.8H141c-0.9,0-1.6-0.7-1.6-1.6v-19.5c0-0.9,0.7-1.6,1.6-1.6h19.5c0.9,0,1.6,0.7,1.6,1.6v19.5
		C162.1,282.1,161.4,282.8,160.5,282.8z"/>
</g>
<g>
	<g>
		<path class="st2" d="M292,276.7c-0.1,0-0.1-0.1-0.1-0.2c0,0,0.1-0.5,0.2-1.4c0,0,0.1-0.5,0.3-1.5h-1.2c-0.1,0-0.2,0-0.2-0.1
			c-0.1-0.1-0.1-0.2-0.1-0.4v-0.3c0-0.2,0-0.3,0.1-0.4c0.1-0.1,0.1-0.1,0.2-0.1h1.5l0.4-2.4h-1.3c-0.1,0-0.2,0-0.2-0.1
			c-0.1-0.1-0.1-0.2-0.1-0.4v-0.3c0-0.2,0-0.3,0.1-0.4c0.1-0.1,0.1-0.1,0.2-0.1h1.5l0.5-2.7c0-0.1,0.1-0.2,0.2-0.3
			c0.1-0.1,0.3-0.1,0.5-0.1h0.1c0.3,0,0.4,0.1,0.4,0.2l-0.5,2.8h1.9l0.5-2.7c0-0.1,0.1-0.2,0.2-0.3c0.1-0.1,0.3-0.1,0.5-0.1h0.1
			c0.3,0,0.4,0.1,0.4,0.2l-0.5,2.8h1.1c0.1,0,0.2,0,0.2,0.1s0.1,0.2,0.1,0.4v0.3c0,0.2,0,0.3-0.1,0.4c0,0.1-0.1,0.1-0.2,0.1h-1.3
			l-0.4,2.4h1.2c0.1,0,0.2,0,0.2,0.1s0.1,0.2,0.1,0.4v0.3c0,0.2,0,0.3-0.1,0.4c0,0.1-0.1,0.1-0.2,0.1h-1.5l-0.5,2.8
			c0,0.1-0.1,0.2-0.2,0.3c-0.1,0.1-0.3,0.1-0.5,0.1h-0.1c-0.2,0-0.3,0-0.3-0.1c-0.1,0-0.1-0.1-0.1-0.2c0,0,0.1-0.5,0.2-1.4
			c0,0,0.1-0.5,0.3-1.5h-1.9l-0.5,2.8c0,0.1-0.1,0.2-0.2,0.3c-0.1,0.1-0.3,0.1-0.5,0.1h-0.1C292.2,276.8,292,276.7,292,276.7z
			 M295.7,272.4l0.4-2.4h-1.9l-0.4,2.4H295.7z"/>
		<path class="st2" d="M299.4,276.5c0-0.1,0-0.1,0-0.2l3.8-10.5c0.1-0.2,0.3-0.3,0.6-0.3h0.5c0.4,0,0.6,0.1,0.6,0.3l3.8,10.5
			c0,0.1,0,0.1,0,0.2c0,0.2-0.2,0.3-0.7,0.3H308c-0.4,0-0.6-0.1-0.6-0.3l-0.9-2.6h-4.7l-0.9,2.6c-0.1,0.2-0.3,0.3-0.6,0.3h-0.1
			C299.6,276.8,299.4,276.7,299.4,276.5z M306,272.7l-1.7-4.8c-0.1-0.2-0.1-0.5-0.2-0.9h0c-0.1,0.4-0.2,0.7-0.2,0.9l-1.7,4.8H306z"
			/>
		<path class="st2" d="M310.5,276.4V266c0-0.2,0-0.3,0.1-0.4c0.1-0.1,0.2-0.1,0.4-0.1h5c0.1,0,0.2,0,0.2,0.1s0.1,0.2,0.1,0.4v0.3
			c0,0.2,0,0.3-0.1,0.4c0,0.1-0.1,0.1-0.2,0.1h-4.1v3.6h3.8c0.1,0,0.2,0,0.2,0.1c0,0.1,0.1,0.2,0.1,0.4v0.3c0,0.2,0,0.3-0.1,0.4
			c0,0.1-0.1,0.1-0.2,0.1h-3.8v4.8c0,0.2-0.2,0.4-0.6,0.4h-0.1C310.7,276.8,310.5,276.6,310.5,276.4z"/>
		<path class="st2" d="M319.2,275.4c-0.8-0.9-1.3-2.4-1.3-4.3c0-3.8,1.7-5.7,5.2-5.7c0.5,0,1,0.1,1.5,0.2c0.5,0.1,0.9,0.2,1.2,0.4
			c0.3,0.1,0.4,0.3,0.4,0.4c0,0.1-0.1,0.3-0.2,0.6c-0.1,0.2-0.2,0.4-0.3,0.4c0,0-0.2-0.1-0.4-0.2c-0.2-0.1-0.5-0.2-0.9-0.4
			c-0.3-0.1-0.7-0.2-1.2-0.2c-1.3,0-2.2,0.4-2.8,1.1c-0.6,0.7-0.9,1.9-0.9,3.4c0,1.5,0.3,2.7,0.9,3.4c0.6,0.7,1.5,1.1,2.8,1.1
			c0.5,0,1-0.1,1.3-0.2c0.4-0.1,0.7-0.3,1.1-0.5c0.1-0.1,0.3-0.1,0.3-0.1c0.1,0,0.2,0.1,0.4,0.4c0.1,0.2,0.2,0.4,0.2,0.5
			c0,0.2-0.2,0.3-0.5,0.5c-0.3,0.2-0.7,0.3-1.2,0.4c-0.5,0.1-1,0.2-1.6,0.2C321.3,276.8,320,276.4,319.2,275.4z"/>
		<path class="st2" d="M328.5,276.4V266c0-0.2,0-0.3,0.1-0.4c0.1-0.1,0.2-0.1,0.4-0.1h5c0.1,0,0.2,0,0.2,0.1s0.1,0.2,0.1,0.4v0.3
			c0,0.2,0,0.3-0.1,0.4c0,0.1-0.1,0.1-0.2,0.1h-4.1v3.6h3.8c0.1,0,0.2,0,0.2,0.1c0,0.1,0.1,0.2,0.1,0.4v0.3c0,0.2,0,0.3-0.1,0.4
			c0,0.1-0.1,0.1-0.2,0.1h-3.8v4.8c0,0.2-0.2,0.4-0.6,0.4h-0.1C328.7,276.8,328.5,276.6,328.5,276.4z"/>
		<path class="st2" d="M337.2,276.4c-0.1-0.2-0.2-0.4-0.2-0.5c0-0.1,0-0.1,0.1-0.2c1.1-0.4,1.9-1,2.6-1.8s1.1-1.6,1.4-2.5
			c-0.6,0.4-1.3,0.5-2.2,0.5c-0.6,0-1.1-0.1-1.5-0.4c-0.5-0.3-0.8-0.6-1.1-1.1c-0.3-0.5-0.4-1.1-0.4-1.7c0-0.7,0.2-1.2,0.5-1.8
			s0.7-0.9,1.2-1.2c0.5-0.3,1.1-0.4,1.8-0.4c1.1,0,2,0.3,2.5,1c0.6,0.7,0.9,1.7,0.9,3c0,1.4-0.3,2.7-1,3.8c-0.7,1.1-1.4,2-2.3,2.6
			c-0.8,0.6-1.5,0.9-1.9,0.9C337.4,276.8,337.3,276.7,337.2,276.4z M341.3,270.3c0-0.4,0.1-0.7,0.1-1c0-1-0.2-1.7-0.6-2.1
			c-0.4-0.4-0.9-0.6-1.5-0.6c-0.3,0-0.6,0.1-0.9,0.2c-0.3,0.2-0.6,0.4-0.8,0.7c-0.2,0.3-0.3,0.7-0.3,1.2c0,0.7,0.2,1.3,0.6,1.6
			c0.4,0.4,0.9,0.5,1.5,0.5C340,270.9,340.7,270.7,341.3,270.3z"/>
		<path class="st2" d="M345.2,276.6c-0.1-0.1-0.1-0.2-0.1-0.4V266c0-0.2,0-0.3,0.1-0.4c0.1-0.1,0.2-0.1,0.4-0.1h3.2
			c1.5,0,2.7,0.4,3.6,1.3c0.9,0.9,1.4,2.3,1.4,4.3c0,2-0.5,3.4-1.4,4.3c-0.9,0.9-2.1,1.3-3.6,1.3h-3.2
			C345.4,276.7,345.3,276.7,345.2,276.6z M348.7,275.5c1.1,0,1.9-0.4,2.6-1.1c0.7-0.7,1-1.8,1-3.3c0-1.5-0.3-2.6-1-3.3
			s-1.5-1.1-2.6-1.1h-2.2v8.8H348.7z"/>
	</g>
	<path class="st5" d="M280.2,282.7h-19.5c-0.9,0-1.6-0.7-1.6-1.6v-19.5c0-0.9,0.7-1.6,1.6-1.6h19.5c0.9,0,1.6,0.7,1.6,1.6v19.5
		C281.8,282,281.1,282.7,280.2,282.7z"/>
</g>
<g>
	<path class="st3" d="M143.9,43c0.2-0.2,0.5-0.2,0.7,0l0.5,0.5c0.2,0.2,0.2,0.5,0,0.7l-3.4,3.4l3.4,3.4c0.2,0.2,0.2,0.5,0,0.7
		l-0.5,0.5c-0.2,0.2-0.5,0.2-0.7,0l-4.3-4.3c-0.2-0.2-0.2-0.5,0-0.7L143.9,43z"/>
</g>
<g>
	<g>
		<path class="st3" d="M245.4,50.7c-0.1-0.1-0.1-0.2-0.1-0.3v-7.2c0-0.2,0.2-0.3,0.6-0.3h0.3c0.2,0,0.4,0,0.5,0.1
			c0.1,0.1,0.1,0.1,0.1,0.2v6.3h2.7c0.1,0,0.2,0,0.2,0.1c0,0.1,0.1,0.2,0.1,0.4v0.3c0,0.2,0,0.3-0.1,0.4s-0.1,0.1-0.2,0.1h-3.7
			C245.6,50.8,245.5,50.8,245.4,50.7z"/>
		<path class="st3" d="M250.6,43.7V43c0-0.2,0.2-0.4,0.7-0.4c0.5,0,0.7,0.1,0.7,0.4v0.7c0,0.1-0.1,0.2-0.2,0.3s-0.3,0.1-0.6,0.1
			C250.8,44.1,250.6,44,250.6,43.7z M250.6,50.5v-5.3c0-0.2,0.2-0.3,0.6-0.3h0.2c0.4,0,0.6,0.1,0.6,0.3v5.3c0,0.2-0.2,0.3-0.6,0.3
			h-0.2C250.8,50.8,250.6,50.7,250.6,50.5z"/>
		<path class="st3" d="M253.6,50.5v-3.7c0-0.5,0-0.9-0.1-1.1s-0.1-0.4-0.1-0.4c0-0.1,0.1-0.2,0.4-0.2c0.2-0.1,0.5-0.1,0.7-0.1
			c0.1,0,0.2,0.1,0.3,0.2c0.1,0.1,0.1,0.2,0.1,0.3c0,0.1,0,0.2,0.1,0.2c0.2-0.2,0.4-0.5,0.7-0.6c0.3-0.2,0.6-0.2,1-0.2
			c1.1,0,1.7,0.6,1.7,1.8v3.8c0,0.1,0,0.2-0.1,0.2s-0.2,0.1-0.5,0.1h-0.2c-0.4,0-0.6-0.1-0.6-0.3v-3.6c0-0.6-0.3-0.8-0.8-0.8
			c-0.2,0-0.4,0.1-0.6,0.2c-0.2,0.1-0.3,0.3-0.5,0.5v3.8c0,0.2-0.2,0.3-0.6,0.3h-0.2C253.8,50.8,253.6,50.7,253.6,50.5z"/>
		<path class="st3" d="M264.8,50.7c0,0.1-0.2,0.2-0.6,0.2h-0.3c-0.2,0-0.3,0-0.4,0c-0.1,0-0.2-0.1-0.2-0.2l-1.8-2.6h0v2.5
			c0,0.2-0.2,0.3-0.6,0.3h-0.2c-0.4,0-0.6-0.1-0.6-0.3v-7.9c0-0.2,0.2-0.3,0.6-0.3h0.2c0.4,0,0.6,0.1,0.6,0.3v4.7l0,0l1.6-2.2
			c0.1-0.1,0.1-0.1,0.2-0.2c0.1,0,0.2,0,0.4,0h0.3c0.2,0,0.3,0,0.4,0c0.1,0,0.1,0.1,0.1,0.1c0,0.1,0,0.1-0.1,0.2l-1.7,2.3l2,2.8
			C264.7,50.5,264.8,50.6,264.8,50.7z"/>
		<path class="st3" d="M270.5,50.7c-0.3-0.1-0.5-0.4-0.7-0.6c0,0.2-0.1,0.4-0.1,0.6c0,0.1-0.1,0.2-0.2,0.2c-0.1,0-0.2,0.1-0.4,0.1
			H269c-0.4,0-0.6-0.1-0.6-0.3v-7.9c0-0.2,0.2-0.3,0.6-0.3h0.2c0.4,0,0.6,0.1,0.6,0.3v2.6c0.4-0.3,0.8-0.4,1.3-0.4
			c0.7,0,1.3,0.3,1.7,0.8c0.4,0.5,0.6,1.3,0.6,2.2c0,0.6-0.1,1.2-0.3,1.6c-0.2,0.5-0.4,0.8-0.8,1c-0.3,0.2-0.7,0.4-1.1,0.4
			C271,50.9,270.7,50.8,270.5,50.7z M271.8,49.2c0.2-0.3,0.3-0.8,0.3-1.4c0-1.2-0.4-1.8-1.2-1.8c-0.4,0-0.7,0.1-1,0.3V49
			c0.2,0.2,0.3,0.4,0.5,0.5c0.2,0.1,0.4,0.2,0.6,0.2C271.3,49.7,271.6,49.6,271.8,49.2z"/>
		<path class="st3" d="M274.8,49.1v-3.8c0-0.1,0-0.2,0.1-0.2c0.1-0.1,0.2-0.1,0.5-0.1h0.2c0.4,0,0.6,0.1,0.6,0.3v3.6
			c0,0.6,0.3,0.8,0.8,0.8c0.2,0,0.4-0.1,0.6-0.2c0.2-0.1,0.3-0.3,0.5-0.5v-3.8c0-0.2,0.2-0.3,0.6-0.3h0.2c0.4,0,0.6,0.1,0.6,0.3v3.7
			c0,0.5,0,0.9,0.1,1.1s0.1,0.4,0.1,0.4c0,0.1-0.1,0.2-0.4,0.2c-0.2,0.1-0.5,0.1-0.7,0.1c-0.1,0-0.2-0.1-0.3-0.2
			c-0.1-0.1-0.1-0.2-0.1-0.4c0-0.1,0-0.2-0.1-0.3c-0.2,0.2-0.5,0.5-0.8,0.6c-0.3,0.2-0.6,0.2-1,0.2
			C275.3,50.9,274.8,50.3,274.8,49.1z"/>
		<path class="st3" d="M281.7,50.5c-0.3-0.3-0.4-0.7-0.4-1.3v-3.1H281c-0.1,0-0.2,0-0.2-0.1c0-0.1-0.1-0.2-0.1-0.4v-0.2
			c0-0.2,0-0.3,0.1-0.4c0-0.1,0.1-0.1,0.2-0.1h0.3l0.1-1.1c0-0.2,0.2-0.3,0.5-0.3h0.3c0.3,0,0.5,0.1,0.5,0.3v1.1h0.7
			c0.1,0,0.2,0,0.2,0.1c0,0.1,0.1,0.2,0.1,0.4v0.2c0,0.2,0,0.3-0.1,0.4c0,0.1-0.1,0.1-0.2,0.1h-0.7v3.1c0,0.2,0,0.4,0.1,0.5
			c0.1,0.1,0.2,0.1,0.4,0.1c0.1,0,0.1,0,0.2,0c0.1,0,0.1,0,0.2,0c0.1,0,0.2,0.1,0.2,0.3c0.1,0.2,0.1,0.3,0.1,0.4
			c0,0.3-0.3,0.5-1,0.5C282.4,50.9,282,50.8,281.7,50.5z"/>
		<path class="st3" d="M285.6,50.5c-0.3-0.3-0.4-0.7-0.4-1.3v-3.1h-0.3c-0.1,0-0.2,0-0.2-0.1c0-0.1-0.1-0.2-0.1-0.4v-0.2
			c0-0.2,0-0.3,0.1-0.4c0-0.1,0.1-0.1,0.2-0.1h0.3l0.1-1.1c0-0.2,0.2-0.3,0.5-0.3h0.3c0.3,0,0.5,0.1,0.5,0.3v1.1h0.7
			c0.1,0,0.2,0,0.2,0.1c0,0.1,0.1,0.2,0.1,0.4v0.2c0,0.2,0,0.3-0.1,0.4c0,0.1-0.1,0.1-0.2,0.1h-0.7v3.1c0,0.2,0,0.4,0.1,0.5
			c0.1,0.1,0.2,0.1,0.4,0.1c0.1,0,0.1,0,0.2,0c0.1,0,0.1,0,0.2,0c0.1,0,0.2,0.1,0.2,0.3c0.1,0.2,0.1,0.3,0.1,0.4
			c0,0.3-0.3,0.5-1,0.5C286.2,50.9,285.8,50.8,285.6,50.5z"/>
		<path class="st3" d="M289.2,50.1c-0.5-0.5-0.7-1.3-0.7-2.2c0-1,0.2-1.7,0.7-2.2c0.5-0.5,1.1-0.8,2-0.8c0.9,0,1.5,0.3,2,0.8
			c0.5,0.5,0.7,1.3,0.7,2.2s-0.2,1.7-0.7,2.2s-1.1,0.8-2,0.8C290.3,50.9,289.7,50.6,289.2,50.1z M292.1,49.3
			c0.2-0.3,0.3-0.8,0.3-1.4c0-0.6-0.1-1.1-0.3-1.4c-0.2-0.3-0.5-0.5-0.9-0.5s-0.7,0.2-0.9,0.5c-0.2,0.3-0.3,0.8-0.3,1.4
			c0,0.6,0.1,1.1,0.3,1.4c0.2,0.3,0.5,0.5,0.9,0.5S291.9,49.6,292.1,49.3z"/>
		<path class="st3" d="M295.2,50.5v-3.7c0-0.5,0-0.9-0.1-1.1s-0.1-0.4-0.1-0.4c0-0.1,0.1-0.2,0.4-0.2c0.2-0.1,0.5-0.1,0.7-0.1
			c0.1,0,0.2,0.1,0.3,0.2c0.1,0.1,0.1,0.2,0.1,0.3c0,0.1,0,0.2,0.1,0.2c0.2-0.2,0.4-0.5,0.7-0.6c0.3-0.2,0.6-0.2,1-0.2
			c1.1,0,1.7,0.6,1.7,1.8v3.8c0,0.1,0,0.2-0.1,0.2s-0.2,0.1-0.5,0.1h-0.2c-0.4,0-0.6-0.1-0.6-0.3v-3.6c0-0.6-0.3-0.8-0.8-0.8
			c-0.2,0-0.4,0.1-0.6,0.2c-0.2,0.1-0.3,0.3-0.5,0.5v3.8c0,0.2-0.2,0.3-0.6,0.3h-0.2C295.4,50.8,295.2,50.7,295.2,50.5z"/>
	</g>
</g>
<g>
	<path class="st3" d="M314.6,47.2c0.2,0.2,0.2,0.5,0,0.7l-4.3,4.3c-0.2,0.2-0.5,0.2-0.7,0l-0.5-0.5c-0.2-0.2-0.2-0.5,0-0.7l3.4-3.4
		l-3.4-3.4c-0.2-0.2-0.2-0.5,0-0.7l0.5-0.5c0.2-0.2,0.5-0.2,0.7,0L314.6,47.2z"/>
</g>
<g>
	<g>
		<g>
			<path class="st1" d="M155.1,96.7c-0.1-0.1-0.1-0.2-0.1-0.3v-7.2c0-0.2,0.2-0.3,0.6-0.3h0.3c0.2,0,0.4,0,0.5,0.1
				c0.1,0.1,0.1,0.1,0.1,0.2v6.3h2.7c0.1,0,0.2,0,0.2,0.1c0,0.1,0.1,0.2,0.1,0.4v0.3c0,0.2,0,0.3-0.1,0.4s-0.1,0.1-0.2,0.1h-3.7
				C155.3,96.8,155.2,96.7,155.1,96.7z"/>
			<path class="st1" d="M160.2,89.7v-0.7c0-0.2,0.2-0.4,0.7-0.4c0.5,0,0.7,0.1,0.7,0.4v0.7c0,0.1-0.1,0.2-0.2,0.3s-0.3,0.1-0.6,0.1
				C160.4,90,160.2,89.9,160.2,89.7z M160.2,96.5v-5.3c0-0.2,0.2-0.3,0.6-0.3h0.2c0.4,0,0.6,0.1,0.6,0.3v5.3c0,0.2-0.2,0.3-0.6,0.3
				h-0.2C160.4,96.8,160.2,96.7,160.2,96.5z"/>
			<path class="st1" d="M163,96.5v-3.7c0-0.5,0-0.9-0.1-1.1s-0.1-0.4-0.1-0.4c0-0.1,0.1-0.2,0.4-0.2c0.2-0.1,0.5-0.1,0.7-0.1
				c0.1,0,0.2,0.1,0.3,0.2c0.1,0.1,0.1,0.2,0.1,0.3c0,0.1,0,0.2,0.1,0.2c0.2-0.2,0.4-0.5,0.7-0.6c0.3-0.2,0.6-0.2,1-0.2
				c1.1,0,1.7,0.6,1.7,1.8v3.8c0,0.1,0,0.2-0.1,0.2s-0.2,0.1-0.5,0.1H167c-0.4,0-0.6-0.1-0.6-0.3v-3.6c0-0.6-0.3-0.8-0.8-0.8
				c-0.2,0-0.4,0.1-0.6,0.2c-0.2,0.1-0.3,0.3-0.5,0.5v3.8c0,0.2-0.2,0.3-0.6,0.3h-0.2C163.2,96.8,163,96.7,163,96.5z"/>
			<path class="st1" d="M174.1,96.6c0,0.1-0.2,0.2-0.6,0.2h-0.3c-0.2,0-0.3,0-0.4,0c-0.1,0-0.2-0.1-0.2-0.2l-1.8-2.6h0v2.5
				c0,0.2-0.2,0.3-0.6,0.3h-0.2c-0.4,0-0.6-0.1-0.6-0.3v-7.9c0-0.2,0.2-0.3,0.6-0.3h0.2c0.4,0,0.6,0.1,0.6,0.3v4.7l0,0l1.6-2.2
				c0.1-0.1,0.1-0.1,0.2-0.2c0.1,0,0.2,0,0.4,0h0.3c0.2,0,0.3,0,0.4,0c0.1,0,0.1,0.1,0.1,0.1c0,0.1,0,0.1-0.1,0.2l-1.7,2.3l2,2.8
				C174.1,96.5,174.1,96.6,174.1,96.6z"/>
			<path class="st1" d="M179.6,96.6c-0.3-0.1-0.5-0.4-0.7-0.6c0,0.2-0.1,0.4-0.1,0.6c0,0.1-0.1,0.2-0.2,0.2c-0.1,0-0.2,0.1-0.4,0.1
				h-0.1c-0.4,0-0.6-0.1-0.6-0.3v-7.9c0-0.2,0.2-0.3,0.6-0.3h0.2c0.4,0,0.6,0.1,0.6,0.3v2.6c0.4-0.3,0.8-0.4,1.3-0.4
				c0.7,0,1.3,0.3,1.7,0.8c0.4,0.5,0.6,1.3,0.6,2.2c0,0.6-0.1,1.2-0.3,1.6c-0.2,0.5-0.4,0.8-0.8,1c-0.3,0.2-0.7,0.4-1.1,0.4
				C180.2,96.8,179.9,96.8,179.6,96.6z M180.9,95.2c0.2-0.3,0.3-0.8,0.3-1.4c0-1.2-0.4-1.8-1.2-1.8c-0.4,0-0.7,0.1-1,0.3V95
				c0.2,0.2,0.3,0.4,0.5,0.5c0.2,0.1,0.4,0.2,0.6,0.2C180.5,95.7,180.7,95.5,180.9,95.2z"/>
			<path class="st1" d="M183.8,95v-3.8c0-0.1,0-0.2,0.1-0.2c0.1-0.1,0.2-0.1,0.5-0.1h0.2c0.4,0,0.6,0.1,0.6,0.3v3.6
				c0,0.6,0.3,0.8,0.8,0.8c0.2,0,0.4-0.1,0.6-0.2c0.2-0.1,0.3-0.3,0.5-0.5v-3.8c0-0.2,0.2-0.3,0.6-0.3h0.2c0.4,0,0.6,0.1,0.6,0.3
				v3.7c0,0.5,0,0.9,0.1,1.1s0.1,0.4,0.1,0.4c0,0.1-0.1,0.2-0.4,0.2c-0.2,0.1-0.5,0.1-0.7,0.1c-0.1,0-0.2-0.1-0.3-0.2
				c-0.1-0.1-0.1-0.2-0.1-0.4c0-0.1,0-0.2-0.1-0.3c-0.2,0.2-0.5,0.5-0.8,0.6c-0.3,0.2-0.6,0.2-1,0.2C184.3,96.8,183.8,96.2,183.8,95
				z"/>
			<path class="st1" d="M190.6,96.4c-0.3-0.3-0.4-0.7-0.4-1.3V92h-0.3c-0.1,0-0.2,0-0.2-0.1c0-0.1-0.1-0.2-0.1-0.4v-0.2
				c0-0.2,0-0.3,0.1-0.4c0-0.1,0.1-0.1,0.2-0.1h0.3l0.1-1.1c0-0.2,0.2-0.3,0.5-0.3h0.3c0.3,0,0.5,0.1,0.5,0.3v1.1h0.7
				c0.1,0,0.2,0,0.2,0.1c0,0.1,0.1,0.2,0.1,0.4v0.2c0,0.2,0,0.3-0.1,0.4c0,0.1-0.1,0.1-0.2,0.1h-0.7v3.1c0,0.2,0,0.4,0.1,0.5
				c0.1,0.1,0.2,0.1,0.4,0.1c0.1,0,0.1,0,0.2,0c0.1,0,0.1,0,0.2,0c0.1,0,0.2,0.1,0.2,0.3c0.1,0.2,0.1,0.3,0.1,0.4
				c0,0.3-0.3,0.5-1,0.5C191.3,96.8,190.9,96.7,190.6,96.4z"/>
			<path class="st1" d="M194.3,96.4c-0.3-0.3-0.4-0.7-0.4-1.3V92h-0.3c-0.1,0-0.2,0-0.2-0.1c0-0.1-0.1-0.2-0.1-0.4v-0.2
				c0-0.2,0-0.3,0.1-0.4c0-0.1,0.1-0.1,0.2-0.1h0.3l0.1-1.1c0-0.2,0.2-0.3,0.5-0.3h0.3c0.3,0,0.5,0.1,0.5,0.3v1.1h0.7
				c0.1,0,0.2,0,0.2,0.1c0,0.1,0.1,0.2,0.1,0.4v0.2c0,0.2,0,0.3-0.1,0.4c0,0.1-0.1,0.1-0.2,0.1h-0.7v3.1c0,0.2,0,0.4,0.1,0.5
				c0.1,0.1,0.2,0.1,0.4,0.1c0.1,0,0.1,0,0.2,0c0.1,0,0.1,0,0.2,0c0.1,0,0.2,0.1,0.2,0.3c0.1,0.2,0.1,0.3,0.1,0.4
				c0,0.3-0.3,0.5-1,0.5C195,96.8,194.6,96.7,194.3,96.4z"/>
			<path class="st1" d="M197.9,96.1c-0.5-0.5-0.7-1.3-0.7-2.2c0-1,0.2-1.7,0.7-2.2c0.5-0.5,1.1-0.8,2-0.8c0.9,0,1.5,0.3,2,0.8
				c0.5,0.5,0.7,1.3,0.7,2.2s-0.2,1.7-0.7,2.2s-1.1,0.8-2,0.8C199,96.8,198.3,96.6,197.9,96.1z M200.8,95.2c0.2-0.3,0.3-0.8,0.3-1.4
				c0-0.6-0.1-1.1-0.3-1.4c-0.2-0.3-0.5-0.5-0.9-0.5s-0.7,0.2-0.9,0.5c-0.2,0.3-0.3,0.8-0.3,1.4c0,0.6,0.1,1.1,0.3,1.4
				c0.2,0.3,0.5,0.5,0.9,0.5S200.6,95.6,200.8,95.2z"/>
			<path class="st1" d="M203.7,96.5v-3.7c0-0.5,0-0.9-0.1-1.1s-0.1-0.4-0.1-0.4c0-0.1,0.1-0.2,0.4-0.2c0.2-0.1,0.5-0.1,0.7-0.1
				c0.1,0,0.2,0.1,0.3,0.2c0.1,0.1,0.1,0.2,0.1,0.3c0,0.1,0,0.2,0.1,0.2c0.2-0.2,0.4-0.5,0.7-0.6c0.3-0.2,0.6-0.2,1-0.2
				c1.1,0,1.7,0.6,1.7,1.8v3.8c0,0.1,0,0.2-0.1,0.2s-0.2,0.1-0.5,0.1h-0.2c-0.4,0-0.6-0.1-0.6-0.3v-3.6c0-0.6-0.3-0.8-0.8-0.8
				c-0.2,0-0.4,0.1-0.6,0.2c-0.2,0.1-0.3,0.3-0.5,0.5v3.8c0,0.2-0.2,0.3-0.6,0.3h-0.2C203.9,96.8,203.7,96.7,203.7,96.5z"/>
		</g>
	</g>
</g>
<g>
	<g>
		<path class="st1" d="M143.9,88.9c0.2-0.2,0.5-0.2,0.7,0l0.5,0.5c0.2,0.2,0.2,0.5,0,0.7l-3.4,3.4l3.4,3.4c0.2,0.2,0.2,0.5,0,0.7
			l-0.5,0.5c-0.2,0.2-0.5,0.2-0.7,0l-4.3-4.3c-0.2-0.2-0.2-0.5,0-0.7L143.9,88.9z"/>
	</g>
</g>
<g>
	<g>
		<g>
			<path class="st1" d="M245.4,96.7c-0.1-0.1-0.1-0.2-0.1-0.3v-7.2c0-0.2,0.2-0.3,0.6-0.3h0.3c0.2,0,0.4,0,0.5,0.1
				c0.1,0.1,0.1,0.1,0.1,0.2v6.3h2.7c0.1,0,0.2,0,0.2,0.1c0,0.1,0.1,0.2,0.1,0.4v0.3c0,0.2,0,0.3-0.1,0.4s-0.1,0.1-0.2,0.1h-3.7
				C245.6,96.8,245.5,96.7,245.4,96.7z"/>
			<path class="st1" d="M250.5,89.7v-0.7c0-0.2,0.2-0.4,0.7-0.4c0.5,0,0.7,0.1,0.7,0.4v0.7c0,0.1-0.1,0.2-0.2,0.3s-0.3,0.1-0.6,0.1
				C250.7,90,250.5,89.9,250.5,89.7z M250.5,96.5v-5.3c0-0.2,0.2-0.3,0.6-0.3h0.2c0.4,0,0.6,0.1,0.6,0.3v5.3c0,0.2-0.2,0.3-0.6,0.3
				h-0.2C250.7,96.8,250.5,96.7,250.5,96.5z"/>
			<path class="st1" d="M253.4,96.5v-3.7c0-0.5,0-0.9-0.1-1.1s-0.1-0.4-0.1-0.4c0-0.1,0.1-0.2,0.4-0.2c0.2-0.1,0.5-0.1,0.7-0.1
				c0.1,0,0.2,0.1,0.3,0.2c0.1,0.1,0.1,0.2,0.1,0.3c0,0.1,0,0.2,0.1,0.2c0.2-0.2,0.4-0.5,0.7-0.6c0.3-0.2,0.6-0.2,1-0.2
				c1.1,0,1.7,0.6,1.7,1.8v3.8c0,0.1,0,0.2-0.1,0.2s-0.2,0.1-0.5,0.1h-0.2c-0.4,0-0.6-0.1-0.6-0.3v-3.6c0-0.6-0.3-0.8-0.8-0.8
				c-0.2,0-0.4,0.1-0.6,0.2c-0.2,0.1-0.3,0.3-0.5,0.5v3.8c0,0.2-0.2,0.3-0.6,0.3H254C253.6,96.8,253.4,96.7,253.4,96.5z"/>
			<path class="st1" d="M264.4,96.6c0,0.1-0.2,0.2-0.6,0.2h-0.3c-0.2,0-0.3,0-0.4,0c-0.1,0-0.2-0.1-0.2-0.2L261,94h0v2.5
				c0,0.2-0.2,0.3-0.6,0.3h-0.2c-0.4,0-0.6-0.1-0.6-0.3v-7.9c0-0.2,0.2-0.3,0.6-0.3h0.2c0.4,0,0.6,0.1,0.6,0.3v4.7l0,0l1.6-2.2
				c0.1-0.1,0.1-0.1,0.2-0.2c0.1,0,0.2,0,0.4,0h0.3c0.2,0,0.3,0,0.4,0c0.1,0,0.1,0.1,0.1,0.1c0,0.1,0,0.1-0.1,0.2l-1.7,2.3l2,2.8
				C264.4,96.5,264.4,96.6,264.4,96.6z"/>
			<path class="st1" d="M269.9,96.6c-0.3-0.1-0.5-0.4-0.7-0.6c0,0.2-0.1,0.4-0.1,0.6c0,0.1-0.1,0.2-0.2,0.2c-0.1,0-0.2,0.1-0.4,0.1
				h-0.1c-0.4,0-0.6-0.1-0.6-0.3v-7.9c0-0.2,0.2-0.3,0.6-0.3h0.2c0.4,0,0.6,0.1,0.6,0.3v2.6c0.4-0.3,0.8-0.4,1.3-0.4
				c0.7,0,1.3,0.3,1.7,0.8c0.4,0.5,0.6,1.3,0.6,2.2c0,0.6-0.1,1.2-0.3,1.6c-0.2,0.5-0.4,0.8-0.8,1c-0.3,0.2-0.7,0.4-1.1,0.4
				C270.5,96.8,270.2,96.8,269.9,96.6z M271.2,95.2c0.2-0.3,0.3-0.8,0.3-1.4c0-1.2-0.4-1.8-1.2-1.8c-0.4,0-0.7,0.1-1,0.3V95
				c0.2,0.2,0.3,0.4,0.5,0.5c0.2,0.1,0.4,0.2,0.6,0.2C270.8,95.7,271,95.5,271.2,95.2z"/>
			<path class="st1" d="M274.1,95v-3.8c0-0.1,0-0.2,0.1-0.2c0.1-0.1,0.2-0.1,0.5-0.1h0.2c0.4,0,0.6,0.1,0.6,0.3v3.6
				c0,0.6,0.3,0.8,0.8,0.8c0.2,0,0.4-0.1,0.6-0.2c0.2-0.1,0.3-0.3,0.5-0.5v-3.8c0-0.2,0.2-0.3,0.6-0.3h0.2c0.4,0,0.6,0.1,0.6,0.3
				v3.7c0,0.5,0,0.9,0.1,1.1s0.1,0.4,0.1,0.4c0,0.1-0.1,0.2-0.4,0.2c-0.2,0.1-0.5,0.1-0.7,0.1c-0.1,0-0.2-0.1-0.3-0.2
				c-0.1-0.1-0.1-0.2-0.1-0.4c0-0.1,0-0.2-0.1-0.3c-0.2,0.2-0.5,0.5-0.8,0.6c-0.3,0.2-0.6,0.2-1,0.2C274.7,96.8,274.1,96.2,274.1,95
				z"/>
			<path class="st1" d="M280.9,96.4c-0.3-0.3-0.4-0.7-0.4-1.3V92h-0.3c-0.1,0-0.2,0-0.2-0.1c0-0.1-0.1-0.2-0.1-0.4v-0.2
				c0-0.2,0-0.3,0.1-0.4c0-0.1,0.1-0.1,0.2-0.1h0.3l0.1-1.1c0-0.2,0.2-0.3,0.5-0.3h0.3c0.3,0,0.5,0.1,0.5,0.3v1.1h0.7
				c0.1,0,0.2,0,0.2,0.1c0,0.1,0.1,0.2,0.1,0.4v0.2c0,0.2,0,0.3-0.1,0.4c0,0.1-0.1,0.1-0.2,0.1h-0.7v3.1c0,0.2,0,0.4,0.1,0.5
				c0.1,0.1,0.2,0.1,0.4,0.1c0.1,0,0.1,0,0.2,0c0.1,0,0.1,0,0.2,0c0.1,0,0.2,0.1,0.2,0.3c0.1,0.2,0.1,0.3,0.1,0.4
				c0,0.3-0.3,0.5-1,0.5C281.6,96.8,281.2,96.7,280.9,96.4z"/>
			<path class="st1" d="M284.7,96.4c-0.3-0.3-0.4-0.7-0.4-1.3V92h-0.3c-0.1,0-0.2,0-0.2-0.1c0-0.1-0.1-0.2-0.1-0.4v-0.2
				c0-0.2,0-0.3,0.1-0.4c0-0.1,0.1-0.1,0.2-0.1h0.3l0.1-1.1c0-0.2,0.2-0.3,0.5-0.3h0.3c0.3,0,0.5,0.1,0.5,0.3v1.1h0.7
				c0.1,0,0.2,0,0.2,0.1c0,0.1,0.1,0.2,0.1,0.4v0.2c0,0.2,0,0.3-0.1,0.4c0,0.1-0.1,0.1-0.2,0.1h-0.7v3.1c0,0.2,0,0.4,0.1,0.5
				c0.1,0.1,0.2,0.1,0.4,0.1c0.1,0,0.1,0,0.2,0c0.1,0,0.1,0,0.2,0c0.1,0,0.2,0.1,0.2,0.3c0.1,0.2,0.1,0.3,0.1,0.4
				c0,0.3-0.3,0.5-1,0.5C285.3,96.8,284.9,96.7,284.7,96.4z"/>
			<path class="st1" d="M288.2,96.1c-0.5-0.5-0.7-1.3-0.7-2.2c0-1,0.2-1.7,0.7-2.2c0.5-0.5,1.1-0.8,2-0.8c0.9,0,1.5,0.3,2,0.8
				c0.5,0.5,0.7,1.3,0.7,2.2s-0.2,1.7-0.7,2.2s-1.1,0.8-2,0.8C289.3,96.8,288.7,96.6,288.2,96.1z M291.1,95.2
				c0.2-0.3,0.3-0.8,0.3-1.4c0-0.6-0.1-1.1-0.3-1.4c-0.2-0.3-0.5-0.5-0.9-0.5s-0.7,0.2-0.9,0.5c-0.2,0.3-0.3,0.8-0.3,1.4
				c0,0.6,0.1,1.1,0.3,1.4c0.2,0.3,0.5,0.5,0.9,0.5S290.9,95.5,291.1,95.2z"/>
			<path class="st1" d="M294.1,96.5v-3.7c0-0.5,0-0.9-0.1-1.1s-0.1-0.4-0.1-0.4c0-0.1,0.1-0.2,0.4-0.2c0.2-0.1,0.5-0.1,0.7-0.1
				c0.1,0,0.2,0.1,0.3,0.2c0.1,0.1,0.1,0.2,0.1,0.3c0,0.1,0,0.2,0.1,0.2c0.2-0.2,0.4-0.5,0.7-0.6c0.3-0.2,0.6-0.2,1-0.2
				c1.1,0,1.7,0.6,1.7,1.8v3.8c0,0.1,0,0.2-0.1,0.2s-0.2,0.1-0.5,0.1H298c-0.4,0-0.6-0.1-0.6-0.3v-3.6c0-0.6-0.3-0.8-0.8-0.8
				c-0.2,0-0.4,0.1-0.6,0.2c-0.2,0.1-0.3,0.3-0.5,0.5v3.8c0,0.2-0.2,0.3-0.6,0.3h-0.2C294.3,96.8,294.1,96.7,294.1,96.5z"/>
		</g>
	</g>
</g>
<g>
	<g>
		<path class="st1" d="M314.6,93.2c0.2,0.2,0.2,0.5,0,0.7l-4.3,4.3c-0.2,0.2-0.5,0.2-0.7,0l-0.5-0.5c-0.2-0.2-0.2-0.5,0-0.7l3.4-3.4
			l-3.4-3.4c-0.2-0.2-0.2-0.5,0-0.7l0.5-0.5c0.2-0.2,0.5-0.2,0.7,0L314.6,93.2z"/>
	</g>
</g>
<g>
	<g>
		<g>
			<path class="st4" d="M155.1,141.9c-0.1-0.1-0.1-0.2-0.1-0.3v-7.2c0-0.2,0.2-0.3,0.6-0.3h0.3c0.2,0,0.4,0,0.5,0.1
				c0.1,0.1,0.1,0.1,0.1,0.2v6.3h2.7c0.1,0,0.2,0,0.2,0.1c0,0.1,0.1,0.2,0.1,0.4v0.3c0,0.2,0,0.3-0.1,0.4c0,0.1-0.1,0.1-0.2,0.1
				h-3.7C155.3,142,155.2,142,155.1,141.9z"/>
			<path class="st4" d="M160.2,134.9v-0.7c0-0.2,0.2-0.4,0.7-0.4c0.5,0,0.7,0.1,0.7,0.4v0.7c0,0.1-0.1,0.2-0.2,0.3s-0.3,0.1-0.6,0.1
				C160.4,135.3,160.2,135.2,160.2,134.9z M160.2,141.7v-5.3c0-0.2,0.2-0.3,0.6-0.3h0.2c0.4,0,0.6,0.1,0.6,0.3v5.3
				c0,0.2-0.2,0.3-0.6,0.3h-0.2C160.4,142.1,160.2,142,160.2,141.7z"/>
			<path class="st4" d="M163,141.7V138c0-0.5,0-0.9-0.1-1.1s-0.1-0.4-0.1-0.4c0-0.1,0.1-0.2,0.4-0.2c0.2-0.1,0.5-0.1,0.7-0.1
				c0.1,0,0.2,0.1,0.3,0.2c0.1,0.1,0.1,0.2,0.1,0.3c0,0.1,0,0.2,0.1,0.2c0.2-0.2,0.4-0.5,0.7-0.6c0.3-0.2,0.6-0.2,1-0.2
				c1.1,0,1.7,0.6,1.7,1.8v3.8c0,0.1,0,0.2-0.1,0.2c-0.1,0.1-0.2,0.1-0.5,0.1H167c-0.4,0-0.6-0.1-0.6-0.3v-3.6
				c0-0.6-0.3-0.8-0.8-0.8c-0.2,0-0.4,0.1-0.6,0.2s-0.3,0.3-0.5,0.5v3.8c0,0.2-0.2,0.3-0.6,0.3h-0.2C163.2,142.1,163,142,163,141.7z
				"/>
			<path class="st4" d="M174.1,141.9c0,0.1-0.2,0.2-0.6,0.2h-0.3c-0.2,0-0.3,0-0.4,0c-0.1,0-0.2-0.1-0.2-0.2l-1.8-2.6h0v2.5
				c0,0.2-0.2,0.3-0.6,0.3h-0.2c-0.4,0-0.6-0.1-0.6-0.3v-7.9c0-0.2,0.2-0.3,0.6-0.3h0.2c0.4,0,0.6,0.1,0.6,0.3v4.7l0,0l1.6-2.2
				c0.1-0.1,0.1-0.1,0.2-0.2c0.1,0,0.2,0,0.4,0h0.3c0.2,0,0.3,0,0.4,0c0.1,0,0.1,0.1,0.1,0.1c0,0.1,0,0.1-0.1,0.2l-1.7,2.3l2,2.8
				C174.1,141.8,174.1,141.8,174.1,141.9z"/>
			<path class="st4" d="M179.6,141.9c-0.3-0.2-0.5-0.4-0.7-0.6c0,0.2-0.1,0.4-0.1,0.6c0,0.1-0.1,0.2-0.2,0.2c-0.1,0-0.2,0.1-0.4,0.1
				h-0.1c-0.4,0-0.6-0.1-0.6-0.3v-7.9c0-0.2,0.2-0.3,0.6-0.3h0.2c0.4,0,0.6,0.1,0.6,0.3v2.6c0.4-0.3,0.8-0.4,1.3-0.4
				c0.7,0,1.3,0.3,1.7,0.8c0.4,0.5,0.6,1.3,0.6,2.2c0,0.6-0.1,1.2-0.3,1.6c-0.2,0.5-0.4,0.8-0.8,1c-0.3,0.2-0.7,0.4-1.1,0.4
				C180.2,142.1,179.9,142,179.6,141.9z M180.9,140.5c0.2-0.3,0.3-0.8,0.3-1.4c0-1.2-0.4-1.8-1.2-1.8c-0.4,0-0.7,0.1-1,0.3v2.7
				c0.2,0.2,0.3,0.4,0.5,0.5c0.2,0.1,0.4,0.2,0.6,0.2C180.5,140.9,180.7,140.8,180.9,140.5z"/>
			<path class="st4" d="M183.8,140.3v-3.8c0-0.1,0-0.2,0.1-0.2c0.1-0.1,0.2-0.1,0.5-0.1h0.2c0.4,0,0.6,0.1,0.6,0.3v3.6
				c0,0.6,0.3,0.8,0.8,0.8c0.2,0,0.4-0.1,0.6-0.2c0.2-0.1,0.3-0.3,0.5-0.5v-3.8c0-0.2,0.2-0.3,0.6-0.3h0.2c0.4,0,0.6,0.1,0.6,0.3
				v3.7c0,0.5,0,0.9,0.1,1.1s0.1,0.4,0.1,0.4c0,0.1-0.1,0.2-0.4,0.2c-0.2,0.1-0.5,0.1-0.7,0.1c-0.1,0-0.2-0.1-0.3-0.2
				c-0.1-0.1-0.1-0.2-0.1-0.4c0-0.1,0-0.2-0.1-0.3c-0.2,0.2-0.5,0.5-0.8,0.6c-0.3,0.2-0.6,0.2-1,0.2
				C184.3,142.1,183.8,141.5,183.8,140.3z"/>
			<path class="st4" d="M190.6,141.7c-0.3-0.3-0.4-0.7-0.4-1.3v-3.1h-0.3c-0.1,0-0.2,0-0.2-0.1s-0.1-0.2-0.1-0.4v-0.2
				c0-0.2,0-0.3,0.1-0.4c0-0.1,0.1-0.1,0.2-0.1h0.3l0.1-1.1c0-0.2,0.2-0.3,0.5-0.3h0.3c0.3,0,0.5,0.1,0.5,0.3v1.1h0.7
				c0.1,0,0.2,0,0.2,0.1c0,0.1,0.1,0.2,0.1,0.4v0.2c0,0.2,0,0.3-0.1,0.4s-0.1,0.1-0.2,0.1h-0.7v3.1c0,0.2,0,0.4,0.1,0.5
				c0.1,0.1,0.2,0.1,0.4,0.1c0.1,0,0.1,0,0.2,0c0.1,0,0.1,0,0.2,0c0.1,0,0.2,0.1,0.2,0.3c0.1,0.2,0.1,0.3,0.1,0.4
				c0,0.3-0.3,0.5-1,0.5C191.3,142.1,190.9,142,190.6,141.7z"/>
			<path class="st4" d="M194.3,141.7c-0.3-0.3-0.4-0.7-0.4-1.3v-3.1h-0.3c-0.1,0-0.2,0-0.2-0.1s-0.1-0.2-0.1-0.4v-0.2
				c0-0.2,0-0.3,0.1-0.4c0-0.1,0.1-0.1,0.2-0.1h0.3l0.1-1.1c0-0.2,0.2-0.3,0.5-0.3h0.3c0.3,0,0.5,0.1,0.5,0.3v1.1h0.7
				c0.1,0,0.2,0,0.2,0.1c0,0.1,0.1,0.2,0.1,0.4v0.2c0,0.2,0,0.3-0.1,0.4s-0.1,0.1-0.2,0.1h-0.7v3.1c0,0.2,0,0.4,0.1,0.5
				c0.1,0.1,0.2,0.1,0.4,0.1c0.1,0,0.1,0,0.2,0c0.1,0,0.1,0,0.2,0c0.1,0,0.2,0.1,0.2,0.3c0.1,0.2,0.1,0.3,0.1,0.4
				c0,0.3-0.3,0.5-1,0.5C195,142.1,194.6,142,194.3,141.7z"/>
			<path class="st4" d="M197.9,141.3c-0.5-0.5-0.7-1.3-0.7-2.2c0-1,0.2-1.7,0.7-2.2c0.5-0.5,1.1-0.8,2-0.8c0.9,0,1.5,0.3,2,0.8
				s0.7,1.3,0.7,2.2s-0.2,1.7-0.7,2.2s-1.1,0.8-2,0.8C199,142.1,198.3,141.9,197.9,141.3z M200.8,140.5c0.2-0.3,0.3-0.8,0.3-1.4
				c0-0.6-0.1-1.1-0.3-1.4c-0.2-0.3-0.5-0.5-0.9-0.5s-0.7,0.2-0.9,0.5s-0.3,0.8-0.3,1.4c0,0.6,0.1,1.1,0.3,1.4s0.5,0.5,0.9,0.5
				S200.6,140.8,200.8,140.5z"/>
			<path class="st4" d="M203.7,141.7V138c0-0.5,0-0.9-0.1-1.1s-0.1-0.4-0.1-0.4c0-0.1,0.1-0.2,0.4-0.2c0.2-0.1,0.5-0.1,0.7-0.1
				c0.1,0,0.2,0.1,0.3,0.2c0.1,0.1,0.1,0.2,0.1,0.3c0,0.1,0,0.2,0.1,0.2c0.2-0.2,0.4-0.5,0.7-0.6c0.3-0.2,0.6-0.2,1-0.2
				c1.1,0,1.7,0.6,1.7,1.8v3.8c0,0.1,0,0.2-0.1,0.2c-0.1,0.1-0.2,0.1-0.5,0.1h-0.2c-0.4,0-0.6-0.1-0.6-0.3v-3.6
				c0-0.6-0.3-0.8-0.8-0.8c-0.2,0-0.4,0.1-0.6,0.2s-0.3,0.3-0.5,0.5v3.8c0,0.2-0.2,0.3-0.6,0.3h-0.2
				C203.9,142.1,203.7,142,203.7,141.7z"/>
		</g>
	</g>
</g>
<g>
	<path class="st4" d="M143.9,134.2c0.2-0.2,0.5-0.2,0.7,0l0.5,0.5c0.2,0.2,0.2,0.5,0,0.7l-3.4,3.4l3.4,3.4c0.2,0.2,0.2,0.5,0,0.7
		l-0.5,0.5c-0.2,0.2-0.5,0.2-0.7,0l-4.3-4.3c-0.2-0.2-0.2-0.5,0-0.7L143.9,134.2z"/>
</g>
<g>
	<g>
		<g>
			<path class="st4" d="M245.4,141.9c-0.1-0.1-0.1-0.2-0.1-0.3v-7.2c0-0.2,0.2-0.3,0.6-0.3h0.3c0.2,0,0.4,0,0.5,0.1
				c0.1,0.1,0.1,0.1,0.1,0.2v6.3h2.7c0.1,0,0.2,0,0.2,0.1s0.1,0.2,0.1,0.4v0.3c0,0.2,0,0.3-0.1,0.4c0,0.1-0.1,0.1-0.2,0.1h-3.7
				C245.6,142,245.5,142,245.4,141.9z"/>
			<path class="st4" d="M250.5,134.9v-0.7c0-0.2,0.2-0.4,0.7-0.4c0.5,0,0.7,0.1,0.7,0.4v0.7c0,0.1-0.1,0.2-0.2,0.3s-0.3,0.1-0.6,0.1
				C250.7,135.3,250.5,135.2,250.5,134.9z M250.5,141.7v-5.3c0-0.2,0.2-0.3,0.6-0.3h0.2c0.4,0,0.6,0.1,0.6,0.3v5.3
				c0,0.2-0.2,0.3-0.6,0.3h-0.2C250.7,142.1,250.5,141.9,250.5,141.7z"/>
			<path class="st4" d="M253.4,141.7V138c0-0.5,0-0.9-0.1-1.1c0-0.2-0.1-0.4-0.1-0.4c0-0.1,0.1-0.2,0.4-0.2c0.2-0.1,0.5-0.1,0.7-0.1
				c0.1,0,0.2,0.1,0.3,0.2c0.1,0.1,0.1,0.2,0.1,0.3c0,0.1,0,0.2,0.1,0.2c0.2-0.2,0.4-0.5,0.7-0.6c0.3-0.2,0.6-0.2,1-0.2
				c1.1,0,1.7,0.6,1.7,1.8v3.8c0,0.1,0,0.2-0.1,0.2c-0.1,0.1-0.2,0.1-0.5,0.1h-0.2c-0.4,0-0.6-0.1-0.6-0.3v-3.6
				c0-0.6-0.3-0.8-0.8-0.8c-0.2,0-0.4,0.1-0.6,0.2c-0.2,0.1-0.3,0.3-0.5,0.5v3.8c0,0.2-0.2,0.3-0.6,0.3H254
				C253.6,142.1,253.4,141.9,253.4,141.7z"/>
			<path class="st4" d="M264.4,141.9c0,0.1-0.2,0.2-0.6,0.2h-0.3c-0.2,0-0.3,0-0.4,0c-0.1,0-0.2-0.1-0.2-0.2l-1.8-2.6h0v2.5
				c0,0.2-0.2,0.3-0.6,0.3h-0.2c-0.4,0-0.6-0.1-0.6-0.3v-7.9c0-0.2,0.2-0.3,0.6-0.3h0.2c0.4,0,0.6,0.1,0.6,0.3v4.7l0,0l1.6-2.2
				c0.1-0.1,0.1-0.1,0.2-0.2c0.1,0,0.2,0,0.4,0h0.3c0.2,0,0.3,0,0.4,0c0.1,0,0.1,0.1,0.1,0.1c0,0.1,0,0.1-0.1,0.2l-1.7,2.3l2,2.8
				C264.4,141.8,264.4,141.8,264.4,141.9z"/>
			<path class="st4" d="M269.9,141.9c-0.3-0.1-0.5-0.4-0.7-0.6c0,0.2-0.1,0.4-0.1,0.6c0,0.1-0.1,0.2-0.2,0.2c-0.1,0-0.2,0.1-0.4,0.1
				h-0.1c-0.4,0-0.6-0.1-0.6-0.3v-7.9c0-0.2,0.2-0.3,0.6-0.3h0.2c0.4,0,0.6,0.1,0.6,0.3v2.6c0.4-0.3,0.8-0.4,1.3-0.4
				c0.7,0,1.3,0.3,1.7,0.8c0.4,0.5,0.6,1.3,0.6,2.2c0,0.6-0.1,1.2-0.3,1.6c-0.2,0.5-0.4,0.8-0.8,1c-0.3,0.2-0.7,0.4-1.1,0.4
				C270.5,142.1,270.2,142,269.9,141.9z M271.2,140.5c0.2-0.3,0.3-0.8,0.3-1.4c0-1.2-0.4-1.8-1.2-1.8c-0.4,0-0.7,0.1-1,0.3v2.7
				c0.2,0.2,0.3,0.4,0.5,0.5c0.2,0.1,0.4,0.2,0.6,0.2C270.8,140.9,271,140.8,271.2,140.5z"/>
			<path class="st4" d="M274.1,140.3v-3.8c0-0.1,0-0.2,0.1-0.2c0.1-0.1,0.2-0.1,0.5-0.1h0.2c0.4,0,0.6,0.1,0.6,0.3v3.6
				c0,0.6,0.3,0.8,0.8,0.8c0.2,0,0.4-0.1,0.6-0.2c0.2-0.1,0.3-0.3,0.5-0.5v-3.8c0-0.2,0.2-0.3,0.6-0.3h0.2c0.4,0,0.6,0.1,0.6,0.3
				v3.7c0,0.5,0,0.9,0.1,1.1s0.1,0.4,0.1,0.4c0,0.1-0.1,0.2-0.4,0.2c-0.2,0.1-0.5,0.1-0.7,0.1c-0.1,0-0.2-0.1-0.3-0.2
				c-0.1-0.1-0.1-0.2-0.1-0.4s0-0.2-0.1-0.3c-0.2,0.2-0.5,0.5-0.8,0.6s-0.6,0.2-1,0.2C274.7,142.1,274.1,141.5,274.1,140.3z"/>
			<path class="st4" d="M280.9,141.7c-0.3-0.3-0.4-0.7-0.4-1.3v-3.1h-0.3c-0.1,0-0.2,0-0.2-0.1c0-0.1-0.1-0.2-0.1-0.4v-0.2
				c0-0.2,0-0.3,0.1-0.4c0-0.1,0.1-0.1,0.2-0.1h0.3l0.1-1.1c0-0.2,0.2-0.3,0.5-0.3h0.3c0.3,0,0.5,0.1,0.5,0.3v1.1h0.7
				c0.1,0,0.2,0,0.2,0.1c0,0.1,0.1,0.2,0.1,0.4v0.2c0,0.2,0,0.3-0.1,0.4c0,0.1-0.1,0.1-0.2,0.1h-0.7v3.1c0,0.2,0,0.4,0.1,0.5
				c0.1,0.1,0.2,0.1,0.4,0.1c0.1,0,0.1,0,0.2,0c0.1,0,0.1,0,0.2,0c0.1,0,0.2,0.1,0.2,0.3c0.1,0.2,0.1,0.3,0.1,0.4
				c0,0.3-0.3,0.5-1,0.5C281.6,142.1,281.2,142,280.9,141.7z"/>
			<path class="st4" d="M284.7,141.7c-0.3-0.3-0.4-0.7-0.4-1.3v-3.1h-0.3c-0.1,0-0.2,0-0.2-0.1c0-0.1-0.1-0.2-0.1-0.4v-0.2
				c0-0.2,0-0.3,0.1-0.4c0-0.1,0.1-0.1,0.2-0.1h0.3l0.1-1.1c0-0.2,0.2-0.3,0.5-0.3h0.3c0.3,0,0.5,0.1,0.5,0.3v1.1h0.7
				c0.1,0,0.2,0,0.2,0.1c0,0.1,0.1,0.2,0.1,0.4v0.2c0,0.2,0,0.3-0.1,0.4c0,0.1-0.1,0.1-0.2,0.1h-0.7v3.1c0,0.2,0,0.4,0.1,0.5
				c0.1,0.1,0.2,0.1,0.4,0.1c0.1,0,0.1,0,0.2,0c0.1,0,0.1,0,0.2,0c0.1,0,0.2,0.1,0.2,0.3c0.1,0.2,0.1,0.3,0.1,0.4
				c0,0.3-0.3,0.5-1,0.5C285.3,142.1,284.9,142,284.7,141.7z"/>
			<path class="st4" d="M288.2,141.3c-0.5-0.5-0.7-1.3-0.7-2.2c0-1,0.2-1.7,0.7-2.3c0.5-0.5,1.1-0.8,2-0.8c0.9,0,1.5,0.3,2,0.8
				c0.5,0.5,0.7,1.3,0.7,2.3s-0.2,1.7-0.7,2.2s-1.1,0.8-2,0.8C289.3,142.1,288.7,141.9,288.2,141.3z M291.1,140.5
				c0.2-0.3,0.3-0.8,0.3-1.4c0-0.6-0.1-1.1-0.3-1.4c-0.2-0.3-0.5-0.5-0.9-0.5s-0.7,0.2-0.9,0.5c-0.2,0.3-0.3,0.8-0.3,1.4
				c0,0.6,0.1,1.1,0.3,1.4c0.2,0.3,0.5,0.5,0.9,0.5S290.9,140.8,291.1,140.5z"/>
			<path class="st4" d="M294.1,141.7V138c0-0.5,0-0.9-0.1-1.1c0-0.2-0.1-0.4-0.1-0.4c0-0.1,0.1-0.2,0.4-0.2c0.2-0.1,0.5-0.1,0.7-0.1
				c0.1,0,0.2,0.1,0.3,0.2c0.1,0.1,0.1,0.2,0.1,0.3c0,0.1,0,0.2,0.1,0.2c0.2-0.2,0.4-0.5,0.7-0.6c0.3-0.2,0.6-0.2,1-0.2
				c1.1,0,1.7,0.6,1.7,1.8v3.8c0,0.1,0,0.2-0.1,0.2c-0.1,0.1-0.2,0.1-0.5,0.1H298c-0.4,0-0.6-0.1-0.6-0.3v-3.6
				c0-0.6-0.3-0.8-0.8-0.8c-0.2,0-0.4,0.1-0.6,0.2c-0.2,0.1-0.3,0.3-0.5,0.5v3.8c0,0.2-0.2,0.3-0.6,0.3h-0.2
				C294.3,142.1,294.1,141.9,294.1,141.7z"/>
		</g>
	</g>
</g>
<g>
	<g>
		<path class="st4" d="M314.6,138.5c0.2,0.2,0.2,0.5,0,0.7l-4.3,4.3c-0.2,0.2-0.5,0.2-0.7,0l-0.5-0.5c-0.2-0.2-0.2-0.5,0-0.7
			l3.4-3.4l-3.4-3.4c-0.2-0.2-0.2-0.5,0-0.7l0.5-0.5c0.2-0.2,0.5-0.2,0.7,0L314.6,138.5z"/>
	</g>
</g>
<g>
	<g>
		<g>
			<path class="st5" d="M155.1,187.4c-0.1-0.1-0.1-0.2-0.1-0.3V180c0-0.2,0.2-0.3,0.6-0.3h0.3c0.2,0,0.4,0,0.5,0.1
				c0.1,0.1,0.1,0.1,0.1,0.2v6.3h2.7c0.1,0,0.2,0,0.2,0.1c0,0.1,0.1,0.2,0.1,0.4v0.3c0,0.2,0,0.3-0.1,0.4s-0.1,0.1-0.2,0.1h-3.7
				C155.3,187.5,155.2,187.5,155.1,187.4z"/>
			<path class="st5" d="M160.2,180.4v-0.7c0-0.2,0.2-0.4,0.7-0.4c0.5,0,0.7,0.1,0.7,0.4v0.7c0,0.1-0.1,0.2-0.2,0.3
				c-0.1,0.1-0.3,0.1-0.6,0.1C160.4,180.8,160.2,180.7,160.2,180.4z M160.2,187.2V182c0-0.2,0.2-0.3,0.6-0.3h0.2
				c0.4,0,0.6,0.1,0.6,0.3v5.3c0,0.2-0.2,0.3-0.6,0.3h-0.2C160.4,187.6,160.2,187.4,160.2,187.2z"/>
			<path class="st5" d="M163,187.2v-3.7c0-0.5,0-0.9-0.1-1.1c0-0.2-0.1-0.4-0.1-0.4c0-0.1,0.1-0.2,0.4-0.2c0.2-0.1,0.5-0.1,0.7-0.1
				c0.1,0,0.2,0.1,0.3,0.2c0.1,0.1,0.1,0.2,0.1,0.3s0,0.2,0.1,0.2c0.2-0.2,0.4-0.4,0.7-0.6c0.3-0.2,0.6-0.2,1-0.2
				c1.1,0,1.7,0.6,1.7,1.8v3.8c0,0.1,0,0.2-0.1,0.2c-0.1,0.1-0.2,0.1-0.5,0.1H167c-0.4,0-0.6-0.1-0.6-0.3v-3.6
				c0-0.6-0.3-0.8-0.8-0.8c-0.2,0-0.4,0.1-0.6,0.2c-0.2,0.1-0.3,0.3-0.5,0.5v3.8c0,0.2-0.2,0.3-0.6,0.3h-0.2
				C163.2,187.6,163,187.4,163,187.2z"/>
			<path class="st5" d="M174.1,187.4c0,0.1-0.2,0.2-0.6,0.2h-0.3c-0.2,0-0.3,0-0.4,0c-0.1,0-0.2-0.1-0.2-0.2l-1.8-2.6h0v2.5
				c0,0.2-0.2,0.3-0.6,0.3h-0.2c-0.4,0-0.6-0.1-0.6-0.3v-7.9c0-0.2,0.2-0.3,0.6-0.3h0.2c0.4,0,0.6,0.1,0.6,0.3v4.7l0,0l1.6-2.2
				c0.1-0.1,0.1-0.1,0.2-0.2c0.1,0,0.2,0,0.4,0h0.3c0.2,0,0.3,0,0.4,0s0.1,0.1,0.1,0.1c0,0.1,0,0.1-0.1,0.2l-1.7,2.3l2,2.8
				C174.1,187.3,174.1,187.3,174.1,187.4z"/>
			<path class="st5" d="M179.6,187.4c-0.3-0.1-0.5-0.4-0.7-0.6c0,0.2-0.1,0.4-0.1,0.6c0,0.1-0.1,0.2-0.2,0.2c-0.1,0-0.2,0.1-0.4,0.1
				h-0.1c-0.4,0-0.6-0.1-0.6-0.3v-7.9c0-0.2,0.2-0.3,0.6-0.3h0.2c0.4,0,0.6,0.1,0.6,0.3v2.6c0.4-0.3,0.8-0.4,1.3-0.4
				c0.7,0,1.3,0.3,1.7,0.8c0.4,0.5,0.6,1.3,0.6,2.2c0,0.6-0.1,1.2-0.3,1.6c-0.2,0.5-0.4,0.8-0.8,1c-0.3,0.2-0.7,0.4-1.1,0.4
				C180.2,187.6,179.9,187.5,179.6,187.4z M180.9,186c0.2-0.3,0.3-0.8,0.3-1.4c0-1.2-0.4-1.8-1.2-1.8c-0.4,0-0.7,0.1-1,0.3v2.7
				c0.2,0.2,0.3,0.4,0.5,0.5c0.2,0.1,0.4,0.2,0.6,0.2C180.5,186.4,180.7,186.3,180.9,186z"/>
			<path class="st5" d="M183.8,185.8V182c0-0.1,0-0.2,0.1-0.2c0.1-0.1,0.2-0.1,0.5-0.1h0.2c0.4,0,0.6,0.1,0.6,0.3v3.6
				c0,0.6,0.3,0.8,0.8,0.8c0.2,0,0.4-0.1,0.6-0.2c0.2-0.1,0.3-0.3,0.5-0.5V182c0-0.2,0.2-0.3,0.6-0.3h0.2c0.4,0,0.6,0.1,0.6,0.3v3.7
				c0,0.5,0,0.9,0.1,1.1s0.1,0.4,0.1,0.4c0,0.1-0.1,0.2-0.4,0.2c-0.2,0.1-0.5,0.1-0.7,0.1c-0.1,0-0.2-0.1-0.3-0.2
				c-0.1-0.1-0.1-0.2-0.1-0.4c0-0.1,0-0.2-0.1-0.3c-0.2,0.2-0.5,0.4-0.8,0.6c-0.3,0.2-0.6,0.2-1,0.2
				C184.3,187.6,183.8,187,183.8,185.8z"/>
			<path class="st5" d="M190.6,187.2c-0.3-0.3-0.4-0.7-0.4-1.3v-3.1h-0.3c-0.1,0-0.2,0-0.2-0.1c0-0.1-0.1-0.2-0.1-0.4v-0.2
				c0-0.2,0-0.3,0.1-0.4c0-0.1,0.1-0.1,0.2-0.1h0.3l0.1-1.1c0-0.2,0.2-0.3,0.5-0.3h0.3c0.3,0,0.5,0.1,0.5,0.3v1.1h0.7
				c0.1,0,0.2,0,0.2,0.1c0,0.1,0.1,0.2,0.1,0.4v0.2c0,0.2,0,0.3-0.1,0.4c0,0.1-0.1,0.1-0.2,0.1h-0.7v3.1c0,0.2,0,0.4,0.1,0.5
				c0.1,0.1,0.2,0.1,0.4,0.1c0.1,0,0.1,0,0.2,0c0.1,0,0.1,0,0.2,0c0.1,0,0.2,0.1,0.2,0.3c0.1,0.2,0.1,0.3,0.1,0.4
				c0,0.3-0.3,0.5-1,0.5C191.3,187.6,190.9,187.5,190.6,187.2z"/>
			<path class="st5" d="M194.3,187.2c-0.3-0.3-0.4-0.7-0.4-1.3v-3.1h-0.3c-0.1,0-0.2,0-0.2-0.1c0-0.1-0.1-0.2-0.1-0.4v-0.2
				c0-0.2,0-0.3,0.1-0.4c0-0.1,0.1-0.1,0.2-0.1h0.3l0.1-1.1c0-0.2,0.2-0.3,0.5-0.3h0.3c0.3,0,0.5,0.1,0.5,0.3v1.1h0.7
				c0.1,0,0.2,0,0.2,0.1c0,0.1,0.1,0.2,0.1,0.4v0.2c0,0.2,0,0.3-0.1,0.4c0,0.1-0.1,0.1-0.2,0.1h-0.7v3.1c0,0.2,0,0.4,0.1,0.5
				c0.1,0.1,0.2,0.1,0.4,0.1c0.1,0,0.1,0,0.2,0c0.1,0,0.1,0,0.2,0c0.1,0,0.2,0.1,0.2,0.3c0.1,0.2,0.1,0.3,0.1,0.4
				c0,0.3-0.3,0.5-1,0.5C195,187.6,194.6,187.5,194.3,187.2z"/>
			<path class="st5" d="M197.9,186.8c-0.5-0.5-0.7-1.3-0.7-2.2c0-1,0.2-1.7,0.7-2.2c0.5-0.5,1.1-0.8,2-0.8c0.9,0,1.5,0.3,2,0.8
				s0.7,1.3,0.7,2.2s-0.2,1.7-0.7,2.2s-1.1,0.8-2,0.8C199,187.6,198.3,187.4,197.9,186.8z M200.8,186c0.2-0.3,0.3-0.8,0.3-1.4
				c0-0.6-0.1-1.1-0.3-1.4c-0.2-0.3-0.5-0.5-0.9-0.5s-0.7,0.2-0.9,0.5s-0.3,0.8-0.3,1.4c0,0.6,0.1,1.1,0.3,1.4s0.5,0.5,0.9,0.5
				S200.6,186.3,200.8,186z"/>
			<path class="st5" d="M203.7,187.2v-3.7c0-0.5,0-0.9-0.1-1.1c0-0.2-0.1-0.4-0.1-0.4c0-0.1,0.1-0.2,0.4-0.2
				c0.2-0.1,0.5-0.1,0.7-0.1c0.1,0,0.2,0.1,0.3,0.2c0.1,0.1,0.1,0.2,0.1,0.3s0,0.2,0.1,0.2c0.2-0.2,0.4-0.4,0.7-0.6
				c0.3-0.2,0.6-0.2,1-0.2c1.1,0,1.7,0.6,1.7,1.8v3.8c0,0.1,0,0.2-0.1,0.2c-0.1,0.1-0.2,0.1-0.5,0.1h-0.2c-0.4,0-0.6-0.1-0.6-0.3
				v-3.6c0-0.6-0.3-0.8-0.8-0.8c-0.2,0-0.4,0.1-0.6,0.2c-0.2,0.1-0.3,0.3-0.5,0.5v3.8c0,0.2-0.2,0.3-0.6,0.3h-0.2
				C203.9,187.6,203.7,187.4,203.7,187.2z"/>
		</g>
	</g>
</g>
<g>
	<path class="st5" d="M143.9,179.7c0.2-0.2,0.5-0.2,0.7,0l0.5,0.5c0.2,0.2,0.2,0.5,0,0.7l-3.4,3.4l3.4,3.4c0.2,0.2,0.2,0.5,0,0.7
		l-0.5,0.5c-0.2,0.2-0.5,0.2-0.7,0l-4.3-4.3c-0.2-0.2-0.2-0.5,0-0.7L143.9,179.7z"/>
</g>
<g>
	<g>
		<g>
			<path class="st5" d="M245.4,187.4c-0.1-0.1-0.1-0.2-0.1-0.3V180c0-0.2,0.2-0.3,0.6-0.3h0.3c0.2,0,0.4,0,0.5,0.1
				c0.1,0.1,0.1,0.1,0.1,0.2v6.3h2.7c0.1,0,0.2,0,0.2,0.1c0,0.1,0.1,0.2,0.1,0.4v0.3c0,0.2,0,0.3-0.1,0.4s-0.1,0.1-0.2,0.1h-3.7
				C245.6,187.5,245.5,187.5,245.4,187.4z"/>
			<path class="st5" d="M250.5,180.4v-0.7c0-0.2,0.2-0.4,0.7-0.4c0.5,0,0.7,0.1,0.7,0.4v0.7c0,0.1-0.1,0.2-0.2,0.3
				c-0.1,0.1-0.3,0.1-0.6,0.1C250.7,180.8,250.5,180.7,250.5,180.4z M250.5,187.2V182c0-0.2,0.2-0.3,0.6-0.3h0.2
				c0.4,0,0.6,0.1,0.6,0.3v5.3c0,0.2-0.2,0.3-0.6,0.3h-0.2C250.7,187.6,250.5,187.4,250.5,187.2z"/>
			<path class="st5" d="M253.4,187.2v-3.7c0-0.5,0-0.9-0.1-1.1c0-0.2-0.1-0.4-0.1-0.4c0-0.1,0.1-0.2,0.4-0.2
				c0.2-0.1,0.5-0.1,0.7-0.1c0.1,0,0.2,0.1,0.3,0.2c0.1,0.1,0.1,0.2,0.1,0.3s0,0.2,0.1,0.2c0.2-0.2,0.4-0.4,0.7-0.6
				c0.3-0.2,0.6-0.2,1-0.2c1.1,0,1.7,0.6,1.7,1.8v3.8c0,0.1,0,0.2-0.1,0.2c-0.1,0.1-0.2,0.1-0.5,0.1h-0.2c-0.4,0-0.6-0.1-0.6-0.3
				v-3.6c0-0.6-0.3-0.8-0.8-0.8c-0.2,0-0.4,0.1-0.6,0.2c-0.2,0.1-0.3,0.3-0.5,0.5v3.8c0,0.2-0.2,0.3-0.6,0.3H254
				C253.6,187.6,253.4,187.4,253.4,187.2z"/>
			<path class="st5" d="M264.4,187.4c0,0.1-0.2,0.2-0.6,0.2h-0.3c-0.2,0-0.3,0-0.4,0c-0.1,0-0.2-0.1-0.2-0.2l-1.8-2.6h0v2.5
				c0,0.2-0.2,0.3-0.6,0.3h-0.2c-0.4,0-0.6-0.1-0.6-0.3v-7.9c0-0.2,0.2-0.3,0.6-0.3h0.2c0.4,0,0.6,0.1,0.6,0.3v4.7l0,0l1.6-2.2
				c0.1-0.1,0.1-0.1,0.2-0.2c0.1,0,0.2,0,0.4,0h0.3c0.2,0,0.3,0,0.4,0s0.1,0.1,0.1,0.1c0,0.1,0,0.1-0.1,0.2l-1.7,2.3l2,2.8
				C264.4,187.3,264.4,187.3,264.4,187.4z"/>
			<path class="st5" d="M269.9,187.4c-0.3-0.1-0.5-0.4-0.7-0.6c0,0.2-0.1,0.4-0.1,0.6c0,0.1-0.1,0.2-0.2,0.2c-0.1,0-0.2,0.1-0.4,0.1
				h-0.1c-0.4,0-0.6-0.1-0.6-0.3v-7.9c0-0.2,0.2-0.3,0.6-0.3h0.2c0.4,0,0.6,0.1,0.6,0.3v2.6c0.4-0.3,0.8-0.4,1.3-0.4
				c0.7,0,1.3,0.3,1.7,0.8c0.4,0.5,0.6,1.3,0.6,2.2c0,0.6-0.1,1.2-0.3,1.6c-0.2,0.5-0.4,0.8-0.8,1c-0.3,0.2-0.7,0.4-1.1,0.4
				C270.5,187.6,270.2,187.5,269.9,187.4z M271.2,186c0.2-0.3,0.3-0.8,0.3-1.4c0-1.2-0.4-1.8-1.2-1.8c-0.4,0-0.7,0.1-1,0.3v2.7
				c0.2,0.2,0.3,0.4,0.5,0.5c0.2,0.1,0.4,0.2,0.6,0.2C270.8,186.4,271,186.3,271.2,186z"/>
			<path class="st5" d="M274.1,185.8V182c0-0.1,0-0.2,0.1-0.2c0.1-0.1,0.2-0.1,0.5-0.1h0.2c0.4,0,0.6,0.1,0.6,0.3v3.6
				c0,0.6,0.3,0.8,0.8,0.8c0.2,0,0.4-0.1,0.6-0.2c0.2-0.1,0.3-0.3,0.5-0.5V182c0-0.2,0.2-0.3,0.6-0.3h0.2c0.4,0,0.6,0.1,0.6,0.3v3.7
				c0,0.5,0,0.9,0.1,1.1s0.1,0.4,0.1,0.4c0,0.1-0.1,0.2-0.4,0.2c-0.2,0.1-0.5,0.1-0.7,0.1c-0.1,0-0.2-0.1-0.3-0.2
				c-0.1-0.1-0.1-0.2-0.1-0.4c0-0.1,0-0.2-0.1-0.3c-0.2,0.2-0.5,0.4-0.8,0.6c-0.3,0.2-0.6,0.2-1,0.2
				C274.7,187.6,274.1,187,274.1,185.8z"/>
			<path class="st5" d="M280.9,187.2c-0.3-0.3-0.4-0.7-0.4-1.3v-3.1h-0.3c-0.1,0-0.2,0-0.2-0.1c0-0.1-0.1-0.2-0.1-0.4v-0.2
				c0-0.2,0-0.3,0.1-0.4c0-0.1,0.1-0.1,0.2-0.1h0.3l0.1-1.1c0-0.2,0.2-0.3,0.5-0.3h0.3c0.3,0,0.5,0.1,0.5,0.3v1.1h0.7
				c0.1,0,0.2,0,0.2,0.1c0,0.1,0.1,0.2,0.1,0.4v0.2c0,0.2,0,0.3-0.1,0.4c0,0.1-0.1,0.1-0.2,0.1h-0.7v3.1c0,0.2,0,0.4,0.1,0.5
				c0.1,0.1,0.2,0.1,0.4,0.1c0.1,0,0.1,0,0.2,0c0.1,0,0.1,0,0.2,0c0.1,0,0.2,0.1,0.2,0.3c0.1,0.2,0.1,0.3,0.1,0.4
				c0,0.3-0.3,0.5-1,0.5C281.6,187.6,281.2,187.5,280.9,187.2z"/>
			<path class="st5" d="M284.7,187.2c-0.3-0.3-0.4-0.7-0.4-1.3v-3.1h-0.3c-0.1,0-0.2,0-0.2-0.1c0-0.1-0.1-0.2-0.1-0.4v-0.2
				c0-0.2,0-0.3,0.1-0.4c0-0.1,0.1-0.1,0.2-0.1h0.3l0.1-1.1c0-0.2,0.2-0.3,0.5-0.3h0.3c0.3,0,0.5,0.1,0.5,0.3v1.1h0.7
				c0.1,0,0.2,0,0.2,0.1c0,0.1,0.1,0.2,0.1,0.4v0.2c0,0.2,0,0.3-0.1,0.4c0,0.1-0.1,0.1-0.2,0.1h-0.7v3.1c0,0.2,0,0.4,0.1,0.5
				c0.1,0.1,0.2,0.1,0.4,0.1c0.1,0,0.1,0,0.2,0c0.1,0,0.1,0,0.2,0c0.1,0,0.2,0.1,0.2,0.3c0.1,0.2,0.1,0.3,0.1,0.4
				c0,0.3-0.3,0.5-1,0.5C285.3,187.6,284.9,187.5,284.7,187.2z"/>
			<path class="st5" d="M288.2,186.8c-0.5-0.5-0.7-1.3-0.7-2.2c0-1,0.2-1.7,0.7-2.2c0.5-0.5,1.1-0.8,2-0.8c0.9,0,1.5,0.3,2,0.8
				s0.7,1.3,0.7,2.2s-0.2,1.7-0.7,2.2s-1.1,0.8-2,0.8C289.3,187.6,288.7,187.4,288.2,186.8z M291.1,186c0.2-0.3,0.3-0.8,0.3-1.4
				c0-0.6-0.1-1.1-0.3-1.4c-0.2-0.3-0.5-0.5-0.9-0.5s-0.7,0.2-0.9,0.5s-0.3,0.8-0.3,1.4c0,0.6,0.1,1.1,0.3,1.4s0.5,0.5,0.9,0.5
				S290.9,186.3,291.1,186z"/>
			<path class="st5" d="M294.1,187.2v-3.7c0-0.5,0-0.9-0.1-1.1c0-0.2-0.1-0.4-0.1-0.4c0-0.1,0.1-0.2,0.4-0.2
				c0.2-0.1,0.5-0.1,0.7-0.1c0.1,0,0.2,0.1,0.3,0.2c0.1,0.1,0.1,0.2,0.1,0.3s0,0.2,0.1,0.2c0.2-0.2,0.4-0.4,0.7-0.6
				c0.3-0.2,0.6-0.2,1-0.2c1.1,0,1.7,0.6,1.7,1.8v3.8c0,0.1,0,0.2-0.1,0.2c-0.1,0.1-0.2,0.1-0.5,0.1H298c-0.4,0-0.6-0.1-0.6-0.3
				v-3.6c0-0.6-0.3-0.8-0.8-0.8c-0.2,0-0.4,0.1-0.6,0.2c-0.2,0.1-0.3,0.3-0.5,0.5v3.8c0,0.2-0.2,0.3-0.6,0.3h-0.2
				C294.3,187.6,294.1,187.4,294.1,187.2z"/>
		</g>
	</g>
</g>
<g>
	<g>
		<path class="st5" d="M314.6,183.9c0.2,0.2,0.2,0.5,0,0.7l-4.3,4.3c-0.2,0.2-0.5,0.2-0.7,0l-0.5-0.5c-0.2-0.2-0.2-0.5,0-0.7
			l3.4-3.4l-3.4-3.4c-0.2-0.2-0.2-0.5,0-0.7l0.5-0.5c0.2-0.2,0.5-0.2,0.7,0L314.6,183.9z"/>
	</g>
</g>
<line class="st6" x1="20.4" y1="98.2" x2="74.1" y2="98.2"/>
<line class="st6" x1="155.1" y1="98.2" x2="208.8" y2="98.2"/>
<line class="st6" x1="245.2" y1="98.2" x2="298.9" y2="98.2"/>
<line class="st7" x1="20.4" y1="143.4" x2="74.8" y2="143.4"/>
<line class="st7" x1="154.5" y1="143.4" x2="208.8" y2="143.4"/>
<line class="st7" x1="245.2" y1="143.4" x2="299.5" y2="143.4"/>
<g>
	<circle class="st8" cx="101.1" cy="183.9" r="5.8"/>
	<g>
		<g>
			<path class="st5" d="M100.3,186.2v-2h-0.3c-0.2,0-0.3-0.1-0.3-0.3v-0.7c0-0.2,0.1-0.3,0.3-0.3h1.6c0.2,0,0.3,0.1,0.3,0.3v3h0.3
				c0.2,0,0.3,0.1,0.3,0.3v0.7c0,0.2-0.1,0.3-0.3,0.3h-2.1c-0.2,0-0.3-0.1-0.3-0.3v-0.7c0-0.2,0.1-0.3,0.3-0.3H100.3z M102.1,181.3
				c0,0.6-0.5,1-1,1s-1-0.5-1-1s0.5-1,1-1S102.1,180.7,102.1,181.3z"/>
		</g>
	</g>
</g>
<g>
	<circle class="st9" cx="101.1" cy="92.8" r="5.8"/>
	<g>
		<path class="st1" d="M100.3,95.2v-2h-0.3c-0.2,0-0.3-0.1-0.3-0.3v-0.7c0-0.2,0.1-0.3,0.3-0.3h1.6c0.2,0,0.3,0.1,0.3,0.3v3h0.3
			c0.2,0,0.3,0.1,0.3,0.3v0.7c0,0.2-0.1,0.3-0.3,0.3h-2.1c-0.2,0-0.3-0.1-0.3-0.3v-0.7c0-0.2,0.1-0.3,0.3-0.3H100.3z M102.1,90.2
			c0,0.6-0.5,1-1,1s-1-0.5-1-1c0-0.6,0.5-1,1-1S102.1,89.7,102.1,90.2z"/>
	</g>
</g>
<g>
	<circle class="st10" cx="101.1" cy="47.1" r="5.8"/>
	<g>
		<path class="st3" d="M100.3,49.5v-2h-0.3c-0.2,0-0.3-0.1-0.3-0.3v-0.7c0-0.2,0.1-0.3,0.3-0.3h1.6c0.2,0,0.3,0.1,0.3,0.3v3h0.3
			c0.2,0,0.3,0.1,0.3,0.3v0.7c0,0.2-0.1,0.3-0.3,0.3h-2.1c-0.2,0-0.3-0.1-0.3-0.3v-0.7c0-0.2,0.1-0.3,0.3-0.3H100.3z M102.1,44.5
			c0,0.6-0.5,1-1,1s-1-0.5-1-1c0-0.6,0.5-1,1-1S102.1,43.9,102.1,44.5z"/>
	</g>
</g>
<g>
	<circle class="st11" cx="101.1" cy="138.4" r="5.8"/>
	<g>
		<g>
			<path class="st4" d="M100.3,140.7v-2h-0.3c-0.2,0-0.3-0.1-0.3-0.3v-0.7c0-0.2,0.1-0.3,0.3-0.3h1.6c0.2,0,0.3,0.1,0.3,0.3v3h0.3
				c0.2,0,0.3,0.1,0.3,0.3v0.7c0,0.2-0.1,0.3-0.3,0.3h-2.1c-0.2,0-0.3-0.1-0.3-0.3V141c0-0.2,0.1-0.3,0.3-0.3H100.3z M102.1,135.8
				c0,0.6-0.5,1-1,1s-1-0.5-1-1c0-0.6,0.5-1,1-1S102.1,135.2,102.1,135.8z"/>
		</g>
	</g>
</g>
<g>
</g>
<g>
</g>
<g>
</g>
<g>
</g>
<g>
</g>
<g>
</g>
</svg>
