<?xml version="1.0" encoding="utf-8"?>
<!-- Generator: Adobe Illustrator 23.1.1, SVG Export Plug-In . SVG Version: 6.00 Build 0)  -->
<svg version="1.1" id="Layer_1" xmlns="http://www.w3.org/2000/svg" xmlns:xlink="http://www.w3.org/1999/xlink" x="0px" y="0px"
	 viewBox="0 0 650 320" style="enable-background:new 0 0 650 320;" xml:space="preserve">
<style type="text/css">
	.st0{fill:none;stroke:#666666;stroke-width:0.9921;stroke-miterlimit:10;}
	.st1{fill:#676CB0;}
	.st2{fill:#666666;}
	.st3{fill:#39870C;}
	.st4{fill:#FFFFFF;}
	.st5{fill:#275937;}
	.st6{fill:#AFCF9D;}
	.st7{fill:#FFFFFF;stroke:#39870C;stroke-width:0.4984;stroke-miterlimit:10;}
	.st8{fill:#FFFFFF;stroke:#AFCF9D;stroke-width:0.4984;stroke-miterlimit:10;}
	.st9{fill:none;stroke:#FFFFFF;stroke-width:0.8504;stroke-miterlimit:10;}
</style>
<line class="st0" x1="0.6" y1="320" x2="0.6" y2="0"/>
<g>
	<path class="st1" d="M241,161.1h-88.9c-0.8,0-1.6-0.7-1.6-1.6v-24.9c0-0.8,0.7-1.6,1.6-1.6H241c0.8,0,1.6,0.7,1.6,1.6v24.9
		C242.6,160.4,241.8,161.1,241,161.1z"/>
</g>
<g>
	<g>
		<path class="st2" d="M52.6,278.4c-0.1,0-0.1-0.1-0.1-0.2c0,0,0.1-0.5,0.2-1.4c0,0,0.1-0.5,0.3-1.5h-1.2c-0.1,0-0.2,0-0.2-0.1
			c0-0.1-0.1-0.2-0.1-0.4v-0.3c0-0.2,0-0.3,0.1-0.4c0-0.1,0.1-0.1,0.2-0.1h1.4l0.4-2.4h-1.3c-0.1,0-0.2,0-0.2-0.1
			c0-0.1-0.1-0.2-0.1-0.4v-0.3c0-0.2,0-0.3,0.1-0.4c0-0.1,0.1-0.1,0.2-0.1h1.5l0.5-2.7c0-0.1,0.1-0.2,0.2-0.3c0.1,0,0.2-0.1,0.5-0.1
			h0.1c0.3,0,0.4,0.1,0.4,0.2l-0.5,2.8h1.9l0.5-2.7c0-0.1,0.1-0.2,0.2-0.3c0.1,0,0.2-0.1,0.5-0.1h0.1c0.3,0,0.4,0.1,0.4,0.2
			l-0.5,2.8h1.1c0.1,0,0.2,0,0.2,0.1c0,0.1,0.1,0.2,0.1,0.4v0.3c0,0.2,0,0.3-0.1,0.4c0,0.1-0.1,0.1-0.2,0.1h-1.3l-0.4,2.4h1.2
			c0.1,0,0.2,0,0.2,0.1c0,0.1,0.1,0.2,0.1,0.4v0.3c0,0.2,0,0.3-0.1,0.4c0,0.1-0.1,0.1-0.2,0.1h-1.5l-0.5,2.8c0,0.1-0.1,0.2-0.2,0.3
			c-0.1,0.1-0.3,0.1-0.5,0.1H56c-0.2,0-0.3,0-0.4-0.1c-0.1,0-0.1-0.1-0.1-0.2c0,0,0.1-0.5,0.2-1.4c0,0,0.1-0.5,0.3-1.5h-1.9
			l-0.5,2.8c0,0.1-0.1,0.2-0.2,0.3c-0.1,0.1-0.3,0.1-0.5,0.1h-0.1C52.7,278.4,52.6,278.4,52.6,278.4z M56.3,274l0.4-2.4h-1.9
			l-0.4,2.4H56.3z"/>
		<path class="st2" d="M62,278.3c-0.5-0.1-0.9-0.2-1.2-0.4c-0.3-0.1-0.4-0.3-0.4-0.4c0-0.2,0.1-0.3,0.2-0.5c0.1-0.2,0.2-0.3,0.4-0.3
			c0.1,0,0.2,0,0.4,0.1c0.7,0.3,1.4,0.4,2.1,0.4c0.6,0,1.1-0.2,1.6-0.5s0.7-0.9,0.7-1.7s-0.2-1.3-0.6-1.6c-0.4-0.3-1-0.5-1.8-0.5
			h-0.5c-0.1,0-0.2,0-0.2-0.1s-0.1-0.2-0.1-0.4v-0.2c0-0.2,0-0.3,0.1-0.4c0-0.1,0.1-0.1,0.2-0.1h0.5c0.5,0,0.9-0.1,1.2-0.4
			c0.3-0.2,0.6-0.5,0.7-0.8c0.1-0.3,0.2-0.6,0.2-0.9c0-0.4-0.2-0.8-0.4-1.1c-0.3-0.3-0.8-0.5-1.5-0.5c-0.4,0-0.8,0-1.1,0.1
			c-0.3,0.1-0.6,0.2-0.8,0.3c-0.2,0.1-0.3,0.1-0.4,0.1c-0.1,0-0.2-0.1-0.3-0.3c-0.1-0.2-0.2-0.4-0.2-0.5c0-0.2,0.3-0.4,1-0.6
			c0.7-0.2,1.3-0.2,1.8-0.2c1,0,1.8,0.2,2.4,0.7c0.6,0.5,0.9,1.2,0.9,2.1c0,0.5-0.2,1-0.5,1.4c-0.3,0.4-0.7,0.7-1.2,0.8v0.1
			c0.5,0.1,1,0.5,1.4,1c0.4,0.5,0.6,1.2,0.6,2c0,0.8-0.2,1.4-0.5,1.9c-0.4,0.5-0.8,0.9-1.4,1.1c-0.6,0.2-1.1,0.4-1.7,0.4
			C63.1,278.5,62.6,278.4,62,278.3z"/>
		<path class="st2" d="M70.5,278.1c-0.1-0.2-0.2-0.4-0.2-0.5c0-0.1,0-0.2,0.1-0.2c1-0.4,1.9-1,2.6-1.8c0.6-0.7,1.1-1.6,1.4-2.5
			c-0.6,0.4-1.3,0.5-2.2,0.5c-0.6,0-1.1-0.1-1.6-0.4s-0.8-0.6-1.1-1.1s-0.4-1-0.4-1.7c0-0.7,0.2-1.2,0.4-1.8
			c0.3-0.5,0.7-0.9,1.2-1.2s1.1-0.4,1.8-0.4c1.1,0,2,0.4,2.6,1c0.6,0.7,0.9,1.7,0.9,3c0,1.4-0.3,2.7-1,3.8c-0.7,1.1-1.4,2-2.3,2.6
			c-0.8,0.6-1.5,0.9-1.9,0.9C70.7,278.4,70.6,278.3,70.5,278.1z M74.6,272c0-0.4,0.1-0.8,0.1-1c0-1-0.2-1.7-0.6-2.1
			s-0.9-0.6-1.5-0.6c-0.3,0-0.6,0.1-0.9,0.2c-0.3,0.2-0.6,0.4-0.8,0.7c-0.2,0.3-0.3,0.7-0.3,1.2c0,0.7,0.2,1.3,0.6,1.6
			c0.4,0.4,0.9,0.5,1.5,0.5C73.4,272.5,74,272.3,74.6,272z"/>
		<path class="st2" d="M78.6,277.6c-0.6-0.6-1-1.4-1-2.5c0-0.8,0.2-1.4,0.5-1.8c0.3-0.4,0.8-0.8,1.3-1c-0.4-0.2-0.7-0.6-1-1
			c-0.2-0.4-0.4-0.9-0.4-1.5c0-0.9,0.3-1.6,0.8-2c0.6-0.5,1.3-0.7,2.2-0.7c0.9,0,1.6,0.2,2.2,0.7c0.6,0.5,0.9,1.2,0.9,2
			c0,1.2-0.5,2-1.6,2.4c0.6,0.3,1.1,0.6,1.4,1c0.3,0.4,0.5,1,0.5,1.8c0,1.1-0.3,1.9-1,2.5c-0.6,0.6-1.5,0.8-2.5,0.8
			C80.1,278.5,79.3,278.2,78.6,277.6z M82.6,276.8c0.4-0.4,0.6-0.9,0.6-1.6c0-0.4-0.1-0.8-0.3-1.1c-0.2-0.3-0.4-0.5-0.7-0.6
			s-0.7-0.3-1.2-0.5l-0.5-0.2c-0.4,0.3-0.8,0.6-1.1,1c-0.3,0.4-0.4,0.8-0.4,1.4c0,0.7,0.2,1.2,0.6,1.6c0.4,0.4,0.9,0.6,1.5,0.6
			S82.2,277.2,82.6,276.8z M82.9,269.8c0-0.6-0.2-1-0.5-1.2c-0.3-0.3-0.7-0.4-1.2-0.4c-0.5,0-0.9,0.1-1.2,0.4
			c-0.3,0.3-0.5,0.7-0.5,1.2c0,0.4,0.1,0.7,0.3,1c0.2,0.2,0.4,0.4,0.7,0.6c0.3,0.1,0.6,0.3,1.1,0.4
			C82.4,271.3,82.9,270.6,82.9,269.8z"/>
		<path class="st2" d="M87.2,278.4c-0.1,0-0.2-0.1-0.2-0.2c0,0,0-0.1,0.1-0.2l4.6-9.6h-5.1c-0.1,0-0.2,0-0.2-0.1
			c0-0.1-0.1-0.2-0.1-0.4v-0.2c0-0.2,0-0.3,0.1-0.4c0-0.1,0.1-0.1,0.2-0.1H93c0.1,0,0.1,0.1,0.2,0.3c0.1,0.2,0.1,0.4,0.1,0.5
			c0,0,0,0.1,0,0.2l-4.7,10c0,0.1-0.1,0.1-0.2,0.2c-0.1,0-0.2,0.1-0.4,0.1h-0.2C87.4,278.4,87.2,278.4,87.2,278.4z"/>
		<path class="st2" d="M96.4,277.9c-0.6-0.4-1-1-1.3-1.9s-0.5-1.9-0.5-3.2s0.2-2.3,0.5-3.2c0.3-0.8,0.8-1.5,1.3-1.9
			c0.6-0.4,1.2-0.6,1.8-0.6c0.7,0,1.3,0.2,1.8,0.6c0.6,0.4,1,1,1.3,1.9c0.3,0.8,0.5,1.9,0.5,3.2s-0.2,2.3-0.5,3.2
			c-0.3,0.8-0.8,1.5-1.3,1.9c-0.6,0.4-1.2,0.6-1.8,0.6C97.6,278.5,97,278.3,96.4,277.9z M99.4,276.9c0.4-0.3,0.6-0.8,0.8-1.5
			s0.3-1.6,0.3-2.6c0-1-0.1-1.9-0.3-2.6c-0.2-0.7-0.5-1.2-0.8-1.5c-0.4-0.3-0.7-0.5-1.2-0.5c-0.4,0-0.8,0.2-1.1,0.4
			c-0.4,0.3-0.6,0.8-0.8,1.5c-0.2,0.7-0.3,1.6-0.3,2.6s0.1,1.9,0.3,2.6c0.2,0.7,0.5,1.2,0.8,1.5c0.4,0.3,0.7,0.4,1.1,0.4
			C98.7,277.3,99,277.2,99.4,276.9z"/>
		<path class="st2" d="M104.4,277.4c-0.6-0.7-1-1.8-1-3.3c0-1.5,0.4-2.6,1.1-3.3c0.7-0.7,1.6-1,2.7-1c0.6,0,1.2,0.1,1.7,0.2
			c0.5,0.2,0.7,0.3,0.7,0.5c0,0.1-0.1,0.3-0.2,0.5c-0.1,0.2-0.2,0.3-0.3,0.3c0,0,0,0-0.1,0c0,0-0.1,0-0.1,0
			c-0.6-0.2-1.2-0.4-1.8-0.4c-1.6,0-2.3,1-2.3,3c0,1.1,0.2,2,0.6,2.4c0.4,0.5,1,0.8,1.9,0.8c0.6,0,1.2-0.1,1.8-0.4l0.2-0.1
			c0.1,0,0.2,0.1,0.4,0.3c0.1,0.2,0.2,0.4,0.2,0.5c0,0.1-0.1,0.2-0.4,0.4c-0.2,0.1-0.5,0.2-0.9,0.3c-0.4,0.1-0.8,0.1-1.2,0.1
			C106,278.5,105,278.2,104.4,277.4z"/>
	</g>
	<path class="st3" d="M40.8,284.6H21.4c-0.9,0-1.6-0.7-1.6-1.6v-19.4c0-0.9,0.7-1.6,1.6-1.6h19.4c0.9,0,1.6,0.7,1.6,1.6V283
		C42.4,283.8,41.7,284.6,40.8,284.6z"/>
</g>
<g>
	<path class="st3" d="M101.4,71.6h-81c-0.8,0-1.5-0.7-1.5-1.5V45c0-0.8,0.7-1.5,1.5-1.5h81c0.8,0,1.5,0.7,1.5,1.5v25
		C102.9,70.9,102.2,71.6,101.4,71.6z"/>
	<g>
		<path class="st4" d="M26.9,61.6c-0.1,0-0.2-0.1-0.2-0.2v-7.2c0-0.2,0-0.2,0.1-0.3c0.1-0.1,0.2-0.1,0.3-0.1h2.3
			c0.7,0,1.3,0.2,1.8,0.5c0.5,0.3,0.8,1,0.8,1.9c0,0.6-0.2,1.2-0.4,1.5c-0.3,0.4-0.6,0.6-1,0.7c-0.4,0.1-0.7,0.2-1,0.2h-1.4v2.8
			c0,0.2-0.2,0.3-0.6,0.3h-0.3C27.2,61.7,27,61.7,26.9,61.6z M29.5,57.3c0.3,0,0.6-0.1,0.8-0.2c0.2-0.2,0.3-0.5,0.3-0.9
			c0-0.4-0.1-0.7-0.4-0.9c-0.2-0.2-0.5-0.2-0.8-0.2h-1.2v2.3L29.5,57.3L29.5,57.3z"/>
		<path class="st4" d="M33.2,61.4v-3.7c0-0.5,0-0.9-0.1-1.1c0-0.2-0.1-0.4-0.1-0.4c0-0.1,0.1-0.2,0.4-0.2c0.2,0,0.5-0.1,0.7-0.1
			c0.1,0,0.2,0,0.2,0.2s0.1,0.2,0.1,0.3s0,0.2,0,0.2c0.4-0.6,0.8-0.8,1.2-0.8c0.2,0,0.4,0,0.5,0.2s0.2,0.2,0.2,0.4
			c0,0.2,0,0.3-0.1,0.5C36.2,56.9,36.2,57,36,57c0,0-0.1,0-0.2,0c-0.1,0-0.2,0-0.3,0c-0.2,0-0.4,0.1-0.6,0.2
			c-0.2,0.2-0.3,0.3-0.4,0.4v3.8c0,0.2-0.2,0.3-0.6,0.3h-0.2C33.4,61.7,33.2,61.6,33.2,61.4z"/>
		<path class="st4" d="M37.2,54.6v-0.7c0-0.2,0.2-0.4,0.7-0.4c0.5,0,0.7,0.1,0.7,0.4v0.7c0,0.1,0,0.2-0.2,0.3
			c-0.1,0.1-0.3,0.1-0.6,0.1C37.5,55,37.2,54.8,37.2,54.6z M37.2,61.4v-5.3c0-0.2,0.2-0.3,0.6-0.3h0.2c0.4,0,0.6,0.1,0.6,0.3v5.3
			c0,0.2-0.2,0.3-0.6,0.3h-0.2C37.4,61.7,37.2,61.6,37.2,61.4z"/>
		<path class="st4" d="M48.2,57.5v3.8c0,0.2-0.2,0.3-0.6,0.3h-0.2c-0.4,0-0.6-0.1-0.6-0.3v-3.6c0-0.6-0.3-0.8-0.8-0.8
			c-0.2,0-0.4,0.1-0.6,0.2c-0.2,0.2-0.3,0.3-0.4,0.5v3.8c0,0.2-0.2,0.3-0.6,0.3h-0.2c-0.2,0-0.4,0-0.4-0.1c-0.1,0-0.2-0.1-0.2-0.2
			v-3.6c0-0.6-0.3-0.8-0.8-0.8c-0.2,0-0.5,0.1-0.7,0.2c-0.2,0.2-0.3,0.3-0.4,0.4v3.8c0,0.2-0.2,0.3-0.6,0.3h-0.2
			c-0.4,0-0.6-0.1-0.6-0.3v-3.6c0-0.5,0-0.9-0.1-1.1c0-0.2-0.1-0.4-0.1-0.4c0-0.1,0.1-0.2,0.4-0.2c0.2,0,0.5-0.1,0.7-0.1
			c0.1,0,0.2,0,0.2,0.2s0.1,0.2,0.1,0.3s0,0.2,0,0.2c0.2-0.2,0.4-0.4,0.7-0.6c0.3-0.2,0.6-0.2,1-0.2c0.8,0,1.3,0.3,1.5,0.9
			c0.2-0.2,0.4-0.4,0.8-0.6s0.6-0.2,1-0.2C47.6,55.7,48.2,56.3,48.2,57.5z"/>
		<path class="st4" d="M49.9,61.3c-0.3-0.3-0.4-0.7-0.4-1.2c0-1.4,1.1-2.1,3.4-2.1v-0.4c0-0.5-0.3-0.8-1-0.8c-0.3,0-0.5,0-0.7,0.1
			C51,57,50.8,57,50.6,57.1c-0.2,0.1-0.2,0.1-0.3,0.1c-0.1,0-0.2-0.1-0.3-0.3s-0.2-0.4-0.2-0.5c0-0.1,0.1-0.2,0.3-0.4
			s0.4-0.2,0.8-0.3s0.7-0.1,1.1-0.1c0.8,0,1.4,0.2,1.8,0.5c0.4,0.3,0.6,0.8,0.6,1.4v2.3c0,0.5,0,0.9,0.1,1.1c0,0.2,0.1,0.4,0.1,0.4
			c0,0.1-0.1,0.2-0.4,0.2c-0.2,0-0.5,0.1-0.7,0.1c-0.1,0-0.2,0-0.2-0.2s-0.1-0.2-0.1-0.4s0-0.2,0-0.2c-0.2,0.2-0.4,0.4-0.7,0.6
			c-0.3,0.2-0.6,0.3-1.1,0.3C50.7,61.8,50.2,61.6,49.9,61.3z M52.4,60.4c0.2-0.1,0.4-0.3,0.6-0.5V59c-0.6,0-1.1,0.1-1.4,0.2
			C51.1,59.4,51,59.6,51,60c0,0.2,0,0.4,0.2,0.5c0.1,0.1,0.3,0.2,0.5,0.2C51.9,60.6,52.1,60.6,52.4,60.4z"/>
		<path class="st4" d="M55.9,54.6v-0.7c0-0.2,0.2-0.4,0.7-0.4c0.5,0,0.7,0.1,0.7,0.4v0.7c0,0.1,0,0.2-0.2,0.3
			c-0.1,0.1-0.3,0.1-0.6,0.1C56.1,55,55.9,54.8,55.9,54.6z M55.9,61.4v-5.3c0-0.2,0.2-0.3,0.6-0.3h0.2c0.4,0,0.6,0.1,0.6,0.3v5.3
			c0,0.2-0.2,0.3-0.6,0.3h-0.2C56.1,61.7,55.9,61.6,55.9,61.4z"/>
		<path class="st4" d="M58.9,61.4v-3.7c0-0.5,0-0.9-0.1-1.1c0-0.2-0.1-0.4-0.1-0.4c0-0.1,0.1-0.2,0.4-0.2c0.2,0,0.5-0.1,0.7-0.1
			c0.1,0,0.2,0,0.2,0.2s0.1,0.2,0.1,0.3s0,0.2,0,0.2c0.4-0.6,0.8-0.8,1.2-0.8c0.2,0,0.4,0,0.5,0.2s0.2,0.2,0.2,0.4
			c0,0.2,0,0.3-0.1,0.5C62,56.9,61.9,57,61.8,57c0,0-0.1,0-0.2,0c-0.1,0-0.2,0-0.3,0c-0.2,0-0.4,0.1-0.6,0.2
			c-0.2,0.2-0.3,0.3-0.4,0.4v3.8c0,0.2-0.2,0.3-0.6,0.3h-0.2C59.1,61.7,58.9,61.6,58.9,61.4z"/>
		<path class="st4" d="M63.5,61c-0.5-0.5-0.7-1.2-0.7-2.2c0-1,0.2-1.8,0.7-2.3s1.1-0.8,2-0.8c0.8,0,1.4,0.3,1.8,0.8
			c0.4,0.5,0.6,1.2,0.6,2.1c0,0.1-0.1,0.2-0.2,0.4c-0.1,0.2-0.2,0.2-0.3,0.2h-3.1c0,0.5,0.2,0.8,0.4,1.1c0.2,0.2,0.6,0.3,1,0.3
			c0.4,0,0.8-0.1,1.2-0.3c0.1,0,0.2-0.1,0.2-0.1c0.1,0,0.2,0.1,0.3,0.3c0.1,0.2,0.2,0.4,0.2,0.4c0,0.2-0.1,0.3-0.3,0.4
			c-0.2,0.1-0.5,0.2-0.8,0.3c-0.3,0.1-0.6,0.1-0.9,0.1C64.6,61.8,63.9,61.5,63.5,61z M66.4,58.2c0-0.4-0.1-0.8-0.2-1
			c-0.2-0.2-0.4-0.4-0.8-0.4c-0.7,0-1.1,0.4-1.2,1.4H66.4z"/>
		<path class="st4" d="M76.7,61.5c0,0.1-0.2,0.2-0.6,0.2h-0.3c-0.2,0-0.3,0-0.4,0c-0.1,0-0.2-0.1-0.2-0.2l-1.8-2.6h0v2.5
			c0,0.2-0.2,0.3-0.6,0.3h-0.2c-0.4,0-0.6-0.1-0.6-0.3v-7.8c0-0.2,0.2-0.3,0.6-0.3h0.2c0.4,0,0.6,0.1,0.6,0.3v4.6h0l1.6-2.2
			c0-0.1,0.1-0.1,0.2-0.2c0.1,0,0.2,0,0.4,0h0.3c0.2,0,0.3,0,0.4,0c0.1,0,0.1,0.1,0.1,0.1c0,0.1,0,0.1-0.1,0.2l-1.7,2.3l2,2.8
			C76.6,61.4,76.7,61.5,76.7,61.5z"/>
		<path class="st4" d="M78.1,61.3c-0.3-0.3-0.4-0.7-0.4-1.3v-6.5c0-0.2,0.2-0.3,0.6-0.3h0.2c0.4,0,0.6,0.1,0.6,0.3V60
			c0,0.2,0,0.4,0.1,0.5c0.1,0.1,0.2,0.2,0.4,0.2c0.1,0,0.2,0,0.2,0c0.1,0,0.1,0,0.2,0c0.1,0,0.2,0.1,0.2,0.3c0,0.2,0.1,0.3,0.1,0.4
			c0,0.3-0.3,0.5-1,0.5C78.7,61.8,78.4,61.6,78.1,61.3z"/>
		<path class="st4" d="M81.4,61c-0.5-0.5-0.7-1.2-0.7-2.2c0-1,0.2-1.8,0.7-2.3c0.5-0.5,1.1-0.8,2-0.8c0.8,0,1.4,0.3,1.8,0.8
			c0.4,0.5,0.6,1.2,0.6,2.1c0,0.1-0.1,0.2-0.2,0.4c-0.1,0.2-0.2,0.2-0.3,0.2h-3.1c0,0.5,0.2,0.8,0.4,1.1c0.2,0.2,0.6,0.3,1,0.3
			c0.4,0,0.8-0.1,1.2-0.3c0.1,0,0.2-0.1,0.2-0.1c0.1,0,0.2,0.1,0.3,0.3c0.1,0.2,0.2,0.4,0.2,0.4c0,0.2-0.1,0.3-0.3,0.4
			c-0.2,0.1-0.5,0.2-0.8,0.3c-0.3,0.1-0.6,0.1-0.9,0.1C82.6,61.8,81.9,61.5,81.4,61z M84.4,58.2c0-0.4-0.1-0.8-0.2-1
			c-0.2-0.2-0.4-0.4-0.8-0.4c-0.7,0-1.1,0.4-1.2,1.4H84.4z"/>
		<path class="st4" d="M87,54.6v-0.7c0-0.2,0.2-0.4,0.7-0.4s0.7,0.1,0.7,0.4v0.7c0,0.1,0,0.2-0.2,0.3c-0.1,0.1-0.3,0.1-0.6,0.1
			C87.3,55,87,54.8,87,54.6z M87,61.4v-5.3c0-0.2,0.2-0.3,0.6-0.3h0.2c0.4,0,0.6,0.1,0.6,0.3v5.3c0,0.2-0.2,0.3-0.6,0.3h-0.2
			C87.2,61.7,87,61.6,87,61.4z"/>
		<path class="st4" d="M90,61.4v-3.7c0-0.5,0-0.9-0.1-1.1s-0.1-0.4-0.1-0.4c0-0.1,0.1-0.2,0.4-0.2c0.2,0,0.5-0.1,0.7-0.1
			c0.1,0,0.2,0,0.3,0.2c0.1,0.1,0.1,0.2,0.1,0.3c0,0.1,0,0.2,0,0.2c0.2-0.2,0.4-0.4,0.8-0.6c0.3-0.2,0.6-0.2,1-0.2
			c1.1,0,1.7,0.6,1.7,1.8v3.8c0,0.1,0,0.2-0.2,0.2c-0.1,0-0.2,0.1-0.4,0.1H94c-0.4,0-0.6-0.1-0.6-0.3v-3.6c0-0.6-0.3-0.8-0.8-0.8
			c-0.2,0-0.4,0.1-0.6,0.2c-0.2,0.1-0.4,0.3-0.5,0.5v3.8c0,0.2-0.2,0.3-0.6,0.3h-0.2C90.2,61.7,90,61.6,90,61.4z"/>
	</g>
</g>
<g>
	<path class="st5" d="M101.4,115.4h-81c-0.8,0-1.5-0.7-1.5-1.5v-25c0-0.8,0.7-1.5,1.5-1.5h81c0.8,0,1.5,0.7,1.5,1.5v25
		C102.9,114.8,102.2,115.4,101.4,115.4z"/>
	<g>
		<path class="st4" d="M26.9,105.8c-0.1,0-0.2-0.1-0.2-0.2v-7.2c0-0.2,0-0.2,0.1-0.3c0.1-0.1,0.2-0.1,0.3-0.1h2.3
			c0.7,0,1.3,0.2,1.8,0.5c0.5,0.3,0.8,1,0.8,1.9c0,0.6-0.2,1.2-0.4,1.5c-0.3,0.4-0.6,0.6-1,0.7c-0.4,0.1-0.7,0.2-1,0.2h-1.4v2.8
			c0,0.2-0.2,0.3-0.6,0.3h-0.3C27.2,105.8,27,105.8,26.9,105.8z M29.5,101.4c0.3,0,0.6-0.1,0.8-0.2c0.2-0.2,0.3-0.5,0.3-0.9
			s-0.1-0.7-0.4-0.9c-0.2-0.2-0.5-0.2-0.8-0.2h-1.2v2.3L29.5,101.4L29.5,101.4z"/>
		<path class="st4" d="M33.2,105.5v-3.7c0-0.5,0-0.9-0.1-1.1c0-0.2-0.1-0.4-0.1-0.4c0-0.1,0.1-0.2,0.4-0.2c0.2,0,0.5-0.1,0.7-0.1
			c0.1,0,0.2,0,0.2,0.2s0.1,0.2,0.1,0.3s0,0.2,0,0.2c0.4-0.6,0.8-0.8,1.2-0.8c0.2,0,0.4,0,0.5,0.2s0.2,0.2,0.2,0.4
			c0,0.2,0,0.3-0.1,0.5c-0.1,0.2-0.1,0.3-0.2,0.3c0,0-0.1,0-0.2,0s-0.2,0-0.3,0c-0.2,0-0.4,0.1-0.6,0.2c-0.2,0.2-0.3,0.3-0.4,0.4
			v3.8c0,0.2-0.2,0.3-0.6,0.3h-0.2C33.4,105.8,33.2,105.7,33.2,105.5z"/>
		<path class="st4" d="M37.2,98.7V98c0-0.2,0.2-0.4,0.7-0.4c0.5,0,0.7,0.1,0.7,0.4v0.7c0,0.1,0,0.2-0.2,0.3
			c-0.1,0.1-0.3,0.1-0.6,0.1C37.5,99.1,37.2,99,37.2,98.7z M37.2,105.5v-5.3c0-0.2,0.2-0.3,0.6-0.3h0.2c0.4,0,0.6,0.1,0.6,0.3v5.3
			c0,0.2-0.2,0.3-0.6,0.3h-0.2C37.4,105.8,37.2,105.7,37.2,105.5z"/>
		<path class="st4" d="M48.2,101.7v3.8c0,0.2-0.2,0.3-0.6,0.3h-0.2c-0.4,0-0.6-0.1-0.6-0.3v-3.6c0-0.6-0.3-0.8-0.8-0.8
			c-0.2,0-0.4,0.1-0.6,0.2c-0.2,0.2-0.3,0.3-0.4,0.5v3.8c0,0.2-0.2,0.3-0.6,0.3h-0.2c-0.2,0-0.4,0-0.4-0.1c-0.1,0-0.2-0.1-0.2-0.2
			v-3.6c0-0.6-0.3-0.8-0.8-0.8c-0.2,0-0.5,0.1-0.7,0.2c-0.2,0.2-0.3,0.3-0.4,0.4v3.8c0,0.2-0.2,0.3-0.6,0.3h-0.2
			c-0.4,0-0.6-0.1-0.6-0.3v-3.7c0-0.5,0-0.9-0.1-1.1c0-0.2-0.1-0.4-0.1-0.4c0-0.1,0.1-0.2,0.4-0.2c0.2,0,0.5-0.1,0.7-0.1
			c0.1,0,0.2,0,0.2,0.2s0.1,0.2,0.1,0.3s0,0.2,0,0.2c0.2-0.2,0.4-0.4,0.7-0.6c0.3-0.2,0.6-0.2,1-0.2c0.8,0,1.3,0.3,1.5,0.9
			c0.2-0.2,0.4-0.4,0.8-0.6c0.3-0.2,0.6-0.2,1-0.2C47.6,99.8,48.2,100.4,48.2,101.7z"/>
		<path class="st4" d="M49.9,105.4c-0.3-0.3-0.4-0.7-0.4-1.2c0-1.4,1.1-2.1,3.4-2.1v-0.4c0-0.5-0.3-0.8-1-0.8c-0.3,0-0.5,0-0.7,0.1
			c-0.2,0.1-0.4,0.1-0.6,0.2c-0.2,0.1-0.2,0.1-0.3,0.1c-0.1,0-0.2-0.1-0.3-0.3s-0.2-0.4-0.2-0.5c0-0.1,0.1-0.2,0.3-0.4
			s0.4-0.2,0.8-0.3c0.4-0.1,0.7-0.1,1.1-0.1c0.8,0,1.4,0.2,1.8,0.5c0.4,0.3,0.6,0.8,0.6,1.4v2.3c0,0.5,0,0.9,0.1,1.1
			c0,0.2,0.1,0.4,0.1,0.4c0,0.1-0.1,0.2-0.4,0.2c-0.2,0-0.5,0.1-0.7,0.1c-0.1,0-0.2,0-0.2-0.2s-0.1-0.2-0.1-0.4s0-0.2,0-0.2
			c-0.2,0.2-0.4,0.4-0.7,0.6c-0.3,0.2-0.6,0.3-1.1,0.3C50.7,105.9,50.2,105.8,49.9,105.4z M52.4,104.6c0.2-0.1,0.4-0.3,0.6-0.5v-0.8
			c-0.6,0-1.1,0.1-1.4,0.2c-0.4,0.1-0.5,0.4-0.5,0.7c0,0.2,0,0.4,0.2,0.5c0.1,0.1,0.3,0.2,0.5,0.2C51.9,104.8,52.1,104.7,52.4,104.6
			z"/>
		<path class="st4" d="M55.9,98.7V98c0-0.2,0.2-0.4,0.7-0.4c0.5,0,0.7,0.1,0.7,0.4v0.7c0,0.1,0,0.2-0.2,0.3
			c-0.1,0.1-0.3,0.1-0.6,0.1C56.1,99.1,55.9,99,55.9,98.7z M55.9,105.5v-5.3c0-0.2,0.2-0.3,0.6-0.3h0.2c0.4,0,0.6,0.1,0.6,0.3v5.3
			c0,0.2-0.2,0.3-0.6,0.3h-0.2C56.1,105.8,55.9,105.7,55.9,105.5z"/>
		<path class="st4" d="M58.9,105.5v-3.7c0-0.5,0-0.9-0.1-1.1c0-0.2-0.1-0.4-0.1-0.4c0-0.1,0.1-0.2,0.4-0.2c0.2,0,0.5-0.1,0.7-0.1
			c0.1,0,0.2,0,0.2,0.2s0.1,0.2,0.1,0.3s0,0.2,0,0.2c0.4-0.6,0.8-0.8,1.2-0.8c0.2,0,0.4,0,0.5,0.2s0.2,0.2,0.2,0.4
			c0,0.2,0,0.3-0.1,0.5c-0.1,0.2-0.1,0.3-0.2,0.3c0,0-0.1,0-0.2,0s-0.2,0-0.3,0c-0.2,0-0.4,0.1-0.6,0.2c-0.2,0.2-0.3,0.3-0.4,0.4
			v3.8c0,0.2-0.2,0.3-0.6,0.3h-0.2C59.1,105.8,58.9,105.7,58.9,105.5z"/>
		<path class="st4" d="M63.5,105.1c-0.5-0.5-0.7-1.2-0.7-2.2c0-1,0.2-1.8,0.7-2.3c0.5-0.5,1.1-0.8,2-0.8c0.8,0,1.4,0.3,1.8,0.8
			c0.4,0.5,0.6,1.2,0.6,2.1c0,0.1-0.1,0.2-0.2,0.4c-0.1,0.2-0.2,0.2-0.3,0.2h-3.1c0,0.5,0.2,0.8,0.4,1.1c0.2,0.2,0.6,0.3,1,0.3
			c0.4,0,0.8-0.1,1.2-0.3c0.1,0,0.2-0.1,0.2-0.1c0.1,0,0.2,0.1,0.3,0.3c0.1,0.2,0.2,0.4,0.2,0.4c0,0.2-0.1,0.3-0.3,0.4
			c-0.2,0.1-0.5,0.2-0.8,0.3c-0.3,0.1-0.6,0.1-0.9,0.1C64.6,105.9,63.9,105.6,63.5,105.1z M66.4,102.4c0-0.4-0.1-0.8-0.2-1
			c-0.2-0.2-0.4-0.4-0.8-0.4c-0.7,0-1.1,0.4-1.2,1.4H66.4z"/>
		<path class="st4" d="M76.7,105.7c0,0.1-0.2,0.2-0.6,0.2h-0.3c-0.2,0-0.3,0-0.4,0c-0.1,0-0.2-0.1-0.2-0.2l-1.8-2.6h0v2.5
			c0,0.2-0.2,0.3-0.6,0.3h-0.2c-0.4,0-0.6-0.1-0.6-0.3v-7.8c0-0.2,0.2-0.3,0.6-0.3h0.2c0.4,0,0.6,0.1,0.6,0.3v4.6h0l1.6-2.2
			c0-0.1,0.1-0.1,0.2-0.2s0.2,0,0.4,0h0.3c0.2,0,0.3,0,0.4,0s0.1,0.1,0.1,0.1c0,0.1,0,0.1-0.1,0.2l-1.7,2.3l2,2.8
			C76.6,105.6,76.7,105.6,76.7,105.7z"/>
		<path class="st4" d="M78.1,105.5c-0.3-0.3-0.4-0.7-0.4-1.3v-6.5c0-0.2,0.2-0.3,0.6-0.3h0.2c0.4,0,0.6,0.1,0.6,0.3v6.5
			c0,0.2,0,0.4,0.1,0.5c0.1,0.1,0.2,0.2,0.4,0.2c0.1,0,0.2,0,0.2,0c0.1,0,0.1,0,0.2,0c0.1,0,0.2,0.1,0.2,0.3c0,0.2,0.1,0.3,0.1,0.4
			c0,0.3-0.3,0.5-1,0.5C78.7,105.9,78.4,105.8,78.1,105.5z"/>
		<path class="st4" d="M81.4,105.1c-0.5-0.5-0.7-1.2-0.7-2.2c0-1,0.2-1.8,0.7-2.3c0.5-0.5,1.1-0.8,2-0.8c0.8,0,1.4,0.3,1.8,0.8
			s0.6,1.2,0.6,2.1c0,0.1-0.1,0.2-0.2,0.4c-0.1,0.2-0.2,0.2-0.3,0.2h-3.1c0,0.5,0.2,0.8,0.4,1.1c0.2,0.2,0.6,0.3,1,0.3
			c0.4,0,0.8-0.1,1.2-0.3c0.1,0,0.2-0.1,0.2-0.1c0.1,0,0.2,0.1,0.3,0.3c0.1,0.2,0.2,0.4,0.2,0.4c0,0.2-0.1,0.3-0.3,0.4
			c-0.2,0.1-0.5,0.2-0.8,0.3c-0.3,0.1-0.6,0.1-0.9,0.1C82.6,105.9,81.9,105.6,81.4,105.1z M84.4,102.4c0-0.4-0.1-0.8-0.2-1
			c-0.2-0.2-0.4-0.4-0.8-0.4c-0.7,0-1.1,0.4-1.2,1.4H84.4z"/>
		<path class="st4" d="M87,98.7V98c0-0.2,0.2-0.4,0.7-0.4s0.7,0.1,0.7,0.4v0.7c0,0.1,0,0.2-0.2,0.3c-0.1,0.1-0.3,0.1-0.6,0.1
			C87.3,99.1,87,99,87,98.7z M87,105.5v-5.3c0-0.2,0.2-0.3,0.6-0.3h0.2c0.4,0,0.6,0.1,0.6,0.3v5.3c0,0.2-0.2,0.3-0.6,0.3h-0.2
			C87.2,105.8,87,105.7,87,105.5z"/>
		<path class="st4" d="M90,105.5v-3.7c0-0.5,0-0.9-0.1-1.1s-0.1-0.4-0.1-0.4c0-0.1,0.1-0.2,0.4-0.2c0.2,0,0.5-0.1,0.7-0.1
			c0.1,0,0.2,0,0.3,0.2c0.1,0.1,0.1,0.2,0.1,0.3c0,0.1,0,0.2,0,0.2c0.2-0.2,0.4-0.4,0.8-0.6c0.3-0.2,0.6-0.2,1-0.2
			c1.1,0,1.7,0.6,1.7,1.8v3.8c0,0.1,0,0.2-0.2,0.2c-0.1,0-0.2,0.1-0.4,0.1H94c-0.4,0-0.6-0.1-0.6-0.3v-3.6c0-0.6-0.3-0.8-0.8-0.8
			c-0.2,0-0.4,0.1-0.6,0.2c-0.2,0.1-0.4,0.3-0.5,0.5v3.8c0,0.2-0.2,0.3-0.6,0.3h-0.2C90.2,105.8,90,105.7,90,105.5z"/>
	</g>
</g>
<g>
	<path class="st1" d="M101.4,161h-81c-0.8,0-1.5-0.7-1.5-1.5v-25c0-0.8,0.7-1.5,1.5-1.5h81c0.8,0,1.5,0.7,1.5,1.5v25
		C102.9,160.3,102.2,161,101.4,161z"/>
	<g>
		<path class="st4" d="M26.5,151.2c-0.1,0-0.2-0.1-0.2-0.2v-7.2c0-0.2,0-0.2,0.1-0.3c0.1-0.1,0.2-0.1,0.3-0.1H29
			c0.7,0,1.3,0.2,1.8,0.5c0.5,0.3,0.8,1,0.8,1.9c0,0.6-0.2,1.2-0.4,1.5c-0.3,0.4-0.6,0.6-1,0.7c-0.4,0.1-0.7,0.2-1,0.2h-1.4v2.8
			c0,0.2-0.2,0.3-0.6,0.3h-0.3C26.7,151.3,26.6,151.3,26.5,151.2z M29.1,147c0.3,0,0.6-0.1,0.8-0.2c0.2-0.2,0.3-0.5,0.3-0.9
			c0-0.4-0.1-0.7-0.4-0.9c-0.2-0.2-0.5-0.2-0.8-0.2h-1.2v2.3L29.1,147L29.1,147z"/>
		<path class="st4" d="M32.7,151v-3.7c0-0.5,0-0.9-0.1-1.1c0-0.2-0.1-0.4-0.1-0.4c0-0.1,0.1-0.2,0.4-0.2c0.2,0,0.5-0.1,0.7-0.1
			c0.1,0,0.2,0,0.2,0.2c0,0.1,0.1,0.2,0.1,0.3c0,0.1,0,0.2,0,0.2c0.4-0.6,0.8-0.8,1.2-0.8c0.2,0,0.4,0,0.5,0.2s0.2,0.2,0.2,0.4
			c0,0.2,0,0.3-0.1,0.5c-0.1,0.2-0.1,0.3-0.2,0.3c0,0-0.1,0-0.2,0c-0.1,0-0.2,0-0.3,0c-0.2,0-0.4,0.1-0.6,0.2
			c-0.2,0.2-0.3,0.3-0.4,0.4v3.8c0,0.2-0.2,0.3-0.6,0.3h-0.2C32.9,151.3,32.7,151.2,32.7,151z"/>
		<path class="st4" d="M36.8,144.2v-0.7c0-0.2,0.2-0.4,0.7-0.4c0.5,0,0.7,0.1,0.7,0.4v0.7c0,0.1,0,0.2-0.2,0.3
			c-0.1,0.1-0.3,0.1-0.6,0.1C37,144.6,36.8,144.5,36.8,144.2z M36.8,151v-5.3c0-0.2,0.2-0.3,0.6-0.3h0.2c0.4,0,0.6,0.1,0.6,0.3v5.3
			c0,0.2-0.2,0.3-0.6,0.3h-0.2C37,151.3,36.8,151.2,36.8,151z"/>
		<path class="st4" d="M47.8,147.2v3.8c0,0.2-0.2,0.3-0.6,0.3h-0.2c-0.4,0-0.6-0.1-0.6-0.3v-3.6c0-0.6-0.3-0.8-0.8-0.8
			c-0.2,0-0.4,0.1-0.6,0.2c-0.2,0.2-0.3,0.3-0.4,0.5v3.8c0,0.2-0.2,0.3-0.6,0.3h-0.2c-0.2,0-0.4,0-0.4-0.1c-0.1,0-0.2-0.1-0.2-0.2
			v-3.6c0-0.6-0.3-0.8-0.8-0.8c-0.2,0-0.5,0.1-0.7,0.2s-0.3,0.3-0.4,0.4v3.8c0,0.2-0.2,0.3-0.6,0.3h-0.2c-0.4,0-0.6-0.1-0.6-0.3
			v-3.7c0-0.5,0-0.9-0.1-1.1s-0.1-0.4-0.1-0.4c0-0.1,0.1-0.2,0.4-0.2c0.2,0,0.5-0.1,0.7-0.1c0.1,0,0.2,0,0.2,0.2s0.1,0.2,0.1,0.3
			s0,0.2,0,0.2c0.2-0.2,0.4-0.4,0.7-0.6c0.3-0.2,0.6-0.2,1-0.2c0.8,0,1.3,0.3,1.5,0.9c0.2-0.2,0.4-0.4,0.8-0.6
			c0.3-0.2,0.6-0.2,1-0.2C47.2,145.4,47.8,146,47.8,147.2z"/>
		<path class="st4" d="M49.5,151c-0.3-0.3-0.4-0.7-0.4-1.2c0-1.4,1.1-2.1,3.4-2.1v-0.4c0-0.5-0.3-0.8-1-0.8c-0.3,0-0.5,0-0.7,0.1
			c-0.2,0.1-0.4,0.1-0.6,0.2c-0.2,0.1-0.2,0.1-0.3,0.1c-0.1,0-0.2-0.1-0.3-0.3s-0.2-0.4-0.2-0.5s0.1-0.2,0.3-0.4
			c0.2-0.1,0.4-0.2,0.8-0.3c0.4-0.1,0.7-0.1,1.1-0.1c0.8,0,1.4,0.2,1.8,0.5c0.4,0.3,0.6,0.8,0.6,1.4v2.3c0,0.5,0,0.9,0.1,1.1
			c0,0.2,0.1,0.4,0.1,0.4c0,0.1-0.1,0.2-0.4,0.2c-0.2,0-0.5,0.1-0.7,0.1c-0.1,0-0.2,0-0.2-0.2s-0.1-0.2-0.1-0.4s0-0.2,0-0.2
			c-0.2,0.2-0.4,0.4-0.7,0.6c-0.3,0.2-0.6,0.3-1.1,0.3C50.2,151.4,49.8,151.2,49.5,151z M51.9,150c0.2-0.1,0.4-0.3,0.6-0.5v-0.8
			c-0.6,0-1.1,0.1-1.4,0.2c-0.4,0.1-0.5,0.4-0.5,0.7c0,0.2,0,0.4,0.2,0.5c0.1,0.1,0.3,0.2,0.5,0.2C51.4,150.2,51.7,150.2,51.9,150z"
			/>
		<path class="st4" d="M55.4,144.2v-0.7c0-0.2,0.2-0.4,0.7-0.4c0.5,0,0.7,0.1,0.7,0.4v0.7c0,0.1,0,0.2-0.2,0.3
			c-0.1,0.1-0.3,0.1-0.6,0.1C55.7,144.6,55.4,144.5,55.4,144.2z M55.4,151v-5.3c0-0.2,0.2-0.3,0.6-0.3h0.2c0.4,0,0.6,0.1,0.6,0.3
			v5.3c0,0.2-0.2,0.3-0.6,0.3H56C55.6,151.3,55.4,151.2,55.4,151z"/>
		<path class="st4" d="M58.5,151v-3.7c0-0.5,0-0.9-0.1-1.1c0-0.2-0.1-0.4-0.1-0.4c0-0.1,0.1-0.2,0.4-0.2c0.2,0,0.5-0.1,0.7-0.1
			c0.1,0,0.2,0,0.2,0.2s0.1,0.2,0.1,0.3s0,0.2,0,0.2c0.4-0.6,0.8-0.8,1.2-0.8c0.2,0,0.4,0,0.5,0.2s0.2,0.2,0.2,0.4
			c0,0.2,0,0.3-0.1,0.5c-0.1,0.2-0.1,0.3-0.2,0.3c0,0-0.1,0-0.2,0c-0.1,0-0.2,0-0.3,0c-0.2,0-0.4,0.1-0.6,0.2
			c-0.2,0.2-0.3,0.3-0.4,0.4v3.8c0,0.2-0.2,0.3-0.6,0.3H59C58.7,151.3,58.5,151.2,58.5,151z"/>
		<path class="st4" d="M63,150.6c-0.5-0.5-0.7-1.2-0.7-2.2c0-1,0.2-1.8,0.7-2.3c0.5-0.5,1.1-0.8,2-0.8c0.8,0,1.4,0.3,1.8,0.8
			c0.4,0.5,0.6,1.2,0.6,2.1c0,0.1-0.1,0.2-0.2,0.4c-0.1,0.2-0.2,0.2-0.3,0.2h-3.1c0,0.5,0.2,0.8,0.4,1.1c0.2,0.2,0.6,0.3,1,0.3
			c0.4,0,0.8-0.1,1.2-0.3c0.1,0,0.2-0.1,0.2-0.1c0.1,0,0.2,0.1,0.3,0.3s0.2,0.4,0.2,0.4c0,0.2-0.1,0.3-0.3,0.4
			c-0.2,0.1-0.5,0.2-0.8,0.3c-0.3,0.1-0.6,0.1-0.9,0.1C64.2,151.4,63.5,151.1,63,150.6z M66,147.8c0-0.4-0.1-0.8-0.2-1
			c-0.2-0.2-0.4-0.4-0.8-0.4c-0.7,0-1.1,0.4-1.2,1.4H66z"/>
		<path class="st4" d="M76.2,151.2c0,0.1-0.2,0.2-0.6,0.2h-0.3c-0.2,0-0.3,0-0.4,0c-0.1,0-0.2-0.1-0.2-0.2l-1.8-2.6h0v2.5
			c0,0.2-0.2,0.3-0.6,0.3H72c-0.4,0-0.6-0.1-0.6-0.3v-7.8c0-0.2,0.2-0.3,0.6-0.3h0.2c0.4,0,0.6,0.1,0.6,0.3v4.6h0l1.6-2.2
			c0-0.1,0.1-0.1,0.2-0.2c0.1,0,0.2,0,0.4,0h0.3c0.2,0,0.3,0,0.4,0c0.1,0,0.1,0.1,0.1,0.1c0,0.1,0,0.1-0.1,0.2l-1.7,2.3l2,2.8
			C76.2,151,76.2,151.1,76.2,151.2z"/>
		<path class="st4" d="M77.6,151c-0.3-0.3-0.4-0.7-0.4-1.3v-6.5c0-0.2,0.2-0.3,0.6-0.3H78c0.4,0,0.6,0.1,0.6,0.3v6.5
			c0,0.2,0,0.4,0.1,0.5c0.1,0.1,0.2,0.2,0.4,0.2c0.1,0,0.2,0,0.2,0c0.1,0,0.1,0,0.2,0c0.1,0,0.2,0.1,0.2,0.3c0,0.2,0.1,0.3,0.1,0.4
			c0,0.3-0.3,0.5-1,0.5C78.3,151.4,77.9,151.2,77.6,151z"/>
		<path class="st4" d="M81,150.6c-0.5-0.5-0.7-1.2-0.7-2.2c0-1,0.2-1.8,0.7-2.3c0.5-0.5,1.1-0.8,2-0.8c0.8,0,1.4,0.3,1.8,0.8
			c0.4,0.5,0.6,1.2,0.6,2.1c0,0.1-0.1,0.2-0.2,0.4c-0.1,0.2-0.2,0.2-0.3,0.2h-3.1c0,0.5,0.2,0.8,0.4,1.1c0.2,0.2,0.6,0.3,1,0.3
			c0.4,0,0.8-0.1,1.2-0.3c0.1,0,0.2-0.1,0.2-0.1c0.1,0,0.2,0.1,0.3,0.3s0.2,0.4,0.2,0.4c0,0.2-0.1,0.3-0.3,0.4s-0.5,0.2-0.8,0.3
			c-0.3,0.1-0.6,0.1-0.9,0.1C82.2,151.4,81.4,151.1,81,150.6z M84,147.8c0-0.4-0.1-0.8-0.2-1c-0.2-0.2-0.4-0.4-0.8-0.4
			c-0.7,0-1.1,0.4-1.2,1.4H84z"/>
		<path class="st4" d="M86.6,144.2v-0.7c0-0.2,0.2-0.4,0.7-0.4c0.5,0,0.7,0.1,0.7,0.4v0.7c0,0.1,0,0.2-0.2,0.3
			c-0.1,0.1-0.3,0.1-0.6,0.1C86.8,144.6,86.6,144.5,86.6,144.2z M86.6,151v-5.3c0-0.2,0.2-0.3,0.6-0.3h0.2c0.4,0,0.6,0.1,0.6,0.3
			v5.3c0,0.2-0.2,0.3-0.6,0.3h-0.2C86.8,151.3,86.6,151.2,86.6,151z"/>
		<path class="st4" d="M89.6,151v-3.7c0-0.5,0-0.9-0.1-1.1s-0.1-0.4-0.1-0.4c0-0.1,0.1-0.2,0.4-0.2c0.2,0,0.5-0.1,0.7-0.1
			c0.1,0,0.2,0,0.3,0.2c0.1,0.1,0.1,0.2,0.1,0.3c0,0.1,0,0.2,0,0.2c0.2-0.2,0.4-0.4,0.8-0.6c0.3-0.2,0.6-0.2,1-0.2
			c1.1,0,1.7,0.6,1.7,1.8v3.8c0,0.1,0,0.2-0.2,0.2c-0.1,0-0.2,0.1-0.4,0.1h-0.2c-0.4,0-0.6-0.1-0.6-0.3v-3.6c0-0.6-0.3-0.8-0.8-0.8
			c-0.2,0-0.4,0.1-0.6,0.2c-0.2,0.1-0.4,0.3-0.5,0.5v3.8c0,0.2-0.2,0.3-0.6,0.3h-0.2C89.8,151.3,89.6,151.2,89.6,151z"/>
	</g>
</g>
<g>
	<path class="st6" d="M101.4,206.4h-81c-0.8,0-1.5-0.7-1.5-1.5v-25c0-0.8,0.7-1.5,1.5-1.5h81c0.8,0,1.5,0.7,1.5,1.5v25
		C102.9,205.8,102.2,206.4,101.4,206.4z"/>
	<g>
		<path class="st4" d="M26.5,196.8c-0.1,0-0.2-0.1-0.2-0.2v-7.2c0-0.2,0-0.2,0.1-0.3c0.1-0.1,0.2-0.1,0.3-0.1H29
			c0.7,0,1.3,0.2,1.8,0.5c0.5,0.3,0.8,1,0.8,1.9c0,0.6-0.2,1.2-0.4,1.5c-0.3,0.4-0.6,0.6-1,0.7c-0.4,0.1-0.7,0.2-1,0.2h-1.4v2.8
			c0,0.2-0.2,0.3-0.6,0.3h-0.3C26.7,196.8,26.6,196.8,26.5,196.8z M29.1,192.5c0.3,0,0.6-0.1,0.8-0.2s0.3-0.5,0.3-0.9
			s-0.1-0.7-0.4-0.9c-0.2-0.2-0.5-0.2-0.8-0.2h-1.2v2.3L29.1,192.5L29.1,192.5z"/>
		<path class="st4" d="M32.7,196.5v-3.7c0-0.5,0-0.9-0.1-1.1c0-0.2-0.1-0.4-0.1-0.4c0-0.1,0.1-0.2,0.4-0.2c0.2,0,0.5-0.1,0.7-0.1
			c0.1,0,0.2,0,0.2,0.2c0,0.1,0.1,0.2,0.1,0.3c0,0.1,0,0.2,0,0.2c0.4-0.6,0.8-0.8,1.2-0.8c0.2,0,0.4,0,0.5,0.2
			c0.1,0.1,0.2,0.2,0.2,0.4c0,0.2,0,0.3-0.1,0.5c-0.1,0.2-0.1,0.3-0.2,0.3c0,0-0.1,0-0.2,0c-0.1,0-0.2,0-0.3,0
			c-0.2,0-0.4,0.1-0.6,0.2c-0.2,0.2-0.3,0.3-0.4,0.4v3.8c0,0.2-0.2,0.3-0.6,0.3h-0.2C32.9,196.8,32.7,196.7,32.7,196.5z"/>
		<path class="st4" d="M36.8,189.7V189c0-0.2,0.2-0.4,0.7-0.4c0.5,0,0.7,0.1,0.7,0.4v0.7c0,0.1,0,0.2-0.2,0.3
			c-0.1,0.1-0.3,0.1-0.6,0.1C37,190.1,36.8,190,36.8,189.7z M36.8,196.5v-5.3c0-0.2,0.2-0.3,0.6-0.3h0.2c0.4,0,0.6,0.1,0.6,0.3v5.3
			c0,0.2-0.2,0.3-0.6,0.3h-0.2C37,196.8,36.8,196.7,36.8,196.5z"/>
		<path class="st4" d="M47.8,192.7v3.8c0,0.2-0.2,0.3-0.6,0.3h-0.2c-0.4,0-0.6-0.1-0.6-0.3v-3.6c0-0.6-0.3-0.8-0.8-0.8
			c-0.2,0-0.4,0.1-0.6,0.2c-0.2,0.2-0.3,0.3-0.4,0.5v3.8c0,0.2-0.2,0.3-0.6,0.3h-0.2c-0.2,0-0.4,0-0.4-0.1c-0.1,0-0.2-0.1-0.2-0.2
			v-3.6c0-0.6-0.3-0.8-0.8-0.8c-0.2,0-0.5,0.1-0.7,0.2c-0.2,0.2-0.3,0.3-0.4,0.4v3.8c0,0.2-0.2,0.3-0.6,0.3h-0.2
			c-0.4,0-0.6-0.1-0.6-0.3v-3.7c0-0.5,0-0.9-0.1-1.1s-0.1-0.4-0.1-0.4c0-0.1,0.1-0.2,0.4-0.2c0.2,0,0.5-0.1,0.7-0.1
			c0.1,0,0.2,0,0.2,0.2c0,0.1,0.1,0.2,0.1,0.3s0,0.2,0,0.2c0.2-0.2,0.4-0.4,0.7-0.6c0.3-0.2,0.6-0.2,1-0.2c0.8,0,1.3,0.3,1.5,0.9
			c0.2-0.2,0.4-0.4,0.8-0.6c0.3-0.2,0.6-0.2,1-0.2C47.2,190.8,47.8,191.5,47.8,192.7z"/>
		<path class="st4" d="M49.5,196.4c-0.3-0.3-0.4-0.7-0.4-1.2c0-1.4,1.1-2.1,3.4-2.1v-0.4c0-0.5-0.3-0.8-1-0.8c-0.3,0-0.5,0-0.7,0.1
			c-0.2,0.1-0.4,0.1-0.6,0.2c-0.2,0.1-0.2,0.1-0.3,0.1c-0.1,0-0.2-0.1-0.3-0.3s-0.2-0.4-0.2-0.5s0.1-0.2,0.3-0.4
			c0.2-0.1,0.4-0.2,0.8-0.3c0.4-0.1,0.7-0.1,1.1-0.1c0.8,0,1.4,0.2,1.8,0.5c0.4,0.3,0.6,0.8,0.6,1.4v2.3c0,0.5,0,0.9,0.1,1.1
			c0,0.2,0.1,0.4,0.1,0.4c0,0.1-0.1,0.2-0.4,0.2c-0.2,0-0.5,0.1-0.7,0.1c-0.1,0-0.2,0-0.2-0.2c0-0.1-0.1-0.2-0.1-0.4
			c0-0.1,0-0.2,0-0.2c-0.2,0.2-0.4,0.4-0.7,0.6c-0.3,0.2-0.6,0.3-1.1,0.3C50.2,196.9,49.8,196.8,49.5,196.4z M51.9,195.6
			c0.2-0.1,0.4-0.3,0.6-0.5v-0.8c-0.6,0-1.1,0.1-1.4,0.2c-0.4,0.1-0.5,0.4-0.5,0.7c0,0.2,0,0.4,0.2,0.5c0.1,0.1,0.3,0.2,0.5,0.2
			C51.4,195.8,51.7,195.7,51.9,195.6z"/>
		<path class="st4" d="M55.4,189.7V189c0-0.2,0.2-0.4,0.7-0.4c0.5,0,0.7,0.1,0.7,0.4v0.7c0,0.1,0,0.2-0.2,0.3
			c-0.1,0.1-0.3,0.1-0.6,0.1C55.7,190.1,55.4,190,55.4,189.7z M55.4,196.5v-5.3c0-0.2,0.2-0.3,0.6-0.3h0.2c0.4,0,0.6,0.1,0.6,0.3
			v5.3c0,0.2-0.2,0.3-0.6,0.3H56C55.6,196.8,55.4,196.7,55.4,196.5z"/>
		<path class="st4" d="M58.5,196.5v-3.7c0-0.5,0-0.9-0.1-1.1c0-0.2-0.1-0.4-0.1-0.4c0-0.1,0.1-0.2,0.4-0.2c0.2,0,0.5-0.1,0.7-0.1
			c0.1,0,0.2,0,0.2,0.2c0,0.1,0.1,0.2,0.1,0.3s0,0.2,0,0.2c0.4-0.6,0.8-0.8,1.2-0.8c0.2,0,0.4,0,0.5,0.2c0.1,0.1,0.2,0.2,0.2,0.4
			c0,0.2,0,0.3-0.1,0.5c-0.1,0.2-0.1,0.3-0.2,0.3c0,0-0.1,0-0.2,0c-0.1,0-0.2,0-0.3,0c-0.2,0-0.4,0.1-0.6,0.2
			c-0.2,0.2-0.3,0.3-0.4,0.4v3.8c0,0.2-0.2,0.3-0.6,0.3H59C58.7,196.8,58.5,196.7,58.5,196.5z"/>
		<path class="st4" d="M63,196.1c-0.5-0.5-0.7-1.2-0.7-2.2c0-1,0.2-1.8,0.7-2.3s1.1-0.8,2-0.8c0.8,0,1.4,0.3,1.8,0.8
			c0.4,0.5,0.6,1.2,0.6,2.1c0,0.1-0.1,0.2-0.2,0.4c-0.1,0.2-0.2,0.2-0.3,0.2h-3.1c0,0.5,0.2,0.8,0.4,1.1c0.2,0.2,0.6,0.3,1,0.3
			c0.4,0,0.8-0.1,1.2-0.3c0.1,0,0.2-0.1,0.2-0.1c0.1,0,0.2,0.1,0.3,0.3s0.2,0.4,0.2,0.4c0,0.2-0.1,0.3-0.3,0.4
			c-0.2,0.1-0.5,0.2-0.8,0.3c-0.3,0.1-0.6,0.1-0.9,0.1C64.2,196.9,63.5,196.6,63,196.1z M66,193.4c0-0.4-0.1-0.8-0.2-1
			c-0.2-0.2-0.4-0.4-0.8-0.4c-0.7,0-1.1,0.4-1.2,1.4H66z"/>
		<path class="st4" d="M76.2,196.7c0,0.1-0.2,0.2-0.6,0.2h-0.3c-0.2,0-0.3,0-0.4,0s-0.2-0.1-0.2-0.2l-1.8-2.6h0v2.5
			c0,0.2-0.2,0.3-0.6,0.3H72c-0.4,0-0.6-0.1-0.6-0.3v-7.8c0-0.2,0.2-0.3,0.6-0.3h0.2c0.4,0,0.6,0.1,0.6,0.3v4.6h0l1.6-2.2
			c0-0.1,0.1-0.1,0.2-0.2c0.1,0,0.2,0,0.4,0h0.3c0.2,0,0.3,0,0.4,0s0.1,0.1,0.1,0.1c0,0.1,0,0.1-0.1,0.2l-1.7,2.3l2,2.8
			C76.2,196.6,76.2,196.6,76.2,196.7z"/>
		<path class="st4" d="M77.6,196.5c-0.3-0.3-0.4-0.7-0.4-1.3v-6.5c0-0.2,0.2-0.3,0.6-0.3H78c0.4,0,0.6,0.1,0.6,0.3v6.5
			c0,0.2,0,0.4,0.1,0.5c0.1,0.1,0.2,0.2,0.4,0.2c0.1,0,0.2,0,0.2,0c0.1,0,0.1,0,0.2,0c0.1,0,0.2,0.1,0.2,0.3c0,0.2,0.1,0.3,0.1,0.4
			c0,0.3-0.3,0.5-1,0.5C78.3,196.9,77.9,196.8,77.6,196.5z"/>
		<path class="st4" d="M81,196.1c-0.5-0.5-0.7-1.2-0.7-2.2c0-1,0.2-1.8,0.7-2.3s1.1-0.8,2-0.8c0.8,0,1.4,0.3,1.8,0.8
			c0.4,0.5,0.6,1.2,0.6,2.1c0,0.1-0.1,0.2-0.2,0.4c-0.1,0.2-0.2,0.2-0.3,0.2h-3.1c0,0.5,0.2,0.8,0.4,1.1c0.2,0.2,0.6,0.3,1,0.3
			c0.4,0,0.8-0.1,1.2-0.3c0.1,0,0.2-0.1,0.2-0.1c0.1,0,0.2,0.1,0.3,0.3s0.2,0.4,0.2,0.4c0,0.2-0.1,0.3-0.3,0.4s-0.5,0.2-0.8,0.3
			c-0.3,0.1-0.6,0.1-0.9,0.1C82.2,196.9,81.4,196.6,81,196.1z M84,193.4c0-0.4-0.1-0.8-0.2-1c-0.2-0.2-0.4-0.4-0.8-0.4
			c-0.7,0-1.1,0.4-1.2,1.4H84z"/>
		<path class="st4" d="M86.6,189.7V189c0-0.2,0.2-0.4,0.7-0.4c0.5,0,0.7,0.1,0.7,0.4v0.7c0,0.1,0,0.2-0.2,0.3
			c-0.1,0.1-0.3,0.1-0.6,0.1C86.8,190.1,86.6,190,86.6,189.7z M86.6,196.5v-5.3c0-0.2,0.2-0.3,0.6-0.3h0.2c0.4,0,0.6,0.1,0.6,0.3
			v5.3c0,0.2-0.2,0.3-0.6,0.3h-0.2C86.8,196.8,86.6,196.7,86.6,196.5z"/>
		<path class="st4" d="M89.6,196.5v-3.7c0-0.5,0-0.9-0.1-1.1s-0.1-0.4-0.1-0.4c0-0.1,0.1-0.2,0.4-0.2c0.2,0,0.5-0.1,0.7-0.1
			c0.1,0,0.2,0,0.3,0.2c0.1,0.1,0.1,0.2,0.1,0.3c0,0.1,0,0.2,0,0.2c0.2-0.2,0.4-0.4,0.8-0.6c0.3-0.2,0.6-0.2,1-0.2
			c1.1,0,1.7,0.6,1.7,1.8v3.8c0,0.1,0,0.2-0.2,0.2c-0.1,0-0.2,0.1-0.4,0.1h-0.2c-0.4,0-0.6-0.1-0.6-0.3v-3.6c0-0.6-0.3-0.8-0.8-0.8
			c-0.2,0-0.4,0.1-0.6,0.2c-0.2,0.1-0.4,0.3-0.5,0.5v3.8c0,0.2-0.2,0.3-0.6,0.3h-0.2C89.8,196.8,89.6,196.7,89.6,196.5z"/>
	</g>
</g>
<g>
	<g>
		<path class="st2" d="M172.8,278.5c-0.1,0-0.1-0.1-0.1-0.2c0,0,0.1-0.5,0.2-1.4c0,0,0.1-0.5,0.3-1.5H172c-0.1,0-0.2,0-0.2-0.1
			c0-0.1-0.1-0.2-0.1-0.4v-0.3c0-0.2,0-0.3,0.1-0.4c0-0.1,0.1-0.1,0.2-0.1h1.4l0.4-2.4h-1.3c-0.1,0-0.2,0-0.2-0.1
			c0-0.1-0.1-0.2-0.1-0.4V271c0-0.2,0-0.3,0.1-0.4c0-0.1,0.1-0.1,0.2-0.1h1.5l0.5-2.7c0-0.1,0.1-0.2,0.2-0.3c0.1,0,0.2-0.1,0.5-0.1
			h0.1c0.3,0,0.4,0.1,0.4,0.2l-0.5,2.8h1.9l0.5-2.7c0-0.1,0.1-0.2,0.2-0.3c0.1,0,0.2-0.1,0.5-0.1h0.1c0.3,0,0.4,0.1,0.4,0.2
			l-0.5,2.8h1.1c0.1,0,0.2,0,0.2,0.1c0,0.1,0.1,0.2,0.1,0.4v0.3c0,0.2,0,0.3-0.1,0.4c0,0.1-0.1,0.1-0.2,0.1h-1.3l-0.4,2.4h1.2
			c0.1,0,0.2,0,0.2,0.1c0,0.1,0.1,0.2,0.1,0.4v0.3c0,0.2,0,0.3-0.1,0.4c0,0.1-0.1,0.1-0.2,0.1h-1.5l-0.5,2.8c0,0.1-0.1,0.2-0.2,0.3
			s-0.3,0.1-0.5,0.1h-0.1c-0.2,0-0.3,0-0.4-0.1c-0.1,0-0.1-0.1-0.1-0.2c0,0,0.1-0.5,0.2-1.4c0,0,0.1-0.5,0.3-1.5h-1.9l-0.5,2.8
			c0,0.1-0.1,0.2-0.2,0.3c-0.1,0.1-0.3,0.1-0.5,0.1h-0.1C173,278.6,172.9,278.6,172.8,278.5z M176.5,274.2l0.4-2.4H175l-0.4,2.4
			H176.5z"/>
		<path class="st2" d="M180.9,278.3c-0.1-0.2-0.1-0.3-0.1-0.5c0-0.1,0-0.2,0.1-0.3l4.1-5.2c0.3-0.4,0.6-0.8,0.7-1
			c0.2-0.2,0.2-0.5,0.3-0.6c0-0.2,0.1-0.4,0.1-0.6c0-0.5-0.2-0.9-0.5-1.2c-0.4-0.3-0.8-0.4-1.5-0.4c-0.4,0-0.8,0-1.1,0.2
			c-0.3,0.1-0.6,0.3-0.9,0.5c-0.2,0.1-0.3,0.2-0.4,0.2c-0.1,0-0.2-0.1-0.3-0.3c-0.1-0.2-0.2-0.4-0.2-0.5c0-0.2,0.2-0.4,0.5-0.6
			c0.3-0.2,0.7-0.3,1.2-0.4c0.4-0.1,0.8-0.2,1.2-0.2c1,0,1.9,0.2,2.5,0.7c0.6,0.5,0.9,1.2,0.9,2c0,0.5-0.1,1-0.2,1.4
			c-0.2,0.4-0.5,0.9-0.9,1.5c-0.4,0.6-1.3,1.6-2.5,3.1l-1.2,1.4h4.6c0.1,0,0.2,0,0.2,0.1c0,0.1,0.1,0.2,0.1,0.4v0.2
			c0,0.2,0,0.3-0.1,0.4c0,0.1-0.1,0.1-0.2,0.1h-6.1C181,278.6,181,278.5,180.9,278.3z"/>
		<path class="st2" d="M190.3,278.5c-0.1,0-0.2-0.1-0.2-0.2c0,0,0-0.1,0.1-0.2l4.6-9.6h-5c-0.1,0-0.2,0-0.2-0.1
			c0-0.1-0.1-0.2-0.1-0.4v-0.2c0-0.2,0-0.3,0.1-0.4c0-0.1,0.1-0.1,0.2-0.1h6.3c0.1,0,0.1,0.1,0.2,0.3c0.1,0.2,0.1,0.4,0.1,0.5
			c0,0,0,0.1,0,0.2l-4.7,10c0,0.1-0.1,0.1-0.2,0.2c-0.1,0-0.2,0.1-0.4,0.1h-0.2C190.6,278.6,190.4,278.6,190.3,278.5z"/>
		<path class="st2" d="M199.4,278.5c-0.4-0.1-0.8-0.2-1.1-0.4c-0.3-0.2-0.4-0.3-0.4-0.4s0.1-0.3,0.2-0.5c0.1-0.2,0.2-0.3,0.4-0.3
			c0,0,0.2,0,0.4,0.2c0.3,0.1,0.6,0.2,0.9,0.3c0.3,0.1,0.6,0.1,1.1,0.1c0.7,0,1.3-0.2,1.8-0.6s0.7-1,0.7-1.7s-0.2-1.2-0.7-1.6
			s-1.2-0.6-2.2-0.6h-1.4c-0.2,0-0.3,0-0.4-0.1c-0.1-0.1-0.1-0.2-0.1-0.4l0.3-4.6c0-0.2,0-0.3,0.1-0.4c0.1-0.1,0.2-0.1,0.4-0.1h4.2
			c0.1,0,0.2,0,0.2,0.1c0,0.1,0.1,0.2,0.1,0.4v0.2c0,0.2,0,0.3-0.1,0.4c0,0.1-0.1,0.1-0.2,0.1h-3.5l-0.2,3.3h0.8
			c0.6,0,1.2,0.1,1.8,0.3c0.6,0.2,1.1,0.6,1.4,1.1c0.4,0.5,0.6,1.2,0.6,2c0,1.3-0.4,2.2-1.1,2.7c-0.8,0.5-1.6,0.8-2.7,0.8
			C200.3,278.6,199.8,278.6,199.4,278.5z"/>
		<path class="st2" d="M207.8,278.3c-0.1-0.2-0.2-0.4-0.2-0.5c0-0.1,0-0.2,0.1-0.2c1-0.4,1.9-1,2.6-1.8c0.6-0.7,1.1-1.6,1.4-2.5
			c-0.6,0.4-1.3,0.5-2.2,0.5c-0.6,0-1.1-0.1-1.6-0.4c-0.5-0.3-0.8-0.6-1.1-1.1c-0.3-0.5-0.4-1-0.4-1.7c0-0.7,0.2-1.2,0.4-1.8
			c0.3-0.5,0.7-0.9,1.2-1.2c0.5-0.3,1.1-0.4,1.8-0.4c1.1,0,2,0.4,2.6,1c0.6,0.7,0.9,1.7,0.9,3c0,1.4-0.3,2.7-1,3.8s-1.4,2-2.3,2.6
			s-1.5,0.9-1.9,0.9C208.1,278.6,208,278.5,207.8,278.3z M212,272.1c0-0.4,0.1-0.8,0.1-1c0-1-0.2-1.7-0.6-2.1
			c-0.4-0.4-0.9-0.6-1.5-0.6c-0.3,0-0.6,0.1-0.9,0.2c-0.3,0.2-0.6,0.4-0.8,0.7c-0.2,0.3-0.3,0.7-0.3,1.2c0,0.7,0.2,1.3,0.6,1.6
			c0.4,0.4,0.9,0.5,1.5,0.5C210.7,272.7,211.4,272.5,212,272.1z"/>
		<path class="st2" d="M216.6,278.5c-0.5-0.1-0.9-0.2-1.2-0.4c-0.3-0.1-0.4-0.3-0.4-0.4c0-0.2,0.1-0.3,0.2-0.5
			c0.1-0.2,0.2-0.3,0.4-0.3c0.1,0,0.2,0,0.4,0.1c0.7,0.3,1.4,0.4,2.1,0.4c0.6,0,1.1-0.2,1.6-0.5c0.5-0.4,0.7-0.9,0.7-1.7
			s-0.2-1.3-0.6-1.6c-0.4-0.3-1-0.5-1.8-0.5h-0.5c-0.1,0-0.2,0-0.2-0.1c0-0.1-0.1-0.2-0.1-0.4v-0.2c0-0.2,0-0.3,0.1-0.4
			c0-0.1,0.1-0.1,0.2-0.1h0.5c0.5,0,0.9-0.1,1.2-0.4c0.3-0.2,0.6-0.5,0.7-0.8c0.1-0.3,0.2-0.6,0.2-0.9c0-0.4-0.2-0.8-0.4-1.1
			c-0.3-0.3-0.8-0.5-1.5-0.5c-0.4,0-0.8,0-1.1,0.1c-0.3,0.1-0.6,0.2-0.8,0.3c-0.2,0.1-0.3,0.1-0.4,0.1c-0.1,0-0.2-0.1-0.3-0.3
			c-0.1-0.2-0.2-0.4-0.2-0.5c0-0.2,0.3-0.4,1-0.6s1.3-0.2,1.8-0.2c1,0,1.8,0.2,2.4,0.7c0.6,0.5,0.9,1.2,0.9,2.1c0,0.5-0.2,1-0.5,1.4
			c-0.3,0.4-0.7,0.7-1.2,0.8v0.1c0.5,0.1,1,0.5,1.4,1c0.4,0.5,0.6,1.2,0.6,2c0,0.8-0.2,1.4-0.5,1.9c-0.4,0.5-0.8,0.9-1.4,1.1
			c-0.6,0.2-1.1,0.4-1.7,0.4C217.6,278.6,217,278.6,216.6,278.5z"/>
		<path class="st2" d="M224.5,278.5c-0.1,0-0.2-0.1-0.2-0.2c0,0,0-0.1,0.1-0.2l4.6-9.6h-5c-0.1,0-0.2,0-0.2-0.1
			c0-0.1-0.1-0.2-0.1-0.4v-0.2c0-0.2,0-0.3,0.1-0.4c0-0.1,0.1-0.1,0.2-0.1h6.3c0.1,0,0.1,0.1,0.2,0.3c0.1,0.2,0.1,0.4,0.1,0.5
			c0,0,0,0.1,0,0.2l-4.7,10c0,0.1-0.1,0.1-0.2,0.2c-0.1,0-0.2,0.1-0.4,0.1h-0.2C224.8,278.6,224.6,278.6,224.5,278.5z"/>
	</g>
	<path class="st5" d="M161,284.6h-19.4c-0.9,0-1.6-0.7-1.6-1.6v-19.4c0-0.9,0.7-1.6,1.6-1.6H161c0.9,0,1.6,0.7,1.6,1.6V283
		C162.6,283.8,161.9,284.6,161,284.6z"/>
</g>
<g>
	<g>
		<path class="st2" d="M292.3,278.5c-0.1,0-0.1-0.1-0.1-0.2c0,0,0.1-0.5,0.2-1.4c0,0,0.1-0.5,0.3-1.5h-1.2c-0.1,0-0.2,0-0.2-0.1
			s-0.1-0.2-0.1-0.4v-0.3c0-0.2,0-0.3,0.1-0.4c0-0.1,0.1-0.1,0.2-0.1h1.4l0.4-2.4h-1.3c-0.1,0-0.2,0-0.2-0.1c0-0.1-0.1-0.2-0.1-0.4
			V271c0-0.2,0-0.3,0.1-0.4c0-0.1,0.1-0.1,0.2-0.1h1.5l0.5-2.7c0-0.1,0.1-0.2,0.2-0.3c0.1,0,0.2-0.1,0.5-0.1h0.1
			c0.3,0,0.4,0.1,0.4,0.2l-0.5,2.8h1.9l0.5-2.7c0-0.1,0.1-0.2,0.2-0.3c0.1,0,0.2-0.1,0.5-0.1h0.1c0.3,0,0.4,0.1,0.4,0.2l-0.5,2.8
			h1.1c0.1,0,0.2,0,0.2,0.1c0,0.1,0.1,0.2,0.1,0.4v0.3c0,0.2,0,0.3-0.1,0.4c0,0.1-0.1,0.1-0.2,0.1h-1.3l-0.4,2.4h1.2
			c0.1,0,0.2,0,0.2,0.1c0,0.1,0.1,0.2,0.1,0.4v0.3c0,0.2,0,0.3-0.1,0.4c0,0.1-0.1,0.1-0.2,0.1H297l-0.5,2.8c0,0.1-0.1,0.2-0.2,0.3
			c-0.1,0.1-0.3,0.1-0.5,0.1h-0.1c-0.2,0-0.3,0-0.4-0.1c-0.1,0-0.1-0.1-0.1-0.2c0,0,0.1-0.5,0.2-1.4c0,0,0.1-0.5,0.3-1.5h-1.9
			l-0.5,2.8c0,0.1-0.1,0.2-0.2,0.3c-0.1,0.1-0.3,0.1-0.5,0.1h-0.1C292.5,278.6,292.4,278.6,292.3,278.5z M296,274.2l0.4-2.4h-1.9
			l-0.4,2.4H296z"/>
		<path class="st2" d="M301.2,277.6c-0.6-0.7-0.9-1.7-0.9-3c0-1.4,0.3-2.7,1-3.8c0.7-1.1,1.4-2,2.3-2.6s1.5-0.9,1.9-0.9
			c0.2,0,0.3,0.1,0.4,0.3c0.1,0.2,0.2,0.4,0.2,0.5c0,0.1,0,0.2-0.1,0.2c-1,0.4-1.9,1-2.6,1.8c-0.6,0.7-1.1,1.6-1.4,2.5
			c0.6-0.4,1.3-0.5,2.2-0.5c0.6,0,1.1,0.1,1.6,0.4c0.5,0.3,0.8,0.6,1.1,1.1c0.3,0.5,0.4,1,0.4,1.7c0,0.7-0.2,1.2-0.4,1.8
			c-0.3,0.5-0.7,0.9-1.2,1.2c-0.5,0.3-1.1,0.4-1.8,0.4C302.6,278.6,301.8,278.3,301.2,277.6z M304.8,277.2c0.3-0.2,0.6-0.4,0.8-0.7
			c0.2-0.3,0.3-0.7,0.3-1.2c0-0.7-0.2-1.3-0.6-1.6c-0.4-0.4-0.9-0.5-1.5-0.5c-0.7,0-1.4,0.2-2,0.6c0,0.4-0.1,0.8-0.1,1
			c0,1,0.2,1.7,0.6,2.1c0.4,0.4,0.9,0.6,1.5,0.6C304.1,277.5,304.4,277.4,304.8,277.2z"/>
		<path class="st2" d="M309.8,278.5c-0.1,0-0.2-0.1-0.2-0.2c0,0,0-0.1,0.1-0.2l4.6-9.6h-5c-0.1,0-0.2,0-0.2-0.1
			c0-0.1-0.1-0.2-0.1-0.4v-0.2c0-0.2,0-0.3,0.1-0.4c0-0.1,0.1-0.1,0.2-0.1h6.3c0.1,0,0.1,0.1,0.2,0.3c0.1,0.2,0.1,0.4,0.1,0.5
			c0,0,0,0.1,0,0.2l-4.7,10c0,0.1-0.1,0.1-0.2,0.2c-0.1,0-0.2,0.1-0.4,0.1h-0.2C310.1,278.6,309.9,278.6,309.8,278.5z"/>
		<path class="st2" d="M318.3,277.6c-0.6-0.7-0.9-1.7-0.9-3c0-1.4,0.3-2.7,1-3.8c0.7-1.1,1.4-2,2.3-2.6s1.5-0.9,1.9-0.9
			c0.2,0,0.3,0.1,0.4,0.3c0.1,0.2,0.2,0.4,0.2,0.5c0,0.1,0,0.2-0.1,0.2c-1,0.4-1.9,1-2.6,1.8c-0.6,0.7-1.1,1.6-1.4,2.5
			c0.6-0.4,1.3-0.5,2.2-0.5c0.6,0,1.1,0.1,1.6,0.4c0.5,0.3,0.8,0.6,1.1,1.1c0.3,0.5,0.4,1,0.4,1.7c0,0.7-0.2,1.2-0.4,1.8
			c-0.3,0.5-0.7,0.9-1.2,1.2c-0.5,0.3-1.1,0.4-1.8,0.4C319.8,278.6,318.9,278.3,318.3,277.6z M321.9,277.2c0.3-0.2,0.6-0.4,0.8-0.7
			c0.2-0.3,0.3-0.7,0.3-1.2c0-0.7-0.2-1.3-0.6-1.6c-0.4-0.4-0.9-0.5-1.5-0.5c-0.7,0-1.4,0.2-2,0.6c0,0.4-0.1,0.8-0.1,1
			c0,1,0.2,1.7,0.6,2.1c0.4,0.4,0.9,0.6,1.5,0.6C321.2,277.5,321.6,277.4,321.9,277.2z"/>
		<path class="st2" d="M327.4,277.3c-0.8-0.9-1.2-2.4-1.2-4.3c0-3.8,1.7-5.7,5.2-5.7c0.5,0,1,0,1.5,0.2c0.5,0.1,0.9,0.2,1.2,0.4
			c0.2,0.2,0.4,0.3,0.4,0.4c0,0.2-0.1,0.4-0.2,0.6c-0.1,0.2-0.2,0.4-0.4,0.4c0,0-0.2-0.1-0.4-0.2s-0.5-0.2-0.9-0.4
			c-0.4-0.1-0.8-0.2-1.2-0.2c-1.3,0-2.2,0.4-2.8,1.1s-0.9,1.8-0.9,3.4c0,1.5,0.3,2.7,0.9,3.4c0.6,0.7,1.5,1.1,2.8,1.1
			c0.5,0,1-0.1,1.4-0.2s0.8-0.3,1.1-0.5c0.2-0.1,0.2-0.2,0.3-0.2c0.1,0,0.2,0.1,0.4,0.4c0.1,0.2,0.2,0.4,0.2,0.5
			c0,0.2-0.2,0.3-0.5,0.5c-0.3,0.2-0.7,0.3-1.2,0.4s-1,0.2-1.6,0.2C329.5,278.6,328.2,278.2,327.4,277.3z"/>
		<path class="st2" d="M336.8,278.4c-0.1-0.1-0.1-0.2-0.1-0.4v-10.2c0-0.2,0-0.3,0.1-0.4c0.1-0.1,0.2-0.1,0.4-0.1h2.9
			c1.2,0,2,0.2,2.7,0.8c0.6,0.5,0.9,1.2,0.9,2.1c0,0.5-0.2,1-0.5,1.5c-0.4,0.5-0.8,0.8-1.2,0.9v0.1c0,0,0.2,0,0.6,0.2
			c0.4,0.2,0.8,0.5,1.1,0.9c0.3,0.4,0.5,0.9,0.5,1.5c0,2.2-1.4,3.2-4.2,3.2h-2.8C337,278.6,336.8,278.5,336.8,278.4z M339.9,272.2
			c0.6,0,1.2-0.2,1.6-0.6c0.4-0.4,0.6-0.8,0.6-1.3c0-0.6-0.2-1-0.6-1.3c-0.4-0.3-0.9-0.4-1.7-0.4h-1.8v3.6L339.9,272.2L339.9,272.2z
			 M340.4,277.3c0.7,0,1.2-0.2,1.6-0.6c0.4-0.4,0.6-0.9,0.6-1.5c0-0.6-0.2-1-0.6-1.4c-0.4-0.3-1-0.5-1.8-0.5H338v3.9L340.4,277.3
			L340.4,277.3z"/>
		<path class="st2" d="M347,278c-0.6-0.4-1-1-1.3-1.9c-0.3-0.8-0.5-1.9-0.5-3.2c0-1.3,0.2-2.3,0.5-3.2c0.3-0.8,0.8-1.5,1.3-1.9
			c0.6-0.4,1.2-0.6,1.8-0.6c0.7,0,1.3,0.2,1.8,0.6c0.6,0.4,1,1,1.3,1.9c0.3,0.8,0.5,1.9,0.5,3.2c0,1.3-0.2,2.3-0.5,3.2
			c-0.3,0.8-0.8,1.5-1.3,1.9c-0.6,0.4-1.2,0.6-1.8,0.6C348.2,278.6,347.6,278.4,347,278z M350,277c0.4-0.3,0.6-0.8,0.8-1.5
			c0.2-0.7,0.3-1.6,0.3-2.6c0-1-0.1-1.9-0.3-2.6c-0.2-0.7-0.5-1.2-0.8-1.5c-0.4-0.3-0.7-0.5-1.2-0.5c-0.4,0-0.8,0.2-1.1,0.4
			c-0.4,0.3-0.6,0.8-0.8,1.5c-0.2,0.7-0.3,1.6-0.3,2.6c0,1,0.1,1.9,0.3,2.6c0.2,0.7,0.5,1.2,0.8,1.5c0.4,0.3,0.7,0.4,1.1,0.4
			C349.3,277.5,349.6,277.4,350,277z"/>
	</g>
	<path class="st1" d="M280.6,284.6h-19.4c-0.9,0-1.6-0.7-1.6-1.6v-19.4c0-0.9,0.7-1.6,1.6-1.6h19.4c0.9,0,1.6,0.7,1.6,1.6V283
		C282.2,283.8,281.4,284.6,280.6,284.6z"/>
</g>
<g>
	<g>
		<path class="st2" d="M412,278.5c-0.1,0-0.1-0.1-0.1-0.2c0,0,0.1-0.5,0.2-1.4c0,0,0.1-0.5,0.3-1.5h-1.2c-0.1,0-0.2,0-0.2-0.1
			c0-0.1-0.1-0.2-0.1-0.4v-0.3c0-0.2,0-0.3,0.1-0.4c0-0.1,0.1-0.1,0.2-0.1h1.4l0.4-2.4h-1.3c-0.1,0-0.2,0-0.2-0.1s-0.1-0.2-0.1-0.4
			V271c0-0.2,0-0.3,0.1-0.4c0-0.1,0.1-0.1,0.2-0.1h1.5l0.5-2.7c0-0.1,0.1-0.2,0.2-0.3c0.1,0,0.2-0.1,0.5-0.1h0.1
			c0.3,0,0.4,0.1,0.4,0.2l-0.5,2.8h1.9l0.5-2.7c0-0.1,0.1-0.2,0.2-0.3c0.1,0,0.2-0.1,0.5-0.1h0.1c0.3,0,0.4,0.1,0.4,0.2l-0.5,2.8
			h1.1c0.1,0,0.2,0,0.2,0.1c0,0.1,0.1,0.2,0.1,0.4v0.3c0,0.2,0,0.3-0.1,0.4c0,0.1-0.1,0.1-0.2,0.1h-1.3l-0.4,2.4h1.2
			c0.1,0,0.2,0,0.2,0.1c0,0.1,0.1,0.2,0.1,0.4v0.3c0,0.2,0,0.3-0.1,0.4c0,0.1-0.1,0.1-0.2,0.1h-1.5l-0.5,2.8c0,0.1-0.1,0.2-0.2,0.3
			c-0.1,0.1-0.3,0.1-0.5,0.1h-0.1c-0.2,0-0.3,0-0.4-0.1c-0.1,0-0.1-0.1-0.1-0.2c0,0,0.1-0.5,0.2-1.4c0,0,0.1-0.5,0.3-1.5h-1.9
			l-0.5,2.8c0,0.1-0.1,0.2-0.2,0.3c-0.1,0.1-0.3,0.1-0.5,0.1h-0.1C412.2,278.6,412.1,278.5,412,278.5z M415.8,274.2l0.4-2.4h-1.9
			l-0.4,2.4H415.8z"/>
		<path class="st2" d="M419.4,278.3c0,0,0-0.1,0-0.2l3.8-10.5c0.1-0.2,0.3-0.2,0.6-0.2h0.5c0.4,0,0.6,0.1,0.6,0.2l3.8,10.5
			c0,0.1,0,0.2,0,0.2c0,0.2-0.2,0.3-0.7,0.3h-0.1c-0.4,0-0.6-0.1-0.6-0.2l-1-2.6h-4.7l-0.9,2.6c0,0.2-0.3,0.2-0.6,0.2h-0.1
			C419.7,278.6,419.4,278.4,419.4,278.3z M426,274.4l-1.7-4.8c0-0.2-0.1-0.5-0.2-0.9h0c-0.1,0.4-0.2,0.7-0.2,0.9l-1.7,4.8H426z"/>
		<path class="st2" d="M430.6,278.2v-10.4c0-0.2,0-0.3,0.1-0.4c0.1-0.1,0.2-0.1,0.4-0.1h5c0.1,0,0.2,0,0.2,0.1
			c0,0.1,0.1,0.2,0.1,0.4v0.2c0,0.2,0,0.3-0.1,0.4s-0.1,0.1-0.2,0.1H432v3.6h3.8c0.1,0,0.2,0,0.2,0.1c0,0.1,0.1,0.2,0.1,0.4v0.2
			c0,0.2,0,0.3-0.1,0.4c0,0.1-0.1,0.1-0.2,0.1H432v4.8c0,0.2-0.2,0.4-0.6,0.4h-0.1C430.8,278.6,430.6,278.4,430.6,278.2z"/>
		<path class="st2" d="M439.3,277.2c-0.8-0.9-1.2-2.4-1.2-4.3c0-3.8,1.7-5.7,5.2-5.7c0.5,0,1,0,1.5,0.2c0.5,0.1,0.9,0.2,1.2,0.4
			c0.2,0.2,0.4,0.3,0.4,0.4c0,0.2-0.1,0.4-0.2,0.6c-0.1,0.2-0.2,0.4-0.4,0.4c0,0-0.2-0.1-0.4-0.2s-0.5-0.2-0.9-0.4
			c-0.4-0.1-0.8-0.2-1.2-0.2c-1.3,0-2.2,0.4-2.8,1.1c-0.6,0.7-0.9,1.8-0.9,3.4c0,1.5,0.3,2.7,0.9,3.4c0.6,0.7,1.5,1.1,2.8,1.1
			c0.5,0,1-0.1,1.4-0.2c0.4-0.1,0.8-0.3,1.1-0.5c0.2-0.1,0.2-0.2,0.3-0.2c0.1,0,0.2,0.1,0.4,0.4c0.1,0.2,0.2,0.4,0.2,0.5
			c0,0.2-0.2,0.3-0.5,0.5c-0.3,0.2-0.7,0.3-1.2,0.4s-1,0.2-1.6,0.2C441.4,278.6,440.1,278.2,439.3,277.2z"/>
		<path class="st2" d="M448.6,278.2v-10.4c0-0.2,0-0.3,0.1-0.4c0.1-0.1,0.2-0.1,0.4-0.1h5c0.1,0,0.2,0,0.2,0.1
			c0,0.1,0.1,0.2,0.1,0.4v0.2c0,0.2,0,0.3-0.1,0.4c0,0.1-0.1,0.1-0.2,0.1H450v3.6h3.8c0.1,0,0.2,0,0.2,0.1c0,0.1,0.1,0.2,0.1,0.4
			v0.2c0,0.2,0,0.3-0.1,0.4c0,0.1-0.1,0.1-0.2,0.1H450v4.8c0,0.2-0.2,0.4-0.6,0.4h-0.1C448.8,278.6,448.6,278.4,448.6,278.2z"/>
		<path class="st2" d="M457.2,278.2c-0.1-0.2-0.2-0.4-0.2-0.5c0-0.1,0-0.2,0.1-0.2c1-0.4,1.9-1,2.6-1.8c0.6-0.7,1.1-1.6,1.4-2.5
			c-0.6,0.4-1.3,0.5-2.2,0.5c-0.6,0-1.1-0.1-1.6-0.4c-0.5-0.3-0.8-0.6-1.1-1.1c-0.3-0.5-0.4-1-0.4-1.7c0-0.7,0.2-1.2,0.4-1.8
			c0.3-0.5,0.7-0.9,1.2-1.2c0.5-0.3,1.1-0.4,1.8-0.4c1.1,0,2,0.4,2.6,1c0.6,0.7,0.9,1.7,0.9,3c0,1.4-0.3,2.7-1,3.8
			c-0.7,1.1-1.4,2-2.3,2.6c-0.8,0.6-1.5,0.9-1.9,0.9C457.4,278.6,457.3,278.4,457.2,278.2z M461.4,272.1c0-0.4,0.1-0.8,0.1-1
			c0-1-0.2-1.7-0.6-2.1c-0.4-0.4-0.9-0.6-1.5-0.6c-0.3,0-0.6,0.1-0.9,0.2c-0.3,0.2-0.6,0.4-0.8,0.7c-0.2,0.3-0.3,0.7-0.3,1.2
			c0,0.7,0.2,1.3,0.6,1.6c0.4,0.4,0.9,0.5,1.5,0.5C460.1,272.6,460.8,272.4,461.4,272.1z"/>
		<path class="st2" d="M465.3,278.4c-0.1-0.1-0.1-0.2-0.1-0.4v-10.2c0-0.2,0-0.3,0.1-0.4c0.1-0.1,0.2-0.1,0.4-0.1h3.2
			c1.5,0,2.7,0.4,3.6,1.3s1.4,2.3,1.4,4.3c0,2-0.4,3.4-1.4,4.3s-2.1,1.3-3.6,1.3h-3.2C465.5,278.5,465.4,278.5,465.3,278.4z
			 M468.8,277.3c1.1,0,2-0.4,2.6-1c0.7-0.7,1-1.8,1-3.3s-0.3-2.6-1-3.3c-0.7-0.7-1.5-1.1-2.6-1.1h-2.2v8.8H468.8z"/>
	</g>
	<path class="st6" d="M400.3,284.5h-19.4c-0.9,0-1.6-0.7-1.6-1.6v-19.4c0-0.9,0.7-1.6,1.6-1.6h19.4c0.9,0,1.6,0.7,1.6,1.6v19.4
		C401.9,283.8,401.2,284.5,400.3,284.5z"/>
</g>
<g>
	<path class="st7" d="M241,70.1h-88.9c-0.8,0-1.6-0.7-1.6-1.6V43.7c0-0.8,0.7-1.6,1.6-1.6H241c0.8,0,1.6,0.7,1.6,1.6v24.9
		C242.6,69.4,241.8,70.1,241,70.1z"/>
	<g>
		<path class="st3" d="M159.8,60.4c-0.4-0.1-0.7-0.2-0.9-0.4c-0.2-0.2-0.3-0.3-0.3-0.4c0-0.2,0.1-0.3,0.2-0.5
			c0.2-0.2,0.3-0.3,0.4-0.3c0,0,0.1,0,0.3,0.1c0.2,0.1,0.5,0.2,0.7,0.3c0.2,0.1,0.5,0.1,0.8,0.1c0.3,0,0.6-0.1,0.8-0.2
			c0.2-0.2,0.4-0.4,0.4-0.7c0-0.2,0-0.4-0.2-0.5c-0.1-0.2-0.3-0.2-0.4-0.4c-0.2-0.1-0.4-0.2-0.7-0.3l-0.4-0.2
			c-0.4-0.2-0.6-0.3-0.9-0.5c-0.2-0.2-0.4-0.4-0.6-0.7c-0.2-0.3-0.2-0.6-0.2-1.1c0-0.5,0.1-0.9,0.4-1.2c0.2-0.3,0.6-0.6,1-0.8
			c0.4-0.2,0.8-0.2,1.3-0.2c0.3,0,0.7,0,1,0.1c0.3,0.1,0.6,0.2,0.7,0.3c0.2,0.1,0.2,0.2,0.2,0.3c0,0.1-0.1,0.3-0.2,0.5
			c-0.1,0.2-0.2,0.3-0.3,0.3c0,0-0.1,0-0.2,0c-0.1,0-0.2-0.1-0.2-0.1c-0.3-0.1-0.6-0.2-1-0.2c-0.4,0-0.7,0.1-0.9,0.2
			c-0.2,0.2-0.3,0.4-0.3,0.6c0,0.2,0,0.4,0.2,0.5c0.1,0.1,0.2,0.2,0.4,0.3c0.2,0.1,0.4,0.2,0.7,0.3c0.4,0.2,0.8,0.4,1,0.5
			c0.3,0.2,0.5,0.4,0.7,0.7c0.2,0.3,0.3,0.7,0.3,1.2c0,0.8-0.2,1.4-0.7,1.8c-0.5,0.4-1.1,0.6-1.8,0.6
			C160.6,60.6,160.2,60.5,159.8,60.4z"/>
		<path class="st3" d="M165.2,60.2c-0.3-0.3-0.4-0.7-0.4-1.3v-3.1h-0.3c-0.1,0-0.2,0-0.2-0.1c0-0.1-0.1-0.2-0.1-0.4v-0.2
			c0-0.2,0-0.3,0.1-0.4c0-0.1,0.1-0.1,0.2-0.1h0.3l0.2-1.1c0-0.2,0.2-0.3,0.5-0.3h0.3c0.3,0,0.5,0.1,0.5,0.3v1.1h0.7
			c0.1,0,0.2,0,0.2,0.1s0.1,0.2,0.1,0.4v0.2c0,0.2,0,0.3-0.1,0.4c0,0.1-0.1,0.1-0.2,0.1h-0.7v3.1c0,0.2,0,0.4,0.1,0.5
			c0.1,0.1,0.2,0.1,0.4,0.1c0.1,0,0.2,0,0.2,0c0.1,0,0.1,0,0.2,0c0.1,0,0.2,0.1,0.2,0.3c0.1,0.2,0.1,0.3,0.1,0.4
			c0,0.3-0.3,0.5-1,0.5C165.9,60.6,165.5,60.4,165.2,60.2z"/>
		<path class="st3" d="M168.5,60.1c-0.3-0.3-0.4-0.7-0.4-1.2c0-1.4,1.1-2.1,3.4-2.1v-0.4c0-0.5-0.3-0.8-1-0.8c-0.3,0-0.5,0-0.7,0.1
			c-0.2,0.1-0.4,0.1-0.6,0.2c-0.2,0.1-0.2,0.1-0.3,0.1c-0.1,0-0.2-0.1-0.3-0.3c-0.1-0.2-0.2-0.4-0.2-0.5c0-0.1,0.1-0.2,0.3-0.4
			c0.2-0.1,0.4-0.2,0.8-0.3c0.4-0.1,0.7-0.1,1.1-0.1c0.8,0,1.4,0.2,1.8,0.5c0.4,0.3,0.6,0.8,0.6,1.4v2.3c0,0.5,0,0.9,0.1,1.1
			c0,0.2,0.1,0.4,0.1,0.4c0,0.1-0.1,0.2-0.4,0.2c-0.2,0-0.5,0.1-0.7,0.1c-0.1,0-0.2,0-0.2-0.2c0-0.1-0.1-0.2-0.1-0.4
			c0-0.1,0-0.2,0-0.2c-0.2,0.2-0.4,0.4-0.7,0.6c-0.3,0.2-0.6,0.3-1.1,0.3C169.2,60.6,168.8,60.4,168.5,60.1z M170.9,59.2
			c0.2-0.1,0.4-0.3,0.6-0.5v-0.8c-0.6,0-1.1,0.1-1.4,0.2c-0.4,0.1-0.5,0.4-0.5,0.7c0,0.2,0,0.4,0.2,0.5c0.1,0.1,0.3,0.2,0.5,0.2
			C170.4,59.4,170.7,59.4,170.9,59.2z"/>
		<path class="st3" d="M174.4,60.2v-3.7c0-0.5,0-0.9-0.1-1.1c0-0.2-0.1-0.4-0.1-0.4c0-0.1,0.1-0.2,0.4-0.2s0.5-0.1,0.7-0.1
			c0.1,0,0.2,0,0.3,0.2c0.1,0.1,0.1,0.2,0.1,0.3c0,0.1,0,0.2,0,0.2c0.2-0.2,0.4-0.4,0.8-0.6c0.3-0.2,0.6-0.2,1-0.2
			c1.1,0,1.7,0.6,1.7,1.8v3.8c0,0.1,0,0.2-0.2,0.2c-0.1,0-0.2,0.1-0.4,0.1h-0.2c-0.4,0-0.6-0.1-0.6-0.3v-3.6c0-0.6-0.3-0.8-0.8-0.8
			c-0.2,0-0.4,0.1-0.6,0.2c-0.2,0.1-0.4,0.3-0.5,0.5v3.8c0,0.2-0.2,0.3-0.6,0.3H175C174.6,60.5,174.4,60.4,174.4,60.2z"/>
		<path class="st3" d="M181.2,60.2c-0.3-0.2-0.6-0.6-0.8-1c-0.2-0.4-0.3-1-0.3-1.6c0-0.9,0.2-1.7,0.6-2.2c0.4-0.5,1-0.8,1.7-0.8
			c0.5,0,0.9,0.2,1.3,0.4v-2.6c0-0.2,0.2-0.3,0.6-0.3h0.2c0.4,0,0.6,0.1,0.6,0.3v6.3c0,0.5,0,0.9,0.1,1.1c0,0.2,0.1,0.4,0.1,0.4
			c0,0.1-0.1,0.2-0.4,0.2c-0.2,0-0.5,0.1-0.7,0.1c-0.1,0-0.2,0-0.2-0.2s-0.1-0.2-0.1-0.4c0-0.1,0-0.2,0-0.2
			c-0.2,0.3-0.4,0.5-0.7,0.6c-0.3,0.2-0.6,0.2-0.9,0.2C182,60.6,181.6,60.4,181.2,60.2z M183.9,58.7V56c-0.3-0.2-0.6-0.3-1-0.3
			c-0.8,0-1.2,0.6-1.2,1.8c0,0.6,0.1,1.1,0.3,1.4c0.2,0.3,0.4,0.5,0.8,0.5C183.2,59.4,183.6,59.2,183.9,58.7z"/>
		<path class="st3" d="M186.9,60.1c-0.3-0.3-0.4-0.7-0.4-1.2c0-1.4,1.1-2.1,3.4-2.1v-0.4c0-0.5-0.3-0.8-1-0.8c-0.3,0-0.5,0-0.7,0.1
			c-0.2,0.1-0.4,0.1-0.6,0.2s-0.2,0.1-0.3,0.1c-0.1,0-0.2-0.1-0.3-0.3c-0.1-0.2-0.2-0.4-0.2-0.5c0-0.1,0.1-0.2,0.3-0.4
			c0.2-0.1,0.4-0.2,0.8-0.3c0.4-0.1,0.7-0.1,1.1-0.1c0.8,0,1.4,0.2,1.8,0.5c0.4,0.3,0.6,0.8,0.6,1.4v2.3c0,0.5,0,0.9,0.1,1.1
			s0.1,0.4,0.1,0.4c0,0.1-0.1,0.2-0.4,0.2c-0.2,0-0.5,0.1-0.7,0.1c-0.1,0-0.2,0-0.2-0.2c0-0.1-0.1-0.2-0.1-0.4c0-0.1,0-0.2,0-0.2
			c-0.2,0.2-0.4,0.4-0.7,0.6c-0.3,0.2-0.6,0.3-1.1,0.3C187.6,60.6,187.2,60.4,186.9,60.1z M189.3,59.2c0.2-0.1,0.4-0.3,0.6-0.5v-0.8
			c-0.6,0-1.1,0.1-1.4,0.2c-0.4,0.1-0.5,0.4-0.5,0.7c0,0.2,0,0.4,0.2,0.5c0.1,0.1,0.3,0.2,0.5,0.2C188.8,59.4,189.1,59.4,189.3,59.2
			z"/>
		<path class="st3" d="M192.9,60.1c-0.3-0.3-0.4-0.7-0.4-1.2c0-1.4,1.1-2.1,3.4-2.1v-0.4c0-0.5-0.3-0.8-1-0.8c-0.3,0-0.5,0-0.7,0.1
			c-0.2,0.1-0.4,0.1-0.6,0.2s-0.2,0.1-0.3,0.1c-0.1,0-0.2-0.1-0.3-0.3c-0.1-0.2-0.2-0.4-0.2-0.5c0-0.1,0.1-0.2,0.3-0.4
			c0.2-0.1,0.4-0.2,0.8-0.3c0.4-0.1,0.7-0.1,1.1-0.1c0.8,0,1.4,0.2,1.8,0.5c0.4,0.3,0.6,0.8,0.6,1.4v2.3c0,0.5,0,0.9,0.1,1.1
			s0.1,0.4,0.1,0.4c0,0.1-0.1,0.2-0.4,0.2c-0.2,0-0.5,0.1-0.7,0.1c-0.1,0-0.2,0-0.2-0.2c0-0.1-0.1-0.2-0.1-0.4c0-0.1,0-0.2,0-0.2
			c-0.2,0.2-0.4,0.4-0.7,0.6c-0.3,0.2-0.6,0.3-1.1,0.3C193.7,60.6,193.2,60.4,192.9,60.1z M195.3,59.2c0.2-0.1,0.4-0.3,0.6-0.5v-0.8
			c-0.6,0-1.1,0.1-1.4,0.2c-0.4,0.1-0.5,0.4-0.5,0.7c0,0.2,0,0.4,0.2,0.5c0.1,0.1,0.3,0.2,0.5,0.2C194.9,59.4,195.1,59.4,195.3,59.2
			z"/>
		<path class="st3" d="M198.8,60.2v-3.7c0-0.5,0-0.9-0.1-1.1s-0.1-0.4-0.1-0.4c0-0.1,0.1-0.2,0.4-0.2s0.5-0.1,0.7-0.1
			c0.1,0,0.2,0,0.2,0.2c0,0.1,0.1,0.2,0.1,0.3s0,0.2,0,0.2c0.4-0.6,0.8-0.8,1.2-0.8c0.2,0,0.4,0,0.5,0.2c0.1,0.1,0.2,0.2,0.2,0.4
			c0,0.2,0,0.3-0.1,0.5c-0.1,0.2-0.1,0.3-0.2,0.3c0,0-0.1,0-0.2,0c-0.1,0-0.2,0-0.3,0c-0.2,0-0.4,0.1-0.6,0.2
			c-0.2,0.2-0.3,0.3-0.4,0.4v3.8c0,0.2-0.2,0.3-0.6,0.3h-0.2C199,60.5,198.8,60.4,198.8,60.2z"/>
		<path class="st3" d="M203.5,60.2c-0.3-0.2-0.6-0.6-0.8-1c-0.2-0.4-0.3-1-0.3-1.6c0-0.9,0.2-1.7,0.6-2.2c0.4-0.5,1-0.8,1.7-0.8
			c0.5,0,0.9,0.2,1.3,0.4v-2.6c0-0.2,0.2-0.3,0.6-0.3h0.2c0.4,0,0.6,0.1,0.6,0.3v6.3c0,0.5,0,0.9,0.1,1.1c0,0.2,0.1,0.4,0.1,0.4
			c0,0.1-0.1,0.2-0.4,0.2c-0.2,0-0.5,0.1-0.7,0.1c-0.1,0-0.2,0-0.2-0.2c0-0.1-0.1-0.2-0.1-0.4c0-0.1,0-0.2,0-0.2
			c-0.2,0.3-0.4,0.5-0.7,0.6c-0.3,0.2-0.6,0.2-0.9,0.2C204.2,60.6,203.8,60.4,203.5,60.2z M206.2,58.7V56c-0.3-0.2-0.6-0.3-1-0.3
			c-0.8,0-1.2,0.6-1.2,1.8c0,0.6,0.1,1.1,0.3,1.4c0.2,0.3,0.4,0.5,0.8,0.5C205.4,59.4,205.8,59.2,206.2,58.7z"/>
		<path class="st3" d="M216.5,60.3c0,0.1-0.2,0.2-0.6,0.2h-0.3c-0.2,0-0.3,0-0.4,0c-0.1,0-0.2-0.1-0.2-0.2l-1.8-2.6h0v2.5
			c0,0.2-0.2,0.3-0.6,0.3h-0.2c-0.4,0-0.6-0.1-0.6-0.3v-7.8c0-0.2,0.2-0.3,0.6-0.3h0.2c0.4,0,0.6,0.1,0.6,0.3V57h0l1.6-2.2
			c0-0.1,0.1-0.1,0.2-0.2c0.1,0,0.2,0,0.4,0h0.3c0.2,0,0.3,0,0.4,0s0.1,0.1,0.1,0.1c0,0.1,0,0.1-0.1,0.2l-1.7,2.3l2,2.8
			C216.5,60.2,216.5,60.3,216.5,60.3z"/>
		<path class="st3" d="M217.8,60.2c-0.3-0.3-0.4-0.7-0.4-1.3v-6.5c0-0.2,0.2-0.3,0.6-0.3h0.2c0.4,0,0.6,0.1,0.6,0.3v6.5
			c0,0.2,0,0.4,0.1,0.5c0.1,0.1,0.2,0.2,0.4,0.2c0.1,0,0.2,0,0.2,0c0.1,0,0.1,0,0.2,0c0.1,0,0.2,0.1,0.2,0.3c0,0.2,0.1,0.3,0.1,0.4
			c0,0.3-0.3,0.5-1,0.5C218.5,60.6,218.1,60.4,217.8,60.2z"/>
		<path class="st3" d="M221,59.8c-0.5-0.5-0.7-1.2-0.7-2.2c0-1,0.2-1.8,0.7-2.3c0.5-0.5,1.1-0.8,2-0.8c0.8,0,1.4,0.3,1.8,0.8
			c0.4,0.5,0.6,1.2,0.6,2.1c0,0.1-0.1,0.2-0.2,0.4c-0.1,0.2-0.2,0.2-0.3,0.2h-3.1c0,0.5,0.2,0.8,0.4,1.1s0.6,0.3,1,0.3
			c0.4,0,0.8-0.1,1.2-0.3c0.1,0,0.2-0.1,0.2-0.1c0.1,0,0.2,0.1,0.3,0.3c0.1,0.2,0.2,0.4,0.2,0.4c0,0.2-0.1,0.3-0.3,0.4
			c-0.2,0.1-0.5,0.2-0.8,0.3s-0.6,0.1-0.9,0.1C222.2,60.6,221.5,60.3,221,59.8z M224,57c0-0.4-0.1-0.8-0.2-1
			c-0.2-0.2-0.4-0.4-0.8-0.4c-0.7,0-1.1,0.4-1.2,1.4H224z"/>
		<path class="st3" d="M226.6,53.4v-0.7c0-0.2,0.2-0.4,0.7-0.4c0.5,0,0.7,0.1,0.7,0.4v0.7c0,0.1,0,0.2-0.2,0.3
			c-0.1,0.1-0.3,0.1-0.6,0.1C226.8,53.8,226.6,53.6,226.6,53.4z M226.6,60.2v-5.3c0-0.2,0.2-0.3,0.6-0.3h0.2c0.4,0,0.6,0.1,0.6,0.3
			v5.3c0,0.2-0.2,0.3-0.6,0.3h-0.2C226.8,60.5,226.6,60.4,226.6,60.2z"/>
		<path class="st3" d="M229.4,60.2v-3.7c0-0.5,0-0.9-0.1-1.1s-0.1-0.4-0.1-0.4c0-0.1,0.1-0.2,0.4-0.2s0.5-0.1,0.7-0.1
			c0.1,0,0.2,0,0.3,0.2c0.1,0.1,0.1,0.2,0.1,0.3c0,0.1,0,0.2,0,0.2c0.2-0.2,0.4-0.4,0.8-0.6c0.3-0.2,0.6-0.2,1-0.2
			c1.1,0,1.7,0.6,1.7,1.8v3.8c0,0.1,0,0.2-0.2,0.2c-0.1,0-0.2,0.1-0.4,0.1h-0.2c-0.4,0-0.6-0.1-0.6-0.3v-3.6c0-0.6-0.3-0.8-0.8-0.8
			c-0.2,0-0.4,0.1-0.6,0.2c-0.2,0.1-0.4,0.3-0.5,0.5v3.8c0,0.2-0.2,0.3-0.6,0.3H230C229.6,60.5,229.4,60.4,229.4,60.2z"/>
	</g>
</g>
<g>
	<path class="st3" d="M241,115.6h-88.9c-0.8,0-1.6-0.7-1.6-1.6V89.2c0-0.8,0.7-1.6,1.6-1.6H241c0.8,0,1.6,0.7,1.6,1.6v24.9
		C242.6,114.9,241.8,115.6,241,115.6z"/>
	<g>
		<path class="st4" d="M159.8,105.9c-0.4-0.1-0.7-0.2-0.9-0.4c-0.2-0.2-0.3-0.3-0.3-0.4c0-0.2,0.1-0.3,0.2-0.5
			c0.2-0.2,0.3-0.3,0.4-0.3c0,0,0.1,0,0.3,0.1c0.2,0.1,0.5,0.2,0.7,0.3s0.5,0.1,0.8,0.1c0.3,0,0.6-0.1,0.8-0.2
			c0.2-0.2,0.4-0.4,0.4-0.7c0-0.2,0-0.4-0.2-0.5c-0.1-0.2-0.3-0.2-0.4-0.4c-0.2-0.1-0.4-0.2-0.7-0.3l-0.4-0.2
			c-0.4-0.2-0.6-0.3-0.9-0.5c-0.2-0.2-0.4-0.4-0.6-0.7c-0.2-0.3-0.2-0.6-0.2-1.1c0-0.5,0.1-0.9,0.4-1.2c0.2-0.3,0.6-0.6,1-0.8
			c0.4-0.2,0.8-0.2,1.3-0.2c0.3,0,0.7,0,1,0.1c0.3,0.1,0.6,0.2,0.7,0.3c0.2,0.1,0.2,0.2,0.2,0.3c0,0.1-0.1,0.3-0.2,0.5
			c-0.1,0.2-0.2,0.3-0.3,0.3c0,0-0.1,0-0.2,0c-0.1,0-0.2-0.1-0.2-0.1c-0.3-0.1-0.6-0.2-1-0.2c-0.4,0-0.7,0.1-0.9,0.2
			c-0.2,0.2-0.3,0.4-0.3,0.6c0,0.2,0,0.4,0.2,0.5s0.2,0.2,0.4,0.3c0.2,0.1,0.4,0.2,0.7,0.3c0.4,0.2,0.8,0.4,1,0.5
			c0.3,0.2,0.5,0.4,0.7,0.7c0.2,0.3,0.3,0.7,0.3,1.2c0,0.8-0.2,1.4-0.7,1.8c-0.5,0.4-1.1,0.6-1.8,0.6
			C160.6,106.1,160.2,106,159.8,105.9z"/>
		<path class="st4" d="M165.2,105.6c-0.3-0.3-0.4-0.7-0.4-1.3v-3.1h-0.3c-0.1,0-0.2,0-0.2-0.1c0-0.1-0.1-0.2-0.1-0.4v-0.2
			c0-0.2,0-0.3,0.1-0.4c0-0.1,0.1-0.1,0.2-0.1h0.3L165,99c0-0.2,0.2-0.3,0.5-0.3h0.3c0.3,0,0.5,0.1,0.5,0.3v1.1h0.7
			c0.1,0,0.2,0,0.2,0.1c0,0.1,0.1,0.2,0.1,0.4v0.2c0,0.2,0,0.3-0.1,0.4c0,0.1-0.1,0.1-0.2,0.1h-0.7v3.1c0,0.2,0,0.4,0.1,0.5
			c0.1,0.1,0.2,0.1,0.4,0.1c0.1,0,0.2,0,0.2,0c0.1,0,0.1,0,0.2,0c0.1,0,0.2,0.1,0.2,0.3c0.1,0.2,0.1,0.3,0.1,0.4
			c0,0.3-0.3,0.5-1,0.5C165.9,106.1,165.5,105.9,165.2,105.6z"/>
		<path class="st4" d="M168.5,105.6c-0.3-0.3-0.4-0.7-0.4-1.2c0-1.4,1.1-2.1,3.4-2.1v-0.4c0-0.5-0.3-0.8-1-0.8c-0.3,0-0.5,0-0.7,0.1
			c-0.2,0.1-0.4,0.1-0.6,0.2c-0.2,0.1-0.2,0.1-0.3,0.1c-0.1,0-0.2-0.1-0.3-0.3c-0.1-0.2-0.2-0.4-0.2-0.5c0-0.1,0.1-0.2,0.3-0.4
			s0.4-0.2,0.8-0.3c0.4-0.1,0.7-0.1,1.1-0.1c0.8,0,1.4,0.2,1.8,0.5c0.4,0.3,0.6,0.8,0.6,1.4v2.3c0,0.5,0,0.9,0.1,1.1
			c0,0.2,0.1,0.4,0.1,0.4c0,0.1-0.1,0.2-0.4,0.2s-0.5,0.1-0.7,0.1c-0.1,0-0.2,0-0.2-0.2c0-0.1-0.1-0.2-0.1-0.4c0-0.1,0-0.2,0-0.2
			c-0.2,0.2-0.4,0.4-0.7,0.6c-0.3,0.2-0.6,0.3-1.1,0.3C169.2,106.1,168.8,105.9,168.5,105.6z M170.9,104.7c0.2-0.1,0.4-0.3,0.6-0.5
			v-0.8c-0.6,0-1.1,0.1-1.4,0.2c-0.4,0.1-0.5,0.4-0.5,0.7c0,0.2,0,0.4,0.2,0.5c0.1,0.1,0.3,0.2,0.5,0.2
			C170.4,104.9,170.7,104.9,170.9,104.7z"/>
		<path class="st4" d="M174.4,105.7V102c0-0.5,0-0.9-0.1-1.1c0-0.2-0.1-0.4-0.1-0.4c0-0.1,0.1-0.2,0.4-0.2s0.5-0.1,0.7-0.1
			c0.1,0,0.2,0,0.3,0.2c0.1,0.1,0.1,0.2,0.1,0.3c0,0.1,0,0.2,0,0.2c0.2-0.2,0.4-0.4,0.8-0.6s0.6-0.2,1-0.2c1.1,0,1.7,0.6,1.7,1.8
			v3.8c0,0.1,0,0.2-0.2,0.2c-0.1,0-0.2,0.1-0.4,0.1h-0.2c-0.4,0-0.6-0.1-0.6-0.3V102c0-0.6-0.3-0.8-0.8-0.8c-0.2,0-0.4,0.1-0.6,0.2
			c-0.2,0.1-0.4,0.3-0.5,0.5v3.8c0,0.2-0.2,0.3-0.6,0.3H175C174.6,106,174.4,105.9,174.4,105.7z"/>
		<path class="st4" d="M181.2,105.7c-0.3-0.2-0.6-0.6-0.8-1c-0.2-0.4-0.3-1-0.3-1.6c0-0.9,0.2-1.7,0.6-2.2c0.4-0.5,1-0.8,1.7-0.8
			c0.5,0,0.9,0.2,1.3,0.4v-2.6c0-0.2,0.2-0.3,0.6-0.3h0.2c0.4,0,0.6,0.1,0.6,0.3v6.3c0,0.5,0,0.9,0.1,1.1c0,0.2,0.1,0.4,0.1,0.4
			c0,0.1-0.1,0.2-0.4,0.2s-0.5,0.1-0.7,0.1c-0.1,0-0.2,0-0.2-0.2s-0.1-0.2-0.1-0.4c0-0.1,0-0.2,0-0.2c-0.2,0.3-0.4,0.5-0.7,0.6
			c-0.3,0.2-0.6,0.2-0.9,0.2C182,106.1,181.6,106,181.2,105.7z M183.9,104.2v-2.7c-0.3-0.2-0.6-0.3-1-0.3c-0.8,0-1.2,0.6-1.2,1.8
			c0,0.6,0.1,1.1,0.3,1.4c0.2,0.3,0.4,0.5,0.8,0.5C183.2,104.9,183.6,104.7,183.9,104.2z"/>
		<path class="st4" d="M186.9,105.6c-0.3-0.3-0.4-0.7-0.4-1.2c0-1.4,1.1-2.1,3.4-2.1v-0.4c0-0.5-0.3-0.8-1-0.8c-0.3,0-0.5,0-0.7,0.1
			c-0.2,0.1-0.4,0.1-0.6,0.2c-0.2,0.1-0.2,0.1-0.3,0.1c-0.1,0-0.2-0.1-0.3-0.3c-0.1-0.2-0.2-0.4-0.2-0.5c0-0.1,0.1-0.2,0.3-0.4
			s0.4-0.2,0.8-0.3c0.4-0.1,0.7-0.1,1.1-0.1c0.8,0,1.4,0.2,1.8,0.5c0.4,0.3,0.6,0.8,0.6,1.4v2.3c0,0.5,0,0.9,0.1,1.1
			s0.1,0.4,0.1,0.4c0,0.1-0.1,0.2-0.4,0.2s-0.5,0.1-0.7,0.1c-0.1,0-0.2,0-0.2-0.2c0-0.1-0.1-0.2-0.1-0.4c0-0.1,0-0.2,0-0.2
			c-0.2,0.2-0.4,0.4-0.7,0.6c-0.3,0.2-0.6,0.3-1.1,0.3C187.6,106.1,187.2,105.9,186.9,105.6z M189.3,104.7c0.2-0.1,0.4-0.3,0.6-0.5
			v-0.8c-0.6,0-1.1,0.1-1.4,0.2c-0.4,0.1-0.5,0.4-0.5,0.7c0,0.2,0,0.4,0.2,0.5c0.1,0.1,0.3,0.2,0.5,0.2
			C188.8,104.9,189.1,104.9,189.3,104.7z"/>
		<path class="st4" d="M192.9,105.6c-0.3-0.3-0.4-0.7-0.4-1.2c0-1.4,1.1-2.1,3.4-2.1v-0.4c0-0.5-0.3-0.8-1-0.8c-0.3,0-0.5,0-0.7,0.1
			c-0.2,0.1-0.4,0.1-0.6,0.2c-0.2,0.1-0.2,0.1-0.3,0.1c-0.1,0-0.2-0.1-0.3-0.3c-0.1-0.2-0.2-0.4-0.2-0.5c0-0.1,0.1-0.2,0.3-0.4
			s0.4-0.2,0.8-0.3c0.4-0.1,0.7-0.1,1.1-0.1c0.8,0,1.4,0.2,1.8,0.5c0.4,0.3,0.6,0.8,0.6,1.4v2.3c0,0.5,0,0.9,0.1,1.1
			s0.1,0.4,0.1,0.4c0,0.1-0.1,0.2-0.4,0.2s-0.5,0.1-0.7,0.1c-0.1,0-0.2,0-0.2-0.2c0-0.1-0.1-0.2-0.1-0.4c0-0.1,0-0.2,0-0.2
			c-0.2,0.2-0.4,0.4-0.7,0.6c-0.3,0.2-0.6,0.3-1.1,0.3C193.7,106.1,193.2,105.9,192.9,105.6z M195.3,104.7c0.2-0.1,0.4-0.3,0.6-0.5
			v-0.8c-0.6,0-1.1,0.1-1.4,0.2c-0.4,0.1-0.5,0.4-0.5,0.7c0,0.2,0,0.4,0.2,0.5c0.1,0.1,0.3,0.2,0.5,0.2
			C194.9,104.9,195.1,104.9,195.3,104.7z"/>
		<path class="st4" d="M198.8,105.7V102c0-0.5,0-0.9-0.1-1.1s-0.1-0.4-0.1-0.4c0-0.1,0.1-0.2,0.4-0.2s0.5-0.1,0.7-0.1
			c0.1,0,0.2,0,0.2,0.2s0.1,0.2,0.1,0.3s0,0.2,0,0.2c0.4-0.6,0.8-0.8,1.2-0.8c0.2,0,0.4,0,0.5,0.2c0.1,0.1,0.2,0.2,0.2,0.4
			c0,0.2,0,0.3-0.1,0.5c-0.1,0.2-0.1,0.3-0.2,0.3c0,0-0.1,0-0.2,0s-0.2,0-0.3,0c-0.2,0-0.4,0.1-0.6,0.2c-0.2,0.2-0.3,0.3-0.4,0.4
			v3.8c0,0.2-0.2,0.3-0.6,0.3h-0.2C199,106,198.8,105.9,198.8,105.7z"/>
		<path class="st4" d="M203.5,105.7c-0.3-0.2-0.6-0.6-0.8-1c-0.2-0.4-0.3-1-0.3-1.6c0-0.9,0.2-1.7,0.6-2.2c0.4-0.5,1-0.8,1.7-0.8
			c0.5,0,0.9,0.2,1.3,0.4v-2.6c0-0.2,0.2-0.3,0.6-0.3h0.2c0.4,0,0.6,0.1,0.6,0.3v6.3c0,0.5,0,0.9,0.1,1.1c0,0.2,0.1,0.4,0.1,0.4
			c0,0.1-0.1,0.2-0.4,0.2s-0.5,0.1-0.7,0.1c-0.1,0-0.2,0-0.2-0.2c0-0.1-0.1-0.2-0.1-0.4c0-0.1,0-0.2,0-0.2c-0.2,0.3-0.4,0.5-0.7,0.6
			c-0.3,0.2-0.6,0.2-0.9,0.2C204.2,106.1,203.8,106,203.5,105.7z M206.2,104.2v-2.7c-0.3-0.2-0.6-0.3-1-0.3c-0.8,0-1.2,0.6-1.2,1.8
			c0,0.6,0.1,1.1,0.3,1.4c0.2,0.3,0.4,0.5,0.8,0.5C205.4,104.9,205.8,104.7,206.2,104.2z"/>
		<path class="st4" d="M216.5,105.8c0,0.1-0.2,0.2-0.6,0.2h-0.3c-0.2,0-0.3,0-0.4,0c-0.1,0-0.2-0.1-0.2-0.2l-1.8-2.6h0v2.5
			c0,0.2-0.2,0.3-0.6,0.3h-0.2c-0.4,0-0.6-0.1-0.6-0.3v-7.8c0-0.2,0.2-0.3,0.6-0.3h0.2c0.4,0,0.6,0.1,0.6,0.3v4.6h0l1.6-2.2
			c0-0.1,0.1-0.1,0.2-0.2c0.1,0,0.2,0,0.4,0h0.3c0.2,0,0.3,0,0.4,0s0.1,0.1,0.1,0.1c0,0.1,0,0.1-0.1,0.2l-1.7,2.3l2,2.8
			C216.5,105.7,216.5,105.8,216.5,105.8z"/>
		<path class="st4" d="M217.8,105.6c-0.3-0.3-0.4-0.7-0.4-1.3v-6.5c0-0.2,0.2-0.3,0.6-0.3h0.2c0.4,0,0.6,0.1,0.6,0.3v6.5
			c0,0.2,0,0.4,0.1,0.5c0.1,0.1,0.2,0.2,0.4,0.2c0.1,0,0.2,0,0.2,0c0.1,0,0.1,0,0.2,0c0.1,0,0.2,0.1,0.2,0.3c0,0.2,0.1,0.3,0.1,0.4
			c0,0.3-0.3,0.5-1,0.5C218.5,106.1,218.1,105.9,217.8,105.6z"/>
		<path class="st4" d="M221,105.3c-0.5-0.5-0.7-1.2-0.7-2.2c0-1,0.2-1.8,0.7-2.3c0.5-0.5,1.1-0.8,2-0.8c0.8,0,1.4,0.3,1.8,0.8
			c0.4,0.5,0.6,1.2,0.6,2.1c0,0.1-0.1,0.2-0.2,0.4c-0.1,0.2-0.2,0.2-0.3,0.2h-3.1c0,0.5,0.2,0.8,0.4,1.1c0.2,0.2,0.6,0.3,1,0.3
			c0.4,0,0.8-0.1,1.2-0.3c0.1,0,0.2-0.1,0.2-0.1c0.1,0,0.2,0.1,0.3,0.3c0.1,0.2,0.2,0.4,0.2,0.4c0,0.2-0.1,0.3-0.3,0.4
			c-0.2,0.1-0.5,0.2-0.8,0.3c-0.3,0.1-0.6,0.1-0.9,0.1C222.2,106.1,221.5,105.8,221,105.3z M224,102.5c0-0.4-0.1-0.8-0.2-1
			c-0.2-0.2-0.4-0.4-0.8-0.4c-0.7,0-1.1,0.4-1.2,1.4H224z"/>
		<path class="st4" d="M226.6,98.9v-0.7c0-0.2,0.2-0.4,0.7-0.4c0.5,0,0.7,0.1,0.7,0.4v0.7c0,0.1,0,0.2-0.2,0.3
			c-0.1,0.1-0.3,0.1-0.6,0.1C226.8,99.3,226.6,99.1,226.6,98.9z M226.6,105.7v-5.3c0-0.2,0.2-0.3,0.6-0.3h0.2c0.4,0,0.6,0.1,0.6,0.3
			v5.3c0,0.2-0.2,0.3-0.6,0.3h-0.2C226.8,106,226.6,105.9,226.6,105.7z"/>
		<path class="st4" d="M229.4,105.7V102c0-0.5,0-0.9-0.1-1.1s-0.1-0.4-0.1-0.4c0-0.1,0.1-0.2,0.4-0.2s0.5-0.1,0.7-0.1
			c0.1,0,0.2,0,0.3,0.2c0.1,0.1,0.1,0.2,0.1,0.3c0,0.1,0,0.2,0,0.2c0.2-0.2,0.4-0.4,0.8-0.6c0.3-0.2,0.6-0.2,1-0.2
			c1.1,0,1.7,0.6,1.7,1.8v3.8c0,0.1,0,0.2-0.2,0.2c-0.1,0-0.2,0.1-0.4,0.1h-0.2c-0.4,0-0.6-0.1-0.6-0.3V102c0-0.6-0.3-0.8-0.8-0.8
			c-0.2,0-0.4,0.1-0.6,0.2c-0.2,0.1-0.4,0.3-0.5,0.5v3.8c0,0.2-0.2,0.3-0.6,0.3H230C229.6,106,229.4,105.9,229.4,105.7z"/>
	</g>
	<g>
		<path class="st4" d="M159.8,151.3c-0.4-0.1-0.7-0.2-0.9-0.4c-0.2-0.2-0.3-0.3-0.3-0.4c0-0.2,0.1-0.3,0.2-0.5
			c0.2-0.2,0.3-0.3,0.4-0.3c0,0,0.1,0,0.3,0.1c0.2,0.1,0.5,0.2,0.7,0.3s0.5,0.1,0.8,0.1c0.3,0,0.6-0.1,0.8-0.2s0.4-0.4,0.4-0.7
			c0-0.2,0-0.4-0.2-0.5c-0.1-0.2-0.3-0.2-0.4-0.4c-0.2-0.1-0.4-0.2-0.7-0.3l-0.4-0.2c-0.4-0.2-0.6-0.3-0.9-0.5s-0.4-0.4-0.6-0.7
			c-0.2-0.3-0.2-0.6-0.2-1.1c0-0.5,0.1-0.9,0.4-1.2c0.2-0.3,0.6-0.6,1-0.8c0.4-0.2,0.8-0.2,1.3-0.2c0.3,0,0.7,0,1,0.1
			c0.3,0.1,0.6,0.2,0.7,0.3c0.2,0.1,0.2,0.2,0.2,0.3c0,0.1-0.1,0.3-0.2,0.5c-0.1,0.2-0.2,0.3-0.3,0.3c0,0-0.1,0-0.2,0
			c-0.1,0-0.2-0.1-0.2-0.1c-0.3-0.1-0.6-0.2-1-0.2c-0.4,0-0.7,0.1-0.9,0.2c-0.2,0.2-0.3,0.4-0.3,0.6c0,0.2,0,0.4,0.2,0.5
			s0.2,0.2,0.4,0.3c0.2,0.1,0.4,0.2,0.7,0.3c0.4,0.2,0.8,0.4,1,0.5c0.3,0.2,0.5,0.4,0.7,0.7c0.2,0.3,0.3,0.7,0.3,1.2
			c0,0.8-0.2,1.4-0.7,1.8c-0.5,0.4-1.1,0.6-1.8,0.6C160.6,151.4,160.2,151.4,159.8,151.3z"/>
		<path class="st4" d="M165.2,151c-0.3-0.3-0.4-0.7-0.4-1.3v-3.1h-0.3c-0.1,0-0.2,0-0.2-0.1c0-0.1-0.1-0.2-0.1-0.4v-0.2
			c0-0.2,0-0.3,0.1-0.4c0-0.1,0.1-0.1,0.2-0.1h0.3l0.2-1.1c0-0.2,0.2-0.3,0.5-0.3h0.3c0.3,0,0.5,0.1,0.5,0.3v1.1h0.7
			c0.1,0,0.2,0,0.2,0.1c0,0.1,0.1,0.2,0.1,0.4v0.2c0,0.2,0,0.3-0.1,0.4c0,0.1-0.1,0.1-0.2,0.1h-0.7v3.1c0,0.2,0,0.4,0.1,0.5
			c0.1,0.1,0.2,0.1,0.4,0.1c0.1,0,0.2,0,0.2,0c0.1,0,0.1,0,0.2,0c0.1,0,0.2,0.1,0.2,0.3c0.1,0.2,0.1,0.3,0.1,0.4
			c0,0.3-0.3,0.5-1,0.5C165.9,151.4,165.5,151.3,165.2,151z"/>
		<path class="st4" d="M168.5,151c-0.3-0.3-0.4-0.7-0.4-1.2c0-1.4,1.1-2.1,3.4-2.1v-0.4c0-0.5-0.3-0.8-1-0.8c-0.3,0-0.5,0-0.7,0.1
			c-0.2,0.1-0.4,0.1-0.6,0.2c-0.2,0.1-0.2,0.1-0.3,0.1c-0.1,0-0.2-0.1-0.3-0.3c-0.1-0.2-0.2-0.4-0.2-0.5s0.1-0.2,0.3-0.4
			s0.4-0.2,0.8-0.3c0.4-0.1,0.7-0.1,1.1-0.1c0.8,0,1.4,0.2,1.8,0.5c0.4,0.3,0.6,0.8,0.6,1.4v2.3c0,0.5,0,0.9,0.1,1.1
			c0,0.2,0.1,0.4,0.1,0.4c0,0.1-0.1,0.2-0.4,0.2s-0.5,0.1-0.7,0.1c-0.1,0-0.2,0-0.2-0.2c0-0.1-0.1-0.2-0.1-0.4c0-0.1,0-0.2,0-0.2
			c-0.2,0.2-0.4,0.4-0.7,0.6c-0.3,0.2-0.6,0.3-1.1,0.3C169.2,151.4,168.8,151.3,168.5,151z M170.9,150.1c0.2-0.1,0.4-0.3,0.6-0.5
			v-0.8c-0.6,0-1.1,0.1-1.4,0.2c-0.4,0.1-0.5,0.4-0.5,0.7c0,0.2,0,0.4,0.2,0.5c0.1,0.1,0.3,0.2,0.5,0.2
			C170.4,150.3,170.7,150.2,170.9,150.1z"/>
		<path class="st4" d="M174.4,151v-3.7c0-0.5,0-0.9-0.1-1.1c0-0.2-0.1-0.4-0.1-0.4c0-0.1,0.1-0.2,0.4-0.2c0.2,0,0.5-0.1,0.7-0.1
			c0.1,0,0.2,0,0.3,0.2c0.1,0.1,0.1,0.2,0.1,0.3c0,0.1,0,0.2,0,0.2c0.2-0.2,0.4-0.4,0.8-0.6c0.3-0.2,0.6-0.2,1-0.2
			c1.1,0,1.7,0.6,1.7,1.8v3.8c0,0.1,0,0.2-0.2,0.2c-0.1,0-0.2,0.1-0.4,0.1h-0.2c-0.4,0-0.6-0.1-0.6-0.3v-3.6c0-0.6-0.3-0.8-0.8-0.8
			c-0.2,0-0.4,0.1-0.6,0.2c-0.2,0.1-0.4,0.3-0.5,0.5v3.8c0,0.2-0.2,0.3-0.6,0.3H175C174.6,151.4,174.4,151.2,174.4,151z"/>
		<path class="st4" d="M181.2,151c-0.3-0.2-0.6-0.6-0.8-1c-0.2-0.4-0.3-1-0.3-1.6c0-0.9,0.2-1.7,0.6-2.2c0.4-0.5,1-0.8,1.7-0.8
			c0.5,0,0.9,0.2,1.3,0.4v-2.6c0-0.2,0.2-0.3,0.6-0.3h0.2c0.4,0,0.6,0.1,0.6,0.3v6.3c0,0.5,0,0.9,0.1,1.1c0,0.2,0.1,0.4,0.1,0.4
			c0,0.1-0.1,0.2-0.4,0.2c-0.2,0-0.5,0.1-0.7,0.1c-0.1,0-0.2,0-0.2-0.2s-0.1-0.2-0.1-0.4c0-0.1,0-0.2,0-0.2
			c-0.2,0.3-0.4,0.5-0.7,0.6c-0.3,0.2-0.6,0.2-0.9,0.2C182,151.4,181.6,151.3,181.2,151z M183.9,149.6v-2.7c-0.3-0.2-0.6-0.3-1-0.3
			c-0.8,0-1.2,0.6-1.2,1.8c0,0.6,0.1,1.1,0.3,1.4c0.2,0.3,0.4,0.5,0.8,0.5C183.2,150.2,183.6,150,183.9,149.6z"/>
		<path class="st4" d="M186.9,151c-0.3-0.3-0.4-0.7-0.4-1.2c0-1.4,1.1-2.1,3.4-2.1v-0.4c0-0.5-0.3-0.8-1-0.8c-0.3,0-0.5,0-0.7,0.1
			c-0.2,0.1-0.4,0.1-0.6,0.2c-0.2,0.1-0.2,0.1-0.3,0.1c-0.1,0-0.2-0.1-0.3-0.3c-0.1-0.2-0.2-0.4-0.2-0.5s0.1-0.2,0.3-0.4
			s0.4-0.2,0.8-0.3c0.4-0.1,0.7-0.1,1.1-0.1c0.8,0,1.4,0.2,1.8,0.5c0.4,0.3,0.6,0.8,0.6,1.4v2.3c0,0.5,0,0.9,0.1,1.1
			s0.1,0.4,0.1,0.4c0,0.1-0.1,0.2-0.4,0.2s-0.5,0.1-0.7,0.1c-0.1,0-0.2,0-0.2-0.2c0-0.1-0.1-0.2-0.1-0.4c0-0.1,0-0.2,0-0.2
			c-0.2,0.2-0.4,0.4-0.7,0.6c-0.3,0.2-0.6,0.3-1.1,0.3C187.6,151.4,187.2,151.3,186.9,151z M189.3,150.1c0.2-0.1,0.4-0.3,0.6-0.5
			v-0.8c-0.6,0-1.1,0.1-1.4,0.2c-0.4,0.1-0.5,0.4-0.5,0.7c0,0.2,0,0.4,0.2,0.5c0.1,0.1,0.3,0.2,0.5,0.2
			C188.8,150.3,189.1,150.2,189.3,150.1z"/>
		<path class="st4" d="M192.9,151c-0.3-0.3-0.4-0.7-0.4-1.2c0-1.4,1.1-2.1,3.4-2.1v-0.4c0-0.5-0.3-0.8-1-0.8c-0.3,0-0.5,0-0.7,0.1
			c-0.2,0.1-0.4,0.1-0.6,0.2c-0.2,0.1-0.2,0.1-0.3,0.1c-0.1,0-0.2-0.1-0.3-0.3c-0.1-0.2-0.2-0.4-0.2-0.5s0.1-0.2,0.3-0.4
			s0.4-0.2,0.8-0.3c0.4-0.1,0.7-0.1,1.1-0.1c0.8,0,1.4,0.2,1.8,0.5c0.4,0.3,0.6,0.8,0.6,1.4v2.3c0,0.5,0,0.9,0.1,1.1
			s0.1,0.4,0.1,0.4c0,0.1-0.1,0.2-0.4,0.2s-0.5,0.1-0.7,0.1c-0.1,0-0.2,0-0.2-0.2c0-0.1-0.1-0.2-0.1-0.4c0-0.1,0-0.2,0-0.2
			c-0.2,0.2-0.4,0.4-0.7,0.6c-0.3,0.2-0.6,0.3-1.1,0.3C193.7,151.4,193.2,151.3,192.9,151z M195.3,150.1c0.2-0.1,0.4-0.3,0.6-0.5
			v-0.8c-0.6,0-1.1,0.1-1.4,0.2c-0.4,0.1-0.5,0.4-0.5,0.7c0,0.2,0,0.4,0.2,0.5c0.1,0.1,0.3,0.2,0.5,0.2
			C194.9,150.3,195.1,150.2,195.3,150.1z"/>
		<path class="st4" d="M198.8,151v-3.7c0-0.5,0-0.9-0.1-1.1s-0.1-0.4-0.1-0.4c0-0.1,0.1-0.2,0.4-0.2c0.2,0,0.5-0.1,0.7-0.1
			c0.1,0,0.2,0,0.2,0.2s0.1,0.2,0.1,0.3s0,0.2,0,0.2c0.4-0.6,0.8-0.8,1.2-0.8c0.2,0,0.4,0,0.5,0.2c0.1,0.1,0.2,0.2,0.2,0.4
			c0,0.2,0,0.3-0.1,0.5c-0.1,0.2-0.1,0.3-0.2,0.3c0,0-0.1,0-0.2,0c-0.1,0-0.2,0-0.3,0c-0.2,0-0.4,0.1-0.6,0.2
			c-0.2,0.2-0.3,0.3-0.4,0.4v3.8c0,0.2-0.2,0.3-0.6,0.3h-0.2C199,151.4,198.8,151.2,198.8,151z"/>
		<path class="st4" d="M203.5,151c-0.3-0.2-0.6-0.6-0.8-1c-0.2-0.4-0.3-1-0.3-1.6c0-0.9,0.2-1.7,0.6-2.2c0.4-0.5,1-0.8,1.7-0.8
			c0.5,0,0.9,0.2,1.3,0.4v-2.6c0-0.2,0.2-0.3,0.6-0.3h0.2c0.4,0,0.6,0.1,0.6,0.3v6.3c0,0.5,0,0.9,0.1,1.1c0,0.2,0.1,0.4,0.1,0.4
			c0,0.1-0.1,0.2-0.4,0.2c-0.2,0-0.5,0.1-0.7,0.1c-0.1,0-0.2,0-0.2-0.2c0-0.1-0.1-0.2-0.1-0.4c0-0.1,0-0.2,0-0.2
			c-0.2,0.3-0.4,0.5-0.7,0.6c-0.3,0.2-0.6,0.2-0.9,0.2C204.2,151.4,203.8,151.3,203.5,151z M206.2,149.6v-2.7
			c-0.3-0.2-0.6-0.3-1-0.3c-0.8,0-1.2,0.6-1.2,1.8c0,0.6,0.1,1.1,0.3,1.4c0.2,0.3,0.4,0.5,0.8,0.5
			C205.4,150.2,205.8,150,206.2,149.6z"/>
		<path class="st4" d="M216.5,151.2c0,0.1-0.2,0.2-0.6,0.2h-0.3c-0.2,0-0.3,0-0.4,0c-0.1,0-0.2-0.1-0.2-0.2l-1.8-2.6h0v2.5
			c0,0.2-0.2,0.3-0.6,0.3h-0.2c-0.4,0-0.6-0.1-0.6-0.3v-7.8c0-0.2,0.2-0.3,0.6-0.3h0.2c0.4,0,0.6,0.1,0.6,0.3v4.6h0l1.6-2.2
			c0-0.1,0.1-0.1,0.2-0.2c0.1,0,0.2,0,0.4,0h0.3c0.2,0,0.3,0,0.4,0c0.1,0,0.1,0.1,0.1,0.1c0,0.1,0,0.1-0.1,0.2l-1.7,2.3l2,2.8
			C216.5,151.1,216.5,151.2,216.5,151.2z"/>
		<path class="st4" d="M217.8,151c-0.3-0.3-0.4-0.7-0.4-1.3v-6.5c0-0.2,0.2-0.3,0.6-0.3h0.2c0.4,0,0.6,0.1,0.6,0.3v6.5
			c0,0.2,0,0.4,0.1,0.5c0.1,0.1,0.2,0.2,0.4,0.2c0.1,0,0.2,0,0.2,0c0.1,0,0.1,0,0.2,0c0.1,0,0.2,0.1,0.2,0.3c0,0.2,0.1,0.3,0.1,0.4
			c0,0.3-0.3,0.5-1,0.5C218.5,151.4,218.1,151.3,217.8,151z"/>
		<path class="st4" d="M221,150.6c-0.5-0.5-0.7-1.2-0.7-2.2c0-1,0.2-1.8,0.7-2.3c0.5-0.5,1.1-0.8,2-0.8c0.8,0,1.4,0.3,1.8,0.8
			c0.4,0.5,0.6,1.2,0.6,2.1c0,0.1-0.1,0.2-0.2,0.4c-0.1,0.2-0.2,0.2-0.3,0.2h-3.1c0,0.5,0.2,0.8,0.4,1.1c0.2,0.2,0.6,0.3,1,0.3
			c0.4,0,0.8-0.1,1.2-0.3c0.1,0,0.2-0.1,0.2-0.1c0.1,0,0.2,0.1,0.3,0.3c0.1,0.2,0.2,0.4,0.2,0.4c0,0.2-0.1,0.3-0.3,0.4
			c-0.2,0.1-0.5,0.2-0.8,0.3c-0.3,0.1-0.6,0.1-0.9,0.1C222.2,151.4,221.5,151.2,221,150.6z M224,147.9c0-0.4-0.1-0.8-0.2-1
			c-0.2-0.2-0.4-0.4-0.8-0.4c-0.7,0-1.1,0.4-1.2,1.4H224z"/>
		<path class="st4" d="M226.6,144.2v-0.7c0-0.2,0.2-0.4,0.7-0.4c0.5,0,0.7,0.1,0.7,0.4v0.7c0,0.1,0,0.2-0.2,0.3
			c-0.1,0.1-0.3,0.1-0.6,0.1C226.8,144.6,226.6,144.5,226.6,144.2z M226.6,151v-5.3c0-0.2,0.2-0.3,0.6-0.3h0.2
			c0.4,0,0.6,0.1,0.6,0.3v5.3c0,0.2-0.2,0.3-0.6,0.3h-0.2C226.8,151.4,226.6,151.2,226.6,151z"/>
		<path class="st4" d="M229.4,151v-3.7c0-0.5,0-0.9-0.1-1.1s-0.1-0.4-0.1-0.4c0-0.1,0.1-0.2,0.4-0.2c0.2,0,0.5-0.1,0.7-0.1
			c0.1,0,0.2,0,0.3,0.2c0.1,0.1,0.1,0.2,0.1,0.3c0,0.1,0,0.2,0,0.2c0.2-0.2,0.4-0.4,0.8-0.6c0.3-0.2,0.6-0.2,1-0.2
			c1.1,0,1.7,0.6,1.7,1.8v3.8c0,0.1,0,0.2-0.2,0.2c-0.1,0-0.2,0.1-0.4,0.1h-0.2c-0.4,0-0.6-0.1-0.6-0.3v-3.6c0-0.6-0.3-0.8-0.8-0.8
			c-0.2,0-0.4,0.1-0.6,0.2c-0.2,0.1-0.4,0.3-0.5,0.5v3.8c0,0.2-0.2,0.3-0.6,0.3H230C229.6,151.4,229.4,151.2,229.4,151z"/>
	</g>
</g>
<g>
	<path class="st8" d="M241,206.6h-88.9c-0.8,0-1.6-0.7-1.6-1.6v-24.9c0-0.8,0.7-1.6,1.6-1.6H241c0.8,0,1.6,0.7,1.6,1.6v24.9
		C242.6,205.9,241.8,206.6,241,206.6z"/>
	<g>
		<path class="st6" d="M159.8,196.9c-0.4-0.1-0.7-0.2-0.9-0.4c-0.2-0.2-0.3-0.3-0.3-0.4c0-0.2,0.1-0.3,0.2-0.5
			c0.2-0.2,0.3-0.3,0.4-0.3c0,0,0.1,0,0.3,0.1c0.2,0.1,0.5,0.2,0.7,0.3s0.5,0.1,0.8,0.1c0.3,0,0.6-0.1,0.8-0.2s0.4-0.4,0.4-0.7
			c0-0.2,0-0.4-0.2-0.5c-0.1-0.2-0.3-0.2-0.4-0.4c-0.2-0.1-0.4-0.2-0.7-0.3l-0.4-0.2c-0.4-0.2-0.6-0.3-0.9-0.5
			c-0.2-0.2-0.4-0.4-0.6-0.7c-0.2-0.3-0.2-0.6-0.2-1.1c0-0.5,0.1-0.9,0.4-1.2s0.6-0.6,1-0.8c0.4-0.2,0.8-0.2,1.3-0.2
			c0.3,0,0.7,0,1,0.1c0.3,0.1,0.6,0.2,0.7,0.3c0.2,0.1,0.2,0.2,0.2,0.3c0,0.1-0.1,0.3-0.2,0.5c-0.1,0.2-0.2,0.3-0.3,0.3
			c0,0-0.1,0-0.2,0c-0.1,0-0.2-0.1-0.2-0.1c-0.3-0.1-0.6-0.2-1-0.2c-0.4,0-0.7,0.1-0.9,0.2c-0.2,0.2-0.3,0.4-0.3,0.6
			c0,0.2,0,0.4,0.2,0.5s0.2,0.2,0.4,0.3c0.2,0.1,0.4,0.2,0.7,0.3c0.4,0.2,0.8,0.4,1,0.5c0.3,0.2,0.5,0.4,0.7,0.7
			c0.2,0.3,0.3,0.7,0.3,1.2c0,0.8-0.2,1.4-0.7,1.8c-0.5,0.4-1.1,0.6-1.8,0.6C160.6,197.1,160.2,197,159.8,196.9z"/>
		<path class="st6" d="M165.2,196.6c-0.3-0.3-0.4-0.7-0.4-1.3v-3.1h-0.3c-0.1,0-0.2,0-0.2-0.1c0-0.1-0.1-0.2-0.1-0.4v-0.2
			c0-0.2,0-0.3,0.1-0.4c0-0.1,0.1-0.1,0.2-0.1h0.3l0.2-1.1c0-0.2,0.2-0.3,0.5-0.3h0.3c0.3,0,0.5,0.1,0.5,0.3v1.1h0.7
			c0.1,0,0.2,0,0.2,0.1c0,0.1,0.1,0.2,0.1,0.4v0.2c0,0.2,0,0.3-0.1,0.4s-0.1,0.1-0.2,0.1h-0.7v3.1c0,0.2,0,0.4,0.1,0.5
			c0.1,0.1,0.2,0.1,0.4,0.1c0.1,0,0.2,0,0.2,0c0.1,0,0.1,0,0.2,0c0.1,0,0.2,0.1,0.2,0.3c0.1,0.2,0.1,0.3,0.1,0.4
			c0,0.3-0.3,0.5-1,0.5C165.9,197.1,165.5,196.9,165.2,196.6z"/>
		<path class="st6" d="M168.5,196.6c-0.3-0.3-0.4-0.7-0.4-1.2c0-1.4,1.1-2.1,3.4-2.1v-0.4c0-0.5-0.3-0.8-1-0.8c-0.3,0-0.5,0-0.7,0.1
			c-0.2,0.1-0.4,0.1-0.6,0.2c-0.2,0.1-0.2,0.1-0.3,0.1c-0.1,0-0.2-0.1-0.3-0.3c-0.1-0.2-0.2-0.4-0.2-0.5s0.1-0.2,0.3-0.4
			c0.2-0.1,0.4-0.2,0.8-0.3c0.4-0.1,0.7-0.1,1.1-0.1c0.8,0,1.4,0.2,1.8,0.5c0.4,0.3,0.6,0.8,0.6,1.4v2.3c0,0.5,0,0.9,0.1,1.1
			c0,0.2,0.1,0.4,0.1,0.4c0,0.1-0.1,0.2-0.4,0.2s-0.5,0.1-0.7,0.1c-0.1,0-0.2,0-0.2-0.2c0-0.1-0.1-0.2-0.1-0.4c0-0.1,0-0.2,0-0.2
			c-0.2,0.2-0.4,0.4-0.7,0.6c-0.3,0.2-0.6,0.3-1.1,0.3C169.2,197.1,168.8,196.9,168.5,196.6z M170.9,195.7c0.2-0.1,0.4-0.3,0.6-0.5
			v-0.8c-0.6,0-1.1,0.1-1.4,0.2c-0.4,0.1-0.5,0.4-0.5,0.7c0,0.2,0,0.4,0.2,0.5c0.1,0.1,0.3,0.2,0.5,0.2
			C170.4,195.9,170.7,195.9,170.9,195.7z"/>
		<path class="st6" d="M174.4,196.7V193c0-0.5,0-0.9-0.1-1.1c0-0.2-0.1-0.4-0.1-0.4c0-0.1,0.1-0.2,0.4-0.2s0.5-0.1,0.7-0.1
			c0.1,0,0.2,0,0.3,0.2c0.1,0.1,0.1,0.2,0.1,0.3c0,0.1,0,0.2,0,0.2c0.2-0.2,0.4-0.4,0.8-0.6s0.6-0.2,1-0.2c1.1,0,1.7,0.6,1.7,1.8
			v3.8c0,0.1,0,0.2-0.2,0.2c-0.1,0-0.2,0.1-0.4,0.1h-0.2c-0.4,0-0.6-0.1-0.6-0.3V193c0-0.6-0.3-0.8-0.8-0.8c-0.2,0-0.4,0.1-0.6,0.2
			c-0.2,0.1-0.4,0.3-0.5,0.5v3.8c0,0.2-0.2,0.3-0.6,0.3H175C174.6,197,174.4,196.9,174.4,196.7z"/>
		<path class="st6" d="M181.2,196.7c-0.3-0.2-0.6-0.6-0.8-1c-0.2-0.4-0.3-1-0.3-1.6c0-0.9,0.2-1.7,0.6-2.2c0.4-0.5,1-0.8,1.7-0.8
			c0.5,0,0.9,0.2,1.3,0.4v-2.6c0-0.2,0.2-0.3,0.6-0.3h0.2c0.4,0,0.6,0.1,0.6,0.3v6.3c0,0.5,0,0.9,0.1,1.1s0.1,0.4,0.1,0.4
			c0,0.1-0.1,0.2-0.4,0.2s-0.5,0.1-0.7,0.1c-0.1,0-0.2,0-0.2-0.2c0-0.1-0.1-0.2-0.1-0.4c0-0.1,0-0.2,0-0.2c-0.2,0.3-0.4,0.5-0.7,0.6
			c-0.3,0.2-0.6,0.2-0.9,0.2C182,197.1,181.6,197,181.2,196.7z M183.9,195.2v-2.7c-0.3-0.2-0.6-0.3-1-0.3c-0.8,0-1.2,0.6-1.2,1.8
			c0,0.6,0.1,1.1,0.3,1.4c0.2,0.3,0.4,0.5,0.8,0.5C183.2,195.9,183.6,195.7,183.9,195.2z"/>
		<path class="st6" d="M186.9,196.6c-0.3-0.3-0.4-0.7-0.4-1.2c0-1.4,1.1-2.1,3.4-2.1v-0.4c0-0.5-0.3-0.8-1-0.8c-0.3,0-0.5,0-0.7,0.1
			c-0.2,0.1-0.4,0.1-0.6,0.2s-0.2,0.1-0.3,0.1c-0.1,0-0.2-0.1-0.3-0.3c-0.1-0.2-0.2-0.4-0.2-0.5s0.1-0.2,0.3-0.4
			c0.2-0.1,0.4-0.2,0.8-0.3c0.4-0.1,0.7-0.1,1.1-0.1c0.8,0,1.4,0.2,1.8,0.5c0.4,0.3,0.6,0.8,0.6,1.4v2.3c0,0.5,0,0.9,0.1,1.1
			s0.1,0.4,0.1,0.4c0,0.1-0.1,0.2-0.4,0.2s-0.5,0.1-0.7,0.1c-0.1,0-0.2,0-0.2-0.2c0-0.1-0.1-0.2-0.1-0.4c0-0.1,0-0.2,0-0.2
			c-0.2,0.2-0.4,0.4-0.7,0.6c-0.3,0.2-0.6,0.3-1.1,0.3C187.6,197.1,187.2,196.9,186.9,196.6z M189.3,195.7c0.2-0.1,0.4-0.3,0.6-0.5
			v-0.8c-0.6,0-1.1,0.1-1.4,0.2c-0.4,0.1-0.5,0.4-0.5,0.7c0,0.2,0,0.4,0.2,0.5c0.1,0.1,0.3,0.2,0.5,0.2
			C188.9,195.9,189.1,195.9,189.3,195.7z"/>
		<path class="st6" d="M192.9,196.6c-0.3-0.3-0.4-0.7-0.4-1.2c0-1.4,1.1-2.1,3.4-2.1v-0.4c0-0.5-0.3-0.8-1-0.8c-0.3,0-0.5,0-0.7,0.1
			c-0.2,0.1-0.4,0.1-0.6,0.2s-0.2,0.1-0.3,0.1c-0.1,0-0.2-0.1-0.3-0.3c-0.1-0.2-0.2-0.4-0.2-0.5s0.1-0.2,0.3-0.4
			c0.2-0.1,0.4-0.2,0.8-0.3c0.4-0.1,0.7-0.1,1.1-0.1c0.8,0,1.4,0.2,1.8,0.5c0.4,0.3,0.6,0.8,0.6,1.4v2.3c0,0.5,0,0.9,0.1,1.1
			s0.1,0.4,0.1,0.4c0,0.1-0.1,0.2-0.4,0.2s-0.5,0.1-0.7,0.1c-0.1,0-0.2,0-0.2-0.2c0-0.1-0.1-0.2-0.1-0.4c0-0.1,0-0.2,0-0.2
			c-0.2,0.2-0.4,0.4-0.7,0.6c-0.3,0.2-0.6,0.3-1.1,0.3C193.7,197.1,193.2,196.9,192.9,196.6z M195.3,195.7c0.2-0.1,0.4-0.3,0.6-0.5
			v-0.8c-0.6,0-1.1,0.1-1.4,0.2c-0.4,0.1-0.5,0.4-0.5,0.7c0,0.2,0,0.4,0.2,0.5c0.1,0.1,0.3,0.2,0.5,0.2
			C194.9,195.9,195.1,195.9,195.3,195.7z"/>
		<path class="st6" d="M198.8,196.7V193c0-0.5,0-0.9-0.1-1.1s-0.1-0.4-0.1-0.4c0-0.1,0.1-0.2,0.4-0.2s0.5-0.1,0.7-0.1
			c0.1,0,0.2,0,0.2,0.2c0,0.1,0.1,0.2,0.1,0.3s0,0.2,0,0.2c0.4-0.6,0.8-0.8,1.2-0.8c0.2,0,0.4,0,0.5,0.2c0.1,0.1,0.2,0.2,0.2,0.4
			c0,0.2,0,0.3-0.1,0.5c-0.1,0.2-0.1,0.3-0.2,0.3c0,0-0.1,0-0.2,0s-0.2,0-0.3,0c-0.2,0-0.4,0.1-0.6,0.2c-0.2,0.2-0.3,0.3-0.4,0.4
			v3.8c0,0.2-0.2,0.3-0.6,0.3h-0.2C199,197,198.8,196.9,198.8,196.7z"/>
		<path class="st6" d="M203.5,196.7c-0.3-0.2-0.6-0.6-0.8-1c-0.2-0.4-0.3-1-0.3-1.6c0-0.9,0.2-1.7,0.6-2.2c0.4-0.5,1-0.8,1.7-0.8
			c0.5,0,0.9,0.2,1.3,0.4v-2.6c0-0.2,0.2-0.3,0.6-0.3h0.2c0.4,0,0.6,0.1,0.6,0.3v6.3c0,0.5,0,0.9,0.1,1.1s0.1,0.4,0.1,0.4
			c0,0.1-0.1,0.2-0.4,0.2s-0.5,0.1-0.7,0.1c-0.1,0-0.2,0-0.2-0.2c0-0.1-0.1-0.2-0.1-0.4c0-0.1,0-0.2,0-0.2c-0.2,0.3-0.4,0.5-0.7,0.6
			c-0.3,0.2-0.6,0.2-0.9,0.2C204.2,197.1,203.9,197,203.5,196.7z M206.2,195.2v-2.7c-0.3-0.2-0.6-0.3-1-0.3c-0.8,0-1.2,0.6-1.2,1.8
			c0,0.6,0.1,1.1,0.3,1.4c0.2,0.3,0.4,0.5,0.8,0.5C205.4,195.9,205.8,195.7,206.2,195.2z"/>
		<path class="st6" d="M216.5,196.8c0,0.1-0.2,0.2-0.6,0.2h-0.3c-0.2,0-0.3,0-0.4,0c-0.1,0-0.2-0.1-0.2-0.2l-1.8-2.6h0v2.5
			c0,0.2-0.2,0.3-0.6,0.3h-0.2c-0.4,0-0.6-0.1-0.6-0.3v-7.8c0-0.2,0.2-0.3,0.6-0.3h0.2c0.4,0,0.6,0.1,0.6,0.3v4.6h0l1.6-2.2
			c0-0.1,0.1-0.1,0.2-0.2c0.1,0,0.2,0,0.4,0h0.3c0.2,0,0.3,0,0.4,0s0.1,0.1,0.1,0.1c0,0.1,0,0.1-0.1,0.2l-1.7,2.3l2,2.8
			C216.5,196.7,216.5,196.8,216.5,196.8z"/>
		<path class="st6" d="M217.8,196.7c-0.3-0.3-0.4-0.7-0.4-1.3v-6.5c0-0.2,0.2-0.3,0.6-0.3h0.2c0.4,0,0.6,0.1,0.6,0.3v6.5
			c0,0.2,0,0.4,0.1,0.5c0.1,0.1,0.2,0.2,0.4,0.2c0.1,0,0.2,0,0.2,0c0.1,0,0.1,0,0.2,0c0.1,0,0.2,0.1,0.2,0.3c0,0.2,0.1,0.3,0.1,0.4
			c0,0.3-0.3,0.5-1,0.5C218.5,197.1,218.1,196.9,217.8,196.7z"/>
		<path class="st6" d="M221,196.3c-0.5-0.5-0.7-1.2-0.7-2.2c0-1,0.2-1.8,0.7-2.3c0.5-0.5,1.1-0.8,2-0.8c0.8,0,1.4,0.3,1.8,0.8
			c0.4,0.5,0.6,1.2,0.6,2.1c0,0.1-0.1,0.2-0.2,0.4c-0.1,0.2-0.2,0.2-0.3,0.2h-3.1c0,0.5,0.2,0.8,0.4,1.1c0.2,0.2,0.6,0.3,1,0.3
			c0.4,0,0.8-0.1,1.2-0.3c0.1,0,0.2-0.1,0.2-0.1c0.1,0,0.2,0.1,0.3,0.3c0.1,0.2,0.2,0.4,0.2,0.4c0,0.2-0.1,0.3-0.3,0.4
			c-0.2,0.1-0.5,0.2-0.8,0.3s-0.6,0.1-0.9,0.1C222.2,197.1,221.5,196.8,221,196.3z M224,193.5c0-0.4-0.1-0.8-0.2-1
			c-0.2-0.2-0.4-0.4-0.8-0.4c-0.7,0-1.1,0.4-1.2,1.4H224z"/>
		<path class="st6" d="M226.6,189.9v-0.7c0-0.2,0.2-0.4,0.7-0.4c0.5,0,0.7,0.1,0.7,0.4v0.7c0,0.1,0,0.2-0.2,0.3
			c-0.1,0.1-0.3,0.1-0.6,0.1C226.8,190.3,226.6,190.2,226.6,189.9z M226.6,196.7v-5.3c0-0.2,0.2-0.3,0.6-0.3h0.2
			c0.4,0,0.6,0.1,0.6,0.3v5.3c0,0.2-0.2,0.3-0.6,0.3h-0.2C226.8,197,226.6,196.9,226.6,196.7z"/>
		<path class="st6" d="M229.4,196.7V193c0-0.5,0-0.9-0.1-1.1s-0.1-0.4-0.1-0.4c0-0.1,0.1-0.2,0.4-0.2s0.5-0.1,0.7-0.1
			c0.1,0,0.2,0,0.3,0.2c0.1,0.1,0.1,0.2,0.1,0.3c0,0.1,0,0.2,0,0.2c0.2-0.2,0.4-0.4,0.8-0.6c0.3-0.2,0.6-0.2,1-0.2
			c1.1,0,1.7,0.6,1.7,1.8v3.8c0,0.1,0,0.2-0.2,0.2c-0.1,0-0.2,0.1-0.4,0.1h-0.2c-0.4,0-0.6-0.1-0.6-0.3V193c0-0.6-0.3-0.8-0.8-0.8
			c-0.2,0-0.4,0.1-0.6,0.2c-0.2,0.1-0.4,0.3-0.5,0.5v3.8c0,0.2-0.2,0.3-0.6,0.3H230C229.6,197,229.4,196.9,229.4,196.7z"/>
	</g>
</g>
<line class="st9" x1="158.4" y1="153.1" x2="235.2" y2="153.1"/>
<line class="st9" x1="25.5" y1="153.1" x2="94.6" y2="153.1"/>
<g>
</g>
<g>
</g>
<g>
</g>
<g>
</g>
<g>
</g>
<g>
</g>
</svg>
