<?xml version="1.0" encoding="utf-8"?>
<!-- Generator: Adobe Illustrator 23.1.1, SVG Export Plug-In . SVG Version: 6.00 Build 0)  -->
<svg version="1.1" id="Layer_1" xmlns="http://www.w3.org/2000/svg" xmlns:xlink="http://www.w3.org/1999/xlink" x="0px" y="0px"
	 viewBox="0 0 650 320" style="enable-background:new 0 0 650 320;" xml:space="preserve">
<style type="text/css">
	.st0{fill:none;stroke:#666666;stroke-width:0.9921;stroke-miterlimit:10;}
	.st1{fill:#666666;}
	.st2{fill:#39870C;}
	.st3{fill:#FFFFFF;stroke:#39870C;stroke-width:0.5669;stroke-miterlimit:10;}
	.st4{fill:#FFFFFF;stroke:#39870C;stroke-width:0.5796;stroke-miterlimit:10;}
	.st5{fill:#FFFFFF;}
	.st6{fill:#676CB0;}
	.st7{fill:#FFFFFF;stroke:#AFCF9D;stroke-width:0.5669;stroke-miterlimit:10;}
	.st8{fill:#AFCF9D;}
	.st9{fill:#FFFFFF;stroke:#39870C;stroke-width:0.5732;stroke-miterlimit:10;}
	.st10{fill:none;stroke:#FFFFFF;stroke-width:0.8504;stroke-miterlimit:10;}
</style>
<line class="st0" x1="0.6" y1="320" x2="0.6" y2="0"/>
<g>
	<g>
		<path class="st1" d="M52.6,276.7c-0.1,0-0.1-0.1-0.1-0.2c0,0,0.1-0.5,0.2-1.4c0,0,0.1-0.5,0.3-1.5h-1.2c-0.1,0-0.2,0-0.2-0.1
			c-0.1-0.1-0.1-0.2-0.1-0.4v-0.3c0-0.2,0-0.3,0.1-0.4c0.1-0.1,0.1-0.1,0.2-0.1h1.5l0.4-2.4h-1.3c-0.1,0-0.2,0-0.2-0.1
			c-0.1-0.1-0.1-0.2-0.1-0.4v-0.3c0-0.2,0-0.3,0.1-0.4c0.1-0.1,0.1-0.1,0.2-0.1h1.5l0.5-2.7c0-0.1,0.1-0.2,0.2-0.3
			c0.1-0.1,0.3-0.1,0.5-0.1h0.1c0.3,0,0.4,0.1,0.4,0.2l-0.5,2.8h1.9l0.5-2.7c0-0.1,0.1-0.2,0.2-0.3c0.1-0.1,0.3-0.1,0.5-0.1h0.1
			c0.3,0,0.4,0.1,0.4,0.2l-0.5,2.8h1.1c0.1,0,0.2,0,0.2,0.1s0.1,0.2,0.1,0.4v0.3c0,0.2,0,0.3-0.1,0.4c0,0.1-0.1,0.1-0.2,0.1h-1.3
			l-0.4,2.4h1.2c0.1,0,0.2,0,0.2,0.1s0.1,0.2,0.1,0.4v0.3c0,0.2,0,0.3-0.1,0.4c0,0.1-0.1,0.1-0.2,0.1h-1.5l-0.5,2.8
			c0,0.1-0.1,0.2-0.2,0.3c-0.1,0.1-0.3,0.1-0.5,0.1H56c-0.2,0-0.3,0-0.3-0.1c-0.1,0-0.1-0.1-0.1-0.2c0,0,0.1-0.5,0.2-1.4
			c0,0,0.1-0.5,0.3-1.5h-1.9l-0.5,2.8c0,0.1-0.1,0.2-0.2,0.3c-0.1,0.1-0.3,0.1-0.5,0.1h-0.1C52.8,276.7,52.6,276.7,52.6,276.7z
			 M56.3,272.3l0.4-2.4h-1.9l-0.4,2.4H56.3z"/>
		<path class="st1" d="M62.1,276.6c-0.5-0.1-0.9-0.2-1.2-0.4c-0.3-0.1-0.4-0.3-0.4-0.4c0-0.1,0.1-0.3,0.2-0.5
			c0.1-0.2,0.3-0.3,0.4-0.3c0.1,0,0.2,0,0.4,0.1c0.7,0.3,1.4,0.4,2.1,0.4c0.6,0,1.1-0.2,1.6-0.5c0.5-0.3,0.7-0.9,0.7-1.7
			c0-0.8-0.2-1.3-0.6-1.6c-0.4-0.3-1-0.5-1.8-0.5H63c-0.1,0-0.2,0-0.2-0.1c-0.1-0.1-0.1-0.2-0.1-0.4v-0.2c0-0.2,0-0.3,0.1-0.4
			c0.1-0.1,0.1-0.1,0.2-0.1h0.5c0.5,0,0.9-0.1,1.2-0.3c0.3-0.2,0.5-0.5,0.7-0.8c0.1-0.3,0.2-0.6,0.2-0.9c0-0.4-0.1-0.7-0.4-1.1
			s-0.8-0.5-1.5-0.5c-0.4,0-0.8,0-1.1,0.1c-0.3,0.1-0.6,0.2-0.8,0.3c-0.2,0.1-0.3,0.1-0.4,0.1c-0.1,0-0.2-0.1-0.3-0.3
			c-0.1-0.2-0.2-0.4-0.2-0.5c0-0.2,0.3-0.4,1-0.6s1.3-0.3,1.9-0.3c1,0,1.8,0.2,2.4,0.7c0.6,0.5,0.9,1.2,0.9,2.1c0,0.5-0.2,1-0.5,1.4
			c-0.3,0.4-0.7,0.7-1.2,0.8v0.1c0.5,0.1,1,0.5,1.4,1c0.4,0.5,0.6,1.2,0.6,2c0,0.8-0.2,1.4-0.5,1.9c-0.4,0.5-0.8,0.9-1.4,1.1
			s-1.1,0.3-1.7,0.3C63.1,276.8,62.6,276.7,62.1,276.6z"/>
		<path class="st1" d="M70.5,276.4c-0.1-0.2-0.2-0.4-0.2-0.5c0-0.1,0-0.1,0.1-0.2c1.1-0.4,1.9-1,2.6-1.8s1.1-1.6,1.4-2.5
			c-0.6,0.4-1.3,0.5-2.2,0.5c-0.6,0-1.1-0.1-1.5-0.4c-0.5-0.3-0.8-0.6-1.1-1.1c-0.3-0.5-0.4-1.1-0.4-1.7c0-0.7,0.2-1.2,0.5-1.8
			s0.7-0.9,1.2-1.2c0.5-0.3,1.1-0.4,1.8-0.4c1.1,0,2,0.3,2.5,1c0.6,0.7,0.9,1.7,0.9,3c0,1.4-0.3,2.7-1,3.8c-0.7,1.1-1.4,2-2.3,2.6
			c-0.8,0.6-1.5,0.9-1.9,0.9C70.7,276.7,70.6,276.6,70.5,276.4z M74.7,270.3c0-0.4,0.1-0.7,0.1-1c0-1-0.2-1.7-0.6-2.1
			c-0.4-0.4-0.9-0.6-1.5-0.6c-0.3,0-0.6,0.1-0.9,0.2c-0.3,0.2-0.6,0.4-0.8,0.7c-0.2,0.3-0.3,0.7-0.3,1.2c0,0.7,0.2,1.3,0.6,1.6
			c0.4,0.4,0.9,0.5,1.5,0.5C73.4,270.8,74,270.6,74.7,270.3z"/>
		<path class="st1" d="M78.7,275.9c-0.6-0.6-1-1.4-1-2.5c0-0.8,0.2-1.4,0.5-1.8c0.3-0.4,0.7-0.8,1.3-1c-0.4-0.2-0.7-0.6-1-1
			s-0.4-0.9-0.4-1.5c0-0.9,0.3-1.6,0.9-2c0.6-0.5,1.3-0.7,2.2-0.7c0.9,0,1.6,0.2,2.2,0.7c0.6,0.5,0.9,1.2,0.9,2c0,1.1-0.5,2-1.6,2.4
			c0.6,0.3,1.1,0.6,1.4,1s0.5,1,0.5,1.8c0,1.1-0.3,1.9-1,2.5c-0.6,0.6-1.5,0.8-2.5,0.8C80.2,276.8,79.3,276.5,78.7,275.9z
			 M82.7,275.1c0.4-0.4,0.6-0.9,0.6-1.6c0-0.4-0.1-0.8-0.3-1.1c-0.2-0.3-0.4-0.5-0.7-0.6c-0.3-0.1-0.7-0.3-1.2-0.5l-0.5-0.2
			c-0.5,0.3-0.8,0.6-1.1,1s-0.4,0.8-0.4,1.4c0,0.7,0.2,1.2,0.6,1.6s0.9,0.6,1.5,0.6C81.8,275.6,82.3,275.4,82.7,275.1z M82.9,268.2
			c0-0.5-0.2-0.9-0.5-1.2c-0.3-0.3-0.7-0.4-1.2-0.4c-0.5,0-0.9,0.1-1.2,0.4s-0.5,0.7-0.5,1.2c0,0.4,0.1,0.7,0.3,1s0.4,0.4,0.7,0.6
			s0.6,0.3,1.1,0.4C82.5,269.6,82.9,269,82.9,268.2z"/>
		<path class="st1" d="M87.2,276.7c-0.1,0-0.2-0.1-0.2-0.2c0,0,0-0.1,0.1-0.2l4.6-9.6h-5c-0.1,0-0.2,0-0.2-0.1
			c-0.1-0.1-0.1-0.2-0.1-0.4V266c0-0.2,0-0.3,0.1-0.4s0.1-0.1,0.2-0.1H93c0.1,0,0.1,0.1,0.2,0.3c0.1,0.2,0.1,0.4,0.1,0.5
			c0,0.1,0,0.1,0,0.2l-4.7,10c0,0.1-0.1,0.1-0.2,0.2s-0.2,0.1-0.4,0.1h-0.2C87.5,276.7,87.3,276.7,87.2,276.7z"/>
		<path class="st1" d="M96.4,276.2c-0.5-0.4-1-1-1.3-1.9c-0.3-0.9-0.5-1.9-0.5-3.2s0.2-2.3,0.5-3.2c0.3-0.9,0.8-1.5,1.3-1.9
			c0.5-0.4,1.2-0.6,1.8-0.6s1.3,0.2,1.8,0.6c0.6,0.4,1,1,1.3,1.9s0.5,1.9,0.5,3.2s-0.2,2.3-0.5,3.2s-0.8,1.5-1.3,1.9
			c-0.6,0.4-1.2,0.6-1.8,0.6S97,276.6,96.4,276.2z M99.4,275.2c0.3-0.3,0.6-0.8,0.8-1.5c0.2-0.7,0.3-1.5,0.3-2.6
			c0-1.1-0.1-1.9-0.3-2.6c-0.2-0.7-0.5-1.2-0.8-1.5c-0.3-0.3-0.7-0.5-1.1-0.5c-0.4,0-0.8,0.2-1.1,0.5c-0.3,0.3-0.6,0.8-0.8,1.5
			S96,270,96,271.1c0,1.1,0.1,1.9,0.3,2.6s0.5,1.2,0.8,1.5c0.3,0.3,0.7,0.5,1.1,0.5C98.7,275.6,99.1,275.5,99.4,275.2z"/>
		<path class="st1" d="M104.4,275.8c-0.7-0.7-1-1.8-1-3.3c0-1.5,0.4-2.6,1.1-3.3c0.7-0.7,1.6-1,2.7-1c0.6,0,1.2,0.1,1.7,0.2
			c0.5,0.1,0.7,0.3,0.7,0.5c0,0.1-0.1,0.3-0.2,0.5c-0.1,0.2-0.2,0.3-0.3,0.3c0,0,0,0-0.1,0c0,0-0.1,0-0.1,0
			c-0.6-0.3-1.2-0.4-1.7-0.4c-1.5,0-2.3,1-2.3,3.1c0,1.1,0.2,1.9,0.6,2.4c0.4,0.5,1,0.8,1.9,0.8c0.7,0,1.3-0.1,1.8-0.4l0.2-0.1
			c0.1,0,0.2,0.1,0.4,0.3s0.2,0.4,0.2,0.5s-0.1,0.3-0.3,0.4c-0.2,0.1-0.5,0.2-0.9,0.3c-0.4,0.1-0.8,0.1-1.2,0.1
			C106,276.8,105,276.4,104.4,275.8z"/>
	</g>
	<path class="st2" d="M40.8,282.9H21.4c-0.9,0-1.6-0.7-1.6-1.6v-19.5c0-0.9,0.7-1.6,1.6-1.6h19.5c0.9,0,1.6,0.7,1.6,1.6v19.5
		C42.4,282.2,41.7,282.9,40.8,282.9z"/>
</g>
<g>
	<path class="st3" d="M117.1,75.5H20.7c-1,0-1.8-0.8-1.8-1.8V44c0-1,0.8-1.8,1.8-1.8h96.5c1,0,1.8,0.8,1.8,1.8v29.8
		C118.9,74.8,118.1,75.5,117.1,75.5z"/>
	<g>
		<path class="st2" d="M28.2,62.8c-0.4-0.1-0.7-0.2-0.9-0.4C27,62.2,27,62.1,27,62c0-0.1,0.1-0.3,0.2-0.5c0.2-0.2,0.3-0.3,0.4-0.3
			c0,0,0.1,0,0.3,0.1c0.2,0.1,0.5,0.2,0.7,0.3c0.2,0.1,0.5,0.1,0.8,0.1c0.3,0,0.6-0.1,0.8-0.2c0.2-0.2,0.3-0.4,0.3-0.7
			c0-0.2-0.1-0.4-0.2-0.5s-0.3-0.3-0.4-0.3c-0.2-0.1-0.4-0.2-0.7-0.3l-0.4-0.2c-0.3-0.2-0.6-0.3-0.9-0.5c-0.2-0.2-0.4-0.4-0.6-0.7
			c-0.2-0.3-0.2-0.6-0.2-1.1c0-0.5,0.1-0.9,0.4-1.2c0.2-0.3,0.6-0.6,1-0.7c0.4-0.2,0.8-0.2,1.3-0.2c0.3,0,0.7,0,1,0.1
			c0.3,0.1,0.6,0.2,0.7,0.3c0.2,0.1,0.2,0.2,0.2,0.3c0,0.1-0.1,0.3-0.2,0.5s-0.2,0.3-0.3,0.3c0,0-0.1,0-0.2-0.1
			c-0.1,0-0.1-0.1-0.2-0.1c-0.3-0.1-0.6-0.2-1-0.2c-0.4,0-0.7,0.1-0.9,0.2c-0.2,0.2-0.3,0.4-0.3,0.6c0,0.2,0.1,0.4,0.2,0.5
			c0.1,0.1,0.3,0.2,0.4,0.3c0.2,0.1,0.4,0.2,0.7,0.3c0.4,0.2,0.8,0.3,1.1,0.5c0.3,0.2,0.5,0.4,0.7,0.7c0.2,0.3,0.3,0.7,0.3,1.2
			c0,0.8-0.2,1.4-0.7,1.8c-0.5,0.4-1.1,0.6-1.8,0.6C29,62.9,28.5,62.9,28.2,62.8z"/>
		<path class="st2" d="M33.6,62.5c-0.3-0.3-0.4-0.7-0.4-1.3v-3.1h-0.3c-0.1,0-0.2,0-0.2-0.1c0-0.1-0.1-0.2-0.1-0.4v-0.2
			c0-0.2,0-0.3,0.1-0.4c0-0.1,0.1-0.1,0.2-0.1h0.3l0.1-1.1c0-0.2,0.2-0.3,0.5-0.3h0.3c0.3,0,0.5,0.1,0.5,0.3V57h0.7
			c0.1,0,0.2,0,0.2,0.1c0,0.1,0.1,0.2,0.1,0.4v0.2c0,0.2,0,0.3-0.1,0.4c0,0.1-0.1,0.1-0.2,0.1h-0.7v3.1c0,0.2,0,0.4,0.1,0.5
			c0.1,0.1,0.2,0.1,0.4,0.1c0.1,0,0.1,0,0.2,0c0.1,0,0.1,0,0.2,0c0.1,0,0.2,0.1,0.2,0.3c0.1,0.2,0.1,0.3,0.1,0.4
			c0,0.3-0.3,0.5-1,0.5C34.2,62.9,33.9,62.8,33.6,62.5z"/>
		<path class="st2" d="M36.8,62.5c-0.3-0.3-0.5-0.7-0.5-1.2c0-1.4,1.1-2.1,3.4-2.1v-0.4c0-0.5-0.3-0.7-1-0.7c-0.3,0-0.5,0-0.7,0.1
			c-0.2,0.1-0.4,0.1-0.6,0.2c-0.2,0.1-0.2,0.1-0.3,0.1c-0.1,0-0.2-0.1-0.3-0.3c-0.1-0.2-0.2-0.4-0.2-0.5c0-0.1,0.1-0.2,0.3-0.4
			s0.5-0.2,0.8-0.3c0.3-0.1,0.7-0.1,1.1-0.1c0.8,0,1.4,0.2,1.8,0.5c0.4,0.3,0.6,0.8,0.6,1.3V61c0,0.5,0,0.9,0.1,1.1s0.1,0.4,0.1,0.4
			c0,0.1-0.1,0.2-0.4,0.2s-0.5,0.1-0.7,0.1c-0.1,0-0.2-0.1-0.3-0.2c-0.1-0.1-0.1-0.2-0.1-0.4c0-0.1,0-0.2,0-0.3
			c-0.2,0.2-0.4,0.4-0.7,0.6c-0.3,0.2-0.6,0.3-1.1,0.3C37.6,62.9,37.1,62.8,36.8,62.5z M39.3,61.6c0.2-0.1,0.4-0.3,0.6-0.5v-0.9
			c-0.6,0-1.1,0.1-1.4,0.2s-0.5,0.4-0.5,0.7c0,0.2,0.1,0.4,0.2,0.5s0.3,0.2,0.5,0.2C38.8,61.8,39,61.7,39.3,61.6z"/>
		<path class="st2" d="M42.7,62.5v-3.7c0-0.5,0-0.9-0.1-1.1s-0.1-0.4-0.1-0.4c0-0.1,0.1-0.2,0.4-0.2c0.2-0.1,0.5-0.1,0.7-0.1
			c0.1,0,0.2,0.1,0.3,0.2c0.1,0.1,0.1,0.2,0.1,0.3c0,0.1,0,0.2,0.1,0.2c0.2-0.2,0.4-0.5,0.7-0.6c0.3-0.2,0.6-0.2,1-0.2
			c1.1,0,1.7,0.6,1.7,1.8v3.8c0,0.1,0,0.2-0.1,0.2s-0.2,0.1-0.5,0.1h-0.2c-0.4,0-0.6-0.1-0.6-0.3v-3.6c0-0.6-0.3-0.8-0.8-0.8
			c-0.2,0-0.4,0.1-0.6,0.2c-0.2,0.1-0.3,0.3-0.5,0.5v3.8c0,0.2-0.2,0.3-0.6,0.3h-0.2C42.9,62.9,42.7,62.8,42.7,62.5z"/>
		<path class="st2" d="M49.6,62.6c-0.3-0.2-0.6-0.6-0.8-1s-0.3-1-0.3-1.6c0-0.9,0.2-1.7,0.6-2.2c0.4-0.5,1-0.8,1.7-0.8
			c0.5,0,0.9,0.1,1.3,0.4v-2.6c0-0.2,0.2-0.3,0.6-0.3h0.2c0.4,0,0.6,0.1,0.6,0.3V61c0,0.5,0,0.9,0.1,1.1s0.1,0.4,0.1,0.4
			c0,0.1-0.1,0.2-0.4,0.2s-0.5,0.1-0.7,0.1c-0.1,0-0.2-0.1-0.3-0.2c-0.1-0.1-0.1-0.2-0.1-0.4c0-0.1,0-0.2,0-0.3
			c-0.2,0.3-0.4,0.5-0.7,0.6c-0.3,0.2-0.6,0.2-0.9,0.2C50.3,62.9,49.9,62.8,49.6,62.6z M52.2,61v-2.7c-0.3-0.2-0.6-0.3-1-0.3
			c-0.8,0-1.2,0.6-1.2,1.8c0,0.6,0.1,1.1,0.3,1.4s0.5,0.5,0.8,0.5C51.5,61.7,51.9,61.5,52.2,61z"/>
		<path class="st2" d="M55.3,62.5c-0.3-0.3-0.5-0.7-0.5-1.2c0-1.4,1.1-2.1,3.4-2.1v-0.4c0-0.5-0.3-0.7-1-0.7c-0.3,0-0.5,0-0.7,0.1
			c-0.2,0.1-0.4,0.1-0.6,0.2c-0.2,0.1-0.2,0.1-0.3,0.1c-0.1,0-0.2-0.1-0.3-0.3c-0.1-0.2-0.2-0.4-0.2-0.5c0-0.1,0.1-0.2,0.3-0.4
			s0.5-0.2,0.8-0.3c0.3-0.1,0.7-0.1,1.1-0.1c0.8,0,1.4,0.2,1.8,0.5c0.4,0.3,0.6,0.8,0.6,1.3V61c0,0.5,0,0.9,0.1,1.1s0.1,0.4,0.1,0.4
			c0,0.1-0.1,0.2-0.4,0.2s-0.5,0.1-0.7,0.1c-0.1,0-0.2-0.1-0.3-0.2c-0.1-0.1-0.1-0.2-0.1-0.4c0-0.1,0-0.2,0-0.3
			c-0.2,0.2-0.4,0.4-0.7,0.6c-0.3,0.2-0.6,0.3-1.1,0.3C56,62.9,55.6,62.8,55.3,62.5z M57.7,61.6c0.2-0.1,0.4-0.3,0.6-0.5v-0.9
			c-0.6,0-1.1,0.1-1.4,0.2s-0.5,0.4-0.5,0.7c0,0.2,0.1,0.4,0.2,0.5s0.3,0.2,0.5,0.2C57.2,61.8,57.4,61.7,57.7,61.6z"/>
		<path class="st2" d="M61.3,62.5c-0.3-0.3-0.5-0.7-0.5-1.2c0-1.4,1.1-2.1,3.4-2.1v-0.4c0-0.5-0.3-0.7-1-0.7c-0.3,0-0.5,0-0.7,0.1
			c-0.2,0.1-0.4,0.1-0.6,0.2c-0.2,0.1-0.2,0.1-0.3,0.1c-0.1,0-0.2-0.1-0.3-0.3c-0.1-0.2-0.2-0.4-0.2-0.5c0-0.1,0.1-0.2,0.3-0.4
			s0.5-0.2,0.8-0.3c0.3-0.1,0.7-0.1,1.1-0.1c0.8,0,1.4,0.2,1.8,0.5c0.4,0.3,0.6,0.8,0.6,1.3V61c0,0.5,0,0.9,0.1,1.1s0.1,0.4,0.1,0.4
			c0,0.1-0.1,0.2-0.4,0.2s-0.5,0.1-0.7,0.1c-0.1,0-0.2-0.1-0.3-0.2c-0.1-0.1-0.1-0.2-0.1-0.4c0-0.1,0-0.2,0-0.3
			c-0.2,0.2-0.4,0.4-0.7,0.6c-0.3,0.2-0.6,0.3-1.1,0.3C62,62.9,61.6,62.8,61.3,62.5z M63.7,61.6c0.2-0.1,0.4-0.3,0.6-0.5v-0.9
			c-0.6,0-1.1,0.1-1.4,0.2s-0.5,0.4-0.5,0.7c0,0.2,0.1,0.4,0.2,0.5s0.3,0.2,0.5,0.2C63.2,61.8,63.5,61.7,63.7,61.6z"/>
		<path class="st2" d="M67.2,62.5v-3.7c0-0.5,0-0.9-0.1-1.1S67,57.4,67,57.3c0-0.1,0.1-0.2,0.4-0.2c0.2-0.1,0.5-0.1,0.7-0.1
			c0.1,0,0.2,0.1,0.3,0.2s0.1,0.2,0.1,0.3c0,0.1,0,0.2,0.1,0.2c0.3-0.6,0.8-0.8,1.2-0.8c0.2,0,0.4,0.1,0.5,0.2s0.2,0.2,0.2,0.4
			c0,0.1,0,0.3-0.1,0.5c-0.1,0.2-0.1,0.3-0.2,0.3c0,0-0.1,0-0.2-0.1c-0.1,0-0.2-0.1-0.3-0.1c-0.2,0-0.4,0.1-0.6,0.2
			c-0.2,0.1-0.3,0.3-0.4,0.4v3.8c0,0.2-0.2,0.3-0.6,0.3h-0.2C67.4,62.9,67.2,62.8,67.2,62.5z"/>
		<path class="st2" d="M71.9,62.6c-0.3-0.2-0.6-0.6-0.8-1s-0.3-1-0.3-1.6c0-0.9,0.2-1.7,0.6-2.2c0.4-0.5,1-0.8,1.7-0.8
			c0.5,0,0.9,0.1,1.3,0.4v-2.6c0-0.2,0.2-0.3,0.6-0.3h0.2c0.4,0,0.6,0.1,0.6,0.3V61c0,0.5,0,0.9,0.1,1.1s0.1,0.4,0.1,0.4
			c0,0.1-0.1,0.2-0.4,0.2s-0.5,0.1-0.7,0.1c-0.1,0-0.2-0.1-0.3-0.2c-0.1-0.1-0.1-0.2-0.1-0.4c0-0.1,0-0.2,0-0.3
			c-0.2,0.3-0.4,0.5-0.7,0.6c-0.3,0.2-0.6,0.2-0.9,0.2C72.6,62.9,72.2,62.8,71.9,62.6z M74.5,61v-2.7c-0.3-0.2-0.6-0.3-1-0.3
			c-0.8,0-1.2,0.6-1.2,1.8c0,0.6,0.1,1.1,0.3,1.4s0.5,0.5,0.8,0.5C73.8,61.7,74.2,61.5,74.5,61z"/>
		<path class="st2" d="M82,62.7c-0.3-0.1-0.5-0.4-0.7-0.6c0,0.2-0.1,0.4-0.1,0.6c0,0.1-0.1,0.2-0.2,0.2c-0.1,0-0.2,0.1-0.4,0.1h-0.1
			c-0.4,0-0.6-0.1-0.6-0.3v-7.9c0-0.2,0.2-0.3,0.6-0.3h0.2c0.4,0,0.6,0.1,0.6,0.3v2.6c0.4-0.3,0.8-0.4,1.3-0.4
			c0.7,0,1.3,0.3,1.7,0.8c0.4,0.5,0.6,1.3,0.6,2.2c0,0.6-0.1,1.2-0.3,1.6c-0.2,0.5-0.4,0.8-0.8,1c-0.3,0.2-0.7,0.4-1.1,0.4
			C82.6,62.9,82.3,62.8,82,62.7z M83.3,61.3c0.2-0.3,0.3-0.8,0.3-1.4c0-1.2-0.4-1.8-1.2-1.8c-0.4,0-0.7,0.1-1,0.3V61
			c0.2,0.2,0.3,0.4,0.5,0.5c0.2,0.1,0.4,0.2,0.6,0.2C82.9,61.7,83.2,61.6,83.3,61.3z"/>
		<path class="st2" d="M86.2,61.1v-3.8c0-0.1,0-0.2,0.1-0.2c0.1-0.1,0.2-0.1,0.5-0.1H87c0.4,0,0.6,0.1,0.6,0.3v3.6
			c0,0.6,0.3,0.8,0.8,0.8c0.2,0,0.4-0.1,0.6-0.2c0.2-0.1,0.3-0.3,0.5-0.5v-3.8c0-0.2,0.2-0.3,0.6-0.3h0.2c0.4,0,0.6,0.1,0.6,0.3V61
			c0,0.5,0,0.9,0.1,1.1s0.1,0.4,0.1,0.4c0,0.1-0.1,0.2-0.4,0.2c-0.2,0.1-0.5,0.1-0.7,0.1c-0.1,0-0.2-0.1-0.3-0.2
			c-0.1-0.1-0.1-0.2-0.1-0.4c0-0.1,0-0.2-0.1-0.3c-0.2,0.2-0.5,0.5-0.8,0.6c-0.3,0.2-0.6,0.2-1,0.2C86.8,62.9,86.2,62.3,86.2,61.1z"
			/>
		<path class="st2" d="M93,62.5c-0.3-0.3-0.4-0.7-0.4-1.3v-3.1h-0.3c-0.1,0-0.2,0-0.2-0.1c0-0.1-0.1-0.2-0.1-0.4v-0.2
			c0-0.2,0-0.3,0.1-0.4c0-0.1,0.1-0.1,0.2-0.1h0.3l0.1-1.1c0-0.2,0.2-0.3,0.5-0.3h0.3c0.3,0,0.5,0.1,0.5,0.3V57h0.7
			c0.1,0,0.2,0,0.2,0.1c0,0.1,0.1,0.2,0.1,0.4v0.2c0,0.2,0,0.3-0.1,0.4c0,0.1-0.1,0.1-0.2,0.1H94v3.1c0,0.2,0,0.4,0.1,0.5
			c0.1,0.1,0.2,0.1,0.4,0.1c0.1,0,0.1,0,0.2,0c0.1,0,0.1,0,0.2,0c0.1,0,0.2,0.1,0.2,0.3c0.1,0.2,0.1,0.3,0.1,0.4
			c0,0.3-0.3,0.5-1,0.5C93.7,62.9,93.3,62.8,93,62.5z"/>
		<path class="st2" d="M96.8,62.5c-0.3-0.3-0.4-0.7-0.4-1.3v-3.1H96c-0.1,0-0.2,0-0.2-0.1c0-0.1-0.1-0.2-0.1-0.4v-0.2
			c0-0.2,0-0.3,0.1-0.4c0-0.1,0.1-0.1,0.2-0.1h0.3l0.1-1.1c0-0.2,0.2-0.3,0.5-0.3h0.3c0.3,0,0.5,0.1,0.5,0.3V57h0.7
			c0.1,0,0.2,0,0.2,0.1c0,0.1,0.1,0.2,0.1,0.4v0.2c0,0.2,0,0.3-0.1,0.4c0,0.1-0.1,0.1-0.2,0.1h-0.7v3.1c0,0.2,0,0.4,0.1,0.5
			c0.1,0.1,0.2,0.1,0.4,0.1c0.1,0,0.1,0,0.2,0c0.1,0,0.1,0,0.2,0c0.1,0,0.2,0.1,0.2,0.3c0.1,0.2,0.1,0.3,0.1,0.4
			c0,0.3-0.3,0.5-1,0.5C97.4,62.9,97.1,62.8,96.8,62.5z"/>
		<path class="st2" d="M100.3,62.1c-0.5-0.5-0.7-1.3-0.7-2.2c0-1,0.2-1.7,0.7-2.2c0.5-0.5,1.1-0.8,2-0.8c0.9,0,1.5,0.3,2,0.8
			c0.5,0.5,0.7,1.3,0.7,2.2s-0.2,1.7-0.7,2.2s-1.1,0.8-2,0.8C101.4,62.9,100.8,62.7,100.3,62.1z M103.2,61.3
			c0.2-0.3,0.3-0.8,0.3-1.4c0-0.6-0.1-1.1-0.3-1.4c-0.2-0.3-0.5-0.5-0.9-0.5s-0.7,0.2-0.9,0.5c-0.2,0.3-0.3,0.8-0.3,1.4
			c0,0.6,0.1,1.1,0.3,1.4c0.2,0.3,0.5,0.5,0.9,0.5S103,61.6,103.2,61.3z"/>
		<path class="st2" d="M106.2,62.5v-3.7c0-0.5,0-0.9-0.1-1.1s-0.1-0.4-0.1-0.4c0-0.1,0.1-0.2,0.4-0.2c0.2-0.1,0.5-0.1,0.7-0.1
			c0.1,0,0.2,0.1,0.3,0.2c0.1,0.1,0.1,0.2,0.1,0.3c0,0.1,0,0.2,0.1,0.2c0.2-0.2,0.4-0.5,0.7-0.6c0.3-0.2,0.6-0.2,1-0.2
			c1.1,0,1.7,0.6,1.7,1.8v3.8c0,0.1,0,0.2-0.1,0.2s-0.2,0.1-0.5,0.1h-0.2c-0.4,0-0.6-0.1-0.6-0.3v-3.6c0-0.6-0.3-0.8-0.8-0.8
			c-0.2,0-0.4,0.1-0.6,0.2c-0.2,0.1-0.3,0.3-0.5,0.5v3.8c0,0.2-0.2,0.3-0.6,0.3h-0.2C106.4,62.9,106.2,62.8,106.2,62.5z"/>
	</g>
</g>
<g>
	<path class="st4" d="M326.6,75.5H153.7c-1.3,0-2.3-1.1-2.3-2.3V44.6c0-1.3,1.1-2.3,2.3-2.3h172.9c1.3,0,2.3,1.1,2.3,2.3v28.6
		C328.9,74.5,327.9,75.5,326.6,75.5z"/>
	<g>
		<path class="st2" d="M177.9,62.8c-0.4-0.1-0.7-0.2-0.9-0.4c-0.2-0.1-0.3-0.3-0.3-0.4c0-0.1,0.1-0.3,0.2-0.5
			c0.2-0.2,0.3-0.3,0.4-0.3c0,0,0.1,0,0.3,0.1c0.2,0.1,0.5,0.2,0.7,0.3c0.2,0.1,0.5,0.1,0.8,0.1c0.3,0,0.6-0.1,0.8-0.2
			c0.2-0.2,0.3-0.4,0.3-0.7c0-0.2-0.1-0.4-0.2-0.5s-0.3-0.3-0.4-0.3c-0.2-0.1-0.4-0.2-0.7-0.3l-0.4-0.2c-0.3-0.2-0.6-0.3-0.9-0.5
			c-0.2-0.2-0.4-0.4-0.6-0.7c-0.2-0.3-0.2-0.6-0.2-1.1c0-0.5,0.1-0.9,0.4-1.2c0.2-0.3,0.6-0.6,1-0.7c0.4-0.2,0.8-0.2,1.3-0.2
			c0.3,0,0.7,0,1,0.1c0.3,0.1,0.6,0.2,0.7,0.3c0.2,0.1,0.2,0.2,0.2,0.3c0,0.1-0.1,0.3-0.2,0.5s-0.2,0.3-0.3,0.3c0,0-0.1,0-0.2-0.1
			c-0.1,0-0.1-0.1-0.2-0.1c-0.3-0.1-0.6-0.2-1-0.2c-0.4,0-0.7,0.1-0.9,0.2c-0.2,0.2-0.3,0.4-0.3,0.6c0,0.2,0.1,0.4,0.2,0.5
			c0.1,0.1,0.3,0.2,0.4,0.3c0.2,0.1,0.4,0.2,0.7,0.3c0.4,0.2,0.8,0.3,1.1,0.5c0.3,0.2,0.5,0.4,0.7,0.7c0.2,0.3,0.3,0.7,0.3,1.2
			c0,0.8-0.2,1.4-0.7,1.8c-0.5,0.4-1.1,0.6-1.8,0.6C178.8,62.9,178.3,62.9,177.9,62.8z"/>
		<path class="st2" d="M183.4,62.5c-0.3-0.3-0.4-0.7-0.4-1.3v-3.1h-0.3c-0.1,0-0.2,0-0.2-0.1c0-0.1-0.1-0.2-0.1-0.4v-0.2
			c0-0.2,0-0.3,0.1-0.4c0-0.1,0.1-0.1,0.2-0.1h0.3l0.1-1.1c0-0.2,0.2-0.3,0.5-0.3h0.3c0.3,0,0.5,0.1,0.5,0.3V57h0.7
			c0.1,0,0.2,0,0.2,0.1c0,0.1,0.1,0.2,0.1,0.4v0.2c0,0.2,0,0.3-0.1,0.4c0,0.1-0.1,0.1-0.2,0.1h-0.7v3.1c0,0.2,0,0.4,0.1,0.5
			c0.1,0.1,0.2,0.1,0.4,0.1c0.1,0,0.1,0,0.2,0c0.1,0,0.1,0,0.2,0c0.1,0,0.2,0.1,0.2,0.3c0.1,0.2,0.1,0.3,0.1,0.4
			c0,0.3-0.3,0.5-1,0.5C184.1,62.9,183.7,62.8,183.4,62.5z"/>
		<path class="st2" d="M186.8,62.5c-0.3-0.3-0.5-0.7-0.5-1.2c0-1.4,1.1-2.1,3.4-2.1v-0.4c0-0.5-0.3-0.7-1-0.7c-0.3,0-0.5,0-0.7,0.1
			c-0.2,0.1-0.4,0.1-0.6,0.2c-0.2,0.1-0.2,0.1-0.3,0.1c-0.1,0-0.2-0.1-0.3-0.3c-0.1-0.2-0.2-0.4-0.2-0.5c0-0.1,0.1-0.2,0.3-0.4
			s0.5-0.2,0.8-0.3c0.3-0.1,0.7-0.1,1.1-0.1c0.8,0,1.4,0.2,1.8,0.5c0.4,0.3,0.6,0.8,0.6,1.3V61c0,0.5,0,0.9,0.1,1.1s0.1,0.4,0.1,0.4
			c0,0.1-0.1,0.2-0.4,0.2s-0.5,0.1-0.7,0.1c-0.1,0-0.2-0.1-0.3-0.2c-0.1-0.1-0.1-0.2-0.1-0.4c0-0.1,0-0.2,0-0.3
			c-0.2,0.2-0.4,0.4-0.7,0.6c-0.3,0.2-0.6,0.3-1.1,0.3C187.6,62.9,187.1,62.8,186.8,62.5z M189.2,61.6c0.2-0.1,0.4-0.3,0.6-0.5v-0.9
			c-0.6,0-1.1,0.1-1.4,0.2s-0.5,0.4-0.5,0.7c0,0.2,0.1,0.4,0.2,0.5s0.3,0.2,0.5,0.2C188.8,61.8,189,61.7,189.2,61.6z"/>
		<path class="st2" d="M192.8,62.5v-3.7c0-0.5,0-0.9-0.1-1.1s-0.1-0.4-0.1-0.4c0-0.1,0.1-0.2,0.4-0.2c0.2-0.1,0.5-0.1,0.7-0.1
			c0.1,0,0.2,0.1,0.3,0.2c0.1,0.1,0.1,0.2,0.1,0.3c0,0.1,0,0.2,0.1,0.2c0.2-0.2,0.4-0.5,0.7-0.6c0.3-0.2,0.6-0.2,1-0.2
			c1.1,0,1.7,0.6,1.7,1.8v3.8c0,0.1,0,0.2-0.1,0.2s-0.2,0.1-0.5,0.1h-0.2c-0.4,0-0.6-0.1-0.6-0.3v-3.6c0-0.6-0.3-0.8-0.8-0.8
			c-0.2,0-0.4,0.1-0.6,0.2c-0.2,0.1-0.3,0.3-0.5,0.5v3.8c0,0.2-0.2,0.3-0.6,0.3h-0.2C193,62.9,192.8,62.8,192.8,62.5z"/>
		<path class="st2" d="M199.8,62.6c-0.3-0.2-0.6-0.6-0.8-1s-0.3-1-0.3-1.6c0-0.9,0.2-1.7,0.6-2.2c0.4-0.5,1-0.8,1.7-0.8
			c0.5,0,0.9,0.1,1.3,0.4v-2.6c0-0.2,0.2-0.3,0.6-0.3h0.2c0.4,0,0.6,0.1,0.6,0.3V61c0,0.5,0,0.9,0.1,1.1s0.1,0.4,0.1,0.4
			c0,0.1-0.1,0.2-0.4,0.2s-0.5,0.1-0.7,0.1c-0.1,0-0.2-0.1-0.3-0.2c-0.1-0.1-0.1-0.2-0.1-0.4c0-0.1,0-0.2,0-0.3
			c-0.2,0.3-0.4,0.5-0.7,0.6c-0.3,0.2-0.6,0.2-0.9,0.2C200.5,62.9,200.1,62.8,199.8,62.6z M202.4,61v-2.7c-0.3-0.2-0.6-0.3-1-0.3
			c-0.8,0-1.2,0.6-1.2,1.8c0,0.6,0.1,1.1,0.3,1.4s0.5,0.5,0.8,0.5C201.7,61.7,202.1,61.5,202.4,61z"/>
		<path class="st2" d="M205.6,62.5c-0.3-0.3-0.5-0.7-0.5-1.2c0-1.4,1.1-2.1,3.4-2.1v-0.4c0-0.5-0.3-0.7-1-0.7c-0.3,0-0.5,0-0.7,0.1
			c-0.2,0.1-0.4,0.1-0.6,0.2c-0.2,0.1-0.2,0.1-0.3,0.1c-0.1,0-0.2-0.1-0.3-0.3c-0.1-0.2-0.2-0.4-0.2-0.5c0-0.1,0.1-0.2,0.3-0.4
			s0.5-0.2,0.8-0.3c0.3-0.1,0.7-0.1,1.1-0.1c0.8,0,1.4,0.2,1.8,0.5c0.4,0.3,0.6,0.8,0.6,1.3V61c0,0.5,0,0.9,0.1,1.1s0.1,0.4,0.1,0.4
			c0,0.1-0.1,0.2-0.4,0.2s-0.5,0.1-0.7,0.1c-0.1,0-0.2-0.1-0.3-0.2c-0.1-0.1-0.1-0.2-0.1-0.4c0-0.1,0-0.2,0-0.3
			c-0.2,0.2-0.4,0.4-0.7,0.6c-0.3,0.2-0.6,0.3-1.1,0.3C206.3,62.9,205.9,62.8,205.6,62.5z M208,61.6c0.2-0.1,0.4-0.3,0.6-0.5v-0.9
			c-0.6,0-1.1,0.1-1.4,0.2s-0.5,0.4-0.5,0.7c0,0.2,0.1,0.4,0.2,0.5s0.3,0.2,0.5,0.2C207.5,61.8,207.8,61.7,208,61.6z"/>
		<path class="st2" d="M211.7,62.5c-0.3-0.3-0.5-0.7-0.5-1.2c0-1.4,1.1-2.1,3.4-2.1v-0.4c0-0.5-0.3-0.7-1-0.7c-0.3,0-0.5,0-0.7,0.1
			c-0.2,0.1-0.4,0.1-0.6,0.2c-0.2,0.1-0.2,0.1-0.3,0.1c-0.1,0-0.2-0.1-0.3-0.3c-0.1-0.2-0.2-0.4-0.2-0.5c0-0.1,0.1-0.2,0.3-0.4
			s0.5-0.2,0.8-0.3c0.3-0.1,0.7-0.1,1.1-0.1c0.8,0,1.4,0.2,1.8,0.5c0.4,0.3,0.6,0.8,0.6,1.3V61c0,0.5,0,0.9,0.1,1.1s0.1,0.4,0.1,0.4
			c0,0.1-0.1,0.2-0.4,0.2s-0.5,0.1-0.7,0.1c-0.1,0-0.2-0.1-0.3-0.2c-0.1-0.1-0.1-0.2-0.1-0.4c0-0.1,0-0.2,0-0.3
			c-0.2,0.2-0.4,0.4-0.7,0.6c-0.3,0.2-0.6,0.3-1.1,0.3C212.4,62.9,212,62.8,211.7,62.5z M214.1,61.6c0.2-0.1,0.4-0.3,0.6-0.5v-0.9
			c-0.6,0-1.1,0.1-1.4,0.2s-0.5,0.4-0.5,0.7c0,0.2,0.1,0.4,0.2,0.5s0.3,0.2,0.5,0.2C213.7,61.8,213.9,61.7,214.1,61.6z"/>
		<path class="st2" d="M217.7,62.5v-3.7c0-0.5,0-0.9-0.1-1.1s-0.1-0.4-0.1-0.4c0-0.1,0.1-0.2,0.4-0.2c0.2-0.1,0.5-0.1,0.7-0.1
			c0.1,0,0.2,0.1,0.3,0.2s0.1,0.2,0.1,0.3c0,0.1,0,0.2,0.1,0.2c0.3-0.6,0.8-0.8,1.2-0.8c0.2,0,0.4,0.1,0.5,0.2s0.2,0.2,0.2,0.4
			c0,0.1,0,0.3-0.1,0.5c-0.1,0.2-0.1,0.3-0.2,0.3c0,0-0.1,0-0.2-0.1c-0.1,0-0.2-0.1-0.3-0.1c-0.2,0-0.4,0.1-0.6,0.2
			c-0.2,0.1-0.3,0.3-0.4,0.4v3.8c0,0.2-0.2,0.3-0.6,0.3h-0.2C217.9,62.9,217.7,62.8,217.7,62.5z"/>
		<path class="st2" d="M222.5,62.6c-0.3-0.2-0.6-0.6-0.8-1s-0.3-1-0.3-1.6c0-0.9,0.2-1.7,0.6-2.2c0.4-0.5,1-0.8,1.7-0.8
			c0.5,0,0.9,0.1,1.3,0.4v-2.6c0-0.2,0.2-0.3,0.6-0.3h0.2c0.4,0,0.6,0.1,0.6,0.3V61c0,0.5,0,0.9,0.1,1.1s0.1,0.4,0.1,0.4
			c0,0.1-0.1,0.2-0.4,0.2s-0.5,0.1-0.7,0.1c-0.1,0-0.2-0.1-0.3-0.2c-0.1-0.1-0.1-0.2-0.1-0.4c0-0.1,0-0.2,0-0.3
			c-0.2,0.3-0.4,0.5-0.7,0.6c-0.3,0.2-0.6,0.2-0.9,0.2C223.2,62.9,222.9,62.8,222.5,62.6z M225.2,61v-2.7c-0.3-0.2-0.6-0.3-1-0.3
			c-0.8,0-1.2,0.6-1.2,1.8c0,0.6,0.1,1.1,0.3,1.4s0.5,0.5,0.8,0.5C224.5,61.7,224.8,61.5,225.2,61z"/>
		<path class="st2" d="M232.9,62.7c-0.3-0.1-0.5-0.4-0.7-0.6c0,0.2-0.1,0.4-0.1,0.6c0,0.1-0.1,0.2-0.2,0.2c-0.1,0-0.2,0.1-0.4,0.1
			h-0.1c-0.4,0-0.6-0.1-0.6-0.3v-7.9c0-0.2,0.2-0.3,0.6-0.3h0.2c0.4,0,0.6,0.1,0.6,0.3v2.6c0.4-0.3,0.8-0.4,1.3-0.4
			c0.7,0,1.3,0.3,1.7,0.8c0.4,0.5,0.6,1.3,0.6,2.2c0,0.6-0.1,1.2-0.3,1.6c-0.2,0.5-0.4,0.8-0.8,1c-0.3,0.2-0.7,0.4-1.1,0.4
			C233.5,62.9,233.2,62.8,232.9,62.7z M234.2,61.3c0.2-0.3,0.3-0.8,0.3-1.4c0-1.2-0.4-1.8-1.2-1.8c-0.4,0-0.7,0.1-1,0.3V61
			c0.2,0.2,0.3,0.4,0.5,0.5c0.2,0.1,0.4,0.2,0.6,0.2C233.8,61.7,234.1,61.6,234.2,61.3z"/>
		<path class="st2" d="M237.2,61.1v-3.8c0-0.1,0-0.2,0.1-0.2c0.1-0.1,0.2-0.1,0.5-0.1h0.2c0.4,0,0.6,0.1,0.6,0.3v3.6
			c0,0.6,0.3,0.8,0.8,0.8c0.2,0,0.4-0.1,0.6-0.2c0.2-0.1,0.3-0.3,0.5-0.5v-3.8c0-0.2,0.2-0.3,0.6-0.3h0.2c0.4,0,0.6,0.1,0.6,0.3V61
			c0,0.5,0,0.9,0.1,1.1s0.1,0.4,0.1,0.4c0,0.1-0.1,0.2-0.4,0.2c-0.2,0.1-0.5,0.1-0.7,0.1c-0.1,0-0.2-0.1-0.3-0.2
			c-0.1-0.1-0.1-0.2-0.1-0.4c0-0.1,0-0.2-0.1-0.3c-0.2,0.2-0.5,0.5-0.8,0.6c-0.3,0.2-0.6,0.2-1,0.2
			C237.8,62.9,237.2,62.3,237.2,61.1z"/>
		<path class="st2" d="M244.2,62.5c-0.3-0.3-0.4-0.7-0.4-1.3v-3.1h-0.3c-0.1,0-0.2,0-0.2-0.1c0-0.1-0.1-0.2-0.1-0.4v-0.2
			c0-0.2,0-0.3,0.1-0.4c0-0.1,0.1-0.1,0.2-0.1h0.3l0.1-1.1c0-0.2,0.2-0.3,0.5-0.3h0.3c0.3,0,0.5,0.1,0.5,0.3V57h0.7
			c0.1,0,0.2,0,0.2,0.1c0,0.1,0.1,0.2,0.1,0.4v0.2c0,0.2,0,0.3-0.1,0.4c0,0.1-0.1,0.1-0.2,0.1h-0.7v3.1c0,0.2,0,0.4,0.1,0.5
			c0.1,0.1,0.2,0.1,0.4,0.1c0.1,0,0.1,0,0.2,0c0.1,0,0.1,0,0.2,0c0.1,0,0.2,0.1,0.2,0.3c0.1,0.2,0.1,0.3,0.1,0.4
			c0,0.3-0.3,0.5-1,0.5C244.8,62.9,244.4,62.8,244.2,62.5z"/>
		<path class="st2" d="M248,62.5c-0.3-0.3-0.4-0.7-0.4-1.3v-3.1h-0.3c-0.1,0-0.2,0-0.2-0.1c0-0.1-0.1-0.2-0.1-0.4v-0.2
			c0-0.2,0-0.3,0.1-0.4c0-0.1,0.1-0.1,0.2-0.1h0.3l0.1-1.1c0-0.2,0.2-0.3,0.5-0.3h0.3c0.3,0,0.5,0.1,0.5,0.3V57h0.7
			c0.1,0,0.2,0,0.2,0.1c0,0.1,0.1,0.2,0.1,0.4v0.2c0,0.2,0,0.3-0.1,0.4c0,0.1-0.1,0.1-0.2,0.1H249v3.1c0,0.2,0,0.4,0.1,0.5
			c0.1,0.1,0.2,0.1,0.4,0.1c0.1,0,0.1,0,0.2,0c0.1,0,0.1,0,0.2,0c0.1,0,0.2,0.1,0.2,0.3c0.1,0.2,0.1,0.3,0.1,0.4
			c0,0.3-0.3,0.5-1,0.5C248.7,62.9,248.3,62.8,248,62.5z"/>
		<path class="st2" d="M251.7,62.1c-0.5-0.5-0.7-1.3-0.7-2.2c0-1,0.2-1.7,0.7-2.2c0.5-0.5,1.1-0.8,2-0.8c0.9,0,1.5,0.3,2,0.8
			c0.5,0.5,0.7,1.3,0.7,2.2s-0.2,1.7-0.7,2.2s-1.1,0.8-2,0.8C252.8,62.9,252.1,62.7,251.7,62.1z M254.6,61.3
			c0.2-0.3,0.3-0.8,0.3-1.4c0-0.6-0.1-1.1-0.3-1.4c-0.2-0.3-0.5-0.5-0.9-0.5s-0.7,0.2-0.9,0.5c-0.2,0.3-0.3,0.8-0.3,1.4
			c0,0.6,0.1,1.1,0.3,1.4c0.2,0.3,0.5,0.5,0.9,0.5S254.4,61.6,254.6,61.3z"/>
		<path class="st2" d="M257.6,62.5v-3.7c0-0.5,0-0.9-0.1-1.1s-0.1-0.4-0.1-0.4c0-0.1,0.1-0.2,0.4-0.2c0.2-0.1,0.5-0.1,0.7-0.1
			c0.1,0,0.2,0.1,0.3,0.2c0.1,0.1,0.1,0.2,0.1,0.3c0,0.1,0,0.2,0.1,0.2c0.2-0.2,0.4-0.5,0.7-0.6c0.3-0.2,0.6-0.2,1-0.2
			c1.1,0,1.7,0.6,1.7,1.8v3.8c0,0.1,0,0.2-0.1,0.2s-0.2,0.1-0.5,0.1h-0.2c-0.4,0-0.6-0.1-0.6-0.3v-3.6c0-0.6-0.3-0.8-0.8-0.8
			c-0.2,0-0.4,0.1-0.6,0.2c-0.2,0.1-0.3,0.3-0.5,0.5v3.8c0,0.2-0.2,0.3-0.6,0.3h-0.2C257.8,62.9,257.6,62.8,257.6,62.5z"/>
		<path class="st2" d="M266.6,55.7V55c0-0.2,0.2-0.4,0.7-0.4c0.5,0,0.7,0.1,0.7,0.4v0.7c0,0.1-0.1,0.2-0.2,0.3s-0.3,0.1-0.6,0.1
			C266.8,56.1,266.6,56,266.6,55.7z M266.6,62.5v-5.3c0-0.2,0.2-0.3,0.6-0.3h0.2c0.4,0,0.6,0.1,0.6,0.3v5.3c0,0.2-0.2,0.3-0.6,0.3
			h-0.2C266.8,62.9,266.6,62.8,266.6,62.5z"/>
		<path class="st2" d="M270,62.2c-0.5-0.5-0.7-1.2-0.7-2.3c0-1,0.2-1.8,0.7-2.3c0.5-0.5,1.2-0.7,2.1-0.7c0.5,0,0.9,0.1,1.2,0.2
			c0.4,0.1,0.6,0.3,0.6,0.5c0,0.1-0.1,0.3-0.2,0.5c-0.1,0.2-0.2,0.3-0.3,0.3c0,0-0.1,0-0.2-0.1c-0.3-0.2-0.7-0.3-1.1-0.3
			c-0.5,0-0.8,0.1-1.1,0.4c-0.2,0.3-0.3,0.8-0.3,1.4c0,0.7,0.1,1.1,0.3,1.4c0.2,0.3,0.6,0.5,1.1,0.5c0.2,0,0.4,0,0.6-0.1
			c0.2,0,0.4-0.1,0.5-0.2c0.1,0,0.1-0.1,0.2-0.1c0.1,0,0.2,0.1,0.3,0.3c0.1,0.2,0.2,0.3,0.2,0.5c0,0.1-0.1,0.3-0.3,0.4
			c-0.2,0.1-0.5,0.2-0.8,0.2s-0.6,0.1-0.8,0.1C271.2,62.9,270.5,62.7,270,62.2z"/>
		<path class="st2" d="M275.5,62.1c-0.5-0.5-0.7-1.3-0.7-2.2c0-1,0.2-1.7,0.7-2.2c0.5-0.5,1.1-0.8,2-0.8c0.9,0,1.5,0.3,2,0.8
			c0.5,0.5,0.7,1.3,0.7,2.2s-0.2,1.7-0.7,2.2s-1.1,0.8-2,0.8C276.6,62.9,275.9,62.7,275.5,62.1z M278.4,61.3
			c0.2-0.3,0.3-0.8,0.3-1.4c0-0.6-0.1-1.1-0.3-1.4c-0.2-0.3-0.5-0.5-0.9-0.5s-0.7,0.2-0.9,0.5c-0.2,0.3-0.3,0.8-0.3,1.4
			c0,0.6,0.1,1.1,0.3,1.4c0.2,0.3,0.5,0.5,0.9,0.5S278.2,61.6,278.4,61.3z"/>
		<path class="st2" d="M281.9,62.1c-0.5-0.5-0.7-1.3-0.7-2.2c0-1,0.2-1.7,0.7-2.2c0.5-0.5,1.1-0.8,2-0.8c0.9,0,1.5,0.3,2,0.8
			c0.5,0.5,0.7,1.3,0.7,2.2s-0.2,1.7-0.7,2.2s-1.1,0.8-2,0.8C283,62.9,282.3,62.7,281.9,62.1z M284.8,61.3c0.2-0.3,0.3-0.8,0.3-1.4
			c0-0.6-0.1-1.1-0.3-1.4c-0.2-0.3-0.5-0.5-0.9-0.5s-0.7,0.2-0.9,0.5c-0.2,0.3-0.3,0.8-0.3,1.4c0,0.6,0.1,1.1,0.3,1.4
			c0.2,0.3,0.5,0.5,0.9,0.5S284.6,61.6,284.8,61.3z"/>
		<path class="st2" d="M287.8,62.5v-3.7c0-0.5,0-0.9-0.1-1.1s-0.1-0.4-0.1-0.4c0-0.1,0.1-0.2,0.4-0.2c0.2-0.1,0.5-0.1,0.7-0.1
			c0.1,0,0.2,0.1,0.3,0.2c0.1,0.1,0.1,0.2,0.1,0.3c0,0.1,0,0.2,0.1,0.2c0.2-0.2,0.4-0.5,0.7-0.6c0.3-0.2,0.6-0.2,1-0.2
			c1.1,0,1.7,0.6,1.7,1.8v3.8c0,0.1,0,0.2-0.1,0.2s-0.2,0.1-0.5,0.1h-0.2c-0.4,0-0.6-0.1-0.6-0.3v-3.6c0-0.6-0.3-0.8-0.8-0.8
			c-0.2,0-0.4,0.1-0.6,0.2c-0.2,0.1-0.3,0.3-0.5,0.5v3.8c0,0.2-0.2,0.3-0.6,0.3h-0.2C288,62.9,287.8,62.8,287.8,62.5z"/>
		<path class="st2" d="M298,62.6l-1.8-5.3c0-0.1,0-0.2,0-0.2c0-0.1,0.2-0.2,0.6-0.2h0.3c0.3,0,0.5,0.1,0.6,0.2l0.8,2.6
			c0,0.1,0.1,0.5,0.3,1l0.1,0.4h0c0.1-0.5,0.2-1,0.3-1.4l0.8-2.6c0-0.1,0.2-0.2,0.6-0.2h0.2c0.4,0,0.6,0.1,0.6,0.2c0,0,0,0.1,0,0.2
			l-1.8,5.3c-0.1,0.1-0.2,0.2-0.6,0.2h-0.4C298.2,62.9,298,62.8,298,62.6z"/>
		<path class="st2" d="M302.7,62.1c-0.5-0.5-0.7-1.3-0.7-2.2c0-1,0.2-1.7,0.7-2.2c0.5-0.5,1.1-0.8,2-0.8c0.9,0,1.5,0.3,2,0.8
			c0.5,0.5,0.7,1.3,0.7,2.2s-0.2,1.7-0.7,2.2s-1.1,0.8-2,0.8C303.8,62.9,303.1,62.7,302.7,62.1z M305.6,61.3
			c0.2-0.3,0.3-0.8,0.3-1.4c0-0.6-0.1-1.1-0.3-1.4c-0.2-0.3-0.5-0.5-0.9-0.5s-0.7,0.2-0.9,0.5c-0.2,0.3-0.3,0.8-0.3,1.4
			c0,0.6,0.1,1.1,0.3,1.4c0.2,0.3,0.5,0.5,0.9,0.5S305.4,61.6,305.6,61.3z"/>
		<path class="st2" d="M309.1,62.1c-0.5-0.5-0.7-1.3-0.7-2.2c0-1,0.2-1.7,0.7-2.2c0.5-0.5,1.1-0.8,2-0.8c0.9,0,1.5,0.3,2,0.8
			c0.5,0.5,0.7,1.3,0.7,2.2s-0.2,1.7-0.7,2.2s-1.1,0.8-2,0.8C310.2,62.9,309.5,62.7,309.1,62.1z M312,61.3c0.2-0.3,0.3-0.8,0.3-1.4
			c0-0.6-0.1-1.1-0.3-1.4c-0.2-0.3-0.5-0.5-0.9-0.5s-0.7,0.2-0.9,0.5c-0.2,0.3-0.3,0.8-0.3,1.4c0,0.6,0.1,1.1,0.3,1.4
			c0.2,0.3,0.5,0.5,0.9,0.5S311.8,61.6,312,61.3z"/>
		<path class="st2" d="M315.1,62.5v-3.7c0-0.5,0-0.9-0.1-1.1s-0.1-0.4-0.1-0.4c0-0.1,0.1-0.2,0.4-0.2c0.2-0.1,0.5-0.1,0.7-0.1
			c0.1,0,0.2,0.1,0.3,0.2s0.1,0.2,0.1,0.3c0,0.1,0,0.2,0.1,0.2c0.3-0.6,0.8-0.8,1.2-0.8c0.2,0,0.4,0.1,0.5,0.2s0.2,0.2,0.2,0.4
			c0,0.1,0,0.3-0.1,0.5c-0.1,0.2-0.1,0.3-0.2,0.3c0,0-0.1,0-0.2-0.1c-0.1,0-0.2-0.1-0.3-0.1c-0.2,0-0.4,0.1-0.6,0.2
			c-0.2,0.1-0.3,0.3-0.4,0.4v3.8c0,0.2-0.2,0.3-0.6,0.3h-0.2C315.3,62.9,315.1,62.8,315.1,62.5z"/>
	</g>
</g>
<g>
	<path class="st2" d="M117.1,121H20.7c-1,0-1.8-0.8-1.8-1.8V89.5c0-1,0.8-1.8,1.8-1.8h96.5c1,0,1.8,0.8,1.8,1.8v29.8
		C118.9,120.3,118.1,121,117.1,121z"/>
	<g>
		<path class="st5" d="M28.2,108.3c-0.4-0.1-0.7-0.2-0.9-0.4c-0.2-0.1-0.3-0.3-0.3-0.4c0-0.1,0.1-0.3,0.2-0.5
			c0.2-0.2,0.3-0.3,0.4-0.3c0,0,0.1,0,0.3,0.1c0.2,0.1,0.5,0.2,0.7,0.3c0.2,0.1,0.5,0.1,0.8,0.1c0.3,0,0.6-0.1,0.8-0.2
			c0.2-0.2,0.3-0.4,0.3-0.7c0-0.2-0.1-0.4-0.2-0.5s-0.3-0.3-0.4-0.3c-0.2-0.1-0.4-0.2-0.7-0.3l-0.4-0.2c-0.3-0.2-0.6-0.3-0.9-0.5
			c-0.2-0.2-0.4-0.4-0.6-0.7c-0.2-0.3-0.2-0.6-0.2-1.1c0-0.5,0.1-0.9,0.4-1.2c0.2-0.3,0.6-0.6,1-0.7c0.4-0.2,0.8-0.2,1.3-0.2
			c0.3,0,0.7,0,1,0.1c0.3,0.1,0.6,0.2,0.7,0.3c0.2,0.1,0.2,0.2,0.2,0.3c0,0.1-0.1,0.3-0.2,0.5s-0.2,0.3-0.3,0.3c0,0-0.1,0-0.2-0.1
			c-0.1,0-0.1-0.1-0.2-0.1c-0.3-0.1-0.6-0.2-1-0.2c-0.4,0-0.7,0.1-0.9,0.2c-0.2,0.2-0.3,0.4-0.3,0.6c0,0.2,0.1,0.4,0.2,0.5
			c0.1,0.1,0.3,0.2,0.4,0.3c0.2,0.1,0.4,0.2,0.7,0.3c0.4,0.2,0.8,0.3,1.1,0.5c0.3,0.2,0.5,0.4,0.7,0.7c0.2,0.3,0.3,0.7,0.3,1.2
			c0,0.8-0.2,1.4-0.7,1.8c-0.5,0.4-1.1,0.6-1.8,0.6C29,108.4,28.5,108.4,28.2,108.3z"/>
		<path class="st5" d="M33.6,108c-0.3-0.3-0.4-0.7-0.4-1.3v-3.1h-0.3c-0.1,0-0.2,0-0.2-0.1c0-0.1-0.1-0.2-0.1-0.4v-0.2
			c0-0.2,0-0.3,0.1-0.4c0-0.1,0.1-0.1,0.2-0.1h0.3l0.1-1.1c0-0.2,0.2-0.3,0.5-0.3h0.3c0.3,0,0.5,0.1,0.5,0.3v1.1h0.7
			c0.1,0,0.2,0,0.2,0.1c0,0.1,0.1,0.2,0.1,0.4v0.2c0,0.2,0,0.3-0.1,0.4c0,0.1-0.1,0.1-0.2,0.1h-0.7v3.1c0,0.2,0,0.4,0.1,0.5
			c0.1,0.1,0.2,0.1,0.4,0.1c0.1,0,0.1,0,0.2,0c0.1,0,0.1,0,0.2,0c0.1,0,0.2,0.1,0.2,0.3c0.1,0.2,0.1,0.3,0.1,0.4
			c0,0.3-0.3,0.5-1,0.5C34.2,108.4,33.9,108.3,33.6,108z"/>
		<path class="st5" d="M36.8,108c-0.3-0.3-0.5-0.7-0.5-1.2c0-1.4,1.1-2.1,3.4-2.1v-0.4c0-0.5-0.3-0.7-1-0.7c-0.3,0-0.5,0-0.7,0.1
			c-0.2,0.1-0.4,0.1-0.6,0.2c-0.2,0.1-0.2,0.1-0.3,0.1c-0.1,0-0.2-0.1-0.3-0.3c-0.1-0.2-0.2-0.4-0.2-0.5c0-0.1,0.1-0.2,0.3-0.4
			s0.5-0.2,0.8-0.3c0.3-0.1,0.7-0.1,1.1-0.1c0.8,0,1.4,0.2,1.8,0.5c0.4,0.3,0.6,0.8,0.6,1.3v2.3c0,0.5,0,0.9,0.1,1.1
			s0.1,0.4,0.1,0.4c0,0.1-0.1,0.2-0.4,0.2s-0.5,0.1-0.7,0.1c-0.1,0-0.2-0.1-0.3-0.2c-0.1-0.1-0.1-0.2-0.1-0.4c0-0.1,0-0.2,0-0.3
			c-0.2,0.2-0.4,0.4-0.7,0.6c-0.3,0.2-0.6,0.3-1.1,0.3C37.6,108.4,37.1,108.3,36.8,108z M39.3,107.1c0.2-0.1,0.4-0.3,0.6-0.5v-0.9
			c-0.6,0-1.1,0.1-1.4,0.2s-0.5,0.4-0.5,0.7c0,0.2,0.1,0.4,0.2,0.5s0.3,0.2,0.5,0.2C38.8,107.3,39,107.2,39.3,107.1z"/>
		<path class="st5" d="M42.7,108v-3.7c0-0.5,0-0.9-0.1-1.1s-0.1-0.4-0.1-0.4c0-0.1,0.1-0.2,0.4-0.2c0.2-0.1,0.5-0.1,0.7-0.1
			c0.1,0,0.2,0.1,0.3,0.2c0.1,0.1,0.1,0.2,0.1,0.3c0,0.1,0,0.2,0.1,0.2c0.2-0.2,0.4-0.5,0.7-0.6c0.3-0.2,0.6-0.2,1-0.2
			c1.1,0,1.7,0.6,1.7,1.8v3.8c0,0.1,0,0.2-0.1,0.2s-0.2,0.1-0.5,0.1h-0.2c-0.4,0-0.6-0.1-0.6-0.3v-3.6c0-0.6-0.3-0.8-0.8-0.8
			c-0.2,0-0.4,0.1-0.6,0.2c-0.2,0.1-0.3,0.3-0.5,0.5v3.8c0,0.2-0.2,0.3-0.6,0.3h-0.2C42.9,108.4,42.7,108.3,42.7,108z"/>
		<path class="st5" d="M49.6,108.1c-0.3-0.2-0.6-0.6-0.8-1s-0.3-1-0.3-1.6c0-0.9,0.2-1.7,0.6-2.2c0.4-0.5,1-0.8,1.7-0.8
			c0.5,0,0.9,0.1,1.3,0.4v-2.6c0-0.2,0.2-0.3,0.6-0.3h0.2c0.4,0,0.6,0.1,0.6,0.3v6.3c0,0.5,0,0.9,0.1,1.1s0.1,0.4,0.1,0.4
			c0,0.1-0.1,0.2-0.4,0.2s-0.5,0.1-0.7,0.1c-0.1,0-0.2-0.1-0.3-0.2c-0.1-0.1-0.1-0.2-0.1-0.4c0-0.1,0-0.2,0-0.3
			c-0.2,0.3-0.4,0.5-0.7,0.6c-0.3,0.2-0.6,0.2-0.9,0.2C50.3,108.4,49.9,108.3,49.6,108.1z M52.2,106.5v-2.7c-0.3-0.2-0.6-0.3-1-0.3
			c-0.8,0-1.2,0.6-1.2,1.8c0,0.6,0.1,1.1,0.3,1.4s0.5,0.5,0.8,0.5C51.5,107.3,51.9,107,52.2,106.5z"/>
		<path class="st5" d="M55.3,108c-0.3-0.3-0.5-0.7-0.5-1.2c0-1.4,1.1-2.1,3.4-2.1v-0.4c0-0.5-0.3-0.7-1-0.7c-0.3,0-0.5,0-0.7,0.1
			c-0.2,0.1-0.4,0.1-0.6,0.2c-0.2,0.1-0.2,0.1-0.3,0.1c-0.1,0-0.2-0.1-0.3-0.3c-0.1-0.2-0.2-0.4-0.2-0.5c0-0.1,0.1-0.2,0.3-0.4
			s0.5-0.2,0.8-0.3c0.3-0.1,0.7-0.1,1.1-0.1c0.8,0,1.4,0.2,1.8,0.5c0.4,0.3,0.6,0.8,0.6,1.3v2.3c0,0.5,0,0.9,0.1,1.1
			s0.1,0.4,0.1,0.4c0,0.1-0.1,0.2-0.4,0.2s-0.5,0.1-0.7,0.1c-0.1,0-0.2-0.1-0.3-0.2c-0.1-0.1-0.1-0.2-0.1-0.4c0-0.1,0-0.2,0-0.3
			c-0.2,0.2-0.4,0.4-0.7,0.6c-0.3,0.2-0.6,0.3-1.1,0.3C56,108.4,55.6,108.3,55.3,108z M57.7,107.1c0.2-0.1,0.4-0.3,0.6-0.5v-0.9
			c-0.6,0-1.1,0.1-1.4,0.2s-0.5,0.4-0.5,0.7c0,0.2,0.1,0.4,0.2,0.5s0.3,0.2,0.5,0.2C57.2,107.3,57.4,107.2,57.7,107.1z"/>
		<path class="st5" d="M61.3,108c-0.3-0.3-0.5-0.7-0.5-1.2c0-1.4,1.1-2.1,3.4-2.1v-0.4c0-0.5-0.3-0.7-1-0.7c-0.3,0-0.5,0-0.7,0.1
			c-0.2,0.1-0.4,0.1-0.6,0.2c-0.2,0.1-0.2,0.1-0.3,0.1c-0.1,0-0.2-0.1-0.3-0.3c-0.1-0.2-0.2-0.4-0.2-0.5c0-0.1,0.1-0.2,0.3-0.4
			s0.5-0.2,0.8-0.3c0.3-0.1,0.7-0.1,1.1-0.1c0.8,0,1.4,0.2,1.8,0.5c0.4,0.3,0.6,0.8,0.6,1.3v2.3c0,0.5,0,0.9,0.1,1.1
			s0.1,0.4,0.1,0.4c0,0.1-0.1,0.2-0.4,0.2s-0.5,0.1-0.7,0.1c-0.1,0-0.2-0.1-0.3-0.2c-0.1-0.1-0.1-0.2-0.1-0.4c0-0.1,0-0.2,0-0.3
			c-0.2,0.2-0.4,0.4-0.7,0.6c-0.3,0.2-0.6,0.3-1.1,0.3C62,108.4,61.6,108.3,61.3,108z M63.7,107.1c0.2-0.1,0.4-0.3,0.6-0.5v-0.9
			c-0.6,0-1.1,0.1-1.4,0.2s-0.5,0.4-0.5,0.7c0,0.2,0.1,0.4,0.2,0.5s0.3,0.2,0.5,0.2C63.2,107.3,63.5,107.2,63.7,107.1z"/>
		<path class="st5" d="M67.2,108v-3.7c0-0.5,0-0.9-0.1-1.1s-0.1-0.4-0.1-0.4c0-0.1,0.1-0.2,0.4-0.2c0.2-0.1,0.5-0.1,0.7-0.1
			c0.1,0,0.2,0.1,0.3,0.2s0.1,0.2,0.1,0.3c0,0.1,0,0.2,0.1,0.2c0.3-0.6,0.8-0.8,1.2-0.8c0.2,0,0.4,0.1,0.5,0.2s0.2,0.2,0.2,0.4
			c0,0.1,0,0.3-0.1,0.5c-0.1,0.2-0.1,0.3-0.2,0.3c0,0-0.1,0-0.2-0.1c-0.1,0-0.2-0.1-0.3-0.1c-0.2,0-0.4,0.1-0.6,0.2
			c-0.2,0.1-0.3,0.3-0.4,0.4v3.8c0,0.2-0.2,0.3-0.6,0.3h-0.2C67.4,108.4,67.2,108.3,67.2,108z"/>
		<path class="st5" d="M71.9,108.1c-0.3-0.2-0.6-0.6-0.8-1s-0.3-1-0.3-1.6c0-0.9,0.2-1.7,0.6-2.2c0.4-0.5,1-0.8,1.7-0.8
			c0.5,0,0.9,0.1,1.3,0.4v-2.6c0-0.2,0.2-0.3,0.6-0.3h0.2c0.4,0,0.6,0.1,0.6,0.3v6.3c0,0.5,0,0.9,0.1,1.1s0.1,0.4,0.1,0.4
			c0,0.1-0.1,0.2-0.4,0.2s-0.5,0.1-0.7,0.1c-0.1,0-0.2-0.1-0.3-0.2c-0.1-0.1-0.1-0.2-0.1-0.4c0-0.1,0-0.2,0-0.3
			c-0.2,0.3-0.4,0.5-0.7,0.6c-0.3,0.2-0.6,0.2-0.9,0.2C72.6,108.4,72.2,108.3,71.9,108.1z M74.5,106.5v-2.7c-0.3-0.2-0.6-0.3-1-0.3
			c-0.8,0-1.2,0.6-1.2,1.8c0,0.6,0.1,1.1,0.3,1.4s0.5,0.5,0.8,0.5C73.8,107.3,74.2,107,74.5,106.5z"/>
		<path class="st5" d="M82,108.2c-0.3-0.1-0.5-0.4-0.7-0.6c0,0.2-0.1,0.4-0.1,0.6c0,0.1-0.1,0.2-0.2,0.2c-0.1,0-0.2,0.1-0.4,0.1
			h-0.1c-0.4,0-0.6-0.1-0.6-0.3v-7.9c0-0.2,0.2-0.3,0.6-0.3h0.2c0.4,0,0.6,0.1,0.6,0.3v2.6c0.4-0.3,0.8-0.4,1.3-0.4
			c0.7,0,1.3,0.3,1.7,0.8c0.4,0.5,0.6,1.3,0.6,2.2c0,0.6-0.1,1.2-0.3,1.6c-0.2,0.5-0.4,0.8-0.8,1c-0.3,0.2-0.7,0.4-1.1,0.4
			C82.6,108.4,82.3,108.3,82,108.2z M83.3,106.8c0.2-0.3,0.3-0.8,0.3-1.4c0-1.2-0.4-1.8-1.2-1.8c-0.4,0-0.7,0.1-1,0.3v2.7
			c0.2,0.2,0.3,0.4,0.5,0.5c0.2,0.1,0.4,0.2,0.6,0.2C82.9,107.3,83.2,107.1,83.3,106.8z"/>
		<path class="st5" d="M86.2,106.6v-3.8c0-0.1,0-0.2,0.1-0.2c0.1-0.1,0.2-0.1,0.5-0.1H87c0.4,0,0.6,0.1,0.6,0.3v3.6
			c0,0.6,0.3,0.8,0.8,0.8c0.2,0,0.4-0.1,0.6-0.2c0.2-0.1,0.3-0.3,0.5-0.5v-3.8c0-0.2,0.2-0.3,0.6-0.3h0.2c0.4,0,0.6,0.1,0.6,0.3v3.7
			c0,0.5,0,0.9,0.1,1.1s0.1,0.4,0.1,0.4c0,0.1-0.1,0.2-0.4,0.2c-0.2,0.1-0.5,0.1-0.7,0.1c-0.1,0-0.2-0.1-0.3-0.2
			c-0.1-0.1-0.1-0.2-0.1-0.4c0-0.1,0-0.2-0.1-0.3c-0.2,0.2-0.5,0.5-0.8,0.6c-0.3,0.2-0.6,0.2-1,0.2
			C86.8,108.4,86.2,107.8,86.2,106.6z"/>
		<path class="st5" d="M93,108c-0.3-0.3-0.4-0.7-0.4-1.3v-3.1h-0.3c-0.1,0-0.2,0-0.2-0.1c0-0.1-0.1-0.2-0.1-0.4v-0.2
			c0-0.2,0-0.3,0.1-0.4c0-0.1,0.1-0.1,0.2-0.1h0.3l0.1-1.1c0-0.2,0.2-0.3,0.5-0.3h0.3c0.3,0,0.5,0.1,0.5,0.3v1.1h0.7
			c0.1,0,0.2,0,0.2,0.1c0,0.1,0.1,0.2,0.1,0.4v0.2c0,0.2,0,0.3-0.1,0.4c0,0.1-0.1,0.1-0.2,0.1H94v3.1c0,0.2,0,0.4,0.1,0.5
			c0.1,0.1,0.2,0.1,0.4,0.1c0.1,0,0.1,0,0.2,0c0.1,0,0.1,0,0.2,0c0.1,0,0.2,0.1,0.2,0.3c0.1,0.2,0.1,0.3,0.1,0.4
			c0,0.3-0.3,0.5-1,0.5C93.7,108.4,93.3,108.3,93,108z"/>
		<path class="st5" d="M96.8,108c-0.3-0.3-0.4-0.7-0.4-1.3v-3.1H96c-0.1,0-0.2,0-0.2-0.1c0-0.1-0.1-0.2-0.1-0.4v-0.2
			c0-0.2,0-0.3,0.1-0.4c0-0.1,0.1-0.1,0.2-0.1h0.3l0.1-1.1c0-0.2,0.2-0.3,0.5-0.3h0.3c0.3,0,0.5,0.1,0.5,0.3v1.1h0.7
			c0.1,0,0.2,0,0.2,0.1c0,0.1,0.1,0.2,0.1,0.4v0.2c0,0.2,0,0.3-0.1,0.4c0,0.1-0.1,0.1-0.2,0.1h-0.7v3.1c0,0.2,0,0.4,0.1,0.5
			c0.1,0.1,0.2,0.1,0.4,0.1c0.1,0,0.1,0,0.2,0c0.1,0,0.1,0,0.2,0c0.1,0,0.2,0.1,0.2,0.3c0.1,0.2,0.1,0.3,0.1,0.4
			c0,0.3-0.3,0.5-1,0.5C97.4,108.4,97.1,108.3,96.8,108z"/>
		<path class="st5" d="M100.3,107.6c-0.5-0.5-0.7-1.3-0.7-2.2c0-1,0.2-1.7,0.7-2.2c0.5-0.5,1.1-0.8,2-0.8c0.9,0,1.5,0.3,2,0.8
			c0.5,0.5,0.7,1.3,0.7,2.2s-0.2,1.7-0.7,2.2s-1.1,0.8-2,0.8C101.4,108.4,100.8,108.2,100.3,107.6z M103.2,106.8
			c0.2-0.3,0.3-0.8,0.3-1.4c0-0.6-0.1-1.1-0.3-1.4c-0.2-0.3-0.5-0.5-0.9-0.5s-0.7,0.2-0.9,0.5c-0.2,0.3-0.3,0.8-0.3,1.4
			c0,0.6,0.1,1.1,0.3,1.4c0.2,0.3,0.5,0.5,0.9,0.5S103,107.1,103.2,106.8z"/>
		<path class="st5" d="M106.2,108v-3.7c0-0.5,0-0.9-0.1-1.1s-0.1-0.4-0.1-0.4c0-0.1,0.1-0.2,0.4-0.2c0.2-0.1,0.5-0.1,0.7-0.1
			c0.1,0,0.2,0.1,0.3,0.2c0.1,0.1,0.1,0.2,0.1,0.3c0,0.1,0,0.2,0.1,0.2c0.2-0.2,0.4-0.5,0.7-0.6c0.3-0.2,0.6-0.2,1-0.2
			c1.1,0,1.7,0.6,1.7,1.8v3.8c0,0.1,0,0.2-0.1,0.2s-0.2,0.1-0.5,0.1h-0.2c-0.4,0-0.6-0.1-0.6-0.3v-3.6c0-0.6-0.3-0.8-0.8-0.8
			c-0.2,0-0.4,0.1-0.6,0.2c-0.2,0.1-0.3,0.3-0.5,0.5v3.8c0,0.2-0.2,0.3-0.6,0.3h-0.2C106.4,108.4,106.2,108.3,106.2,108z"/>
	</g>
</g>
<g>
	<path class="st6" d="M117.1,166.6H20.7c-1,0-1.8-0.8-1.8-1.8V135c0-1,0.8-1.8,1.8-1.8h96.5c1,0,1.8,0.8,1.8,1.8v29.8
		C118.9,165.8,118.1,166.6,117.1,166.6z"/>
	<g>
		<path class="st5" d="M28.2,153.8c-0.4-0.1-0.7-0.2-0.9-0.4c-0.2-0.1-0.3-0.3-0.3-0.4c0-0.1,0.1-0.3,0.2-0.5
			c0.2-0.2,0.3-0.3,0.4-0.3c0,0,0.1,0,0.3,0.1c0.2,0.1,0.5,0.2,0.7,0.3c0.2,0.1,0.5,0.1,0.8,0.1c0.3,0,0.6-0.1,0.8-0.2
			c0.2-0.2,0.3-0.4,0.3-0.7c0-0.2-0.1-0.4-0.2-0.5s-0.3-0.3-0.4-0.3c-0.2-0.1-0.4-0.2-0.7-0.3l-0.4-0.2c-0.3-0.2-0.6-0.3-0.9-0.5
			s-0.4-0.4-0.6-0.7c-0.2-0.3-0.2-0.6-0.2-1.1c0-0.5,0.1-0.9,0.4-1.2c0.2-0.3,0.6-0.6,1-0.7c0.4-0.2,0.8-0.2,1.3-0.2
			c0.3,0,0.7,0,1,0.1c0.3,0.1,0.6,0.2,0.7,0.3c0.2,0.1,0.2,0.2,0.2,0.3c0,0.1-0.1,0.3-0.2,0.5s-0.2,0.3-0.3,0.3c0,0-0.1,0-0.2-0.1
			c-0.1,0-0.1-0.1-0.2-0.1c-0.3-0.1-0.6-0.2-1-0.2c-0.4,0-0.7,0.1-0.9,0.2s-0.3,0.4-0.3,0.6c0,0.2,0.1,0.4,0.2,0.5
			c0.1,0.1,0.3,0.2,0.4,0.3c0.2,0.1,0.4,0.2,0.7,0.3c0.4,0.2,0.8,0.3,1.1,0.5s0.5,0.4,0.7,0.7c0.2,0.3,0.3,0.7,0.3,1.2
			c0,0.8-0.2,1.4-0.7,1.8c-0.5,0.4-1.1,0.6-1.8,0.6C29,153.9,28.5,153.9,28.2,153.8z"/>
		<path class="st5" d="M33.6,153.5c-0.3-0.3-0.4-0.7-0.4-1.3v-3.1h-0.3c-0.1,0-0.2,0-0.2-0.1s-0.1-0.2-0.1-0.4v-0.2
			c0-0.2,0-0.3,0.1-0.4s0.1-0.1,0.2-0.1h0.3l0.1-1.1c0-0.2,0.2-0.3,0.5-0.3h0.3c0.3,0,0.5,0.1,0.5,0.3v1.1h0.7c0.1,0,0.2,0,0.2,0.1
			s0.1,0.2,0.1,0.4v0.2c0,0.2,0,0.3-0.1,0.4s-0.1,0.1-0.2,0.1h-0.7v3.1c0,0.2,0,0.4,0.1,0.5c0.1,0.1,0.2,0.1,0.4,0.1
			c0.1,0,0.1,0,0.2,0c0.1,0,0.1,0,0.2,0c0.1,0,0.2,0.1,0.2,0.3c0.1,0.2,0.1,0.3,0.1,0.4c0,0.3-0.3,0.5-1,0.5
			C34.2,153.9,33.9,153.8,33.6,153.5z"/>
		<path class="st5" d="M36.8,153.5c-0.3-0.3-0.5-0.7-0.5-1.2c0-1.4,1.1-2.1,3.4-2.1v-0.4c0-0.5-0.3-0.7-1-0.7c-0.3,0-0.5,0-0.7,0.1
			c-0.2,0.1-0.4,0.1-0.6,0.2s-0.2,0.1-0.3,0.1c-0.1,0-0.2-0.1-0.3-0.3c-0.1-0.2-0.2-0.4-0.2-0.5c0-0.1,0.1-0.2,0.3-0.4
			s0.5-0.2,0.8-0.3c0.3-0.1,0.7-0.1,1.1-0.1c0.8,0,1.4,0.2,1.8,0.5c0.4,0.3,0.6,0.8,0.6,1.3v2.3c0,0.5,0,0.9,0.1,1.1
			s0.1,0.4,0.1,0.4c0,0.1-0.1,0.2-0.4,0.2c-0.2,0.1-0.5,0.1-0.7,0.1c-0.1,0-0.2-0.1-0.3-0.2c-0.1-0.1-0.1-0.2-0.1-0.4
			c0-0.1,0-0.2,0-0.3c-0.2,0.2-0.4,0.4-0.7,0.6s-0.6,0.3-1.1,0.3C37.6,153.9,37.1,153.8,36.8,153.5z M39.3,152.6
			c0.2-0.1,0.4-0.3,0.6-0.5v-0.9c-0.6,0-1.1,0.1-1.4,0.2s-0.5,0.4-0.5,0.7c0,0.2,0.1,0.4,0.2,0.5s0.3,0.2,0.5,0.2
			C38.8,152.8,39,152.7,39.3,152.6z"/>
		<path class="st5" d="M42.7,153.5v-3.7c0-0.5,0-0.9-0.1-1.1s-0.1-0.4-0.1-0.4c0-0.1,0.1-0.2,0.4-0.2c0.2-0.1,0.5-0.1,0.7-0.1
			c0.1,0,0.2,0.1,0.3,0.2c0.1,0.1,0.1,0.2,0.1,0.3s0,0.2,0.1,0.2c0.2-0.2,0.4-0.5,0.7-0.6s0.6-0.2,1-0.2c1.1,0,1.7,0.6,1.7,1.8v3.8
			c0,0.1,0,0.2-0.1,0.2c-0.1,0.1-0.2,0.1-0.5,0.1h-0.2c-0.4,0-0.6-0.1-0.6-0.3v-3.6c0-0.6-0.3-0.8-0.8-0.8c-0.2,0-0.4,0.1-0.6,0.2
			s-0.3,0.3-0.5,0.5v3.8c0,0.2-0.2,0.3-0.6,0.3h-0.2C42.9,153.9,42.7,153.8,42.7,153.5z"/>
		<path class="st5" d="M49.6,153.6c-0.3-0.2-0.6-0.6-0.8-1c-0.2-0.5-0.3-1-0.3-1.6c0-0.9,0.2-1.7,0.6-2.2c0.4-0.5,1-0.8,1.7-0.8
			c0.5,0,0.9,0.1,1.3,0.4v-2.6c0-0.2,0.2-0.3,0.6-0.3h0.2c0.4,0,0.6,0.1,0.6,0.3v6.3c0,0.5,0,0.9,0.1,1.1s0.1,0.4,0.1,0.4
			c0,0.1-0.1,0.2-0.4,0.2c-0.2,0.1-0.5,0.1-0.7,0.1c-0.1,0-0.2-0.1-0.3-0.2c-0.1-0.1-0.1-0.2-0.1-0.4c0-0.1,0-0.2,0-0.3
			c-0.2,0.3-0.4,0.5-0.7,0.6s-0.6,0.2-0.9,0.2C50.3,153.9,49.9,153.8,49.6,153.6z M52.2,152v-2.7c-0.3-0.2-0.6-0.3-1-0.3
			c-0.8,0-1.2,0.6-1.2,1.8c0,0.6,0.1,1.1,0.3,1.4c0.2,0.3,0.5,0.5,0.8,0.5C51.5,152.8,51.9,152.5,52.2,152z"/>
		<path class="st5" d="M55.3,153.5c-0.3-0.3-0.5-0.7-0.5-1.2c0-1.4,1.1-2.1,3.4-2.1v-0.4c0-0.5-0.3-0.7-1-0.7c-0.3,0-0.5,0-0.7,0.1
			c-0.2,0.1-0.4,0.1-0.6,0.2s-0.2,0.1-0.3,0.1c-0.1,0-0.2-0.1-0.3-0.3c-0.1-0.2-0.2-0.4-0.2-0.5c0-0.1,0.1-0.2,0.3-0.4
			s0.5-0.2,0.8-0.3c0.3-0.1,0.7-0.1,1.1-0.1c0.8,0,1.4,0.2,1.8,0.5c0.4,0.3,0.6,0.8,0.6,1.3v2.3c0,0.5,0,0.9,0.1,1.1
			s0.1,0.4,0.1,0.4c0,0.1-0.1,0.2-0.4,0.2c-0.2,0.1-0.5,0.1-0.7,0.1c-0.1,0-0.2-0.1-0.3-0.2c-0.1-0.1-0.1-0.2-0.1-0.4
			c0-0.1,0-0.2,0-0.3c-0.2,0.2-0.4,0.4-0.7,0.6s-0.6,0.3-1.1,0.3C56,153.9,55.6,153.8,55.3,153.5z M57.7,152.6
			c0.2-0.1,0.4-0.3,0.6-0.5v-0.9c-0.6,0-1.1,0.1-1.4,0.2s-0.5,0.4-0.5,0.7c0,0.2,0.1,0.4,0.2,0.5s0.3,0.2,0.5,0.2
			C57.2,152.8,57.4,152.7,57.7,152.6z"/>
		<path class="st5" d="M61.3,153.5c-0.3-0.3-0.5-0.7-0.5-1.2c0-1.4,1.1-2.1,3.4-2.1v-0.4c0-0.5-0.3-0.7-1-0.7c-0.3,0-0.5,0-0.7,0.1
			c-0.2,0.1-0.4,0.1-0.6,0.2s-0.2,0.1-0.3,0.1c-0.1,0-0.2-0.1-0.3-0.3c-0.1-0.2-0.2-0.4-0.2-0.5c0-0.1,0.1-0.2,0.3-0.4
			s0.5-0.2,0.8-0.3c0.3-0.1,0.7-0.1,1.1-0.1c0.8,0,1.4,0.2,1.8,0.5c0.4,0.3,0.6,0.8,0.6,1.3v2.3c0,0.5,0,0.9,0.1,1.1
			s0.1,0.4,0.1,0.4c0,0.1-0.1,0.2-0.4,0.2c-0.2,0.1-0.5,0.1-0.7,0.1c-0.1,0-0.2-0.1-0.3-0.2c-0.1-0.1-0.1-0.2-0.1-0.4
			c0-0.1,0-0.2,0-0.3c-0.2,0.2-0.4,0.4-0.7,0.6s-0.6,0.3-1.1,0.3C62,153.9,61.6,153.8,61.3,153.5z M63.7,152.6
			c0.2-0.1,0.4-0.3,0.6-0.5v-0.9c-0.6,0-1.1,0.1-1.4,0.2s-0.5,0.4-0.5,0.7c0,0.2,0.1,0.4,0.2,0.5s0.3,0.2,0.5,0.2
			C63.2,152.8,63.5,152.7,63.7,152.6z"/>
		<path class="st5" d="M67.2,153.5v-3.7c0-0.5,0-0.9-0.1-1.1s-0.1-0.4-0.1-0.4c0-0.1,0.1-0.2,0.4-0.2c0.2-0.1,0.5-0.1,0.7-0.1
			c0.1,0,0.2,0.1,0.3,0.2c0.1,0.1,0.1,0.2,0.1,0.3c0,0.1,0,0.2,0.1,0.2c0.3-0.6,0.8-0.8,1.2-0.8c0.2,0,0.4,0.1,0.5,0.2
			c0.1,0.1,0.2,0.2,0.2,0.4c0,0.2,0,0.3-0.1,0.5c-0.1,0.2-0.1,0.3-0.2,0.3c0,0-0.1,0-0.2-0.1c-0.1,0-0.2-0.1-0.3-0.1
			c-0.2,0-0.4,0.1-0.6,0.2c-0.2,0.1-0.3,0.3-0.4,0.4v3.8c0,0.2-0.2,0.3-0.6,0.3h-0.2C67.4,153.9,67.2,153.8,67.2,153.5z"/>
		<path class="st5" d="M71.9,153.6c-0.3-0.2-0.6-0.6-0.8-1c-0.2-0.5-0.3-1-0.3-1.6c0-0.9,0.2-1.7,0.6-2.2c0.4-0.5,1-0.8,1.7-0.8
			c0.5,0,0.9,0.1,1.3,0.4v-2.6c0-0.2,0.2-0.3,0.6-0.3h0.2c0.4,0,0.6,0.1,0.6,0.3v6.3c0,0.5,0,0.9,0.1,1.1s0.1,0.4,0.1,0.4
			c0,0.1-0.1,0.2-0.4,0.2c-0.2,0.1-0.5,0.1-0.7,0.1c-0.1,0-0.2-0.1-0.3-0.2c-0.1-0.1-0.1-0.2-0.1-0.4c0-0.1,0-0.2,0-0.3
			c-0.2,0.3-0.4,0.5-0.7,0.6s-0.6,0.2-0.9,0.2C72.6,153.9,72.2,153.8,71.9,153.6z M74.5,152v-2.7c-0.3-0.2-0.6-0.3-1-0.3
			c-0.8,0-1.2,0.6-1.2,1.8c0,0.6,0.1,1.1,0.3,1.4c0.2,0.3,0.5,0.5,0.8,0.5C73.8,152.8,74.2,152.5,74.5,152z"/>
		<path class="st5" d="M82,153.7c-0.3-0.2-0.5-0.4-0.7-0.6c0,0.2-0.1,0.4-0.1,0.6c0,0.1-0.1,0.2-0.2,0.2c-0.1,0-0.2,0.1-0.4,0.1
			h-0.1c-0.4,0-0.6-0.1-0.6-0.3v-7.9c0-0.2,0.2-0.3,0.6-0.3h0.2c0.4,0,0.6,0.1,0.6,0.3v2.6c0.4-0.3,0.8-0.4,1.3-0.4
			c0.7,0,1.3,0.3,1.7,0.8c0.4,0.5,0.6,1.3,0.6,2.2c0,0.6-0.1,1.2-0.3,1.6c-0.2,0.5-0.4,0.8-0.8,1c-0.3,0.2-0.7,0.4-1.1,0.4
			C82.6,153.9,82.3,153.9,82,153.7z M83.4,152.3c0.2-0.3,0.3-0.8,0.3-1.4c0-1.2-0.4-1.8-1.2-1.8c-0.4,0-0.7,0.1-1,0.3v2.7
			c0.2,0.2,0.3,0.4,0.5,0.5c0.2,0.1,0.4,0.2,0.6,0.2C82.9,152.8,83.2,152.6,83.4,152.3z"/>
		<path class="st5" d="M86.2,152.1v-3.8c0-0.1,0-0.2,0.1-0.2c0.1-0.1,0.2-0.1,0.5-0.1H87c0.4,0,0.6,0.1,0.6,0.3v3.6
			c0,0.6,0.3,0.8,0.8,0.8c0.2,0,0.4-0.1,0.6-0.2c0.2-0.1,0.3-0.3,0.5-0.5v-3.8c0-0.2,0.2-0.3,0.6-0.3h0.2c0.4,0,0.6,0.1,0.6,0.3v3.7
			c0,0.5,0,0.9,0.1,1.1s0.1,0.4,0.1,0.4c0,0.1-0.1,0.2-0.4,0.2c-0.2,0.1-0.5,0.1-0.7,0.1c-0.1,0-0.2-0.1-0.3-0.2
			c-0.1-0.1-0.1-0.2-0.1-0.4c0-0.1,0-0.2-0.1-0.3c-0.2,0.2-0.5,0.5-0.8,0.6c-0.3,0.2-0.6,0.2-1,0.2
			C86.8,153.9,86.2,153.3,86.2,152.1z"/>
		<path class="st5" d="M93,153.5c-0.3-0.3-0.4-0.7-0.4-1.3v-3.1h-0.3c-0.1,0-0.2,0-0.2-0.1s-0.1-0.2-0.1-0.4v-0.2
			c0-0.2,0-0.3,0.1-0.4s0.1-0.1,0.2-0.1h0.3l0.1-1.1c0-0.2,0.2-0.3,0.5-0.3h0.3c0.3,0,0.5,0.1,0.5,0.3v1.1h0.7c0.1,0,0.2,0,0.2,0.1
			s0.1,0.2,0.1,0.4v0.2c0,0.2,0,0.3-0.1,0.4s-0.1,0.1-0.2,0.1H94v3.1c0,0.2,0,0.4,0.1,0.5c0.1,0.1,0.2,0.1,0.4,0.1
			c0.1,0,0.1,0,0.2,0c0.1,0,0.1,0,0.2,0c0.1,0,0.2,0.1,0.2,0.3c0.1,0.2,0.1,0.3,0.1,0.4c0,0.3-0.3,0.5-1,0.5
			C93.7,153.9,93.3,153.8,93,153.5z"/>
		<path class="st5" d="M96.8,153.5c-0.3-0.3-0.4-0.7-0.4-1.3v-3.1H96c-0.1,0-0.2,0-0.2-0.1s-0.1-0.2-0.1-0.4v-0.2
			c0-0.2,0-0.3,0.1-0.4s0.1-0.1,0.2-0.1h0.3l0.1-1.1c0-0.2,0.2-0.3,0.5-0.3h0.3c0.3,0,0.5,0.1,0.5,0.3v1.1h0.7c0.1,0,0.2,0,0.2,0.1
			s0.1,0.2,0.1,0.4v0.2c0,0.2,0,0.3-0.1,0.4s-0.1,0.1-0.2,0.1h-0.7v3.1c0,0.2,0,0.4,0.1,0.5c0.1,0.1,0.2,0.1,0.4,0.1
			c0.1,0,0.1,0,0.2,0c0.1,0,0.1,0,0.2,0c0.1,0,0.2,0.1,0.2,0.3c0.1,0.2,0.1,0.3,0.1,0.4c0,0.3-0.3,0.5-1,0.5
			C97.5,153.9,97.1,153.8,96.8,153.5z"/>
		<path class="st5" d="M100.3,153.1c-0.5-0.5-0.7-1.3-0.7-2.2c0-1,0.2-1.7,0.7-2.2c0.5-0.5,1.1-0.8,2-0.8c0.9,0,1.5,0.3,2,0.8
			s0.7,1.3,0.7,2.2s-0.2,1.7-0.7,2.2s-1.1,0.8-2,0.8C101.4,153.9,100.8,153.7,100.3,153.1z M103.2,152.3c0.2-0.3,0.3-0.8,0.3-1.4
			c0-0.6-0.1-1.1-0.3-1.4c-0.2-0.3-0.5-0.5-0.9-0.5s-0.7,0.2-0.9,0.5s-0.3,0.8-0.3,1.4c0,0.6,0.1,1.1,0.3,1.4s0.5,0.5,0.9,0.5
			S103,152.6,103.2,152.3z"/>
		<path class="st5" d="M106.2,153.5v-3.7c0-0.5,0-0.9-0.1-1.1s-0.1-0.4-0.1-0.4c0-0.1,0.1-0.2,0.4-0.2c0.2-0.1,0.5-0.1,0.7-0.1
			c0.1,0,0.2,0.1,0.3,0.2c0.1,0.1,0.1,0.2,0.1,0.3s0,0.2,0.1,0.2c0.2-0.2,0.4-0.5,0.7-0.6s0.6-0.2,1-0.2c1.1,0,1.7,0.6,1.7,1.8v3.8
			c0,0.1,0,0.2-0.1,0.2c-0.1,0.1-0.2,0.1-0.5,0.1h-0.2c-0.4,0-0.6-0.1-0.6-0.3v-3.6c0-0.6-0.3-0.8-0.8-0.8c-0.2,0-0.4,0.1-0.6,0.2
			s-0.3,0.3-0.5,0.5v3.8c0,0.2-0.2,0.3-0.6,0.3h-0.2C106.4,153.9,106.2,153.8,106.2,153.5z"/>
	</g>
</g>
<g>
	<path class="st7" d="M117.1,212.1H20.7c-1,0-1.8-0.8-1.8-1.8v-29.8c0-1,0.8-1.8,1.8-1.8h96.5c1,0,1.8,0.8,1.8,1.8v29.8
		C118.9,211.3,118.1,212.1,117.1,212.1z"/>
	<g>
		<path class="st8" d="M28.2,199.3c-0.4-0.1-0.7-0.2-0.9-0.4c-0.2-0.1-0.3-0.3-0.3-0.4c0-0.1,0.1-0.3,0.2-0.5
			c0.2-0.2,0.3-0.3,0.4-0.3c0,0,0.1,0,0.3,0.1c0.2,0.1,0.5,0.2,0.7,0.3c0.2,0.1,0.5,0.1,0.8,0.1c0.3,0,0.6-0.1,0.8-0.2
			c0.2-0.2,0.3-0.4,0.3-0.7c0-0.2-0.1-0.4-0.2-0.5s-0.3-0.3-0.4-0.3c-0.2-0.1-0.4-0.2-0.7-0.3l-0.4-0.2c-0.3-0.2-0.6-0.3-0.9-0.5
			s-0.4-0.4-0.6-0.7c-0.2-0.3-0.2-0.6-0.2-1.1c0-0.5,0.1-0.9,0.4-1.2s0.6-0.6,1-0.7c0.4-0.2,0.8-0.2,1.3-0.2c0.3,0,0.7,0,1,0.1
			c0.3,0.1,0.6,0.2,0.7,0.3c0.2,0.1,0.2,0.2,0.2,0.3c0,0.1-0.1,0.3-0.2,0.5s-0.2,0.3-0.3,0.3c0,0-0.1,0-0.2-0.1
			c-0.1,0-0.1-0.1-0.2-0.1c-0.3-0.1-0.6-0.2-1-0.2c-0.4,0-0.7,0.1-0.9,0.2c-0.2,0.2-0.3,0.4-0.3,0.6c0,0.2,0.1,0.4,0.2,0.5
			c0.1,0.1,0.3,0.2,0.4,0.3c0.2,0.1,0.4,0.2,0.7,0.3c0.4,0.2,0.8,0.3,1.1,0.5s0.5,0.4,0.7,0.7c0.2,0.3,0.3,0.7,0.3,1.2
			c0,0.8-0.2,1.4-0.7,1.8c-0.5,0.4-1.1,0.6-1.8,0.6C29,199.4,28.5,199.4,28.2,199.3z"/>
		<path class="st8" d="M33.6,199c-0.3-0.3-0.4-0.7-0.4-1.3v-3.1h-0.3c-0.1,0-0.2,0-0.2-0.1c0-0.1-0.1-0.2-0.1-0.4v-0.2
			c0-0.2,0-0.3,0.1-0.4c0-0.1,0.1-0.1,0.2-0.1h0.3l0.1-1.1c0-0.2,0.2-0.3,0.5-0.3h0.3c0.3,0,0.5,0.1,0.5,0.3v1.1h0.7
			c0.1,0,0.2,0,0.2,0.1c0,0.1,0.1,0.2,0.1,0.4v0.2c0,0.2,0,0.3-0.1,0.4c0,0.1-0.1,0.1-0.2,0.1h-0.7v3.1c0,0.2,0,0.4,0.1,0.5
			c0.1,0.1,0.2,0.1,0.4,0.1c0.1,0,0.1,0,0.2,0c0.1,0,0.1,0,0.2,0c0.1,0,0.2,0.1,0.2,0.3c0.1,0.2,0.1,0.3,0.1,0.4
			c0,0.3-0.3,0.5-1,0.5C34.2,199.4,33.9,199.3,33.6,199z"/>
		<path class="st8" d="M36.8,199c-0.3-0.3-0.5-0.7-0.5-1.2c0-1.4,1.1-2.1,3.4-2.1v-0.4c0-0.5-0.3-0.7-1-0.7c-0.3,0-0.5,0-0.7,0.1
			s-0.4,0.1-0.6,0.2s-0.2,0.1-0.3,0.1c-0.1,0-0.2-0.1-0.3-0.3c-0.1-0.2-0.2-0.4-0.2-0.5c0-0.1,0.1-0.2,0.3-0.4
			c0.2-0.1,0.5-0.2,0.8-0.3c0.3-0.1,0.7-0.1,1.1-0.1c0.8,0,1.4,0.2,1.8,0.5c0.4,0.3,0.6,0.8,0.6,1.3v2.3c0,0.5,0,0.9,0.1,1.1
			s0.1,0.4,0.1,0.4c0,0.1-0.1,0.2-0.4,0.2c-0.2,0.1-0.5,0.1-0.7,0.1c-0.1,0-0.2-0.1-0.3-0.2c-0.1-0.1-0.1-0.2-0.1-0.4
			c0-0.1,0-0.2,0-0.3c-0.2,0.2-0.4,0.4-0.7,0.6s-0.6,0.3-1.1,0.3C37.6,199.4,37.1,199.3,36.8,199z M39.3,198.1
			c0.2-0.1,0.4-0.3,0.6-0.5v-0.9c-0.6,0-1.1,0.1-1.4,0.2c-0.3,0.1-0.5,0.4-0.5,0.7c0,0.2,0.1,0.4,0.2,0.5s0.3,0.2,0.5,0.2
			C38.8,198.3,39,198.2,39.3,198.1z"/>
		<path class="st8" d="M42.7,199v-3.7c0-0.5,0-0.9-0.1-1.1c0-0.2-0.1-0.4-0.1-0.4c0-0.1,0.1-0.2,0.4-0.2c0.2-0.1,0.5-0.1,0.7-0.1
			c0.1,0,0.2,0.1,0.3,0.2c0.1,0.1,0.1,0.2,0.1,0.3s0,0.2,0.1,0.2c0.2-0.2,0.4-0.4,0.7-0.6c0.3-0.2,0.6-0.2,1-0.2
			c1.1,0,1.7,0.6,1.7,1.8v3.8c0,0.1,0,0.2-0.1,0.2c-0.1,0.1-0.2,0.1-0.5,0.1h-0.2c-0.4,0-0.6-0.1-0.6-0.3v-3.6
			c0-0.6-0.3-0.8-0.8-0.8c-0.2,0-0.4,0.1-0.6,0.2c-0.2,0.1-0.3,0.3-0.5,0.5v3.8c0,0.2-0.2,0.3-0.6,0.3h-0.2
			C42.9,199.4,42.7,199.3,42.7,199z"/>
		<path class="st8" d="M49.6,199.1c-0.3-0.2-0.6-0.6-0.8-1s-0.3-1-0.3-1.6c0-0.9,0.2-1.7,0.6-2.2c0.4-0.5,1-0.8,1.7-0.8
			c0.5,0,0.9,0.1,1.3,0.4v-2.6c0-0.2,0.2-0.3,0.6-0.3h0.2c0.4,0,0.6,0.1,0.6,0.3v6.3c0,0.5,0,0.9,0.1,1.1s0.1,0.4,0.1,0.4
			c0,0.1-0.1,0.2-0.4,0.2c-0.2,0.1-0.5,0.1-0.7,0.1c-0.1,0-0.2-0.1-0.3-0.2c-0.1-0.1-0.1-0.2-0.1-0.4c0-0.1,0-0.2,0-0.3
			c-0.2,0.3-0.4,0.5-0.7,0.6c-0.3,0.2-0.6,0.2-0.9,0.2C50.3,199.4,49.9,199.3,49.6,199.1z M52.2,197.5v-2.7c-0.3-0.2-0.6-0.3-1-0.3
			c-0.8,0-1.2,0.6-1.2,1.8c0,0.6,0.1,1.1,0.3,1.4s0.5,0.5,0.8,0.5C51.5,198.3,51.9,198,52.2,197.5z"/>
		<path class="st8" d="M55.3,199c-0.3-0.3-0.5-0.7-0.5-1.2c0-1.4,1.1-2.1,3.4-2.1v-0.4c0-0.5-0.3-0.7-1-0.7c-0.3,0-0.5,0-0.7,0.1
			s-0.4,0.1-0.6,0.2s-0.2,0.1-0.3,0.1c-0.1,0-0.2-0.1-0.3-0.3c-0.1-0.2-0.2-0.4-0.2-0.5c0-0.1,0.1-0.2,0.3-0.4
			c0.2-0.1,0.5-0.2,0.8-0.3c0.3-0.1,0.7-0.1,1.1-0.1c0.8,0,1.4,0.2,1.8,0.5c0.4,0.3,0.6,0.8,0.6,1.3v2.3c0,0.5,0,0.9,0.1,1.1
			s0.1,0.4,0.1,0.4c0,0.1-0.1,0.2-0.4,0.2c-0.2,0.1-0.5,0.1-0.7,0.1c-0.1,0-0.2-0.1-0.3-0.2c-0.1-0.1-0.1-0.2-0.1-0.4
			c0-0.1,0-0.2,0-0.3c-0.2,0.2-0.4,0.4-0.7,0.6s-0.6,0.3-1.1,0.3C56,199.4,55.6,199.3,55.3,199z M57.7,198.1
			c0.2-0.1,0.4-0.3,0.6-0.5v-0.9c-0.6,0-1.1,0.1-1.4,0.2c-0.3,0.1-0.5,0.4-0.5,0.7c0,0.2,0.1,0.4,0.2,0.5s0.3,0.2,0.5,0.2
			C57.2,198.3,57.4,198.2,57.7,198.1z"/>
		<path class="st8" d="M61.3,199c-0.3-0.3-0.5-0.7-0.5-1.2c0-1.4,1.1-2.1,3.4-2.1v-0.4c0-0.5-0.3-0.7-1-0.7c-0.3,0-0.5,0-0.7,0.1
			s-0.4,0.1-0.6,0.2s-0.2,0.1-0.3,0.1c-0.1,0-0.2-0.1-0.3-0.3c-0.1-0.2-0.2-0.4-0.2-0.5c0-0.1,0.1-0.2,0.3-0.4
			c0.2-0.1,0.5-0.2,0.8-0.3c0.3-0.1,0.7-0.1,1.1-0.1c0.8,0,1.4,0.2,1.8,0.5c0.4,0.3,0.6,0.8,0.6,1.3v2.3c0,0.5,0,0.9,0.1,1.1
			s0.1,0.4,0.1,0.4c0,0.1-0.1,0.2-0.4,0.2c-0.2,0.1-0.5,0.1-0.7,0.1c-0.1,0-0.2-0.1-0.3-0.2c-0.1-0.1-0.1-0.2-0.1-0.4
			c0-0.1,0-0.2,0-0.3c-0.2,0.2-0.4,0.4-0.7,0.6s-0.6,0.3-1.1,0.3C62,199.4,61.6,199.3,61.3,199z M63.7,198.1
			c0.2-0.1,0.4-0.3,0.6-0.5v-0.9c-0.6,0-1.1,0.1-1.4,0.2c-0.3,0.1-0.5,0.4-0.5,0.7c0,0.2,0.1,0.4,0.2,0.5s0.3,0.2,0.5,0.2
			C63.2,198.3,63.5,198.2,63.7,198.1z"/>
		<path class="st8" d="M67.2,199v-3.7c0-0.5,0-0.9-0.1-1.1c0-0.2-0.1-0.4-0.1-0.4c0-0.1,0.1-0.2,0.4-0.2c0.2-0.1,0.5-0.1,0.7-0.1
			c0.1,0,0.2,0.1,0.3,0.2s0.1,0.2,0.1,0.3s0,0.2,0.1,0.2c0.3-0.6,0.8-0.8,1.2-0.8c0.2,0,0.4,0.1,0.5,0.2c0.1,0.1,0.2,0.2,0.2,0.4
			c0,0.2,0,0.3-0.1,0.5c-0.1,0.2-0.1,0.3-0.2,0.3c0,0-0.1,0-0.2-0.1c-0.1,0-0.2-0.1-0.3-0.1c-0.2,0-0.4,0.1-0.6,0.2
			c-0.2,0.1-0.3,0.3-0.4,0.4v3.8c0,0.2-0.2,0.3-0.6,0.3h-0.2C67.4,199.4,67.2,199.3,67.2,199z"/>
		<path class="st8" d="M71.9,199.1c-0.3-0.2-0.6-0.6-0.8-1s-0.3-1-0.3-1.6c0-0.9,0.2-1.7,0.6-2.2c0.4-0.5,1-0.8,1.7-0.8
			c0.5,0,0.9,0.1,1.3,0.4v-2.6c0-0.2,0.2-0.3,0.6-0.3h0.2c0.4,0,0.6,0.1,0.6,0.3v6.3c0,0.5,0,0.9,0.1,1.1s0.1,0.4,0.1,0.4
			c0,0.1-0.1,0.2-0.4,0.2c-0.2,0.1-0.5,0.1-0.7,0.1c-0.1,0-0.2-0.1-0.3-0.2c-0.1-0.1-0.1-0.2-0.1-0.4c0-0.1,0-0.2,0-0.3
			c-0.2,0.3-0.4,0.5-0.7,0.6c-0.3,0.2-0.6,0.2-0.9,0.2C72.6,199.4,72.2,199.3,71.9,199.1z M74.5,197.5v-2.7c-0.3-0.2-0.6-0.3-1-0.3
			c-0.8,0-1.2,0.6-1.2,1.8c0,0.6,0.1,1.1,0.3,1.4s0.5,0.5,0.8,0.5C73.8,198.3,74.2,198,74.5,197.5z"/>
		<path class="st8" d="M82,199.2c-0.3-0.1-0.5-0.4-0.7-0.6c0,0.2-0.1,0.4-0.1,0.6c0,0.1-0.1,0.2-0.2,0.2c-0.1,0-0.2,0.1-0.4,0.1
			h-0.1c-0.4,0-0.6-0.1-0.6-0.3v-7.9c0-0.2,0.2-0.3,0.6-0.3h0.2c0.4,0,0.6,0.1,0.6,0.3v2.6c0.4-0.3,0.8-0.4,1.3-0.4
			c0.7,0,1.3,0.3,1.7,0.8c0.4,0.5,0.6,1.3,0.6,2.2c0,0.6-0.1,1.2-0.3,1.6c-0.2,0.5-0.4,0.8-0.8,1c-0.3,0.2-0.7,0.4-1.1,0.4
			C82.6,199.4,82.3,199.4,82,199.2z M83.4,197.8c0.2-0.3,0.3-0.8,0.3-1.4c0-1.2-0.4-1.8-1.2-1.8c-0.4,0-0.7,0.1-1,0.3v2.7
			c0.2,0.2,0.3,0.4,0.5,0.5c0.2,0.1,0.4,0.2,0.6,0.2C82.9,198.3,83.2,198.1,83.4,197.8z"/>
		<path class="st8" d="M86.2,197.6v-3.8c0-0.1,0-0.2,0.1-0.2c0.1-0.1,0.2-0.1,0.5-0.1H87c0.4,0,0.6,0.1,0.6,0.3v3.6
			c0,0.6,0.3,0.8,0.8,0.8c0.2,0,0.4-0.1,0.6-0.2c0.2-0.1,0.3-0.3,0.5-0.5v-3.8c0-0.2,0.2-0.3,0.6-0.3h0.2c0.4,0,0.6,0.1,0.6,0.3v3.7
			c0,0.5,0,0.9,0.1,1.1s0.1,0.4,0.1,0.4c0,0.1-0.1,0.2-0.4,0.2c-0.2,0.1-0.5,0.1-0.7,0.1c-0.1,0-0.2-0.1-0.3-0.2
			c-0.1-0.1-0.1-0.2-0.1-0.4c0-0.1,0-0.2-0.1-0.3c-0.2,0.2-0.5,0.4-0.8,0.6c-0.3,0.2-0.6,0.2-1,0.2
			C86.8,199.4,86.2,198.8,86.2,197.6z"/>
		<path class="st8" d="M93,199c-0.3-0.3-0.4-0.7-0.4-1.3v-3.1h-0.3c-0.1,0-0.2,0-0.2-0.1c0-0.1-0.1-0.2-0.1-0.4v-0.2
			c0-0.2,0-0.3,0.1-0.4c0-0.1,0.1-0.1,0.2-0.1h0.3l0.1-1.1c0-0.2,0.2-0.3,0.5-0.3h0.3c0.3,0,0.5,0.1,0.5,0.3v1.1h0.7
			c0.1,0,0.2,0,0.2,0.1c0,0.1,0.1,0.2,0.1,0.4v0.2c0,0.2,0,0.3-0.1,0.4c0,0.1-0.1,0.1-0.2,0.1H94v3.1c0,0.2,0,0.4,0.1,0.5
			c0.1,0.1,0.2,0.1,0.4,0.1c0.1,0,0.1,0,0.2,0c0.1,0,0.1,0,0.2,0c0.1,0,0.2,0.1,0.2,0.3c0.1,0.2,0.1,0.3,0.1,0.4
			c0,0.3-0.3,0.5-1,0.5C93.7,199.4,93.3,199.3,93,199z"/>
		<path class="st8" d="M96.8,199c-0.3-0.3-0.4-0.7-0.4-1.3v-3.1H96c-0.1,0-0.2,0-0.2-0.1c0-0.1-0.1-0.2-0.1-0.4v-0.2
			c0-0.2,0-0.3,0.1-0.4c0-0.1,0.1-0.1,0.2-0.1h0.3l0.1-1.1c0-0.2,0.2-0.3,0.5-0.3h0.3c0.3,0,0.5,0.1,0.5,0.3v1.1h0.7
			c0.1,0,0.2,0,0.2,0.1c0,0.1,0.1,0.2,0.1,0.4v0.2c0,0.2,0,0.3-0.1,0.4c0,0.1-0.1,0.1-0.2,0.1h-0.7v3.1c0,0.2,0,0.4,0.1,0.5
			c0.1,0.1,0.2,0.1,0.4,0.1c0.1,0,0.1,0,0.2,0c0.1,0,0.1,0,0.2,0c0.1,0,0.2,0.1,0.2,0.3c0.1,0.2,0.1,0.3,0.1,0.4
			c0,0.3-0.3,0.5-1,0.5C97.5,199.4,97.1,199.3,96.8,199z"/>
		<path class="st8" d="M100.3,198.7c-0.5-0.5-0.7-1.3-0.7-2.2c0-1,0.2-1.7,0.7-2.2c0.5-0.5,1.1-0.8,2-0.8c0.9,0,1.5,0.3,2,0.8
			s0.7,1.3,0.7,2.2s-0.2,1.7-0.7,2.2s-1.1,0.8-2,0.8C101.4,199.4,100.8,199.2,100.3,198.7z M103.2,197.8c0.2-0.3,0.3-0.8,0.3-1.4
			c0-0.6-0.1-1.1-0.3-1.4c-0.2-0.3-0.5-0.5-0.9-0.5s-0.7,0.2-0.9,0.5s-0.3,0.8-0.3,1.4c0,0.6,0.1,1.1,0.3,1.4s0.5,0.5,0.9,0.5
			S103,198.1,103.2,197.8z"/>
		<path class="st8" d="M106.2,199v-3.7c0-0.5,0-0.9-0.1-1.1c0-0.2-0.1-0.4-0.1-0.4c0-0.1,0.1-0.2,0.4-0.2c0.2-0.1,0.5-0.1,0.7-0.1
			c0.1,0,0.2,0.1,0.3,0.2c0.1,0.1,0.1,0.2,0.1,0.3s0,0.2,0.1,0.2c0.2-0.2,0.4-0.4,0.7-0.6c0.3-0.2,0.6-0.2,1-0.2
			c1.1,0,1.7,0.6,1.7,1.8v3.8c0,0.1,0,0.2-0.1,0.2c-0.1,0.1-0.2,0.1-0.5,0.1h-0.2c-0.4,0-0.6-0.1-0.6-0.3v-3.6
			c0-0.6-0.3-0.8-0.8-0.8c-0.2,0-0.4,0.1-0.6,0.2c-0.2,0.1-0.3,0.3-0.5,0.5v3.8c0,0.2-0.2,0.3-0.6,0.3h-0.2
			C106.4,199.4,106.2,199.3,106.2,199z"/>
	</g>
</g>
<g>
	<g>
		<path class="st1" d="M172.8,276.8c-0.1,0-0.1-0.1-0.1-0.2c0,0,0.1-0.5,0.2-1.4c0,0,0.1-0.5,0.3-1.5H172c-0.1,0-0.2,0-0.2-0.1
			c-0.1-0.1-0.1-0.2-0.1-0.4V273c0-0.2,0-0.3,0.1-0.4c0.1-0.1,0.1-0.1,0.2-0.1h1.5l0.4-2.4h-1.3c-0.1,0-0.2,0-0.2-0.1
			c-0.1-0.1-0.1-0.2-0.1-0.4v-0.3c0-0.2,0-0.3,0.1-0.4c0.1-0.1,0.1-0.1,0.2-0.1h1.5l0.5-2.7c0-0.1,0.1-0.2,0.2-0.3
			c0.1-0.1,0.3-0.1,0.5-0.1h0.1c0.3,0,0.4,0.1,0.4,0.2l-0.5,2.8h1.9l0.5-2.7c0-0.1,0.1-0.2,0.2-0.3c0.1-0.1,0.3-0.1,0.5-0.1h0.1
			c0.3,0,0.4,0.1,0.4,0.2l-0.5,2.8h1.1c0.1,0,0.2,0,0.2,0.1s0.1,0.2,0.1,0.4v0.3c0,0.2,0,0.3-0.1,0.4c0,0.1-0.1,0.1-0.2,0.1h-1.3
			l-0.4,2.4h1.2c0.1,0,0.2,0,0.2,0.1s0.1,0.2,0.1,0.4v0.3c0,0.2,0,0.3-0.1,0.4c0,0.1-0.1,0.1-0.2,0.1h-1.5l-0.5,2.8
			c0,0.1-0.1,0.2-0.2,0.3c-0.1,0.1-0.3,0.1-0.5,0.1h-0.1c-0.2,0-0.3,0-0.3-0.1c-0.1,0-0.1-0.1-0.1-0.2c0,0,0.1-0.5,0.2-1.4
			c0,0,0.1-0.5,0.3-1.5h-1.9l-0.5,2.8c0,0.1-0.1,0.2-0.2,0.3c-0.1,0.1-0.3,0.1-0.5,0.1h-0.1C173,276.9,172.9,276.9,172.8,276.8z
			 M176.6,272.5l0.4-2.4h-1.9l-0.4,2.4H176.6z"/>
		<path class="st1" d="M181.7,275.9c-0.6-0.7-0.9-1.7-0.9-3c0-1.4,0.3-2.7,1-3.8c0.7-1.1,1.4-2,2.3-2.6s1.5-0.9,1.9-0.9
			c0.1,0,0.3,0.1,0.4,0.3c0.1,0.2,0.2,0.4,0.2,0.5c0,0.1,0,0.1-0.1,0.2c-1.1,0.4-1.9,1-2.6,1.8c-0.7,0.7-1.1,1.6-1.4,2.5
			c0.6-0.4,1.3-0.5,2.2-0.5c0.6,0,1.1,0.1,1.5,0.4s0.8,0.6,1.1,1.1c0.3,0.5,0.4,1.1,0.4,1.7c0,0.7-0.2,1.2-0.5,1.8
			c-0.3,0.5-0.7,0.9-1.2,1.2c-0.5,0.3-1.1,0.4-1.8,0.4C183.1,276.9,182.3,276.6,181.7,275.9z M185.3,275.6c0.3-0.2,0.6-0.4,0.8-0.7
			c0.2-0.3,0.3-0.7,0.3-1.2c0-0.7-0.2-1.3-0.6-1.6c-0.4-0.4-0.9-0.5-1.5-0.5c-0.7,0-1.4,0.2-2,0.5c0,0.4-0.1,0.7-0.1,1
			c0,1,0.2,1.7,0.6,2.1c0.4,0.4,0.9,0.6,1.5,0.6C184.6,275.8,185,275.7,185.3,275.6z"/>
		<path class="st1" d="M190.3,276.8c-0.1,0-0.2-0.1-0.2-0.2c0,0,0-0.1,0.1-0.2l4.6-9.6h-5c-0.1,0-0.2,0-0.2-0.1
			c-0.1-0.1-0.1-0.2-0.1-0.4v-0.2c0-0.2,0-0.3,0.1-0.4s0.1-0.1,0.2-0.1h6.3c0.1,0,0.1,0.1,0.2,0.3c0.1,0.2,0.1,0.4,0.1,0.5
			c0,0.1,0,0.1,0,0.2l-4.7,10c0,0.1-0.1,0.1-0.2,0.2s-0.2,0.1-0.4,0.1h-0.2C190.6,276.9,190.4,276.9,190.3,276.8z"/>
		<path class="st1" d="M198.8,275.9c-0.6-0.7-0.9-1.7-0.9-3c0-1.4,0.3-2.7,1-3.8c0.7-1.1,1.4-2,2.3-2.6s1.5-0.9,1.9-0.9
			c0.1,0,0.3,0.1,0.4,0.3c0.1,0.2,0.2,0.4,0.2,0.5c0,0.1,0,0.1-0.1,0.2c-1.1,0.4-1.9,1-2.6,1.8c-0.7,0.7-1.1,1.6-1.4,2.5
			c0.6-0.4,1.3-0.5,2.2-0.5c0.6,0,1.1,0.1,1.5,0.4s0.8,0.6,1.1,1.1c0.3,0.5,0.4,1.1,0.4,1.7c0,0.7-0.2,1.2-0.5,1.8
			c-0.3,0.5-0.7,0.9-1.2,1.2c-0.5,0.3-1.1,0.4-1.8,0.4C200.3,276.9,199.4,276.6,198.8,275.9z M202.4,275.6c0.3-0.2,0.6-0.4,0.8-0.7
			c0.2-0.3,0.3-0.7,0.3-1.2c0-0.7-0.2-1.3-0.6-1.6c-0.4-0.4-0.9-0.5-1.5-0.5c-0.7,0-1.4,0.2-2,0.5c0,0.4-0.1,0.7-0.1,1
			c0,1,0.2,1.7,0.6,2.1c0.4,0.4,0.9,0.6,1.5,0.6C201.8,275.8,202.1,275.7,202.4,275.6z"/>
		<path class="st1" d="M207.9,275.6c-0.8-0.9-1.3-2.4-1.3-4.3c0-3.8,1.7-5.7,5.2-5.7c0.5,0,1,0.1,1.5,0.2c0.5,0.1,0.9,0.2,1.2,0.4
			c0.3,0.1,0.4,0.3,0.4,0.4c0,0.1-0.1,0.3-0.2,0.6c-0.1,0.2-0.2,0.4-0.3,0.4c0,0-0.2-0.1-0.4-0.2c-0.2-0.1-0.5-0.2-0.9-0.4
			c-0.3-0.1-0.7-0.2-1.2-0.2c-1.3,0-2.2,0.4-2.8,1.1c-0.6,0.7-0.9,1.9-0.9,3.4c0,1.5,0.3,2.7,0.9,3.4c0.6,0.7,1.5,1.1,2.8,1.1
			c0.5,0,1-0.1,1.3-0.2c0.4-0.1,0.7-0.3,1.1-0.5c0.1-0.1,0.3-0.1,0.3-0.1c0.1,0,0.2,0.1,0.4,0.4c0.1,0.2,0.2,0.4,0.2,0.5
			c0,0.2-0.2,0.3-0.5,0.5c-0.3,0.2-0.7,0.3-1.2,0.4c-0.5,0.1-1,0.2-1.6,0.2C210,277,208.7,276.5,207.9,275.6z"/>
		<path class="st1" d="M217.3,276.7c-0.1-0.1-0.1-0.2-0.1-0.4v-10.2c0-0.2,0-0.3,0.1-0.4c0.1-0.1,0.2-0.1,0.4-0.1h2.9
			c1.2,0,2,0.3,2.7,0.8c0.6,0.5,0.9,1.2,0.9,2.1c0,0.5-0.2,1-0.5,1.5c-0.4,0.5-0.8,0.8-1.2,0.9v0.1c0,0,0.2,0,0.6,0.2
			c0.4,0.2,0.8,0.5,1.1,0.9c0.3,0.4,0.5,0.9,0.5,1.5c0,2.1-1.4,3.2-4.2,3.2h-2.8C217.5,276.9,217.4,276.8,217.3,276.7z M220.4,270.5
			c0.6,0,1.2-0.2,1.6-0.5c0.4-0.4,0.6-0.8,0.6-1.3c0-0.6-0.2-1-0.5-1.3c-0.4-0.3-0.9-0.4-1.7-0.4h-1.8v3.6H220.4z M220.9,275.6
			c0.7,0,1.2-0.2,1.6-0.6c0.4-0.4,0.6-0.9,0.6-1.5c0-0.6-0.2-1.1-0.6-1.4c-0.4-0.3-1-0.5-1.8-0.5h-2.1v3.9H220.9z"/>
		<path class="st1" d="M227.5,276.3c-0.5-0.4-1-1-1.3-1.9c-0.3-0.9-0.5-1.9-0.5-3.2s0.2-2.3,0.5-3.2c0.3-0.9,0.8-1.5,1.3-1.9
			c0.5-0.4,1.2-0.6,1.8-0.6s1.3,0.2,1.8,0.6c0.6,0.4,1,1,1.3,1.9s0.5,1.9,0.5,3.2s-0.2,2.3-0.5,3.2s-0.8,1.5-1.3,1.9
			c-0.6,0.4-1.2,0.6-1.8,0.6S228.1,276.8,227.5,276.3z M230.5,275.3c0.3-0.3,0.6-0.8,0.8-1.5c0.2-0.7,0.3-1.5,0.3-2.6
			c0-1.1-0.1-1.9-0.3-2.6c-0.2-0.7-0.5-1.2-0.8-1.5c-0.3-0.3-0.7-0.5-1.1-0.5c-0.4,0-0.8,0.2-1.1,0.5c-0.3,0.3-0.6,0.8-0.8,1.5
			s-0.3,1.6-0.3,2.6c0,1.1,0.1,1.9,0.3,2.6s0.5,1.2,0.8,1.5c0.3,0.3,0.7,0.5,1.1,0.5C229.8,275.8,230.2,275.6,230.5,275.3z"/>
	</g>
	<path class="st6" d="M161.1,282.9h-19.5c-0.9,0-1.6-0.7-1.6-1.6v-19.5c0-0.9,0.7-1.6,1.6-1.6h19.5c0.9,0,1.6,0.7,1.6,1.6v19.5
		C162.7,282.2,162,282.9,161.1,282.9z"/>
</g>
<g>
	<g>
		<path class="st1" d="M292.5,276.8c-0.1,0-0.1-0.1-0.1-0.2c0,0,0.1-0.5,0.2-1.4c0,0,0.1-0.5,0.3-1.5h-1.2c-0.1,0-0.2,0-0.2-0.1
			c-0.1-0.1-0.1-0.2-0.1-0.4v-0.3c0-0.2,0-0.3,0.1-0.4c0.1-0.1,0.1-0.1,0.2-0.1h1.5l0.4-2.4h-1.3c-0.1,0-0.2,0-0.2-0.1
			c-0.1-0.1-0.1-0.2-0.1-0.4v-0.3c0-0.2,0-0.3,0.1-0.4c0.1-0.1,0.1-0.1,0.2-0.1h1.5l0.5-2.7c0-0.1,0.1-0.2,0.2-0.3
			c0.1-0.1,0.3-0.1,0.5-0.1h0.1c0.3,0,0.4,0.1,0.4,0.2l-0.5,2.8h1.9l0.5-2.7c0-0.1,0.1-0.2,0.2-0.3c0.1-0.1,0.3-0.1,0.5-0.1h0.1
			c0.3,0,0.4,0.1,0.4,0.2l-0.5,2.8h1.1c0.1,0,0.2,0,0.2,0.1s0.1,0.2,0.1,0.4v0.3c0,0.2,0,0.3-0.1,0.4c0,0.1-0.1,0.1-0.2,0.1h-1.3
			l-0.4,2.4h1.2c0.1,0,0.2,0,0.2,0.1s0.1,0.2,0.1,0.4v0.3c0,0.2,0,0.3-0.1,0.4c0,0.1-0.1,0.1-0.2,0.1h-1.5l-0.5,2.8
			c0,0.1-0.1,0.2-0.2,0.3c-0.1,0.1-0.3,0.1-0.5,0.1H296c-0.2,0-0.3,0-0.3-0.1c-0.1,0-0.1-0.1-0.1-0.2c0,0,0.1-0.5,0.2-1.4
			c0,0,0.1-0.5,0.3-1.5h-1.9l-0.5,2.8c0,0.1-0.1,0.2-0.2,0.3c-0.1,0.1-0.3,0.1-0.5,0.1h-0.1C292.7,276.8,292.6,276.8,292.5,276.8z
			 M296.3,272.4l0.4-2.4h-1.9l-0.4,2.4H296.3z"/>
		<path class="st1" d="M299.9,276.6c0-0.1,0-0.1,0-0.2l3.8-10.5c0.1-0.2,0.3-0.3,0.6-0.3h0.5c0.4,0,0.6,0.1,0.6,0.3l3.8,10.5
			c0,0.1,0,0.1,0,0.2c0,0.2-0.2,0.3-0.7,0.3h-0.1c-0.4,0-0.6-0.1-0.6-0.3L307,274h-4.7l-0.9,2.6c-0.1,0.2-0.3,0.3-0.6,0.3h-0.1
			C300.2,276.8,299.9,276.8,299.9,276.6z M306.5,272.8l-1.7-4.8c-0.1-0.2-0.1-0.5-0.2-0.9h0c-0.1,0.4-0.2,0.7-0.2,0.9l-1.7,4.8
			H306.5z"/>
		<path class="st1" d="M311.1,276.5v-10.4c0-0.2,0-0.3,0.1-0.4c0.1-0.1,0.2-0.1,0.4-0.1h5c0.1,0,0.2,0,0.2,0.1s0.1,0.2,0.1,0.4v0.3
			c0,0.2,0,0.3-0.1,0.4c0,0.1-0.1,0.1-0.2,0.1h-4.1v3.6h3.8c0.1,0,0.2,0,0.2,0.1c0,0.1,0.1,0.2,0.1,0.4v0.3c0,0.2,0,0.3-0.1,0.4
			c0,0.1-0.1,0.1-0.2,0.1h-3.8v4.8c0,0.2-0.2,0.4-0.6,0.4h-0.1C311.3,276.8,311.1,276.7,311.1,276.5z"/>
		<path class="st1" d="M319.8,275.5c-0.8-0.9-1.3-2.4-1.3-4.3c0-3.8,1.7-5.7,5.2-5.7c0.5,0,1,0.1,1.5,0.2c0.5,0.1,0.9,0.2,1.2,0.4
			c0.3,0.1,0.4,0.3,0.4,0.4c0,0.1-0.1,0.3-0.2,0.6c-0.1,0.2-0.2,0.4-0.3,0.4c0,0-0.2-0.1-0.4-0.2c-0.2-0.1-0.5-0.2-0.9-0.4
			c-0.3-0.1-0.7-0.2-1.2-0.2c-1.3,0-2.2,0.4-2.8,1.1c-0.6,0.7-0.9,1.9-0.9,3.4c0,1.5,0.3,2.7,0.9,3.4c0.6,0.7,1.5,1.1,2.8,1.1
			c0.5,0,1-0.1,1.3-0.2c0.4-0.1,0.7-0.3,1.1-0.5c0.1-0.1,0.3-0.1,0.3-0.1c0.1,0,0.2,0.1,0.4,0.4c0.1,0.2,0.2,0.4,0.2,0.5
			c0,0.2-0.2,0.3-0.5,0.5c-0.3,0.2-0.7,0.3-1.2,0.4c-0.5,0.1-1,0.2-1.6,0.2C321.9,276.9,320.6,276.5,319.8,275.5z"/>
		<path class="st1" d="M329.1,276.5v-10.4c0-0.2,0-0.3,0.1-0.4c0.1-0.1,0.2-0.1,0.4-0.1h5c0.1,0,0.2,0,0.2,0.1s0.1,0.2,0.1,0.4v0.3
			c0,0.2,0,0.3-0.1,0.4c0,0.1-0.1,0.1-0.2,0.1h-4.1v3.6h3.8c0.1,0,0.2,0,0.2,0.1c0,0.1,0.1,0.2,0.1,0.4v0.3c0,0.2,0,0.3-0.1,0.4
			c0,0.1-0.1,0.1-0.2,0.1h-3.8v4.8c0,0.2-0.2,0.4-0.6,0.4h-0.1C329.3,276.8,329.1,276.7,329.1,276.5z"/>
		<path class="st1" d="M337.7,276.5c-0.1-0.2-0.2-0.4-0.2-0.5c0-0.1,0-0.1,0.1-0.2c1.1-0.4,1.9-1,2.6-1.8s1.1-1.6,1.4-2.5
			c-0.6,0.4-1.3,0.5-2.2,0.5c-0.6,0-1.1-0.1-1.5-0.4c-0.5-0.3-0.8-0.6-1.1-1.1c-0.3-0.5-0.4-1.1-0.4-1.7c0-0.7,0.2-1.2,0.5-1.8
			s0.7-0.9,1.2-1.2c0.5-0.3,1.1-0.4,1.8-0.4c1.1,0,2,0.3,2.5,1c0.6,0.7,0.9,1.7,0.9,3c0,1.4-0.3,2.7-1,3.8c-0.7,1.1-1.4,2-2.3,2.6
			c-0.8,0.6-1.5,0.9-1.9,0.9C338,276.8,337.8,276.7,337.7,276.5z M341.9,270.4c0-0.4,0.1-0.7,0.1-1c0-1-0.2-1.7-0.6-2.1
			c-0.4-0.4-0.9-0.6-1.5-0.6c-0.3,0-0.6,0.1-0.9,0.2c-0.3,0.2-0.6,0.4-0.8,0.7c-0.2,0.3-0.3,0.7-0.3,1.2c0,0.7,0.2,1.3,0.6,1.6
			c0.4,0.4,0.9,0.5,1.5,0.5C340.6,270.9,341.3,270.8,341.9,270.4z"/>
		<path class="st1" d="M345.8,276.7c-0.1-0.1-0.1-0.2-0.1-0.4v-10.2c0-0.2,0-0.3,0.1-0.4c0.1-0.1,0.2-0.1,0.4-0.1h3.2
			c1.5,0,2.7,0.4,3.6,1.3c0.9,0.9,1.4,2.3,1.4,4.3c0,2-0.5,3.4-1.4,4.3c-0.9,0.9-2.1,1.3-3.6,1.3h-3.2
			C346,276.8,345.9,276.8,345.8,276.7z M349.3,275.6c1.1,0,1.9-0.4,2.6-1.1c0.7-0.7,1-1.8,1-3.3c0-1.5-0.3-2.6-1-3.3
			s-1.5-1.1-2.6-1.1h-2.2v8.8H349.3z"/>
	</g>
	<path class="st8" d="M280.8,282.8h-19.5c-0.9,0-1.6-0.7-1.6-1.6v-19.5c0-0.9,0.7-1.6,1.6-1.6h19.5c0.9,0,1.6,0.7,1.6,1.6v19.5
		C282.4,282.1,281.7,282.8,280.8,282.8z"/>
</g>
<g>
	<path class="st9" d="M336.2,120.8H153.8c-1.3,0-2.4-1.1-2.4-2.4V89.9c0-1.3,1.1-2.4,2.4-2.4h182.4c1.3,0,2.4,1.1,2.4,2.4v28.5
		C338.6,119.7,337.5,120.8,336.2,120.8z"/>
	<g>
		<path class="st2" d="M164.8,108c-0.4-0.1-0.7-0.2-0.9-0.4c-0.2-0.1-0.3-0.3-0.3-0.4c0-0.1,0.1-0.3,0.2-0.5
			c0.2-0.2,0.3-0.3,0.4-0.3c0,0,0.1,0,0.3,0.1c0.2,0.1,0.5,0.2,0.7,0.3c0.2,0.1,0.5,0.1,0.8,0.1c0.3,0,0.6-0.1,0.8-0.2
			c0.2-0.2,0.3-0.4,0.3-0.7c0-0.2-0.1-0.4-0.2-0.5s-0.3-0.3-0.4-0.3c-0.2-0.1-0.4-0.2-0.7-0.3l-0.4-0.2c-0.3-0.2-0.6-0.3-0.9-0.5
			c-0.2-0.2-0.4-0.4-0.6-0.7c-0.2-0.3-0.2-0.6-0.2-1.1c0-0.5,0.1-0.9,0.4-1.2c0.2-0.3,0.6-0.6,1-0.7c0.4-0.2,0.8-0.2,1.3-0.2
			c0.3,0,0.7,0,1,0.1c0.3,0.1,0.6,0.2,0.7,0.3c0.2,0.1,0.2,0.2,0.2,0.3c0,0.1-0.1,0.3-0.2,0.5s-0.2,0.3-0.3,0.3c0,0-0.1,0-0.2-0.1
			c-0.1,0-0.1-0.1-0.2-0.1c-0.3-0.1-0.6-0.2-1-0.2c-0.4,0-0.7,0.1-0.9,0.2c-0.2,0.2-0.3,0.4-0.3,0.6c0,0.2,0.1,0.4,0.2,0.5
			c0.1,0.1,0.3,0.2,0.4,0.3c0.2,0.1,0.4,0.2,0.7,0.3c0.4,0.2,0.8,0.3,1.1,0.5c0.3,0.2,0.5,0.4,0.7,0.7c0.2,0.3,0.3,0.7,0.3,1.2
			c0,0.8-0.2,1.4-0.7,1.8c-0.5,0.4-1.1,0.6-1.8,0.6C165.7,108.2,165.2,108.1,164.8,108z"/>
		<path class="st2" d="M170.4,107.8c-0.3-0.3-0.4-0.7-0.4-1.3v-3.1h-0.3c-0.1,0-0.2,0-0.2-0.1c0-0.1-0.1-0.2-0.1-0.4v-0.2
			c0-0.2,0-0.3,0.1-0.4c0-0.1,0.1-0.1,0.2-0.1h0.3l0.1-1.1c0-0.2,0.2-0.3,0.5-0.3h0.3c0.3,0,0.5,0.1,0.5,0.3v1.1h0.7
			c0.1,0,0.2,0,0.2,0.1c0,0.1,0.1,0.2,0.1,0.4v0.2c0,0.2,0,0.3-0.1,0.4c0,0.1-0.1,0.1-0.2,0.1h-0.7v3.1c0,0.2,0,0.4,0.1,0.5
			c0.1,0.1,0.2,0.1,0.4,0.1c0.1,0,0.1,0,0.2,0c0.1,0,0.1,0,0.2,0c0.1,0,0.2,0.1,0.2,0.3c0.1,0.2,0.1,0.3,0.1,0.4
			c0,0.3-0.3,0.5-1,0.5C171.1,108.2,170.7,108.1,170.4,107.8z"/>
		<path class="st2" d="M173.8,107.8c-0.3-0.3-0.5-0.7-0.5-1.2c0-1.4,1.1-2.1,3.4-2.1V104c0-0.5-0.3-0.7-1-0.7c-0.3,0-0.5,0-0.7,0.1
			c-0.2,0.1-0.4,0.1-0.6,0.2c-0.2,0.1-0.2,0.1-0.3,0.1c-0.1,0-0.2-0.1-0.3-0.3c-0.1-0.2-0.2-0.4-0.2-0.5c0-0.1,0.1-0.2,0.3-0.4
			s0.5-0.2,0.8-0.3c0.3-0.1,0.7-0.1,1.1-0.1c0.8,0,1.4,0.2,1.8,0.5c0.4,0.3,0.6,0.8,0.6,1.3v2.3c0,0.5,0,0.9,0.1,1.1
			s0.1,0.4,0.1,0.4c0,0.1-0.1,0.2-0.4,0.2s-0.5,0.1-0.7,0.1c-0.1,0-0.2-0.1-0.3-0.2c-0.1-0.1-0.1-0.2-0.1-0.4c0-0.1,0-0.2,0-0.3
			c-0.2,0.2-0.4,0.4-0.7,0.6c-0.3,0.2-0.6,0.3-1.1,0.3C174.5,108.2,174.1,108,173.8,107.8z M176.2,106.9c0.2-0.1,0.4-0.3,0.6-0.5
			v-0.9c-0.6,0-1.1,0.1-1.4,0.2s-0.5,0.4-0.5,0.7c0,0.2,0.1,0.4,0.2,0.5s0.3,0.2,0.5,0.2C175.7,107.1,176,107,176.2,106.9z"/>
		<path class="st2" d="M179.7,107.8v-3.7c0-0.5,0-0.9-0.1-1.1s-0.1-0.4-0.1-0.4c0-0.1,0.1-0.2,0.4-0.2c0.2-0.1,0.5-0.1,0.7-0.1
			c0.1,0,0.2,0.1,0.3,0.2c0.1,0.1,0.1,0.2,0.1,0.3c0,0.1,0,0.2,0.1,0.2c0.2-0.2,0.4-0.5,0.7-0.6c0.3-0.2,0.6-0.2,1-0.2
			c1.1,0,1.7,0.6,1.7,1.8v3.8c0,0.1,0,0.2-0.1,0.2s-0.2,0.1-0.5,0.1h-0.2c-0.4,0-0.6-0.1-0.6-0.3v-3.6c0-0.6-0.3-0.8-0.8-0.8
			c-0.2,0-0.4,0.1-0.6,0.2c-0.2,0.1-0.3,0.3-0.5,0.5v3.8c0,0.2-0.2,0.3-0.6,0.3h-0.2C179.9,108.1,179.7,108,179.7,107.8z"/>
		<path class="st2" d="M186.7,107.8c-0.3-0.2-0.6-0.6-0.8-1s-0.3-1-0.3-1.6c0-0.9,0.2-1.7,0.6-2.2c0.4-0.5,1-0.8,1.7-0.8
			c0.5,0,0.9,0.1,1.3,0.4V100c0-0.2,0.2-0.3,0.6-0.3h0.2c0.4,0,0.6,0.1,0.6,0.3v6.3c0,0.5,0,0.9,0.1,1.1s0.1,0.4,0.1,0.4
			c0,0.1-0.1,0.2-0.4,0.2s-0.5,0.1-0.7,0.1c-0.1,0-0.2-0.1-0.3-0.2c-0.1-0.1-0.1-0.2-0.1-0.4c0-0.1,0-0.2,0-0.3
			c-0.2,0.3-0.4,0.5-0.7,0.6c-0.3,0.2-0.6,0.2-0.9,0.2C187.4,108.2,187.1,108.1,186.7,107.8z M189.4,106.3v-2.7
			c-0.3-0.2-0.6-0.3-1-0.3c-0.8,0-1.2,0.6-1.2,1.8c0,0.6,0.1,1.1,0.3,1.4s0.5,0.5,0.8,0.5C188.7,107,189,106.8,189.4,106.3z"/>
		<path class="st2" d="M192.5,107.8c-0.3-0.3-0.5-0.7-0.5-1.2c0-1.4,1.1-2.1,3.4-2.1V104c0-0.5-0.3-0.7-1-0.7c-0.3,0-0.5,0-0.7,0.1
			c-0.2,0.1-0.4,0.1-0.6,0.2c-0.2,0.1-0.2,0.1-0.3,0.1c-0.1,0-0.2-0.1-0.3-0.3c-0.1-0.2-0.2-0.4-0.2-0.5c0-0.1,0.1-0.2,0.3-0.4
			s0.5-0.2,0.8-0.3c0.3-0.1,0.7-0.1,1.1-0.1c0.8,0,1.4,0.2,1.8,0.5c0.4,0.3,0.6,0.8,0.6,1.3v2.3c0,0.5,0,0.9,0.1,1.1
			s0.1,0.4,0.1,0.4c0,0.1-0.1,0.2-0.4,0.2s-0.5,0.1-0.7,0.1c-0.1,0-0.2-0.1-0.3-0.2c-0.1-0.1-0.1-0.2-0.1-0.4c0-0.1,0-0.2,0-0.3
			c-0.2,0.2-0.4,0.4-0.7,0.6c-0.3,0.2-0.6,0.3-1.1,0.3C193.3,108.2,192.8,108,192.5,107.8z M194.9,106.9c0.2-0.1,0.4-0.3,0.6-0.5
			v-0.9c-0.6,0-1.1,0.1-1.4,0.2s-0.5,0.4-0.5,0.7c0,0.2,0.1,0.4,0.2,0.5s0.3,0.2,0.5,0.2C194.5,107.1,194.7,107,194.9,106.9z"/>
		<path class="st2" d="M198.6,107.8c-0.3-0.3-0.5-0.7-0.5-1.2c0-1.4,1.1-2.1,3.4-2.1V104c0-0.5-0.3-0.7-1-0.7c-0.3,0-0.5,0-0.7,0.1
			c-0.2,0.1-0.4,0.1-0.6,0.2c-0.2,0.1-0.2,0.1-0.3,0.1c-0.1,0-0.2-0.1-0.3-0.3c-0.1-0.2-0.2-0.4-0.2-0.5c0-0.1,0.1-0.2,0.3-0.4
			s0.5-0.2,0.8-0.3c0.3-0.1,0.7-0.1,1.1-0.1c0.8,0,1.4,0.2,1.8,0.5c0.4,0.3,0.6,0.8,0.6,1.3v2.3c0,0.5,0,0.9,0.1,1.1
			s0.1,0.4,0.1,0.4c0,0.1-0.1,0.2-0.4,0.2s-0.5,0.1-0.7,0.1c-0.1,0-0.2-0.1-0.3-0.2c-0.1-0.1-0.1-0.2-0.1-0.4c0-0.1,0-0.2,0-0.3
			c-0.2,0.2-0.4,0.4-0.7,0.6c-0.3,0.2-0.6,0.3-1.1,0.3C199.4,108.2,198.9,108,198.6,107.8z M201.1,106.9c0.2-0.1,0.4-0.3,0.6-0.5
			v-0.9c-0.6,0-1.1,0.1-1.4,0.2s-0.5,0.4-0.5,0.7c0,0.2,0.1,0.4,0.2,0.5s0.3,0.2,0.5,0.2C200.6,107.1,200.8,107,201.1,106.9z"/>
		<path class="st2" d="M204.6,107.8v-3.7c0-0.5,0-0.9-0.1-1.1s-0.1-0.4-0.1-0.4c0-0.1,0.1-0.2,0.4-0.2c0.2-0.1,0.5-0.1,0.7-0.1
			c0.1,0,0.2,0.1,0.3,0.2s0.1,0.2,0.1,0.3c0,0.1,0,0.2,0.1,0.2c0.3-0.6,0.8-0.8,1.2-0.8c0.2,0,0.4,0.1,0.5,0.2s0.2,0.2,0.2,0.4
			c0,0.1,0,0.3-0.1,0.5c-0.1,0.2-0.1,0.3-0.2,0.3c0,0-0.1,0-0.2-0.1c-0.1,0-0.2-0.1-0.3-0.1c-0.2,0-0.4,0.1-0.6,0.2
			c-0.2,0.1-0.3,0.3-0.4,0.4v3.8c0,0.2-0.2,0.3-0.6,0.3h-0.2C204.8,108.1,204.6,108,204.6,107.8z"/>
		<path class="st2" d="M209.5,107.8c-0.3-0.2-0.6-0.6-0.8-1s-0.3-1-0.3-1.6c0-0.9,0.2-1.7,0.6-2.2c0.4-0.5,1-0.8,1.7-0.8
			c0.5,0,0.9,0.1,1.3,0.4V100c0-0.2,0.2-0.3,0.6-0.3h0.2c0.4,0,0.6,0.1,0.6,0.3v6.3c0,0.5,0,0.9,0.1,1.1s0.1,0.4,0.1,0.4
			c0,0.1-0.1,0.2-0.4,0.2s-0.5,0.1-0.7,0.1c-0.1,0-0.2-0.1-0.3-0.2c-0.1-0.1-0.1-0.2-0.1-0.4c0-0.1,0-0.2,0-0.3
			c-0.2,0.3-0.4,0.5-0.7,0.6c-0.3,0.2-0.6,0.2-0.9,0.2C210.2,108.2,209.8,108.1,209.5,107.8z M212.1,106.3v-2.7
			c-0.3-0.2-0.6-0.3-1-0.3c-0.8,0-1.2,0.6-1.2,1.8c0,0.6,0.1,1.1,0.3,1.4s0.5,0.5,0.8,0.5C211.4,107,211.8,106.8,212.1,106.3z"/>
		<path class="st2" d="M219.8,108c-0.3-0.1-0.5-0.4-0.7-0.6c0,0.2-0.1,0.4-0.1,0.6c0,0.1-0.1,0.2-0.2,0.2c-0.1,0-0.2,0.1-0.4,0.1
			h-0.1c-0.4,0-0.6-0.1-0.6-0.3V100c0-0.2,0.2-0.3,0.6-0.3h0.2c0.4,0,0.6,0.1,0.6,0.3v2.6c0.4-0.3,0.8-0.4,1.3-0.4
			c0.7,0,1.3,0.3,1.7,0.8c0.4,0.5,0.6,1.3,0.6,2.2c0,0.6-0.1,1.2-0.3,1.6c-0.2,0.5-0.4,0.8-0.8,1c-0.3,0.2-0.7,0.4-1.1,0.4
			C220.4,108.2,220.1,108.1,219.8,108z M221.2,106.5c0.2-0.3,0.3-0.8,0.3-1.4c0-1.2-0.4-1.8-1.2-1.8c-0.4,0-0.7,0.1-1,0.3v2.7
			c0.2,0.2,0.3,0.4,0.5,0.5c0.2,0.1,0.4,0.2,0.6,0.2C220.7,107,221,106.9,221.2,106.5z"/>
		<path class="st2" d="M224.1,106.4v-3.8c0-0.1,0-0.2,0.1-0.2c0.1-0.1,0.2-0.1,0.5-0.1h0.2c0.4,0,0.6,0.1,0.6,0.3v3.6
			c0,0.6,0.3,0.8,0.8,0.8c0.2,0,0.4-0.1,0.6-0.2c0.2-0.1,0.3-0.3,0.5-0.5v-3.8c0-0.2,0.2-0.3,0.6-0.3h0.2c0.4,0,0.6,0.1,0.6,0.3v3.7
			c0,0.5,0,0.9,0.1,1.1s0.1,0.4,0.1,0.4c0,0.1-0.1,0.2-0.4,0.2c-0.2,0.1-0.5,0.1-0.7,0.1c-0.1,0-0.2-0.1-0.3-0.2
			c-0.1-0.1-0.1-0.2-0.1-0.4c0-0.1,0-0.2-0.1-0.3c-0.2,0.2-0.5,0.5-0.8,0.6c-0.3,0.2-0.6,0.2-1,0.2
			C224.7,108.2,224.1,107.6,224.1,106.4z"/>
		<path class="st2" d="M231.1,107.8c-0.3-0.3-0.4-0.7-0.4-1.3v-3.1h-0.3c-0.1,0-0.2,0-0.2-0.1c0-0.1-0.1-0.2-0.1-0.4v-0.2
			c0-0.2,0-0.3,0.1-0.4c0-0.1,0.1-0.1,0.2-0.1h0.3l0.1-1.1c0-0.2,0.2-0.3,0.5-0.3h0.3c0.3,0,0.5,0.1,0.5,0.3v1.1h0.7
			c0.1,0,0.2,0,0.2,0.1c0,0.1,0.1,0.2,0.1,0.4v0.2c0,0.2,0,0.3-0.1,0.4c0,0.1-0.1,0.1-0.2,0.1h-0.7v3.1c0,0.2,0,0.4,0.1,0.5
			c0.1,0.1,0.2,0.1,0.4,0.1c0.1,0,0.1,0,0.2,0c0.1,0,0.1,0,0.2,0c0.1,0,0.2,0.1,0.2,0.3c0.1,0.2,0.1,0.3,0.1,0.4
			c0,0.3-0.3,0.5-1,0.5C231.8,108.2,231.4,108.1,231.1,107.8z"/>
		<path class="st2" d="M234.9,107.8c-0.3-0.3-0.4-0.7-0.4-1.3v-3.1h-0.3c-0.1,0-0.2,0-0.2-0.1c0-0.1-0.1-0.2-0.1-0.4v-0.2
			c0-0.2,0-0.3,0.1-0.4c0-0.1,0.1-0.1,0.2-0.1h0.3l0.1-1.1c0-0.2,0.2-0.3,0.5-0.3h0.3c0.3,0,0.5,0.1,0.5,0.3v1.1h0.7
			c0.1,0,0.2,0,0.2,0.1c0,0.1,0.1,0.2,0.1,0.4v0.2c0,0.2,0,0.3-0.1,0.4c0,0.1-0.1,0.1-0.2,0.1h-0.7v3.1c0,0.2,0,0.4,0.1,0.5
			c0.1,0.1,0.2,0.1,0.4,0.1c0.1,0,0.1,0,0.2,0c0.1,0,0.1,0,0.2,0c0.1,0,0.2,0.1,0.2,0.3c0.1,0.2,0.1,0.3,0.1,0.4
			c0,0.3-0.3,0.5-1,0.5C235.6,108.2,235.2,108.1,234.9,107.8z"/>
		<path class="st2" d="M238.6,107.4c-0.5-0.5-0.7-1.3-0.7-2.2c0-1,0.2-1.7,0.7-2.2c0.5-0.5,1.1-0.8,2-0.8c0.9,0,1.5,0.3,2,0.8
			c0.5,0.5,0.7,1.3,0.7,2.2s-0.2,1.7-0.7,2.2s-1.1,0.8-2,0.8C239.7,108.2,239,107.9,238.6,107.4z M241.5,106.6
			c0.2-0.3,0.3-0.8,0.3-1.4c0-0.6-0.1-1.1-0.3-1.4c-0.2-0.3-0.5-0.5-0.9-0.5s-0.7,0.2-0.9,0.5c-0.2,0.3-0.3,0.8-0.3,1.4
			c0,0.6,0.1,1.1,0.3,1.4c0.2,0.3,0.5,0.5,0.9,0.5S241.3,106.9,241.5,106.6z"/>
		<path class="st2" d="M244.6,107.8v-3.7c0-0.5,0-0.9-0.1-1.1s-0.1-0.4-0.1-0.4c0-0.1,0.1-0.2,0.4-0.2c0.2-0.1,0.5-0.1,0.7-0.1
			c0.1,0,0.2,0.1,0.3,0.2c0.1,0.1,0.1,0.2,0.1,0.3c0,0.1,0,0.2,0.1,0.2c0.2-0.2,0.4-0.5,0.7-0.6c0.3-0.2,0.6-0.2,1-0.2
			c1.1,0,1.7,0.6,1.7,1.8v3.8c0,0.1,0,0.2-0.1,0.2s-0.2,0.1-0.5,0.1h-0.2c-0.4,0-0.6-0.1-0.6-0.3v-3.6c0-0.6-0.3-0.8-0.8-0.8
			c-0.2,0-0.4,0.1-0.6,0.2c-0.2,0.1-0.3,0.3-0.5,0.5v3.8c0,0.2-0.2,0.3-0.6,0.3h-0.2C244.8,108.1,244.6,108,244.6,107.8z"/>
		<path class="st2" d="M253.5,101v-0.7c0-0.2,0.2-0.4,0.7-0.4c0.5,0,0.7,0.1,0.7,0.4v0.7c0,0.1-0.1,0.2-0.2,0.3s-0.3,0.1-0.6,0.1
			C253.8,101.4,253.5,101.3,253.5,101z M253.5,107.8v-5.3c0-0.2,0.2-0.3,0.6-0.3h0.2c0.4,0,0.6,0.1,0.6,0.3v5.3
			c0,0.2-0.2,0.3-0.6,0.3h-0.2C253.7,108.1,253.5,108,253.5,107.8z"/>
		<path class="st2" d="M256.9,107.5c-0.5-0.5-0.7-1.2-0.7-2.3c0-1,0.2-1.8,0.7-2.3c0.5-0.5,1.2-0.7,2.1-0.7c0.5,0,0.9,0.1,1.2,0.2
			c0.4,0.1,0.6,0.3,0.6,0.5c0,0.1-0.1,0.3-0.2,0.5c-0.1,0.2-0.2,0.3-0.3,0.3c0,0-0.1,0-0.2-0.1c-0.3-0.2-0.7-0.3-1.1-0.3
			c-0.5,0-0.8,0.1-1.1,0.4c-0.2,0.3-0.3,0.8-0.3,1.4c0,0.7,0.1,1.1,0.3,1.4c0.2,0.3,0.6,0.5,1.1,0.5c0.2,0,0.4,0,0.6-0.1
			c0.2,0,0.4-0.1,0.5-0.2c0.1,0,0.1-0.1,0.2-0.1c0.1,0,0.2,0.1,0.3,0.3c0.1,0.2,0.2,0.3,0.2,0.5c0,0.1-0.1,0.3-0.3,0.4
			c-0.2,0.1-0.5,0.2-0.8,0.2s-0.6,0.1-0.8,0.1C258.1,108.2,257.4,108,256.9,107.5z"/>
		<path class="st2" d="M262.4,107.4c-0.5-0.5-0.7-1.3-0.7-2.2c0-1,0.2-1.7,0.7-2.2c0.5-0.5,1.1-0.8,2-0.8c0.9,0,1.5,0.3,2,0.8
			c0.5,0.5,0.7,1.3,0.7,2.2s-0.2,1.7-0.7,2.2s-1.1,0.8-2,0.8C263.5,108.2,262.9,107.9,262.4,107.4z M265.3,106.6
			c0.2-0.3,0.3-0.8,0.3-1.4c0-0.6-0.1-1.1-0.3-1.4c-0.2-0.3-0.5-0.5-0.9-0.5s-0.7,0.2-0.9,0.5c-0.2,0.3-0.3,0.8-0.3,1.4
			c0,0.6,0.1,1.1,0.3,1.4c0.2,0.3,0.5,0.5,0.9,0.5S265.1,106.9,265.3,106.6z"/>
		<path class="st2" d="M268.8,107.4c-0.5-0.5-0.7-1.3-0.7-2.2c0-1,0.2-1.7,0.7-2.2c0.5-0.5,1.1-0.8,2-0.8c0.9,0,1.5,0.3,2,0.8
			c0.5,0.5,0.7,1.3,0.7,2.2s-0.2,1.7-0.7,2.2s-1.1,0.8-2,0.8C269.9,108.2,269.3,107.9,268.8,107.4z M271.7,106.6
			c0.2-0.3,0.3-0.8,0.3-1.4c0-0.6-0.1-1.1-0.3-1.4c-0.2-0.3-0.5-0.5-0.9-0.5s-0.7,0.2-0.9,0.5c-0.2,0.3-0.3,0.8-0.3,1.4
			c0,0.6,0.1,1.1,0.3,1.4c0.2,0.3,0.5,0.5,0.9,0.5S271.5,106.9,271.7,106.6z"/>
		<path class="st2" d="M274.8,107.8v-3.7c0-0.5,0-0.9-0.1-1.1s-0.1-0.4-0.1-0.4c0-0.1,0.1-0.2,0.4-0.2c0.2-0.1,0.5-0.1,0.7-0.1
			c0.1,0,0.2,0.1,0.3,0.2c0.1,0.1,0.1,0.2,0.1,0.3c0,0.1,0,0.2,0.1,0.2c0.2-0.2,0.4-0.5,0.7-0.6c0.3-0.2,0.6-0.2,1-0.2
			c1.1,0,1.7,0.6,1.7,1.8v3.8c0,0.1,0,0.2-0.1,0.2s-0.2,0.1-0.5,0.1h-0.2c-0.4,0-0.6-0.1-0.6-0.3v-3.6c0-0.6-0.3-0.8-0.8-0.8
			c-0.2,0-0.4,0.1-0.6,0.2c-0.2,0.1-0.3,0.3-0.5,0.5v3.8c0,0.2-0.2,0.3-0.6,0.3h-0.2C275,108.1,274.8,108,274.8,107.8z"/>
		<path class="st2" d="M283.9,107.8c-0.3-0.3-0.5-0.7-0.5-1.2c0-1.4,1.1-2.1,3.4-2.1V104c0-0.5-0.3-0.7-1-0.7c-0.3,0-0.5,0-0.7,0.1
			c-0.2,0.1-0.4,0.1-0.6,0.2c-0.2,0.1-0.2,0.1-0.3,0.1c-0.1,0-0.2-0.1-0.3-0.3c-0.1-0.2-0.2-0.4-0.2-0.5c0-0.1,0.1-0.2,0.3-0.4
			s0.5-0.2,0.8-0.3c0.3-0.1,0.7-0.1,1.1-0.1c0.8,0,1.4,0.2,1.8,0.5c0.4,0.3,0.6,0.8,0.6,1.3v2.3c0,0.5,0,0.9,0.1,1.1
			s0.1,0.4,0.1,0.4c0,0.1-0.1,0.2-0.4,0.2s-0.5,0.1-0.7,0.1c-0.1,0-0.2-0.1-0.3-0.2c-0.1-0.1-0.1-0.2-0.1-0.4c0-0.1,0-0.2,0-0.3
			c-0.2,0.2-0.4,0.4-0.7,0.6c-0.3,0.2-0.6,0.3-1.1,0.3C284.6,108.2,284.2,108,283.9,107.8z M286.3,106.9c0.2-0.1,0.4-0.3,0.6-0.5
			v-0.9c-0.6,0-1.1,0.1-1.4,0.2s-0.5,0.4-0.5,0.7c0,0.2,0.1,0.4,0.2,0.5s0.3,0.2,0.5,0.2C285.8,107.1,286.1,107,286.3,106.9z"/>
		<path class="st2" d="M290.3,107.5c-0.5-0.5-0.7-1.2-0.7-2.3c0-1,0.2-1.8,0.7-2.3c0.5-0.5,1.2-0.7,2.1-0.7c0.5,0,0.9,0.1,1.2,0.2
			c0.4,0.1,0.6,0.3,0.6,0.5c0,0.1-0.1,0.3-0.2,0.5c-0.1,0.2-0.2,0.3-0.3,0.3c0,0-0.1,0-0.2-0.1c-0.3-0.2-0.7-0.3-1.1-0.3
			c-0.5,0-0.8,0.1-1.1,0.4c-0.2,0.3-0.3,0.8-0.3,1.4c0,0.7,0.1,1.1,0.3,1.4c0.2,0.3,0.6,0.5,1.1,0.5c0.2,0,0.4,0,0.6-0.1
			c0.2,0,0.4-0.1,0.5-0.2c0.1,0,0.1-0.1,0.2-0.1c0.1,0,0.2,0.1,0.3,0.3c0.1,0.2,0.2,0.3,0.2,0.5c0,0.1-0.1,0.3-0.3,0.4
			c-0.2,0.1-0.5,0.2-0.8,0.2s-0.6,0.1-0.8,0.1C291.5,108.2,290.7,108,290.3,107.5z"/>
		<path class="st2" d="M295.4,107.8V100c0-0.2,0.2-0.3,0.6-0.3h0.2c0.4,0,0.6,0.1,0.6,0.3v3c0.2-0.2,0.4-0.4,0.7-0.6
			s0.6-0.2,0.9-0.2c0.5,0,1,0.1,1.3,0.4s0.5,0.8,0.5,1.4v3.8c0,0.2-0.2,0.3-0.6,0.3h-0.2c-0.4,0-0.6-0.1-0.6-0.3v-3.6
			c0-0.3-0.1-0.5-0.2-0.6c-0.1-0.1-0.4-0.2-0.6-0.2c-0.3,0-0.5,0.1-0.7,0.2c-0.2,0.2-0.3,0.3-0.4,0.5v3.8c0,0.2-0.2,0.3-0.6,0.3H296
			C295.6,108.1,295.4,108,295.4,107.8z"/>
		<path class="st2" d="M302.3,107.8c-0.3-0.3-0.4-0.7-0.4-1.3v-3.1h-0.3c-0.1,0-0.2,0-0.2-0.1c0-0.1-0.1-0.2-0.1-0.4v-0.2
			c0-0.2,0-0.3,0.1-0.4c0-0.1,0.1-0.1,0.2-0.1h0.3l0.1-1.1c0-0.2,0.2-0.3,0.5-0.3h0.3c0.3,0,0.5,0.1,0.5,0.3v1.1h0.7
			c0.1,0,0.2,0,0.2,0.1c0,0.1,0.1,0.2,0.1,0.4v0.2c0,0.2,0,0.3-0.1,0.4c0,0.1-0.1,0.1-0.2,0.1h-0.7v3.1c0,0.2,0,0.4,0.1,0.5
			c0.1,0.1,0.2,0.1,0.4,0.1c0.1,0,0.1,0,0.2,0c0.1,0,0.1,0,0.2,0c0.1,0,0.2,0.1,0.2,0.3c0.1,0.2,0.1,0.3,0.1,0.4
			c0,0.3-0.3,0.5-1,0.5C303,108.2,302.6,108.1,302.3,107.8z"/>
		<path class="st2" d="M306,107.4c-0.5-0.5-0.7-1.3-0.7-2.2c0-1,0.2-1.8,0.7-2.3c0.5-0.5,1.1-0.8,2-0.8c0.8,0,1.4,0.3,1.8,0.8
			c0.4,0.5,0.6,1.2,0.6,2.1c0,0.1-0.1,0.2-0.2,0.4s-0.2,0.2-0.3,0.2h-3.1c0,0.5,0.2,0.9,0.4,1.1s0.6,0.3,1,0.3
			c0.4,0,0.8-0.1,1.2-0.3c0.1-0.1,0.2-0.1,0.2-0.1c0.1,0,0.2,0.1,0.3,0.3c0.1,0.2,0.2,0.4,0.2,0.5c0,0.1-0.1,0.3-0.3,0.4
			c-0.2,0.1-0.5,0.2-0.8,0.3c-0.3,0.1-0.6,0.1-0.9,0.1C307.2,108.2,306.4,107.9,306,107.4z M308.9,104.7c0-0.4-0.1-0.8-0.3-1
			c-0.2-0.2-0.4-0.4-0.7-0.4c-0.7,0-1.1,0.5-1.2,1.4H308.9z"/>
		<path class="st2" d="M311.6,107.8v-3.7c0-0.5,0-0.9-0.1-1.1s-0.1-0.4-0.1-0.4c0-0.1,0.1-0.2,0.4-0.2c0.2-0.1,0.5-0.1,0.7-0.1
			c0.1,0,0.2,0.1,0.3,0.2s0.1,0.2,0.1,0.3c0,0.1,0,0.2,0.1,0.2c0.3-0.6,0.8-0.8,1.2-0.8c0.2,0,0.4,0.1,0.5,0.2s0.2,0.2,0.2,0.4
			c0,0.1,0,0.3-0.1,0.5c-0.1,0.2-0.1,0.3-0.2,0.3c0,0-0.1,0-0.2-0.1c-0.1,0-0.2-0.1-0.3-0.1c-0.2,0-0.4,0.1-0.6,0.2
			c-0.2,0.1-0.3,0.3-0.4,0.4v3.8c0,0.2-0.2,0.3-0.6,0.3h-0.2C311.8,108.1,311.6,108,311.6,107.8z"/>
	</g>
</g>
<g>
	<path class="st2" d="M328.6,104.5c0.2,0.2,0.2,0.5,0,0.7l-4.3,4.3c-0.2,0.2-0.5,0.2-0.7,0l-0.5-0.5c-0.2-0.2-0.2-0.5,0-0.7l3.4-3.4
		l-3.4-3.4c-0.2-0.2-0.2-0.5,0-0.7l0.5-0.5c0.2-0.2,0.5-0.2,0.7,0L328.6,104.5z"/>
</g>
<line class="st10" x1="27.2" y1="155.5" x2="111.2" y2="155.5"/>
<g>
</g>
<g>
</g>
<g>
</g>
<g>
</g>
<g>
</g>
<g>
</g>
</svg>
