<?xml version="1.0" encoding="utf-8"?>
<!-- Generator: Adobe Illustrator 23.1.1, SVG Export Plug-In . SVG Version: 6.00 Build 0)  -->
<svg version="1.1" id="Layer_1" xmlns="http://www.w3.org/2000/svg" xmlns:xlink="http://www.w3.org/1999/xlink" x="0px" y="0px"
	 viewBox="0 0 650 320" style="enable-background:new 0 0 650 320;" xml:space="preserve">
<style type="text/css">
	.st0{fill:none;stroke:#666666;stroke-width:0.9921;stroke-miterlimit:10;}
	.st1{fill:#666666;}
	.st2{fill:#39870C;}
	.st3{fill:#FFFFFF;}
	.st4{fill:#275937;}
	.st5{fill:#676CB0;}
	.st6{fill:#AFCF9D;}
	.st7{fill:none;stroke:#FFFFFF;stroke-width:0.8504;stroke-miterlimit:10;}
</style>
<line class="st0" x1="0.6" y1="320" x2="0.6" y2="0"/>
<g>
	<g>
		<path class="st1" d="M53,276.9c-0.1,0-0.1-0.1-0.1-0.2c0,0,0.1-0.5,0.2-1.4c0,0,0.1-0.5,0.3-1.5h-1.2c-0.1,0-0.2,0-0.2-0.1
			c-0.1-0.1-0.1-0.2-0.1-0.4V273c0-0.2,0-0.3,0.1-0.4c0.1-0.1,0.1-0.1,0.2-0.1h1.5l0.4-2.4h-1.3c-0.1,0-0.2,0-0.2-0.1
			c-0.1-0.1-0.1-0.2-0.1-0.4v-0.3c0-0.2,0-0.3,0.1-0.4c0.1-0.1,0.1-0.1,0.2-0.1h1.5l0.5-2.7c0-0.1,0.1-0.2,0.2-0.3
			c0.1-0.1,0.3-0.1,0.5-0.1h0.1c0.3,0,0.4,0.1,0.4,0.2l-0.5,2.8h1.9l0.5-2.7c0-0.1,0.1-0.2,0.2-0.3c0.1-0.1,0.3-0.1,0.5-0.1h0.1
			c0.3,0,0.4,0.1,0.4,0.2l-0.5,2.8h1.1c0.1,0,0.2,0,0.2,0.1s0.1,0.2,0.1,0.4v0.3c0,0.2,0,0.3-0.1,0.4c0,0.1-0.1,0.1-0.2,0.1h-1.3
			l-0.4,2.4h1.2c0.1,0,0.2,0,0.2,0.1s0.1,0.2,0.1,0.4v0.3c0,0.2,0,0.3-0.1,0.4c0,0.1-0.1,0.1-0.2,0.1h-1.5l-0.5,2.8
			c0,0.1-0.1,0.2-0.2,0.3c-0.1,0.1-0.3,0.1-0.5,0.1h-0.1c-0.2,0-0.3,0-0.3-0.1c-0.1,0-0.1-0.1-0.1-0.2c0,0,0.1-0.5,0.2-1.4
			c0,0,0.1-0.5,0.3-1.5h-1.9l-0.5,2.8c0,0.1-0.1,0.2-0.2,0.3c-0.1,0.1-0.3,0.1-0.5,0.1h-0.1C53.1,276.9,53,276.9,53,276.9z
			 M56.7,272.5l0.4-2.4h-1.9l-0.4,2.4H56.7z"/>
		<path class="st1" d="M62.5,276.9c-0.5-0.1-0.9-0.2-1.2-0.4c-0.3-0.1-0.4-0.3-0.4-0.4c0-0.1,0.1-0.3,0.2-0.5
			c0.1-0.2,0.3-0.3,0.4-0.3c0.1,0,0.2,0,0.4,0.1c0.7,0.3,1.4,0.4,2.1,0.4c0.6,0,1.1-0.2,1.6-0.5c0.5-0.3,0.7-0.9,0.7-1.7
			c0-0.8-0.2-1.3-0.6-1.6c-0.4-0.3-1-0.5-1.8-0.5h-0.5c-0.1,0-0.2,0-0.2-0.1c-0.1-0.1-0.1-0.2-0.1-0.4v-0.2c0-0.2,0-0.3,0.1-0.4
			c0.1-0.1,0.1-0.1,0.2-0.1h0.5c0.5,0,0.9-0.1,1.2-0.3c0.3-0.2,0.5-0.5,0.7-0.8c0.1-0.3,0.2-0.6,0.2-0.9c0-0.4-0.1-0.7-0.4-1.1
			s-0.8-0.5-1.5-0.5c-0.4,0-0.8,0-1.1,0.1c-0.3,0.1-0.6,0.2-0.8,0.3c-0.2,0.1-0.3,0.1-0.4,0.1c-0.1,0-0.2-0.1-0.3-0.3
			c-0.1-0.2-0.2-0.4-0.2-0.5c0-0.2,0.3-0.4,1-0.6s1.3-0.3,1.9-0.3c1,0,1.8,0.2,2.4,0.7c0.6,0.5,0.9,1.2,0.9,2.1c0,0.5-0.2,1-0.5,1.4
			c-0.3,0.4-0.7,0.7-1.2,0.8v0.1c0.5,0.1,1,0.5,1.4,1c0.4,0.5,0.6,1.2,0.6,2c0,0.8-0.2,1.4-0.5,1.9c-0.4,0.5-0.8,0.9-1.4,1.1
			s-1.1,0.3-1.7,0.3C63.5,277,63,277,62.5,276.9z"/>
		<path class="st1" d="M70.9,276.6c-0.1-0.2-0.2-0.4-0.2-0.5c0-0.1,0-0.1,0.1-0.2c1.1-0.4,1.9-1,2.6-1.8s1.1-1.6,1.4-2.5
			c-0.6,0.4-1.3,0.5-2.2,0.5c-0.6,0-1.1-0.1-1.5-0.4c-0.5-0.3-0.8-0.6-1.1-1.1c-0.3-0.5-0.4-1.1-0.4-1.7c0-0.7,0.2-1.2,0.5-1.8
			s0.7-0.9,1.2-1.2c0.5-0.3,1.1-0.4,1.8-0.4c1.1,0,2,0.3,2.5,1c0.6,0.7,0.9,1.7,0.9,3c0,1.4-0.3,2.7-1,3.8c-0.7,1.1-1.4,2-2.3,2.6
			c-0.8,0.6-1.5,0.9-1.9,0.9C71.1,276.9,71,276.8,70.9,276.6z M75.1,270.5c0-0.4,0.1-0.7,0.1-1c0-1-0.2-1.7-0.6-2.1
			c-0.4-0.4-0.9-0.6-1.5-0.6c-0.3,0-0.6,0.1-0.9,0.2c-0.3,0.2-0.6,0.4-0.8,0.7c-0.2,0.3-0.3,0.7-0.3,1.2c0,0.7,0.2,1.3,0.6,1.6
			c0.4,0.4,0.9,0.5,1.5,0.5C73.8,271,74.4,270.9,75.1,270.5z"/>
		<path class="st1" d="M79.1,276.2c-0.6-0.6-1-1.4-1-2.5c0-0.8,0.2-1.4,0.5-1.8c0.3-0.4,0.7-0.8,1.3-1c-0.4-0.2-0.7-0.6-1-1
			s-0.4-0.9-0.4-1.5c0-0.9,0.3-1.6,0.9-2c0.6-0.5,1.3-0.7,2.2-0.7c0.9,0,1.6,0.2,2.2,0.7c0.6,0.5,0.9,1.2,0.9,2c0,1.1-0.5,2-1.6,2.4
			c0.6,0.3,1.1,0.6,1.4,1s0.5,1,0.5,1.8c0,1.1-0.3,1.9-1,2.5c-0.6,0.6-1.5,0.8-2.5,0.8C80.6,277,79.7,276.7,79.1,276.2z M83.1,275.3
			c0.4-0.4,0.6-0.9,0.6-1.6c0-0.4-0.1-0.8-0.3-1.1c-0.2-0.3-0.4-0.5-0.7-0.6c-0.3-0.1-0.7-0.3-1.2-0.5l-0.5-0.2
			c-0.5,0.3-0.8,0.6-1.1,1s-0.4,0.8-0.4,1.4c0,0.7,0.2,1.2,0.6,1.6s0.9,0.6,1.5,0.6C82.2,275.9,82.7,275.7,83.1,275.3z M83.3,268.4
			c0-0.5-0.2-0.9-0.5-1.2c-0.3-0.3-0.7-0.4-1.2-0.4c-0.5,0-0.9,0.1-1.2,0.4s-0.5,0.7-0.5,1.2c0,0.4,0.1,0.7,0.3,1s0.4,0.4,0.7,0.6
			s0.6,0.3,1.1,0.4C82.9,269.8,83.3,269.2,83.3,268.4z"/>
		<path class="st1" d="M87.6,276.9c-0.1,0-0.2-0.1-0.2-0.2c0,0,0-0.1,0.1-0.2l4.6-9.6h-5c-0.1,0-0.2,0-0.2-0.1
			c-0.1-0.1-0.1-0.2-0.1-0.4v-0.2c0-0.2,0-0.3,0.1-0.4s0.1-0.1,0.2-0.1h6.3c0.1,0,0.1,0.1,0.2,0.3c0.1,0.2,0.1,0.4,0.1,0.5
			c0,0.1,0,0.1,0,0.2l-4.7,10c0,0.1-0.1,0.1-0.2,0.2s-0.2,0.1-0.4,0.1h-0.2C87.8,276.9,87.7,276.9,87.6,276.9z"/>
		<path class="st1" d="M96.8,276.4c-0.5-0.4-1-1-1.3-1.9c-0.3-0.9-0.5-1.9-0.5-3.2s0.2-2.3,0.5-3.2c0.3-0.9,0.8-1.5,1.3-1.9
			c0.5-0.4,1.2-0.6,1.8-0.6s1.3,0.2,1.8,0.6c0.6,0.4,1,1,1.3,1.9s0.5,1.9,0.5,3.2s-0.2,2.3-0.5,3.2s-0.8,1.5-1.3,1.9
			c-0.6,0.4-1.2,0.6-1.8,0.6S97.4,276.8,96.8,276.4z M99.8,275.4c0.3-0.3,0.6-0.8,0.8-1.5c0.2-0.7,0.3-1.5,0.3-2.6
			c0-1.1-0.1-1.9-0.3-2.6c-0.2-0.7-0.5-1.2-0.8-1.5c-0.3-0.3-0.7-0.5-1.1-0.5c-0.4,0-0.8,0.2-1.1,0.5c-0.3,0.3-0.6,0.8-0.8,1.5
			s-0.3,1.6-0.3,2.6c0,1.1,0.1,1.9,0.3,2.6s0.5,1.2,0.8,1.5c0.3,0.3,0.7,0.5,1.1,0.5C99.1,275.9,99.5,275.7,99.8,275.4z"/>
		<path class="st1" d="M104.8,276c-0.7-0.7-1-1.8-1-3.3c0-1.5,0.4-2.6,1.1-3.3c0.7-0.7,1.6-1,2.7-1c0.6,0,1.2,0.1,1.7,0.2
			c0.5,0.1,0.7,0.3,0.7,0.5c0,0.1-0.1,0.3-0.2,0.5c-0.1,0.2-0.2,0.3-0.3,0.3c0,0,0,0-0.1,0c0,0-0.1,0-0.1,0
			c-0.6-0.3-1.2-0.4-1.7-0.4c-1.5,0-2.3,1-2.3,3.1c0,1.1,0.2,1.9,0.6,2.4c0.4,0.5,1,0.8,1.9,0.8c0.7,0,1.3-0.1,1.8-0.4l0.2-0.1
			c0.1,0,0.2,0.1,0.4,0.3s0.2,0.4,0.2,0.5s-0.1,0.3-0.3,0.4c-0.2,0.1-0.5,0.2-0.9,0.3c-0.4,0.1-0.8,0.1-1.2,0.1
			C106.4,277,105.4,276.7,104.8,276z"/>
	</g>
	<path class="st2" d="M41.2,283.1H21.8c-0.9,0-1.6-0.7-1.6-1.6V262c0-0.9,0.7-1.6,1.6-1.6h19.5c0.9,0,1.6,0.7,1.6,1.6v19.5
		C42.8,282.4,42.1,283.1,41.2,283.1z"/>
</g>
<g>
	<path class="st2" d="M117.5,75.6H21.1c-1,0-1.8-0.8-1.8-1.8V44c0-1,0.8-1.8,1.8-1.8h96.5c1,0,1.8,0.8,1.8,1.8v29.8
		C119.3,74.8,118.5,75.6,117.5,75.6z"/>
	<g>
		<path class="st3" d="M31.2,62.9c-0.1-0.1-0.1-0.1-0.1-0.2v-7.2c0-0.1,0-0.2,0.1-0.3c0.1-0.1,0.2-0.1,0.3-0.1h2.3
			c0.7,0,1.3,0.2,1.8,0.5s0.8,1,0.8,1.9c0,0.6-0.2,1.1-0.5,1.5s-0.6,0.6-1,0.7c-0.4,0.1-0.7,0.2-1,0.2h-1.4v2.8
			c0,0.2-0.2,0.3-0.6,0.3h-0.3C31.4,62.9,31.3,62.9,31.2,62.9z M33.8,58.6c0.3,0,0.6-0.1,0.8-0.3c0.2-0.2,0.3-0.5,0.3-0.9
			c0-0.4-0.1-0.7-0.3-0.9c-0.2-0.2-0.5-0.2-0.8-0.2h-1.2v2.3H33.8z"/>
		<path class="st3" d="M37.4,62.6v-3.7c0-0.5,0-0.9-0.1-1.1s-0.1-0.4-0.1-0.4c0-0.1,0.1-0.2,0.4-0.2c0.2-0.1,0.5-0.1,0.7-0.1
			c0.1,0,0.2,0.1,0.3,0.2s0.1,0.2,0.1,0.3c0,0.1,0,0.2,0.1,0.2c0.3-0.6,0.8-0.8,1.2-0.8c0.2,0,0.4,0.1,0.5,0.2s0.2,0.2,0.2,0.4
			c0,0.1,0,0.3-0.1,0.5c-0.1,0.2-0.1,0.3-0.2,0.3c0,0-0.1,0-0.2-0.1c-0.1,0-0.2-0.1-0.3-0.1c-0.2,0-0.4,0.1-0.6,0.2
			c-0.2,0.1-0.3,0.3-0.4,0.4v3.8c0,0.2-0.2,0.3-0.6,0.3H38C37.6,62.9,37.4,62.8,37.4,62.6z"/>
		<path class="st3" d="M41.5,55.8v-0.7c0-0.2,0.2-0.4,0.7-0.4c0.5,0,0.7,0.1,0.7,0.4v0.7c0,0.1-0.1,0.2-0.2,0.3s-0.3,0.1-0.6,0.1
			C41.8,56.2,41.5,56.1,41.5,55.8z M41.5,62.6v-5.3c0-0.2,0.2-0.3,0.6-0.3h0.2c0.4,0,0.6,0.1,0.6,0.3v5.3c0,0.2-0.2,0.3-0.6,0.3
			h-0.2C41.7,62.9,41.5,62.8,41.5,62.6z"/>
		<path class="st3" d="M52.5,58.8v3.8c0,0.2-0.2,0.3-0.6,0.3h-0.2c-0.4,0-0.6-0.1-0.6-0.3V59c0-0.6-0.3-0.8-0.8-0.8
			c-0.2,0-0.5,0.1-0.6,0.2c-0.2,0.1-0.3,0.3-0.4,0.5v3.8c0,0.2-0.2,0.3-0.6,0.3h-0.2c-0.2,0-0.4,0-0.5-0.1s-0.1-0.1-0.1-0.2V59
			c0-0.6-0.3-0.8-0.8-0.8c-0.3,0-0.5,0.1-0.7,0.2c-0.2,0.2-0.3,0.3-0.4,0.5v3.8c0,0.2-0.2,0.3-0.6,0.3h-0.2c-0.4,0-0.6-0.1-0.6-0.3
			v-3.7c0-0.5,0-0.9-0.1-1.1s-0.1-0.4-0.1-0.4c0-0.1,0.1-0.2,0.4-0.2c0.2-0.1,0.5-0.1,0.7-0.1c0.1,0,0.2,0.1,0.3,0.2
			s0.1,0.2,0.1,0.3c0,0.1,0,0.2,0.1,0.2c0.2-0.2,0.4-0.4,0.7-0.6c0.3-0.2,0.6-0.2,1-0.2c0.8,0,1.3,0.3,1.5,0.9
			c0.2-0.2,0.5-0.5,0.8-0.6c0.3-0.2,0.6-0.3,1-0.3C51.9,57,52.5,57.6,52.5,58.8z"/>
		<path class="st3" d="M54.2,62.5c-0.3-0.3-0.5-0.7-0.5-1.2c0-1.4,1.1-2.1,3.4-2.1v-0.4c0-0.5-0.3-0.7-1-0.7c-0.3,0-0.5,0-0.7,0.1
			c-0.2,0.1-0.4,0.1-0.6,0.2c-0.2,0.1-0.2,0.1-0.3,0.1c-0.1,0-0.2-0.1-0.3-0.3c-0.1-0.2-0.2-0.4-0.2-0.5c0-0.1,0.1-0.2,0.3-0.4
			s0.5-0.2,0.8-0.3c0.3-0.1,0.7-0.1,1.1-0.1c0.8,0,1.4,0.2,1.8,0.5c0.4,0.3,0.6,0.8,0.6,1.3V61c0,0.5,0,0.9,0.1,1.1s0.1,0.4,0.1,0.4
			c0,0.1-0.1,0.2-0.4,0.2s-0.5,0.1-0.7,0.1c-0.1,0-0.2-0.1-0.3-0.2c-0.1-0.1-0.1-0.2-0.1-0.4c0-0.1,0-0.2,0-0.3
			c-0.2,0.2-0.4,0.4-0.7,0.6c-0.3,0.2-0.6,0.3-1.1,0.3C54.9,63,54.5,62.8,54.2,62.5z M56.6,61.6c0.2-0.1,0.4-0.3,0.6-0.5v-0.9
			c-0.6,0-1.1,0.1-1.4,0.2s-0.5,0.4-0.5,0.7c0,0.2,0.1,0.4,0.2,0.5s0.3,0.2,0.5,0.2C56.2,61.9,56.4,61.8,56.6,61.6z"/>
		<path class="st3" d="M60.2,55.8v-0.7c0-0.2,0.2-0.4,0.7-0.4c0.5,0,0.7,0.1,0.7,0.4v0.7c0,0.1-0.1,0.2-0.2,0.3s-0.3,0.1-0.6,0.1
			C60.4,56.2,60.2,56.1,60.2,55.8z M60.2,62.6v-5.3c0-0.2,0.2-0.3,0.6-0.3H61c0.4,0,0.6,0.1,0.6,0.3v5.3c0,0.2-0.2,0.3-0.6,0.3h-0.2
			C60.4,62.9,60.2,62.8,60.2,62.6z"/>
		<path class="st3" d="M63.2,62.6v-3.7c0-0.5,0-0.9-0.1-1.1s-0.1-0.4-0.1-0.4c0-0.1,0.1-0.2,0.4-0.2c0.2-0.1,0.5-0.1,0.7-0.1
			c0.1,0,0.2,0.1,0.3,0.2s0.1,0.2,0.1,0.3c0,0.1,0,0.2,0.1,0.2c0.3-0.6,0.8-0.8,1.2-0.8c0.2,0,0.4,0.1,0.5,0.2s0.2,0.2,0.2,0.4
			c0,0.1,0,0.3-0.1,0.5c-0.1,0.2-0.1,0.3-0.2,0.3c0,0-0.1,0-0.2-0.1c-0.1,0-0.2-0.1-0.3-0.1c-0.2,0-0.4,0.1-0.6,0.2
			c-0.2,0.1-0.3,0.3-0.4,0.4v3.8c0,0.2-0.2,0.3-0.6,0.3h-0.2C63.4,62.9,63.2,62.8,63.2,62.6z"/>
		<path class="st3" d="M67.7,62.2C67.3,61.7,67,61,67,60c0-1,0.2-1.8,0.7-2.3c0.5-0.5,1.1-0.8,2-0.8c0.8,0,1.4,0.3,1.8,0.8
			c0.4,0.5,0.6,1.2,0.6,2.1c0,0.1-0.1,0.2-0.2,0.4s-0.2,0.2-0.3,0.2h-3.1c0,0.5,0.2,0.9,0.4,1.1s0.6,0.3,1,0.3
			c0.4,0,0.8-0.1,1.2-0.3c0.1-0.1,0.2-0.1,0.2-0.1c0.1,0,0.2,0.1,0.3,0.3c0.1,0.2,0.2,0.4,0.2,0.5c0,0.1-0.1,0.3-0.3,0.4
			c-0.2,0.1-0.5,0.2-0.8,0.3C70.5,63,70.2,63,69.9,63C68.9,63,68.2,62.7,67.7,62.2z M70.7,59.4c0-0.4-0.1-0.8-0.3-1
			c-0.2-0.2-0.4-0.4-0.7-0.4c-0.7,0-1.1,0.5-1.2,1.4H70.7z"/>
		<path class="st3" d="M78.1,62.8c-0.3-0.1-0.5-0.4-0.7-0.6c0,0.2-0.1,0.4-0.1,0.6c0,0.1-0.1,0.2-0.2,0.2c-0.1,0-0.2,0.1-0.4,0.1
			h-0.1c-0.4,0-0.6-0.1-0.6-0.3v-7.9c0-0.2,0.2-0.3,0.6-0.3h0.2c0.4,0,0.6,0.1,0.6,0.3v2.6c0.4-0.3,0.8-0.4,1.3-0.4
			c0.7,0,1.3,0.3,1.7,0.8c0.4,0.5,0.6,1.3,0.6,2.2c0,0.6-0.1,1.2-0.3,1.6c-0.2,0.5-0.4,0.8-0.8,1C79.8,62.9,79.4,63,79,63
			C78.7,63,78.4,62.9,78.1,62.8z M79.4,61.3c0.2-0.3,0.3-0.8,0.3-1.4c0-1.2-0.4-1.8-1.2-1.8c-0.4,0-0.7,0.1-1,0.3v2.7
			c0.2,0.2,0.3,0.4,0.5,0.5c0.2,0.1,0.4,0.2,0.6,0.2C79,61.8,79.2,61.7,79.4,61.3z"/>
		<path class="st3" d="M82.4,61.2v-3.8c0-0.1,0-0.2,0.1-0.2C82.6,57,82.8,57,83,57h0.2c0.4,0,0.6,0.1,0.6,0.3V61
			c0,0.6,0.3,0.8,0.8,0.8c0.2,0,0.4-0.1,0.6-0.2c0.2-0.1,0.3-0.3,0.5-0.5v-3.8c0-0.2,0.2-0.3,0.6-0.3h0.2c0.4,0,0.6,0.1,0.6,0.3V61
			c0,0.5,0,0.9,0.1,1.1s0.1,0.4,0.1,0.4c0,0.1-0.1,0.2-0.4,0.2c-0.2,0.1-0.5,0.1-0.7,0.1c-0.1,0-0.2-0.1-0.3-0.2
			c-0.1-0.1-0.1-0.2-0.1-0.4c0-0.1,0-0.2-0.1-0.3c-0.2,0.2-0.5,0.5-0.8,0.6c-0.3,0.2-0.6,0.2-1,0.2C83,63,82.4,62.4,82.4,61.2z"/>
		<path class="st3" d="M89.3,62.6c-0.3-0.3-0.4-0.7-0.4-1.3v-3.1h-0.3c-0.1,0-0.2,0-0.2-0.1c0-0.1-0.1-0.2-0.1-0.4v-0.2
			c0-0.2,0-0.3,0.1-0.4c0-0.1,0.1-0.1,0.2-0.1h0.3l0.1-1.1c0-0.2,0.2-0.3,0.5-0.3h0.3c0.3,0,0.5,0.1,0.5,0.3V57H91
			c0.1,0,0.2,0,0.2,0.1c0,0.1,0.1,0.2,0.1,0.4v0.2c0,0.2,0,0.3-0.1,0.4c0,0.1-0.1,0.1-0.2,0.1h-0.7v3.1c0,0.2,0,0.4,0.1,0.5
			c0.1,0.1,0.2,0.1,0.4,0.1c0.1,0,0.1,0,0.2,0c0.1,0,0.1,0,0.2,0c0.1,0,0.2,0.1,0.2,0.3c0.1,0.2,0.1,0.3,0.1,0.4
			c0,0.3-0.3,0.5-1,0.5C90,63,89.6,62.9,89.3,62.6z"/>
		<path class="st3" d="M93.2,62.6c-0.3-0.3-0.4-0.7-0.4-1.3v-3.1h-0.3c-0.1,0-0.2,0-0.2-0.1c0-0.1-0.1-0.2-0.1-0.4v-0.2
			c0-0.2,0-0.3,0.1-0.4c0-0.1,0.1-0.1,0.2-0.1h0.3l0.1-1.1c0-0.2,0.2-0.3,0.5-0.3h0.3c0.3,0,0.5,0.1,0.5,0.3V57h0.7
			c0.1,0,0.2,0,0.2,0.1c0,0.1,0.1,0.2,0.1,0.4v0.2c0,0.2,0,0.3-0.1,0.4c0,0.1-0.1,0.1-0.2,0.1h-0.7v3.1c0,0.2,0,0.4,0.1,0.5
			c0.1,0.1,0.2,0.1,0.4,0.1c0.1,0,0.1,0,0.2,0c0.1,0,0.1,0,0.2,0c0.1,0,0.2,0.1,0.2,0.3c0.1,0.2,0.1,0.3,0.1,0.4
			c0,0.3-0.3,0.5-1,0.5C93.9,63,93.5,62.9,93.2,62.6z"/>
		<path class="st3" d="M96.8,62.2c-0.5-0.5-0.7-1.3-0.7-2.2c0-1,0.2-1.7,0.7-2.2c0.5-0.5,1.1-0.8,2-0.8c0.9,0,1.5,0.3,2,0.8
			c0.5,0.5,0.7,1.3,0.7,2.2s-0.2,1.7-0.7,2.2s-1.1,0.8-2,0.8C98,63,97.3,62.7,96.8,62.2z M99.8,61.4c0.2-0.3,0.3-0.8,0.3-1.4
			c0-0.6-0.1-1.1-0.3-1.4c-0.2-0.3-0.5-0.5-0.9-0.5s-0.7,0.2-0.9,0.5c-0.2,0.3-0.3,0.8-0.3,1.4c0,0.6,0.1,1.1,0.3,1.4
			c0.2,0.3,0.5,0.5,0.9,0.5S99.6,61.7,99.8,61.4z"/>
		<path class="st3" d="M102.8,62.6v-3.7c0-0.5,0-0.9-0.1-1.1s-0.1-0.4-0.1-0.4c0-0.1,0.1-0.2,0.4-0.2c0.2-0.1,0.5-0.1,0.7-0.1
			c0.1,0,0.2,0.1,0.3,0.2c0.1,0.1,0.1,0.2,0.1,0.3c0,0.1,0,0.2,0.1,0.2c0.2-0.2,0.4-0.5,0.7-0.6c0.3-0.2,0.6-0.2,1-0.2
			c1.1,0,1.7,0.6,1.7,1.8v3.8c0,0.1,0,0.2-0.1,0.2s-0.2,0.1-0.5,0.1h-0.2c-0.4,0-0.6-0.1-0.6-0.3V59c0-0.6-0.3-0.8-0.8-0.8
			c-0.2,0-0.4,0.1-0.6,0.2c-0.2,0.1-0.3,0.3-0.5,0.5v3.8c0,0.2-0.2,0.3-0.6,0.3h-0.2C103,62.9,102.8,62.8,102.8,62.6z"/>
	</g>
</g>
<g>
	<path class="st2" d="M319.4,75.6H154c-1.3,0-2.3-1-2.3-2.3V44.6c0-1.3,1-2.3,2.3-2.3h165.3c1.3,0,2.3,1,2.3,2.3v28.7
		C321.7,74.6,320.6,75.6,319.4,75.6z"/>
	<g>
		<path class="st3" d="M177.8,62.9c-0.1-0.1-0.1-0.1-0.1-0.2v-7.2c0-0.1,0-0.2,0.1-0.3c0.1-0.1,0.2-0.1,0.3-0.1h2.3
			c0.7,0,1.3,0.2,1.8,0.5s0.8,1,0.8,1.9c0,0.6-0.2,1.1-0.5,1.5s-0.6,0.6-1,0.7c-0.4,0.1-0.7,0.2-1,0.2h-1.4v2.8
			c0,0.2-0.2,0.3-0.6,0.3h-0.3C178,62.9,177.9,62.9,177.8,62.9z M180.4,58.6c0.3,0,0.6-0.1,0.8-0.3c0.2-0.2,0.3-0.5,0.3-0.9
			c0-0.4-0.1-0.7-0.3-0.9c-0.2-0.2-0.5-0.2-0.8-0.2h-1.2v2.3H180.4z"/>
		<path class="st3" d="M184,62.6v-3.7c0-0.5,0-0.9-0.1-1.1s-0.1-0.4-0.1-0.4c0-0.1,0.1-0.2,0.4-0.2c0.2-0.1,0.5-0.1,0.7-0.1
			c0.1,0,0.2,0.1,0.3,0.2s0.1,0.2,0.1,0.3c0,0.1,0,0.2,0.1,0.2c0.3-0.6,0.8-0.8,1.2-0.8c0.2,0,0.4,0.1,0.5,0.2s0.2,0.2,0.2,0.4
			c0,0.1,0,0.3-0.1,0.5c-0.1,0.2-0.1,0.3-0.2,0.3c0,0-0.1,0-0.2-0.1c-0.1,0-0.2-0.1-0.3-0.1c-0.2,0-0.4,0.1-0.6,0.2
			c-0.2,0.1-0.3,0.3-0.4,0.4v3.8c0,0.2-0.2,0.3-0.6,0.3h-0.2C184.2,62.9,184,62.8,184,62.6z"/>
		<path class="st3" d="M188.1,55.8v-0.7c0-0.2,0.2-0.4,0.7-0.4c0.5,0,0.7,0.1,0.7,0.4v0.7c0,0.1-0.1,0.2-0.2,0.3s-0.3,0.1-0.6,0.1
			C188.3,56.2,188.1,56.1,188.1,55.8z M188.1,62.6v-5.3c0-0.2,0.2-0.3,0.6-0.3h0.2c0.4,0,0.6,0.1,0.6,0.3v5.3c0,0.2-0.2,0.3-0.6,0.3
			h-0.2C188.3,62.9,188.1,62.8,188.1,62.6z"/>
		<path class="st3" d="M199.1,58.8v3.8c0,0.2-0.2,0.3-0.6,0.3h-0.2c-0.4,0-0.6-0.1-0.6-0.3V59c0-0.6-0.3-0.8-0.8-0.8
			c-0.2,0-0.5,0.1-0.6,0.2c-0.2,0.1-0.3,0.3-0.4,0.5v3.8c0,0.2-0.2,0.3-0.6,0.3H195c-0.2,0-0.4,0-0.5-0.1s-0.1-0.1-0.1-0.2V59
			c0-0.6-0.3-0.8-0.8-0.8c-0.3,0-0.5,0.1-0.7,0.2c-0.2,0.2-0.3,0.3-0.4,0.5v3.8c0,0.2-0.2,0.3-0.6,0.3h-0.2c-0.4,0-0.6-0.1-0.6-0.3
			v-3.7c0-0.5,0-0.9-0.1-1.1s-0.1-0.4-0.1-0.4c0-0.1,0.1-0.2,0.4-0.2c0.2-0.1,0.5-0.1,0.7-0.1c0.1,0,0.2,0.1,0.3,0.2
			s0.1,0.2,0.1,0.3c0,0.1,0,0.2,0.1,0.2c0.2-0.2,0.4-0.4,0.7-0.6c0.3-0.2,0.6-0.2,1-0.2c0.8,0,1.3,0.3,1.5,0.9
			c0.2-0.2,0.5-0.5,0.8-0.6c0.3-0.2,0.6-0.3,1-0.3C198.5,57,199.1,57.6,199.1,58.8z"/>
		<path class="st3" d="M200.8,62.5c-0.3-0.3-0.5-0.7-0.5-1.2c0-1.4,1.1-2.1,3.4-2.1v-0.4c0-0.5-0.3-0.7-1-0.7c-0.3,0-0.5,0-0.7,0.1
			c-0.2,0.1-0.4,0.1-0.6,0.2c-0.2,0.1-0.2,0.1-0.3,0.1c-0.1,0-0.2-0.1-0.3-0.3c-0.1-0.2-0.2-0.4-0.2-0.5c0-0.1,0.1-0.2,0.3-0.4
			s0.5-0.2,0.8-0.3c0.3-0.1,0.7-0.1,1.1-0.1c0.8,0,1.4,0.2,1.8,0.5c0.4,0.3,0.6,0.8,0.6,1.3V61c0,0.5,0,0.9,0.1,1.1s0.1,0.4,0.1,0.4
			c0,0.1-0.1,0.2-0.4,0.2s-0.5,0.1-0.7,0.1c-0.1,0-0.2-0.1-0.3-0.2c-0.1-0.1-0.1-0.2-0.1-0.4c0-0.1,0-0.2,0-0.3
			c-0.2,0.2-0.4,0.4-0.7,0.6c-0.3,0.2-0.6,0.3-1.1,0.3C201.5,63,201.1,62.8,200.8,62.5z M203.2,61.6c0.2-0.1,0.4-0.3,0.6-0.5v-0.9
			c-0.6,0-1.1,0.1-1.4,0.2s-0.5,0.4-0.5,0.7c0,0.2,0.1,0.4,0.2,0.5s0.3,0.2,0.5,0.2C202.8,61.9,203,61.8,203.2,61.6z"/>
		<path class="st3" d="M206.8,55.8v-0.7c0-0.2,0.2-0.4,0.7-0.4c0.5,0,0.7,0.1,0.7,0.4v0.7c0,0.1-0.1,0.2-0.2,0.3s-0.3,0.1-0.6,0.1
			C207,56.2,206.8,56.1,206.8,55.8z M206.8,62.6v-5.3c0-0.2,0.2-0.3,0.6-0.3h0.2c0.4,0,0.6,0.1,0.6,0.3v5.3c0,0.2-0.2,0.3-0.6,0.3
			h-0.2C207,62.9,206.8,62.8,206.8,62.6z"/>
		<path class="st3" d="M209.8,62.6v-3.7c0-0.5,0-0.9-0.1-1.1s-0.1-0.4-0.1-0.4c0-0.1,0.1-0.2,0.4-0.2c0.2-0.1,0.5-0.1,0.7-0.1
			c0.1,0,0.2,0.1,0.3,0.2s0.1,0.2,0.1,0.3c0,0.1,0,0.2,0.1,0.2c0.3-0.6,0.8-0.8,1.2-0.8c0.2,0,0.4,0.1,0.5,0.2s0.2,0.2,0.2,0.4
			c0,0.1,0,0.3-0.1,0.5c-0.1,0.2-0.1,0.3-0.2,0.3c0,0-0.1,0-0.2-0.1c-0.1,0-0.2-0.1-0.3-0.1c-0.2,0-0.4,0.1-0.6,0.2
			c-0.2,0.1-0.3,0.3-0.4,0.4v3.8c0,0.2-0.2,0.3-0.6,0.3h-0.2C210,62.9,209.8,62.8,209.8,62.6z"/>
		<path class="st3" d="M214.3,62.2c-0.5-0.5-0.7-1.3-0.7-2.2c0-1,0.2-1.8,0.7-2.3c0.5-0.5,1.1-0.8,2-0.8c0.8,0,1.4,0.3,1.8,0.8
			c0.4,0.5,0.6,1.2,0.6,2.1c0,0.1-0.1,0.2-0.2,0.4s-0.2,0.2-0.3,0.2h-3.1c0,0.5,0.2,0.9,0.4,1.1s0.6,0.3,1,0.3
			c0.4,0,0.8-0.1,1.2-0.3c0.1-0.1,0.2-0.1,0.2-0.1c0.1,0,0.2,0.1,0.3,0.3c0.1,0.2,0.2,0.4,0.2,0.5c0,0.1-0.1,0.3-0.3,0.4
			c-0.2,0.1-0.5,0.2-0.8,0.3c-0.3,0.1-0.6,0.1-0.9,0.1C215.5,63,214.8,62.7,214.3,62.2z M217.3,59.4c0-0.4-0.1-0.8-0.3-1
			c-0.2-0.2-0.4-0.4-0.7-0.4c-0.7,0-1.1,0.5-1.2,1.4H217.3z"/>
		<path class="st3" d="M224.7,62.8c-0.3-0.1-0.5-0.4-0.7-0.6c0,0.2-0.1,0.4-0.1,0.6c0,0.1-0.1,0.2-0.2,0.2c-0.1,0-0.2,0.1-0.4,0.1
			h-0.1c-0.4,0-0.6-0.1-0.6-0.3v-7.9c0-0.2,0.2-0.3,0.6-0.3h0.2c0.4,0,0.6,0.1,0.6,0.3v2.6c0.4-0.3,0.8-0.4,1.3-0.4
			c0.7,0,1.3,0.3,1.7,0.8c0.4,0.5,0.6,1.3,0.6,2.2c0,0.6-0.1,1.2-0.3,1.6c-0.2,0.5-0.4,0.8-0.8,1c-0.3,0.2-0.7,0.4-1.1,0.4
			C225.3,63,225,62.9,224.7,62.8z M226,61.3c0.2-0.3,0.3-0.8,0.3-1.4c0-1.2-0.4-1.8-1.2-1.8c-0.4,0-0.7,0.1-1,0.3v2.7
			c0.2,0.2,0.3,0.4,0.5,0.5c0.2,0.1,0.4,0.2,0.6,0.2C225.6,61.8,225.8,61.7,226,61.3z"/>
		<path class="st3" d="M229,61.2v-3.8c0-0.1,0-0.2,0.1-0.2c0.1-0.1,0.2-0.1,0.5-0.1h0.2c0.4,0,0.6,0.1,0.6,0.3V61
			c0,0.6,0.3,0.8,0.8,0.8c0.2,0,0.4-0.1,0.6-0.2c0.2-0.1,0.3-0.3,0.5-0.5v-3.8c0-0.2,0.2-0.3,0.6-0.3h0.2c0.4,0,0.6,0.1,0.6,0.3V61
			c0,0.5,0,0.9,0.1,1.1s0.1,0.4,0.1,0.4c0,0.1-0.1,0.2-0.4,0.2c-0.2,0.1-0.5,0.1-0.7,0.1c-0.1,0-0.2-0.1-0.3-0.2
			c-0.1-0.1-0.1-0.2-0.1-0.4c0-0.1,0-0.2-0.1-0.3c-0.2,0.2-0.5,0.5-0.8,0.6c-0.3,0.2-0.6,0.2-1,0.2C229.6,63,229,62.4,229,61.2z"/>
		<path class="st3" d="M235.9,62.6c-0.3-0.3-0.4-0.7-0.4-1.3v-3.1h-0.3c-0.1,0-0.2,0-0.2-0.1c0-0.1-0.1-0.2-0.1-0.4v-0.2
			c0-0.2,0-0.3,0.1-0.4c0-0.1,0.1-0.1,0.2-0.1h0.3l0.1-1.1c0-0.2,0.2-0.3,0.5-0.3h0.3c0.3,0,0.5,0.1,0.5,0.3V57h0.7
			c0.1,0,0.2,0,0.2,0.1c0,0.1,0.1,0.2,0.1,0.4v0.2c0,0.2,0,0.3-0.1,0.4c0,0.1-0.1,0.1-0.2,0.1h-0.7v3.1c0,0.2,0,0.4,0.1,0.5
			c0.1,0.1,0.2,0.1,0.4,0.1c0.1,0,0.1,0,0.2,0c0.1,0,0.1,0,0.2,0c0.1,0,0.2,0.1,0.2,0.3c0.1,0.2,0.1,0.3,0.1,0.4
			c0,0.3-0.3,0.5-1,0.5C236.6,63,236.2,62.9,235.9,62.6z"/>
		<path class="st3" d="M239.8,62.6c-0.3-0.3-0.4-0.7-0.4-1.3v-3.1H239c-0.1,0-0.2,0-0.2-0.1c0-0.1-0.1-0.2-0.1-0.4v-0.2
			c0-0.2,0-0.3,0.1-0.4c0-0.1,0.1-0.1,0.2-0.1h0.3l0.1-1.1c0-0.2,0.2-0.3,0.5-0.3h0.3c0.3,0,0.5,0.1,0.5,0.3V57h0.7
			c0.1,0,0.2,0,0.2,0.1c0,0.1,0.1,0.2,0.1,0.4v0.2c0,0.2,0,0.3-0.1,0.4c0,0.1-0.1,0.1-0.2,0.1h-0.7v3.1c0,0.2,0,0.4,0.1,0.5
			c0.1,0.1,0.2,0.1,0.4,0.1c0.1,0,0.1,0,0.2,0c0.1,0,0.1,0,0.2,0c0.1,0,0.2,0.1,0.2,0.3c0.1,0.2,0.1,0.3,0.1,0.4
			c0,0.3-0.3,0.5-1,0.5C240.4,63,240.1,62.9,239.8,62.6z"/>
		<path class="st3" d="M243.4,62.2c-0.5-0.5-0.7-1.3-0.7-2.2c0-1,0.2-1.7,0.7-2.2c0.5-0.5,1.1-0.8,2-0.8c0.9,0,1.5,0.3,2,0.8
			c0.5,0.5,0.7,1.3,0.7,2.2s-0.2,1.7-0.7,2.2s-1.1,0.8-2,0.8C244.6,63,243.9,62.7,243.4,62.2z M246.3,61.4c0.2-0.3,0.3-0.8,0.3-1.4
			c0-0.6-0.1-1.1-0.3-1.4c-0.2-0.3-0.5-0.5-0.9-0.5s-0.7,0.2-0.9,0.5c-0.2,0.3-0.3,0.8-0.3,1.4c0,0.6,0.1,1.1,0.3,1.4
			c0.2,0.3,0.5,0.5,0.9,0.5S246.1,61.7,246.3,61.4z"/>
		<path class="st3" d="M249.4,62.6v-3.7c0-0.5,0-0.9-0.1-1.1s-0.1-0.4-0.1-0.4c0-0.1,0.1-0.2,0.4-0.2c0.2-0.1,0.5-0.1,0.7-0.1
			c0.1,0,0.2,0.1,0.3,0.2c0.1,0.1,0.1,0.2,0.1,0.3c0,0.1,0,0.2,0.1,0.2c0.2-0.2,0.4-0.5,0.7-0.6c0.3-0.2,0.6-0.2,1-0.2
			c1.1,0,1.7,0.6,1.7,1.8v3.8c0,0.1,0,0.2-0.1,0.2s-0.2,0.1-0.5,0.1h-0.2c-0.4,0-0.6-0.1-0.6-0.3V59c0-0.6-0.3-0.8-0.8-0.8
			c-0.2,0-0.4,0.1-0.6,0.2c-0.2,0.1-0.3,0.3-0.5,0.5v3.8c0,0.2-0.2,0.3-0.6,0.3H250C249.6,62.9,249.4,62.8,249.4,62.6z"/>
		<path class="st3" d="M258.4,55.8v-0.7c0-0.2,0.2-0.4,0.7-0.4c0.5,0,0.7,0.1,0.7,0.4v0.7c0,0.1-0.1,0.2-0.2,0.3s-0.3,0.1-0.6,0.1
			C258.6,56.2,258.4,56.1,258.4,55.8z M258.4,62.6v-5.3c0-0.2,0.2-0.3,0.6-0.3h0.2c0.4,0,0.6,0.1,0.6,0.3v5.3c0,0.2-0.2,0.3-0.6,0.3
			H259C258.6,62.9,258.4,62.8,258.4,62.6z"/>
		<path class="st3" d="M261.8,62.3c-0.5-0.5-0.7-1.2-0.7-2.3c0-1,0.2-1.8,0.7-2.3c0.5-0.5,1.2-0.7,2.1-0.7c0.5,0,0.9,0.1,1.2,0.2
			c0.4,0.1,0.6,0.3,0.6,0.5c0,0.1-0.1,0.3-0.2,0.5c-0.1,0.2-0.2,0.3-0.3,0.3c0,0-0.1,0-0.2-0.1c-0.3-0.2-0.7-0.3-1.1-0.3
			c-0.5,0-0.8,0.1-1.1,0.4c-0.2,0.3-0.3,0.8-0.3,1.4c0,0.7,0.1,1.1,0.3,1.4c0.2,0.3,0.6,0.5,1.1,0.5c0.2,0,0.4,0,0.6-0.1
			c0.2,0,0.4-0.1,0.5-0.2c0.1,0,0.1-0.1,0.2-0.1c0.1,0,0.2,0.1,0.3,0.3c0.1,0.2,0.2,0.3,0.2,0.5c0,0.1-0.1,0.3-0.3,0.4
			c-0.2,0.1-0.5,0.2-0.8,0.2s-0.6,0.1-0.8,0.1C262.9,63,262.2,62.7,261.8,62.3z"/>
		<path class="st3" d="M267.2,62.2c-0.5-0.5-0.7-1.3-0.7-2.2c0-1,0.2-1.7,0.7-2.2c0.5-0.5,1.1-0.8,2-0.8c0.9,0,1.5,0.3,2,0.8
			c0.5,0.5,0.7,1.3,0.7,2.2s-0.2,1.7-0.7,2.2s-1.1,0.8-2,0.8C268.4,63,267.7,62.7,267.2,62.2z M270.2,61.4c0.2-0.3,0.3-0.8,0.3-1.4
			c0-0.6-0.1-1.1-0.3-1.4c-0.2-0.3-0.5-0.5-0.9-0.5s-0.7,0.2-0.9,0.5c-0.2,0.3-0.3,0.8-0.3,1.4c0,0.6,0.1,1.1,0.3,1.4
			c0.2,0.3,0.5,0.5,0.9,0.5S270,61.7,270.2,61.4z"/>
		<path class="st3" d="M273.6,62.2c-0.5-0.5-0.7-1.3-0.7-2.2c0-1,0.2-1.7,0.7-2.2c0.5-0.5,1.1-0.8,2-0.8c0.9,0,1.5,0.3,2,0.8
			c0.5,0.5,0.7,1.3,0.7,2.2s-0.2,1.7-0.7,2.2s-1.1,0.8-2,0.8C274.8,63,274.1,62.7,273.6,62.2z M276.6,61.4c0.2-0.3,0.3-0.8,0.3-1.4
			c0-0.6-0.1-1.1-0.3-1.4c-0.2-0.3-0.5-0.5-0.9-0.5s-0.7,0.2-0.9,0.5c-0.2,0.3-0.3,0.8-0.3,1.4c0,0.6,0.1,1.1,0.3,1.4
			c0.2,0.3,0.5,0.5,0.9,0.5S276.4,61.7,276.6,61.4z"/>
		<path class="st3" d="M279.6,62.6v-3.7c0-0.5,0-0.9-0.1-1.1s-0.1-0.4-0.1-0.4c0-0.1,0.1-0.2,0.4-0.2c0.2-0.1,0.5-0.1,0.7-0.1
			c0.1,0,0.2,0.1,0.3,0.2c0.1,0.1,0.1,0.2,0.1,0.3c0,0.1,0,0.2,0.1,0.2c0.2-0.2,0.4-0.5,0.7-0.6c0.3-0.2,0.6-0.2,1-0.2
			c1.1,0,1.7,0.6,1.7,1.8v3.8c0,0.1,0,0.2-0.1,0.2s-0.2,0.1-0.5,0.1h-0.2c-0.4,0-0.6-0.1-0.6-0.3V59c0-0.6-0.3-0.8-0.8-0.8
			c-0.2,0-0.4,0.1-0.6,0.2c-0.2,0.1-0.3,0.3-0.5,0.5v3.8c0,0.2-0.2,0.3-0.6,0.3h-0.2C279.8,62.9,279.6,62.8,279.6,62.6z"/>
		<path class="st3" d="M289.8,62.7l-1.8-5.3c0-0.1,0-0.2,0-0.2c0-0.1,0.2-0.2,0.6-0.2h0.3c0.3,0,0.5,0.1,0.6,0.2l0.8,2.6
			c0,0.1,0.1,0.5,0.3,1l0.1,0.4h0c0.1-0.5,0.2-1,0.3-1.4l0.8-2.6c0-0.1,0.2-0.2,0.6-0.2h0.2c0.4,0,0.6,0.1,0.6,0.2c0,0,0,0.1,0,0.2
			l-1.8,5.3c-0.1,0.1-0.2,0.2-0.6,0.2h-0.4C290,62.9,289.8,62.9,289.8,62.7z"/>
		<path class="st3" d="M294.5,62.2c-0.5-0.5-0.7-1.3-0.7-2.2c0-1,0.2-1.7,0.7-2.2c0.5-0.5,1.1-0.8,2-0.8c0.9,0,1.5,0.3,2,0.8
			c0.5,0.5,0.7,1.3,0.7,2.2s-0.2,1.7-0.7,2.2s-1.1,0.8-2,0.8C295.6,63,294.9,62.7,294.5,62.2z M297.4,61.4c0.2-0.3,0.3-0.8,0.3-1.4
			c0-0.6-0.1-1.1-0.3-1.4c-0.2-0.3-0.5-0.5-0.9-0.5s-0.7,0.2-0.9,0.5c-0.2,0.3-0.3,0.8-0.3,1.4c0,0.6,0.1,1.1,0.3,1.4
			c0.2,0.3,0.5,0.5,0.9,0.5S297.2,61.7,297.4,61.4z"/>
		<path class="st3" d="M300.9,62.2c-0.5-0.5-0.7-1.3-0.7-2.2c0-1,0.2-1.7,0.7-2.2c0.5-0.5,1.1-0.8,2-0.8c0.9,0,1.5,0.3,2,0.8
			c0.5,0.5,0.7,1.3,0.7,2.2s-0.2,1.7-0.7,2.2s-1.1,0.8-2,0.8C302,63,301.3,62.7,300.9,62.2z M303.8,61.4c0.2-0.3,0.3-0.8,0.3-1.4
			c0-0.6-0.1-1.1-0.3-1.4c-0.2-0.3-0.5-0.5-0.9-0.5s-0.7,0.2-0.9,0.5c-0.2,0.3-0.3,0.8-0.3,1.4c0,0.6,0.1,1.1,0.3,1.4
			c0.2,0.3,0.5,0.5,0.9,0.5S303.6,61.7,303.8,61.4z"/>
		<path class="st3" d="M306.9,62.6v-3.7c0-0.5,0-0.9-0.1-1.1s-0.1-0.4-0.1-0.4c0-0.1,0.1-0.2,0.4-0.2c0.2-0.1,0.5-0.1,0.7-0.1
			c0.1,0,0.2,0.1,0.3,0.2s0.1,0.2,0.1,0.3c0,0.1,0,0.2,0.1,0.2c0.3-0.6,0.8-0.8,1.2-0.8c0.2,0,0.4,0.1,0.5,0.2s0.2,0.2,0.2,0.4
			c0,0.1,0,0.3-0.1,0.5c-0.1,0.2-0.1,0.3-0.2,0.3c0,0-0.1,0-0.2-0.1c-0.1,0-0.2-0.1-0.3-0.1c-0.2,0-0.4,0.1-0.6,0.2
			c-0.2,0.1-0.3,0.3-0.4,0.4v3.8c0,0.2-0.2,0.3-0.6,0.3h-0.2C307.1,62.9,306.9,62.8,306.9,62.6z"/>
	</g>
</g>
<g>
	<path class="st4" d="M117.5,121.1H21.1c-1,0-1.8-0.8-1.8-1.8V89.6c0-1,0.8-1.8,1.8-1.8h96.5c1,0,1.8,0.8,1.8,1.8v29.8
		C119.3,120.3,118.5,121.1,117.5,121.1z"/>
	<g>
		<path class="st3" d="M31.2,108.4c-0.1-0.1-0.1-0.1-0.1-0.2V101c0-0.1,0-0.2,0.1-0.3c0.1-0.1,0.2-0.1,0.3-0.1h2.3
			c0.7,0,1.3,0.2,1.8,0.5s0.8,1,0.8,1.9c0,0.6-0.2,1.1-0.5,1.5s-0.6,0.6-1,0.7c-0.4,0.1-0.7,0.2-1,0.2h-1.4v2.8
			c0,0.2-0.2,0.3-0.6,0.3h-0.3C31.4,108.4,31.3,108.4,31.2,108.4z M33.8,104.1c0.3,0,0.6-0.1,0.8-0.3c0.2-0.2,0.3-0.5,0.3-0.9
			c0-0.4-0.1-0.7-0.3-0.9c-0.2-0.2-0.5-0.2-0.8-0.2h-1.2v2.3H33.8z"/>
		<path class="st3" d="M37.4,108.1v-3.7c0-0.5,0-0.9-0.1-1.1s-0.1-0.4-0.1-0.4c0-0.1,0.1-0.2,0.4-0.2c0.2-0.1,0.5-0.1,0.7-0.1
			c0.1,0,0.2,0.1,0.3,0.2s0.1,0.2,0.1,0.3c0,0.1,0,0.2,0.1,0.2c0.3-0.6,0.8-0.8,1.2-0.8c0.2,0,0.4,0.1,0.5,0.2s0.2,0.2,0.2,0.4
			c0,0.1,0,0.3-0.1,0.5c-0.1,0.2-0.1,0.3-0.2,0.3c0,0-0.1,0-0.2-0.1c-0.1,0-0.2-0.1-0.3-0.1c-0.2,0-0.4,0.1-0.6,0.2
			c-0.2,0.1-0.3,0.3-0.4,0.4v3.8c0,0.2-0.2,0.3-0.6,0.3H38C37.6,108.4,37.4,108.3,37.4,108.1z"/>
		<path class="st3" d="M41.5,101.3v-0.7c0-0.2,0.2-0.4,0.7-0.4c0.5,0,0.7,0.1,0.7,0.4v0.7c0,0.1-0.1,0.2-0.2,0.3s-0.3,0.1-0.6,0.1
			C41.8,101.7,41.5,101.6,41.5,101.3z M41.5,108.1v-5.3c0-0.2,0.2-0.3,0.6-0.3h0.2c0.4,0,0.6,0.1,0.6,0.3v5.3c0,0.2-0.2,0.3-0.6,0.3
			h-0.2C41.7,108.4,41.5,108.3,41.5,108.1z"/>
		<path class="st3" d="M52.5,104.3v3.8c0,0.2-0.2,0.3-0.6,0.3h-0.2c-0.4,0-0.6-0.1-0.6-0.3v-3.6c0-0.6-0.3-0.8-0.8-0.8
			c-0.2,0-0.5,0.1-0.6,0.2c-0.2,0.1-0.3,0.3-0.4,0.5v3.8c0,0.2-0.2,0.3-0.6,0.3h-0.2c-0.2,0-0.4,0-0.5-0.1s-0.1-0.1-0.1-0.2v-3.6
			c0-0.6-0.3-0.8-0.8-0.8c-0.3,0-0.5,0.1-0.7,0.2c-0.2,0.2-0.3,0.3-0.4,0.5v3.8c0,0.2-0.2,0.3-0.6,0.3h-0.2c-0.4,0-0.6-0.1-0.6-0.3
			v-3.7c0-0.5,0-0.9-0.1-1.1s-0.1-0.4-0.1-0.4c0-0.1,0.1-0.2,0.4-0.2c0.2-0.1,0.5-0.1,0.7-0.1c0.1,0,0.2,0.1,0.3,0.2
			s0.1,0.2,0.1,0.3c0,0.1,0,0.2,0.1,0.2c0.2-0.2,0.4-0.4,0.7-0.6c0.3-0.2,0.6-0.2,1-0.2c0.8,0,1.3,0.3,1.5,0.9
			c0.2-0.2,0.5-0.5,0.8-0.6c0.3-0.2,0.6-0.3,1-0.3C51.9,102.5,52.5,103.1,52.5,104.3z"/>
		<path class="st3" d="M54.2,108.1c-0.3-0.3-0.5-0.7-0.5-1.2c0-1.4,1.1-2.1,3.4-2.1v-0.4c0-0.5-0.3-0.7-1-0.7c-0.3,0-0.5,0-0.7,0.1
			c-0.2,0.1-0.4,0.1-0.6,0.2c-0.2,0.1-0.2,0.1-0.3,0.1c-0.1,0-0.2-0.1-0.3-0.3c-0.1-0.2-0.2-0.4-0.2-0.5c0-0.1,0.1-0.2,0.3-0.4
			s0.5-0.2,0.8-0.3c0.3-0.1,0.7-0.1,1.1-0.1c0.8,0,1.4,0.2,1.8,0.5c0.4,0.3,0.6,0.8,0.6,1.3v2.3c0,0.5,0,0.9,0.1,1.1
			s0.1,0.4,0.1,0.4c0,0.1-0.1,0.2-0.4,0.2s-0.5,0.1-0.7,0.1c-0.1,0-0.2-0.1-0.3-0.2c-0.1-0.1-0.1-0.2-0.1-0.4c0-0.1,0-0.2,0-0.3
			c-0.2,0.2-0.4,0.4-0.7,0.6c-0.3,0.2-0.6,0.3-1.1,0.3C54.9,108.5,54.5,108.3,54.2,108.1z M56.6,107.2c0.2-0.1,0.4-0.3,0.6-0.5v-0.9
			c-0.6,0-1.1,0.1-1.4,0.2s-0.5,0.4-0.5,0.7c0,0.2,0.1,0.4,0.2,0.5s0.3,0.2,0.5,0.2C56.2,107.4,56.4,107.3,56.6,107.2z"/>
		<path class="st3" d="M60.2,101.3v-0.7c0-0.2,0.2-0.4,0.7-0.4c0.5,0,0.7,0.1,0.7,0.4v0.7c0,0.1-0.1,0.2-0.2,0.3s-0.3,0.1-0.6,0.1
			C60.4,101.7,60.2,101.6,60.2,101.3z M60.2,108.1v-5.3c0-0.2,0.2-0.3,0.6-0.3H61c0.4,0,0.6,0.1,0.6,0.3v5.3c0,0.2-0.2,0.3-0.6,0.3
			h-0.2C60.4,108.4,60.2,108.3,60.2,108.1z"/>
		<path class="st3" d="M63.2,108.1v-3.7c0-0.5,0-0.9-0.1-1.1s-0.1-0.4-0.1-0.4c0-0.1,0.1-0.2,0.4-0.2c0.2-0.1,0.5-0.1,0.7-0.1
			c0.1,0,0.2,0.1,0.3,0.2s0.1,0.2,0.1,0.3c0,0.1,0,0.2,0.1,0.2c0.3-0.6,0.8-0.8,1.2-0.8c0.2,0,0.4,0.1,0.5,0.2s0.2,0.2,0.2,0.4
			c0,0.1,0,0.3-0.1,0.5c-0.1,0.2-0.1,0.3-0.2,0.3c0,0-0.1,0-0.2-0.1c-0.1,0-0.2-0.1-0.3-0.1c-0.2,0-0.4,0.1-0.6,0.2
			c-0.2,0.1-0.3,0.3-0.4,0.4v3.8c0,0.2-0.2,0.3-0.6,0.3h-0.2C63.4,108.4,63.2,108.3,63.2,108.1z"/>
		<path class="st3" d="M67.7,107.7c-0.5-0.5-0.7-1.3-0.7-2.2c0-1,0.2-1.8,0.7-2.3c0.5-0.5,1.1-0.8,2-0.8c0.8,0,1.4,0.3,1.8,0.8
			c0.4,0.5,0.6,1.2,0.6,2.1c0,0.1-0.1,0.2-0.2,0.4s-0.2,0.2-0.3,0.2h-3.1c0,0.5,0.2,0.9,0.4,1.1s0.6,0.3,1,0.3
			c0.4,0,0.8-0.1,1.2-0.3c0.1-0.1,0.2-0.1,0.2-0.1c0.1,0,0.2,0.1,0.3,0.3c0.1,0.2,0.2,0.4,0.2,0.5c0,0.1-0.1,0.3-0.3,0.4
			c-0.2,0.1-0.5,0.2-0.8,0.3c-0.3,0.1-0.6,0.1-0.9,0.1C68.9,108.5,68.2,108.2,67.7,107.7z M70.7,105c0-0.4-0.1-0.8-0.3-1
			c-0.2-0.2-0.4-0.4-0.7-0.4c-0.7,0-1.1,0.5-1.2,1.4H70.7z"/>
		<path class="st3" d="M78.1,108.3c-0.3-0.1-0.5-0.4-0.7-0.6c0,0.2-0.1,0.4-0.1,0.6c0,0.1-0.1,0.2-0.2,0.2c-0.1,0-0.2,0.1-0.4,0.1
			h-0.1c-0.4,0-0.6-0.1-0.6-0.3v-7.9c0-0.2,0.2-0.3,0.6-0.3h0.2c0.4,0,0.6,0.1,0.6,0.3v2.6c0.4-0.3,0.8-0.4,1.3-0.4
			c0.7,0,1.3,0.3,1.7,0.8c0.4,0.5,0.6,1.3,0.6,2.2c0,0.6-0.1,1.2-0.3,1.6c-0.2,0.5-0.4,0.8-0.8,1c-0.3,0.2-0.7,0.4-1.1,0.4
			C78.7,108.5,78.4,108.4,78.1,108.3z M79.4,106.8c0.2-0.3,0.3-0.8,0.3-1.4c0-1.2-0.4-1.8-1.2-1.8c-0.4,0-0.7,0.1-1,0.3v2.7
			c0.2,0.2,0.3,0.4,0.5,0.5c0.2,0.1,0.4,0.2,0.6,0.2C79,107.3,79.2,107.2,79.4,106.8z"/>
		<path class="st3" d="M82.4,106.7v-3.8c0-0.1,0-0.2,0.1-0.2c0.1-0.1,0.2-0.1,0.5-0.1h0.2c0.4,0,0.6,0.1,0.6,0.3v3.6
			c0,0.6,0.3,0.8,0.8,0.8c0.2,0,0.4-0.1,0.6-0.2c0.2-0.1,0.3-0.3,0.5-0.5v-3.8c0-0.2,0.2-0.3,0.6-0.3h0.2c0.4,0,0.6,0.1,0.6,0.3v3.7
			c0,0.5,0,0.9,0.1,1.1s0.1,0.4,0.1,0.4c0,0.1-0.1,0.2-0.4,0.2c-0.2,0.1-0.5,0.1-0.7,0.1c-0.1,0-0.2-0.1-0.3-0.2
			c-0.1-0.1-0.1-0.2-0.1-0.4c0-0.1,0-0.2-0.1-0.3c-0.2,0.2-0.5,0.5-0.8,0.6c-0.3,0.2-0.6,0.2-1,0.2C83,108.5,82.4,107.9,82.4,106.7z
			"/>
		<path class="st3" d="M89.3,108.1c-0.3-0.3-0.4-0.7-0.4-1.3v-3.1h-0.3c-0.1,0-0.2,0-0.2-0.1c0-0.1-0.1-0.2-0.1-0.4V103
			c0-0.2,0-0.3,0.1-0.4c0-0.1,0.1-0.1,0.2-0.1h0.3l0.1-1.1c0-0.2,0.2-0.3,0.5-0.3h0.3c0.3,0,0.5,0.1,0.5,0.3v1.1H91
			c0.1,0,0.2,0,0.2,0.1c0,0.1,0.1,0.2,0.1,0.4v0.2c0,0.2,0,0.3-0.1,0.4c0,0.1-0.1,0.1-0.2,0.1h-0.7v3.1c0,0.2,0,0.4,0.1,0.5
			c0.1,0.1,0.2,0.1,0.4,0.1c0.1,0,0.1,0,0.2,0c0.1,0,0.1,0,0.2,0c0.1,0,0.2,0.1,0.2,0.3c0.1,0.2,0.1,0.3,0.1,0.4
			c0,0.3-0.3,0.5-1,0.5C90,108.5,89.6,108.4,89.3,108.1z"/>
		<path class="st3" d="M93.2,108.1c-0.3-0.3-0.4-0.7-0.4-1.3v-3.1h-0.3c-0.1,0-0.2,0-0.2-0.1c0-0.1-0.1-0.2-0.1-0.4V103
			c0-0.2,0-0.3,0.1-0.4c0-0.1,0.1-0.1,0.2-0.1h0.3l0.1-1.1c0-0.2,0.2-0.3,0.5-0.3h0.3c0.3,0,0.5,0.1,0.5,0.3v1.1h0.7
			c0.1,0,0.2,0,0.2,0.1c0,0.1,0.1,0.2,0.1,0.4v0.2c0,0.2,0,0.3-0.1,0.4c0,0.1-0.1,0.1-0.2,0.1h-0.7v3.1c0,0.2,0,0.4,0.1,0.5
			c0.1,0.1,0.2,0.1,0.4,0.1c0.1,0,0.1,0,0.2,0c0.1,0,0.1,0,0.2,0c0.1,0,0.2,0.1,0.2,0.3c0.1,0.2,0.1,0.3,0.1,0.4
			c0,0.3-0.3,0.5-1,0.5C93.9,108.5,93.5,108.4,93.2,108.1z"/>
		<path class="st3" d="M96.8,107.7c-0.5-0.5-0.7-1.3-0.7-2.2c0-1,0.2-1.7,0.7-2.2c0.5-0.5,1.1-0.8,2-0.8c0.9,0,1.5,0.3,2,0.8
			c0.5,0.5,0.7,1.3,0.7,2.2s-0.2,1.7-0.7,2.2s-1.1,0.8-2,0.8C98,108.5,97.3,108.2,96.8,107.7z M99.8,106.9c0.2-0.3,0.3-0.8,0.3-1.4
			c0-0.6-0.1-1.1-0.3-1.4c-0.2-0.3-0.5-0.5-0.9-0.5s-0.7,0.2-0.9,0.5c-0.2,0.3-0.3,0.8-0.3,1.4c0,0.6,0.1,1.1,0.3,1.4
			c0.2,0.3,0.5,0.5,0.9,0.5S99.6,107.2,99.8,106.9z"/>
		<path class="st3" d="M102.8,108.1v-3.7c0-0.5,0-0.9-0.1-1.1s-0.1-0.4-0.1-0.4c0-0.1,0.1-0.2,0.4-0.2c0.2-0.1,0.5-0.1,0.7-0.1
			c0.1,0,0.2,0.1,0.3,0.2c0.1,0.1,0.1,0.2,0.1,0.3c0,0.1,0,0.2,0.1,0.2c0.2-0.2,0.4-0.5,0.7-0.6c0.3-0.2,0.6-0.2,1-0.2
			c1.1,0,1.7,0.6,1.7,1.8v3.8c0,0.1,0,0.2-0.1,0.2s-0.2,0.1-0.5,0.1h-0.2c-0.4,0-0.6-0.1-0.6-0.3v-3.6c0-0.6-0.3-0.8-0.8-0.8
			c-0.2,0-0.4,0.1-0.6,0.2c-0.2,0.1-0.3,0.3-0.5,0.5v3.8c0,0.2-0.2,0.3-0.6,0.3h-0.2C103,108.4,102.8,108.3,102.8,108.1z"/>
	</g>
</g>
<g>
	<path class="st5" d="M117.5,166.6H21.1c-1,0-1.8-0.8-1.8-1.8v-29.8c0-1,0.8-1.8,1.8-1.8h96.5c1,0,1.8,0.8,1.8,1.8v29.8
		C119.3,165.8,118.5,166.6,117.5,166.6z"/>
	<g>
		<path class="st3" d="M31.2,153.9c-0.1-0.1-0.1-0.1-0.1-0.2v-7.2c0-0.1,0-0.2,0.1-0.3s0.2-0.1,0.3-0.1h2.3c0.7,0,1.3,0.2,1.8,0.5
			s0.8,1,0.8,1.9c0,0.6-0.2,1.1-0.5,1.5c-0.3,0.4-0.6,0.6-1,0.7c-0.4,0.1-0.7,0.2-1,0.2h-1.4v2.8c0,0.2-0.2,0.3-0.6,0.3h-0.3
			C31.4,153.9,31.3,153.9,31.2,153.9z M33.8,149.6c0.3,0,0.6-0.1,0.8-0.3c0.2-0.2,0.3-0.5,0.3-0.9c0-0.4-0.1-0.7-0.3-0.9
			s-0.5-0.2-0.8-0.2h-1.2v2.3H33.8z"/>
		<path class="st3" d="M37.4,153.6v-3.7c0-0.5,0-0.9-0.1-1.1c0-0.2-0.1-0.4-0.1-0.4c0-0.1,0.1-0.2,0.4-0.2c0.2-0.1,0.5-0.1,0.7-0.1
			c0.1,0,0.2,0.1,0.3,0.2s0.1,0.2,0.1,0.3s0,0.2,0.1,0.2c0.3-0.6,0.8-0.8,1.2-0.8c0.2,0,0.4,0.1,0.5,0.2c0.1,0.1,0.2,0.2,0.2,0.4
			c0,0.2,0,0.3-0.1,0.5c-0.1,0.2-0.1,0.3-0.2,0.3c0,0-0.1,0-0.2-0.1c-0.1,0-0.2-0.1-0.3-0.1c-0.2,0-0.4,0.1-0.6,0.2
			c-0.2,0.1-0.3,0.3-0.4,0.4v3.8c0,0.2-0.2,0.3-0.6,0.3H38C37.6,153.9,37.4,153.8,37.4,153.6z"/>
		<path class="st3" d="M41.5,146.8v-0.7c0-0.2,0.2-0.4,0.7-0.4c0.5,0,0.7,0.1,0.7,0.4v0.7c0,0.1-0.1,0.2-0.2,0.3
			c-0.1,0.1-0.3,0.1-0.6,0.1C41.8,147.2,41.5,147.1,41.5,146.8z M41.5,153.6v-5.3c0-0.2,0.2-0.3,0.6-0.3h0.2c0.4,0,0.6,0.1,0.6,0.3
			v5.3c0,0.2-0.2,0.3-0.6,0.3h-0.2C41.7,153.9,41.5,153.8,41.5,153.6z"/>
		<path class="st3" d="M52.5,149.8v3.8c0,0.2-0.2,0.3-0.6,0.3h-0.2c-0.4,0-0.6-0.1-0.6-0.3V150c0-0.6-0.3-0.8-0.8-0.8
			c-0.2,0-0.5,0.1-0.6,0.2c-0.2,0.1-0.3,0.3-0.4,0.5v3.8c0,0.2-0.2,0.3-0.6,0.3h-0.2c-0.2,0-0.4,0-0.5-0.1c-0.1-0.1-0.1-0.1-0.1-0.2
			V150c0-0.6-0.3-0.8-0.8-0.8c-0.3,0-0.5,0.1-0.7,0.2s-0.3,0.3-0.4,0.5v3.8c0,0.2-0.2,0.3-0.6,0.3h-0.2c-0.4,0-0.6-0.1-0.6-0.3v-3.7
			c0-0.5,0-0.9-0.1-1.1c0-0.2-0.1-0.4-0.1-0.4c0-0.1,0.1-0.2,0.4-0.2c0.2-0.1,0.5-0.1,0.7-0.1c0.1,0,0.2,0.1,0.3,0.2
			s0.1,0.2,0.1,0.3s0,0.2,0.1,0.2c0.2-0.2,0.4-0.4,0.7-0.6c0.3-0.2,0.6-0.2,1-0.2c0.8,0,1.3,0.3,1.5,0.9c0.2-0.2,0.5-0.5,0.8-0.6
			c0.3-0.2,0.6-0.3,1-0.3C51.9,148,52.5,148.6,52.5,149.8z"/>
		<path class="st3" d="M54.2,153.6c-0.3-0.3-0.5-0.7-0.5-1.2c0-1.4,1.1-2.1,3.4-2.1v-0.4c0-0.5-0.3-0.7-1-0.7c-0.3,0-0.5,0-0.7,0.1
			s-0.4,0.1-0.6,0.2s-0.2,0.1-0.3,0.1c-0.1,0-0.2-0.1-0.3-0.3c-0.1-0.2-0.2-0.4-0.2-0.5c0-0.1,0.1-0.2,0.3-0.4
			c0.2-0.1,0.5-0.2,0.8-0.3c0.3-0.1,0.7-0.1,1.1-0.1c0.8,0,1.4,0.2,1.8,0.5c0.4,0.3,0.6,0.8,0.6,1.3v2.3c0,0.5,0,0.9,0.1,1.1
			s0.1,0.4,0.1,0.4c0,0.1-0.1,0.2-0.4,0.2c-0.2,0.1-0.5,0.1-0.7,0.1c-0.1,0-0.2-0.1-0.3-0.2c-0.1-0.1-0.1-0.2-0.1-0.4
			c0-0.1,0-0.2,0-0.3c-0.2,0.2-0.4,0.4-0.7,0.6s-0.6,0.3-1.1,0.3C54.9,154,54.5,153.9,54.2,153.6z M56.6,152.7
			c0.2-0.1,0.4-0.3,0.6-0.5v-0.9c-0.6,0-1.1,0.1-1.4,0.2c-0.3,0.1-0.5,0.4-0.5,0.7c0,0.2,0.1,0.4,0.2,0.5s0.3,0.2,0.5,0.2
			C56.2,152.9,56.4,152.8,56.6,152.7z"/>
		<path class="st3" d="M60.2,146.8v-0.7c0-0.2,0.2-0.4,0.7-0.4c0.5,0,0.7,0.1,0.7,0.4v0.7c0,0.1-0.1,0.2-0.2,0.3
			c-0.1,0.1-0.3,0.1-0.6,0.1C60.4,147.2,60.2,147.1,60.2,146.8z M60.2,153.6v-5.3c0-0.2,0.2-0.3,0.6-0.3H61c0.4,0,0.6,0.1,0.6,0.3
			v5.3c0,0.2-0.2,0.3-0.6,0.3h-0.2C60.4,153.9,60.2,153.8,60.2,153.6z"/>
		<path class="st3" d="M63.2,153.6v-3.7c0-0.5,0-0.9-0.1-1.1c0-0.2-0.1-0.4-0.1-0.4c0-0.1,0.1-0.2,0.4-0.2c0.2-0.1,0.5-0.1,0.7-0.1
			c0.1,0,0.2,0.1,0.3,0.2s0.1,0.2,0.1,0.3s0,0.2,0.1,0.2c0.3-0.6,0.8-0.8,1.2-0.8c0.2,0,0.4,0.1,0.5,0.2c0.1,0.1,0.2,0.2,0.2,0.4
			c0,0.2,0,0.3-0.1,0.5c-0.1,0.2-0.1,0.3-0.2,0.3c0,0-0.1,0-0.2-0.1c-0.1,0-0.2-0.1-0.3-0.1c-0.2,0-0.4,0.1-0.6,0.2
			c-0.2,0.1-0.3,0.3-0.4,0.4v3.8c0,0.2-0.2,0.3-0.6,0.3h-0.2C63.4,153.9,63.2,153.8,63.2,153.6z"/>
		<path class="st3" d="M67.7,153.2c-0.5-0.5-0.7-1.3-0.7-2.2c0-1,0.2-1.8,0.7-2.3c0.5-0.5,1.1-0.8,2-0.8c0.8,0,1.4,0.3,1.8,0.8
			c0.4,0.5,0.6,1.2,0.6,2.1c0,0.1-0.1,0.2-0.2,0.4s-0.2,0.2-0.3,0.2h-3.1c0,0.5,0.2,0.9,0.4,1.1c0.2,0.2,0.6,0.3,1,0.3
			c0.4,0,0.8-0.1,1.2-0.3c0.1-0.1,0.2-0.1,0.2-0.1c0.1,0,0.2,0.1,0.3,0.3c0.1,0.2,0.2,0.4,0.2,0.5c0,0.1-0.1,0.3-0.3,0.4
			c-0.2,0.1-0.5,0.2-0.8,0.3c-0.3,0.1-0.6,0.1-0.9,0.1C68.9,154,68.2,153.7,67.7,153.2z M70.7,150.5c0-0.4-0.1-0.8-0.3-1
			c-0.2-0.2-0.4-0.4-0.7-0.4c-0.7,0-1.1,0.5-1.2,1.4H70.7z"/>
		<path class="st3" d="M78.1,153.8c-0.3-0.1-0.5-0.4-0.7-0.6c0,0.2-0.1,0.4-0.1,0.6c0,0.1-0.1,0.2-0.2,0.2c-0.1,0-0.2,0.1-0.4,0.1
			h-0.1c-0.4,0-0.6-0.1-0.6-0.3v-7.9c0-0.2,0.2-0.3,0.6-0.3h0.2c0.4,0,0.6,0.1,0.6,0.3v2.6c0.4-0.3,0.8-0.4,1.3-0.4
			c0.7,0,1.3,0.3,1.7,0.8c0.4,0.5,0.6,1.3,0.6,2.2c0,0.6-0.1,1.2-0.3,1.6c-0.2,0.5-0.4,0.8-0.8,1c-0.3,0.2-0.7,0.4-1.1,0.4
			C78.7,154,78.4,153.9,78.1,153.8z M79.4,152.4c0.2-0.3,0.3-0.8,0.3-1.4c0-1.2-0.4-1.8-1.2-1.8c-0.4,0-0.7,0.1-1,0.3v2.7
			c0.2,0.2,0.3,0.4,0.5,0.5c0.2,0.1,0.4,0.2,0.6,0.2C79,152.8,79.2,152.7,79.4,152.4z"/>
		<path class="st3" d="M82.4,152.2v-3.8c0-0.1,0-0.2,0.1-0.2c0.1-0.1,0.2-0.1,0.5-0.1h0.2c0.4,0,0.6,0.1,0.6,0.3v3.6
			c0,0.6,0.3,0.8,0.8,0.8c0.2,0,0.4-0.1,0.6-0.2c0.2-0.1,0.3-0.3,0.5-0.5v-3.8c0-0.2,0.2-0.3,0.6-0.3h0.2c0.4,0,0.6,0.1,0.6,0.3v3.7
			c0,0.5,0,0.9,0.1,1.1s0.1,0.4,0.1,0.4c0,0.1-0.1,0.2-0.4,0.2c-0.2,0.1-0.5,0.1-0.7,0.1c-0.1,0-0.2-0.1-0.3-0.2
			c-0.1-0.1-0.1-0.2-0.1-0.4c0-0.1,0-0.2-0.1-0.3c-0.2,0.2-0.5,0.4-0.8,0.6c-0.3,0.2-0.6,0.2-1,0.2C83,154,82.4,153.4,82.4,152.2z"
			/>
		<path class="st3" d="M89.3,153.6c-0.3-0.3-0.4-0.7-0.4-1.3v-3.1h-0.3c-0.1,0-0.2,0-0.2-0.1c0-0.1-0.1-0.2-0.1-0.4v-0.2
			c0-0.2,0-0.3,0.1-0.4c0-0.1,0.1-0.1,0.2-0.1h0.3l0.1-1.1c0-0.2,0.2-0.3,0.5-0.3h0.3c0.3,0,0.5,0.1,0.5,0.3v1.1H91
			c0.1,0,0.2,0,0.2,0.1c0,0.1,0.1,0.2,0.1,0.4v0.2c0,0.2,0,0.3-0.1,0.4c0,0.1-0.1,0.1-0.2,0.1h-0.7v3.1c0,0.2,0,0.4,0.1,0.5
			c0.1,0.1,0.2,0.1,0.4,0.1c0.1,0,0.1,0,0.2,0c0.1,0,0.1,0,0.2,0c0.1,0,0.2,0.1,0.2,0.3c0.1,0.2,0.1,0.3,0.1,0.4
			c0,0.3-0.3,0.5-1,0.5C90,154,89.6,153.9,89.3,153.6z"/>
		<path class="st3" d="M93.2,153.6c-0.3-0.3-0.4-0.7-0.4-1.3v-3.1h-0.3c-0.1,0-0.2,0-0.2-0.1c0-0.1-0.1-0.2-0.1-0.4v-0.2
			c0-0.2,0-0.3,0.1-0.4c0-0.1,0.1-0.1,0.2-0.1h0.3l0.1-1.1c0-0.2,0.2-0.3,0.5-0.3h0.3c0.3,0,0.5,0.1,0.5,0.3v1.1h0.7
			c0.1,0,0.2,0,0.2,0.1c0,0.1,0.1,0.2,0.1,0.4v0.2c0,0.2,0,0.3-0.1,0.4c0,0.1-0.1,0.1-0.2,0.1h-0.7v3.1c0,0.2,0,0.4,0.1,0.5
			c0.1,0.1,0.2,0.1,0.4,0.1c0.1,0,0.1,0,0.2,0c0.1,0,0.1,0,0.2,0c0.1,0,0.2,0.1,0.2,0.3c0.1,0.2,0.1,0.3,0.1,0.4
			c0,0.3-0.3,0.5-1,0.5C93.9,154,93.5,153.9,93.2,153.6z"/>
		<path class="st3" d="M96.8,153.2c-0.5-0.5-0.7-1.3-0.7-2.2c0-1,0.2-1.7,0.7-2.2c0.5-0.5,1.1-0.8,2-0.8c0.9,0,1.5,0.3,2,0.8
			s0.7,1.3,0.7,2.2s-0.2,1.7-0.7,2.2s-1.1,0.8-2,0.8C98,154,97.3,153.7,96.8,153.2z M99.8,152.4c0.2-0.3,0.3-0.8,0.3-1.4
			c0-0.6-0.1-1.1-0.3-1.4c-0.2-0.3-0.5-0.5-0.9-0.5s-0.7,0.2-0.9,0.5s-0.3,0.8-0.3,1.4c0,0.6,0.1,1.1,0.3,1.4s0.5,0.5,0.9,0.5
			S99.6,152.7,99.8,152.4z"/>
		<path class="st3" d="M102.8,153.6v-3.7c0-0.5,0-0.9-0.1-1.1c0-0.2-0.1-0.4-0.1-0.4c0-0.1,0.1-0.2,0.4-0.2c0.2-0.1,0.5-0.1,0.7-0.1
			c0.1,0,0.2,0.1,0.3,0.2c0.1,0.1,0.1,0.2,0.1,0.3s0,0.2,0.1,0.2c0.2-0.2,0.4-0.4,0.7-0.6c0.3-0.2,0.6-0.2,1-0.2
			c1.1,0,1.7,0.6,1.7,1.8v3.8c0,0.1,0,0.2-0.1,0.2c-0.1,0.1-0.2,0.1-0.5,0.1h-0.2c-0.4,0-0.6-0.1-0.6-0.3V150c0-0.6-0.3-0.8-0.8-0.8
			c-0.2,0-0.4,0.1-0.6,0.2c-0.2,0.1-0.3,0.3-0.5,0.5v3.8c0,0.2-0.2,0.3-0.6,0.3h-0.2C103,153.9,102.8,153.8,102.8,153.6z"/>
	</g>
</g>
<g>
	<path class="st6" d="M117.5,212.1H21.1c-1,0-1.8-0.8-1.8-1.8v-29.8c0-1,0.8-1.8,1.8-1.8h96.5c1,0,1.8,0.8,1.8,1.8v29.8
		C119.3,211.3,118.5,212.1,117.5,212.1z"/>
	<g>
		<path class="st3" d="M31.2,199.4c-0.1-0.1-0.1-0.1-0.1-0.2V192c0-0.1,0-0.2,0.1-0.3s0.2-0.1,0.3-0.1h2.3c0.7,0,1.3,0.2,1.8,0.5
			s0.8,1,0.8,1.9c0,0.6-0.2,1.1-0.5,1.5c-0.3,0.4-0.6,0.6-1,0.7c-0.4,0.1-0.7,0.2-1,0.2h-1.4v2.8c0,0.2-0.2,0.3-0.6,0.3h-0.3
			C31.4,199.4,31.3,199.4,31.2,199.4z M33.8,195.1c0.3,0,0.6-0.1,0.8-0.3c0.2-0.2,0.3-0.5,0.3-0.9c0-0.4-0.1-0.7-0.3-0.9
			s-0.5-0.2-0.8-0.2h-1.2v2.3H33.8z"/>
		<path class="st3" d="M37.4,199.1v-3.7c0-0.5,0-0.9-0.1-1.1c0-0.2-0.1-0.4-0.1-0.4c0-0.1,0.1-0.2,0.4-0.2c0.2-0.1,0.5-0.1,0.7-0.1
			c0.1,0,0.2,0.1,0.3,0.2s0.1,0.2,0.1,0.3s0,0.2,0.1,0.2c0.3-0.6,0.8-0.8,1.2-0.8c0.2,0,0.4,0.1,0.5,0.2c0.1,0.1,0.2,0.2,0.2,0.4
			c0,0.2,0,0.3-0.1,0.5c-0.1,0.2-0.1,0.3-0.2,0.3c0,0-0.1,0-0.2-0.1c-0.1,0-0.2-0.1-0.3-0.1c-0.2,0-0.4,0.1-0.6,0.2
			c-0.2,0.1-0.3,0.3-0.4,0.4v3.8c0,0.2-0.2,0.3-0.6,0.3H38C37.6,199.4,37.4,199.3,37.4,199.1z"/>
		<path class="st3" d="M41.5,192.3v-0.7c0-0.2,0.2-0.4,0.7-0.4c0.5,0,0.7,0.1,0.7,0.4v0.7c0,0.1-0.1,0.2-0.2,0.3
			c-0.1,0.1-0.3,0.1-0.6,0.1C41.8,192.7,41.5,192.6,41.5,192.3z M41.5,199.1v-5.3c0-0.2,0.2-0.3,0.6-0.3h0.2c0.4,0,0.6,0.1,0.6,0.3
			v5.3c0,0.2-0.2,0.3-0.6,0.3h-0.2C41.7,199.4,41.5,199.3,41.5,199.1z"/>
		<path class="st3" d="M52.5,195.3v3.8c0,0.2-0.2,0.3-0.6,0.3h-0.2c-0.4,0-0.6-0.1-0.6-0.3v-3.6c0-0.6-0.3-0.8-0.8-0.8
			c-0.2,0-0.5,0.1-0.6,0.2c-0.2,0.1-0.3,0.3-0.4,0.5v3.8c0,0.2-0.2,0.3-0.6,0.3h-0.2c-0.2,0-0.4,0-0.5-0.1c-0.1-0.1-0.1-0.1-0.1-0.2
			v-3.6c0-0.6-0.3-0.8-0.8-0.8c-0.3,0-0.5,0.1-0.7,0.2s-0.3,0.3-0.4,0.5v3.8c0,0.2-0.2,0.3-0.6,0.3h-0.2c-0.4,0-0.6-0.1-0.6-0.3
			v-3.7c0-0.5,0-0.9-0.1-1.1c0-0.2-0.1-0.4-0.1-0.4c0-0.1,0.1-0.2,0.4-0.2c0.2-0.1,0.5-0.1,0.7-0.1c0.1,0,0.2,0.1,0.3,0.2
			s0.1,0.2,0.1,0.3s0,0.2,0.1,0.2c0.2-0.2,0.4-0.4,0.7-0.6c0.3-0.2,0.6-0.2,1-0.2c0.8,0,1.3,0.3,1.5,0.9c0.2-0.2,0.5-0.5,0.8-0.6
			c0.3-0.2,0.6-0.3,1-0.3C51.9,193.5,52.5,194.1,52.5,195.3z"/>
		<path class="st3" d="M54.2,199.1c-0.3-0.3-0.5-0.7-0.5-1.2c0-1.4,1.1-2.1,3.4-2.1v-0.4c0-0.5-0.3-0.7-1-0.7c-0.3,0-0.5,0-0.7,0.1
			s-0.4,0.1-0.6,0.2s-0.2,0.1-0.3,0.1c-0.1,0-0.2-0.1-0.3-0.3c-0.1-0.2-0.2-0.4-0.2-0.5c0-0.1,0.1-0.2,0.3-0.4
			c0.2-0.1,0.5-0.2,0.8-0.3c0.3-0.1,0.7-0.1,1.1-0.1c0.8,0,1.4,0.2,1.8,0.5c0.4,0.3,0.6,0.8,0.6,1.3v2.3c0,0.5,0,0.9,0.1,1.1
			s0.1,0.4,0.1,0.4c0,0.1-0.1,0.2-0.4,0.2c-0.2,0.1-0.5,0.1-0.7,0.1c-0.1,0-0.2-0.1-0.3-0.2c-0.1-0.1-0.1-0.2-0.1-0.4
			c0-0.1,0-0.2,0-0.3c-0.2,0.2-0.4,0.4-0.7,0.6s-0.6,0.3-1.1,0.3C54.9,199.5,54.5,199.4,54.2,199.1z M56.6,198.2
			c0.2-0.1,0.4-0.3,0.6-0.5v-0.9c-0.6,0-1.1,0.1-1.4,0.2c-0.3,0.1-0.5,0.4-0.5,0.7c0,0.2,0.1,0.4,0.2,0.5s0.3,0.2,0.5,0.2
			C56.2,198.4,56.4,198.3,56.6,198.2z"/>
		<path class="st3" d="M60.2,192.3v-0.7c0-0.2,0.2-0.4,0.7-0.4c0.5,0,0.7,0.1,0.7,0.4v0.7c0,0.1-0.1,0.2-0.2,0.3
			c-0.1,0.1-0.3,0.1-0.6,0.1C60.4,192.7,60.2,192.6,60.2,192.3z M60.2,199.1v-5.3c0-0.2,0.2-0.3,0.6-0.3H61c0.4,0,0.6,0.1,0.6,0.3
			v5.3c0,0.2-0.2,0.3-0.6,0.3h-0.2C60.4,199.4,60.2,199.3,60.2,199.1z"/>
		<path class="st3" d="M63.2,199.1v-3.7c0-0.5,0-0.9-0.1-1.1c0-0.2-0.1-0.4-0.1-0.4c0-0.1,0.1-0.2,0.4-0.2c0.2-0.1,0.5-0.1,0.7-0.1
			c0.1,0,0.2,0.1,0.3,0.2s0.1,0.2,0.1,0.3s0,0.2,0.1,0.2c0.3-0.6,0.8-0.8,1.2-0.8c0.2,0,0.4,0.1,0.5,0.2c0.1,0.1,0.2,0.2,0.2,0.4
			c0,0.2,0,0.3-0.1,0.5c-0.1,0.2-0.1,0.3-0.2,0.3c0,0-0.1,0-0.2-0.1c-0.1,0-0.2-0.1-0.3-0.1c-0.2,0-0.4,0.1-0.6,0.2
			c-0.2,0.1-0.3,0.3-0.4,0.4v3.8c0,0.2-0.2,0.3-0.6,0.3h-0.2C63.4,199.4,63.2,199.3,63.2,199.1z"/>
		<path class="st3" d="M67.7,198.7c-0.5-0.5-0.7-1.3-0.7-2.2c0-1,0.2-1.8,0.7-2.3c0.5-0.5,1.1-0.8,2-0.8c0.8,0,1.4,0.3,1.8,0.8
			c0.4,0.5,0.6,1.2,0.6,2.1c0,0.1-0.1,0.2-0.2,0.4s-0.2,0.2-0.3,0.2h-3.1c0,0.5,0.2,0.9,0.4,1.1c0.2,0.2,0.6,0.3,1,0.3
			c0.4,0,0.8-0.1,1.2-0.3c0.1-0.1,0.2-0.1,0.2-0.1c0.1,0,0.2,0.1,0.3,0.3c0.1,0.2,0.2,0.4,0.2,0.5c0,0.1-0.1,0.3-0.3,0.4
			c-0.2,0.1-0.5,0.2-0.8,0.3c-0.3,0.1-0.6,0.1-0.9,0.1C68.9,199.5,68.2,199.2,67.7,198.7z M70.7,196c0-0.4-0.1-0.8-0.3-1
			c-0.2-0.2-0.4-0.4-0.7-0.4c-0.7,0-1.1,0.5-1.2,1.4H70.7z"/>
		<path class="st3" d="M78.1,199.3c-0.3-0.1-0.5-0.4-0.7-0.6c0,0.2-0.1,0.4-0.1,0.6c0,0.1-0.1,0.2-0.2,0.2c-0.1,0-0.2,0.1-0.4,0.1
			h-0.1c-0.4,0-0.6-0.1-0.6-0.3v-7.9c0-0.2,0.2-0.3,0.6-0.3h0.2c0.4,0,0.6,0.1,0.6,0.3v2.6c0.4-0.3,0.8-0.4,1.3-0.4
			c0.7,0,1.3,0.3,1.7,0.8c0.4,0.5,0.6,1.3,0.6,2.2c0,0.6-0.1,1.2-0.3,1.6c-0.2,0.5-0.4,0.8-0.8,1c-0.3,0.2-0.7,0.4-1.1,0.4
			C78.7,199.5,78.4,199.4,78.1,199.3z M79.4,197.9c0.2-0.3,0.3-0.8,0.3-1.4c0-1.2-0.4-1.8-1.2-1.8c-0.4,0-0.7,0.1-1,0.3v2.7
			c0.2,0.2,0.3,0.4,0.5,0.5c0.2,0.1,0.4,0.2,0.6,0.2C79,198.3,79.2,198.2,79.4,197.9z"/>
		<path class="st3" d="M82.4,197.7v-3.8c0-0.1,0-0.2,0.1-0.2c0.1-0.1,0.2-0.1,0.5-0.1h0.2c0.4,0,0.6,0.1,0.6,0.3v3.6
			c0,0.6,0.3,0.8,0.8,0.8c0.2,0,0.4-0.1,0.6-0.2c0.2-0.1,0.3-0.3,0.5-0.5v-3.8c0-0.2,0.2-0.3,0.6-0.3h0.2c0.4,0,0.6,0.1,0.6,0.3v3.7
			c0,0.5,0,0.9,0.1,1.1s0.1,0.4,0.1,0.4c0,0.1-0.1,0.2-0.4,0.2c-0.2,0.1-0.5,0.1-0.7,0.1c-0.1,0-0.2-0.1-0.3-0.2
			c-0.1-0.1-0.1-0.2-0.1-0.4c0-0.1,0-0.2-0.1-0.3c-0.2,0.2-0.5,0.4-0.8,0.6c-0.3,0.2-0.6,0.2-1,0.2C83,199.5,82.4,198.9,82.4,197.7z
			"/>
		<path class="st3" d="M89.3,199.1c-0.3-0.3-0.4-0.7-0.4-1.3v-3.1h-0.3c-0.1,0-0.2,0-0.2-0.1c0-0.1-0.1-0.2-0.1-0.4V194
			c0-0.2,0-0.3,0.1-0.4c0-0.1,0.1-0.1,0.2-0.1h0.3l0.1-1.1c0-0.2,0.2-0.3,0.5-0.3h0.3c0.3,0,0.5,0.1,0.5,0.3v1.1H91
			c0.1,0,0.2,0,0.2,0.1c0,0.1,0.1,0.2,0.1,0.4v0.2c0,0.2,0,0.3-0.1,0.4c0,0.1-0.1,0.1-0.2,0.1h-0.7v3.1c0,0.2,0,0.4,0.1,0.5
			c0.1,0.1,0.2,0.1,0.4,0.1c0.1,0,0.1,0,0.2,0c0.1,0,0.1,0,0.2,0c0.1,0,0.2,0.1,0.2,0.3c0.1,0.2,0.1,0.3,0.1,0.4
			c0,0.3-0.3,0.5-1,0.5C90,199.5,89.6,199.4,89.3,199.1z"/>
		<path class="st3" d="M93.2,199.1c-0.3-0.3-0.4-0.7-0.4-1.3v-3.1h-0.3c-0.1,0-0.2,0-0.2-0.1c0-0.1-0.1-0.2-0.1-0.4V194
			c0-0.2,0-0.3,0.1-0.4c0-0.1,0.1-0.1,0.2-0.1h0.3l0.1-1.1c0-0.2,0.2-0.3,0.5-0.3h0.3c0.3,0,0.5,0.1,0.5,0.3v1.1h0.7
			c0.1,0,0.2,0,0.2,0.1c0,0.1,0.1,0.2,0.1,0.4v0.2c0,0.2,0,0.3-0.1,0.4c0,0.1-0.1,0.1-0.2,0.1h-0.7v3.1c0,0.2,0,0.4,0.1,0.5
			c0.1,0.1,0.2,0.1,0.4,0.1c0.1,0,0.1,0,0.2,0c0.1,0,0.1,0,0.2,0c0.1,0,0.2,0.1,0.2,0.3c0.1,0.2,0.1,0.3,0.1,0.4
			c0,0.3-0.3,0.5-1,0.5C93.9,199.5,93.5,199.4,93.2,199.1z"/>
		<path class="st3" d="M96.8,198.7c-0.5-0.5-0.7-1.3-0.7-2.2c0-1,0.2-1.7,0.7-2.2c0.5-0.5,1.1-0.8,2-0.8c0.9,0,1.5,0.3,2,0.8
			s0.7,1.3,0.7,2.2s-0.2,1.7-0.7,2.2s-1.1,0.8-2,0.8C98,199.5,97.3,199.2,96.8,198.7z M99.8,197.9c0.2-0.3,0.3-0.8,0.3-1.4
			c0-0.6-0.1-1.1-0.3-1.4c-0.2-0.3-0.5-0.5-0.9-0.5s-0.7,0.2-0.9,0.5s-0.3,0.8-0.3,1.4c0,0.6,0.1,1.1,0.3,1.4s0.5,0.5,0.9,0.5
			S99.6,198.2,99.8,197.9z"/>
		<path class="st3" d="M102.8,199.1v-3.7c0-0.5,0-0.9-0.1-1.1c0-0.2-0.1-0.4-0.1-0.4c0-0.1,0.1-0.2,0.4-0.2c0.2-0.1,0.5-0.1,0.7-0.1
			c0.1,0,0.2,0.1,0.3,0.2c0.1,0.1,0.1,0.2,0.1,0.3s0,0.2,0.1,0.2c0.2-0.2,0.4-0.4,0.7-0.6c0.3-0.2,0.6-0.2,1-0.2
			c1.1,0,1.7,0.6,1.7,1.8v3.8c0,0.1,0,0.2-0.1,0.2c-0.1,0.1-0.2,0.1-0.5,0.1h-0.2c-0.4,0-0.6-0.1-0.6-0.3v-3.6
			c0-0.6-0.3-0.8-0.8-0.8c-0.2,0-0.4,0.1-0.6,0.2c-0.2,0.1-0.3,0.3-0.5,0.5v3.8c0,0.2-0.2,0.3-0.6,0.3h-0.2
			C103,199.4,102.8,199.3,102.8,199.1z"/>
	</g>
</g>
<g>
	<g>
		<path class="st1" d="M173.2,277c-0.1,0-0.1-0.1-0.1-0.2c0,0,0.1-0.5,0.2-1.4c0,0,0.1-0.5,0.3-1.5h-1.2c-0.1,0-0.2,0-0.2-0.1
			c-0.1-0.1-0.1-0.2-0.1-0.4v-0.3c0-0.2,0-0.3,0.1-0.4c0.1-0.1,0.1-0.1,0.2-0.1h1.5l0.4-2.4H173c-0.1,0-0.2,0-0.2-0.1
			c-0.1-0.1-0.1-0.2-0.1-0.4v-0.3c0-0.2,0-0.3,0.1-0.4c0.1-0.1,0.1-0.1,0.2-0.1h1.5l0.5-2.7c0-0.1,0.1-0.2,0.2-0.3
			c0.1-0.1,0.3-0.1,0.5-0.1h0.1c0.3,0,0.4,0.1,0.4,0.2l-0.5,2.8h1.9l0.5-2.7c0-0.1,0.1-0.2,0.2-0.3c0.1-0.1,0.3-0.1,0.5-0.1h0.1
			c0.3,0,0.4,0.1,0.4,0.2l-0.5,2.8h1.1c0.1,0,0.2,0,0.2,0.1s0.1,0.2,0.1,0.4v0.3c0,0.2,0,0.3-0.1,0.4c0,0.1-0.1,0.1-0.2,0.1h-1.3
			l-0.4,2.4h1.2c0.1,0,0.2,0,0.2,0.1s0.1,0.2,0.1,0.4v0.3c0,0.2,0,0.3-0.1,0.4c0,0.1-0.1,0.1-0.2,0.1h-1.5l-0.5,2.8
			c0,0.1-0.1,0.2-0.2,0.3c-0.1,0.1-0.3,0.1-0.5,0.1h-0.1c-0.2,0-0.3,0-0.3-0.1c-0.1,0-0.1-0.1-0.1-0.2c0,0,0.1-0.5,0.2-1.4
			c0,0,0.1-0.5,0.3-1.5h-1.9l-0.5,2.8c0,0.1-0.1,0.2-0.2,0.3c-0.1,0.1-0.3,0.1-0.5,0.1h-0.1C173.4,277.1,173.3,277.1,173.2,277z
			 M177,272.7l0.4-2.4h-1.9l-0.4,2.4H177z"/>
		<path class="st1" d="M181.3,276.9c-0.1-0.1-0.1-0.3-0.1-0.5c0-0.1,0-0.2,0.1-0.3l4.1-5.2c0.3-0.4,0.6-0.8,0.7-1
			c0.2-0.3,0.3-0.5,0.3-0.6c0-0.2,0.1-0.4,0.1-0.6c0-0.5-0.2-0.9-0.5-1.2c-0.4-0.3-0.8-0.4-1.5-0.4c-0.4,0-0.8,0.1-1.1,0.2
			c-0.3,0.1-0.6,0.3-0.9,0.5c-0.2,0.1-0.3,0.2-0.4,0.2c-0.1,0-0.2-0.1-0.3-0.3c-0.1-0.2-0.2-0.4-0.2-0.5c0-0.2,0.2-0.4,0.5-0.6
			c0.3-0.2,0.7-0.3,1.2-0.4c0.5-0.1,0.9-0.2,1.2-0.2c1,0,1.9,0.2,2.5,0.7c0.6,0.5,0.9,1.1,0.9,2c0,0.5-0.1,1-0.2,1.4
			c-0.2,0.4-0.5,0.9-0.9,1.5c-0.5,0.6-1.3,1.6-2.5,3.1l-1.2,1.4h4.6c0.1,0,0.2,0,0.2,0.1c0,0.1,0.1,0.2,0.1,0.4v0.2
			c0,0.2,0,0.3-0.1,0.4c0,0.1-0.1,0.1-0.2,0.1h-6.1C181.5,277.1,181.4,277,181.3,276.9z"/>
		<path class="st1" d="M190.7,277c-0.1,0-0.2-0.1-0.2-0.2c0,0,0-0.1,0.1-0.2l4.6-9.6h-5c-0.1,0-0.2,0-0.2-0.1
			c-0.1-0.1-0.1-0.2-0.1-0.4v-0.2c0-0.2,0-0.3,0.1-0.4s0.1-0.1,0.2-0.1h6.3c0.1,0,0.1,0.1,0.2,0.3c0.1,0.2,0.1,0.4,0.1,0.5
			c0,0.1,0,0.1,0,0.2l-4.7,10c0,0.1-0.1,0.1-0.2,0.2s-0.2,0.1-0.4,0.1h-0.2C191,277.1,190.8,277.1,190.7,277z"/>
		<path class="st1" d="M199.8,277c-0.5-0.1-0.8-0.2-1.1-0.4c-0.3-0.1-0.4-0.3-0.4-0.4c0-0.1,0.1-0.3,0.2-0.5s0.3-0.3,0.4-0.3
			c0.1,0,0.2,0,0.4,0.1c0.3,0.1,0.6,0.2,0.9,0.3c0.3,0.1,0.7,0.1,1.1,0.1c0.7,0,1.3-0.2,1.8-0.6c0.5-0.4,0.7-1,0.7-1.7
			c0-0.7-0.2-1.3-0.7-1.6c-0.5-0.4-1.2-0.6-2.1-0.6h-1.4c-0.2,0-0.3,0-0.4-0.1c-0.1-0.1-0.1-0.2-0.1-0.4l0.3-4.6
			c0-0.2,0.1-0.3,0.1-0.4s0.2-0.1,0.4-0.1h4.3c0.1,0,0.2,0,0.2,0.1c0,0.1,0.1,0.2,0.1,0.4v0.2c0,0.2,0,0.3-0.1,0.4
			c0,0.1-0.1,0.1-0.2,0.1h-3.5l-0.2,3.3h0.8c0.6,0,1.3,0.1,1.8,0.3c0.6,0.2,1.1,0.6,1.5,1.1s0.6,1.1,0.6,2c0,1.3-0.4,2.2-1.1,2.7
			s-1.7,0.8-2.7,0.8C200.7,277.2,200.2,277.1,199.8,277z"/>
		<path class="st1" d="M208.3,276.8c-0.1-0.2-0.2-0.4-0.2-0.5c0-0.1,0-0.1,0.1-0.2c1.1-0.4,1.9-1,2.6-1.8s1.1-1.6,1.4-2.5
			c-0.6,0.4-1.3,0.5-2.2,0.5c-0.6,0-1.1-0.1-1.5-0.4c-0.5-0.3-0.8-0.6-1.1-1.1c-0.3-0.5-0.4-1.1-0.4-1.7c0-0.7,0.2-1.2,0.5-1.8
			s0.7-0.9,1.2-1.2c0.5-0.3,1.1-0.4,1.8-0.4c1.1,0,2,0.3,2.5,1c0.6,0.7,0.9,1.7,0.9,3c0,1.4-0.3,2.7-1,3.8c-0.7,1.1-1.4,2-2.3,2.6
			c-0.8,0.6-1.5,0.9-1.9,0.9C208.5,277.1,208.4,277,208.3,276.8z M212.4,270.7c0-0.4,0.1-0.7,0.1-1c0-1-0.2-1.7-0.6-2.1
			c-0.4-0.4-0.9-0.6-1.5-0.6c-0.3,0-0.6,0.1-0.9,0.2c-0.3,0.2-0.6,0.4-0.8,0.7c-0.2,0.3-0.3,0.7-0.3,1.2c0,0.7,0.2,1.3,0.6,1.6
			c0.4,0.4,0.9,0.5,1.5,0.5C211.1,271.2,211.8,271,212.4,270.7z"/>
		<path class="st1" d="M217,277c-0.5-0.1-0.9-0.2-1.2-0.4c-0.3-0.1-0.4-0.3-0.4-0.4c0-0.1,0.1-0.3,0.2-0.5c0.1-0.2,0.3-0.3,0.4-0.3
			c0.1,0,0.2,0,0.4,0.1c0.7,0.3,1.4,0.4,2.1,0.4c0.6,0,1.1-0.2,1.6-0.5c0.5-0.3,0.7-0.9,0.7-1.7c0-0.8-0.2-1.3-0.6-1.6
			c-0.4-0.3-1-0.5-1.8-0.5h-0.5c-0.1,0-0.2,0-0.2-0.1c-0.1-0.1-0.1-0.2-0.1-0.4V271c0-0.2,0-0.3,0.1-0.4c0.1-0.1,0.1-0.1,0.2-0.1
			h0.5c0.5,0,0.9-0.1,1.2-0.3c0.3-0.2,0.5-0.5,0.7-0.8c0.1-0.3,0.2-0.6,0.2-0.9c0-0.4-0.1-0.7-0.4-1.1s-0.8-0.5-1.5-0.5
			c-0.4,0-0.8,0-1.1,0.1c-0.3,0.1-0.6,0.2-0.8,0.3c-0.2,0.1-0.3,0.1-0.4,0.1c-0.1,0-0.2-0.1-0.3-0.3c-0.1-0.2-0.2-0.4-0.2-0.5
			c0-0.2,0.3-0.4,1-0.6s1.3-0.3,1.9-0.3c1,0,1.8,0.2,2.4,0.7c0.6,0.5,0.9,1.2,0.9,2.1c0,0.5-0.2,1-0.5,1.4c-0.3,0.4-0.7,0.7-1.2,0.8
			v0.1c0.5,0.1,1,0.5,1.4,1c0.4,0.5,0.6,1.2,0.6,2c0,0.8-0.2,1.4-0.5,1.9c-0.4,0.5-0.8,0.9-1.4,1.1s-1.1,0.3-1.7,0.3
			C218,277.2,217.5,277.1,217,277z"/>
		<path class="st1" d="M224.9,277c-0.1,0-0.2-0.1-0.2-0.2c0,0,0-0.1,0.1-0.2l4.6-9.6h-5c-0.1,0-0.2,0-0.2-0.1
			c-0.1-0.1-0.1-0.2-0.1-0.4v-0.2c0-0.2,0-0.3,0.1-0.4s0.1-0.1,0.2-0.1h6.3c0.1,0,0.1,0.1,0.2,0.3c0.1,0.2,0.1,0.4,0.1,0.5
			c0,0.1,0,0.1,0,0.2l-4.7,10c0,0.1-0.1,0.1-0.2,0.2s-0.2,0.1-0.4,0.1h-0.2C225.2,277.1,225,277.1,224.9,277z"/>
	</g>
	<path class="st4" d="M161.5,283.1H142c-0.9,0-1.6-0.7-1.6-1.6V262c0-0.9,0.7-1.6,1.6-1.6h19.5c0.9,0,1.6,0.7,1.6,1.6v19.5
		C163.1,282.4,162.3,283.1,161.5,283.1z"/>
</g>
<g>
	<g>
		<path class="st1" d="M292.7,277c-0.1,0-0.1-0.1-0.1-0.2c0,0,0.1-0.5,0.2-1.4c0,0,0.1-0.5,0.3-1.5h-1.2c-0.1,0-0.2,0-0.2-0.1
			c-0.1-0.1-0.1-0.2-0.1-0.4v-0.3c0-0.2,0-0.3,0.1-0.4c0.1-0.1,0.1-0.1,0.2-0.1h1.5l0.4-2.4h-1.3c-0.1,0-0.2,0-0.2-0.1
			c-0.1-0.1-0.1-0.2-0.1-0.4v-0.3c0-0.2,0-0.3,0.1-0.4c0.1-0.1,0.1-0.1,0.2-0.1h1.5l0.5-2.7c0-0.1,0.1-0.2,0.2-0.3
			c0.1-0.1,0.3-0.1,0.5-0.1h0.1c0.3,0,0.4,0.1,0.4,0.2l-0.5,2.8h1.9l0.5-2.7c0-0.1,0.1-0.2,0.2-0.3c0.1-0.1,0.3-0.1,0.5-0.1h0.1
			c0.3,0,0.4,0.1,0.4,0.2l-0.5,2.8h1.1c0.1,0,0.2,0,0.2,0.1s0.1,0.2,0.1,0.4v0.3c0,0.2,0,0.3-0.1,0.4c0,0.1-0.1,0.1-0.2,0.1h-1.3
			l-0.4,2.4h1.2c0.1,0,0.2,0,0.2,0.1s0.1,0.2,0.1,0.4v0.3c0,0.2,0,0.3-0.1,0.4c0,0.1-0.1,0.1-0.2,0.1h-1.5l-0.5,2.8
			c0,0.1-0.1,0.2-0.2,0.3c-0.1,0.1-0.3,0.1-0.5,0.1h-0.1c-0.2,0-0.3,0-0.3-0.1c-0.1,0-0.1-0.1-0.1-0.2c0,0,0.1-0.5,0.2-1.4
			c0,0,0.1-0.5,0.3-1.5h-1.9l-0.5,2.8c0,0.1-0.1,0.2-0.2,0.3c-0.1,0.1-0.3,0.1-0.5,0.1h-0.1C292.9,277.1,292.8,277.1,292.7,277z
			 M296.5,272.7l0.4-2.4H295l-0.4,2.4H296.5z"/>
		<path class="st1" d="M301.6,276.1c-0.6-0.7-0.9-1.7-0.9-3c0-1.4,0.3-2.7,1-3.8c0.7-1.1,1.4-2,2.3-2.6s1.5-0.9,1.9-0.9
			c0.1,0,0.3,0.1,0.4,0.3c0.1,0.2,0.2,0.4,0.2,0.5c0,0.1,0,0.1-0.1,0.2c-1.1,0.4-1.9,1-2.6,1.8c-0.7,0.7-1.1,1.6-1.4,2.5
			c0.6-0.4,1.3-0.5,2.2-0.5c0.6,0,1.1,0.1,1.5,0.4s0.8,0.6,1.1,1.1c0.3,0.5,0.4,1.1,0.4,1.7c0,0.7-0.2,1.2-0.5,1.8
			c-0.3,0.5-0.7,0.9-1.2,1.2c-0.5,0.3-1.1,0.4-1.8,0.4C303,277.2,302.2,276.8,301.6,276.1z M305.2,275.8c0.3-0.2,0.6-0.4,0.8-0.7
			c0.2-0.3,0.3-0.7,0.3-1.2c0-0.7-0.2-1.3-0.6-1.6c-0.4-0.4-0.9-0.5-1.5-0.5c-0.7,0-1.4,0.2-2,0.5c0,0.4-0.1,0.7-0.1,1
			c0,1,0.2,1.7,0.6,2.1c0.4,0.4,0.9,0.6,1.5,0.6C304.6,276,304.9,275.9,305.2,275.8z"/>
		<path class="st1" d="M310.2,277c-0.1,0-0.2-0.1-0.2-0.2c0,0,0-0.1,0.1-0.2l4.6-9.6h-5c-0.1,0-0.2,0-0.2-0.1
			c-0.1-0.1-0.1-0.2-0.1-0.4v-0.2c0-0.2,0-0.3,0.1-0.4s0.1-0.1,0.2-0.1h6.3c0.1,0,0.1,0.1,0.2,0.3c0.1,0.2,0.1,0.4,0.1,0.5
			c0,0.1,0,0.1,0,0.2l-4.7,10c0,0.1-0.1,0.1-0.2,0.2s-0.2,0.1-0.4,0.1h-0.2C310.5,277.1,310.3,277.1,310.2,277z"/>
		<path class="st1" d="M318.7,276.1c-0.6-0.7-0.9-1.7-0.9-3c0-1.4,0.3-2.7,1-3.8c0.7-1.1,1.4-2,2.3-2.6s1.5-0.9,1.9-0.9
			c0.1,0,0.3,0.1,0.4,0.3c0.1,0.2,0.2,0.4,0.2,0.5c0,0.1,0,0.1-0.1,0.2c-1.1,0.4-1.9,1-2.6,1.8c-0.7,0.7-1.1,1.6-1.4,2.5
			c0.6-0.4,1.3-0.5,2.2-0.5c0.6,0,1.1,0.1,1.5,0.4s0.8,0.6,1.1,1.1c0.3,0.5,0.4,1.1,0.4,1.7c0,0.7-0.2,1.2-0.5,1.8
			c-0.3,0.5-0.7,0.9-1.2,1.2c-0.5,0.3-1.1,0.4-1.8,0.4C320.2,277.2,319.3,276.8,318.7,276.1z M322.3,275.8c0.3-0.2,0.6-0.4,0.8-0.7
			c0.2-0.3,0.3-0.7,0.3-1.2c0-0.7-0.2-1.3-0.6-1.6c-0.4-0.4-0.9-0.5-1.5-0.5c-0.7,0-1.4,0.2-2,0.5c0,0.4-0.1,0.7-0.1,1
			c0,1,0.2,1.7,0.6,2.1c0.4,0.4,0.9,0.6,1.5,0.6C321.7,276,322,275.9,322.3,275.8z"/>
		<path class="st1" d="M327.8,275.8c-0.8-0.9-1.3-2.4-1.3-4.3c0-3.8,1.7-5.7,5.2-5.7c0.5,0,1,0.1,1.5,0.2c0.5,0.1,0.9,0.2,1.2,0.4
			c0.3,0.1,0.4,0.3,0.4,0.4c0,0.1-0.1,0.3-0.2,0.6c-0.1,0.2-0.2,0.4-0.3,0.4c0,0-0.2-0.1-0.4-0.2c-0.2-0.1-0.5-0.2-0.9-0.4
			c-0.3-0.1-0.7-0.2-1.2-0.2c-1.3,0-2.2,0.4-2.8,1.1c-0.6,0.7-0.9,1.9-0.9,3.4c0,1.5,0.3,2.7,0.9,3.4c0.6,0.7,1.5,1.1,2.8,1.1
			c0.5,0,1-0.1,1.3-0.2c0.4-0.1,0.7-0.3,1.1-0.5c0.1-0.1,0.3-0.1,0.3-0.1c0.1,0,0.2,0.1,0.4,0.4c0.1,0.2,0.2,0.4,0.2,0.5
			c0,0.2-0.2,0.3-0.5,0.5c-0.3,0.2-0.7,0.3-1.2,0.4c-0.5,0.1-1,0.2-1.6,0.2C329.9,277.2,328.6,276.7,327.8,275.8z"/>
		<path class="st1" d="M337.2,277c-0.1-0.1-0.1-0.2-0.1-0.4v-10.2c0-0.2,0-0.3,0.1-0.4c0.1-0.1,0.2-0.1,0.4-0.1h2.9
			c1.2,0,2,0.3,2.7,0.8c0.6,0.5,0.9,1.2,0.9,2.1c0,0.5-0.2,1-0.5,1.5c-0.4,0.5-0.8,0.8-1.2,0.9v0.1c0,0,0.2,0,0.6,0.2
			c0.4,0.2,0.8,0.5,1.1,0.9c0.3,0.4,0.5,0.9,0.5,1.5c0,2.1-1.4,3.2-4.2,3.2h-2.8C337.4,277.1,337.3,277,337.2,277z M340.3,270.7
			c0.6,0,1.2-0.2,1.6-0.5c0.4-0.4,0.6-0.8,0.6-1.3c0-0.6-0.2-1-0.5-1.3c-0.4-0.3-0.9-0.4-1.7-0.4h-1.8v3.6H340.3z M340.8,275.9
			c0.7,0,1.2-0.2,1.6-0.6c0.4-0.4,0.6-0.9,0.6-1.5c0-0.6-0.2-1.1-0.6-1.4c-0.4-0.3-1-0.5-1.8-0.5h-2.1v3.9H340.8z"/>
		<path class="st1" d="M347.4,276.6c-0.5-0.4-1-1-1.3-1.9c-0.3-0.9-0.5-1.9-0.5-3.2s0.2-2.3,0.5-3.2c0.3-0.9,0.8-1.5,1.3-1.9
			c0.5-0.4,1.2-0.6,1.8-0.6s1.3,0.2,1.8,0.6c0.6,0.4,1,1,1.3,1.9s0.5,1.9,0.5,3.2s-0.2,2.3-0.5,3.2s-0.8,1.5-1.3,1.9
			c-0.6,0.4-1.2,0.6-1.8,0.6S348,277,347.4,276.6z M350.4,275.6c0.3-0.3,0.6-0.8,0.8-1.5c0.2-0.7,0.3-1.5,0.3-2.6
			c0-1.1-0.1-1.9-0.3-2.6c-0.2-0.7-0.5-1.2-0.8-1.5c-0.3-0.3-0.7-0.5-1.1-0.5c-0.4,0-0.8,0.2-1.1,0.5c-0.3,0.3-0.6,0.8-0.8,1.5
			s-0.3,1.6-0.3,2.6c0,1.1,0.1,1.9,0.3,2.6s0.5,1.2,0.8,1.5c0.3,0.3,0.7,0.5,1.1,0.5C349.7,276,350.1,275.9,350.4,275.6z"/>
	</g>
	<path class="st5" d="M281,283.1h-19.5c-0.9,0-1.6-0.7-1.6-1.6V262c0-0.9,0.7-1.6,1.6-1.6H281c0.9,0,1.6,0.7,1.6,1.6v19.5
		C282.6,282.4,281.9,283.1,281,283.1z"/>
</g>
<g>
	<g>
		<path class="st1" d="M412.5,277c-0.1,0-0.1-0.1-0.1-0.2c0,0,0.1-0.5,0.2-1.4c0,0,0.1-0.5,0.3-1.5h-1.2c-0.1,0-0.2,0-0.2-0.1
			c-0.1-0.1-0.1-0.2-0.1-0.4v-0.3c0-0.2,0-0.3,0.1-0.4c0.1-0.1,0.1-0.1,0.2-0.1h1.5l0.4-2.4h-1.3c-0.1,0-0.2,0-0.2-0.1
			c-0.1-0.1-0.1-0.2-0.1-0.4v-0.3c0-0.2,0-0.3,0.1-0.4c0.1-0.1,0.1-0.1,0.2-0.1h1.5l0.5-2.7c0-0.1,0.1-0.2,0.2-0.3
			c0.1-0.1,0.3-0.1,0.5-0.1h0.1c0.3,0,0.4,0.1,0.4,0.2l-0.5,2.8h1.9l0.5-2.7c0-0.1,0.1-0.2,0.2-0.3c0.1-0.1,0.3-0.1,0.5-0.1h0.1
			c0.3,0,0.4,0.1,0.4,0.2l-0.5,2.8h1.1c0.1,0,0.2,0,0.2,0.1s0.1,0.2,0.1,0.4v0.3c0,0.2,0,0.3-0.1,0.4c0,0.1-0.1,0.1-0.2,0.1h-1.3
			l-0.4,2.4h1.2c0.1,0,0.2,0,0.2,0.1s0.1,0.2,0.1,0.4v0.3c0,0.2,0,0.3-0.1,0.4c0,0.1-0.1,0.1-0.2,0.1h-1.5l-0.5,2.8
			c0,0.1-0.1,0.2-0.2,0.3c-0.1,0.1-0.3,0.1-0.5,0.1h-0.1c-0.2,0-0.3,0-0.3-0.1c-0.1,0-0.1-0.1-0.1-0.2c0,0,0.1-0.5,0.2-1.4
			c0,0,0.1-0.5,0.3-1.5h-1.9l-0.5,2.8c0,0.1-0.1,0.2-0.2,0.3c-0.1,0.1-0.3,0.1-0.5,0.1h-0.1C412.6,277.1,412.5,277,412.5,277z
			 M416.2,272.7l0.4-2.4h-1.9l-0.4,2.4H416.2z"/>
		<path class="st1" d="M419.9,276.8c0-0.1,0-0.1,0-0.2l3.8-10.5c0.1-0.2,0.3-0.3,0.6-0.3h0.5c0.4,0,0.6,0.1,0.6,0.3l3.8,10.5
			c0,0.1,0,0.1,0,0.2c0,0.2-0.2,0.3-0.7,0.3h-0.1c-0.4,0-0.6-0.1-0.6-0.3l-0.9-2.6h-4.7l-0.9,2.6c-0.1,0.2-0.3,0.3-0.6,0.3h-0.1
			C420.1,277.1,419.9,277,419.9,276.8z M426.5,273l-1.7-4.8c-0.1-0.2-0.1-0.5-0.2-0.9h0c-0.1,0.4-0.2,0.7-0.2,0.9l-1.7,4.8H426.5z"
			/>
		<path class="st1" d="M431,276.7v-10.4c0-0.2,0-0.3,0.1-0.4c0.1-0.1,0.2-0.1,0.4-0.1h5c0.1,0,0.2,0,0.2,0.1s0.1,0.2,0.1,0.4v0.3
			c0,0.2,0,0.3-0.1,0.4c0,0.1-0.1,0.1-0.2,0.1h-4.1v3.6h3.8c0.1,0,0.2,0,0.2,0.1c0,0.1,0.1,0.2,0.1,0.4v0.3c0,0.2,0,0.3-0.1,0.4
			c0,0.1-0.1,0.1-0.2,0.1h-3.8v4.8c0,0.2-0.2,0.4-0.6,0.4h-0.1C431.2,277.1,431,276.9,431,276.7z"/>
		<path class="st1" d="M439.7,275.7c-0.8-0.9-1.3-2.4-1.3-4.3c0-3.8,1.7-5.7,5.2-5.7c0.5,0,1,0.1,1.5,0.2c0.5,0.1,0.9,0.2,1.2,0.4
			c0.3,0.1,0.4,0.3,0.4,0.4c0,0.1-0.1,0.3-0.2,0.6c-0.1,0.2-0.2,0.4-0.3,0.4c0,0-0.2-0.1-0.4-0.2c-0.2-0.1-0.5-0.2-0.9-0.4
			c-0.3-0.1-0.7-0.2-1.2-0.2c-1.3,0-2.2,0.4-2.8,1.1c-0.6,0.7-0.9,1.9-0.9,3.4c0,1.5,0.3,2.7,0.9,3.4c0.6,0.7,1.5,1.1,2.8,1.1
			c0.5,0,1-0.1,1.3-0.2c0.4-0.1,0.7-0.3,1.1-0.5c0.1-0.1,0.3-0.1,0.3-0.1c0.1,0,0.2,0.1,0.4,0.4c0.1,0.2,0.2,0.4,0.2,0.5
			c0,0.2-0.2,0.3-0.5,0.5c-0.3,0.2-0.7,0.3-1.2,0.4c-0.5,0.1-1,0.2-1.6,0.2C441.8,277.1,440.5,276.7,439.7,275.7z"/>
		<path class="st1" d="M449,276.7v-10.4c0-0.2,0-0.3,0.1-0.4c0.1-0.1,0.2-0.1,0.4-0.1h5c0.1,0,0.2,0,0.2,0.1s0.1,0.2,0.1,0.4v0.3
			c0,0.2,0,0.3-0.1,0.4c0,0.1-0.1,0.1-0.2,0.1h-4.1v3.6h3.8c0.1,0,0.2,0,0.2,0.1c0,0.1,0.1,0.2,0.1,0.4v0.3c0,0.2,0,0.3-0.1,0.4
			c0,0.1-0.1,0.1-0.2,0.1h-3.8v4.8c0,0.2-0.2,0.4-0.6,0.4h-0.1C449.2,277.1,449,276.9,449,276.7z"/>
		<path class="st1" d="M457.6,276.7c-0.1-0.2-0.2-0.4-0.2-0.5c0-0.1,0-0.1,0.1-0.2c1.1-0.4,1.9-1,2.6-1.8s1.1-1.6,1.4-2.5
			c-0.6,0.4-1.3,0.5-2.2,0.5c-0.6,0-1.1-0.1-1.5-0.4c-0.5-0.3-0.8-0.6-1.1-1.1c-0.3-0.5-0.4-1.1-0.4-1.7c0-0.7,0.2-1.2,0.5-1.8
			s0.7-0.9,1.2-1.2c0.5-0.3,1.1-0.4,1.8-0.4c1.1,0,2,0.3,2.5,1c0.6,0.7,0.9,1.7,0.9,3c0,1.4-0.3,2.7-1,3.8c-0.7,1.1-1.4,2-2.3,2.6
			c-0.8,0.6-1.5,0.9-1.9,0.9C457.9,277.1,457.7,277,457.6,276.7z M461.8,270.6c0-0.4,0.1-0.7,0.1-1c0-1-0.2-1.7-0.6-2.1
			c-0.4-0.4-0.9-0.6-1.5-0.6c-0.3,0-0.6,0.1-0.9,0.2c-0.3,0.2-0.6,0.4-0.8,0.7c-0.2,0.3-0.3,0.7-0.3,1.2c0,0.7,0.2,1.3,0.6,1.6
			c0.4,0.4,0.9,0.5,1.5,0.5C460.5,271.2,461.2,271,461.8,270.6z"/>
		<path class="st1" d="M465.7,276.9c-0.1-0.1-0.1-0.2-0.1-0.4v-10.2c0-0.2,0-0.3,0.1-0.4c0.1-0.1,0.2-0.1,0.4-0.1h3.2
			c1.5,0,2.7,0.4,3.6,1.3c0.9,0.9,1.4,2.3,1.4,4.3c0,2-0.5,3.4-1.4,4.3c-0.9,0.9-2.1,1.3-3.6,1.3h-3.2
			C465.9,277,465.8,277,465.7,276.9z M469.2,275.8c1.1,0,1.9-0.4,2.6-1.1c0.7-0.7,1-1.8,1-3.3c0-1.5-0.3-2.6-1-3.3s-1.5-1.1-2.6-1.1
			H467v8.8H469.2z"/>
	</g>
	<path class="st6" d="M400.7,283h-19.5c-0.9,0-1.6-0.7-1.6-1.6V262c0-0.9,0.7-1.6,1.6-1.6h19.5c0.9,0,1.6,0.7,1.6,1.6v19.5
		C402.3,282.3,401.6,283,400.7,283z"/>
</g>
<g>
	<path class="st3" d="M166.6,55.1c0.2-0.2,0.5-0.2,0.7,0l0.5,0.5c0.2,0.2,0.2,0.5,0,0.7l-3.4,3.4l3.4,3.4c0.2,0.2,0.2,0.5,0,0.7
		l-0.5,0.5c-0.2,0.2-0.5,0.2-0.7,0l-4.3-4.3c-0.2-0.2-0.2-0.5,0-0.7L166.6,55.1z"/>
</g>
<g>
	<path class="st2" d="M332.5,120.9H154.1c-1.3,0-2.4-1.1-2.4-2.4V89.9c0-1.3,1.1-2.4,2.4-2.4h178.4c1.3,0,2.4,1.1,2.4,2.4v28.6
		C334.9,119.8,333.9,120.9,332.5,120.9z"/>
	<g>
		<path class="st3" d="M164.7,108.1c-0.1-0.1-0.1-0.1-0.1-0.2v-7.2c0-0.1,0-0.2,0.1-0.3c0.1-0.1,0.2-0.1,0.3-0.1h2.3
			c0.7,0,1.3,0.2,1.8,0.5s0.8,1,0.8,1.9c0,0.6-0.2,1.1-0.5,1.5s-0.6,0.6-1,0.7c-0.4,0.1-0.7,0.2-1,0.2h-1.4v2.8
			c0,0.2-0.2,0.3-0.6,0.3h-0.3C165,108.2,164.8,108.2,164.7,108.1z M167.3,103.8c0.3,0,0.6-0.1,0.8-0.3c0.2-0.2,0.3-0.5,0.3-0.9
			c0-0.4-0.1-0.7-0.3-0.9c-0.2-0.2-0.5-0.2-0.8-0.2h-1.2v2.3H167.3z"/>
		<path class="st3" d="M171,107.9v-3.7c0-0.5,0-0.9-0.1-1.1s-0.1-0.4-0.1-0.4c0-0.1,0.1-0.2,0.4-0.2c0.2-0.1,0.5-0.1,0.7-0.1
			c0.1,0,0.2,0.1,0.3,0.2s0.1,0.2,0.1,0.3c0,0.1,0,0.2,0.1,0.2c0.3-0.6,0.8-0.8,1.2-0.8c0.2,0,0.4,0.1,0.5,0.2s0.2,0.2,0.2,0.4
			c0,0.1,0,0.3-0.1,0.5c-0.1,0.2-0.1,0.3-0.2,0.3c0,0-0.1,0-0.2-0.1c-0.1,0-0.2-0.1-0.3-0.1c-0.2,0-0.4,0.1-0.6,0.2
			c-0.2,0.1-0.3,0.3-0.4,0.4v3.8c0,0.2-0.2,0.3-0.6,0.3h-0.2C171.2,108.2,171,108.1,171,107.9z"/>
		<path class="st3" d="M175,101.1v-0.7c0-0.2,0.2-0.4,0.7-0.4c0.5,0,0.7,0.1,0.7,0.4v0.7c0,0.1-0.1,0.2-0.2,0.3s-0.3,0.1-0.6,0.1
			C175.3,101.5,175,101.3,175,101.1z M175.1,107.9v-5.3c0-0.2,0.2-0.3,0.6-0.3h0.2c0.4,0,0.6,0.1,0.6,0.3v5.3c0,0.2-0.2,0.3-0.6,0.3
			h-0.2C175.3,108.2,175.1,108.1,175.1,107.9z"/>
		<path class="st3" d="M186,104.1v3.8c0,0.2-0.2,0.3-0.6,0.3h-0.2c-0.4,0-0.6-0.1-0.6-0.3v-3.6c0-0.6-0.3-0.8-0.8-0.8
			c-0.2,0-0.5,0.1-0.6,0.2c-0.2,0.1-0.3,0.3-0.4,0.5v3.8c0,0.2-0.2,0.3-0.6,0.3h-0.2c-0.2,0-0.4,0-0.5-0.1s-0.1-0.1-0.1-0.2v-3.6
			c0-0.6-0.3-0.8-0.8-0.8c-0.3,0-0.5,0.1-0.7,0.2c-0.2,0.2-0.3,0.3-0.4,0.5v3.8c0,0.2-0.2,0.3-0.6,0.3h-0.2c-0.4,0-0.6-0.1-0.6-0.3
			v-3.7c0-0.5,0-0.9-0.1-1.1s-0.1-0.4-0.1-0.4c0-0.1,0.1-0.2,0.4-0.2c0.2-0.1,0.5-0.1,0.7-0.1c0.1,0,0.2,0.1,0.3,0.2
			s0.1,0.2,0.1,0.3c0,0.1,0,0.2,0.1,0.2c0.2-0.2,0.4-0.4,0.7-0.6c0.3-0.2,0.6-0.2,1-0.2c0.8,0,1.3,0.3,1.5,0.9
			c0.2-0.2,0.5-0.5,0.8-0.6c0.3-0.2,0.6-0.3,1-0.3C185.5,102.2,186,102.8,186,104.1z"/>
		<path class="st3" d="M187.7,107.8c-0.3-0.3-0.5-0.7-0.5-1.2c0-1.4,1.1-2.1,3.4-2.1v-0.4c0-0.5-0.3-0.7-1-0.7c-0.3,0-0.5,0-0.7,0.1
			c-0.2,0.1-0.4,0.1-0.6,0.2c-0.2,0.1-0.2,0.1-0.3,0.1c-0.1,0-0.2-0.1-0.3-0.3c-0.1-0.2-0.2-0.4-0.2-0.5c0-0.1,0.1-0.2,0.3-0.4
			s0.5-0.2,0.8-0.3c0.3-0.1,0.7-0.1,1.1-0.1c0.8,0,1.4,0.2,1.8,0.5c0.4,0.3,0.6,0.8,0.6,1.3v2.3c0,0.5,0,0.9,0.1,1.1
			s0.1,0.4,0.1,0.4c0,0.1-0.1,0.2-0.4,0.2s-0.5,0.1-0.7,0.1c-0.1,0-0.2-0.1-0.3-0.2c-0.1-0.1-0.1-0.2-0.1-0.4c0-0.1,0-0.2,0-0.3
			c-0.2,0.2-0.4,0.4-0.7,0.6c-0.3,0.2-0.6,0.3-1.1,0.3C188.5,108.3,188,108.1,187.7,107.8z M190.1,106.9c0.2-0.1,0.4-0.3,0.6-0.5
			v-0.9c-0.6,0-1.1,0.1-1.4,0.2s-0.5,0.4-0.5,0.7c0,0.2,0.1,0.4,0.2,0.5s0.3,0.2,0.5,0.2C189.7,107.1,189.9,107.1,190.1,106.9z"/>
		<path class="st3" d="M193.7,101.1v-0.7c0-0.2,0.2-0.4,0.7-0.4c0.5,0,0.7,0.1,0.7,0.4v0.7c0,0.1-0.1,0.2-0.2,0.3s-0.3,0.1-0.6,0.1
			C193.9,101.5,193.7,101.3,193.7,101.1z M193.7,107.9v-5.3c0-0.2,0.2-0.3,0.6-0.3h0.2c0.4,0,0.6,0.1,0.6,0.3v5.3
			c0,0.2-0.2,0.3-0.6,0.3h-0.2C193.9,108.2,193.7,108.1,193.7,107.9z"/>
		<path class="st3" d="M196.7,107.9v-3.7c0-0.5,0-0.9-0.1-1.1s-0.1-0.4-0.1-0.4c0-0.1,0.1-0.2,0.4-0.2c0.2-0.1,0.5-0.1,0.7-0.1
			c0.1,0,0.2,0.1,0.3,0.2s0.1,0.2,0.1,0.3c0,0.1,0,0.2,0.1,0.2c0.3-0.6,0.8-0.8,1.2-0.8c0.2,0,0.4,0.1,0.5,0.2s0.2,0.2,0.2,0.4
			c0,0.1,0,0.3-0.1,0.5c-0.1,0.2-0.1,0.3-0.2,0.3c0,0-0.1,0-0.2-0.1c-0.1,0-0.2-0.1-0.3-0.1c-0.2,0-0.4,0.1-0.6,0.2
			c-0.2,0.1-0.3,0.3-0.4,0.4v3.8c0,0.2-0.2,0.3-0.6,0.3h-0.2C196.9,108.2,196.7,108.1,196.7,107.9z"/>
		<path class="st3" d="M201.3,107.5c-0.5-0.5-0.7-1.3-0.7-2.2c0-1,0.2-1.8,0.7-2.3c0.5-0.5,1.1-0.8,2-0.8c0.8,0,1.4,0.3,1.8,0.8
			c0.4,0.5,0.6,1.2,0.6,2.1c0,0.1-0.1,0.2-0.2,0.4s-0.2,0.2-0.3,0.2H202c0,0.5,0.2,0.9,0.4,1.1s0.6,0.3,1,0.3c0.4,0,0.8-0.1,1.2-0.3
			c0.1-0.1,0.2-0.1,0.2-0.1c0.1,0,0.2,0.1,0.3,0.3c0.1,0.2,0.2,0.4,0.2,0.5c0,0.1-0.1,0.3-0.3,0.4c-0.2,0.1-0.5,0.2-0.8,0.3
			c-0.3,0.1-0.6,0.1-0.9,0.1C202.5,108.3,201.7,108,201.3,107.5z M204.2,104.7c0-0.4-0.1-0.8-0.3-1c-0.2-0.2-0.4-0.4-0.7-0.4
			c-0.7,0-1.1,0.5-1.2,1.4H204.2z"/>
		<path class="st3" d="M211.6,108c-0.3-0.1-0.5-0.4-0.7-0.6c0,0.2-0.1,0.4-0.1,0.6c0,0.1-0.1,0.2-0.2,0.2c-0.1,0-0.2,0.1-0.4,0.1
			h-0.1c-0.4,0-0.6-0.1-0.6-0.3V100c0-0.2,0.2-0.3,0.6-0.3h0.2c0.4,0,0.6,0.1,0.6,0.3v2.6c0.4-0.3,0.8-0.4,1.3-0.4
			c0.7,0,1.3,0.3,1.7,0.8c0.4,0.5,0.6,1.3,0.6,2.2c0,0.6-0.1,1.2-0.3,1.6c-0.2,0.5-0.4,0.8-0.8,1c-0.3,0.2-0.7,0.4-1.1,0.4
			C212.2,108.3,211.9,108.2,211.6,108z M212.9,106.6c0.2-0.3,0.3-0.8,0.3-1.4c0-1.2-0.4-1.8-1.2-1.8c-0.4,0-0.7,0.1-1,0.3v2.7
			c0.2,0.2,0.3,0.4,0.5,0.5c0.2,0.1,0.4,0.2,0.6,0.2C212.5,107.1,212.8,106.9,212.9,106.6z"/>
		<path class="st3" d="M215.9,106.4v-3.8c0-0.1,0-0.2,0.1-0.2c0.1-0.1,0.2-0.1,0.5-0.1h0.2c0.4,0,0.6,0.1,0.6,0.3v3.6
			c0,0.6,0.3,0.8,0.8,0.8c0.2,0,0.4-0.1,0.6-0.2c0.2-0.1,0.3-0.3,0.5-0.5v-3.8c0-0.2,0.2-0.3,0.6-0.3h0.2c0.4,0,0.6,0.1,0.6,0.3v3.7
			c0,0.5,0,0.9,0.1,1.1s0.1,0.4,0.1,0.4c0,0.1-0.1,0.2-0.4,0.2c-0.2,0.1-0.5,0.1-0.7,0.1c-0.1,0-0.2-0.1-0.3-0.2
			c-0.1-0.1-0.1-0.2-0.1-0.4c0-0.1,0-0.2-0.1-0.3c-0.2,0.2-0.5,0.5-0.8,0.6c-0.3,0.2-0.6,0.2-1,0.2
			C216.5,108.3,215.9,107.7,215.9,106.4z"/>
		<path class="st3" d="M222.9,107.9c-0.3-0.3-0.4-0.7-0.4-1.3v-3.1h-0.3c-0.1,0-0.2,0-0.2-0.1c0-0.1-0.1-0.2-0.1-0.4v-0.2
			c0-0.2,0-0.3,0.1-0.4c0-0.1,0.1-0.1,0.2-0.1h0.3l0.1-1.1c0-0.2,0.2-0.3,0.5-0.3h0.3c0.3,0,0.5,0.1,0.5,0.3v1.1h0.7
			c0.1,0,0.2,0,0.2,0.1c0,0.1,0.1,0.2,0.1,0.4v0.2c0,0.2,0,0.3-0.1,0.4c0,0.1-0.1,0.1-0.2,0.1h-0.7v3.1c0,0.2,0,0.4,0.1,0.5
			c0.1,0.1,0.2,0.1,0.4,0.1c0.1,0,0.1,0,0.2,0c0.1,0,0.1,0,0.2,0c0.1,0,0.2,0.1,0.2,0.3c0.1,0.2,0.1,0.3,0.1,0.4
			c0,0.3-0.3,0.5-1,0.5C223.5,108.3,223.2,108.1,222.9,107.9z"/>
		<path class="st3" d="M226.7,107.9c-0.3-0.3-0.4-0.7-0.4-1.3v-3.1H226c-0.1,0-0.2,0-0.2-0.1c0-0.1-0.1-0.2-0.1-0.4v-0.2
			c0-0.2,0-0.3,0.1-0.4c0-0.1,0.1-0.1,0.2-0.1h0.3l0.1-1.1c0-0.2,0.2-0.3,0.5-0.3h0.3c0.3,0,0.5,0.1,0.5,0.3v1.1h0.7
			c0.1,0,0.2,0,0.2,0.1c0,0.1,0.1,0.2,0.1,0.4v0.2c0,0.2,0,0.3-0.1,0.4c0,0.1-0.1,0.1-0.2,0.1h-0.7v3.1c0,0.2,0,0.4,0.1,0.5
			c0.1,0.1,0.2,0.1,0.4,0.1c0.1,0,0.1,0,0.2,0c0.1,0,0.1,0,0.2,0c0.1,0,0.2,0.1,0.2,0.3c0.1,0.2,0.1,0.3,0.1,0.4
			c0,0.3-0.3,0.5-1,0.5C227.4,108.3,227,108.1,226.7,107.9z"/>
		<path class="st3" d="M230.4,107.5c-0.5-0.5-0.7-1.3-0.7-2.2c0-1,0.2-1.7,0.7-2.2c0.5-0.5,1.1-0.8,2-0.8c0.9,0,1.5,0.3,2,0.8
			c0.5,0.5,0.7,1.3,0.7,2.2s-0.2,1.7-0.7,2.2s-1.1,0.8-2,0.8C231.5,108.3,230.8,108,230.4,107.5z M233.3,106.7
			c0.2-0.3,0.3-0.8,0.3-1.4c0-0.6-0.1-1.1-0.3-1.4c-0.2-0.3-0.5-0.5-0.9-0.5s-0.7,0.2-0.9,0.5c-0.2,0.3-0.3,0.8-0.3,1.4
			c0,0.6,0.1,1.1,0.3,1.4c0.2,0.3,0.5,0.5,0.9,0.5S233.1,107,233.3,106.7z"/>
		<path class="st3" d="M236.3,107.9v-3.7c0-0.5,0-0.9-0.1-1.1s-0.1-0.4-0.1-0.4c0-0.1,0.1-0.2,0.4-0.2c0.2-0.1,0.5-0.1,0.7-0.1
			c0.1,0,0.2,0.1,0.3,0.2c0.1,0.1,0.1,0.2,0.1,0.3c0,0.1,0,0.2,0.1,0.2c0.2-0.2,0.4-0.5,0.7-0.6c0.3-0.2,0.6-0.2,1-0.2
			c1.1,0,1.7,0.6,1.7,1.8v3.8c0,0.1,0,0.2-0.1,0.2s-0.2,0.1-0.5,0.1h-0.2c-0.4,0-0.6-0.1-0.6-0.3v-3.6c0-0.6-0.3-0.8-0.8-0.8
			c-0.2,0-0.4,0.1-0.6,0.2c-0.2,0.1-0.3,0.3-0.5,0.5v3.8c0,0.2-0.2,0.3-0.6,0.3h-0.2C236.5,108.2,236.3,108.1,236.3,107.9z"/>
		<path class="st3" d="M245.3,101.1v-0.7c0-0.2,0.2-0.4,0.7-0.4c0.5,0,0.7,0.1,0.7,0.4v0.7c0,0.1-0.1,0.2-0.2,0.3s-0.3,0.1-0.6,0.1
			C245.5,101.5,245.3,101.3,245.3,101.1z M245.3,107.9v-5.3c0-0.2,0.2-0.3,0.6-0.3h0.2c0.4,0,0.6,0.1,0.6,0.3v5.3
			c0,0.2-0.2,0.3-0.6,0.3h-0.2C245.5,108.2,245.3,108.1,245.3,107.9z"/>
		<path class="st3" d="M248.7,107.5c-0.5-0.5-0.7-1.2-0.7-2.3c0-1,0.2-1.8,0.7-2.3c0.5-0.5,1.2-0.7,2.1-0.7c0.5,0,0.9,0.1,1.2,0.2
			c0.4,0.1,0.6,0.3,0.6,0.5c0,0.1-0.1,0.3-0.2,0.5c-0.1,0.2-0.2,0.3-0.3,0.3c0,0-0.1,0-0.2-0.1c-0.3-0.2-0.7-0.3-1.1-0.3
			c-0.5,0-0.8,0.1-1.1,0.4c-0.2,0.3-0.3,0.8-0.3,1.4c0,0.7,0.1,1.1,0.3,1.4c0.2,0.3,0.6,0.5,1.1,0.5c0.2,0,0.4,0,0.6-0.1
			c0.2,0,0.4-0.1,0.5-0.2c0.1,0,0.1-0.1,0.2-0.1c0.1,0,0.2,0.1,0.3,0.3c0.1,0.2,0.2,0.3,0.2,0.5c0,0.1-0.1,0.3-0.3,0.4
			c-0.2,0.1-0.5,0.2-0.8,0.2s-0.6,0.1-0.8,0.1C249.9,108.3,249.2,108,248.7,107.5z"/>
		<path class="st3" d="M254.2,107.5c-0.5-0.5-0.7-1.3-0.7-2.2c0-1,0.2-1.7,0.7-2.2c0.5-0.5,1.1-0.8,2-0.8c0.9,0,1.5,0.3,2,0.8
			c0.5,0.5,0.7,1.3,0.7,2.2s-0.2,1.7-0.7,2.2s-1.1,0.8-2,0.8C255.3,108.3,254.6,108,254.2,107.5z M257.1,106.7
			c0.2-0.3,0.3-0.8,0.3-1.4c0-0.6-0.1-1.1-0.3-1.4c-0.2-0.3-0.5-0.5-0.9-0.5s-0.7,0.2-0.9,0.5c-0.2,0.3-0.3,0.8-0.3,1.4
			c0,0.6,0.1,1.1,0.3,1.4c0.2,0.3,0.5,0.5,0.9,0.5S256.9,107,257.1,106.7z"/>
		<path class="st3" d="M260.6,107.5c-0.5-0.5-0.7-1.3-0.7-2.2c0-1,0.2-1.7,0.7-2.2c0.5-0.5,1.1-0.8,2-0.8c0.9,0,1.5,0.3,2,0.8
			c0.5,0.5,0.7,1.3,0.7,2.2s-0.2,1.7-0.7,2.2s-1.1,0.8-2,0.8C261.7,108.3,261,108,260.6,107.5z M263.5,106.7
			c0.2-0.3,0.3-0.8,0.3-1.4c0-0.6-0.1-1.1-0.3-1.4c-0.2-0.3-0.5-0.5-0.9-0.5s-0.7,0.2-0.9,0.5c-0.2,0.3-0.3,0.8-0.3,1.4
			c0,0.6,0.1,1.1,0.3,1.4c0.2,0.3,0.5,0.5,0.9,0.5S263.3,107,263.5,106.7z"/>
		<path class="st3" d="M266.5,107.9v-3.7c0-0.5,0-0.9-0.1-1.1s-0.1-0.4-0.1-0.4c0-0.1,0.1-0.2,0.4-0.2c0.2-0.1,0.5-0.1,0.7-0.1
			c0.1,0,0.2,0.1,0.3,0.2c0.1,0.1,0.1,0.2,0.1,0.3c0,0.1,0,0.2,0.1,0.2c0.2-0.2,0.4-0.5,0.7-0.6c0.3-0.2,0.6-0.2,1-0.2
			c1.1,0,1.7,0.6,1.7,1.8v3.8c0,0.1,0,0.2-0.1,0.2s-0.2,0.1-0.5,0.1h-0.2c-0.4,0-0.6-0.1-0.6-0.3v-3.6c0-0.6-0.3-0.8-0.8-0.8
			c-0.2,0-0.4,0.1-0.6,0.2c-0.2,0.1-0.3,0.3-0.5,0.5v3.8c0,0.2-0.2,0.3-0.6,0.3h-0.2C266.7,108.2,266.5,108.1,266.5,107.9z"/>
		<path class="st3" d="M275.7,107.8c-0.3-0.3-0.5-0.7-0.5-1.2c0-1.4,1.1-2.1,3.4-2.1v-0.4c0-0.5-0.3-0.7-1-0.7c-0.3,0-0.5,0-0.7,0.1
			c-0.2,0.1-0.4,0.1-0.6,0.2c-0.2,0.1-0.2,0.1-0.3,0.1c-0.1,0-0.2-0.1-0.3-0.3c-0.1-0.2-0.2-0.4-0.2-0.5c0-0.1,0.1-0.2,0.3-0.4
			s0.5-0.2,0.8-0.3c0.3-0.1,0.7-0.1,1.1-0.1c0.8,0,1.4,0.2,1.8,0.5c0.4,0.3,0.6,0.8,0.6,1.3v2.3c0,0.5,0,0.9,0.1,1.1
			s0.1,0.4,0.1,0.4c0,0.1-0.1,0.2-0.4,0.2s-0.5,0.1-0.7,0.1c-0.1,0-0.2-0.1-0.3-0.2c-0.1-0.1-0.1-0.2-0.1-0.4c0-0.1,0-0.2,0-0.3
			c-0.2,0.2-0.4,0.4-0.7,0.6c-0.3,0.2-0.6,0.3-1.1,0.3C276.4,108.3,276,108.1,275.7,107.8z M278.1,106.9c0.2-0.1,0.4-0.3,0.6-0.5
			v-0.9c-0.6,0-1.1,0.1-1.4,0.2s-0.5,0.4-0.5,0.7c0,0.2,0.1,0.4,0.2,0.5s0.3,0.2,0.5,0.2C277.6,107.1,277.9,107.1,278.1,106.9z"/>
		<path class="st3" d="M282.1,107.5c-0.5-0.5-0.7-1.2-0.7-2.3c0-1,0.2-1.8,0.7-2.3c0.5-0.5,1.2-0.7,2.1-0.7c0.5,0,0.9,0.1,1.2,0.2
			c0.4,0.1,0.6,0.3,0.6,0.5c0,0.1-0.1,0.3-0.2,0.5c-0.1,0.2-0.2,0.3-0.3,0.3c0,0-0.1,0-0.2-0.1c-0.3-0.2-0.7-0.3-1.1-0.3
			c-0.5,0-0.8,0.1-1.1,0.4c-0.2,0.3-0.3,0.8-0.3,1.4c0,0.7,0.1,1.1,0.3,1.4c0.2,0.3,0.6,0.5,1.1,0.5c0.2,0,0.4,0,0.6-0.1
			c0.2,0,0.4-0.1,0.5-0.2c0.1,0,0.1-0.1,0.2-0.1c0.1,0,0.2,0.1,0.3,0.3c0.1,0.2,0.2,0.3,0.2,0.5c0,0.1-0.1,0.3-0.3,0.4
			c-0.2,0.1-0.5,0.2-0.8,0.2s-0.6,0.1-0.8,0.1C283.2,108.3,282.5,108,282.1,107.5z"/>
		<path class="st3" d="M287.2,107.9V100c0-0.2,0.2-0.3,0.6-0.3h0.2c0.4,0,0.6,0.1,0.6,0.3v3c0.2-0.2,0.4-0.4,0.7-0.6
			s0.6-0.2,0.9-0.2c0.5,0,1,0.1,1.3,0.4s0.5,0.8,0.5,1.4v3.8c0,0.2-0.2,0.3-0.6,0.3h-0.2c-0.4,0-0.6-0.1-0.6-0.3v-3.6
			c0-0.3-0.1-0.5-0.2-0.6c-0.1-0.1-0.4-0.2-0.6-0.2c-0.3,0-0.5,0.1-0.7,0.2c-0.2,0.2-0.3,0.3-0.4,0.5v3.8c0,0.2-0.2,0.3-0.6,0.3
			h-0.2C287.3,108.2,287.2,108.1,287.2,107.9z"/>
		<path class="st3" d="M294.1,107.9c-0.3-0.3-0.4-0.7-0.4-1.3v-3.1h-0.3c-0.1,0-0.2,0-0.2-0.1c0-0.1-0.1-0.2-0.1-0.4v-0.2
			c0-0.2,0-0.3,0.1-0.4c0-0.1,0.1-0.1,0.2-0.1h0.3l0.1-1.1c0-0.2,0.2-0.3,0.5-0.3h0.3c0.3,0,0.5,0.1,0.5,0.3v1.1h0.7
			c0.1,0,0.2,0,0.2,0.1c0,0.1,0.1,0.2,0.1,0.4v0.2c0,0.2,0,0.3-0.1,0.4c0,0.1-0.1,0.1-0.2,0.1h-0.7v3.1c0,0.2,0,0.4,0.1,0.5
			c0.1,0.1,0.2,0.1,0.4,0.1c0.1,0,0.1,0,0.2,0c0.1,0,0.1,0,0.2,0c0.1,0,0.2,0.1,0.2,0.3c0.1,0.2,0.1,0.3,0.1,0.4
			c0,0.3-0.3,0.5-1,0.5C294.7,108.3,294.4,108.1,294.1,107.9z"/>
		<path class="st3" d="M297.7,107.5c-0.5-0.5-0.7-1.3-0.7-2.2c0-1,0.2-1.8,0.7-2.3c0.5-0.5,1.1-0.8,2-0.8c0.8,0,1.4,0.3,1.8,0.8
			c0.4,0.5,0.6,1.2,0.6,2.1c0,0.1-0.1,0.2-0.2,0.4s-0.2,0.2-0.3,0.2h-3.1c0,0.5,0.2,0.9,0.4,1.1s0.6,0.3,1,0.3
			c0.4,0,0.8-0.1,1.2-0.3c0.1-0.1,0.2-0.1,0.2-0.1c0.1,0,0.2,0.1,0.3,0.3c0.1,0.2,0.2,0.4,0.2,0.5c0,0.1-0.1,0.3-0.3,0.4
			c-0.2,0.1-0.5,0.2-0.8,0.3c-0.3,0.1-0.6,0.1-0.9,0.1C298.9,108.3,298.2,108,297.7,107.5z M300.7,104.7c0-0.4-0.1-0.8-0.3-1
			c-0.2-0.2-0.4-0.4-0.7-0.4c-0.7,0-1.1,0.5-1.2,1.4H300.7z"/>
		<path class="st3" d="M303.4,107.9v-3.7c0-0.5,0-0.9-0.1-1.1s-0.1-0.4-0.1-0.4c0-0.1,0.1-0.2,0.4-0.2c0.2-0.1,0.5-0.1,0.7-0.1
			c0.1,0,0.2,0.1,0.3,0.2s0.1,0.2,0.1,0.3c0,0.1,0,0.2,0.1,0.2c0.3-0.6,0.8-0.8,1.2-0.8c0.2,0,0.4,0.1,0.5,0.2s0.2,0.2,0.2,0.4
			c0,0.1,0,0.3-0.1,0.5c-0.1,0.2-0.1,0.3-0.2,0.3c0,0-0.1,0-0.2-0.1c-0.1,0-0.2-0.1-0.3-0.1c-0.2,0-0.4,0.1-0.6,0.2
			c-0.2,0.1-0.3,0.3-0.4,0.4v3.8c0,0.2-0.2,0.3-0.6,0.3H304C303.6,108.2,303.4,108.1,303.4,107.9z"/>
	</g>
</g>
<g>
	<path class="st3" d="M322.2,104.6c0.2,0.2,0.2,0.5,0,0.7l-4.3,4.3c-0.2,0.2-0.5,0.2-0.7,0l-0.5-0.5c-0.2-0.2-0.2-0.5,0-0.7l3.4-3.4
		l-3.4-3.4c-0.2-0.2-0.2-0.5,0-0.7l0.5-0.5c0.2-0.2,0.5-0.2,0.7,0L322.2,104.6z"/>
</g>
<line class="st7" x1="30.6" y1="155.8" x2="107.5" y2="155.8"/>
<g>
</g>
<g>
</g>
<g>
</g>
<g>
</g>
<g>
</g>
<g>
</g>
</svg>
