<?xml version="1.0" standalone="no"?>
<!DOCTYPE svg PUBLIC "-//W3C//DTD SVG 1.1//EN" "http://www.w3.org/Graphics/SVG/1.1/DTD/svg11.dtd">
<svg width="100%" height="100%" viewBox="0 0 296 87" version="1.1" xmlns="http://www.w3.org/2000/svg" xmlns:xlink="http://www.w3.org/1999/xlink" xml:space="preserve" style="fill-rule:evenodd;clip-rule:evenodd;stroke-linejoin:round;stroke-miterlimit:1.41421;">
    <path d="M84.1584,18.6896L89.3019,36.3557L85.2625,36.3557L84.293,32.5586L78.3145,32.5586L77.3451,36.3557L73.7096,36.3557L78.8801,18.6896L84.1584,18.6896ZM83.5659,29.7847L81.3845,21.598L81.1961,21.598L79.0148,29.7847L83.5659,29.7847ZM101.528,27.6304L101.528,36.3557L98.4579,36.3557L98.4579,35.5208C97.9379,35.862 97.3805,36.1133 96.7885,36.2749C96.1965,36.4365 95.5048,36.5173 94.7145,36.5173C93.3325,36.5173 92.2823,36.1672 91.5551,35.476C90.828,34.7847 90.469,33.8871 90.469,32.7651C90.469,31.5083 90.9537,30.485 91.9321,29.695C92.9106,28.9051 94.455,28.5101 96.5546,28.5101C96.896,28.5101 97.2197,28.5191 97.5245,28.5281C97.8294,28.5371 98.1077,28.5371 98.3593,28.5371L98.3593,27.9446C98.3593,27.2623 98.1353,26.7327 97.6952,26.3557C97.2552,25.9787 96.4836,25.7902 95.3973,25.7902C94.751,25.7902 94.1403,25.853 93.5659,25.9787C92.9914,26.1044 92.345,26.3108 91.6269,26.598L91.1961,23.8243C92.0219,23.4831 92.8118,23.2318 93.5749,23.0703C94.3376,22.9086 95.1457,22.8278 96.008,22.8278C97.8837,22.8278 99.2838,23.2408 100.182,24.0846C101.079,24.9284 101.528,26.1044 101.528,27.6304ZM93.8265,32.5047C93.8265,32.9536 93.9873,33.3036 94.3198,33.5549C94.6523,33.8064 95.119,33.932 95.7022,33.932C96.2054,33.932 96.6632,33.8871 97.0756,33.7794C97.489,33.6806 97.9103,33.5371 98.3415,33.3396L98.3415,30.8889C98.0899,30.871 97.8028,30.862 97.489,30.853C97.1743,30.844 96.8871,30.835 96.6444,30.835C95.639,30.835 94.9128,30.9877 94.4728,31.2928C94.0416,31.5981 93.8265,32.002 93.8265,32.5047ZM113.055,36.3557L113.055,28.3036C113.055,27.4239 112.856,26.8045 112.462,26.4365C112.067,26.0685 111.492,25.8889 110.738,25.8889C110.289,25.8889 109.885,25.9248 109.526,25.9787C109.167,26.0415 108.764,26.1492 108.315,26.3198L108.315,36.3646L105.002,36.3646L105.002,23.0793L108.207,22.9446L108.207,23.941C108.781,23.546 109.347,23.2678 109.903,23.0971C110.46,22.9266 111.07,22.8368 111.735,22.8368C113.171,22.8368 114.302,23.2498 115.128,24.0666C115.953,24.8835 116.367,26.0685 116.367,27.6035L116.367,36.3557L113.055,36.3557ZM136.645,17.5317L136.645,36.3557L133.44,36.3557L133.44,35.44C132.973,35.7812 132.444,36.0415 131.861,36.239C131.276,36.4275 130.649,36.5173 129.993,36.5173C128.323,36.5173 126.986,35.9607 125.971,34.8566C124.957,33.7524 124.455,32.1277 124.455,29.9733C124.455,27.783 125.128,26.0415 126.474,24.7579C127.821,23.4742 129.499,22.8278 131.51,22.8278C131.833,22.8278 132.148,22.8458 132.444,22.8638C132.74,22.8908 133.037,22.9446 133.342,23.0164L133.342,17.6843L136.645,17.5317ZM131.555,25.6375C130.424,25.6375 129.517,26.0145 128.835,26.7597C128.153,27.5048 127.812,28.5191 127.812,29.8117C127.812,31.1762 128.108,32.1636 128.709,32.7651C129.311,33.3664 130.074,33.6627 131.007,33.6627C131.456,33.6627 131.852,33.6268 132.192,33.546C132.533,33.4652 132.919,33.3216 133.35,33.1241L133.35,25.7722C133.046,25.7363 132.749,25.7004 132.47,25.6825C132.192,25.6645 131.896,25.6375 131.555,25.6375ZM139.554,29.704C139.554,27.4418 140.146,25.7184 141.339,24.5334C142.533,23.3485 143.979,22.7561 145.657,22.7561C147.291,22.7561 148.592,23.2408 149.562,24.2103C150.531,25.1797 151.017,26.5173 151.017,28.2228C151.017,28.6717 151.008,29.1205 150.989,29.5514C150.971,29.9912 150.945,30.3593 150.909,30.6465L142.722,30.6465C142.919,31.7058 143.35,32.4868 144.014,32.9894C144.679,33.4921 145.604,33.7435 146.789,33.7435C147.543,33.7435 148.207,33.6986 148.781,33.5909C149.356,33.4921 149.966,33.3486 150.612,33.1511L150.612,35.844C149.895,36.0595 149.23,36.221 148.62,36.3378C148.009,36.4545 147.255,36.5173 146.358,36.5173C144.275,36.5173 142.614,35.9518 141.385,34.8297C140.163,33.7076 139.554,32.002 139.554,29.704ZM142.731,28.2767L147.847,28.2767C147.847,27.397 147.624,26.6788 147.192,26.1223C146.752,25.5657 146.16,25.2875 145.433,25.2875C144.75,25.2875 144.158,25.5478 143.665,26.0505C143.162,26.5622 142.857,27.3073 142.731,28.2767ZM158.512,36.1672L158.512,33.3126C159.159,33.4742 159.805,33.5909 160.451,33.6627C161.097,33.7345 161.717,33.7704 162.309,33.7704C163.242,33.7704 163.88,33.6537 164.239,33.4293C164.589,33.2049 164.76,32.9176 164.76,32.5496C164.76,32.2444 164.643,31.9841 164.419,31.7866C164.195,31.5801 163.746,31.3826 163.054,31.1852L161.358,30.6735C160.442,30.4042 159.733,29.9822 159.23,29.3988C158.727,28.8153 158.476,28.0523 158.476,27.1008C158.476,25.862 158.979,24.8387 159.984,24.0397C160.99,23.2408 162.399,22.8458 164.212,22.8458C164.822,22.8458 165.406,22.8728 165.98,22.9266C166.546,22.9805 167.049,23.0433 167.498,23.1151L167.309,25.8889C166.717,25.7992 166.169,25.7363 165.658,25.6825C165.146,25.6375 164.616,25.6107 164.059,25.6107C163.251,25.6107 162.677,25.7184 162.318,25.9338C161.959,26.1492 161.779,26.4095 161.779,26.7148C161.779,27.002 161.86,27.2444 162.031,27.4329C162.202,27.6214 162.605,27.8099 163.251,27.9805L164.832,28.4114C165.989,28.7346 166.815,29.2013 167.309,29.7937C167.803,30.3952 168.046,31.1492 168.046,32.0469C168.046,33.4472 167.542,34.5424 166.528,35.3323C165.514,36.1223 164.123,36.5173 162.363,36.5173C161.627,36.5173 160.927,36.4903 160.254,36.4365C159.58,36.3826 159.015,36.2928 158.512,36.1672ZM174.158,17.5317L174.158,36.3557L170.846,36.3557L170.846,17.6932L174.158,17.5317ZM187.892,27.6304L187.892,36.3557L184.823,36.3557L184.823,35.5208C184.302,35.862 183.745,36.1133 183.152,36.2749C182.56,36.4365 181.869,36.5173 181.079,36.5173C179.697,36.5173 178.646,36.1672 177.91,35.476C177.183,34.7847 176.824,33.8871 176.824,32.7651C176.824,31.5083 177.309,30.485 178.296,29.695C179.275,28.9051 180.81,28.5101 182.911,28.5101C183.252,28.5101 183.575,28.5191 183.88,28.5281C184.185,28.5371 184.464,28.5371 184.714,28.5371L184.714,27.9446C184.714,27.2623 184.49,26.7327 184.059,26.3557C183.62,25.9787 182.848,25.7902 181.752,25.7902C181.106,25.7902 180.495,25.853 179.921,25.9787C179.347,26.1044 178.701,26.3108 177.982,26.598L177.551,23.8243C178.377,23.4831 179.167,23.2318 179.93,23.0703C180.694,22.9086 181.501,22.8278 182.363,22.8278C184.239,22.8278 185.64,23.2408 186.537,24.0846C187.435,24.9194 187.892,26.1044 187.892,27.6304ZM180.19,32.5047C180.19,32.9536 180.352,33.3036 180.694,33.5549C181.025,33.8064 181.483,33.932 182.076,33.932C182.578,33.932 183.036,33.8871 183.449,33.7794C183.862,33.6806 184.284,33.5371 184.714,33.3396L184.714,30.8889C184.464,30.871 184.185,30.862 183.871,30.853C183.557,30.844 183.27,30.835 183.018,30.835C182.013,30.835 181.295,30.9877 180.846,31.2928C180.406,31.5981 180.19,32.002 180.19,32.5047ZM193.71,32.774C193.71,33.0613 193.835,33.2946 194.096,33.4652C194.356,33.6357 194.805,33.7255 195.451,33.7255L198.547,33.7524C200.056,33.7704 201.151,34.0667 201.833,34.6322C202.516,35.1977 202.856,35.9966 202.856,37.02C202.856,38.2946 202.291,39.3808 201.16,40.2965C200.029,41.2031 198.234,41.6519 195.774,41.6519C193.835,41.6519 192.398,41.3468 191.447,40.7183C190.505,40.099 190.038,39.282 190.038,38.2497C190.038,37.6214 190.227,37.0559 190.613,36.5353C190.998,36.0235 191.519,35.6465 192.183,35.3952L192.183,35.3144C191.842,35.1887 191.555,34.9643 191.34,34.6412C191.115,34.318 190.998,33.932 190.998,33.4832C190.998,33.0523 191.142,32.6483 191.43,32.2713C191.717,31.8943 192.111,31.607 192.615,31.4095L192.615,31.3288C191.986,31.0235 191.474,30.5837 191.088,29.9912C190.702,29.4077 190.514,28.6986 190.514,27.8548C190.514,26.2749 191.034,25.0451 192.085,24.1654C193.135,23.2856 194.499,22.8458 196.196,22.8458C196.573,22.8458 196.932,22.8728 197.274,22.9266C197.614,22.9805 197.955,23.0523 198.297,23.1421L202.678,23.1421L202.678,25.2964L200.577,25.2964L200.577,25.3772C200.864,25.5567 201.133,25.853 201.366,26.266C201.609,26.6788 201.734,27.1905 201.734,27.8009C201.734,29.2013 201.241,30.2875 200.253,31.0595C199.266,31.8315 197.839,32.2175 195.971,32.2175C195.684,32.2175 195.397,32.1995 195.101,32.1636C194.805,32.1277 194.517,32.0738 194.248,32.002C194.087,32.0738 193.951,32.1905 193.862,32.3431C193.754,32.4778 193.71,32.6304 193.71,32.774ZM193.009,37.5496C193.009,38.0702 193.261,38.4921 193.763,38.7974C194.266,39.1025 195.029,39.2642 196.052,39.2642C197.452,39.2642 198.449,39.1025 199.042,38.7704C199.634,38.4472 199.931,38.0344 199.931,37.5496C199.931,37.1726 199.787,36.8763 199.517,36.6698C199.239,36.4634 198.79,36.3467 198.179,36.3288L193.682,36.1941C193.467,36.3557 193.305,36.5531 193.189,36.7776C193.063,37.002 193.009,37.2623 193.009,37.5496ZM196.16,30.0541C196.985,30.0541 197.623,29.8476 198.063,29.4347C198.503,29.0218 198.727,28.3754 198.727,27.4958C198.727,26.7238 198.521,26.1403 198.108,25.7363C197.695,25.3324 197.057,25.1349 196.196,25.1349C195.442,25.1349 194.823,25.3414 194.356,25.7632C193.88,26.1852 193.638,26.8315 193.638,27.6933C193.638,28.5011 193.862,29.1026 194.302,29.4886C194.724,29.8566 195.353,30.0541 196.16,30.0541ZM226.322,36.3557L226.322,28.3575C226.322,27.4778 226.124,26.8495 225.729,26.4635C225.334,26.0774 224.769,25.88 224.033,25.88C223.584,25.88 223.197,25.9069 222.875,25.9607C222.551,26.0145 222.165,26.1313 221.716,26.3108L221.716,36.3557L218.404,36.3557L218.404,28.3575C218.404,27.4598 218.198,26.8225 217.793,26.4455C217.39,26.0685 216.824,25.88 216.106,25.88C215.639,25.88 215.245,25.9158 214.921,25.9697C214.598,26.0325 214.221,26.1403 213.79,26.3108L213.79,36.3557L210.478,36.3557L210.478,23.0793L213.683,22.9446L213.683,23.941C214.293,23.546 214.858,23.2678 215.388,23.0971C215.918,22.9266 216.51,22.8368 217.184,22.8368C218.045,22.8368 218.763,22.9625 219.337,23.2139C219.913,23.4653 220.406,23.8333 220.818,24.318C221.414,23.8619 222.073,23.4958 222.776,23.2318C223.467,22.9715 224.213,22.8368 225.02,22.8368C226.474,22.8368 227.606,23.2498 228.413,24.0756C229.221,24.9015 229.625,26.0864 229.625,27.6304L229.625,36.3557L226.322,36.3557ZM232.327,29.704C232.327,27.4418 232.92,25.7184 234.123,24.5334C235.316,23.3485 236.752,22.7561 238.44,22.7561C240.074,22.7561 241.376,23.2408 242.345,24.2103C243.314,25.1797 243.799,26.5173 243.799,28.2228C243.799,28.6717 243.79,29.1205 243.772,29.5514C243.754,29.9912 243.727,30.3593 243.691,30.6465L235.505,30.6465C235.702,31.7058 236.133,32.4868 236.797,32.9894C237.461,33.4921 238.386,33.7435 239.571,33.7435C240.325,33.7435 240.99,33.6986 241.564,33.5909C242.138,33.4921 242.749,33.3486 243.395,33.1511L243.395,35.844C242.677,36.0595 242.013,36.221 241.402,36.3378C240.791,36.4545 240.038,36.5173 239.14,36.5173C237.058,36.5173 235.397,35.9518 234.167,34.8297C232.938,33.7076 232.327,32.002 232.327,29.704ZM235.505,28.2767L240.622,28.2767C240.622,27.397 240.397,26.6788 239.957,26.1223C239.518,25.5657 238.925,25.2875 238.198,25.2875C237.516,25.2875 236.923,25.5478 236.438,26.0505C235.935,26.5622 235.63,27.3073 235.505,28.2767ZM245.523,25.5029L245.523,22.9984L247.139,22.9984L247.139,20.5479L250.451,20.2785L250.451,22.9984L253.817,22.9984L253.817,25.5029L250.451,25.5029L250.451,31.5173C250.451,32.2533 250.639,32.7919 251.007,33.1421C251.375,33.4921 251.86,33.6627 252.453,33.6627C252.758,33.6627 253.027,33.6447 253.279,33.6089C253.52,33.5729 253.808,33.5101 254.149,33.4203L254.149,36.1941C253.682,36.3198 253.251,36.4006 252.848,36.4545C252.453,36.4993 251.986,36.5263 251.439,36.5263C250.136,36.5263 249.095,36.1493 248.315,35.3952C247.533,34.6412 247.139,33.5101 247.139,32.002L247.139,25.5119L245.523,25.5119L245.523,25.5029ZM273.18,17.5317L273.18,36.3557L269.975,36.3557L269.975,35.44C269.508,35.7812 268.979,36.0415 268.404,36.239C267.82,36.4275 267.202,36.5173 266.537,36.5173C264.867,36.5173 263.52,35.9607 262.506,34.8566C261.492,33.7524 260.99,32.1277 260.99,29.9733C260.99,27.783 261.662,26.0415 263.009,24.7579C264.356,23.4742 266.034,22.8278 268.045,22.8278C268.368,22.8278 268.683,22.8458 268.979,22.8638C269.275,22.8908 269.58,22.9446 269.876,23.0164L269.876,17.6843L273.18,17.5317ZM268.09,25.6375C266.959,25.6375 266.052,26.0145 265.37,26.7597C264.688,27.5048 264.346,28.5191 264.346,29.8117C264.346,31.1762 264.643,32.1636 265.244,32.7651C265.846,33.3664 266.609,33.6627 267.542,33.6627C267.991,33.6627 268.387,33.6268 268.727,33.546C269.068,33.4652 269.454,33.3216 269.885,33.1241L269.885,25.7722C269.58,25.7363 269.283,25.7004 269.014,25.6825C268.736,25.6465 268.431,25.6375 268.09,25.6375ZM276.089,29.704C276.089,27.4418 276.681,25.7184 277.883,24.5334C279.077,23.3485 280.514,22.7561 282.201,22.7561C283.835,22.7561 285.136,23.2408 286.106,24.2103C287.075,25.1797 287.56,26.5173 287.56,28.2228C287.56,28.6717 287.552,29.1205 287.533,29.5514C287.515,29.9912 287.488,30.3593 287.453,30.6465L279.266,30.6465C279.463,31.7058 279.894,32.4868 280.558,32.9894C281.223,33.4921 282.148,33.7435 283.333,33.7435C284.086,33.7435 284.75,33.6986 285.325,33.5909C285.9,33.4921 286.51,33.3486 287.156,33.1511L287.156,35.844C286.439,36.0595 285.774,36.221 285.164,36.3378C284.553,36.4545 283.799,36.5173 282.901,36.5173C280.819,36.5173 279.158,35.9518 277.929,34.8297C276.698,33.7076 276.089,32.002 276.089,29.704ZM279.266,28.2767L284.382,28.2767C284.382,27.397 284.158,26.6788 283.718,26.1223C283.278,25.5657 282.686,25.2875 281.959,25.2875C281.276,25.2875 280.684,25.5478 280.199,26.0505C279.697,26.5622 279.392,27.3073 279.266,28.2767Z" style="fill:rgb(39,89,55);fill-rule:nonzero;"/>
    <path d="M74.6791,54.6142C74.6791,51.616 75.5408,49.327 77.2733,47.7471C79.0058,46.1671 81.0255,45.3773 83.3325,45.3773C85.6126,45.3773 87.5515,46.1043 89.1674,47.5586C90.7831,49.0128 91.591,51.2569 91.591,54.291C91.591,57.2892 90.7382,59.5783 89.0237,61.1582C87.3092,62.738 85.2984,63.528 82.9914,63.528C80.6934,63.528 78.7364,62.8009 77.1207,61.3467C75.5049,59.8924 74.6791,57.6483 74.6791,54.6142ZM78.3415,54.318C78.3415,56.5082 78.8172,58.0702 79.7598,59.0038C80.7024,59.9374 81.8334,60.4041 83.1529,60.4041C84.3379,60.4041 85.433,59.9463 86.4384,59.0307C87.4349,58.1151 87.9375,56.6339 87.9375,54.5873C87.9375,52.397 87.4708,50.8351 86.5372,49.8925C85.6036,48.95 84.4725,48.4742 83.1619,48.4742C81.9411,48.4742 80.8281,48.932 79.8406,49.8566C78.8352,50.7901 78.3415,52.2712 78.3415,54.318ZM110.55,63.2856L110.55,55.2874C110.55,54.4078 110.352,53.7793 109.958,53.3844C109.562,52.9984 108.997,52.8099 108.26,52.8099C107.812,52.8099 107.426,52.8368 107.103,52.8907C106.779,52.9445 106.394,53.0612 105.945,53.2408L105.945,63.2856L102.633,63.2856L102.633,55.2874C102.633,54.3898 102.426,53.7525 102.031,53.3754C101.627,52.9984 101.062,52.8099 100.343,52.8099C99.8767,52.8099 99.4811,52.8458 99.1585,52.8997C98.8348,52.9625 98.4579,53.0792 98.0277,53.2408L98.0277,63.2856L94.7145,63.2856L94.7145,50.0091L97.9192,49.8745L97.9192,50.8709C98.5299,50.476 99.0953,50.1976 99.634,50.0181C100.164,49.8476 100.756,49.7578 101.421,49.7578C102.282,49.7578 103.001,49.8835 103.575,50.1348C104.149,50.3861 104.643,50.7543 105.056,51.2389C105.667,50.7722 106.313,50.4131 107.004,50.1528C107.695,49.8925 108.44,49.7578 109.257,49.7578C110.711,49.7578 111.842,50.1708 112.65,50.9966C113.458,51.8224 113.862,53.0074 113.862,54.5513L113.862,63.2766L110.55,63.2766L110.55,63.2856ZM119.653,59.7039C119.653,59.9912 119.787,60.2246 120.047,60.3862C120.308,60.5567 120.757,60.6465 121.412,60.6465L124.509,60.6734C126.017,60.6914 127.112,60.9786 127.793,61.5442C128.476,62.1097 128.818,62.9086 128.818,63.932C128.818,65.2066 128.251,66.2928 127.121,67.2085C125.99,68.1151 124.194,68.5639 121.734,68.5639C119.796,68.5639 118.35,68.2587 117.417,67.6303C116.474,67.011 115.999,66.194 115.999,65.1617C115.999,64.5334 116.187,63.9678 116.582,63.4473C116.968,62.9355 117.498,62.5585 118.162,62.3072L118.162,62.2264C117.821,62.1007 117.533,61.8763 117.309,61.5532C117.085,61.23 116.968,60.844 116.968,60.3951C116.968,59.9643 117.112,59.5603 117.399,59.1833C117.686,58.8063 118.081,58.519 118.584,58.3215L118.584,58.2408C117.955,57.9355 117.443,57.4957 117.058,56.9032C116.672,56.3197 116.474,55.6106 116.474,54.7668C116.474,53.1869 116.995,51.9571 118.054,51.0774C119.105,50.1976 120.468,49.7578 122.157,49.7578C122.534,49.7578 122.893,49.7848 123.234,49.8386C123.575,49.8925 123.916,49.9643 124.257,50.0541L128.619,50.0541L128.619,52.2084L126.519,52.2084L126.519,52.2892C126.807,52.4687 127.076,52.765 127.318,53.178C127.561,53.5908 127.677,54.1025 127.677,54.7129C127.677,56.1133 127.184,57.1995 126.196,57.9715C125.208,58.7435 123.782,59.1295 121.914,59.1295C121.627,59.1295 121.331,59.1115 121.035,59.0756C120.738,59.0397 120.451,58.9858 120.19,58.914C120.029,58.9858 119.894,59.1025 119.796,59.2551C119.697,59.4078 119.653,59.5603 119.653,59.7039ZM118.952,64.4796C118.952,65.0002 119.204,65.4221 119.706,65.7272C120.209,66.0325 120.972,66.1851 121.995,66.1851C123.395,66.1851 124.391,66.0235 124.984,65.7004C125.576,65.3772 125.872,64.9643 125.872,64.4796C125.872,64.1025 125.729,63.8063 125.46,63.5998C125.182,63.3933 124.733,63.2766 124.122,63.2587L119.625,63.124C119.41,63.2856 119.239,63.4831 119.123,63.7075C119.005,63.932 118.952,64.1923 118.952,64.4796ZM122.102,56.984C122.928,56.984 123.566,56.7776 124.006,56.3646C124.446,55.9517 124.661,55.3054 124.661,54.4257C124.661,53.6537 124.455,53.0702 124.041,52.6662C123.629,52.2624 122.991,52.0649 122.13,52.0649C121.375,52.0649 120.757,52.2712 120.28,52.6932C119.804,53.115 119.572,53.7615 119.572,54.6231C119.572,55.4311 119.787,56.0325 120.227,56.4185C120.667,56.7865 121.294,56.984 122.102,56.984ZM130.29,56.6339C130.29,54.3718 130.882,52.6483 132.076,51.4634C133.269,50.2785 134.715,49.686 136.393,49.686C138.027,49.686 139.329,50.1708 140.299,51.1402C141.267,52.1097 141.753,53.4472 141.753,55.1528C141.753,55.6016 141.744,56.0504 141.725,56.4904C141.707,56.9302 141.681,57.2982 141.645,57.5765L133.467,57.5765C133.664,58.6358 134.095,59.4167 134.759,59.9194C135.424,60.4221 136.349,60.6734 137.534,60.6734C138.288,60.6734 138.952,60.6286 139.526,60.5209C140.101,60.4221 140.711,60.2784 141.357,60.072L141.357,62.765C140.64,62.9805 139.975,63.142 139.365,63.2587C138.754,63.3754 138.001,63.4383 137.103,63.4383C135.02,63.4383 133.359,62.8727 132.13,61.7507C130.9,60.6375 130.29,58.932 130.29,56.6339ZM133.467,55.2066L138.584,55.2066C138.584,54.327 138.36,53.6088 137.929,53.0522C137.488,52.4957 136.896,52.2174 136.169,52.2174C135.487,52.2174 134.895,52.4777 134.4,52.9805C133.898,53.4921 133.593,54.2372 133.467,55.2066ZM147.013,63.2856L142.839,49.9284L146.636,49.9284L149.356,60.7273L149.571,60.7273L152.264,49.9284L155.711,49.9284L151.591,63.2856L147.013,63.2856ZM157.327,46.2928C157.327,45.7901 157.488,45.3503 157.821,44.9733C158.153,44.5963 158.629,44.4077 159.24,44.4077C159.849,44.4077 160.316,44.5873 160.649,44.9463C160.981,45.3054 161.151,45.7543 161.151,46.2928C161.151,46.7776 160.981,47.2084 160.649,47.5765C160.316,47.9445 159.84,48.124 159.24,48.124C158.629,48.124 158.153,47.9535 157.821,47.6034C157.488,47.2444 157.327,46.8134 157.327,46.2928ZM160.909,49.8745L160.909,63.2856L157.597,63.2856L157.597,50.0091L160.909,49.8745ZM172.624,63.2856L172.624,55.2336C172.624,54.3538 172.425,53.7345 172.031,53.3665C171.636,52.9984 171.062,52.8189 170.307,52.8189C169.858,52.8189 169.455,52.8547 169.095,52.9087C168.736,52.9715 168.333,53.0882 167.884,53.2497L167.884,63.2946L164.571,63.2946L164.571,50.0091L167.776,49.8745L167.776,50.8709C168.35,50.476 168.916,50.1976 169.472,50.0181C170.029,49.8476 170.639,49.7578 171.304,49.7578C172.74,49.7578 173.871,50.1708 174.697,50.9876C175.523,51.8045 175.936,52.9894 175.936,54.5334L175.936,63.2856L172.624,63.2856ZM181.726,59.7039C181.726,59.9912 181.851,60.2246 182.111,60.3862C182.372,60.5567 182.821,60.6465 183.467,60.6465L186.564,60.6734C188.072,60.6914 189.167,60.9786 189.85,61.5442C190.532,62.1097 190.873,62.9086 190.873,63.932C190.873,65.2066 190.308,66.2928 189.176,67.2085C188.045,68.1151 186.25,68.5639 183.79,68.5639C181.851,68.5639 180.415,68.2587 179.463,67.6303C178.521,67.011 178.054,66.194 178.054,65.1617C178.054,64.5334 178.243,63.9678 178.629,63.4473C179.014,62.9355 179.535,62.5585 180.199,62.3072L180.199,62.2264C179.859,62.1007 179.571,61.8763 179.356,61.5532C179.132,61.23 179.014,60.844 179.014,60.3951C179.014,59.9643 179.158,59.5603 179.445,59.1833C179.733,58.8063 180.127,58.519 180.63,58.3215L180.63,58.2408C180.002,57.9355 179.49,57.4957 179.104,56.9032C178.718,56.3197 178.53,55.6106 178.53,54.7668C178.53,53.1869 179.051,51.9571 180.101,51.0774C181.151,50.1976 182.516,49.7578 184.212,49.7578C184.589,49.7578 184.948,49.7848 185.29,49.8386C185.63,49.8925 185.971,49.9643 186.313,50.0541L190.676,50.0541L190.676,52.2084L188.575,52.2084L188.575,52.2892C188.862,52.4687 189.132,52.765 189.364,53.178C189.607,53.5908 189.732,54.1025 189.732,54.7129C189.732,56.1133 189.239,57.1995 188.251,57.9715C187.264,58.7435 185.837,59.1295 183.969,59.1295C183.682,59.1295 183.395,59.1115 183.099,59.0756C182.803,59.0397 182.516,58.9858 182.247,58.914C182.085,58.9858 181.95,59.1025 181.86,59.2551C181.77,59.4078 181.726,59.5603 181.726,59.7039ZM181.025,64.4796C181.025,65.0002 181.277,65.4221 181.779,65.7272C182.282,66.0325 183.045,66.1851 184.068,66.1851C185.469,66.1851 186.466,66.0235 187.058,65.7004C187.651,65.3772 187.947,64.9643 187.947,64.4796C187.947,64.1025 187.803,63.8063 187.533,63.5998C187.255,63.3933 186.806,63.2766 186.196,63.2587L181.699,63.124C181.483,63.2856 181.321,63.4831 181.205,63.7075C181.079,63.932 181.025,64.1923 181.025,64.4796ZM184.177,56.984C185.002,56.984 185.64,56.7776 186.079,56.3646C186.519,55.9517 186.744,55.3054 186.744,54.4257C186.744,53.6537 186.537,53.0702 186.124,52.6662C185.711,52.2624 185.073,52.0649 184.212,52.0649C183.458,52.0649 182.839,52.2712 182.372,52.6932C181.896,53.115 181.654,53.7615 181.654,54.6231C181.654,55.4311 181.879,56.0325 182.318,56.4185C182.758,56.8045 183.368,56.984 184.177,56.984Z" style="fill:rgb(57,135,12);fill-rule:nonzero;"/>
    <path d="M192.363,63.0971L192.363,60.2426C193.009,60.4041 193.655,60.5209 194.302,60.5926C194.948,60.6644 195.568,60.7004 196.16,60.7004C197.094,60.7004 197.731,60.5837 198.09,60.3592C198.44,60.1348 198.611,59.8386 198.611,59.4796C198.611,59.1743 198.494,58.914 198.269,58.7165C198.045,58.519 197.596,58.3036 196.906,58.1151L195.208,57.6034C194.293,57.3342 193.583,56.9032 193.081,56.3287C192.578,55.7452 192.327,54.9823 192.327,54.0218C192.327,52.783 192.83,51.7686 193.835,50.9607C194.84,50.1618 196.249,49.7668 198.063,49.7668C198.674,49.7668 199.257,49.7938 199.831,49.8476C200.397,49.9015 200.9,49.9643 201.349,50.0361L201.16,52.8099C200.567,52.7202 200.02,52.6573 199.508,52.6034C198.996,52.5585 198.467,52.5316 197.91,52.5316C197.103,52.5316 196.528,52.6394 196.169,52.8547C195.81,53.0702 195.631,53.3305 195.631,53.6357C195.631,53.923 195.711,54.1563 195.881,54.3449C196.052,54.5334 196.457,54.7219 197.103,54.9014L198.683,55.3323C199.841,55.6554 200.667,56.1223 201.16,56.7147C201.653,57.3162 201.896,58.0702 201.896,58.9678C201.896,60.3682 201.394,61.4634 200.379,62.2533C199.364,63.0433 197.973,63.4383 196.214,63.4383C195.478,63.4383 194.777,63.4113 194.104,63.3575C193.449,63.3126 192.865,63.2228 192.363,63.0971ZM222.82,49.9284L219.374,63.2856L214.903,63.2856L212.965,55.9876L212.884,55.9876L210.621,63.2856L206.339,63.2856L202.946,49.9284L206.744,49.9284L208.763,60.7004L208.897,60.7004L211.591,52.4059L210.917,49.9284L214.203,49.9284L217.138,60.7004L217.273,60.7004L219.374,49.9284L222.82,49.9284ZM224.005,56.6339C224.005,54.3718 224.598,52.6483 225.801,51.4634C226.995,50.2785 228.432,49.686 230.119,49.686C231.753,49.686 233.054,50.1708 234.024,51.1402C234.993,52.1097 235.477,53.4472 235.477,55.1528C235.477,55.6016 235.468,56.0504 235.451,56.4904C235.433,56.9302 235.406,57.2982 235.37,57.5765L227.183,57.5765C227.381,58.6358 227.812,59.4167 228.476,59.9194C229.14,60.4221 230.064,60.6734 231.249,60.6734C232.004,60.6734 232.668,60.6286 233.243,60.5209C233.817,60.4221 234.427,60.2784 235.074,60.072L235.074,62.765C234.355,62.9805 233.691,63.142 233.081,63.2587C232.471,63.3754 231.716,63.4383 230.819,63.4383C228.736,63.4383 227.076,62.8727 225.845,61.7507C224.616,60.6286 224.005,58.932 224.005,56.6339ZM227.183,55.2066L232.3,55.2066C232.3,54.327 232.075,53.6088 231.636,53.0522C231.196,52.4957 230.603,52.2174 229.876,52.2174C229.194,52.2174 228.601,52.4777 228.117,52.9805C227.615,53.4921 227.309,54.2372 227.183,55.2066ZM237.201,52.4329L237.201,49.9284L238.817,49.9284L238.817,47.4777L242.129,47.2084L242.129,49.9284L245.496,49.9284L245.496,52.4329L242.129,52.4329L242.129,58.4472C242.129,59.1833 242.318,59.7219 242.686,60.072C243.054,60.4221 243.538,60.5926 244.131,60.5926C244.436,60.5926 244.706,60.5747 244.957,60.5388C245.2,60.5029 245.487,60.4401 245.827,60.3503L245.827,63.124C245.361,63.2498 244.931,63.3395 244.526,63.3843C244.122,63.4293 243.665,63.4562 243.117,63.4562C241.816,63.4562 240.774,63.0792 239.993,62.3252C239.212,61.5711 238.817,60.4401 238.817,58.932L238.817,52.4419L237.201,52.4419L237.201,52.4329Z" style="fill:rgb(39,89,55);fill-rule:nonzero;"/>
    <ellipse cx="27.0483" cy="42.7782" rx="26.0732" ry="26.0732" style="fill:rgb(57,135,12);"/>
    <ellipse cx="27.0483" cy="42.7782" rx="17.9548" ry="17.9548" style="fill:rgb(39,89,55);"/>
    <ellipse cx="27.0483" cy="42.7782" rx="9.48645" ry="9.48646" style="fill:rgb(225,112,0);"/>
</svg>
