<?xml version="1.0" encoding="utf-8"?>
<!-- Generator: Adobe Illustrator 23.1.1, SVG Export Plug-In . SVG Version: 6.00 Build 0)  -->
<svg version="1.1" id="Layer_1" xmlns="http://www.w3.org/2000/svg" xmlns:xlink="http://www.w3.org/1999/xlink" x="0px" y="0px"
	 viewBox="0 0 650 64" style="enable-background:new 0 0 650 64;" xml:space="preserve">
<style type="text/css">
	.st0{fill:none;stroke:#666666;stroke-width:0.4437;stroke-miterlimit:10;}
	.st1{fill:#161616;}
	.st2{fill:#FFFFFF;stroke:#7D9B87;stroke-width:0.8504;stroke-miterlimit:10;}
	.st3{fill:#378700;}
</style>
<line class="st0" x1="0.6" y1="64" x2="0.6" y2="0"/>
<path class="st1" d="M20.4,53.1L20.4,53.1c0.4,0,0.6-0.1,0.6-0.3v-6c0-0.4,0-0.7,0-0.9l0.1,0c0.1,0.3,0.3,0.6,0.4,0.8l4.1,6.2
	c0.1,0.1,0.2,0.2,0.4,0.2h0.3c0.3,0,0.5-0.1,0.5-0.3v-8.4c0-0.2-0.2-0.3-0.5-0.3h-0.1c-0.3,0-0.5,0.1-0.5,0.3v5.9c0,0.4,0,0.7,0,0.9
	l-0.1,0c-0.1-0.3-0.3-0.6-0.4-0.8l-4-6.1c-0.1-0.1-0.1-0.2-0.2-0.2c-0.1,0-0.2-0.1-0.3-0.1h-0.3c-0.3,0-0.5,0.1-0.5,0.3v8.4
	C19.9,53,20.1,53.1,20.4,53.1L20.4,53.1L20.4,53.1z M31.6,53.2c1,0,1.7-0.3,2.2-0.9c0.5-0.6,0.7-1.4,0.7-2.5c0-1.1-0.2-2-0.7-2.6
	c-0.5-0.6-1.2-0.9-2.2-0.9c-1,0-1.7,0.3-2.2,0.9c-0.5,0.6-0.8,1.5-0.8,2.6c0,1.1,0.3,1.9,0.8,2.5C29.9,52.9,30.7,53.2,31.6,53.2
	L31.6,53.2L31.6,53.2z M31.6,52.3c-0.6,0-1.1-0.2-1.4-0.6c-0.3-0.4-0.4-1-0.4-1.9c0-0.9,0.1-1.5,0.4-1.9c0.3-0.4,0.7-0.6,1.4-0.6
	c0.6,0,1.1,0.2,1.4,0.6c0.3,0.4,0.4,1,0.4,1.9c0,0.9-0.1,1.5-0.4,1.9C32.7,52,32.2,52.3,31.6,52.3L31.6,52.3L31.6,52.3z M38.5,55.8
	c1,0,1.7-0.2,2.2-0.5c0.5-0.3,0.7-0.8,0.7-1.4c0-0.5-0.2-0.9-0.5-1.1c-0.3-0.2-0.8-0.4-1.4-0.4c-0.1,0-0.2,0-0.4-0.1
	c-0.4,0-0.7-0.1-0.9-0.1c-0.2-0.1-0.4-0.1-0.5-0.2c-0.1-0.1-0.2-0.3-0.2-0.5c0-0.3,0.1-0.5,0.3-0.7c0.2-0.1,0.5-0.2,0.9-0.2
	c0.8,0,1.4-0.2,1.9-0.6c0.4-0.4,0.7-0.9,0.7-1.5c0-0.4-0.1-0.8-0.3-1.1l0,0c0.2,0,0.5,0,0.9,0c0.1,0,0.2,0,0.2-0.1
	c0-0.1,0.1-0.2,0.1-0.3v-0.2c0-0.1,0-0.2-0.1-0.3c0-0.1-0.1-0.1-0.2-0.1h-2.3c-0.2-0.1-0.5-0.1-0.8-0.1c-0.8,0-1.4,0.2-1.9,0.6
	c-0.4,0.4-0.7,0.9-0.7,1.5c0,0.4,0.1,0.7,0.3,1.1c0.2,0.3,0.5,0.6,0.8,0.7c-0.5,0.3-0.7,0.8-0.7,1.3c0,0.4,0.2,0.8,0.5,1l0,0
	c-0.3,0.1-0.6,0.4-0.8,0.6c-0.2,0.3-0.3,0.6-0.3,1c0,0.5,0.2,0.9,0.7,1.2C37,55.7,37.7,55.8,38.5,55.8L38.5,55.8L38.5,55.8z
	 M38.6,49.7c-1,0-1.5-0.4-1.5-1.2c0-0.8,0.5-1.2,1.5-1.2c1,0,1.5,0.4,1.5,1.2c0,0.4-0.1,0.7-0.4,0.9C39.5,49.6,39.1,49.7,38.6,49.7
	L38.6,49.7L38.6,49.7z M38.6,54.9c-1.2,0-1.8-0.3-1.8-0.9c0-0.5,0.3-0.8,0.8-1c0.2,0.1,0.5,0.1,1,0.2c0.6,0.1,1,0.1,1.3,0.2
	c0.3,0.1,0.4,0.3,0.4,0.6c0,0.3-0.1,0.6-0.4,0.7C39.7,54.9,39.2,54.9,38.6,54.9L38.6,54.9L38.6,54.9z M49,53.2c1,0,1.7-0.3,2.2-0.9
	c0.5-0.6,0.7-1.4,0.7-2.5c0-1.1-0.2-2-0.7-2.6c-0.5-0.6-1.2-0.9-2.2-0.9c-1,0-1.7,0.3-2.2,0.9c-0.5,0.6-0.8,1.5-0.8,2.6
	c0,1.1,0.3,1.9,0.8,2.5C47.3,52.9,48,53.2,49,53.2L49,53.2L49,53.2z M48.9,52.3c-0.6,0-1.1-0.2-1.4-0.6c-0.3-0.4-0.4-1-0.4-1.9
	c0-0.9,0.1-1.5,0.4-1.9c0.3-0.4,0.7-0.6,1.4-0.6c0.6,0,1.1,0.2,1.4,0.6c0.3,0.4,0.4,1,0.4,1.9c0,0.9-0.1,1.5-0.4,1.9
	C50,52,49.6,52.3,48.9,52.3L48.9,52.3L48.9,52.3z M54.2,53.1L54.2,53.1c0.4,0,0.6-0.1,0.6-0.3v-4.7c0.2-0.3,0.5-0.5,0.7-0.7
	c0.3-0.2,0.6-0.2,0.9-0.2c0.4,0,0.7,0.1,1,0.3c0.2,0.2,0.3,0.5,0.3,0.9v4.3c0,0.2,0.2,0.3,0.5,0.3h0.1c0.3,0,0.5-0.1,0.5-0.3v-4.4
	c0-0.6-0.2-1.2-0.6-1.5c-0.4-0.4-0.9-0.6-1.5-0.6c-0.4,0-0.7,0.1-1.1,0.3c-0.3,0.2-0.7,0.4-0.9,0.7c0,0,0-0.1-0.1-0.3
	c0-0.1-0.1-0.3-0.1-0.4c-0.1-0.1-0.1-0.2-0.3-0.2c-0.1,0-0.3,0-0.4,0.1c-0.2,0-0.2,0.1-0.2,0.2c0,0,0,0.2,0.1,0.4
	c0.1,0.2,0.1,0.6,0.1,1.2v4.5C53.7,53,53.8,53.1,54.2,53.1L54.2,53.1L54.2,53.1z M62.9,55.8c1,0,1.7-0.2,2.2-0.5
	c0.5-0.3,0.7-0.8,0.7-1.4c0-0.5-0.2-0.9-0.5-1.1c-0.3-0.2-0.8-0.4-1.4-0.4c-0.1,0-0.2,0-0.4-0.1c-0.4,0-0.7-0.1-0.9-0.1
	c-0.2-0.1-0.4-0.1-0.5-0.2c-0.1-0.1-0.2-0.3-0.2-0.5c0-0.3,0.1-0.5,0.3-0.7c0.2-0.1,0.5-0.2,0.9-0.2c0.8,0,1.4-0.2,1.9-0.6
	c0.4-0.4,0.7-0.9,0.7-1.5c0-0.4-0.1-0.8-0.3-1.1l0,0c0.2,0,0.5,0,0.9,0c0.1,0,0.2,0,0.2-0.1c0-0.1,0.1-0.2,0.1-0.3v-0.2
	c0-0.1,0-0.2-0.1-0.3c0-0.1-0.1-0.1-0.2-0.1h-2.3c-0.2-0.1-0.5-0.1-0.8-0.1c-0.8,0-1.4,0.2-1.9,0.6c-0.4,0.4-0.7,0.9-0.7,1.5
	c0,0.4,0.1,0.7,0.3,1.1c0.2,0.3,0.5,0.6,0.8,0.7C61.2,50.5,61,51,61,51.5c0,0.4,0.2,0.8,0.5,1l0,0c-0.4,0.1-0.6,0.4-0.8,0.6
	c-0.2,0.3-0.3,0.6-0.3,1c0,0.5,0.2,0.9,0.7,1.2C61.5,55.7,62.1,55.8,62.9,55.8L62.9,55.8L62.9,55.8z M63.1,49.7
	c-1,0-1.5-0.4-1.5-1.2c0-0.8,0.5-1.2,1.5-1.2c1,0,1.5,0.4,1.5,1.2c0,0.4-0.1,0.7-0.4,0.9C63.9,49.6,63.6,49.7,63.1,49.7L63.1,49.7
	L63.1,49.7z M63.1,54.9c-1.2,0-1.8-0.3-1.8-0.9c0-0.5,0.3-0.8,0.8-1c0.2,0.1,0.5,0.1,1,0.2c0.6,0.1,1,0.1,1.3,0.2
	c0.3,0.1,0.4,0.3,0.4,0.6c0,0.3-0.1,0.6-0.4,0.7C64.1,54.9,63.7,54.9,63.1,54.9L63.1,54.9L63.1,54.9z M70.5,53.2
	c0.4,0,0.8,0,1.1-0.1c0.4-0.1,0.6-0.2,0.9-0.3c0.2-0.1,0.3-0.2,0.3-0.4c0-0.1-0.1-0.2-0.2-0.4c-0.1-0.2-0.2-0.3-0.3-0.3
	c0,0-0.1,0-0.3,0.1c-0.2,0.1-0.4,0.2-0.6,0.3c-0.3,0.1-0.6,0.1-0.9,0.1c-0.6,0-1.1-0.2-1.4-0.5c-0.3-0.3-0.5-0.9-0.6-1.6h4
	c0.1,0,0.2-0.1,0.3-0.2c0.1-0.1,0.2-0.2,0.2-0.3c0-1.1-0.2-1.9-0.7-2.5c-0.4-0.6-1.1-0.9-2-0.9c-1,0-1.7,0.3-2.2,0.9
	c-0.5,0.6-0.8,1.5-0.8,2.6c0,1.1,0.3,2,0.8,2.5C68.7,52.9,69.5,53.2,70.5,53.2L70.5,53.2L70.5,53.2z M68.6,49.3c0.1-1.3,0.7-2,1.8-2
	c1,0,1.5,0.7,1.5,2H68.6L68.6,49.3z M76.5,53.1h0.4c0.3,0,0.5-0.1,0.5-0.2l2.1-6.1c0-0.1,0-0.1,0-0.2c0-0.1-0.2-0.2-0.5-0.2h0
	c-0.3,0-0.5,0.1-0.5,0.2l-1.3,4.1c-0.1,0.3-0.2,0.7-0.3,1.2l-0.1,0.4h-0.1c-0.2-0.8-0.4-1.3-0.4-1.6L75,46.6c0-0.1-0.2-0.2-0.5-0.2
	h-0.1c-0.4,0-0.6,0.1-0.6,0.2c0,0,0,0.1,0,0.2l2.1,6.2C76,53.1,76.2,53.1,76.5,53.1L76.5,53.1L76.5,53.1z M83.6,53.2
	c0.4,0,0.8,0,1.1-0.1c0.4-0.1,0.6-0.2,0.9-0.3c0.2-0.1,0.3-0.2,0.3-0.4c0-0.1-0.1-0.2-0.2-0.4c-0.1-0.2-0.2-0.3-0.3-0.3
	c0,0-0.1,0-0.3,0.1c-0.2,0.1-0.4,0.2-0.6,0.3c-0.3,0.1-0.6,0.1-0.9,0.1c-0.6,0-1.1-0.2-1.4-0.5c-0.3-0.3-0.5-0.9-0.6-1.6h4
	c0.1,0,0.2-0.1,0.3-0.2c0.1-0.1,0.2-0.2,0.2-0.3c0-1.1-0.2-1.9-0.7-2.5c-0.4-0.6-1.1-0.9-2-0.9c-1,0-1.7,0.3-2.2,0.9
	c-0.5,0.6-0.8,1.5-0.8,2.6c0,1.1,0.3,2,0.8,2.5C81.8,52.9,82.6,53.2,83.6,53.2L83.6,53.2L83.6,53.2z M81.7,49.3c0.1-1.3,0.7-2,1.8-2
	c1,0,1.5,0.7,1.5,2H81.7L81.7,49.3z M90.5,53.2c0.4,0,0.8,0,1.1-0.1c0.4-0.1,0.6-0.2,0.9-0.3c0.2-0.1,0.3-0.2,0.3-0.4
	c0-0.1-0.1-0.2-0.2-0.4c-0.1-0.2-0.2-0.3-0.3-0.3c0,0-0.1,0-0.3,0.1c-0.2,0.1-0.4,0.2-0.6,0.3c-0.3,0.1-0.6,0.1-0.9,0.1
	c-0.6,0-1.1-0.2-1.4-0.5c-0.3-0.3-0.5-0.9-0.6-1.6h4c0.1,0,0.2-0.1,0.3-0.2c0.1-0.1,0.2-0.2,0.2-0.3c0-1.1-0.2-1.9-0.7-2.5
	c-0.4-0.6-1.1-0.9-2-0.9c-1,0-1.7,0.3-2.2,0.9c-0.5,0.6-0.8,1.5-0.8,2.6c0,1.1,0.3,2,0.8,2.5C88.7,52.9,89.5,53.2,90.5,53.2
	L90.5,53.2L90.5,53.2z M88.6,49.3c0.1-1.3,0.7-2,1.8-2c1,0,1.5,0.7,1.5,2H88.6L88.6,49.3z M95.3,53.1L95.3,53.1
	c0.4,0,0.6-0.1,0.6-0.3v-4.7c0,0,0.1-0.1,0.2-0.2c0.1-0.1,0.3-0.3,0.4-0.4c0.2-0.1,0.4-0.2,0.6-0.2c0.2,0,0.3,0,0.5,0.1
	c0.1,0,0.2,0.1,0.2,0.1c0.1,0,0.1-0.1,0.2-0.2c0.1-0.2,0.1-0.3,0.1-0.5c0-0.1-0.1-0.3-0.2-0.4c-0.1-0.1-0.3-0.1-0.6-0.1
	c-0.5,0-1,0.3-1.5,1c0,0,0-0.1-0.1-0.3c0-0.1-0.1-0.3-0.1-0.4c-0.1-0.1-0.1-0.2-0.3-0.2c-0.1,0-0.3,0-0.4,0.1
	c-0.2,0-0.2,0.1-0.2,0.2c0,0,0,0.2,0.1,0.4c0.1,0.2,0.1,0.6,0.1,1.2v4.5C94.8,53,94.9,53.1,95.3,53.1L95.3,53.1L95.3,53.1z
	 M106.2,53.1h0.3c0.3,0,0.4-0.1,0.4-0.3V51h0.9c0.1,0,0.2,0,0.2-0.1c0-0.1,0.1-0.2,0.1-0.3v-0.2c0-0.1,0-0.2-0.1-0.3
	c0-0.1-0.1-0.1-0.2-0.1h-0.9v-5.6c0-0.2-0.1-0.3-0.4-0.3h-0.2c-0.2,0-0.3,0.1-0.4,0.2l-4.2,5.9c0,0,0,0.1,0,0.1c0,0.1,0,0.3,0.1,0.4
	c0.1,0.2,0.1,0.2,0.2,0.2h3.9v1.9C105.8,53,105.9,53.1,106.2,53.1L106.2,53.1L106.2,53.1z M102.9,50l2.9-4.2l0.1,0
	c0,0.2-0.1,0.3-0.1,0.4V50H102.9L102.9,50z M119.2,46.3c-0.4,0-0.8,0.1-1.1,0.3c-0.4,0.2-0.7,0.5-0.9,0.8c-0.2-0.4-0.4-0.7-0.7-0.8
	c-0.3-0.2-0.7-0.2-1.1-0.2c-0.4,0-0.7,0.1-1.1,0.3c-0.3,0.2-0.6,0.4-0.9,0.7c0,0,0-0.1-0.1-0.3c0-0.1-0.1-0.3-0.1-0.4
	c-0.1-0.1-0.1-0.2-0.3-0.2c-0.1,0-0.3,0-0.4,0.1c-0.2,0-0.2,0.1-0.2,0.2c0,0,0,0.2,0.1,0.4c0.1,0.2,0.1,0.6,0.1,1.2v4.5
	c0,0.2,0.2,0.3,0.5,0.3h0.1c0.3,0,0.5-0.1,0.5-0.3v-4.7c0,0,0.1-0.1,0.2-0.3c0.1-0.2,0.3-0.3,0.6-0.4c0.2-0.1,0.5-0.2,0.8-0.2
	c0.4,0,0.7,0.1,0.9,0.3c0.2,0.2,0.3,0.5,0.3,0.9v4.3c0,0.2,0.2,0.3,0.5,0.3h0.1c0.3,0,0.5-0.1,0.5-0.3v-4.4c0-0.1,0-0.2,0-0.3
	c0.5-0.6,1-0.9,1.6-0.9c0.4,0,0.7,0.1,0.9,0.3c0.2,0.2,0.3,0.5,0.3,0.9v4.3c0,0.2,0.2,0.3,0.5,0.3h0.1c0.3,0,0.5-0.1,0.5-0.3v-4.4
	c0-0.8-0.2-1.3-0.6-1.6C120.2,46.5,119.7,46.3,119.2,46.3L119.2,46.3L119.2,46.3z M123.8,45.2c0.4,0,0.6-0.1,0.6-0.3v-0.7
	c0-0.2-0.2-0.3-0.6-0.3c-0.4,0-0.6,0.1-0.6,0.3v0.7C123.2,45.1,123.4,45.2,123.8,45.2L123.8,45.2L123.8,45.2z M123.8,53.1
	L123.8,53.1c0.4,0,0.6-0.1,0.6-0.3v-6.2c0-0.2-0.2-0.3-0.5-0.3h-0.1c-0.3,0-0.5,0.1-0.5,0.3v6.2C123.3,53,123.5,53.1,123.8,53.1
	L123.8,53.1L123.8,53.1z M127.1,53.1L127.1,53.1c0.4,0,0.6-0.1,0.6-0.3v-4.7c0.2-0.3,0.5-0.5,0.7-0.7c0.3-0.2,0.6-0.2,0.9-0.2
	c0.4,0,0.7,0.1,1,0.3c0.2,0.2,0.3,0.5,0.3,0.9v4.3c0,0.2,0.2,0.3,0.5,0.3h0.1c0.3,0,0.5-0.1,0.5-0.3v-4.4c0-0.6-0.2-1.2-0.6-1.5
	c-0.4-0.4-0.9-0.6-1.5-0.6c-0.4,0-0.7,0.1-1.1,0.3c-0.3,0.2-0.7,0.4-0.9,0.7c0,0,0-0.1-0.1-0.3c0-0.1-0.1-0.3-0.1-0.4
	c-0.1-0.1-0.1-0.2-0.3-0.2c-0.1,0-0.3,0-0.4,0.1c-0.2,0-0.2,0.1-0.2,0.2c0,0,0,0.2,0.1,0.4c0.1,0.2,0.1,0.6,0.1,1.2v4.5
	C126.6,53,126.8,53.1,127.1,53.1L127.1,53.1L127.1,53.1z M135.7,53.2c0.4,0,0.7-0.1,1.1-0.3c0.3-0.2,0.7-0.4,0.9-0.7
	c0,0,0,0.1,0.1,0.3c0,0.1,0.1,0.3,0.1,0.4c0.1,0.1,0.1,0.2,0.3,0.2c0.1,0,0.3,0,0.4-0.1c0.2,0,0.2-0.1,0.2-0.2c0,0,0-0.2-0.1-0.4
	c-0.1-0.2-0.1-0.6-0.1-1.2v-4.5c0-0.2-0.2-0.3-0.5-0.3h-0.1c-0.3,0-0.5,0.1-0.5,0.3v4.7c-0.2,0.3-0.5,0.5-0.7,0.7
	c-0.3,0.2-0.6,0.2-0.9,0.2c-0.4,0-0.7-0.1-1-0.3c-0.2-0.2-0.3-0.5-0.3-0.9v-4.3c0-0.2-0.2-0.3-0.5-0.3h-0.1c-0.3,0-0.5,0.1-0.5,0.3
	v4.4c0,0.6,0.2,1.2,0.6,1.5C134.5,53,135.1,53.2,135.7,53.2L135.7,53.2L135.7,53.2z M142.8,53.2c0.6,0,0.9-0.1,0.9-0.4
	c0-0.1,0-0.2-0.1-0.4c-0.1-0.2-0.1-0.2-0.2-0.2c0,0-0.1,0-0.2,0c-0.1,0-0.2,0-0.4,0c-0.2,0-0.4-0.1-0.5-0.2
	c-0.1-0.1-0.2-0.4-0.2-0.7v-4h1.1c0.1,0,0.2,0,0.2-0.1c0-0.1,0.1-0.2,0.1-0.3v-0.2c0-0.1,0-0.2-0.1-0.3c0-0.1-0.1-0.1-0.2-0.1h-1.1
	v-1.3c0-0.2-0.1-0.3-0.4-0.3h-0.1c-0.2,0-0.4,0.1-0.4,0.3l-0.2,1.3h-0.6c-0.1,0-0.1,0-0.2,0.1c0,0.1-0.1,0.2-0.1,0.3v0.2
	c0,0.1,0,0.2,0.1,0.3c0,0.1,0.1,0.1,0.2,0.1h0.6v4.1c0,0.7,0.2,1.1,0.5,1.4C142,53,142.4,53.2,142.8,53.2L142.8,53.2L142.8,53.2z
	 M148,53.2c0.4,0,0.8,0,1.1-0.1c0.4-0.1,0.6-0.2,0.9-0.3c0.2-0.1,0.3-0.2,0.3-0.4c0-0.1-0.1-0.2-0.2-0.4c-0.1-0.2-0.2-0.3-0.3-0.3
	c0,0-0.1,0-0.3,0.1c-0.2,0.1-0.4,0.2-0.6,0.3c-0.3,0.1-0.6,0.1-0.9,0.1c-0.6,0-1.1-0.2-1.4-0.5c-0.3-0.3-0.5-0.9-0.6-1.6h4
	c0.1,0,0.2-0.1,0.3-0.2c0.1-0.1,0.2-0.2,0.2-0.3c0-1.1-0.2-1.9-0.7-2.5c-0.4-0.6-1.1-0.9-2-0.9c-1,0-1.7,0.3-2.2,0.9
	c-0.5,0.6-0.8,1.5-0.8,2.6c0,1.1,0.3,2,0.8,2.5C146.1,52.9,146.9,53.2,148,53.2L148,53.2L148,53.2z M146,49.3c0.1-1.3,0.7-2,1.8-2
	c1,0,1.5,0.7,1.5,2H146L146,49.3z M152.7,53.1L152.7,53.1c0.4,0,0.6-0.1,0.6-0.3v-4.7c0.2-0.3,0.5-0.5,0.7-0.7
	c0.3-0.2,0.6-0.2,0.9-0.2c0.4,0,0.7,0.1,1,0.3c0.2,0.2,0.3,0.5,0.3,0.9v4.3c0,0.2,0.2,0.3,0.5,0.3h0.1c0.3,0,0.5-0.1,0.5-0.3v-4.4
	c0-0.6-0.2-1.2-0.6-1.5c-0.4-0.4-0.9-0.6-1.5-0.6c-0.4,0-0.7,0.1-1.1,0.3c-0.4,0.2-0.7,0.4-0.9,0.7c0,0,0-0.1-0.1-0.3
	c0-0.1-0.1-0.3-0.1-0.4c-0.1-0.1-0.1-0.2-0.3-0.2c-0.1,0-0.3,0-0.4,0.1c-0.2,0-0.2,0.1-0.2,0.2c0,0,0,0.2,0.1,0.4
	c0.1,0.2,0.1,0.6,0.1,1.2v4.5C152.2,53,152.3,53.1,152.7,53.1L152.7,53.1L152.7,53.1z"/>
<g>
	<rect x="19.2" y="21.2" class="st2" width="434.8" height="13.6"/>
	<rect x="19.2" y="21.2" class="st3" width="217.2" height="13.6"/>
</g>
<g>
</g>
<g>
</g>
<g>
</g>
<g>
</g>
<g>
</g>
<g>
</g>
</svg>
