<?xml version="1.0" encoding="utf-8"?>
<!-- Generator: Adobe Illustrator 23.1.1, SVG Export Plug-In . SVG Version: 6.00 Build 0)  -->
<svg version="1.1" id="Layer_1" xmlns="http://www.w3.org/2000/svg" xmlns:xlink="http://www.w3.org/1999/xlink" x="0px" y="0px"
	 viewBox="0 0 650 320" style="enable-background:new 0 0 650 320;" xml:space="preserve">
<style type="text/css">
	.st0{fill:none;stroke:#666666;stroke-width:0.9921;stroke-miterlimit:10;}
	.st1{fill:#161616;}
	.st2{clip-path:url(#SVGID_3_);}
	.st3{clip-path:url(#SVGID_4_);fill:#CB3C51;}
	.st4{clip-path:url(#SVGID_7_);}
	.st5{clip-path:url(#SVGID_8_);fill:#FFFFFF;}
	.st6{clip-path:url(#SVGID_11_);}
	.st7{clip-path:url(#SVGID_12_);fill:#FFFFFF;}
	.st8{fill:#656565;}
	.st9{fill:#FFFFFF;stroke:#CB3C51;stroke-width:1.4173;stroke-miterlimit:10;}
	.st10{fill:none;}
	.st11{fill:#CB3C51;}
	.st12{fill:#191919;}
</style>
<line class="st0" x1="0.6" y1="320" x2="0.6" y2="0"/>
<g>
</g>
<path class="st1" d="M21.3,53.6h4.5c0.1,0,0.2-0.1,0.3-0.2c0.1-0.1,0.1-0.3,0.1-0.5v-0.4c0-0.2,0-0.4-0.1-0.5
	c-0.1-0.1-0.2-0.2-0.3-0.2h-3v-2.1h2.7c0.1,0,0.2-0.1,0.3-0.2c0.1-0.1,0.1-0.3,0.1-0.5v-0.4c0-0.2,0-0.4-0.1-0.5
	c-0.1-0.1-0.2-0.2-0.3-0.2h-2.7v-1.9h3c0.1,0,0.2-0.1,0.3-0.2c0.1-0.1,0.1-0.3,0.1-0.5v-0.4c0-0.2,0-0.4-0.1-0.5
	c-0.1-0.1-0.2-0.2-0.3-0.2h-4.5c-0.2,0-0.3,0-0.4,0.1c-0.1,0.1-0.1,0.2-0.1,0.4v7.9c0,0.2,0,0.3,0.1,0.4
	C21,53.5,21.1,53.6,21.3,53.6L21.3,53.6L21.3,53.6z M27.5,50.9h2.6c0.1,0,0.2-0.1,0.3-0.2c0.1-0.1,0.1-0.3,0.1-0.5v-0.1
	c0-0.2,0-0.4-0.1-0.5c-0.1-0.1-0.2-0.2-0.3-0.2h-2.6c-0.1,0-0.2,0.1-0.3,0.2c-0.1,0.1-0.1,0.3-0.1,0.5v0.1c0,0.2,0,0.4,0.1,0.5
	C27.3,50.8,27.4,50.9,27.5,50.9L27.5,50.9L27.5,50.9z M39,46.8c-0.4,0-0.8,0.1-1.1,0.3c-0.3,0.2-0.6,0.4-0.8,0.7
	c-0.1-0.3-0.3-0.6-0.6-0.7c-0.3-0.2-0.6-0.2-1.1-0.2c-0.4,0-0.7,0.1-1.1,0.3c-0.3,0.2-0.6,0.4-0.8,0.7c0-0.1,0-0.1-0.1-0.3
	c0-0.1-0.1-0.3-0.1-0.4c-0.1-0.1-0.2-0.2-0.3-0.2c-0.3,0-0.6,0-0.9,0.1c-0.3,0.1-0.5,0.2-0.5,0.3c0,0.1,0,0.1,0,0.3
	c0,0.2,0.1,0.5,0.1,0.7c0,0.2,0,0.5,0,0.9v4.1c0,0.3,0.3,0.4,0.8,0.4h0.4c0.5,0,0.8-0.1,0.8-0.4v-4.1c0.1-0.2,0.2-0.4,0.4-0.5
	c0.2-0.1,0.4-0.2,0.6-0.2c0.3,0,0.5,0.1,0.6,0.2c0.1,0.1,0.2,0.3,0.2,0.6v4.1c0,0.3,0.3,0.4,0.8,0.4h0.4c0.5,0,0.8-0.1,0.8-0.4v-4.1
	c0.3-0.5,0.6-0.7,1-0.7c0.3,0,0.5,0.1,0.6,0.2c0.1,0.1,0.2,0.3,0.2,0.6v4.1c0,0.3,0.3,0.4,0.8,0.4h0.4c0.5,0,0.8-0.1,0.8-0.4v-4.3
	c0-0.7-0.2-1.2-0.5-1.6C40.1,47,39.6,46.8,39,46.8L39,46.8L39,46.8z M44.1,53.7c0.3,0,0.7-0.1,0.9-0.2c0.3-0.1,0.5-0.3,0.6-0.4
	c0.2-0.1,0.3-0.3,0.3-0.4c0,0.1,0,0.1,0.1,0.3c0,0.1,0.1,0.3,0.1,0.4c0.1,0.1,0.2,0.2,0.3,0.2c0.3,0,0.6,0,0.9-0.1
	c0.3-0.1,0.5-0.2,0.5-0.3c0-0.1,0-0.2,0-0.3c0-0.2-0.1-0.5-0.1-0.7c0-0.2,0-0.5,0-0.9v-2.4c0-0.7-0.2-1.2-0.7-1.6
	c-0.4-0.4-1.1-0.6-2.1-0.6c-0.5,0-0.9,0-1.2,0.1c-0.4,0.1-0.7,0.2-0.9,0.3c-0.2,0.1-0.3,0.3-0.3,0.4c0,0.1,0,0.2,0.1,0.4
	c0.1,0.2,0.2,0.3,0.3,0.4c0.1,0.1,0.2,0.2,0.3,0.2c0,0,0.1,0,0.3-0.1c0.2-0.1,0.4-0.1,0.6-0.2c0.2-0.1,0.5-0.1,0.8-0.1
	c0.3,0,0.6,0.1,0.8,0.2c0.2,0.1,0.2,0.3,0.2,0.6v0.4c-1.5,0-2.4,0.2-2.9,0.7c-0.5,0.5-0.7,1-0.7,1.7c0,0.6,0.2,1,0.5,1.4
	C43,53.5,43.5,53.7,44.1,53.7L44.1,53.7L44.1,53.7z M44.8,52.2c-0.2,0-0.4-0.1-0.5-0.2c-0.1-0.1-0.2-0.2-0.2-0.4
	c0-0.6,0.6-0.9,1.8-0.9v0.7c-0.1,0.2-0.3,0.4-0.5,0.6C45.2,52.1,45,52.2,44.8,52.2L44.8,52.2L44.8,52.2z M50.4,46.1
	c0.6,0,0.9-0.2,0.9-0.5v-0.9c0-0.3-0.3-0.5-0.9-0.5c-0.6,0-0.9,0.2-0.9,0.5v0.9C49.4,45.9,49.8,46.1,50.4,46.1L50.4,46.1L50.4,46.1z
	 M50.2,53.6h0.4c0.5,0,0.8-0.1,0.8-0.4v-5.9c0-0.3-0.3-0.4-0.8-0.4h-0.4c-0.5,0-0.8,0.1-0.8,0.4v5.9C49.4,53.5,49.7,53.6,50.2,53.6
	L50.2,53.6L50.2,53.6z M54.8,53.7c0.8,0,1.2-0.2,1.2-0.6c0-0.1,0-0.2-0.1-0.3c0-0.2-0.1-0.3-0.1-0.4c-0.1-0.1-0.1-0.2-0.2-0.2
	c0,0-0.1,0-0.2,0c-0.1,0-0.1,0-0.2,0c-0.2,0-0.3,0-0.4-0.1c-0.1-0.1-0.1-0.2-0.1-0.4v-7.3c0-0.3-0.3-0.4-0.8-0.4h-0.4
	c-0.5,0-0.8,0.1-0.8,0.4v7.3C52.9,53,53.5,53.7,54.8,53.7L54.8,53.7L54.8,53.7z M58.3,53.7c0.3,0,0.7-0.1,0.9-0.2
	c0.3-0.1,0.5-0.3,0.6-0.4c0.2-0.1,0.3-0.3,0.3-0.4c0,0.1,0,0.1,0.1,0.3c0,0.1,0.1,0.3,0.1,0.4c0.1,0.1,0.2,0.2,0.3,0.2
	c0.3,0,0.6,0,0.9-0.1c0.3-0.1,0.5-0.2,0.5-0.3c0-0.1,0-0.2,0-0.3c0-0.2-0.1-0.5-0.1-0.7c0-0.2,0-0.5,0-0.9v-2.4
	c0-0.7-0.2-1.2-0.7-1.6c-0.4-0.4-1.1-0.6-2.1-0.6c-0.5,0-0.9,0-1.2,0.1c-0.4,0.1-0.7,0.2-0.9,0.3c-0.2,0.1-0.3,0.3-0.3,0.4
	c0,0.1,0,0.2,0.1,0.4c0.1,0.2,0.2,0.3,0.3,0.4c0.1,0.1,0.2,0.2,0.3,0.2c0,0,0.1,0,0.3-0.1c0.2-0.1,0.4-0.1,0.6-0.2
	c0.2-0.1,0.5-0.1,0.8-0.1c0.3,0,0.6,0.1,0.8,0.2c0.2,0.1,0.2,0.3,0.2,0.6v0.4c-1.5,0-2.4,0.2-2.9,0.7c-0.5,0.5-0.7,1-0.7,1.7
	c0,0.6,0.2,1,0.5,1.4C57.2,53.5,57.7,53.7,58.3,53.7L58.3,53.7L58.3,53.7z M58.9,52.2c-0.2,0-0.4-0.1-0.5-0.2
	c-0.1-0.1-0.2-0.2-0.2-0.4c0-0.6,0.6-0.9,1.8-0.9v0.7c-0.1,0.2-0.3,0.4-0.5,0.6C59.4,52.1,59.2,52.2,58.9,52.2L58.9,52.2L58.9,52.2z
	 M65.8,53.7c0.4,0,0.7-0.1,1-0.3c0.3-0.2,0.5-0.4,0.7-0.7c0,0.1,0,0.1,0.1,0.3c0,0.1,0.1,0.3,0.1,0.4c0.1,0.1,0.2,0.2,0.3,0.2
	c0.3,0,0.6,0,0.9-0.1c0.3-0.1,0.5-0.2,0.5-0.3c0-0.1,0-0.2,0-0.3c0-0.2-0.1-0.5-0.1-0.7c0-0.2,0-0.5,0-0.9v-7c0-0.3-0.3-0.4-0.8-0.4
	h-0.4c-0.5,0-0.8,0.1-0.8,0.4v2.8c-0.4-0.3-0.8-0.4-1.3-0.4c-0.9,0-1.5,0.3-2,0.9c-0.5,0.6-0.7,1.5-0.7,2.5c0,0.7,0.1,1.3,0.3,1.9
	c0.2,0.5,0.5,0.9,0.9,1.2C64.9,53.5,65.3,53.7,65.8,53.7L65.8,53.7L65.8,53.7z M66.4,52.1c-0.7,0-1-0.6-1-1.9c0-1.3,0.4-1.9,1.2-1.9
	c0.3,0,0.6,0.1,0.9,0.2v2.9C67.1,51.9,66.8,52.1,66.4,52.1L66.4,52.1L66.4,52.1z M71.7,53.6H72c0.5,0,0.8-0.1,0.8-0.4v-4.1
	c0.1-0.2,0.2-0.3,0.4-0.4c0.2-0.1,0.4-0.2,0.6-0.2c0.1,0,0.2,0,0.3,0.1c0.1,0,0.2,0.1,0.3,0.1c0.1,0,0.2-0.1,0.3-0.4
	c0.1-0.3,0.1-0.5,0.1-0.7c0-0.2-0.1-0.3-0.2-0.5c-0.1-0.1-0.3-0.2-0.6-0.2c-0.3,0-0.6,0.1-0.8,0.3c-0.2,0.2-0.4,0.4-0.6,0.7
	c0-0.1,0-0.1-0.1-0.3c0-0.1-0.1-0.3-0.1-0.4c-0.1-0.1-0.2-0.2-0.3-0.2c-0.3,0-0.6,0-0.9,0.1c-0.3,0.1-0.5,0.2-0.5,0.3
	c0,0.1,0,0.1,0,0.3c0,0.2,0.1,0.5,0.1,0.7c0,0.2,0,0.5,0,0.9v4.1C70.9,53.5,71.1,53.6,71.7,53.6L71.7,53.6L71.7,53.6z M78.7,53.7
	c0.3,0,0.6,0,1-0.1c0.4-0.1,0.7-0.2,0.9-0.3c0.3-0.1,0.4-0.3,0.4-0.5c0-0.1,0-0.2-0.1-0.4c-0.1-0.2-0.2-0.3-0.3-0.4
	c-0.1-0.1-0.2-0.2-0.3-0.2c-0.1,0-0.1,0-0.3,0.1c-0.2,0.1-0.4,0.2-0.6,0.2c-0.2,0.1-0.4,0.1-0.7,0.1c-0.4,0-0.8-0.1-1-0.3
	c-0.2-0.2-0.4-0.6-0.4-1h3.3c0.1,0,0.2-0.1,0.4-0.3c0.2-0.2,0.3-0.4,0.3-0.5c0-1-0.2-1.8-0.7-2.4s-1.1-0.9-2.1-0.9
	c-1,0-1.7,0.3-2.3,0.8c-0.6,0.6-0.8,1.4-0.8,2.6c0,1.1,0.3,1.9,0.8,2.5C76.7,53.4,77.5,53.7,78.7,53.7L78.7,53.7L78.7,53.7z
	 M77.3,49.6c0.1-0.9,0.5-1.3,1.2-1.3c0.3,0,0.5,0.1,0.7,0.4c0.2,0.2,0.2,0.5,0.2,0.9H77.3L77.3,49.6z M84.2,53.7
	c0.8,0,1.4-0.2,1.8-0.6c0.4-0.4,0.7-0.9,0.7-1.6c0-0.5-0.1-0.8-0.3-1.1c-0.2-0.3-0.5-0.5-0.8-0.7c-0.1,0-0.2-0.1-0.3-0.1
	c-0.1,0-0.2-0.1-0.2-0.1c-0.3-0.1-0.5-0.2-0.7-0.3c-0.1-0.1-0.2-0.2-0.2-0.4c0-0.3,0.2-0.4,0.7-0.4c0.3,0,0.5,0,0.7,0.1
	c0.2,0.1,0.3,0.1,0.4,0.1c0.1,0,0.2-0.1,0.4-0.4c0.1-0.3,0.2-0.5,0.2-0.6c0-0.2-0.2-0.4-0.6-0.6c-0.4-0.1-0.8-0.2-1.3-0.2
	c-0.7,0-1.3,0.2-1.7,0.6c-0.4,0.4-0.6,0.9-0.6,1.5c0,0.6,0.1,1,0.4,1.3c0.3,0.3,0.6,0.5,1.1,0.7c0.3,0.1,0.5,0.2,0.7,0.3
	c0.1,0.1,0.2,0.1,0.3,0.2c0.1,0.1,0.1,0.2,0.1,0.4c0,0.2-0.1,0.3-0.2,0.4c-0.1,0.1-0.3,0.1-0.6,0.1c-0.2,0-0.4,0-0.5-0.1
	c-0.1,0-0.3-0.1-0.5-0.2c-0.1-0.1-0.2-0.1-0.3-0.1c-0.1,0-0.3,0.1-0.4,0.4c-0.2,0.2-0.2,0.5-0.2,0.6c0,0.3,0.2,0.5,0.7,0.6
	C83.2,53.6,83.7,53.7,84.2,53.7L84.2,53.7L84.2,53.7z"/>
<g>
	<defs>
		<rect id="SVGID_1_" x="19.8" y="103.2" width="20" height="19.2"/>
	</defs>
	<defs>
		<path id="SVGID_2_" d="M30.8,104.8l7.9,13.4c0.2,0.4,0.3,0.8,0.2,1.3c-0.1,0.4-0.4,0.8-0.8,1c-0.3,0.2-0.5,0.2-0.8,0.2H21.4
			c-0.9,0-1.7-0.7-1.7-1.7c0-0.3,0.1-0.6,0.2-0.9l7.9-13.5c0.2-0.4,0.6-0.7,1-0.8c0.4-0.1,0.9,0,1.3,0.2
			C30.5,104.3,30.7,104.5,30.8,104.8L30.8,104.8z"/>
	</defs>
	<clipPath id="SVGID_3_">
		<use xlink:href="#SVGID_1_"  style="overflow:visible;"/>
	</clipPath>
	<clipPath id="SVGID_4_" class="st2">
		<use xlink:href="#SVGID_2_"  style="overflow:visible;"/>
	</clipPath>
	<rect x="15.8" y="100" class="st3" width="27.2" height="24.8"/>
</g>
<g>
	<defs>
		<rect id="SVGID_5_" x="19.8" y="103.2" width="20" height="19.2"/>
	</defs>
	<defs>
		<path id="SVGID_6_" d="M29,108.8h0.8c0.2,0,0.4,0.2,0.4,0.4v4.8c0,0.2-0.2,0.4-0.4,0.4H29c-0.2,0-0.4-0.2-0.4-0.4v-4.8
			C28.6,109,28.8,108.8,29,108.8L29,108.8z"/>
	</defs>
	<clipPath id="SVGID_7_">
		<use xlink:href="#SVGID_5_"  style="overflow:visible;"/>
	</clipPath>
	<clipPath id="SVGID_8_" class="st4">
		<use xlink:href="#SVGID_6_"  style="overflow:visible;"/>
	</clipPath>
	<rect x="24.6" y="104.8" class="st5" width="9.6" height="13.6"/>
</g>
<g>
	<defs>
		<rect id="SVGID_9_" x="19.8" y="103.2" width="20" height="19.2"/>
	</defs>
	<defs>
		<path id="SVGID_10_" d="M29.4,118.4c0.7,0,1.2-0.5,1.2-1.2c0-0.7-0.5-1.2-1.2-1.2c-0.7,0-1.2,0.5-1.2,1.2
			C28.2,117.8,28.7,118.4,29.4,118.4L29.4,118.4z"/>
	</defs>
	<clipPath id="SVGID_11_">
		<use xlink:href="#SVGID_9_"  style="overflow:visible;"/>
	</clipPath>
	<clipPath id="SVGID_12_" class="st6">
		<use xlink:href="#SVGID_10_"  style="overflow:visible;"/>
	</clipPath>
	<rect x="24.2" y="112" class="st7" width="10.4" height="10.4"/>
</g>
<path class="st8" d="M21.5,182.2h0.1c0.3,0,0.5-0.1,0.5-0.3v-8.4c0-0.2-0.2-0.3-0.5-0.3h-0.1c-0.3,0-0.5,0.1-0.5,0.3v8.4
	C21,182.2,21.2,182.2,21.5,182.2L21.5,182.2L21.5,182.2z M25,182.2L25,182.2c0.4,0,0.6-0.1,0.6-0.3v-4.7c0.2-0.3,0.5-0.5,0.7-0.7
	c0.3-0.2,0.6-0.2,0.9-0.2c0.4,0,0.7,0.1,1,0.3c0.2,0.2,0.3,0.5,0.3,0.9v4.3c0,0.2,0.2,0.3,0.5,0.3h0.1c0.3,0,0.5-0.1,0.5-0.3v-4.4
	c0-0.6-0.2-1.2-0.6-1.5c-0.4-0.4-0.9-0.6-1.5-0.6c-0.4,0-0.7,0.1-1.1,0.3c-0.3,0.2-0.7,0.4-0.9,0.7c0,0,0-0.1-0.1-0.3
	c0-0.1-0.1-0.3-0.1-0.4c-0.1-0.1-0.1-0.2-0.3-0.2c-0.1,0-0.3,0-0.4,0.1c-0.2,0-0.2,0.1-0.2,0.2c0,0,0,0.2,0.1,0.4
	c0.1,0.2,0.1,0.6,0.1,1.2v4.5C24.5,182.2,24.7,182.2,25,182.2L25,182.2L25,182.2z M33,182.3c0.4,0,0.8-0.1,1.1-0.3
	c0.3-0.2,0.6-0.4,0.8-0.7c0.2-0.3,0.3-0.6,0.3-1c0-0.4-0.1-0.7-0.2-1c-0.1-0.2-0.3-0.4-0.6-0.6c-0.3-0.2-0.7-0.3-1.2-0.5
	c-0.4-0.1-0.6-0.3-0.8-0.4c-0.2-0.2-0.2-0.4-0.2-0.7c0-0.2,0.1-0.4,0.3-0.6c0.2-0.1,0.5-0.2,0.8-0.2c0.3,0,0.6,0.1,0.8,0.2
	c0.2,0.1,0.3,0.2,0.3,0.2c0.1,0,0.2-0.1,0.3-0.3c0.1-0.2,0.1-0.3,0.1-0.4c0-0.1-0.2-0.3-0.5-0.4c-0.3-0.1-0.7-0.2-1.2-0.2
	c-0.4,0-0.8,0.1-1.1,0.2c-0.3,0.2-0.6,0.4-0.8,0.7c-0.2,0.3-0.3,0.6-0.3,1c0,0.5,0.1,0.9,0.4,1.2c0.3,0.3,0.7,0.5,1.4,0.7
	c0.5,0.1,0.8,0.3,1,0.5c0.2,0.2,0.3,0.4,0.3,0.7c0,0.7-0.4,1-1.3,1c-0.3,0-0.5,0-0.7-0.1c-0.2-0.1-0.4-0.2-0.5-0.3
	c-0.1-0.1-0.2-0.1-0.2-0.1c-0.1,0-0.2,0.1-0.3,0.3c-0.1,0.2-0.2,0.3-0.2,0.4c0,0.1,0.1,0.2,0.3,0.3c0.2,0.1,0.4,0.2,0.7,0.3
	C32.3,182.3,32.6,182.3,33,182.3L33,182.3L33,182.3z M38.8,182.3c0.6,0,0.9-0.1,0.9-0.4c0-0.1,0-0.2-0.1-0.4
	c-0.1-0.2-0.1-0.2-0.2-0.2c0,0-0.1,0-0.2,0c-0.1,0-0.2,0-0.4,0c-0.2,0-0.4-0.1-0.5-0.2c-0.1-0.1-0.2-0.4-0.2-0.7v-4h1.1
	c0.1,0,0.2,0,0.2-0.1c0-0.1,0.1-0.2,0.1-0.3v-0.2c0-0.1,0-0.2-0.1-0.3c0-0.1-0.1-0.1-0.2-0.1h-1.1v-1.3c0-0.2-0.1-0.3-0.4-0.3h-0.1
	c-0.2,0-0.4,0.1-0.4,0.3l-0.2,1.3h-0.6c-0.1,0-0.1,0-0.2,0.1c0,0.1-0.1,0.2-0.1,0.3v0.2c0,0.1,0,0.2,0.1,0.3c0,0.1,0.1,0.1,0.2,0.1
	h0.6v4.1c0,0.7,0.2,1.1,0.5,1.4C38,182.2,38.4,182.3,38.8,182.3L38.8,182.3L38.8,182.3z M41.9,182.2L41.9,182.2
	c0.4,0,0.6-0.1,0.6-0.3v-4.7c0,0,0.1-0.1,0.2-0.2c0.1-0.1,0.3-0.3,0.4-0.4c0.2-0.1,0.4-0.2,0.6-0.2c0.2,0,0.3,0,0.5,0.1
	c0.1,0,0.2,0.1,0.2,0.1c0.1,0,0.1-0.1,0.2-0.2c0.1-0.2,0.1-0.3,0.1-0.5c0-0.1-0.1-0.3-0.2-0.4c-0.1-0.1-0.3-0.1-0.6-0.1
	c-0.5,0-1,0.3-1.5,1c0,0,0-0.1-0.1-0.3c0-0.1-0.1-0.3-0.1-0.4c-0.1-0.1-0.1-0.2-0.3-0.2c-0.1,0-0.3,0-0.4,0.1
	c-0.2,0-0.2,0.1-0.2,0.2c0,0,0,0.2,0.1,0.4s0.1,0.6,0.1,1.2v4.5C41.3,182.2,41.5,182.2,41.9,182.2L41.9,182.2L41.9,182.2z
	 M47.9,182.3c0.4,0,0.7-0.1,1.1-0.3c0.3-0.2,0.7-0.4,0.9-0.7c0,0,0,0.1,0.1,0.3c0,0.1,0.1,0.3,0.1,0.4c0.1,0.1,0.1,0.2,0.3,0.2
	c0.1,0,0.3,0,0.4-0.1c0.2,0,0.2-0.1,0.2-0.2c0,0,0-0.2-0.1-0.4c-0.1-0.2-0.1-0.6-0.1-1.2v-4.5c0-0.2-0.2-0.3-0.5-0.3h-0.1
	c-0.3,0-0.5,0.1-0.5,0.3v4.7c-0.2,0.3-0.5,0.5-0.7,0.7c-0.3,0.2-0.6,0.2-0.9,0.2c-0.4,0-0.7-0.1-1-0.3c-0.2-0.2-0.3-0.5-0.3-0.9
	v-4.3c0-0.2-0.2-0.3-0.5-0.3h-0.1c-0.3,0-0.5,0.1-0.5,0.3v4.4c0,0.6,0.2,1.2,0.6,1.5C46.8,182.1,47.3,182.3,47.9,182.3L47.9,182.3
	L47.9,182.3z M55.8,182.3c0.4,0,0.7,0,1-0.1s0.6-0.2,0.7-0.2c0.2-0.1,0.3-0.2,0.3-0.3s-0.1-0.2-0.2-0.4c-0.1-0.2-0.2-0.2-0.3-0.2
	l-0.1,0.1c-0.4,0.2-0.9,0.3-1.4,0.3c-0.7,0-1.2-0.2-1.5-0.6c-0.3-0.4-0.5-1.1-0.5-2c0-1.6,0.6-2.4,1.9-2.4c0.5,0,0.9,0.1,1.4,0.3
	c0,0,0.1,0,0.1,0c0,0,0,0,0.1,0c0.1,0,0.2-0.1,0.3-0.3c0.1-0.2,0.1-0.3,0.1-0.4c0-0.2-0.2-0.3-0.6-0.4c-0.4-0.1-0.8-0.2-1.3-0.2
	c-0.9,0-1.6,0.3-2.2,0.8c-0.6,0.5-0.9,1.4-0.9,2.6c0,1.2,0.3,2.1,0.8,2.6C54,182,54.8,182.3,55.8,182.3L55.8,182.3L55.8,182.3z
	 M61.2,182.3c0.6,0,0.9-0.1,0.9-0.4c0-0.1,0-0.2-0.1-0.4c-0.1-0.2-0.1-0.2-0.2-0.2c0,0-0.1,0-0.2,0c-0.1,0-0.2,0-0.4,0
	c-0.2,0-0.4-0.1-0.5-0.2c-0.1-0.1-0.2-0.4-0.2-0.7v-4h1.1c0.1,0,0.2,0,0.2-0.1c0-0.1,0.1-0.2,0.1-0.3v-0.2c0-0.1,0-0.2-0.1-0.3
	c0-0.1-0.1-0.1-0.2-0.1h-1.1v-1.3c0-0.2-0.1-0.3-0.4-0.3h-0.1c-0.2,0-0.4,0.1-0.4,0.3l-0.2,1.3h-0.6c-0.1,0-0.1,0-0.2,0.1
	c0,0.1-0.1,0.2-0.1,0.3v0.2c0,0.1,0,0.2,0.1,0.3c0,0.1,0.1,0.1,0.2,0.1h0.6v4.1c0,0.7,0.2,1.1,0.5,1.4
	C60.4,182.2,60.8,182.3,61.2,182.3L61.2,182.3L61.2,182.3z M64.3,174.3c0.4,0,0.6-0.1,0.6-0.3v-0.7c0-0.2-0.2-0.3-0.6-0.3
	c-0.4,0-0.6,0.1-0.6,0.3v0.7C63.7,174.2,63.9,174.3,64.3,174.3L64.3,174.3L64.3,174.3z M64.3,182.2L64.3,182.2
	c0.4,0,0.6-0.1,0.6-0.3v-6.2c0-0.2-0.2-0.3-0.5-0.3h-0.1c-0.3,0-0.5,0.1-0.5,0.3v6.2C63.8,182.2,63.9,182.2,64.3,182.2L64.3,182.2
	L64.3,182.2z M69.8,182.3c0.4,0,0.8,0,1.1-0.1c0.4-0.1,0.6-0.2,0.9-0.3c0.2-0.1,0.3-0.2,0.3-0.4c0-0.1-0.1-0.2-0.2-0.4
	c-0.1-0.2-0.2-0.3-0.3-0.3c0,0-0.1,0-0.3,0.1c-0.2,0.1-0.4,0.2-0.6,0.3c-0.3,0.1-0.6,0.1-0.9,0.1c-0.6,0-1.1-0.2-1.4-0.5
	c-0.3-0.3-0.5-0.9-0.6-1.6h4c0.1,0,0.2-0.1,0.3-0.2c0.1-0.1,0.2-0.2,0.2-0.3c0-1.1-0.2-1.9-0.7-2.5c-0.4-0.6-1.1-0.9-2-0.9
	c-1,0-1.7,0.3-2.2,0.9c-0.5,0.6-0.8,1.5-0.8,2.6c0,1.1,0.3,2,0.8,2.5C68,182,68.8,182.3,69.8,182.3L69.8,182.3L69.8,182.3z
	 M67.8,178.4c0.1-1.3,0.7-2,1.8-2c1,0,1.5,0.7,1.5,2H67.8L67.8,178.4z M79,182.3c0.6,0,0.9-0.1,0.9-0.4c0-0.1,0-0.2-0.1-0.4
	c-0.1-0.2-0.1-0.2-0.2-0.2c0,0-0.1,0-0.2,0c-0.1,0-0.2,0-0.4,0c-0.2,0-0.4-0.1-0.5-0.2c-0.1-0.1-0.2-0.4-0.2-0.7v-4h1.1
	c0.1,0,0.2,0,0.2-0.1c0-0.1,0.1-0.2,0.1-0.3v-0.2c0-0.1,0-0.2-0.1-0.3c0-0.1-0.1-0.1-0.2-0.1h-1.1v-1.3c0-0.2-0.1-0.3-0.4-0.3h-0.1
	c-0.2,0-0.4,0.1-0.4,0.3l-0.2,1.3h-0.6c-0.1,0-0.1,0-0.2,0.1c0,0.1-0.1,0.2-0.1,0.3v0.2c0,0.1,0,0.2,0.1,0.3c0,0.1,0.1,0.1,0.2,0.1
	h0.6v4.1c0,0.7,0.2,1.1,0.5,1.4C78.2,182.2,78.5,182.3,79,182.3L79,182.3L79,182.3z M84.2,182.3c0.4,0,0.8,0,1.1-0.1
	c0.4-0.1,0.6-0.2,0.9-0.3c0.2-0.1,0.3-0.2,0.3-0.4c0-0.1-0.1-0.2-0.2-0.4c-0.1-0.2-0.2-0.3-0.3-0.3c0,0-0.1,0-0.3,0.1
	c-0.2,0.1-0.4,0.2-0.6,0.3c-0.3,0.1-0.6,0.1-0.9,0.1c-0.6,0-1.1-0.2-1.4-0.5c-0.3-0.3-0.5-0.9-0.6-1.6h4c0.1,0,0.2-0.1,0.3-0.2
	c0.1-0.1,0.2-0.2,0.2-0.3c0-1.1-0.2-1.9-0.7-2.5c-0.4-0.6-1.1-0.9-2-0.9c-1,0-1.7,0.3-2.2,0.9c-0.5,0.6-0.8,1.5-0.8,2.6
	c0,1.1,0.3,2,0.8,2.5C82.3,182,83.1,182.3,84.2,182.3L84.2,182.3L84.2,182.3z M82.2,178.4c0.1-1.3,0.7-2,1.8-2c1,0,1.5,0.7,1.5,2
	H82.2L82.2,178.4z M93.3,181.9l-2.6-3.1l2.4-2.8c0.1-0.1,0.1-0.2,0.1-0.3c0-0.1,0-0.1-0.1-0.1c-0.1,0-0.2,0-0.3,0h-0.1
	c-0.4,0-0.6,0.1-0.7,0.2l-2.4,2.9h-0.1v-5.7c0-0.2-0.2-0.3-0.5-0.3h-0.1c-0.3,0-0.5,0.1-0.5,0.3v9.1c0,0.2,0.2,0.3,0.5,0.3H89
	c0.3,0,0.5-0.1,0.5-0.3V179h0.1l2.6,3c0.1,0.1,0.1,0.1,0.3,0.1c0.1,0,0.3,0,0.4,0h0.1c0.2,0,0.3,0,0.4,0c0.1,0,0.1-0.1,0.1-0.1
	C93.4,182,93.4,181.9,93.3,181.9L93.3,181.9L93.3,181.9z M96.4,182.3c0.4,0,0.8-0.1,1.1-0.3c0.3-0.2,0.6-0.4,0.8-0.7
	c0.2-0.3,0.3-0.6,0.3-1c0-0.4-0.1-0.7-0.2-1c-0.1-0.2-0.3-0.4-0.6-0.6c-0.3-0.2-0.7-0.3-1.2-0.5c-0.4-0.1-0.6-0.3-0.8-0.4
	c-0.2-0.2-0.2-0.4-0.2-0.7c0-0.2,0.1-0.4,0.3-0.6c0.2-0.1,0.5-0.2,0.8-0.2c0.3,0,0.6,0.1,0.8,0.2c0.2,0.1,0.3,0.2,0.3,0.2
	c0.1,0,0.2-0.1,0.3-0.3c0.1-0.2,0.1-0.3,0.1-0.4c0-0.1-0.2-0.3-0.5-0.4c-0.3-0.1-0.7-0.2-1.2-0.2c-0.4,0-0.8,0.1-1.1,0.2
	c-0.3,0.2-0.6,0.4-0.8,0.7c-0.2,0.3-0.3,0.6-0.3,1c0,0.5,0.1,0.9,0.4,1.2c0.3,0.3,0.7,0.5,1.4,0.7c0.5,0.1,0.8,0.3,1,0.5
	c0.2,0.2,0.3,0.4,0.3,0.7c0,0.7-0.4,1-1.3,1c-0.3,0-0.5,0-0.7-0.1c-0.2-0.1-0.4-0.2-0.5-0.3c-0.1-0.1-0.2-0.1-0.2-0.1
	c-0.1,0-0.2,0.1-0.3,0.3c-0.1,0.2-0.2,0.3-0.2,0.4c0,0.1,0.1,0.2,0.3,0.3c0.2,0.1,0.4,0.2,0.7,0.3C95.7,182.3,96,182.3,96.4,182.3
	L96.4,182.3L96.4,182.3z M102.2,182.3c0.6,0,0.9-0.1,0.9-0.4c0-0.1,0-0.2-0.1-0.4c-0.1-0.2-0.1-0.2-0.2-0.2c0,0-0.1,0-0.2,0
	c-0.1,0-0.2,0-0.4,0c-0.2,0-0.4-0.1-0.5-0.2c-0.1-0.1-0.2-0.4-0.2-0.7v-4h1.1c0.1,0,0.2,0,0.2-0.1c0-0.1,0.1-0.2,0.1-0.3v-0.2
	c0-0.1,0-0.2-0.1-0.3c0-0.1-0.1-0.1-0.2-0.1h-1.1v-1.3c0-0.2-0.1-0.3-0.4-0.3h-0.1c-0.2,0-0.4,0.1-0.4,0.3l-0.2,1.3h-0.6
	c-0.1,0-0.1,0-0.2,0.1c0,0.1-0.1,0.2-0.1,0.3v0.2c0,0.1,0,0.2,0.1,0.3c0,0.1,0.1,0.1,0.2,0.1h0.6v4.1c0,0.7,0.2,1.1,0.5,1.4
	C101.4,182.2,101.8,182.3,102.2,182.3L102.2,182.3L102.2,182.3z M110.7,182.3c0.5,0,0.9-0.1,1.3-0.4c0.4-0.3,0.7-0.7,0.9-1.2
	c0.2-0.5,0.3-1.1,0.3-1.8c0-0.7-0.1-1.3-0.3-1.9c-0.2-0.5-0.5-0.9-0.9-1.2c-0.4-0.3-0.8-0.4-1.4-0.4c-0.4,0-0.7,0.1-1,0.2
	c-0.3,0.1-0.6,0.3-0.8,0.5v-3.2c0-0.2-0.2-0.3-0.5-0.3h-0.1c-0.3,0-0.5,0.1-0.5,0.3v9.1c0,0.2,0.1,0.3,0.4,0.3h0.1
	c0.2,0,0.3-0.1,0.3-0.2c0.1-0.2,0.2-0.5,0.2-0.8C109.3,182,110,182.3,110.7,182.3L110.7,182.3L110.7,182.3z M110.5,181.4
	c-0.3,0-0.6-0.1-0.9-0.2c-0.3-0.2-0.6-0.4-0.8-0.7V177c0.2-0.2,0.5-0.3,0.7-0.4c0.3-0.1,0.6-0.1,0.8-0.1c0.6,0,1,0.2,1.3,0.6
	c0.3,0.4,0.4,1,0.4,1.8c0,0.8-0.1,1.5-0.4,1.9C111.4,181.1,111,181.4,110.5,181.4L110.5,181.4L110.5,181.4z M117,182.3
	c0.4,0,0.7-0.1,1.1-0.3c0.3-0.2,0.7-0.4,0.9-0.7c0,0,0,0.1,0.1,0.3c0,0.1,0.1,0.3,0.1,0.4c0.1,0.1,0.1,0.2,0.3,0.2
	c0.1,0,0.3,0,0.4-0.1c0.2,0,0.2-0.1,0.2-0.2c0,0,0-0.2-0.1-0.4c-0.1-0.2-0.1-0.6-0.1-1.2v-4.5c0-0.2-0.2-0.3-0.5-0.3h-0.1
	c-0.3,0-0.5,0.1-0.5,0.3v4.7c-0.2,0.3-0.5,0.5-0.7,0.7c-0.3,0.2-0.6,0.2-0.9,0.2c-0.4,0-0.7-0.1-1-0.3c-0.2-0.2-0.3-0.5-0.3-0.9
	v-4.3c0-0.2-0.2-0.3-0.5-0.3h-0.1c-0.3,0-0.5,0.1-0.5,0.3v4.4c0,0.6,0.2,1.2,0.6,1.5C115.8,182.1,116.3,182.3,117,182.3L117,182.3
	L117,182.3z M122.7,174.3c0.4,0,0.6-0.1,0.6-0.3v-0.7c0-0.2-0.2-0.3-0.6-0.3c-0.4,0-0.6,0.1-0.6,0.3v0.7
	C122.2,174.2,122.3,174.3,122.7,174.3L122.7,174.3L122.7,174.3z M122.7,182.2L122.7,182.2c0.4,0,0.6-0.1,0.6-0.3v-6.2
	c0-0.2-0.2-0.3-0.5-0.3h-0.1c-0.3,0-0.5,0.1-0.5,0.3v6.2C122.2,182.2,122.4,182.2,122.7,182.2L122.7,182.2L122.7,182.2z
	 M127.5,182.3c0.6,0,0.9-0.1,0.9-0.4c0-0.1,0-0.2-0.1-0.4c-0.1-0.2-0.1-0.2-0.2-0.2c0,0-0.1,0-0.2,0c-0.1,0-0.2,0-0.4,0
	c-0.2,0-0.4-0.1-0.5-0.2c-0.1-0.1-0.2-0.4-0.2-0.7v-4h1.1c0.1,0,0.2,0,0.2-0.1c0-0.1,0.1-0.2,0.1-0.3v-0.2c0-0.1,0-0.2-0.1-0.3
	c0-0.1-0.1-0.1-0.2-0.1h-1.1v-1.3c0-0.2-0.1-0.3-0.4-0.3h-0.1c-0.2,0-0.4,0.1-0.4,0.3l-0.2,1.3h-0.6c-0.1,0-0.1,0-0.2,0.1
	c0,0.1-0.1,0.2-0.1,0.3v0.2c0,0.1,0,0.2,0.1,0.3c0,0.1,0.1,0.1,0.2,0.1h0.6v4.1c0,0.7,0.2,1.1,0.5,1.4
	C126.7,182.2,127,182.3,127.5,182.3L127.5,182.3L127.5,182.3z M132.7,182.3c0.4,0,0.8,0,1.1-0.1c0.4-0.1,0.6-0.2,0.9-0.3
	c0.2-0.1,0.3-0.2,0.3-0.4c0-0.1-0.1-0.2-0.2-0.4c-0.1-0.2-0.2-0.3-0.3-0.3c0,0-0.1,0-0.3,0.1c-0.2,0.1-0.4,0.2-0.6,0.3
	c-0.3,0.1-0.6,0.1-0.9,0.1c-0.6,0-1.1-0.2-1.4-0.5c-0.3-0.3-0.5-0.9-0.6-1.6h4c0.1,0,0.2-0.1,0.3-0.2c0.1-0.1,0.2-0.2,0.2-0.3
	c0-1.1-0.2-1.9-0.7-2.5c-0.4-0.6-1.1-0.9-2-0.9c-1,0-1.7,0.3-2.2,0.9c-0.5,0.6-0.8,1.5-0.8,2.6c0,1.1,0.3,2,0.8,2.5
	C130.8,182,131.6,182.3,132.7,182.3L132.7,182.3L132.7,182.3z M130.7,178.4c0.1-1.3,0.7-2,1.8-2c1,0,1.5,0.7,1.5,2H130.7
	L130.7,178.4z M137.3,182.2L137.3,182.2c0.4,0,0.6-0.1,0.6-0.3v-4.7c0.2-0.3,0.5-0.5,0.7-0.7c0.3-0.2,0.6-0.2,0.9-0.2
	c0.4,0,0.7,0.1,1,0.3c0.2,0.2,0.3,0.5,0.3,0.9v4.3c0,0.2,0.2,0.3,0.5,0.3h0.1c0.3,0,0.5-0.1,0.5-0.3v-4.4c0-0.6-0.2-1.2-0.6-1.5
	c-0.4-0.4-0.9-0.6-1.5-0.6c-0.4,0-0.7,0.1-1.1,0.3c-0.4,0.2-0.7,0.4-0.9,0.7c0,0,0-0.1-0.1-0.3c0-0.1-0.1-0.3-0.1-0.4
	c-0.1-0.1-0.1-0.2-0.3-0.2c-0.1,0-0.3,0-0.4,0.1c-0.2,0-0.2,0.1-0.2,0.2c0,0,0,0.2,0.1,0.4s0.1,0.6,0.1,1.2v4.5
	C136.8,182.2,137,182.2,137.3,182.2L137.3,182.2L137.3,182.2z M149.8,182.3c0.4,0,0.8,0,1.1-0.1c0.4-0.1,0.6-0.2,0.9-0.3
	c0.2-0.1,0.3-0.2,0.3-0.4c0-0.1-0.1-0.2-0.2-0.4c-0.1-0.2-0.2-0.3-0.3-0.3c0,0-0.1,0-0.3,0.1c-0.2,0.1-0.4,0.2-0.6,0.3
	c-0.3,0.1-0.6,0.1-0.9,0.1c-0.6,0-1.1-0.2-1.4-0.5c-0.3-0.3-0.5-0.9-0.6-1.6h4c0.1,0,0.2-0.1,0.3-0.2c0.1-0.1,0.2-0.2,0.2-0.3
	c0-1.1-0.2-1.9-0.7-2.5c-0.4-0.6-1.1-0.9-2-0.9c-1,0-1.7,0.3-2.2,0.9c-0.5,0.6-0.8,1.5-0.8,2.6c0,1.1,0.3,2,0.8,2.5
	C147.9,182,148.7,182.3,149.8,182.3L149.8,182.3L149.8,182.3z M147.8,178.4c0.1-1.3,0.7-2,1.8-2c1,0,1.5,0.7,1.5,2H147.8
	L147.8,178.4z M156.7,182.3c0.4,0,0.8,0,1.1-0.1c0.4-0.1,0.6-0.2,0.9-0.3c0.2-0.1,0.3-0.2,0.3-0.4c0-0.1-0.1-0.2-0.2-0.4
	c-0.1-0.2-0.2-0.3-0.3-0.3c0,0-0.1,0-0.3,0.1c-0.2,0.1-0.4,0.2-0.6,0.3c-0.3,0.1-0.6,0.1-0.9,0.1c-0.6,0-1.1-0.2-1.4-0.5
	c-0.3-0.3-0.5-0.9-0.6-1.6h4c0.1,0,0.2-0.1,0.3-0.2c0.1-0.1,0.2-0.2,0.2-0.3c0-1.1-0.2-1.9-0.7-2.5c-0.4-0.6-1.1-0.9-2-0.9
	c-1,0-1.7,0.3-2.2,0.9c-0.5,0.6-0.8,1.5-0.8,2.6c0,1.1,0.3,2,0.8,2.5C154.8,182,155.6,182.3,156.7,182.3L156.7,182.3L156.7,182.3z
	 M154.7,178.4c0.1-1.3,0.7-2,1.8-2c1,0,1.5,0.7,1.5,2H154.7L154.7,178.4z M161.3,182.2L161.3,182.2c0.4,0,0.6-0.1,0.6-0.3v-4.7
	c0.2-0.3,0.5-0.5,0.7-0.7c0.3-0.2,0.6-0.2,0.9-0.2c0.4,0,0.7,0.1,1,0.3c0.2,0.2,0.3,0.5,0.3,0.9v4.3c0,0.2,0.2,0.3,0.5,0.3h0.1
	c0.3,0,0.5-0.1,0.5-0.3v-4.4c0-0.6-0.2-1.2-0.6-1.5c-0.4-0.4-0.9-0.6-1.5-0.6c-0.4,0-0.7,0.1-1.1,0.3c-0.3,0.2-0.7,0.4-0.9,0.7
	c0,0,0-0.1-0.1-0.3c0-0.1-0.1-0.3-0.1-0.4c-0.1-0.1-0.1-0.2-0.3-0.2c-0.1,0-0.3,0-0.4,0.1c-0.2,0-0.2,0.1-0.2,0.2c0,0,0,0.2,0.1,0.4
	s0.1,0.6,0.1,1.2v4.5C160.8,182.2,161,182.2,161.3,182.2L161.3,182.2L161.3,182.2z M172.9,182.3c0.6,0,0.9-0.1,0.9-0.4
	c0-0.1,0-0.2-0.1-0.4c-0.1-0.2-0.1-0.2-0.2-0.2c0,0-0.1,0-0.2,0c-0.1,0-0.2,0-0.4,0c-0.2,0-0.4-0.1-0.5-0.2
	c-0.1-0.1-0.2-0.4-0.2-0.7v-4h1.1c0.1,0,0.2,0,0.2-0.1s0.1-0.2,0.1-0.3v-0.2c0-0.1,0-0.2-0.1-0.3c0-0.1-0.1-0.1-0.2-0.1h-1.1v-1.3
	c0-0.2-0.1-0.3-0.4-0.3h-0.1c-0.2,0-0.4,0.1-0.4,0.3l-0.2,1.3h-0.6c-0.1,0-0.1,0-0.2,0.1c0,0.1-0.1,0.2-0.1,0.3v0.2
	c0,0.1,0,0.2,0.1,0.3c0,0.1,0.1,0.1,0.2,0.1h0.6v4.1c0,0.7,0.2,1.1,0.5,1.4C172.1,182.2,172.5,182.3,172.9,182.3L172.9,182.3
	L172.9,182.3z M178.1,182.3c0.4,0,0.8,0,1.1-0.1c0.4-0.1,0.6-0.2,0.9-0.3c0.2-0.1,0.3-0.2,0.3-0.4c0-0.1-0.1-0.2-0.2-0.4
	c-0.1-0.2-0.2-0.3-0.3-0.3c0,0-0.1,0-0.3,0.1c-0.2,0.1-0.4,0.2-0.6,0.3c-0.3,0.1-0.6,0.1-0.9,0.1c-0.6,0-1.1-0.2-1.4-0.5
	c-0.3-0.3-0.5-0.9-0.6-1.6h4c0.1,0,0.2-0.1,0.3-0.2c0.1-0.1,0.2-0.2,0.2-0.3c0-1.1-0.2-1.9-0.7-2.5c-0.4-0.6-1.1-0.9-2-0.9
	c-1,0-1.7,0.3-2.2,0.9c-0.5,0.6-0.8,1.5-0.8,2.6c0,1.1,0.3,2,0.8,2.5C176.3,182,177.1,182.3,178.1,182.3L178.1,182.3L178.1,182.3z
	 M176.2,178.4c0.1-1.3,0.7-2,1.8-2c1,0,1.5,0.7,1.5,2H176.2L176.2,178.4z M187.3,181.9l-2.6-3.1l2.4-2.8c0.1-0.1,0.1-0.2,0.1-0.3
	c0-0.1,0-0.1-0.1-0.1c-0.1,0-0.2,0-0.3,0h-0.1c-0.4,0-0.6,0.1-0.7,0.2l-2.4,2.9h-0.1v-5.7c0-0.2-0.2-0.3-0.5-0.3h-0.1
	c-0.3,0-0.5,0.1-0.5,0.3v9.1c0,0.2,0.2,0.3,0.5,0.3h0.1c0.3,0,0.5-0.1,0.5-0.3V179h0.1l2.6,3c0.1,0.1,0.1,0.1,0.3,0.1
	c0.1,0,0.3,0,0.4,0h0.1c0.2,0,0.3,0,0.4,0c0.1,0,0.1-0.1,0.1-0.1C187.4,182,187.4,181.9,187.3,181.9L187.3,181.9L187.3,181.9z
	 M190.3,182.3c0.4,0,0.8-0.1,1.1-0.3c0.3-0.2,0.6-0.4,0.8-0.7c0.2-0.3,0.3-0.6,0.3-1c0-0.4-0.1-0.7-0.2-1c-0.1-0.2-0.3-0.4-0.6-0.6
	c-0.3-0.2-0.7-0.3-1.2-0.5c-0.4-0.1-0.6-0.3-0.8-0.4c-0.2-0.2-0.2-0.4-0.2-0.7c0-0.2,0.1-0.4,0.3-0.6c0.2-0.1,0.5-0.2,0.8-0.2
	c0.3,0,0.6,0.1,0.8,0.2c0.2,0.1,0.3,0.2,0.3,0.2c0.1,0,0.2-0.1,0.3-0.3c0.1-0.2,0.1-0.3,0.1-0.4c0-0.1-0.2-0.3-0.5-0.4
	c-0.3-0.1-0.7-0.2-1.2-0.2c-0.4,0-0.8,0.1-1.1,0.2c-0.3,0.2-0.6,0.4-0.8,0.7c-0.2,0.3-0.3,0.6-0.3,1c0,0.5,0.1,0.9,0.4,1.2
	c0.3,0.3,0.7,0.5,1.4,0.7c0.5,0.1,0.8,0.3,1,0.5c0.2,0.2,0.3,0.4,0.3,0.7c0,0.7-0.4,1-1.3,1c-0.3,0-0.5,0-0.7-0.1
	c-0.2-0.1-0.4-0.2-0.5-0.3c-0.1-0.1-0.2-0.1-0.2-0.1c-0.1,0-0.2,0.1-0.3,0.3c-0.1,0.2-0.2,0.3-0.2,0.4c0,0.1,0.1,0.2,0.3,0.3
	c0.2,0.1,0.4,0.2,0.7,0.3C189.6,182.3,190,182.3,190.3,182.3L190.3,182.3L190.3,182.3z M196.2,182.3c0.6,0,0.9-0.1,0.9-0.4
	c0-0.1,0-0.2-0.1-0.4c-0.1-0.2-0.1-0.2-0.2-0.2c0,0-0.1,0-0.2,0c-0.1,0-0.2,0-0.4,0c-0.2,0-0.4-0.1-0.5-0.2
	c-0.1-0.1-0.2-0.4-0.2-0.7v-4h1.1c0.1,0,0.2,0,0.2-0.1c0-0.1,0.1-0.2,0.1-0.3v-0.2c0-0.1,0-0.2-0.1-0.3c0-0.1-0.1-0.1-0.2-0.1h-1.1
	v-1.3c0-0.2-0.1-0.3-0.4-0.3h-0.1c-0.2,0-0.4,0.1-0.4,0.3l-0.2,1.3h-0.6c-0.1,0-0.1,0-0.2,0.1c0,0.1-0.1,0.2-0.1,0.3v0.2
	c0,0.1,0,0.2,0.1,0.3c0,0.1,0.1,0.1,0.2,0.1h0.6v4.1c0,0.7,0.2,1.1,0.5,1.4C195.4,182.2,195.7,182.3,196.2,182.3L196.2,182.3
	L196.2,182.3z M200.4,182.2h0.4c0.3,0,0.5-0.1,0.5-0.2l2.1-6.1c0-0.1,0-0.1,0-0.2c0-0.1-0.2-0.2-0.5-0.2h0c-0.3,0-0.5,0.1-0.5,0.2
	l-1.3,4.1c-0.1,0.3-0.2,0.7-0.3,1.2l-0.1,0.4h-0.1c-0.2-0.8-0.4-1.3-0.4-1.6l-1.3-4.1c0-0.1-0.2-0.2-0.5-0.2h-0.1
	c-0.4,0-0.6,0.1-0.6,0.2c0,0,0,0.1,0,0.2l2.1,6.2C199.9,182.2,200.1,182.2,200.4,182.2L200.4,182.2L200.4,182.2z M207.6,182.3
	c0.4,0,0.8,0,1.1-0.1c0.4-0.1,0.6-0.2,0.9-0.3c0.2-0.1,0.3-0.2,0.3-0.4c0-0.1-0.1-0.2-0.2-0.4c-0.1-0.2-0.2-0.3-0.3-0.3
	c0,0-0.1,0-0.3,0.1c-0.2,0.1-0.4,0.2-0.6,0.3c-0.3,0.1-0.6,0.1-0.9,0.1c-0.6,0-1.1-0.2-1.4-0.5c-0.3-0.3-0.5-0.9-0.6-1.6h4
	c0.1,0,0.2-0.1,0.3-0.2c0.1-0.1,0.2-0.2,0.2-0.3c0-1.1-0.2-1.9-0.7-2.5c-0.4-0.6-1.1-0.9-2-0.9c-1,0-1.7,0.3-2.2,0.9
	c-0.5,0.6-0.8,1.5-0.8,2.6c0,1.1,0.3,2,0.8,2.5C205.7,182,206.5,182.3,207.6,182.3L207.6,182.3L207.6,182.3z M205.6,178.4
	c0.1-1.3,0.7-2,1.8-2c1,0,1.5,0.7,1.5,2H205.6L205.6,178.4z M213.3,182.3c0.6,0,0.9-0.1,0.9-0.4c0-0.1,0-0.2-0.1-0.4
	c-0.1-0.2-0.1-0.2-0.2-0.2c0,0-0.1,0-0.2,0c-0.1,0-0.2,0-0.4,0c-0.2,0-0.4-0.1-0.5-0.2c-0.1-0.1-0.2-0.4-0.2-0.7v-7.6
	c0-0.2-0.2-0.3-0.5-0.3h-0.1c-0.3,0-0.5,0.1-0.5,0.3v7.7c0,0.7,0.2,1.1,0.5,1.4C212.5,182.2,212.9,182.3,213.3,182.3L213.3,182.3
	L213.3,182.3z M217.6,182.3c0.7,0,1.4-0.3,2-1c0,0,0,0.1,0.1,0.3c0,0.1,0.1,0.3,0.1,0.4c0.1,0.1,0.1,0.2,0.3,0.2
	c0.1,0,0.3,0,0.4-0.1c0.2,0,0.2-0.1,0.2-0.2c0,0,0-0.2-0.1-0.4c-0.1-0.2-0.1-0.6-0.1-1.2v-7.4c0-0.2-0.2-0.3-0.5-0.3H220
	c-0.3,0-0.5,0.1-0.5,0.3v3.2c-0.3-0.2-0.6-0.4-0.8-0.5c-0.3-0.1-0.6-0.2-1-0.2c-0.5,0-1,0.1-1.4,0.4c-0.4,0.3-0.7,0.7-0.9,1.2
	c-0.2,0.5-0.3,1.1-0.3,1.9c0,0.7,0.1,1.2,0.3,1.8c0.2,0.5,0.5,0.9,0.9,1.2C216.6,182.2,217.1,182.3,217.6,182.3L217.6,182.3
	L217.6,182.3z M217.8,181.4c-0.5,0-0.9-0.2-1.2-0.7c-0.3-0.4-0.4-1.1-0.4-1.9c0-0.8,0.1-1.4,0.4-1.8c0.3-0.4,0.7-0.6,1.3-0.6
	c0.6,0,1.1,0.2,1.6,0.6v3.5c-0.3,0.3-0.5,0.5-0.8,0.7C218.4,181.3,218.1,181.4,217.8,181.4L217.8,181.4L217.8,181.4z M222.8,182.2
	h0.2c0.3,0,0.5-0.1,0.5-0.3v-0.8c0-0.2-0.2-0.3-0.5-0.3h-0.2c-0.3,0-0.5,0.1-0.5,0.3v0.8C222.3,182.2,222.5,182.2,222.8,182.2
	L222.8,182.2L222.8,182.2z"/>
<path class="st9" d="M374.4,95.6H23.9c-2.2,0-3.9-1.8-3.9-3.9V69c0-2.2,1.8-3.9,3.9-3.9h350.5c2.2,0,3.9,1.8,3.9,3.9v22.6
	C378.3,93.8,376.6,95.6,374.4,95.6z"/>
<g>
	<rect x="45.4" y="108" class="st10" width="331.8" height="70.5"/>
	<path class="st11" d="M46.7,117.7c-0.1-0.1-0.1-0.2-0.1-0.3v-8.3c0-0.1,0-0.2,0.1-0.3s0.2-0.1,0.3-0.1h4.5c0.1,0,0.2,0,0.2,0.1
		s0.1,0.2,0.1,0.3v0.2c0,0.1,0,0.2-0.1,0.3c0,0.1-0.1,0.1-0.2,0.1h-3.8v3h3.4c0.1,0,0.2,0,0.2,0.1c0,0.1,0.1,0.2,0.1,0.3v0.2
		c0,0.1,0,0.2-0.1,0.3c0,0.1-0.1,0.1-0.2,0.1h-3.4v3.2h3.8c0.1,0,0.2,0,0.2,0.1c0,0.1,0.1,0.2,0.1,0.3v0.2c0,0.1,0,0.2-0.1,0.3
		s-0.1,0.1-0.2,0.1H47C46.9,117.8,46.8,117.7,46.7,117.7z"/>
	<path class="st11" d="M53.5,117.5V113c0-0.6,0-1-0.1-1.2c-0.1-0.2-0.1-0.4-0.1-0.4c0-0.1,0.1-0.2,0.2-0.2c0.2,0,0.3-0.1,0.5-0.1
		c0.1,0,0.2,0.1,0.3,0.2c0.1,0.1,0.1,0.3,0.1,0.4s0,0.2,0.1,0.3c0.5-0.6,1-1,1.5-1c0.2,0,0.4,0,0.6,0.1s0.2,0.2,0.2,0.4
		c0,0.1,0,0.3-0.1,0.5c-0.1,0.2-0.1,0.2-0.2,0.2c0,0-0.1,0-0.3-0.1c-0.1,0-0.3-0.1-0.5-0.1c-0.2,0-0.4,0.1-0.6,0.2
		c-0.2,0.1-0.3,0.2-0.4,0.4c-0.1,0.1-0.2,0.2-0.2,0.2v4.8c0,0.2-0.2,0.3-0.5,0.3H54C53.6,117.8,53.5,117.7,53.5,117.5z"/>
	<path class="st11" d="M61,109.5v-0.7c0-0.2,0.2-0.3,0.6-0.3c0.4,0,0.6,0.1,0.6,0.3v0.7c0,0.2-0.2,0.3-0.6,0.3
		C61.2,109.8,61,109.7,61,109.5z M61.1,117.5v-6.3c0-0.2,0.2-0.3,0.5-0.3h0.1c0.3,0,0.5,0.1,0.5,0.3v6.3c0,0.2-0.2,0.3-0.5,0.3h-0.1
		C61.2,117.8,61.1,117.7,61.1,117.5z"/>
	<path class="st11" d="M64.6,117.8c-0.3-0.1-0.6-0.2-0.8-0.3c-0.2-0.1-0.3-0.2-0.3-0.4c0-0.1,0.1-0.2,0.2-0.4
		c0.1-0.2,0.2-0.3,0.3-0.3c0,0,0.1,0,0.2,0.1s0.3,0.2,0.6,0.3c0.2,0.1,0.5,0.1,0.7,0.1c0.8,0,1.3-0.4,1.3-1.1c0-0.3-0.1-0.5-0.3-0.7
		s-0.5-0.3-1-0.5c-0.7-0.2-1.2-0.4-1.4-0.7c-0.3-0.3-0.4-0.7-0.4-1.2c0-0.4,0.1-0.7,0.3-1s0.4-0.5,0.8-0.7s0.7-0.2,1.1-0.2
		c0.4,0,0.8,0.1,1.2,0.2c0.4,0.1,0.5,0.2,0.5,0.4c0,0.1-0.1,0.3-0.1,0.4c-0.1,0.2-0.2,0.3-0.3,0.3c0,0-0.1-0.1-0.3-0.2
		c-0.2-0.1-0.5-0.2-0.8-0.2c-0.3,0-0.6,0.1-0.8,0.2c-0.2,0.1-0.3,0.3-0.3,0.6c0,0.3,0.1,0.5,0.2,0.7s0.4,0.3,0.8,0.4
		c0.6,0.2,1,0.3,1.3,0.5c0.3,0.2,0.5,0.4,0.6,0.6c0.1,0.2,0.2,0.6,0.2,1c0,0.4-0.1,0.7-0.3,1c-0.2,0.3-0.5,0.6-0.8,0.7
		s-0.7,0.3-1.2,0.3C65.3,117.9,65,117.8,64.6,117.8z"/>
	<path class="st11" d="M72.7,120.1c-0.5-0.3-0.7-0.7-0.7-1.2c0-0.4,0.1-0.7,0.3-1s0.5-0.5,0.9-0.6l0,0c-0.3-0.3-0.5-0.6-0.5-1.1
		c0-0.6,0.2-1,0.7-1.4c-0.4-0.2-0.6-0.4-0.8-0.8c-0.2-0.3-0.3-0.7-0.3-1.1c0-0.6,0.2-1.1,0.7-1.5c0.5-0.4,1.1-0.6,1.9-0.6
		c0.3,0,0.5,0,0.8,0.1h2.4c0.1,0,0.2,0,0.2,0.1s0.1,0.2,0.1,0.3v0.2c0,0.1,0,0.2-0.1,0.3c0,0.1-0.1,0.1-0.2,0.1c-0.4,0-0.7,0-0.9,0
		l0,0c0.2,0.3,0.3,0.7,0.3,1.1c0,0.6-0.2,1.1-0.7,1.5c-0.4,0.4-1.1,0.6-1.9,0.6c-0.4,0-0.7,0.1-0.9,0.2s-0.3,0.4-0.3,0.7
		c0,0.2,0.1,0.4,0.2,0.5c0.1,0.1,0.3,0.2,0.5,0.3s0.5,0.1,0.9,0.1c0.2,0,0.3,0,0.4,0.1c0.6,0.1,1.1,0.2,1.4,0.4
		c0.3,0.2,0.5,0.6,0.5,1.1c0,0.6-0.3,1.1-0.8,1.5s-1.2,0.5-2.2,0.5C73.8,120.5,73.1,120.4,72.7,120.1z M76.1,119.4
		c0.3-0.2,0.4-0.4,0.4-0.7c0-0.3-0.1-0.5-0.4-0.6c-0.3-0.1-0.7-0.2-1.3-0.2c-0.5-0.1-0.9-0.1-1.1-0.2c-0.6,0.2-0.9,0.6-0.9,1.1
		c0,0.6,0.6,0.9,1.9,0.9C75.4,119.6,75.8,119.6,76.1,119.4z M75.9,114c0.3-0.2,0.4-0.5,0.4-1c0-0.8-0.5-1.3-1.6-1.3
		c-1,0-1.5,0.4-1.5,1.3c0,0.8,0.5,1.2,1.5,1.2C75.2,114.3,75.6,114.2,75.9,114z"/>
	<path class="st11" d="M79.8,117c-0.5-0.6-0.8-1.4-0.8-2.6c0-1.2,0.3-2,0.8-2.6c0.5-0.6,1.3-0.9,2.3-0.9c0.9,0,1.6,0.3,2,0.9
		c0.5,0.6,0.7,1.4,0.7,2.5c0,0.1-0.1,0.2-0.2,0.3c-0.1,0.1-0.2,0.2-0.3,0.2h-4.1c0.1,0.7,0.2,1.2,0.6,1.6c0.3,0.3,0.8,0.5,1.4,0.5
		c0.4,0,0.7,0,0.9-0.1c0.3-0.1,0.5-0.2,0.7-0.3c0.2-0.1,0.3-0.1,0.3-0.1c0.1,0,0.2,0.1,0.3,0.3c0.1,0.2,0.2,0.3,0.2,0.4
		c0,0.1-0.1,0.2-0.3,0.4s-0.5,0.2-0.9,0.3c-0.4,0.1-0.7,0.1-1.2,0.1C81.1,117.9,80.3,117.6,79.8,117z M83.5,113.9
		c0-1.4-0.5-2.1-1.6-2.1c-1.1,0-1.7,0.7-1.8,2.1H83.5z"/>
	<path class="st11" d="M86.6,117c-0.5-0.6-0.8-1.4-0.8-2.6c0-1.2,0.3-2,0.8-2.6c0.5-0.6,1.3-0.9,2.3-0.9c0.9,0,1.6,0.3,2,0.9
		c0.5,0.6,0.7,1.4,0.7,2.5c0,0.1-0.1,0.2-0.2,0.3c-0.1,0.1-0.2,0.2-0.3,0.2H87c0.1,0.7,0.2,1.2,0.6,1.6c0.3,0.3,0.8,0.5,1.4,0.5
		c0.4,0,0.7,0,0.9-0.1c0.3-0.1,0.5-0.2,0.7-0.3c0.2-0.1,0.3-0.1,0.3-0.1c0.1,0,0.2,0.1,0.3,0.3c0.1,0.2,0.2,0.3,0.2,0.4
		c0,0.1-0.1,0.2-0.3,0.4s-0.5,0.2-0.9,0.3c-0.4,0.1-0.7,0.1-1.2,0.1C87.9,117.9,87.1,117.6,86.6,117z M90.4,113.9
		c0-1.4-0.5-2.1-1.6-2.1c-1.1,0-1.7,0.7-1.8,2.1H90.4z"/>
	<path class="st11" d="M93.1,117.5V113c0-0.6,0-1-0.1-1.2c-0.1-0.2-0.1-0.4-0.1-0.4c0-0.1,0.1-0.2,0.2-0.2c0.2,0,0.3-0.1,0.5-0.1
		c0.1,0,0.2,0.1,0.3,0.2c0.1,0.1,0.1,0.3,0.1,0.4s0,0.2,0.1,0.3c0.3-0.3,0.6-0.5,0.9-0.7c0.4-0.2,0.7-0.3,1.1-0.3
		c0.7,0,1.2,0.2,1.6,0.6s0.6,0.9,0.6,1.5v4.5c0,0.2-0.2,0.3-0.5,0.3h-0.1c-0.3,0-0.5-0.1-0.5-0.3v-4.4c0-0.4-0.1-0.7-0.3-0.9
		c-0.2-0.2-0.6-0.3-1-0.3c-0.3,0-0.6,0.1-0.9,0.2c-0.3,0.2-0.5,0.4-0.8,0.7v4.8c0,0.2-0.2,0.3-0.5,0.3h-0.1
		C93.3,117.8,93.1,117.7,93.1,117.5z"/>
	<path class="st11" d="M103.3,120.1c-0.5-0.3-0.7-0.7-0.7-1.2c0-0.4,0.1-0.7,0.3-1s0.5-0.5,0.9-0.6l0,0c-0.3-0.3-0.5-0.6-0.5-1.1
		c0-0.6,0.2-1,0.7-1.4c-0.4-0.2-0.6-0.4-0.8-0.8c-0.2-0.3-0.3-0.7-0.3-1.1c0-0.6,0.2-1.1,0.7-1.5c0.5-0.4,1.1-0.6,1.9-0.6
		c0.3,0,0.5,0,0.8,0.1h2.4c0.1,0,0.2,0,0.2,0.1s0.1,0.2,0.1,0.3v0.2c0,0.1,0,0.2-0.1,0.3c0,0.1-0.1,0.1-0.2,0.1c-0.4,0-0.7,0-0.9,0
		l0,0c0.2,0.3,0.3,0.7,0.3,1.1c0,0.6-0.2,1.1-0.7,1.5c-0.4,0.4-1.1,0.6-1.9,0.6c-0.4,0-0.7,0.1-0.9,0.2s-0.3,0.4-0.3,0.7
		c0,0.2,0.1,0.4,0.2,0.5c0.1,0.1,0.3,0.2,0.5,0.3s0.5,0.1,0.9,0.1c0.2,0,0.3,0,0.4,0.1c0.6,0.1,1.1,0.2,1.4,0.4
		c0.3,0.2,0.5,0.6,0.5,1.1c0,0.6-0.3,1.1-0.8,1.5s-1.2,0.5-2.2,0.5C104.5,120.5,103.8,120.4,103.3,120.1z M106.8,119.4
		c0.3-0.2,0.4-0.4,0.4-0.7c0-0.3-0.1-0.5-0.4-0.6c-0.3-0.1-0.7-0.2-1.3-0.2c-0.5-0.1-0.9-0.1-1.1-0.2c-0.6,0.2-0.9,0.6-0.9,1.1
		c0,0.6,0.6,0.9,1.9,0.9C106.1,119.6,106.5,119.6,106.8,119.4z M106.6,114c0.3-0.2,0.4-0.5,0.4-1c0-0.8-0.5-1.3-1.6-1.3
		c-1,0-1.5,0.4-1.5,1.3c0,0.8,0.5,1.2,1.5,1.2C105.9,114.3,106.3,114.2,106.6,114z"/>
	<path class="st11" d="M110.5,117c-0.5-0.6-0.8-1.4-0.8-2.6c0-1.2,0.3-2,0.8-2.6c0.5-0.6,1.3-0.9,2.3-0.9c0.9,0,1.6,0.3,2,0.9
		c0.5,0.6,0.7,1.4,0.7,2.5c0,0.1-0.1,0.2-0.2,0.3c-0.1,0.1-0.2,0.2-0.3,0.2h-4.1c0.1,0.7,0.2,1.2,0.6,1.6c0.3,0.3,0.8,0.5,1.4,0.5
		c0.4,0,0.7,0,0.9-0.1c0.3-0.1,0.5-0.2,0.7-0.3c0.2-0.1,0.3-0.1,0.3-0.1c0.1,0,0.2,0.1,0.3,0.3c0.1,0.2,0.2,0.3,0.2,0.4
		c0,0.1-0.1,0.2-0.3,0.4s-0.5,0.2-0.9,0.3c-0.4,0.1-0.7,0.1-1.2,0.1C111.8,117.9,111,117.6,110.5,117z M114.2,113.9
		c0-1.4-0.5-2.1-1.6-2.1c-1.1,0-1.7,0.7-1.8,2.1H114.2z"/>
	<path class="st11" d="M117.4,117.5c-0.3-0.3-0.5-0.7-0.5-1.4v-7.8c0-0.2,0.2-0.3,0.5-0.3h0.1c0.3,0,0.5,0.1,0.5,0.3v7.7
		c0,0.4,0.1,0.6,0.2,0.8c0.1,0.1,0.3,0.2,0.5,0.2c0.2,0,0.3,0,0.4,0s0.1,0,0.2,0c0.1,0,0.1,0.1,0.2,0.2c0.1,0.2,0.1,0.3,0.1,0.4
		c0,0.3-0.3,0.4-0.9,0.4C118.1,117.9,117.7,117.7,117.4,117.5z"/>
	<path class="st11" d="M121.4,117.4c-0.4-0.3-0.7-0.7-0.9-1.2c-0.2-0.5-0.3-1.1-0.3-1.8c0-0.7,0.1-1.4,0.3-1.9
		c0.2-0.5,0.5-0.9,0.9-1.2c0.4-0.3,0.9-0.4,1.4-0.4c0.4,0,0.7,0.1,1,0.2c0.3,0.1,0.6,0.3,0.9,0.5v-3.3c0-0.2,0.2-0.3,0.5-0.3h0.1
		c0.3,0,0.5,0.1,0.5,0.3v7.6c0,0.6,0,1,0.1,1.2c0.1,0.2,0.1,0.4,0.1,0.4c0,0.1-0.1,0.2-0.2,0.2c-0.2,0-0.3,0.1-0.5,0.1
		c-0.1,0-0.2-0.1-0.3-0.2c-0.1-0.1-0.1-0.3-0.1-0.4c0-0.1,0-0.2-0.1-0.3c-0.6,0.7-1.3,1-2.1,1C122.2,117.9,121.8,117.7,121.4,117.4z
		 M123.9,116.7c0.3-0.2,0.6-0.4,0.9-0.7v-3.6c-0.5-0.4-1-0.6-1.6-0.6c-0.6,0-1,0.2-1.3,0.6s-0.4,1-0.4,1.8c0,0.8,0.1,1.5,0.4,1.9
		s0.7,0.7,1.2,0.7C123.2,116.9,123.5,116.8,123.9,116.7z"/>
	<path class="st11" d="M127.8,109.5v-0.7c0-0.2,0.2-0.3,0.6-0.3c0.4,0,0.6,0.1,0.6,0.3v0.7c0,0.2-0.2,0.3-0.6,0.3
		C128,109.8,127.8,109.7,127.8,109.5z M127.9,117.5v-6.3c0-0.2,0.2-0.3,0.5-0.3h0.1c0.3,0,0.5,0.1,0.5,0.3v6.3
		c0,0.2-0.2,0.3-0.5,0.3h-0.1C128.1,117.8,127.9,117.7,127.9,117.5z"/>
	<path class="st11" d="M131.3,120.1c-0.5-0.3-0.7-0.7-0.7-1.2c0-0.4,0.1-0.7,0.3-1s0.5-0.5,0.9-0.6l0,0c-0.3-0.3-0.5-0.6-0.5-1.1
		c0-0.6,0.2-1,0.7-1.4c-0.4-0.2-0.6-0.4-0.8-0.8c-0.2-0.3-0.3-0.7-0.3-1.1c0-0.6,0.2-1.1,0.7-1.5c0.5-0.4,1.1-0.6,1.9-0.6
		c0.3,0,0.5,0,0.8,0.1h2.4c0.1,0,0.2,0,0.2,0.1s0.1,0.2,0.1,0.3v0.2c0,0.1,0,0.2-0.1,0.3c0,0.1-0.1,0.1-0.2,0.1c-0.4,0-0.7,0-0.9,0
		l0,0c0.2,0.3,0.3,0.7,0.3,1.1c0,0.6-0.2,1.1-0.7,1.5c-0.4,0.4-1.1,0.6-1.9,0.6c-0.4,0-0.7,0.1-0.9,0.2s-0.3,0.4-0.3,0.7
		c0,0.2,0.1,0.4,0.2,0.5c0.1,0.1,0.3,0.2,0.5,0.3s0.5,0.1,0.9,0.1c0.2,0,0.3,0,0.4,0.1c0.6,0.1,1.1,0.2,1.4,0.4
		c0.3,0.2,0.5,0.6,0.5,1.1c0,0.6-0.3,1.1-0.8,1.5s-1.2,0.5-2.2,0.5C132.5,120.5,131.8,120.4,131.3,120.1z M134.8,119.4
		c0.3-0.2,0.4-0.4,0.4-0.7c0-0.3-0.1-0.5-0.4-0.6c-0.3-0.1-0.7-0.2-1.3-0.2c-0.5-0.1-0.9-0.1-1.1-0.2c-0.6,0.2-0.9,0.6-0.9,1.1
		c0,0.6,0.6,0.9,1.9,0.9C134,119.6,134.5,119.6,134.8,119.4z M134.6,114c0.3-0.2,0.4-0.5,0.4-1c0-0.8-0.5-1.3-1.6-1.3
		c-1,0-1.5,0.4-1.5,1.3c0,0.8,0.5,1.2,1.5,1.2C133.9,114.3,134.3,114.2,134.6,114z"/>
	<path class="st11" d="M141.4,117c-0.5-0.6-0.8-1.4-0.8-2.6c0-1.2,0.3-2,0.8-2.6c0.5-0.6,1.3-0.9,2.3-0.9c0.9,0,1.6,0.3,2,0.9
		c0.5,0.6,0.7,1.4,0.7,2.5c0,0.1-0.1,0.2-0.2,0.3c-0.1,0.1-0.2,0.2-0.3,0.2h-4.1c0.1,0.7,0.2,1.2,0.6,1.6c0.3,0.3,0.8,0.5,1.4,0.5
		c0.4,0,0.7,0,0.9-0.1c0.3-0.1,0.5-0.2,0.7-0.3c0.2-0.1,0.3-0.1,0.3-0.1c0.1,0,0.2,0.1,0.3,0.3c0.1,0.2,0.2,0.3,0.2,0.4
		c0,0.1-0.1,0.2-0.3,0.4s-0.5,0.2-0.9,0.3c-0.4,0.1-0.7,0.1-1.2,0.1C142.7,117.9,141.9,117.6,141.4,117z M145.2,113.9
		c0-1.4-0.5-2.1-1.6-2.1c-1.1,0-1.7,0.7-1.8,2.1H145.2z"/>
	<path class="st11" d="M147.4,114.7c0-0.1-0.1-0.2-0.1-0.3v-0.1c0-0.1,0-0.2,0.1-0.3c0-0.1,0.1-0.1,0.2-0.1h2.5c0.1,0,0.2,0,0.2,0.1
		c0,0.1,0.1,0.2,0.1,0.3v0.1c0,0.1,0,0.2-0.1,0.3s-0.1,0.1-0.2,0.1h-2.5C147.5,114.8,147.4,114.8,147.4,114.7z"/>
	<path class="st11" d="M160.2,111.4c0.4,0.3,0.6,0.9,0.6,1.6v4.5c0,0.2-0.2,0.3-0.5,0.3h-0.1c-0.3,0-0.5-0.1-0.5-0.3v-4.4
		c0-0.4-0.1-0.7-0.3-0.9c-0.2-0.2-0.5-0.3-0.9-0.3c-0.6,0-1.1,0.3-1.6,0.9c0,0.1,0,0.1,0,0.3v4.5c0,0.2-0.2,0.3-0.5,0.3h-0.1
		c-0.3,0-0.5-0.1-0.5-0.3v-4.4c0-0.4-0.1-0.7-0.3-0.9c-0.2-0.2-0.5-0.3-0.9-0.3c-0.3,0-0.5,0.1-0.8,0.2c-0.2,0.1-0.4,0.3-0.6,0.4
		c-0.2,0.2-0.2,0.2-0.2,0.3v4.8c0,0.2-0.2,0.3-0.5,0.3h-0.1c-0.3,0-0.5-0.1-0.5-0.3V113c0-0.6,0-1-0.1-1.2c-0.1-0.2-0.1-0.4-0.1-0.4
		c0-0.1,0.1-0.2,0.2-0.2c0.2,0,0.3-0.1,0.5-0.1c0.1,0,0.2,0.1,0.3,0.2c0.1,0.1,0.1,0.3,0.1,0.4c0,0.1,0,0.2,0.1,0.3
		c0.2-0.3,0.5-0.5,0.9-0.7c0.3-0.2,0.7-0.3,1.1-0.3s0.8,0.1,1.1,0.2c0.3,0.2,0.6,0.4,0.8,0.8c0.3-0.3,0.6-0.6,0.9-0.8
		c0.4-0.2,0.7-0.3,1.1-0.3C159.3,110.9,159.8,111.1,160.2,111.4z"/>
	<path class="st11" d="M162.9,117.4c-0.4-0.3-0.6-0.8-0.6-1.5c0-0.7,0.2-1.2,0.6-1.5c0.4-0.3,0.9-0.6,1.5-0.7
		c0.6-0.1,1.3-0.2,2.2-0.2v-0.6c0-0.3-0.1-0.6-0.3-0.8c-0.2-0.2-0.6-0.3-1.1-0.3c-0.4,0-0.7,0-1,0.1c-0.3,0.1-0.5,0.2-0.7,0.3
		c-0.2,0.1-0.3,0.1-0.3,0.1c-0.1,0-0.2-0.1-0.3-0.3s-0.2-0.3-0.2-0.4c0-0.1,0.1-0.2,0.3-0.4c0.2-0.1,0.5-0.2,0.9-0.3
		c0.4-0.1,0.8-0.1,1.2-0.1c0.8,0,1.4,0.2,1.9,0.5c0.5,0.4,0.7,0.9,0.7,1.5v2.9c0,0.6,0,1,0.1,1.2s0.1,0.4,0.1,0.4
		c0,0.1-0.1,0.2-0.2,0.2c-0.2,0-0.3,0.1-0.5,0.1c-0.1,0-0.2-0.1-0.3-0.2s-0.1-0.3-0.1-0.4c0-0.1,0-0.2-0.1-0.3c-0.6,0.7-1.3,1-2.2,1
		C163.8,117.9,163.3,117.7,162.9,117.4z M165.6,116.7c0.3-0.2,0.6-0.4,0.9-0.7v-1.5c-0.7,0-1.2,0-1.6,0.1c-0.4,0-0.8,0.2-1.1,0.4
		c-0.3,0.2-0.5,0.5-0.5,0.9c0,0.3,0.1,0.6,0.3,0.8c0.2,0.2,0.5,0.3,0.8,0.3C165,116.9,165.3,116.8,165.6,116.7z"/>
	<path class="st11" d="M169.7,109.5v-0.7c0-0.2,0.2-0.3,0.6-0.3c0.4,0,0.6,0.1,0.6,0.3v0.7c0,0.2-0.2,0.3-0.6,0.3
		C169.9,109.8,169.7,109.7,169.7,109.5z M169.7,117.5v-6.3c0-0.2,0.2-0.3,0.5-0.3h0.1c0.3,0,0.5,0.1,0.5,0.3v6.3
		c0,0.2-0.2,0.3-0.5,0.3h-0.1C169.9,117.8,169.7,117.7,169.7,117.5z"/>
	<path class="st11" d="M173.4,117.5c-0.3-0.3-0.5-0.7-0.5-1.4v-7.8c0-0.2,0.2-0.3,0.5-0.3h0.1c0.3,0,0.5,0.1,0.5,0.3v7.7
		c0,0.4,0.1,0.6,0.2,0.8c0.1,0.1,0.3,0.2,0.5,0.2c0.2,0,0.3,0,0.4,0s0.1,0,0.2,0c0.1,0,0.1,0.1,0.2,0.2c0.1,0.2,0.1,0.3,0.1,0.4
		c0,0.3-0.3,0.4-0.9,0.4C174.2,117.9,173.8,117.7,173.4,117.5z"/>
	<path class="st11" d="M176.8,117.4c-0.4-0.3-0.6-0.8-0.6-1.5c0-0.7,0.2-1.2,0.6-1.5c0.4-0.3,0.9-0.6,1.5-0.7
		c0.6-0.1,1.3-0.2,2.2-0.2v-0.6c0-0.3-0.1-0.6-0.3-0.8c-0.2-0.2-0.6-0.3-1.1-0.3c-0.4,0-0.7,0-1,0.1c-0.3,0.1-0.5,0.2-0.7,0.3
		c-0.2,0.1-0.3,0.1-0.3,0.1c-0.1,0-0.2-0.1-0.3-0.3s-0.2-0.3-0.2-0.4c0-0.1,0.1-0.2,0.3-0.4c0.2-0.1,0.5-0.2,0.9-0.3
		c0.4-0.1,0.8-0.1,1.2-0.1c0.8,0,1.4,0.2,1.9,0.5c0.5,0.4,0.7,0.9,0.7,1.5v2.9c0,0.6,0,1,0.1,1.2s0.1,0.4,0.1,0.4
		c0,0.1-0.1,0.2-0.2,0.2c-0.2,0-0.3,0.1-0.5,0.1c-0.1,0-0.2-0.1-0.3-0.2s-0.1-0.3-0.1-0.4c0-0.1,0-0.2-0.1-0.3c-0.6,0.7-1.3,1-2.2,1
		C177.7,117.9,177.2,117.7,176.8,117.4z M179.6,116.7c0.3-0.2,0.6-0.4,0.9-0.7v-1.5c-0.7,0-1.2,0-1.6,0.1c-0.4,0-0.8,0.2-1.1,0.4
		c-0.3,0.2-0.5,0.5-0.5,0.9c0,0.3,0.1,0.6,0.3,0.8c0.2,0.2,0.5,0.3,0.8,0.3C178.9,116.9,179.3,116.8,179.6,116.7z"/>
	<path class="st11" d="M184.3,117.4c-0.4-0.3-0.7-0.7-0.9-1.2c-0.2-0.5-0.3-1.1-0.3-1.8c0-0.7,0.1-1.4,0.3-1.9
		c0.2-0.5,0.5-0.9,0.9-1.2c0.4-0.3,0.9-0.4,1.4-0.4c0.4,0,0.7,0.1,1,0.2c0.3,0.1,0.6,0.3,0.9,0.5v-3.3c0-0.2,0.2-0.3,0.5-0.3h0.1
		c0.3,0,0.5,0.1,0.5,0.3v7.6c0,0.6,0,1,0.1,1.2c0.1,0.2,0.1,0.4,0.1,0.4c0,0.1-0.1,0.2-0.2,0.2c-0.2,0-0.3,0.1-0.5,0.1
		c-0.1,0-0.2-0.1-0.3-0.2c-0.1-0.1-0.1-0.3-0.1-0.4c0-0.1,0-0.2-0.1-0.3c-0.6,0.7-1.3,1-2.1,1C185.2,117.9,184.7,117.7,184.3,117.4z
		 M186.8,116.7c0.3-0.2,0.6-0.4,0.9-0.7v-3.6c-0.5-0.4-1-0.6-1.6-0.6c-0.6,0-1,0.2-1.3,0.6s-0.4,1-0.4,1.8c0,0.8,0.1,1.5,0.4,1.9
		s0.7,0.7,1.2,0.7C186.2,116.9,186.5,116.8,186.8,116.7z"/>
	<path class="st11" d="M190.8,117.5V113c0-0.6,0-1-0.1-1.2c-0.1-0.2-0.1-0.4-0.1-0.4c0-0.1,0.1-0.2,0.2-0.2c0.2,0,0.3-0.1,0.5-0.1
		c0.1,0,0.2,0.1,0.3,0.2c0.1,0.1,0.1,0.3,0.1,0.4s0,0.2,0.1,0.3c0.5-0.6,1-1,1.5-1c0.2,0,0.4,0,0.6,0.1s0.2,0.2,0.2,0.4
		c0,0.1,0,0.3-0.1,0.5c-0.1,0.2-0.1,0.2-0.2,0.2c0,0-0.1,0-0.3-0.1c-0.1,0-0.3-0.1-0.5-0.1c-0.2,0-0.4,0.1-0.6,0.2
		c-0.2,0.1-0.3,0.2-0.4,0.4c-0.1,0.1-0.2,0.2-0.2,0.2v4.8c0,0.2-0.2,0.3-0.5,0.3h-0.1C191,117.8,190.8,117.7,190.8,117.5z"/>
	<path class="st11" d="M195.8,117c-0.5-0.6-0.8-1.4-0.8-2.6c0-1.2,0.3-2,0.8-2.6c0.5-0.6,1.3-0.9,2.3-0.9c0.9,0,1.6,0.3,2,0.9
		c0.5,0.6,0.7,1.4,0.7,2.5c0,0.1-0.1,0.2-0.2,0.3c-0.1,0.1-0.2,0.2-0.3,0.2h-4.1c0.1,0.7,0.2,1.2,0.6,1.6c0.3,0.3,0.8,0.5,1.4,0.5
		c0.4,0,0.7,0,0.9-0.1c0.3-0.1,0.5-0.2,0.7-0.3c0.2-0.1,0.3-0.1,0.3-0.1c0.1,0,0.2,0.1,0.3,0.3c0.1,0.2,0.2,0.3,0.2,0.4
		c0,0.1-0.1,0.2-0.3,0.4s-0.5,0.2-0.9,0.3c-0.4,0.1-0.7,0.1-1.2,0.1C197.1,117.9,196.3,117.6,195.8,117z M199.5,113.9
		c0-1.4-0.5-2.1-1.6-2.1c-1.1,0-1.7,0.7-1.8,2.1H199.5z"/>
	<path class="st11" d="M202.6,117.8c-0.3-0.1-0.6-0.2-0.8-0.3c-0.2-0.1-0.3-0.2-0.3-0.4c0-0.1,0.1-0.2,0.2-0.4
		c0.1-0.2,0.2-0.3,0.3-0.3c0,0,0.1,0,0.2,0.1s0.3,0.2,0.6,0.3c0.2,0.1,0.5,0.1,0.7,0.1c0.8,0,1.3-0.4,1.3-1.1c0-0.3-0.1-0.5-0.3-0.7
		s-0.5-0.3-1-0.5c-0.7-0.2-1.2-0.4-1.4-0.7c-0.3-0.3-0.4-0.7-0.4-1.2c0-0.4,0.1-0.7,0.3-1s0.4-0.5,0.8-0.7s0.7-0.2,1.1-0.2
		c0.4,0,0.8,0.1,1.2,0.2c0.4,0.1,0.5,0.2,0.5,0.4c0,0.1-0.1,0.3-0.1,0.4c-0.1,0.2-0.2,0.3-0.3,0.3c0,0-0.1-0.1-0.3-0.2
		c-0.2-0.1-0.5-0.2-0.8-0.2c-0.3,0-0.6,0.1-0.8,0.2c-0.2,0.1-0.3,0.3-0.3,0.6c0,0.3,0.1,0.5,0.2,0.7s0.4,0.3,0.8,0.4
		c0.6,0.2,1,0.3,1.3,0.5c0.3,0.2,0.5,0.4,0.6,0.6c0.1,0.2,0.2,0.6,0.2,1c0,0.4-0.1,0.7-0.3,1c-0.2,0.3-0.5,0.6-0.8,0.7
		s-0.7,0.3-1.2,0.3C203.3,117.9,202.9,117.8,202.6,117.8z"/>
	<path class="st11" d="M210.4,109.5v-0.7c0-0.2,0.2-0.3,0.6-0.3c0.4,0,0.6,0.1,0.6,0.3v0.7c0,0.2-0.2,0.3-0.6,0.3
		C210.6,109.8,210.4,109.7,210.4,109.5z M210.5,117.5v-6.3c0-0.2,0.2-0.3,0.5-0.3h0.1c0.3,0,0.5,0.1,0.5,0.3v6.3
		c0,0.2-0.2,0.3-0.5,0.3H211C210.7,117.8,210.5,117.7,210.5,117.5z"/>
	<path class="st11" d="M213.7,117.5V113c0-0.6,0-1-0.1-1.2c-0.1-0.2-0.1-0.4-0.1-0.4c0-0.1,0.1-0.2,0.2-0.2c0.2,0,0.3-0.1,0.5-0.1
		c0.1,0,0.2,0.1,0.3,0.2c0.1,0.1,0.1,0.3,0.1,0.4s0,0.2,0.1,0.3c0.3-0.3,0.6-0.5,0.9-0.7c0.4-0.2,0.7-0.3,1.1-0.3
		c0.7,0,1.2,0.2,1.6,0.6s0.6,0.9,0.6,1.5v4.5c0,0.2-0.2,0.3-0.5,0.3h-0.1c-0.3,0-0.5-0.1-0.5-0.3v-4.4c0-0.4-0.1-0.7-0.3-0.9
		c-0.2-0.2-0.6-0.3-1-0.3c-0.3,0-0.6,0.1-0.9,0.2c-0.3,0.2-0.5,0.4-0.8,0.7v4.8c0,0.2-0.2,0.3-0.5,0.3h-0.1
		C213.9,117.8,213.7,117.7,213.7,117.5z"/>
	<path class="st11" d="M221,120.1c-0.5-0.3-0.7-0.7-0.7-1.2c0-0.4,0.1-0.7,0.3-1s0.5-0.5,0.9-0.6l0,0c-0.3-0.3-0.5-0.6-0.5-1.1
		c0-0.6,0.2-1,0.7-1.4c-0.4-0.2-0.6-0.4-0.8-0.8c-0.2-0.3-0.3-0.7-0.3-1.1c0-0.6,0.2-1.1,0.7-1.5c0.5-0.4,1.1-0.6,1.9-0.6
		c0.3,0,0.5,0,0.8,0.1h2.4c0.1,0,0.2,0,0.2,0.1s0.1,0.2,0.1,0.3v0.2c0,0.1,0,0.2-0.1,0.3c0,0.1-0.1,0.1-0.2,0.1c-0.4,0-0.7,0-0.9,0
		l0,0c0.2,0.3,0.3,0.7,0.3,1.1c0,0.6-0.2,1.1-0.7,1.5c-0.4,0.4-1.1,0.6-1.9,0.6c-0.4,0-0.7,0.1-0.9,0.2s-0.3,0.4-0.3,0.7
		c0,0.2,0.1,0.4,0.2,0.5c0.1,0.1,0.3,0.2,0.5,0.3s0.5,0.1,0.9,0.1c0.2,0,0.3,0,0.4,0.1c0.6,0.1,1.1,0.2,1.4,0.4
		c0.3,0.2,0.5,0.6,0.5,1.1c0,0.6-0.3,1.1-0.8,1.5s-1.2,0.5-2.2,0.5C222.1,120.5,221.5,120.4,221,120.1z M224.5,119.4
		c0.3-0.2,0.4-0.4,0.4-0.7c0-0.3-0.1-0.5-0.4-0.6c-0.3-0.1-0.7-0.2-1.3-0.2c-0.5-0.1-0.9-0.1-1.1-0.2c-0.6,0.2-0.9,0.6-0.9,1.1
		c0,0.6,0.6,0.9,1.9,0.9C223.7,119.6,224.2,119.6,224.5,119.4z M224.2,114c0.3-0.2,0.4-0.5,0.4-1c0-0.8-0.5-1.3-1.6-1.3
		c-1,0-1.5,0.4-1.5,1.3c0,0.8,0.5,1.2,1.5,1.2C223.6,114.3,224,114.2,224.2,114z"/>
	<path class="st11" d="M228.1,117c-0.5-0.6-0.8-1.4-0.8-2.6c0-1.2,0.3-2,0.8-2.6c0.5-0.6,1.3-0.9,2.3-0.9c0.9,0,1.6,0.3,2,0.9
		c0.5,0.6,0.7,1.4,0.7,2.5c0,0.1-0.1,0.2-0.2,0.3c-0.1,0.1-0.2,0.2-0.3,0.2h-4.1c0.1,0.7,0.2,1.2,0.6,1.6c0.3,0.3,0.8,0.5,1.4,0.5
		c0.4,0,0.7,0,0.9-0.1c0.3-0.1,0.5-0.2,0.7-0.3c0.2-0.1,0.3-0.1,0.3-0.1c0.1,0,0.2,0.1,0.3,0.3c0.1,0.2,0.2,0.3,0.2,0.4
		c0,0.1-0.1,0.2-0.3,0.4s-0.5,0.2-0.9,0.3c-0.4,0.1-0.7,0.1-1.2,0.1C229.4,117.9,228.6,117.6,228.1,117z M231.9,113.9
		c0-1.4-0.5-2.1-1.6-2.1c-1.1,0-1.7,0.7-1.8,2.1H231.9z"/>
	<path class="st11" d="M235.9,117.6l-2.1-6.3c0-0.1,0-0.1,0-0.2c0-0.1,0.2-0.2,0.6-0.2h0.1c0.3,0,0.5,0.1,0.5,0.2l1.3,4.1
		c0.1,0.3,0.2,0.8,0.5,1.6h0.1l0.1-0.4c0.1-0.5,0.2-0.9,0.3-1.2l1.3-4.2c0-0.1,0.2-0.2,0.5-0.2h0c0.3,0,0.5,0.1,0.5,0.2
		c0,0,0,0.1,0,0.2l-2.1,6.2c0,0.1-0.2,0.2-0.5,0.2h-0.5C236.1,117.8,235.9,117.7,235.9,117.6z"/>
	<path class="st11" d="M241.2,117.3c-0.4-0.4-0.6-0.9-0.6-1.5v-4.5c0-0.2,0.2-0.3,0.5-0.3h0.1c0.3,0,0.5,0.1,0.5,0.3v4.4
		c0,0.4,0.1,0.7,0.3,0.9c0.2,0.2,0.6,0.3,1,0.3c0.3,0,0.6-0.1,0.9-0.2c0.3-0.2,0.5-0.4,0.8-0.7v-4.8c0-0.2,0.2-0.3,0.5-0.3h0.1
		c0.3,0,0.5,0.1,0.5,0.3v4.6c0,0.6,0,1,0.1,1.2s0.1,0.4,0.1,0.4c0,0.1-0.1,0.2-0.2,0.2c-0.2,0-0.3,0.1-0.5,0.1
		c-0.1,0-0.2-0.1-0.3-0.2s-0.1-0.3-0.1-0.4c0-0.1,0-0.2-0.1-0.3c-0.3,0.3-0.6,0.5-0.9,0.7c-0.4,0.2-0.7,0.3-1.1,0.3
		C242.1,117.9,241.5,117.7,241.2,117.3z"/>
	<path class="st11" d="M248.3,117.5c-0.3-0.3-0.5-0.7-0.5-1.4v-7.8c0-0.2,0.2-0.3,0.5-0.3h0.1c0.3,0,0.5,0.1,0.5,0.3v7.7
		c0,0.4,0.1,0.6,0.2,0.8c0.1,0.1,0.3,0.2,0.5,0.2c0.2,0,0.3,0,0.4,0s0.1,0,0.2,0c0.1,0,0.1,0.1,0.2,0.2c0.1,0.2,0.1,0.3,0.1,0.4
		c0,0.3-0.3,0.4-0.9,0.4C249,117.9,248.6,117.7,248.3,117.5z"/>
	<path class="st11" d="M252.3,117.4c-0.4-0.3-0.7-0.7-0.9-1.2c-0.2-0.5-0.3-1.1-0.3-1.8c0-0.7,0.1-1.4,0.3-1.9
		c0.2-0.5,0.5-0.9,0.9-1.2c0.4-0.3,0.9-0.4,1.4-0.4c0.4,0,0.7,0.1,1,0.2c0.3,0.1,0.6,0.3,0.9,0.5v-3.3c0-0.2,0.2-0.3,0.5-0.3h0.1
		c0.3,0,0.5,0.1,0.5,0.3v7.6c0,0.6,0,1,0.1,1.2c0.1,0.2,0.1,0.4,0.1,0.4c0,0.1-0.1,0.2-0.2,0.2c-0.2,0-0.3,0.1-0.5,0.1
		c-0.1,0-0.2-0.1-0.3-0.2c-0.1-0.1-0.1-0.3-0.1-0.4c0-0.1,0-0.2-0.1-0.3c-0.6,0.7-1.3,1-2.1,1C253.1,117.9,252.7,117.7,252.3,117.4z
		 M254.7,116.7c0.3-0.2,0.6-0.4,0.9-0.7v-3.6c-0.5-0.4-1-0.6-1.6-0.6c-0.6,0-1,0.2-1.3,0.6s-0.4,1-0.4,1.8c0,0.8,0.1,1.5,0.4,1.9
		s0.7,0.7,1.2,0.7C254.1,116.9,254.4,116.8,254.7,116.7z"/>
	<path class="st11" d="M258.3,117.5v-0.9c0-0.2,0.2-0.3,0.5-0.3h0.2c0.3,0,0.5,0.1,0.5,0.3v0.9c0,0.2-0.2,0.3-0.5,0.3h-0.2
		C258.4,117.8,258.3,117.7,258.3,117.5z"/>
	<path class="st11" d="M264.7,116.7c-0.7-0.7-1-1.9-1-3.5c0-3.1,1.4-4.6,4.2-4.6c0.4,0,0.8,0,1.2,0.1s0.7,0.2,0.9,0.3
		c0.2,0.1,0.3,0.2,0.3,0.3c0,0.1-0.1,0.3-0.2,0.5c-0.1,0.2-0.2,0.3-0.3,0.3c0,0-0.1-0.1-0.3-0.2c-0.2-0.1-0.4-0.2-0.7-0.3
		c-0.3-0.1-0.6-0.1-1-0.1c-1,0-1.8,0.3-2.3,0.9s-0.7,1.5-0.7,2.8c0,1.2,0.2,2.2,0.7,2.8c0.5,0.6,1.2,0.9,2.3,0.9
		c0.4,0,0.8,0,1.1-0.1c0.3-0.1,0.6-0.2,0.9-0.4c0.1-0.1,0.2-0.1,0.2-0.1c0.1,0,0.2,0.1,0.3,0.3c0.1,0.2,0.2,0.3,0.2,0.4
		c0,0.1-0.1,0.3-0.4,0.4c-0.3,0.1-0.6,0.3-1,0.4c-0.4,0.1-0.8,0.1-1.3,0.1C266.5,117.9,265.4,117.5,264.7,116.7z"/>
	<path class="st11" d="M272.4,117c-0.5-0.6-0.8-1.4-0.8-2.6c0-1.1,0.3-2,0.8-2.6c0.5-0.6,1.3-0.9,2.2-0.9c1,0,1.7,0.3,2.2,0.9
		c0.5,0.6,0.8,1.5,0.8,2.6c0,1.1-0.2,2-0.7,2.6c-0.5,0.6-1.2,0.9-2.2,0.9C273.6,117.9,272.9,117.6,272.4,117z M276,116.3
		c0.3-0.4,0.5-1.1,0.5-1.9s-0.2-1.5-0.5-1.9c-0.3-0.4-0.8-0.6-1.4-0.6c-0.6,0-1.1,0.2-1.4,0.6c-0.3,0.4-0.4,1.1-0.4,1.9
		c0,0.9,0.1,1.5,0.4,1.9c0.3,0.4,0.8,0.6,1.4,0.6C275.2,116.9,275.7,116.7,276,116.3z"/>
	<path class="st11" d="M279.2,117.5V113c0-0.6,0-1-0.1-1.2c-0.1-0.2-0.1-0.4-0.1-0.4c0-0.1,0.1-0.2,0.2-0.2c0.2,0,0.3-0.1,0.5-0.1
		c0.1,0,0.2,0.1,0.3,0.2c0.1,0.1,0.1,0.3,0.1,0.4s0,0.2,0.1,0.3c0.3-0.3,0.6-0.5,0.9-0.7c0.4-0.2,0.7-0.3,1.1-0.3
		c0.7,0,1.2,0.2,1.6,0.6s0.6,0.9,0.6,1.5v4.5c0,0.2-0.2,0.3-0.5,0.3h-0.1c-0.3,0-0.5-0.1-0.5-0.3v-4.4c0-0.4-0.1-0.7-0.3-0.9
		c-0.2-0.2-0.6-0.3-1-0.3c-0.3,0-0.6,0.1-0.9,0.2c-0.3,0.2-0.5,0.4-0.8,0.7v4.8c0,0.2-0.2,0.3-0.5,0.3h-0.1
		C279.4,117.8,279.2,117.7,279.2,117.5z"/>
	<path class="st11" d="M287.1,117.5c-0.3-0.3-0.5-0.7-0.5-1.4v-4.1h-0.6c-0.1,0-0.2,0-0.2-0.1c0-0.1-0.1-0.2-0.1-0.3v-0.2
		c0-0.1,0-0.2,0.1-0.3s0.1-0.1,0.2-0.1h0.6l0.2-1.4c0-0.2,0.2-0.3,0.4-0.3h0.1c0.3,0,0.4,0.1,0.4,0.3v1.4h1.1c0.1,0,0.2,0,0.2,0.1
		s0.1,0.2,0.1,0.3v0.2c0,0.1,0,0.2-0.1,0.3c0,0.1-0.1,0.1-0.2,0.1h-1.1v4c0,0.4,0.1,0.6,0.2,0.8c0.1,0.1,0.3,0.2,0.5,0.2
		c0.2,0,0.3,0,0.4,0c0.1,0,0.1,0,0.2,0c0.1,0,0.1,0.1,0.2,0.2c0.1,0.2,0.1,0.3,0.1,0.4c0,0.3-0.3,0.4-0.9,0.4
		C287.8,117.9,287.4,117.7,287.1,117.5z"/>
	<path class="st11" d="M290.7,117.5V113c0-0.6,0-1-0.1-1.2c-0.1-0.2-0.1-0.4-0.1-0.4c0-0.1,0.1-0.2,0.2-0.2c0.2,0,0.3-0.1,0.5-0.1
		c0.1,0,0.2,0.1,0.3,0.2c0.1,0.1,0.1,0.3,0.1,0.4s0,0.2,0.1,0.3c0.5-0.6,1-1,1.5-1c0.2,0,0.4,0,0.6,0.1s0.2,0.2,0.2,0.4
		c0,0.1,0,0.3-0.1,0.5c-0.1,0.2-0.1,0.2-0.2,0.2c0,0-0.1,0-0.3-0.1c-0.1,0-0.3-0.1-0.5-0.1c-0.2,0-0.4,0.1-0.6,0.2
		c-0.2,0.1-0.3,0.2-0.4,0.4c-0.1,0.1-0.2,0.2-0.2,0.2v4.8c0,0.2-0.2,0.3-0.5,0.3h-0.1C290.8,117.8,290.7,117.7,290.7,117.5z"/>
	<path class="st11" d="M295.6,117c-0.5-0.6-0.8-1.4-0.8-2.6c0-1.1,0.3-2,0.8-2.6c0.5-0.6,1.3-0.9,2.2-0.9c1,0,1.7,0.3,2.2,0.9
		c0.5,0.6,0.8,1.5,0.8,2.6c0,1.1-0.2,2-0.7,2.6c-0.5,0.6-1.2,0.9-2.2,0.9C296.8,117.9,296.1,117.6,295.6,117z M299.2,116.3
		c0.3-0.4,0.5-1.1,0.5-1.9s-0.2-1.5-0.5-1.9c-0.3-0.4-0.8-0.6-1.4-0.6c-0.6,0-1.1,0.2-1.4,0.6c-0.3,0.4-0.4,1.1-0.4,1.9
		c0,0.9,0.1,1.5,0.4,1.9c0.3,0.4,0.8,0.6,1.4,0.6C298.4,116.9,298.9,116.7,299.2,116.3z"/>
	<path class="st11" d="M302.9,117.5c-0.3-0.3-0.5-0.7-0.5-1.4v-7.8c0-0.2,0.2-0.3,0.5-0.3h0.1c0.3,0,0.5,0.1,0.5,0.3v7.7
		c0,0.4,0.1,0.6,0.2,0.8c0.1,0.1,0.3,0.2,0.5,0.2c0.2,0,0.3,0,0.4,0s0.1,0,0.2,0c0.1,0,0.1,0.1,0.2,0.2c0.1,0.2,0.1,0.3,0.1,0.4
		c0,0.3-0.3,0.4-0.9,0.4C303.6,117.9,303.3,117.7,302.9,117.5z"/>
	<path class="st11" d="M306.5,117c-0.5-0.6-0.8-1.4-0.8-2.6c0-1.2,0.3-2,0.8-2.6c0.5-0.6,1.3-0.9,2.3-0.9c0.9,0,1.6,0.3,2,0.9
		c0.5,0.6,0.7,1.4,0.7,2.5c0,0.1-0.1,0.2-0.2,0.3c-0.1,0.1-0.2,0.2-0.3,0.2h-4.1c0.1,0.7,0.2,1.2,0.6,1.6c0.3,0.3,0.8,0.5,1.4,0.5
		c0.4,0,0.7,0,0.9-0.1c0.3-0.1,0.5-0.2,0.7-0.3c0.2-0.1,0.3-0.1,0.3-0.1c0.1,0,0.2,0.1,0.3,0.3c0.1,0.2,0.2,0.3,0.2,0.4
		c0,0.1-0.1,0.2-0.3,0.4s-0.5,0.2-0.9,0.3c-0.4,0.1-0.7,0.1-1.2,0.1C307.9,117.9,307.1,117.6,306.5,117z M310.3,113.9
		c0-1.4-0.5-2.1-1.6-2.1c-1.1,0-1.7,0.7-1.8,2.1H310.3z"/>
	<path class="st11" d="M313.4,117c-0.5-0.6-0.8-1.4-0.8-2.6c0-1.2,0.3-2,0.8-2.6c0.5-0.6,1.3-0.9,2.3-0.9c0.9,0,1.6,0.3,2,0.9
		c0.5,0.6,0.7,1.4,0.7,2.5c0,0.1-0.1,0.2-0.2,0.3c-0.1,0.1-0.2,0.2-0.3,0.2h-4.1c0.1,0.7,0.2,1.2,0.6,1.6c0.3,0.3,0.8,0.5,1.4,0.5
		c0.4,0,0.7,0,0.9-0.1c0.3-0.1,0.5-0.2,0.7-0.3c0.2-0.1,0.3-0.1,0.3-0.1c0.1,0,0.2,0.1,0.3,0.3c0.1,0.2,0.2,0.3,0.2,0.4
		c0,0.1-0.1,0.2-0.3,0.4s-0.5,0.2-0.9,0.3c-0.4,0.1-0.7,0.1-1.2,0.1C314.7,117.9,313.9,117.6,313.4,117z M317.2,113.9
		c0-1.4-0.5-2.1-1.6-2.1c-1.1,0-1.7,0.7-1.8,2.1H317.2z"/>
	<path class="st11" d="M319.9,117.5V113c0-0.6,0-1-0.1-1.2c-0.1-0.2-0.1-0.4-0.1-0.4c0-0.1,0.1-0.2,0.2-0.2c0.2,0,0.3-0.1,0.5-0.1
		c0.1,0,0.2,0.1,0.3,0.2c0.1,0.1,0.1,0.3,0.1,0.4s0,0.2,0.1,0.3c0.5-0.6,1-1,1.5-1c0.2,0,0.4,0,0.6,0.1s0.2,0.2,0.2,0.4
		c0,0.1,0,0.3-0.1,0.5c-0.1,0.2-0.1,0.2-0.2,0.2c0,0-0.1,0-0.3-0.1c-0.1,0-0.3-0.1-0.5-0.1c-0.2,0-0.4,0.1-0.6,0.2
		c-0.2,0.1-0.3,0.2-0.4,0.4c-0.1,0.1-0.2,0.2-0.2,0.2v4.8c0,0.2-0.2,0.3-0.5,0.3h-0.1C320.1,117.8,319.9,117.7,319.9,117.5z"/>
	<path class="st11" d="M327.8,117c-0.5-0.6-0.8-1.4-0.8-2.6c0-1.1,0.3-2,0.8-2.6c0.5-0.6,1.3-0.9,2.2-0.9c1,0,1.7,0.3,2.2,0.9
		c0.5,0.6,0.8,1.5,0.8,2.6c0,1.1-0.2,2-0.7,2.6c-0.5,0.6-1.2,0.9-2.2,0.9C329.1,117.9,328.3,117.6,327.8,117z M331.4,116.3
		c0.3-0.4,0.5-1.1,0.5-1.9s-0.2-1.5-0.5-1.9c-0.3-0.4-0.8-0.6-1.4-0.6c-0.6,0-1.1,0.2-1.4,0.6c-0.3,0.4-0.4,1.1-0.4,1.9
		c0,0.9,0.1,1.5,0.4,1.9c0.3,0.4,0.8,0.6,1.4,0.6C330.6,116.9,331.1,116.7,331.4,116.3z"/>
	<path class="st11" d="M334.9,117.5v-5.6h-0.5c-0.1,0-0.2,0-0.2-0.1c0-0.1-0.1-0.2-0.1-0.3v-0.2c0-0.1,0-0.2,0.1-0.3
		c0-0.1,0.1-0.1,0.2-0.1h0.5v-1.2c0-0.7,0.2-1.2,0.5-1.4c0.3-0.3,0.7-0.4,1.2-0.4c0.6,0,0.9,0.1,0.9,0.4c0,0.1,0,0.2-0.1,0.4
		s-0.1,0.2-0.2,0.2c0,0-0.1,0-0.2,0s-0.2,0-0.4,0c-0.2,0-0.4,0.1-0.5,0.2c-0.1,0.1-0.2,0.4-0.2,0.8v1.1h1.1c0.1,0,0.2,0,0.2,0.1
		s0.1,0.2,0.1,0.3v0.2c0,0.1,0,0.2-0.1,0.3c0,0.1-0.1,0.1-0.2,0.1H336v5.6c0,0.2-0.2,0.3-0.5,0.3h-0.1
		C335.1,117.8,334.9,117.7,334.9,117.5z"/>
	<path class="st11" d="M341.8,117.5v-9.2c0-0.2,0.2-0.3,0.5-0.3h0.1c0.3,0,0.5,0.1,0.5,0.3v3.5c0.3-0.3,0.6-0.5,0.9-0.6
		s0.7-0.3,1.1-0.3c0.5,0,1,0.2,1.4,0.5s0.6,0.9,0.6,1.6v4.5c0,0.2-0.2,0.3-0.5,0.3h-0.1c-0.3,0-0.5-0.1-0.5-0.3v-4.4
		c0-0.4-0.1-0.7-0.3-0.9c-0.2-0.2-0.6-0.3-1-0.3c-0.3,0-0.5,0.1-0.8,0.2c-0.2,0.1-0.4,0.3-0.6,0.4c-0.2,0.2-0.2,0.2-0.2,0.3v4.8
		c0,0.2-0.2,0.3-0.5,0.3h-0.1C341.9,117.8,341.8,117.7,341.8,117.5z"/>
	<path class="st11" d="M349.3,117c-0.5-0.6-0.8-1.4-0.8-2.6c0-1.2,0.3-2,0.8-2.6c0.5-0.6,1.3-0.9,2.3-0.9c0.9,0,1.6,0.3,2,0.9
		c0.5,0.6,0.7,1.4,0.7,2.5c0,0.1-0.1,0.2-0.2,0.3c-0.1,0.1-0.2,0.2-0.3,0.2h-4.1c0.1,0.7,0.2,1.2,0.6,1.6c0.3,0.3,0.8,0.5,1.4,0.5
		c0.4,0,0.7,0,0.9-0.1c0.3-0.1,0.5-0.2,0.7-0.3c0.2-0.1,0.3-0.1,0.3-0.1c0.1,0,0.2,0.1,0.3,0.3c0.1,0.2,0.2,0.3,0.2,0.4
		c0,0.1-0.1,0.2-0.3,0.4s-0.5,0.2-0.9,0.3c-0.4,0.1-0.7,0.1-1.2,0.1C350.6,117.9,349.8,117.6,349.3,117z M353,113.9
		c0-1.4-0.5-2.1-1.6-2.1c-1.1,0-1.7,0.7-1.8,2.1H353z"/>
	<path class="st11" d="M356.5,117.5c-0.3-0.3-0.5-0.7-0.5-1.4v-4.1h-0.6c-0.1,0-0.2,0-0.2-0.1c0-0.1-0.1-0.2-0.1-0.3v-0.2
		c0-0.1,0-0.2,0.1-0.3s0.1-0.1,0.2-0.1h0.6l0.2-1.4c0-0.2,0.2-0.3,0.4-0.3h0.1c0.3,0,0.4,0.1,0.4,0.3v1.4h1.1c0.1,0,0.2,0,0.2,0.1
		s0.1,0.2,0.1,0.3v0.2c0,0.1,0,0.2-0.1,0.3c0,0.1-0.1,0.1-0.2,0.1h-1.1v4c0,0.4,0.1,0.6,0.2,0.8c0.1,0.1,0.3,0.2,0.5,0.2
		c0.2,0,0.3,0,0.4,0c0.1,0,0.1,0,0.2,0c0.1,0,0.1,0.1,0.2,0.2c0.1,0.2,0.1,0.3,0.1,0.4c0,0.3-0.3,0.4-0.9,0.4
		C357.3,117.9,356.9,117.7,356.5,117.5z"/>
	<path class="st11" d="M46.9,133.5c-0.5-0.6-0.8-1.4-0.8-2.6c0-1.2,0.3-2,0.8-2.6c0.5-0.6,1.3-0.9,2.3-0.9c0.9,0,1.6,0.3,2,0.9
		c0.5,0.6,0.7,1.4,0.7,2.5c0,0.1-0.1,0.2-0.2,0.3c-0.1,0.1-0.2,0.2-0.3,0.2h-4.1c0.1,0.7,0.2,1.2,0.6,1.6c0.3,0.3,0.8,0.5,1.4,0.5
		c0.4,0,0.7,0,0.9-0.1c0.3-0.1,0.5-0.2,0.7-0.3c0.2-0.1,0.3-0.1,0.3-0.1c0.1,0,0.2,0.1,0.3,0.3c0.1,0.2,0.2,0.3,0.2,0.4
		c0,0.1-0.1,0.2-0.3,0.4s-0.5,0.2-0.9,0.3c-0.4,0.1-0.7,0.1-1.2,0.1C48.2,134.4,47.4,134.1,46.9,133.5z M50.6,130.4
		c0-1.4-0.5-2.1-1.6-2.1c-1.1,0-1.7,0.7-1.8,2.1H50.6z"/>
	<path class="st11" d="M52.9,131.2c0-0.1-0.1-0.2-0.1-0.3v-0.1c0-0.1,0-0.2,0.1-0.3c0-0.1,0.1-0.1,0.2-0.1h2.5c0.1,0,0.2,0,0.2,0.1
		s0.1,0.2,0.1,0.3v0.1c0,0.1,0,0.2-0.1,0.3s-0.1,0.1-0.2,0.1H53C53,131.3,52.9,131.3,52.9,131.2z"/>
	<path class="st11" d="M65.7,127.9c0.4,0.3,0.6,0.9,0.6,1.6v4.5c0,0.2-0.2,0.3-0.5,0.3h-0.1c-0.3,0-0.5-0.1-0.5-0.3v-4.4
		c0-0.4-0.1-0.7-0.3-0.9c-0.2-0.2-0.5-0.3-0.9-0.3c-0.6,0-1.1,0.3-1.6,0.9c0,0.1,0,0.1,0,0.3v4.5c0,0.2-0.2,0.3-0.5,0.3h-0.1
		c-0.3,0-0.5-0.1-0.5-0.3v-4.4c0-0.4-0.1-0.7-0.3-0.9c-0.2-0.2-0.5-0.3-0.9-0.3c-0.3,0-0.5,0.1-0.8,0.2c-0.2,0.1-0.4,0.3-0.6,0.4
		c-0.2,0.2-0.2,0.2-0.2,0.3v4.8c0,0.2-0.2,0.3-0.5,0.3h-0.1c-0.3,0-0.5-0.1-0.5-0.3v-4.6c0-0.6,0-1-0.1-1.2
		c-0.1-0.2-0.1-0.4-0.1-0.4c0-0.1,0.1-0.2,0.2-0.2c0.2,0,0.3-0.1,0.5-0.1c0.1,0,0.2,0.1,0.3,0.2c0.1,0.1,0.1,0.3,0.1,0.4
		c0,0.1,0,0.2,0.1,0.3c0.2-0.3,0.5-0.5,0.9-0.7s0.7-0.3,1.1-0.3s0.8,0.1,1.1,0.2c0.3,0.2,0.6,0.4,0.8,0.8c0.3-0.3,0.6-0.6,0.9-0.8
		c0.4-0.2,0.7-0.3,1.1-0.3C64.8,127.4,65.2,127.6,65.7,127.9z"/>
	<path class="st11" d="M68.3,133.9c-0.4-0.3-0.6-0.8-0.6-1.5c0-0.7,0.2-1.2,0.6-1.5c0.4-0.3,0.9-0.6,1.5-0.7
		c0.6-0.1,1.3-0.2,2.2-0.2v-0.6c0-0.3-0.1-0.6-0.3-0.8c-0.2-0.2-0.6-0.3-1.1-0.3c-0.4,0-0.7,0-1,0.1c-0.3,0.1-0.5,0.2-0.7,0.3
		s-0.3,0.1-0.3,0.1c-0.1,0-0.2-0.1-0.3-0.3c-0.1-0.2-0.2-0.3-0.2-0.4c0-0.1,0.1-0.2,0.3-0.4c0.2-0.1,0.5-0.2,0.9-0.3
		c0.4-0.1,0.8-0.1,1.2-0.1c0.8,0,1.4,0.2,1.9,0.5c0.5,0.4,0.7,0.9,0.7,1.5v2.9c0,0.6,0,1,0.1,1.2s0.1,0.4,0.1,0.4
		c0,0.1-0.1,0.2-0.2,0.2c-0.2,0-0.3,0.1-0.5,0.1c-0.1,0-0.2-0.1-0.3-0.2s-0.1-0.3-0.1-0.4c0-0.1,0-0.2-0.1-0.3c-0.6,0.7-1.3,1-2.2,1
		C69.3,134.4,68.7,134.2,68.3,133.9z M71.1,133.2c0.3-0.2,0.6-0.4,0.9-0.7V131c-0.7,0-1.2,0-1.6,0.1c-0.4,0-0.8,0.2-1.1,0.4
		c-0.3,0.2-0.5,0.5-0.5,0.9c0,0.3,0.1,0.6,0.3,0.8c0.2,0.2,0.5,0.3,0.8,0.3C70.4,133.4,70.8,133.3,71.1,133.2z"/>
	<path class="st11" d="M75.1,126v-0.7c0-0.2,0.2-0.3,0.6-0.3c0.4,0,0.6,0.1,0.6,0.3v0.7c0,0.2-0.2,0.3-0.6,0.3
		C75.3,126.3,75.1,126.2,75.1,126z M75.2,134v-6.3c0-0.2,0.2-0.3,0.5-0.3h0.1c0.3,0,0.5,0.1,0.5,0.3v6.3c0,0.2-0.2,0.3-0.5,0.3h-0.1
		C75.4,134.3,75.2,134.2,75.2,134z"/>
	<path class="st11" d="M78.9,134c-0.3-0.3-0.5-0.7-0.5-1.4v-7.8c0-0.2,0.2-0.3,0.5-0.3h0.1c0.3,0,0.5,0.1,0.5,0.3v7.7
		c0,0.4,0.1,0.6,0.2,0.8c0.1,0.1,0.3,0.2,0.5,0.2c0.2,0,0.3,0,0.4,0s0.1,0,0.2,0c0.1,0,0.1,0.1,0.2,0.2c0.1,0.2,0.1,0.3,0.1,0.4
		c0,0.3-0.3,0.4-0.9,0.4C79.6,134.4,79.2,134.2,78.9,134z"/>
	<path class="st11" d="M82.3,133.9c-0.4-0.3-0.6-0.8-0.6-1.5c0-0.7,0.2-1.2,0.6-1.5c0.4-0.3,0.9-0.6,1.5-0.7
		c0.6-0.1,1.3-0.2,2.2-0.2v-0.6c0-0.3-0.1-0.6-0.3-0.8c-0.2-0.2-0.6-0.3-1.1-0.3c-0.4,0-0.7,0-1,0.1c-0.3,0.1-0.5,0.2-0.7,0.3
		s-0.3,0.1-0.3,0.1c-0.1,0-0.2-0.1-0.3-0.3c-0.1-0.2-0.2-0.3-0.2-0.4c0-0.1,0.1-0.2,0.3-0.4c0.2-0.1,0.5-0.2,0.9-0.3
		c0.4-0.1,0.8-0.1,1.2-0.1c0.8,0,1.4,0.2,1.9,0.5c0.5,0.4,0.7,0.9,0.7,1.5v2.9c0,0.6,0,1,0.1,1.2s0.1,0.4,0.1,0.4
		c0,0.1-0.1,0.2-0.2,0.2c-0.2,0-0.3,0.1-0.5,0.1c-0.1,0-0.2-0.1-0.3-0.2s-0.1-0.3-0.1-0.4c0-0.1,0-0.2-0.1-0.3c-0.6,0.7-1.3,1-2.2,1
		C83.2,134.4,82.7,134.2,82.3,133.9z M85,133.2c0.3-0.2,0.6-0.4,0.9-0.7V131c-0.7,0-1.2,0-1.6,0.1c-0.4,0-0.8,0.2-1.1,0.4
		c-0.3,0.2-0.5,0.5-0.5,0.9c0,0.3,0.1,0.6,0.3,0.8c0.2,0.2,0.5,0.3,0.8,0.3C84.3,133.4,84.7,133.3,85,133.2z"/>
	<path class="st11" d="M89.8,133.9c-0.4-0.3-0.7-0.7-0.9-1.2c-0.2-0.5-0.3-1.1-0.3-1.8c0-0.7,0.1-1.4,0.3-1.9
		c0.2-0.5,0.5-0.9,0.9-1.2c0.4-0.3,0.9-0.4,1.4-0.4c0.4,0,0.7,0.1,1,0.2s0.6,0.3,0.9,0.5v-3.3c0-0.2,0.2-0.3,0.5-0.3h0.1
		c0.3,0,0.5,0.1,0.5,0.3v7.6c0,0.6,0,1,0.1,1.2c0.1,0.2,0.1,0.4,0.1,0.4c0,0.1-0.1,0.2-0.2,0.2c-0.2,0-0.3,0.1-0.5,0.1
		c-0.1,0-0.2-0.1-0.3-0.2c-0.1-0.1-0.1-0.3-0.1-0.4c0-0.1,0-0.2-0.1-0.3c-0.6,0.7-1.3,1-2.1,1C90.6,134.4,90.2,134.2,89.8,133.9z
		 M92.3,133.2c0.3-0.2,0.6-0.4,0.9-0.7v-3.6c-0.5-0.4-1-0.6-1.6-0.6c-0.6,0-1,0.2-1.3,0.6s-0.4,1-0.4,1.8c0,0.8,0.1,1.5,0.4,1.9
		s0.7,0.7,1.2,0.7C91.7,133.4,92,133.3,92.3,133.2z"/>
	<path class="st11" d="M96.3,134v-4.6c0-0.6,0-1-0.1-1.2s-0.1-0.4-0.1-0.4c0-0.1,0.1-0.2,0.2-0.2c0.2,0,0.3-0.1,0.5-0.1
		c0.1,0,0.2,0.1,0.3,0.2s0.1,0.3,0.1,0.4s0,0.2,0.1,0.3c0.5-0.6,1-1,1.5-1c0.2,0,0.4,0,0.6,0.1c0.1,0.1,0.2,0.2,0.2,0.4
		s0,0.3-0.1,0.5c-0.1,0.2-0.1,0.2-0.2,0.2c0,0-0.1,0-0.3-0.1c-0.1,0-0.3-0.1-0.5-0.1c-0.2,0-0.4,0.1-0.6,0.2s-0.3,0.2-0.4,0.4
		c-0.1,0.1-0.2,0.2-0.2,0.2v4.8c0,0.2-0.2,0.3-0.5,0.3h-0.1C96.5,134.3,96.3,134.2,96.3,134z"/>
	<path class="st11" d="M101.2,133.5c-0.5-0.6-0.8-1.4-0.8-2.6c0-1.2,0.3-2,0.8-2.6c0.5-0.6,1.3-0.9,2.3-0.9c0.9,0,1.6,0.3,2,0.9
		c0.5,0.6,0.7,1.4,0.7,2.5c0,0.1-0.1,0.2-0.2,0.3c-0.1,0.1-0.2,0.2-0.3,0.2h-4.1c0.1,0.7,0.2,1.2,0.6,1.6c0.3,0.3,0.8,0.5,1.4,0.5
		c0.4,0,0.7,0,0.9-0.1c0.3-0.1,0.5-0.2,0.7-0.3c0.2-0.1,0.3-0.1,0.3-0.1c0.1,0,0.2,0.1,0.3,0.3c0.1,0.2,0.2,0.3,0.2,0.4
		c0,0.1-0.1,0.2-0.3,0.4s-0.5,0.2-0.9,0.3c-0.4,0.1-0.7,0.1-1.2,0.1C102.5,134.4,101.7,134.1,101.2,133.5z M105,130.4
		c0-1.4-0.5-2.1-1.6-2.1c-1.1,0-1.7,0.7-1.8,2.1H105z"/>
	<path class="st11" d="M108.1,134.3c-0.3-0.1-0.6-0.2-0.8-0.3c-0.2-0.1-0.3-0.2-0.3-0.4c0-0.1,0.1-0.2,0.2-0.4
		c0.1-0.2,0.2-0.3,0.3-0.3c0,0,0.1,0,0.2,0.1s0.3,0.2,0.6,0.3c0.2,0.1,0.5,0.1,0.7,0.1c0.8,0,1.3-0.4,1.3-1.1c0-0.3-0.1-0.5-0.3-0.7
		s-0.5-0.3-1-0.5c-0.7-0.2-1.2-0.4-1.4-0.7s-0.4-0.7-0.4-1.2c0-0.4,0.1-0.7,0.3-1c0.2-0.3,0.4-0.5,0.8-0.7s0.7-0.2,1.1-0.2
		c0.4,0,0.8,0.1,1.2,0.2c0.4,0.1,0.5,0.2,0.5,0.4c0,0.1-0.1,0.3-0.1,0.4c-0.1,0.2-0.2,0.3-0.3,0.3c0,0-0.1-0.1-0.3-0.2
		c-0.2-0.1-0.5-0.2-0.8-0.2c-0.3,0-0.6,0.1-0.8,0.2s-0.3,0.3-0.3,0.6c0,0.3,0.1,0.5,0.2,0.7c0.2,0.2,0.4,0.3,0.8,0.4
		c0.6,0.2,1,0.3,1.3,0.5c0.3,0.2,0.5,0.4,0.6,0.6c0.1,0.2,0.2,0.6,0.2,1c0,0.4-0.1,0.7-0.3,1c-0.2,0.3-0.5,0.6-0.8,0.7
		s-0.7,0.3-1.2,0.3C108.7,134.4,108.4,134.3,108.1,134.3z"/>
	<path class="st11" d="M116.3,133.5c-0.5-0.6-0.8-1.4-0.8-2.6c0-1.2,0.3-2,0.8-2.6c0.5-0.6,1.3-0.9,2.3-0.9c0.9,0,1.6,0.3,2,0.9
		c0.5,0.6,0.7,1.4,0.7,2.5c0,0.1-0.1,0.2-0.2,0.3c-0.1,0.1-0.2,0.2-0.3,0.2h-4.1c0.1,0.7,0.2,1.2,0.6,1.6c0.3,0.3,0.8,0.5,1.4,0.5
		c0.4,0,0.7,0,0.9-0.1c0.3-0.1,0.5-0.2,0.7-0.3c0.2-0.1,0.3-0.1,0.3-0.1c0.1,0,0.2,0.1,0.3,0.3c0.1,0.2,0.2,0.3,0.2,0.4
		c0,0.1-0.1,0.2-0.3,0.4s-0.5,0.2-0.9,0.3c-0.4,0.1-0.7,0.1-1.2,0.1C117.6,134.4,116.8,134.1,116.3,133.5z M120,130.4
		c0-1.4-0.5-2.1-1.6-2.1c-1.1,0-1.7,0.7-1.8,2.1H120z"/>
	<path class="st11" d="M123.1,133.5c-0.5-0.6-0.8-1.4-0.8-2.6c0-1.2,0.3-2,0.8-2.6c0.5-0.6,1.3-0.9,2.3-0.9c0.9,0,1.6,0.3,2,0.9
		c0.5,0.6,0.7,1.4,0.7,2.5c0,0.1-0.1,0.2-0.2,0.3c-0.1,0.1-0.2,0.2-0.3,0.2h-4.1c0.1,0.7,0.2,1.2,0.6,1.6c0.3,0.3,0.8,0.5,1.4,0.5
		c0.4,0,0.7,0,0.9-0.1c0.3-0.1,0.5-0.2,0.7-0.3c0.2-0.1,0.3-0.1,0.3-0.1c0.1,0,0.2,0.1,0.3,0.3c0.1,0.2,0.2,0.3,0.2,0.4
		c0,0.1-0.1,0.2-0.3,0.4s-0.5,0.2-0.9,0.3c-0.4,0.1-0.7,0.1-1.2,0.1C124.4,134.4,123.6,134.1,123.1,133.5z M126.9,130.4
		c0-1.4-0.5-2.1-1.6-2.1c-1.1,0-1.7,0.7-1.8,2.1H126.9z"/>
	<path class="st11" d="M129.6,134v-4.6c0-0.6,0-1-0.1-1.2s-0.1-0.4-0.1-0.4c0-0.1,0.1-0.2,0.2-0.2c0.2,0,0.3-0.1,0.5-0.1
		c0.1,0,0.2,0.1,0.3,0.2c0.1,0.1,0.1,0.3,0.1,0.4s0,0.2,0.1,0.3c0.3-0.3,0.6-0.5,0.9-0.7c0.4-0.2,0.7-0.3,1.1-0.3
		c0.7,0,1.2,0.2,1.6,0.6c0.4,0.4,0.6,0.9,0.6,1.5v4.5c0,0.2-0.2,0.3-0.5,0.3h-0.1c-0.3,0-0.5-0.1-0.5-0.3v-4.4
		c0-0.4-0.1-0.7-0.3-0.9s-0.6-0.3-1-0.3c-0.3,0-0.6,0.1-0.9,0.2c-0.3,0.2-0.5,0.4-0.8,0.7v4.8c0,0.2-0.2,0.3-0.5,0.3h-0.1
		C129.7,134.3,129.6,134.2,129.6,134z"/>
	<path class="st11" d="M147.7,125.6c0.7,0.4,1.2,0.8,1.5,1.5c0.4,0.6,0.5,1.4,0.5,2.2c0,0.8-0.1,1.5-0.4,2.1s-0.6,1.2-1,1.5
		c-0.4,0.4-0.9,0.6-1.4,0.6c-0.4,0-0.7-0.1-0.9-0.3c-0.2-0.2-0.4-0.5-0.4-0.8v-0.1c-0.2,0.4-0.5,0.7-0.8,0.9c-0.3,0.2-0.6,0.3-1,0.3
		c-0.3,0-0.6-0.1-0.9-0.2c-0.3-0.1-0.5-0.4-0.7-0.7c-0.2-0.4-0.3-0.8-0.3-1.4c0-0.7,0.1-1.3,0.3-1.8s0.5-0.9,1-1.2s0.9-0.4,1.4-0.4
		c0.3,0,0.6,0.1,0.8,0.2c0.2,0.1,0.4,0.3,0.6,0.4c0-0.1,0.1-0.2,0.1-0.3c0-0.1,0.1-0.2,0.1-0.2s0.1-0.1,0.2-0.1h0.1
		c0.2,0,0.3,0.1,0.3,0.3c0,0.4-0.1,1.2-0.2,2.4c-0.1,1.2-0.2,1.8-0.2,1.9c0,0.4,0.2,0.5,0.5,0.5c0.3,0,0.6-0.2,0.9-0.5
		s0.5-0.8,0.7-1.3c0.2-0.5,0.3-1.1,0.3-1.7c0-0.7-0.2-1.4-0.5-1.9c-0.3-0.6-0.7-1-1.3-1.3c-0.5-0.3-1.2-0.5-1.9-0.5
		c-0.9,0-1.8,0.2-2.6,0.7c-0.8,0.5-1.4,1.2-1.9,2c-0.5,0.8-0.7,1.8-0.7,2.8c0,0.8,0.1,1.5,0.4,2.2c0.3,0.6,0.7,1.1,1.2,1.5
		c0.5,0.3,1.2,0.5,1.8,0.5c0.4,0,0.7,0,0.9-0.1c0.2-0.1,0.5-0.1,0.7-0.2c0.2-0.1,0.3-0.1,0.4-0.1c0.1,0,0.2,0.1,0.2,0.3
		c0,0.2-0.2,0.4-0.7,0.5c-0.5,0.1-1,0.2-1.4,0.2c-0.8,0-1.6-0.2-2.2-0.6c-0.6-0.4-1.1-0.9-1.5-1.7s-0.5-1.5-0.5-2.5
		c0-1.1,0.3-2.2,0.8-3.1c0.5-0.9,1.2-1.7,2.1-2.2c0.9-0.5,1.9-0.8,3-0.8C146.3,125.1,147.1,125.3,147.7,125.6z M146,130
		c0.1-0.5,0.1-0.9,0.2-1.1c-0.4-0.3-0.8-0.4-1.2-0.4c-0.7,0-1.2,0.2-1.4,0.7c-0.3,0.5-0.4,1.1-0.4,1.9c0,0.6,0.1,1,0.3,1.3
		c0.2,0.3,0.5,0.4,0.8,0.4c0.3,0,0.6-0.1,0.9-0.4c0.3-0.3,0.6-0.8,0.8-1.4C145.9,130.9,145.9,130.6,146,130z"/>
	<path class="st11" d="M155.5,133.5c-0.5-0.6-0.8-1.4-0.8-2.6c0-1.2,0.3-2,0.8-2.6c0.5-0.6,1.3-0.9,2.3-0.9c0.9,0,1.6,0.3,2,0.9
		c0.5,0.6,0.7,1.4,0.7,2.5c0,0.1-0.1,0.2-0.2,0.3c-0.1,0.1-0.2,0.2-0.3,0.2h-4.1c0.1,0.7,0.2,1.2,0.6,1.6c0.3,0.3,0.8,0.5,1.4,0.5
		c0.4,0,0.7,0,0.9-0.1c0.3-0.1,0.5-0.2,0.7-0.3c0.2-0.1,0.3-0.1,0.3-0.1c0.1,0,0.2,0.1,0.3,0.3c0.1,0.2,0.2,0.3,0.2,0.4
		c0,0.1-0.1,0.2-0.3,0.4s-0.5,0.2-0.9,0.3c-0.4,0.1-0.7,0.1-1.2,0.1C156.8,134.4,156,134.1,155.5,133.5z M159.2,130.4
		c0-1.4-0.5-2.1-1.6-2.1c-1.1,0-1.7,0.7-1.8,2.1H159.2z"/>
	<path class="st11" d="M161.9,134v-4.6c0-0.6,0-1-0.1-1.2s-0.1-0.4-0.1-0.4c0-0.1,0.1-0.2,0.2-0.2c0.2,0,0.3-0.1,0.5-0.1
		c0.1,0,0.2,0.1,0.3,0.2c0.1,0.1,0.1,0.3,0.1,0.4s0,0.2,0.1,0.3c0.3-0.3,0.6-0.5,0.9-0.7c0.4-0.2,0.7-0.3,1.1-0.3
		c0.7,0,1.2,0.2,1.6,0.6c0.4,0.4,0.6,0.9,0.6,1.5v4.5c0,0.2-0.2,0.3-0.5,0.3h-0.1c-0.3,0-0.5-0.1-0.5-0.3v-4.4
		c0-0.4-0.1-0.7-0.3-0.9s-0.6-0.3-1-0.3c-0.3,0-0.6,0.1-0.9,0.2c-0.3,0.2-0.5,0.4-0.8,0.7v4.8c0,0.2-0.2,0.3-0.5,0.3h-0.1
		C162.1,134.3,161.9,134.2,161.9,134z"/>
	<path class="st11" d="M172.4,133.5c-0.5-0.6-0.8-1.4-0.8-2.6c0-1.2,0.3-2,0.8-2.6c0.5-0.6,1.3-0.9,2.3-0.9c0.9,0,1.6,0.3,2,0.9
		c0.5,0.6,0.7,1.4,0.7,2.5c0,0.1-0.1,0.2-0.2,0.3c-0.1,0.1-0.2,0.2-0.3,0.2h-4.1c0.1,0.7,0.2,1.2,0.6,1.6c0.3,0.3,0.8,0.5,1.4,0.5
		c0.4,0,0.7,0,0.9-0.1c0.3-0.1,0.5-0.2,0.7-0.3c0.2-0.1,0.3-0.1,0.3-0.1c0.1,0,0.2,0.1,0.3,0.3c0.1,0.2,0.2,0.3,0.2,0.4
		c0,0.1-0.1,0.2-0.3,0.4s-0.5,0.2-0.9,0.3c-0.4,0.1-0.7,0.1-1.2,0.1C173.7,134.4,172.9,134.1,172.4,133.5z M176.1,130.4
		c0-1.4-0.5-2.1-1.6-2.1c-1.1,0-1.7,0.7-1.8,2.1H176.1z"/>
	<path class="st11" d="M179.2,133.5c-0.5-0.6-0.8-1.4-0.8-2.6c0-1.2,0.3-2,0.8-2.6c0.5-0.6,1.3-0.9,2.3-0.9c0.9,0,1.6,0.3,2,0.9
		c0.5,0.6,0.7,1.4,0.7,2.5c0,0.1-0.1,0.2-0.2,0.3c-0.1,0.1-0.2,0.2-0.3,0.2h-4.1c0.1,0.7,0.2,1.2,0.6,1.6c0.3,0.3,0.8,0.5,1.4,0.5
		c0.4,0,0.7,0,0.9-0.1c0.3-0.1,0.5-0.2,0.7-0.3c0.2-0.1,0.3-0.1,0.3-0.1c0.1,0,0.2,0.1,0.3,0.3c0.1,0.2,0.2,0.3,0.2,0.4
		c0,0.1-0.1,0.2-0.3,0.4s-0.5,0.2-0.9,0.3c-0.4,0.1-0.7,0.1-1.2,0.1C180.5,134.4,179.7,134.1,179.2,133.5z M183,130.4
		c0-1.4-0.5-2.1-1.6-2.1c-1.1,0-1.7,0.7-1.8,2.1H183z"/>
	<path class="st11" d="M185.7,134v-4.6c0-0.6,0-1-0.1-1.2s-0.1-0.4-0.1-0.4c0-0.1,0.1-0.2,0.2-0.2c0.2,0,0.3-0.1,0.5-0.1
		c0.1,0,0.2,0.1,0.3,0.2c0.1,0.1,0.1,0.3,0.1,0.4s0,0.2,0.1,0.3c0.3-0.3,0.6-0.5,0.9-0.7c0.4-0.2,0.7-0.3,1.1-0.3
		c0.7,0,1.2,0.2,1.6,0.6c0.4,0.4,0.6,0.9,0.6,1.5v4.5c0,0.2-0.2,0.3-0.5,0.3h-0.1c-0.3,0-0.5-0.1-0.5-0.3v-4.4
		c0-0.4-0.1-0.7-0.3-0.9s-0.6-0.3-1-0.3c-0.3,0-0.6,0.1-0.9,0.2c-0.3,0.2-0.5,0.4-0.8,0.7v4.8c0,0.2-0.2,0.3-0.5,0.3h-0.1
		C185.9,134.3,185.7,134.2,185.7,134z"/>
	<path class="st11" d="M195.7,136.7v-7.2c0-0.6,0-1-0.1-1.2s-0.1-0.4-0.1-0.4c0-0.1,0.1-0.2,0.2-0.2c0.2,0,0.3-0.1,0.5-0.1
		c0.1,0,0.2,0.1,0.3,0.2c0.1,0.1,0.1,0.3,0.1,0.4s0,0.2,0.1,0.3c0.6-0.6,1.3-1,2.1-1c0.5,0,1,0.1,1.4,0.4s0.7,0.7,0.9,1.2
		s0.3,1.1,0.3,1.8c0,0.7-0.1,1.4-0.3,1.9c-0.2,0.5-0.5,0.9-0.9,1.2c-0.4,0.3-0.9,0.4-1.4,0.4c-0.4,0-0.7-0.1-1-0.2s-0.6-0.3-0.9-0.5
		v3c0,0.2-0.2,0.3-0.5,0.3h-0.1C195.9,137,195.7,136.9,195.7,136.7z M199.8,132.8c0.3-0.4,0.4-1,0.4-1.8c0-0.8-0.1-1.5-0.4-1.9
		c-0.3-0.5-0.7-0.7-1.2-0.7c-0.3,0-0.6,0.1-0.9,0.2c-0.3,0.2-0.6,0.4-0.9,0.7v3.6c0.5,0.4,1,0.6,1.6,0.6
		C199,133.4,199.5,133.2,199.8,132.8z"/>
	<path class="st11" d="M203.5,133.8c-0.4-0.4-0.6-0.9-0.6-1.5v-4.5c0-0.2,0.2-0.3,0.5-0.3h0.1c0.3,0,0.5,0.1,0.5,0.3v4.4
		c0,0.4,0.1,0.7,0.3,0.9c0.2,0.2,0.6,0.3,1,0.3c0.3,0,0.6-0.1,0.9-0.2c0.3-0.2,0.5-0.4,0.8-0.7v-4.8c0-0.2,0.2-0.3,0.5-0.3h0.1
		c0.3,0,0.5,0.1,0.5,0.3v4.6c0,0.6,0,1,0.1,1.2s0.1,0.4,0.1,0.4c0,0.1-0.1,0.2-0.2,0.2c-0.2,0-0.3,0.1-0.5,0.1
		c-0.1,0-0.2-0.1-0.3-0.2s-0.1-0.3-0.1-0.4c0-0.1,0-0.2-0.1-0.3c-0.3,0.3-0.6,0.5-0.9,0.7c-0.4,0.2-0.7,0.3-1.1,0.3
		C204.4,134.4,203.8,134.2,203.5,133.8z"/>
	<path class="st11" d="M210.1,134v-4.6c0-0.6,0-1-0.1-1.2s-0.1-0.4-0.1-0.4c0-0.1,0.1-0.2,0.2-0.2c0.2,0,0.3-0.1,0.5-0.1
		c0.1,0,0.2,0.1,0.3,0.2c0.1,0.1,0.1,0.3,0.1,0.4s0,0.2,0.1,0.3c0.3-0.3,0.6-0.5,0.9-0.7c0.4-0.2,0.7-0.3,1.1-0.3
		c0.7,0,1.2,0.2,1.6,0.6c0.4,0.4,0.6,0.9,0.6,1.5v4.5c0,0.2-0.2,0.3-0.5,0.3h-0.1c-0.3,0-0.5-0.1-0.5-0.3v-4.4
		c0-0.4-0.1-0.7-0.3-0.9s-0.6-0.3-1-0.3c-0.3,0-0.6,0.1-0.9,0.2c-0.3,0.2-0.5,0.4-0.8,0.7v4.8c0,0.2-0.2,0.3-0.5,0.3h-0.1
		C210.3,134.3,210.1,134.2,210.1,134z"/>
	<path class="st11" d="M218,134c-0.3-0.3-0.5-0.7-0.5-1.4v-4.1h-0.6c-0.1,0-0.2,0-0.2-0.1s-0.1-0.2-0.1-0.3v-0.2
		c0-0.1,0-0.2,0.1-0.3s0.1-0.1,0.2-0.1h0.6l0.2-1.4c0-0.2,0.2-0.3,0.4-0.3h0.1c0.3,0,0.4,0.1,0.4,0.3v1.4h1.1c0.1,0,0.2,0,0.2,0.1
		s0.1,0.2,0.1,0.3v0.2c0,0.1,0,0.2-0.1,0.3s-0.1,0.1-0.2,0.1h-1.1v4c0,0.4,0.1,0.6,0.2,0.8c0.1,0.1,0.3,0.2,0.5,0.2
		c0.2,0,0.3,0,0.4,0c0.1,0,0.1,0,0.2,0c0.1,0,0.1,0.1,0.2,0.2c0.1,0.2,0.1,0.3,0.1,0.4c0,0.3-0.3,0.4-0.9,0.4
		C218.7,134.4,218.3,134.2,218,134z"/>
	<path class="st11" d="M225.5,133.4c0,0.3-0.1,0.5-0.2,0.8c0,0.1-0.2,0.2-0.4,0.2h-0.1c-0.3,0-0.4-0.1-0.4-0.3v-9.2
		c0-0.2,0.2-0.3,0.5-0.3h0.1c0.3,0,0.5,0.1,0.5,0.3v3.3c0.3-0.2,0.6-0.4,0.9-0.5c0.3-0.1,0.6-0.2,1-0.2c0.5,0,1,0.1,1.4,0.4
		c0.4,0.3,0.7,0.7,0.9,1.2c0.2,0.5,0.3,1.1,0.3,1.9c0,0.7-0.1,1.3-0.3,1.8c-0.2,0.5-0.5,0.9-0.9,1.2c-0.4,0.3-0.8,0.4-1.3,0.4
		C226.8,134.4,226.1,134,225.5,133.4z M228.5,132.7c0.3-0.5,0.4-1.1,0.4-1.9c0-0.8-0.1-1.4-0.4-1.8c-0.3-0.4-0.7-0.6-1.3-0.6
		c-0.3,0-0.6,0-0.9,0.1c-0.3,0.1-0.5,0.2-0.8,0.4v3.6c0.3,0.3,0.5,0.5,0.9,0.7c0.3,0.2,0.6,0.2,0.9,0.2
		C227.8,133.4,228.2,133.2,228.5,132.7z"/>
	<path class="st11" d="M232.1,133.5c-0.5-0.6-0.8-1.4-0.8-2.6c0-1.2,0.3-2,0.8-2.6c0.5-0.6,1.3-0.9,2.3-0.9c0.9,0,1.6,0.3,2,0.9
		c0.5,0.6,0.7,1.4,0.7,2.5c0,0.1-0.1,0.2-0.2,0.3c-0.1,0.1-0.2,0.2-0.3,0.2h-4.1c0.1,0.7,0.2,1.2,0.6,1.6c0.3,0.3,0.8,0.5,1.4,0.5
		c0.4,0,0.7,0,0.9-0.1c0.3-0.1,0.5-0.2,0.7-0.3c0.2-0.1,0.3-0.1,0.3-0.1c0.1,0,0.2,0.1,0.3,0.3c0.1,0.2,0.2,0.3,0.2,0.4
		c0,0.1-0.1,0.2-0.3,0.4s-0.5,0.2-0.9,0.3c-0.4,0.1-0.7,0.1-1.2,0.1C233.4,134.4,232.6,134.1,232.1,133.5z M235.9,130.4
		c0-1.4-0.5-2.1-1.6-2.1c-1.1,0-1.7,0.7-1.8,2.1H235.9z"/>
	<path class="st11" d="M239.8,134.1l-2.1-6.3c0-0.1,0-0.1,0-0.2c0-0.1,0.2-0.2,0.6-0.2h0.1c0.3,0,0.5,0.1,0.5,0.2l1.3,4.1
		c0.1,0.3,0.2,0.8,0.5,1.6h0.1l0.1-0.4c0.1-0.5,0.2-0.9,0.3-1.2l1.3-4.2c0-0.1,0.2-0.2,0.5-0.2h0c0.3,0,0.5,0.1,0.5,0.2
		c0,0,0,0.1,0,0.2l-2.1,6.2c0,0.1-0.2,0.2-0.5,0.2h-0.5C240.1,134.3,239.9,134.2,239.8,134.1z"/>
	<path class="st11" d="M244.8,133.9c-0.4-0.3-0.6-0.8-0.6-1.5c0-0.7,0.2-1.2,0.6-1.5c0.4-0.3,0.9-0.6,1.5-0.7
		c0.6-0.1,1.3-0.2,2.2-0.2v-0.6c0-0.3-0.1-0.6-0.3-0.8c-0.2-0.2-0.6-0.3-1.1-0.3c-0.4,0-0.7,0-1,0.1c-0.3,0.1-0.5,0.2-0.7,0.3
		s-0.3,0.1-0.3,0.1c-0.1,0-0.2-0.1-0.3-0.3c-0.1-0.2-0.2-0.3-0.2-0.4c0-0.1,0.1-0.2,0.3-0.4c0.2-0.1,0.5-0.2,0.9-0.3
		c0.4-0.1,0.8-0.1,1.2-0.1c0.8,0,1.4,0.2,1.9,0.5c0.5,0.4,0.7,0.9,0.7,1.5v2.9c0,0.6,0,1,0.1,1.2s0.1,0.4,0.1,0.4
		c0,0.1-0.1,0.2-0.2,0.2c-0.2,0-0.3,0.1-0.5,0.1c-0.1,0-0.2-0.1-0.3-0.2s-0.1-0.3-0.1-0.4c0-0.1,0-0.2-0.1-0.3c-0.6,0.7-1.3,1-2.2,1
		C245.8,134.4,245.2,134.2,244.8,133.9z M247.6,133.2c0.3-0.2,0.6-0.4,0.9-0.7V131c-0.7,0-1.2,0-1.6,0.1c-0.4,0-0.8,0.2-1.1,0.4
		c-0.3,0.2-0.5,0.5-0.5,0.9c0,0.3,0.1,0.6,0.3,0.8c0.2,0.2,0.5,0.3,0.8,0.3C246.9,133.4,247.3,133.3,247.6,133.2z"/>
	<path class="st11" d="M252.4,134c-0.3-0.3-0.5-0.7-0.5-1.4v-4.1h-0.6c-0.1,0-0.2,0-0.2-0.1s-0.1-0.2-0.1-0.3v-0.2
		c0-0.1,0-0.2,0.1-0.3s0.1-0.1,0.2-0.1h0.6l0.2-1.4c0-0.2,0.2-0.3,0.4-0.3h0.1c0.3,0,0.4,0.1,0.4,0.3v1.4h1.1c0.1,0,0.2,0,0.2,0.1
		s0.1,0.2,0.1,0.3v0.2c0,0.1,0,0.2-0.1,0.3s-0.1,0.1-0.2,0.1H253v4c0,0.4,0.1,0.6,0.2,0.8c0.1,0.1,0.3,0.2,0.5,0.2
		c0.2,0,0.3,0,0.4,0c0.1,0,0.1,0,0.2,0c0.1,0,0.1,0.1,0.2,0.2c0.1,0.2,0.1,0.3,0.1,0.4c0,0.3-0.3,0.4-0.9,0.4
		C253.2,134.4,252.8,134.2,252.4,134z"/>
	<path class="st11" d="M255.5,134v-0.9c0-0.2,0.2-0.3,0.5-0.3h0.2c0.3,0,0.5,0.1,0.5,0.3v0.9c0,0.2-0.2,0.3-0.5,0.3H256
		C255.6,134.3,255.5,134.2,255.5,134z"/>
	<path class="st11" d="M261.5,134.2c-0.1-0.1-0.1-0.2-0.1-0.3v-8.3c0-0.1,0-0.2,0.1-0.3s0.2-0.1,0.3-0.1h4.5c0.1,0,0.2,0,0.2,0.1
		s0.1,0.2,0.1,0.3v0.2c0,0.1,0,0.2-0.1,0.3s-0.1,0.1-0.2,0.1h-3.8v3h3.4c0.1,0,0.2,0,0.2,0.1c0,0.1,0.1,0.2,0.1,0.3v0.2
		c0,0.1,0,0.2-0.1,0.3c0,0.1-0.1,0.1-0.2,0.1h-3.4v3.2h3.8c0.1,0,0.2,0,0.2,0.1c0,0.1,0.1,0.2,0.1,0.3v0.2c0,0.1,0,0.2-0.1,0.3
		s-0.1,0.1-0.2,0.1h-4.5C261.7,134.3,261.6,134.2,261.5,134.2z"/>
	<path class="st11" d="M268.2,134v-4.6c0-0.6,0-1-0.1-1.2s-0.1-0.4-0.1-0.4c0-0.1,0.1-0.2,0.2-0.2c0.2,0,0.3-0.1,0.5-0.1
		c0.1,0,0.2,0.1,0.3,0.2c0.1,0.1,0.1,0.3,0.1,0.4s0,0.2,0.1,0.3c0.3-0.3,0.6-0.5,0.9-0.7c0.4-0.2,0.7-0.3,1.1-0.3
		c0.7,0,1.2,0.2,1.6,0.6c0.4,0.4,0.6,0.9,0.6,1.5v4.5c0,0.2-0.2,0.3-0.5,0.3h-0.1c-0.3,0-0.5-0.1-0.5-0.3v-4.4
		c0-0.4-0.1-0.7-0.3-0.9s-0.6-0.3-1-0.3c-0.3,0-0.6,0.1-0.9,0.2c-0.3,0.2-0.5,0.4-0.8,0.7v4.8c0,0.2-0.2,0.3-0.5,0.3h-0.1
		C268.4,134.3,268.2,134.2,268.2,134z"/>
	<path class="st11" d="M278.7,133.5c-0.5-0.6-0.8-1.4-0.8-2.6c0-1.1,0.3-2,0.8-2.6c0.5-0.6,1.3-0.9,2.2-0.9c1,0,1.7,0.3,2.2,0.9
		c0.5,0.6,0.8,1.5,0.8,2.6c0,1.1-0.2,2-0.7,2.6c-0.5,0.6-1.2,0.9-2.2,0.9C279.9,134.4,279.2,134.1,278.7,133.5z M282.3,132.8
		c0.3-0.4,0.5-1.1,0.5-1.9c0-0.9-0.2-1.5-0.5-1.9c-0.3-0.4-0.8-0.6-1.4-0.6c-0.6,0-1.1,0.2-1.4,0.6c-0.3,0.4-0.4,1.1-0.4,1.9
		c0,0.9,0.1,1.5,0.4,1.9c0.3,0.4,0.8,0.6,1.4,0.6C281.5,133.4,282,133.2,282.3,132.8z"/>
	<path class="st11" d="M285.8,134v-5.6h-0.5c-0.1,0-0.2,0-0.2-0.1c0-0.1-0.1-0.2-0.1-0.3v-0.2c0-0.1,0-0.2,0.1-0.3
		c0-0.1,0.1-0.1,0.2-0.1h0.5v-1.2c0-0.7,0.2-1.2,0.5-1.4s0.7-0.4,1.2-0.4c0.6,0,0.9,0.1,0.9,0.4c0,0.1,0,0.2-0.1,0.4
		s-0.1,0.2-0.2,0.2c0,0-0.1,0-0.2,0s-0.2,0-0.4,0c-0.2,0-0.4,0.1-0.5,0.2c-0.1,0.1-0.2,0.4-0.2,0.8v1.1h1.1c0.1,0,0.2,0,0.2,0.1
		s0.1,0.2,0.1,0.3v0.2c0,0.1,0,0.2-0.1,0.3s-0.1,0.1-0.2,0.1h-1.1v5.6c0,0.2-0.2,0.3-0.5,0.3h-0.1C286,134.3,285.8,134.2,285.8,134z
		"/>
	<path class="st11" d="M292.9,133.5c-0.5-0.6-0.8-1.4-0.8-2.6c0-1.2,0.3-2,0.8-2.6c0.5-0.6,1.3-0.9,2.3-0.9c0.9,0,1.6,0.3,2,0.9
		c0.5,0.6,0.7,1.4,0.7,2.5c0,0.1-0.1,0.2-0.2,0.3c-0.1,0.1-0.2,0.2-0.3,0.2h-4.1c0.1,0.7,0.2,1.2,0.6,1.6c0.3,0.3,0.8,0.5,1.4,0.5
		c0.4,0,0.7,0,0.9-0.1c0.3-0.1,0.5-0.2,0.7-0.3c0.2-0.1,0.3-0.1,0.3-0.1c0.1,0,0.2,0.1,0.3,0.3c0.1,0.2,0.2,0.3,0.2,0.4
		c0,0.1-0.1,0.2-0.3,0.4s-0.5,0.2-0.9,0.3c-0.4,0.1-0.7,0.1-1.2,0.1C294.3,134.4,293.5,134.1,292.9,133.5z M296.7,130.4
		c0-1.4-0.5-2.1-1.6-2.1c-1.1,0-1.7,0.7-1.8,2.1H296.7z"/>
	<path class="st11" d="M299.5,134v-4.6c0-0.6,0-1-0.1-1.2s-0.1-0.4-0.1-0.4c0-0.1,0.1-0.2,0.2-0.2c0.2,0,0.3-0.1,0.5-0.1
		c0.1,0,0.2,0.1,0.3,0.2s0.1,0.3,0.1,0.4s0,0.2,0.1,0.3c0.5-0.6,1-1,1.5-1c0.2,0,0.4,0,0.6,0.1c0.1,0.1,0.2,0.2,0.2,0.4
		s0,0.3-0.1,0.5c-0.1,0.2-0.1,0.2-0.2,0.2c0,0-0.1,0-0.3-0.1c-0.1,0-0.3-0.1-0.5-0.1c-0.2,0-0.4,0.1-0.6,0.2s-0.3,0.2-0.4,0.4
		c-0.1,0.1-0.2,0.2-0.2,0.2v4.8c0,0.2-0.2,0.3-0.5,0.3H300C299.6,134.3,299.5,134.2,299.5,134z"/>
	<path class="st11" d="M307.2,136.6c-0.5-0.3-0.7-0.7-0.7-1.2c0-0.4,0.1-0.7,0.3-1s0.5-0.5,0.9-0.6l0,0c-0.3-0.3-0.5-0.6-0.5-1.1
		c0-0.6,0.2-1,0.7-1.4c-0.4-0.2-0.6-0.4-0.8-0.8c-0.2-0.3-0.3-0.7-0.3-1.1c0-0.6,0.2-1.1,0.7-1.5c0.5-0.4,1.1-0.6,1.9-0.6
		c0.3,0,0.5,0,0.8,0.1h2.4c0.1,0,0.2,0,0.2,0.1s0.1,0.2,0.1,0.3v0.2c0,0.1,0,0.2-0.1,0.3s-0.1,0.1-0.2,0.1c-0.4,0-0.7,0-0.9,0l0,0
		c0.2,0.3,0.3,0.7,0.3,1.1c0,0.6-0.2,1.1-0.7,1.5s-1.1,0.6-1.9,0.6c-0.4,0-0.7,0.1-0.9,0.2c-0.2,0.1-0.3,0.4-0.3,0.7
		c0,0.2,0.1,0.4,0.2,0.5c0.1,0.1,0.3,0.2,0.5,0.3s0.5,0.1,0.9,0.1c0.2,0,0.3,0,0.4,0.1c0.6,0.1,1.1,0.2,1.4,0.4
		c0.3,0.2,0.5,0.6,0.5,1.1c0,0.6-0.3,1.1-0.8,1.5s-1.2,0.5-2.2,0.5C308.3,137,307.7,136.9,307.2,136.6z M310.6,135.9
		c0.3-0.2,0.4-0.4,0.4-0.7c0-0.3-0.1-0.5-0.4-0.6c-0.3-0.1-0.7-0.2-1.3-0.2c-0.5-0.1-0.9-0.1-1.1-0.2c-0.6,0.2-0.9,0.6-0.9,1.1
		c0,0.6,0.6,0.9,1.9,0.9C309.9,136.1,310.4,136.1,310.6,135.9z M310.4,130.5c0.3-0.2,0.4-0.5,0.4-1c0-0.8-0.5-1.3-1.6-1.3
		c-1,0-1.5,0.4-1.5,1.3c0,0.8,0.5,1.2,1.5,1.2C309.8,130.8,310.2,130.7,310.4,130.5z"/>
	<path class="st11" d="M314.3,133.5c-0.5-0.6-0.8-1.4-0.8-2.6c0-1.2,0.3-2,0.8-2.6c0.5-0.6,1.3-0.9,2.3-0.9c0.9,0,1.6,0.3,2,0.9
		c0.5,0.6,0.7,1.4,0.7,2.5c0,0.1-0.1,0.2-0.2,0.3c-0.1,0.1-0.2,0.2-0.3,0.2h-4.1c0.1,0.7,0.2,1.2,0.6,1.6c0.3,0.3,0.8,0.5,1.4,0.5
		c0.4,0,0.7,0,0.9-0.1c0.3-0.1,0.5-0.2,0.7-0.3c0.2-0.1,0.3-0.1,0.3-0.1c0.1,0,0.2,0.1,0.3,0.3c0.1,0.2,0.2,0.3,0.2,0.4
		c0,0.1-0.1,0.2-0.3,0.4s-0.5,0.2-0.9,0.3c-0.4,0.1-0.7,0.1-1.2,0.1C315.6,134.4,314.8,134.1,314.3,133.5z M318.1,130.4
		c0-1.4-0.5-2.1-1.6-2.1c-1.1,0-1.7,0.7-1.8,2.1H318.1z"/>
	<path class="st11" d="M321.2,133.5c-0.5-0.6-0.8-1.4-0.8-2.6c0-1.2,0.3-2,0.8-2.6c0.5-0.6,1.3-0.9,2.3-0.9c0.9,0,1.6,0.3,2,0.9
		c0.5,0.6,0.7,1.4,0.7,2.5c0,0.1-0.1,0.2-0.2,0.3c-0.1,0.1-0.2,0.2-0.3,0.2h-4.1c0.1,0.7,0.2,1.2,0.6,1.6c0.3,0.3,0.8,0.5,1.4,0.5
		c0.4,0,0.7,0,0.9-0.1c0.3-0.1,0.5-0.2,0.7-0.3c0.2-0.1,0.3-0.1,0.3-0.1c0.1,0,0.2,0.1,0.3,0.3c0.1,0.2,0.2,0.3,0.2,0.4
		c0,0.1-0.1,0.2-0.3,0.4s-0.5,0.2-0.9,0.3c-0.4,0.1-0.7,0.1-1.2,0.1C322.5,134.4,321.7,134.1,321.2,133.5z M324.9,130.4
		c0-1.4-0.5-2.1-1.6-2.1c-1.1,0-1.7,0.7-1.8,2.1H324.9z"/>
	<path class="st11" d="M327.6,134v-4.6c0-0.6,0-1-0.1-1.2s-0.1-0.4-0.1-0.4c0-0.1,0.1-0.2,0.2-0.2c0.2,0,0.3-0.1,0.5-0.1
		c0.1,0,0.2,0.1,0.3,0.2c0.1,0.1,0.1,0.3,0.1,0.4s0,0.2,0.1,0.3c0.3-0.3,0.6-0.5,0.9-0.7c0.4-0.2,0.7-0.3,1.1-0.3
		c0.7,0,1.2,0.2,1.6,0.6c0.4,0.4,0.6,0.9,0.6,1.5v4.5c0,0.2-0.2,0.3-0.5,0.3h-0.1c-0.3,0-0.5-0.1-0.5-0.3v-4.4
		c0-0.4-0.1-0.7-0.3-0.9s-0.6-0.3-1-0.3c-0.3,0-0.6,0.1-0.9,0.2c-0.3,0.2-0.5,0.4-0.8,0.7v4.8c0,0.2-0.2,0.3-0.5,0.3h-0.1
		C327.8,134.3,327.6,134.2,327.6,134z"/>
	<path class="st11" d="M338.1,134.3c-0.3-0.1-0.6-0.2-0.8-0.3c-0.2-0.1-0.3-0.2-0.3-0.4c0-0.1,0.1-0.2,0.2-0.4
		c0.1-0.2,0.2-0.3,0.3-0.3c0,0,0.1,0,0.2,0.1s0.3,0.2,0.6,0.3c0.2,0.1,0.5,0.1,0.7,0.1c0.8,0,1.3-0.4,1.3-1.1c0-0.3-0.1-0.5-0.3-0.7
		s-0.5-0.3-1-0.5c-0.7-0.2-1.2-0.4-1.4-0.7s-0.4-0.7-0.4-1.2c0-0.4,0.1-0.7,0.3-1c0.2-0.3,0.4-0.5,0.8-0.7s0.7-0.2,1.1-0.2
		c0.4,0,0.8,0.1,1.2,0.2c0.4,0.1,0.5,0.2,0.5,0.4c0,0.1-0.1,0.3-0.1,0.4c-0.1,0.2-0.2,0.3-0.3,0.3c0,0-0.1-0.1-0.3-0.2
		c-0.2-0.1-0.5-0.2-0.8-0.2c-0.3,0-0.6,0.1-0.8,0.2s-0.3,0.3-0.3,0.6c0,0.3,0.1,0.5,0.2,0.7c0.2,0.2,0.4,0.3,0.8,0.4
		c0.6,0.2,1,0.3,1.3,0.5c0.3,0.2,0.5,0.4,0.6,0.6c0.1,0.2,0.2,0.6,0.2,1c0,0.4-0.1,0.7-0.3,1c-0.2,0.3-0.5,0.6-0.8,0.7
		s-0.7,0.3-1.2,0.3C338.7,134.4,338.4,134.3,338.1,134.3z"/>
	<path class="st11" d="M342.9,136.7v-7.2c0-0.6,0-1-0.1-1.2s-0.1-0.4-0.1-0.4c0-0.1,0.1-0.2,0.2-0.2c0.2,0,0.3-0.1,0.5-0.1
		c0.1,0,0.2,0.1,0.3,0.2c0.1,0.1,0.1,0.3,0.1,0.4s0,0.2,0.1,0.3c0.6-0.6,1.3-1,2.1-1c0.5,0,1,0.1,1.4,0.4s0.7,0.7,0.9,1.2
		s0.3,1.1,0.3,1.8c0,0.7-0.1,1.4-0.3,1.9c-0.2,0.5-0.5,0.9-0.9,1.2c-0.4,0.3-0.9,0.4-1.4,0.4c-0.4,0-0.7-0.1-1-0.2s-0.6-0.3-0.9-0.5
		v3c0,0.2-0.2,0.3-0.5,0.3h-0.1C343.1,137,342.9,136.9,342.9,136.7z M346.9,132.8c0.3-0.4,0.4-1,0.4-1.8c0-0.8-0.1-1.5-0.4-1.9
		c-0.3-0.5-0.7-0.7-1.2-0.7c-0.3,0-0.6,0.1-0.9,0.2c-0.3,0.2-0.6,0.4-0.9,0.7v3.6c0.5,0.4,1,0.6,1.6,0.6
		C346.2,133.4,346.6,133.2,346.9,132.8z"/>
	<path class="st11" d="M350.3,133.9c-0.4-0.3-0.6-0.8-0.6-1.5c0-0.7,0.2-1.2,0.6-1.5c0.4-0.3,0.9-0.6,1.5-0.7
		c0.6-0.1,1.3-0.2,2.2-0.2v-0.6c0-0.3-0.1-0.6-0.3-0.8c-0.2-0.2-0.6-0.3-1.1-0.3c-0.4,0-0.7,0-1,0.1c-0.3,0.1-0.5,0.2-0.7,0.3
		s-0.3,0.1-0.3,0.1c-0.1,0-0.2-0.1-0.3-0.3c-0.1-0.2-0.2-0.3-0.2-0.4c0-0.1,0.1-0.2,0.3-0.4c0.2-0.1,0.5-0.2,0.9-0.3
		c0.4-0.1,0.8-0.1,1.2-0.1c0.8,0,1.4,0.2,1.9,0.5c0.5,0.4,0.7,0.9,0.7,1.5v2.9c0,0.6,0,1,0.1,1.2s0.1,0.4,0.1,0.4
		c0,0.1-0.1,0.2-0.2,0.2c-0.2,0-0.3,0.1-0.5,0.1c-0.1,0-0.2-0.1-0.3-0.2s-0.1-0.3-0.1-0.4c0-0.1,0-0.2-0.1-0.3c-0.6,0.7-1.3,1-2.2,1
		C351.3,134.4,350.7,134.2,350.3,133.9z M353.1,133.2c0.3-0.2,0.6-0.4,0.9-0.7V131c-0.7,0-1.2,0-1.6,0.1c-0.4,0-0.8,0.2-1.1,0.4
		c-0.3,0.2-0.5,0.5-0.5,0.9c0,0.3,0.1,0.6,0.3,0.8c0.2,0.2,0.5,0.3,0.8,0.3C352.4,133.4,352.8,133.3,353.1,133.2z"/>
	<path class="st11" d="M357.9,134c-0.3-0.3-0.5-0.7-0.5-1.4v-4.1h-0.6c-0.1,0-0.2,0-0.2-0.1s-0.1-0.2-0.1-0.3v-0.2
		c0-0.1,0-0.2,0.1-0.3s0.1-0.1,0.2-0.1h0.6l0.2-1.4c0-0.2,0.2-0.3,0.4-0.3h0.1c0.3,0,0.4,0.1,0.4,0.3v1.4h1.1c0.1,0,0.2,0,0.2,0.1
		s0.1,0.2,0.1,0.3v0.2c0,0.1,0,0.2-0.1,0.3s-0.1,0.1-0.2,0.1h-1.1v4c0,0.4,0.1,0.6,0.2,0.8c0.1,0.1,0.3,0.2,0.5,0.2
		c0.2,0,0.3,0,0.4,0c0.1,0,0.1,0,0.2,0c0.1,0,0.1,0.1,0.2,0.2c0.1,0.2,0.1,0.3,0.1,0.4c0,0.3-0.3,0.4-0.9,0.4
		C358.6,134.4,358.2,134.2,357.9,134z"/>
	<path class="st11" d="M361.4,126v-0.7c0-0.2,0.2-0.3,0.6-0.3c0.4,0,0.6,0.1,0.6,0.3v0.7c0,0.2-0.2,0.3-0.6,0.3
		C361.6,126.3,361.4,126.2,361.4,126z M361.5,134v-6.3c0-0.2,0.2-0.3,0.5-0.3h0.1c0.3,0,0.5,0.1,0.5,0.3v6.3c0,0.2-0.2,0.3-0.5,0.3
		H362C361.6,134.3,361.5,134.2,361.5,134z"/>
	<path class="st11" d="M365.1,133.5c-0.5-0.6-0.8-1.4-0.8-2.6c0-1.2,0.3-2,0.8-2.6c0.5-0.6,1.3-0.9,2.3-0.9c0.9,0,1.6,0.3,2,0.9
		c0.5,0.6,0.7,1.4,0.7,2.5c0,0.1-0.1,0.2-0.2,0.3c-0.1,0.1-0.2,0.2-0.3,0.2h-4.1c0.1,0.7,0.2,1.2,0.6,1.6c0.3,0.3,0.8,0.5,1.4,0.5
		c0.4,0,0.7,0,0.9-0.1c0.3-0.1,0.5-0.2,0.7-0.3c0.2-0.1,0.3-0.1,0.3-0.1c0.1,0,0.2,0.1,0.3,0.3c0.1,0.2,0.2,0.3,0.2,0.4
		c0,0.1-0.1,0.2-0.3,0.4s-0.5,0.2-0.9,0.3c-0.4,0.1-0.7,0.1-1.2,0.1C366.4,134.4,365.6,134.1,365.1,133.5z M368.8,130.4
		c0-1.4-0.5-2.1-1.6-2.1c-1.1,0-1.7,0.7-1.8,2.1H368.8z"/>
	<path class="st11" d="M371.9,134.3c-0.3-0.1-0.6-0.2-0.8-0.3c-0.2-0.1-0.3-0.2-0.3-0.4c0-0.1,0.1-0.2,0.2-0.4
		c0.1-0.2,0.2-0.3,0.3-0.3c0,0,0.1,0,0.2,0.1s0.3,0.2,0.6,0.3c0.2,0.1,0.5,0.1,0.7,0.1c0.8,0,1.3-0.4,1.3-1.1c0-0.3-0.1-0.5-0.3-0.7
		s-0.5-0.3-1-0.5c-0.7-0.2-1.2-0.4-1.4-0.7s-0.4-0.7-0.4-1.2c0-0.4,0.1-0.7,0.3-1c0.2-0.3,0.4-0.5,0.8-0.7s0.7-0.2,1.1-0.2
		c0.4,0,0.8,0.1,1.2,0.2c0.4,0.1,0.5,0.2,0.5,0.4c0,0.1-0.1,0.3-0.1,0.4c-0.1,0.2-0.2,0.3-0.3,0.3c0,0-0.1-0.1-0.3-0.2
		c-0.2-0.1-0.5-0.2-0.8-0.2c-0.3,0-0.6,0.1-0.8,0.2s-0.3,0.3-0.3,0.6c0,0.3,0.1,0.5,0.2,0.7c0.2,0.2,0.4,0.3,0.8,0.4
		c0.6,0.2,1,0.3,1.3,0.5c0.3,0.2,0.5,0.4,0.6,0.6c0.1,0.2,0.2,0.6,0.2,1c0,0.4-0.1,0.7-0.3,1c-0.2,0.3-0.5,0.6-0.8,0.7
		s-0.7,0.3-1.2,0.3C372.6,134.4,372.2,134.3,371.9,134.3z"/>
	<path class="st11" d="M46.5,142.5v-0.7c0-0.2,0.2-0.3,0.6-0.3c0.4,0,0.6,0.1,0.6,0.3v0.7c0,0.2-0.2,0.3-0.6,0.3
		C46.7,142.8,46.5,142.7,46.5,142.5z M46.5,150.5v-6.3c0-0.2,0.2-0.3,0.5-0.3h0.1c0.3,0,0.5,0.1,0.5,0.3v6.3c0,0.2-0.2,0.3-0.5,0.3
		h-0.1C46.7,150.8,46.5,150.7,46.5,150.5z"/>
	<path class="st11" d="M49.8,150.5V146c0-0.6,0-1-0.1-1.2s-0.1-0.4-0.1-0.4c0-0.1,0.1-0.2,0.2-0.2c0.2,0,0.3-0.1,0.5-0.1
		c0.1,0,0.2,0.1,0.3,0.2c0.1,0.1,0.1,0.3,0.1,0.4s0,0.2,0.1,0.3c0.3-0.3,0.6-0.5,0.9-0.7c0.4-0.2,0.7-0.3,1.1-0.3
		c0.7,0,1.2,0.2,1.6,0.6c0.4,0.4,0.6,0.9,0.6,1.5v4.5c0,0.2-0.2,0.3-0.5,0.3h-0.1c-0.3,0-0.5-0.1-0.5-0.3v-4.4
		c0-0.4-0.1-0.7-0.3-0.9s-0.6-0.3-1-0.3c-0.3,0-0.6,0.1-0.9,0.2c-0.3,0.2-0.5,0.4-0.8,0.7v4.8c0,0.2-0.2,0.3-0.5,0.3h-0.1
		C49.9,150.8,49.8,150.7,49.8,150.5z"/>
	<path class="st11" d="M60.2,150.8c-0.3-0.1-0.6-0.2-0.8-0.3c-0.2-0.1-0.3-0.2-0.3-0.4c0-0.1,0.1-0.2,0.2-0.4
		c0.1-0.2,0.2-0.3,0.3-0.3c0,0,0.1,0,0.2,0.1s0.3,0.2,0.6,0.3c0.2,0.1,0.5,0.1,0.7,0.1c0.8,0,1.3-0.4,1.3-1.1c0-0.3-0.1-0.5-0.3-0.7
		s-0.5-0.3-1-0.5c-0.7-0.2-1.2-0.4-1.4-0.7s-0.4-0.7-0.4-1.2c0-0.4,0.1-0.7,0.3-1c0.2-0.3,0.4-0.5,0.8-0.7s0.7-0.2,1.1-0.2
		c0.4,0,0.8,0.1,1.2,0.2c0.4,0.1,0.5,0.2,0.5,0.4c0,0.1-0.1,0.3-0.1,0.4c-0.1,0.2-0.2,0.3-0.3,0.3c0,0-0.1-0.1-0.3-0.2
		c-0.2-0.1-0.5-0.2-0.8-0.2c-0.3,0-0.6,0.1-0.8,0.2s-0.3,0.3-0.3,0.6c0,0.3,0.1,0.5,0.2,0.7c0.2,0.2,0.4,0.3,0.8,0.4
		c0.6,0.2,1,0.3,1.3,0.5c0.3,0.2,0.5,0.4,0.6,0.6c0.1,0.2,0.2,0.6,0.2,1c0,0.4-0.1,0.7-0.3,1c-0.2,0.3-0.5,0.6-0.8,0.7
		s-0.7,0.3-1.2,0.3C60.9,150.9,60.5,150.8,60.2,150.8z"/>
	<path class="st11" d="M65.8,150.5c-0.3-0.3-0.5-0.7-0.5-1.4v-4.1h-0.6c-0.1,0-0.2,0-0.2-0.1s-0.1-0.2-0.1-0.3v-0.2
		c0-0.1,0-0.2,0.1-0.3s0.1-0.1,0.2-0.1h0.6l0.2-1.4c0-0.2,0.2-0.3,0.4-0.3H66c0.3,0,0.4,0.1,0.4,0.3v1.4h1.1c0.1,0,0.2,0,0.2,0.1
		s0.1,0.2,0.1,0.3v0.2c0,0.1,0,0.2-0.1,0.3s-0.1,0.1-0.2,0.1h-1.1v4c0,0.4,0.1,0.6,0.2,0.8c0.1,0.1,0.3,0.2,0.5,0.2
		c0.2,0,0.3,0,0.4,0c0.1,0,0.1,0,0.2,0c0.1,0,0.1,0.1,0.2,0.2c0.1,0.2,0.1,0.3,0.1,0.4c0,0.3-0.3,0.4-0.9,0.4
		C66.5,150.9,66.2,150.7,65.8,150.5z"/>
	<path class="st11" d="M69.5,150.4c-0.4-0.3-0.6-0.8-0.6-1.5c0-0.7,0.2-1.2,0.6-1.5c0.4-0.3,0.9-0.6,1.5-0.7
		c0.6-0.1,1.3-0.2,2.2-0.2v-0.6c0-0.3-0.1-0.6-0.3-0.8c-0.2-0.2-0.6-0.3-1.1-0.3c-0.4,0-0.7,0-1,0.1c-0.3,0.1-0.5,0.2-0.7,0.3
		s-0.3,0.1-0.3,0.1c-0.1,0-0.2-0.1-0.3-0.3c-0.1-0.2-0.2-0.3-0.2-0.4c0-0.1,0.1-0.2,0.3-0.4c0.2-0.1,0.5-0.2,0.9-0.3
		c0.4-0.1,0.8-0.1,1.2-0.1c0.8,0,1.4,0.2,1.9,0.5c0.5,0.4,0.7,0.9,0.7,1.5v2.9c0,0.6,0,1,0.1,1.2s0.1,0.4,0.1,0.4
		c0,0.1-0.1,0.2-0.2,0.2c-0.2,0-0.3,0.1-0.5,0.1c-0.1,0-0.2-0.1-0.3-0.2s-0.1-0.3-0.1-0.4c0-0.1,0-0.2-0.1-0.3c-0.6,0.7-1.3,1-2.2,1
		C70.4,150.9,69.9,150.7,69.5,150.4z M72.2,149.7c0.3-0.2,0.6-0.4,0.9-0.7v-1.5c-0.7,0-1.2,0-1.6,0.1c-0.4,0-0.8,0.2-1.1,0.4
		c-0.3,0.2-0.5,0.5-0.5,0.9c0,0.3,0.1,0.6,0.3,0.8c0.2,0.2,0.5,0.3,0.8,0.3C71.5,149.9,71.9,149.8,72.2,149.7z"/>
	<path class="st11" d="M76.4,150.4c-0.4-0.3-0.6-0.8-0.6-1.5c0-0.7,0.2-1.2,0.6-1.5c0.4-0.3,0.9-0.6,1.5-0.7
		c0.6-0.1,1.3-0.2,2.2-0.2v-0.6c0-0.3-0.1-0.6-0.3-0.8c-0.2-0.2-0.6-0.3-1.1-0.3c-0.4,0-0.7,0-1,0.1c-0.3,0.1-0.5,0.2-0.7,0.3
		s-0.3,0.1-0.3,0.1c-0.1,0-0.2-0.1-0.3-0.3c-0.1-0.2-0.2-0.3-0.2-0.4c0-0.1,0.1-0.2,0.3-0.4c0.2-0.1,0.5-0.2,0.9-0.3
		c0.4-0.1,0.8-0.1,1.2-0.1c0.8,0,1.4,0.2,1.9,0.5c0.5,0.4,0.7,0.9,0.7,1.5v2.9c0,0.6,0,1,0.1,1.2s0.1,0.4,0.1,0.4
		c0,0.1-0.1,0.2-0.2,0.2c-0.2,0-0.3,0.1-0.5,0.1c-0.1,0-0.2-0.1-0.3-0.2s-0.1-0.3-0.1-0.4c0-0.1,0-0.2-0.1-0.3c-0.6,0.7-1.3,1-2.2,1
		C77.3,150.9,76.8,150.7,76.4,150.4z M79.1,149.7c0.3-0.2,0.6-0.4,0.9-0.7v-1.5c-0.7,0-1.2,0-1.6,0.1c-0.4,0-0.8,0.2-1.1,0.4
		c-0.3,0.2-0.5,0.5-0.5,0.9c0,0.3,0.1,0.6,0.3,0.8c0.2,0.2,0.5,0.3,0.8,0.3C78.5,149.9,78.8,149.8,79.1,149.7z"/>
	<path class="st11" d="M83.2,150.5V146c0-0.6,0-1-0.1-1.2s-0.1-0.4-0.1-0.4c0-0.1,0.1-0.2,0.2-0.2c0.2,0,0.3-0.1,0.5-0.1
		c0.1,0,0.2,0.1,0.3,0.2c0.1,0.1,0.1,0.3,0.1,0.4s0,0.2,0.1,0.3c0.3-0.3,0.6-0.5,0.9-0.7c0.4-0.2,0.7-0.3,1.1-0.3
		c0.7,0,1.2,0.2,1.6,0.6c0.4,0.4,0.6,0.9,0.6,1.5v4.5c0,0.2-0.2,0.3-0.5,0.3h-0.1c-0.3,0-0.5-0.1-0.5-0.3v-4.4
		c0-0.4-0.1-0.7-0.3-0.9s-0.6-0.3-1-0.3c-0.3,0-0.6,0.1-0.9,0.2c-0.3,0.2-0.5,0.4-0.8,0.7v4.8c0,0.2-0.2,0.3-0.5,0.3h-0.1
		C83.4,150.8,83.2,150.7,83.2,150.5z"/>
	<path class="st11" d="M89.8,150.5v-0.9c0-0.2,0.2-0.3,0.5-0.3h0.2c0.3,0,0.5,0.1,0.5,0.3v0.9c0,0.2-0.2,0.3-0.5,0.3h-0.2
		C90,150.8,89.8,150.7,89.8,150.5z"/>
</g>
<g>
	<rect x="32.2" y="74.6" class="st10" width="85.8" height="14.9"/>
	<path class="st12" d="M33.7,83.6c-0.5-0.6-0.8-1.4-0.8-2.6c0-1.2,0.3-2,0.8-2.6c0.5-0.6,1.3-0.9,2.3-0.9c0.9,0,1.6,0.3,2,0.9
		c0.5,0.6,0.7,1.4,0.7,2.5c0,0.1-0.1,0.2-0.2,0.3c-0.1,0.1-0.2,0.2-0.3,0.2h-4.1c0.1,0.7,0.2,1.2,0.6,1.6c0.3,0.3,0.8,0.5,1.4,0.5
		c0.4,0,0.7,0,0.9-0.1c0.3-0.1,0.5-0.2,0.7-0.3C37.9,83,38,83,38,83c0.1,0,0.2,0.1,0.3,0.3s0.2,0.3,0.2,0.4c0,0.1-0.1,0.2-0.3,0.4
		s-0.5,0.2-0.9,0.3c-0.4,0.1-0.7,0.1-1.2,0.1C35,84.5,34.2,84.2,33.7,83.6z M37.5,80.5c0-1.4-0.5-2.1-1.6-2.1
		c-1.1,0-1.7,0.7-1.8,2.1H37.5z"/>
	<path class="st12" d="M45.2,77.9v6.3c0,0.2-0.2,0.3-0.5,0.3h-0.1c-0.3,0-0.5-0.1-0.5-0.3v-5.6h-2.6v5.6c0,0.2-0.2,0.3-0.5,0.3H41
		c-0.3,0-0.5-0.1-0.5-0.3v-5.6H40c-0.1,0-0.2,0-0.2-0.1c0-0.1-0.1-0.2-0.1-0.3V78c0-0.1,0-0.2,0.1-0.3c0-0.1,0.1-0.1,0.2-0.1h0.5
		v-1.2c0-0.7,0.2-1.2,0.5-1.4c0.3-0.3,0.7-0.4,1.2-0.4c0.6,0,0.9,0.1,0.9,0.4c0,0.1,0,0.2-0.1,0.4s-0.1,0.2-0.2,0.2c0,0-0.1,0-0.2,0
		s-0.2,0-0.4,0c-0.2,0-0.4,0.1-0.5,0.2c-0.1,0.1-0.2,0.4-0.2,0.8v1.1h3.1C45.1,77.6,45.2,77.7,45.2,77.9z M45.3,75.4v0.7
		c0,0.2-0.2,0.3-0.6,0.3c-0.4,0-0.6-0.1-0.6-0.3v-0.7c0-0.2,0.2-0.3,0.6-0.3C45.1,75,45.3,75.2,45.3,75.4z"/>
	<path class="st12" d="M47.8,83.9c-0.4-0.4-0.6-0.9-0.6-1.5v-4.5c0-0.2,0.2-0.3,0.5-0.3h0.1c0.3,0,0.5,0.1,0.5,0.3v4.4
		c0,0.4,0.1,0.7,0.3,0.9c0.2,0.2,0.6,0.3,1,0.3c0.3,0,0.6-0.1,0.9-0.2c0.3-0.2,0.5-0.4,0.8-0.7v-4.8c0-0.2,0.2-0.3,0.5-0.3h0.1
		c0.3,0,0.5,0.1,0.5,0.3v4.6c0,0.6,0,1,0.1,1.2c0.1,0.2,0.1,0.4,0.1,0.4c0,0.1-0.1,0.2-0.2,0.2c-0.2,0-0.3,0.1-0.5,0.1
		c-0.1,0-0.2-0.1-0.3-0.2s-0.1-0.3-0.1-0.4s0-0.2-0.1-0.3c-0.3,0.3-0.6,0.5-0.9,0.7c-0.4,0.2-0.7,0.3-1.1,0.3
		C48.7,84.5,48.2,84.3,47.8,83.9z"/>
	<path class="st12" d="M54.8,83.6c-0.5-0.6-0.8-1.4-0.8-2.6c0-1.2,0.3-2,0.8-2.6c0.5-0.6,1.3-0.9,2.3-0.9c0.9,0,1.6,0.3,2,0.9
		c0.5,0.6,0.7,1.4,0.7,2.5c0,0.1-0.1,0.2-0.2,0.3c-0.1,0.1-0.2,0.2-0.3,0.2h-4.1c0.1,0.7,0.2,1.2,0.6,1.6c0.3,0.3,0.8,0.5,1.4,0.5
		c0.4,0,0.7,0,0.9-0.1c0.3-0.1,0.5-0.2,0.7-0.3C59,83,59.1,83,59.1,83c0.1,0,0.2,0.1,0.3,0.3s0.2,0.3,0.2,0.4c0,0.1-0.1,0.2-0.3,0.4
		s-0.5,0.2-0.9,0.3c-0.4,0.1-0.7,0.1-1.2,0.1C56.1,84.5,55.3,84.2,54.8,83.6z M58.6,80.5c0-1.4-0.5-2.1-1.6-2.1
		c-1.1,0-1.7,0.7-1.8,2.1H58.6z"/>
	<path class="st12" d="M61.4,84.1v-9.2c0-0.2,0.2-0.3,0.5-0.3h0.1c0.3,0,0.5,0.1,0.5,0.3v3.5c0.3-0.3,0.6-0.5,0.9-0.6
		s0.7-0.3,1.1-0.3c0.5,0,1,0.2,1.4,0.5s0.6,0.9,0.6,1.6v4.5c0,0.2-0.2,0.3-0.5,0.3h-0.1c-0.3,0-0.5-0.1-0.5-0.3v-4.4
		c0-0.4-0.1-0.7-0.3-0.9c-0.2-0.2-0.6-0.3-1-0.3c-0.3,0-0.5,0.1-0.8,0.2c-0.2,0.1-0.4,0.3-0.6,0.4c-0.2,0.2-0.2,0.2-0.2,0.3v4.8
		c0,0.2-0.2,0.3-0.5,0.3h-0.1C61.5,84.4,61.4,84.3,61.4,84.1z"/>
	<path class="st12" d="M69.8,84.2L67.7,78c0-0.1,0-0.1,0-0.2c0-0.1,0.2-0.2,0.6-0.2h0.1c0.3,0,0.5,0.1,0.5,0.2l1.3,4.1
		c0.1,0.3,0.2,0.8,0.5,1.6h0.1l0.1-0.4c0.1-0.5,0.2-0.9,0.3-1.2l1.3-4.2c0-0.1,0.2-0.2,0.5-0.2h0c0.3,0,0.5,0.1,0.5,0.2
		c0,0,0,0.1,0,0.2l-2.1,6.2c0,0.1-0.2,0.2-0.5,0.2h-0.5C70,84.4,69.8,84.4,69.8,84.2z"/>
	<path class="st12" d="M73.3,86.8c0-0.1,0-0.2,0.1-0.4c0.1-0.2,0.1-0.2,0.2-0.2c0,0,0.1,0,0.2,0c0.1,0,0.2,0,0.4,0
		c0.2,0,0.4-0.1,0.5-0.2c0.1-0.1,0.2-0.4,0.2-0.8v-7.4c0-0.2,0.2-0.3,0.5-0.3h0.1c0.3,0,0.5,0.1,0.5,0.3v7.5c0,0.7-0.2,1.1-0.5,1.4
		c-0.3,0.3-0.7,0.4-1.2,0.4C73.6,87.2,73.3,87,73.3,86.8z M74.8,76.1v-0.7c0-0.2,0.2-0.3,0.6-0.3c0.4,0,0.6,0.1,0.6,0.3v0.7
		c0,0.2-0.2,0.3-0.6,0.3C75,76.4,74.8,76.3,74.8,76.1z"/>
	<path class="st12" d="M78.4,83.6c-0.5-0.6-0.8-1.4-0.8-2.6c0-1.1,0.3-2,0.8-2.6c0.5-0.6,1.3-0.9,2.2-0.9c1,0,1.7,0.3,2.2,0.9
		c0.5,0.6,0.8,1.5,0.8,2.6c0,1.1-0.2,2-0.7,2.6c-0.5,0.6-1.2,0.9-2.2,0.9C79.7,84.5,78.9,84.2,78.4,83.6z M82,82.9
		c0.3-0.4,0.5-1.1,0.5-1.9s-0.2-1.5-0.5-1.9c-0.3-0.4-0.8-0.6-1.4-0.6c-0.6,0-1.1,0.2-1.4,0.6c-0.3,0.4-0.4,1.1-0.4,1.9
		c0,0.9,0.1,1.5,0.4,1.9s0.8,0.6,1.4,0.6C81.3,83.5,81.7,83.3,82,82.9z"/>
	<path class="st12" d="M85.7,83.6c-0.5-0.6-0.8-1.4-0.8-2.6c0-1.2,0.3-2,0.8-2.6c0.5-0.6,1.3-0.9,2.3-0.9c0.9,0,1.6,0.3,2,0.9
		c0.5,0.6,0.7,1.4,0.7,2.5c0,0.1-0.1,0.2-0.2,0.3c-0.1,0.1-0.2,0.2-0.3,0.2h-4.1c0.1,0.7,0.2,1.2,0.6,1.6c0.3,0.3,0.8,0.5,1.4,0.5
		c0.4,0,0.7,0,0.9-0.1c0.3-0.1,0.5-0.2,0.7-0.3C89.8,83,89.9,83,90,83c0.1,0,0.2,0.1,0.3,0.3s0.2,0.3,0.2,0.4c0,0.1-0.1,0.2-0.3,0.4
		s-0.5,0.2-0.9,0.3c-0.4,0.1-0.7,0.1-1.2,0.1C87,84.5,86.2,84.2,85.7,83.6z M89.5,80.5c0-1.4-0.5-2.1-1.6-2.1
		c-1.1,0-1.7,0.7-1.8,2.1H89.5z"/>
	<path class="st12" d="M93.4,84.2L91.3,78c0-0.1,0-0.1,0-0.2c0-0.1,0.2-0.2,0.6-0.2h0.1c0.3,0,0.5,0.1,0.5,0.2l1.3,4.1
		c0.1,0.3,0.2,0.8,0.5,1.6h0.1l0.1-0.4c0.1-0.5,0.2-0.9,0.3-1.2l1.3-4.2c0-0.1,0.2-0.2,0.5-0.2h0c0.3,0,0.5,0.1,0.5,0.2
		c0,0,0,0.1,0,0.2l-2.1,6.2c0,0.1-0.2,0.2-0.5,0.2H94C93.7,84.4,93.5,84.4,93.4,84.2z"/>
</g>
<g>
</g>
<g>
</g>
<g>
</g>
<g>
</g>
<g>
</g>
<g>
</g>
</svg>
