<?xml version="1.0" encoding="utf-8"?>
<!-- Generator: Adobe Illustrator 23.1.1, SVG Export Plug-In . SVG Version: 6.00 Build 0)  -->
<svg version="1.1" id="Layer_1" xmlns="http://www.w3.org/2000/svg" xmlns:xlink="http://www.w3.org/1999/xlink" x="0px" y="0px"
	 viewBox="0 0 650 320" style="enable-background:new 0 0 650 320;" xml:space="preserve">
<style type="text/css">
	.st0{fill:#FFFFFF;stroke:#275835;stroke-width:1.1178;stroke-miterlimit:10;}
	.st1{fill:none;stroke:#666666;stroke-width:0.9921;stroke-miterlimit:10;}
	.st2{fill:#161616;}
	.st3{fill:#CB3C51;}
	.st4{clip-path:url(#SVGID_3_);}
	.st5{clip-path:url(#SVGID_4_);fill:#CB3C51;}
	.st6{clip-path:url(#SVGID_7_);}
	.st7{clip-path:url(#SVGID_8_);fill:#FFFFFF;}
	.st8{clip-path:url(#SVGID_11_);}
	.st9{clip-path:url(#SVGID_12_);fill:#FFFFFF;}
	.st10{fill:#656565;}
	.st11{fill:#FFFFFF;stroke:#CB3C51;stroke-width:1.1339;stroke-miterlimit:10;}
</style>
<path class="st0" d="M303.4,83.9H23c-1.7,0-3.2-1.4-3.2-3.2V62.7c0-1.7,1.4-3.2,3.2-3.2h280.4c1.7,0,3.2,1.4,3.2,3.2v18.1
	C306.6,82.5,305.2,83.9,303.4,83.9z"/>
<line class="st1" x1="0.6" y1="320" x2="0.6" y2="0"/>
<g>
</g>
<path class="st2" d="M20.9,126.9h3.6c0.1,0,0.2,0,0.2-0.1c0-0.1,0.1-0.2,0.1-0.4v-0.3c0-0.2,0-0.3-0.1-0.4c0-0.1-0.1-0.1-0.2-0.1
	h-2.4v-1.7h2.2c0.1,0,0.2,0,0.2-0.1c0-0.1,0.1-0.2,0.1-0.4v-0.3c0-0.2,0-0.3-0.1-0.4c0-0.1-0.1-0.1-0.2-0.1h-2.2v-1.5h2.4
	c0.1,0,0.2,0,0.2-0.1c0-0.1,0.1-0.2,0.1-0.4v-0.3c0-0.2,0-0.3-0.1-0.4c0-0.1-0.1-0.1-0.2-0.1h-3.6c-0.1,0-0.2,0-0.3,0.1
	c-0.1,0.1-0.1,0.2-0.1,0.3v6.3c0,0.1,0,0.2,0.1,0.3C20.7,126.9,20.8,126.9,20.9,126.9L20.9,126.9L20.9,126.9z M25.9,124.7H28
	c0.1,0,0.2,0,0.2-0.1c0-0.1,0.1-0.2,0.1-0.4v-0.1c0-0.2,0-0.3-0.1-0.4c0-0.1-0.1-0.1-0.2-0.1h-2.1c-0.1,0-0.2,0-0.2,0.1
	c0,0.1-0.1,0.2-0.1,0.4v0.1c0,0.2,0,0.3,0.1,0.4C25.7,124.7,25.8,124.7,25.9,124.7L25.9,124.7L25.9,124.7z M35.1,121.5
	c-0.3,0-0.6,0.1-0.9,0.2c-0.3,0.2-0.5,0.3-0.7,0.6c-0.1-0.3-0.3-0.5-0.5-0.6c-0.2-0.1-0.5-0.2-0.9-0.2c-0.3,0-0.6,0.1-0.9,0.2
	c-0.3,0.2-0.5,0.3-0.7,0.6c0,0,0-0.1,0-0.2c0-0.1-0.1-0.2-0.1-0.3c0-0.1-0.1-0.1-0.3-0.1c-0.2,0-0.5,0-0.7,0.1
	c-0.3,0.1-0.4,0.1-0.4,0.2c0,0,0,0.1,0,0.2c0,0.2,0,0.4,0.1,0.5c0,0.2,0,0.4,0,0.7v3.2c0,0.2,0.2,0.3,0.6,0.3h0.3
	c0.4,0,0.6-0.1,0.6-0.3v-3.3c0.1-0.2,0.2-0.3,0.3-0.4c0.1-0.1,0.3-0.2,0.5-0.2c0.2,0,0.4,0.1,0.5,0.2c0.1,0.1,0.1,0.3,0.1,0.5v3.2
	c0,0.2,0.2,0.3,0.6,0.3h0.3c0.4,0,0.6-0.1,0.6-0.3v-3.3c0.2-0.4,0.5-0.6,0.8-0.6c0.2,0,0.4,0.1,0.5,0.2c0.1,0.1,0.1,0.3,0.1,0.5v3.2
	c0,0.2,0.2,0.3,0.6,0.3H36c0.4,0,0.6-0.1,0.6-0.3v-3.5c0-0.6-0.1-1-0.4-1.3C36,121.6,35.6,121.5,35.1,121.5L35.1,121.5L35.1,121.5z
	 M39.2,127c0.3,0,0.5-0.1,0.7-0.2c0.2-0.1,0.4-0.2,0.5-0.3c0.1-0.1,0.2-0.2,0.2-0.3c0,0,0,0.1,0,0.2c0,0.1,0.1,0.2,0.1,0.3
	c0,0.1,0.1,0.1,0.3,0.1c0.2,0,0.5,0,0.7-0.1c0.3-0.1,0.4-0.1,0.4-0.2c0-0.1,0-0.1,0-0.2c0-0.2,0-0.4-0.1-0.5c0-0.2,0-0.4,0-0.7v-1.9
	c0-0.5-0.2-1-0.5-1.3c-0.3-0.3-0.9-0.5-1.7-0.5c-0.4,0-0.7,0-1,0.1c-0.3,0.1-0.5,0.2-0.7,0.3c-0.2,0.1-0.3,0.2-0.3,0.3
	c0,0.1,0,0.2,0.1,0.3c0.1,0.1,0.1,0.3,0.2,0.4c0.1,0.1,0.2,0.2,0.2,0.2c0,0,0.1,0,0.2-0.1c0.1-0.1,0.3-0.1,0.5-0.2
	c0.2,0,0.4-0.1,0.6-0.1c0.3,0,0.5,0,0.6,0.1c0.1,0.1,0.2,0.2,0.2,0.4v0.3c-1.2,0-1.9,0.2-2.3,0.5c-0.4,0.4-0.6,0.8-0.6,1.4
	c0,0.5,0.1,0.8,0.4,1.1C38.3,126.9,38.7,127,39.2,127L39.2,127L39.2,127z M39.7,125.8c-0.2,0-0.3,0-0.4-0.1
	c-0.1-0.1-0.1-0.2-0.1-0.3c0-0.5,0.5-0.8,1.4-0.8v0.6c-0.1,0.2-0.2,0.3-0.4,0.5C40.1,125.7,39.9,125.8,39.7,125.8L39.7,125.8
	L39.7,125.8z M44.2,120.9c0.5,0,0.8-0.1,0.8-0.4v-0.7c0-0.3-0.3-0.4-0.8-0.4c-0.5,0-0.8,0.1-0.8,0.4v0.7
	C43.5,120.8,43.7,120.9,44.2,120.9L44.2,120.9L44.2,120.9z M44.1,126.9h0.3c0.4,0,0.6-0.1,0.6-0.3v-4.7c0-0.2-0.2-0.3-0.6-0.3h-0.3
	c-0.4,0-0.6,0.1-0.6,0.3v4.7C43.5,126.8,43.7,126.9,44.1,126.9L44.1,126.9L44.1,126.9z M47.7,127c0.7,0,1-0.2,1-0.5c0,0,0-0.1,0-0.2
	c0-0.1-0.1-0.2-0.1-0.3c0-0.1-0.1-0.2-0.2-0.2c0,0-0.1,0-0.1,0c-0.1,0-0.1,0-0.1,0c-0.1,0-0.2,0-0.3-0.1c-0.1-0.1-0.1-0.2-0.1-0.3
	v-5.8c0-0.2-0.2-0.3-0.6-0.3h-0.3c-0.4,0-0.6,0.1-0.6,0.3v5.8C46.2,126.4,46.7,127,47.7,127L47.7,127L47.7,127z M50.6,127
	c0.3,0,0.5-0.1,0.7-0.2c0.2-0.1,0.4-0.2,0.5-0.3c0.1-0.1,0.2-0.2,0.2-0.3c0,0,0,0.1,0,0.2c0,0.1,0.1,0.2,0.1,0.3
	c0,0.1,0.1,0.1,0.3,0.1c0.2,0,0.5,0,0.7-0.1c0.3-0.1,0.4-0.1,0.4-0.2c0-0.1,0-0.1,0-0.2c0-0.2,0-0.4-0.1-0.5c0-0.2,0-0.4,0-0.7v-1.9
	c0-0.5-0.2-1-0.5-1.3c-0.3-0.3-0.9-0.5-1.7-0.5c-0.4,0-0.7,0-1,0.1c-0.3,0.1-0.5,0.2-0.7,0.3c-0.2,0.1-0.3,0.2-0.3,0.3
	c0,0.1,0,0.2,0.1,0.3s0.1,0.3,0.2,0.4c0.1,0.1,0.2,0.2,0.2,0.2c0,0,0.1,0,0.2-0.1c0.1-0.1,0.3-0.1,0.5-0.2c0.2,0,0.4-0.1,0.6-0.1
	c0.3,0,0.5,0,0.6,0.1c0.1,0.1,0.2,0.2,0.2,0.4v0.3c-1.2,0-1.9,0.2-2.3,0.5c-0.4,0.4-0.6,0.8-0.6,1.4c0,0.5,0.1,0.8,0.4,1.1
	C49.7,126.9,50.1,127,50.6,127L50.6,127L50.6,127z M51.1,125.8c-0.2,0-0.3,0-0.4-0.1c-0.1-0.1-0.1-0.2-0.1-0.3
	c0-0.5,0.5-0.8,1.4-0.8v0.6c-0.1,0.2-0.2,0.3-0.4,0.5C51.5,125.7,51.3,125.8,51.1,125.8L51.1,125.8L51.1,125.8z M56.6,127
	c0.3,0,0.6-0.1,0.8-0.2c0.2-0.1,0.4-0.3,0.5-0.6c0,0,0,0.1,0,0.2c0,0.1,0.1,0.2,0.1,0.3c0,0.1,0.1,0.1,0.3,0.1c0.2,0,0.5,0,0.7-0.1
	c0.3-0.1,0.4-0.1,0.4-0.2c0-0.1,0-0.1,0-0.2c0-0.2,0-0.4-0.1-0.5c0-0.2,0-0.4,0-0.7v-5.6c0-0.2-0.2-0.3-0.6-0.3h-0.3
	c-0.4,0-0.6,0.1-0.6,0.3v2.3c-0.3-0.2-0.6-0.3-1-0.3c-0.7,0-1.2,0.2-1.6,0.7c-0.4,0.5-0.6,1.2-0.6,2c0,0.6,0.1,1.1,0.2,1.5
	c0.2,0.4,0.4,0.7,0.7,0.9C55.9,126.9,56.2,127,56.6,127L56.6,127L56.6,127z M57,125.8c-0.6,0-0.8-0.5-0.8-1.5c0-1,0.3-1.6,1-1.6
	c0.2,0,0.5,0.1,0.7,0.2v2.3C57.6,125.6,57.3,125.8,57,125.8L57,125.8L57,125.8z M61.3,126.9h0.3c0.4,0,0.6-0.1,0.6-0.3v-3.3
	c0.1-0.1,0.2-0.2,0.3-0.4c0.1-0.1,0.3-0.2,0.5-0.2c0.1,0,0.2,0,0.3,0c0.1,0,0.2,0,0.2,0c0.1,0,0.2-0.1,0.2-0.3
	c0.1-0.2,0.1-0.4,0.1-0.5c0-0.1,0-0.3-0.1-0.4c-0.1-0.1-0.2-0.2-0.5-0.2c-0.3,0-0.5,0.1-0.7,0.2c-0.2,0.1-0.3,0.3-0.5,0.6
	c0,0,0-0.1,0-0.2c0-0.1-0.1-0.2-0.1-0.3c0-0.1-0.1-0.1-0.3-0.1c-0.2,0-0.5,0-0.7,0.1s-0.4,0.1-0.4,0.2c0,0,0,0.1,0,0.2
	c0,0.2,0,0.4,0.1,0.5c0,0.2,0,0.4,0,0.7v3.2C60.6,126.8,60.8,126.9,61.3,126.9L61.3,126.9L61.3,126.9z M66.9,127
	c0.2,0,0.5,0,0.8-0.1c0.3-0.1,0.5-0.1,0.8-0.3c0.2-0.1,0.3-0.2,0.3-0.4c0-0.1,0-0.2-0.1-0.3c-0.1-0.1-0.1-0.2-0.2-0.3
	c-0.1-0.1-0.2-0.1-0.2-0.1c0,0-0.1,0-0.2,0.1c-0.2,0.1-0.3,0.1-0.5,0.2c-0.2,0-0.3,0.1-0.5,0.1c-0.4,0-0.6-0.1-0.8-0.2
	c-0.2-0.2-0.3-0.4-0.3-0.8h2.6c0.1,0,0.2-0.1,0.3-0.2c0.1-0.2,0.2-0.3,0.2-0.4c0-0.8-0.2-1.4-0.5-1.9s-0.9-0.7-1.7-0.7
	c-0.8,0-1.4,0.2-1.8,0.7c-0.4,0.5-0.7,1.2-0.7,2.1c0,0.9,0.2,1.5,0.7,2C65.3,126.8,66,127,66.9,127L66.9,127L66.9,127z M65.7,123.7
	c0.1-0.7,0.4-1,0.9-1c0.2,0,0.4,0.1,0.6,0.3c0.1,0.2,0.2,0.4,0.2,0.8H65.7L65.7,123.7z M71.3,127c0.6,0,1.1-0.2,1.5-0.5
	c0.4-0.3,0.5-0.7,0.5-1.3c0-0.4-0.1-0.7-0.2-0.9c-0.2-0.2-0.4-0.4-0.7-0.5c-0.1,0-0.1-0.1-0.2-0.1c-0.1,0-0.2-0.1-0.2-0.1
	c-0.3-0.1-0.4-0.2-0.6-0.3c-0.1-0.1-0.2-0.2-0.2-0.3c0-0.2,0.2-0.4,0.5-0.4c0.2,0,0.4,0,0.6,0.1c0.2,0.1,0.3,0.1,0.3,0.1
	c0.1,0,0.2-0.1,0.3-0.3c0.1-0.2,0.2-0.4,0.2-0.5c0-0.2-0.2-0.3-0.5-0.4c-0.3-0.1-0.7-0.2-1-0.2c-0.6,0-1,0.1-1.4,0.4
	c-0.3,0.3-0.5,0.7-0.5,1.2c0,0.5,0.1,0.8,0.3,1c0.2,0.2,0.5,0.4,0.8,0.5c0.3,0.1,0.4,0.2,0.5,0.2c0.1,0,0.2,0.1,0.2,0.2
	c0.1,0.1,0.1,0.2,0.1,0.3c0,0.1-0.1,0.2-0.2,0.3c-0.1,0.1-0.2,0.1-0.4,0.1c-0.2,0-0.3,0-0.4-0.1c-0.1,0-0.3-0.1-0.4-0.1
	c-0.1-0.1-0.2-0.1-0.2-0.1c-0.1,0-0.2,0.1-0.3,0.3c-0.1,0.2-0.2,0.4-0.2,0.5c0,0.2,0.2,0.4,0.5,0.5C70.5,126.9,70.9,127,71.3,127
	L71.3,127L71.3,127z"/>
<path class="st2" d="M20.9,50.1h3.6c0.1,0,0.2,0,0.2-0.1c0-0.1,0.1-0.2,0.1-0.4v-0.3c0-0.2,0-0.3-0.1-0.4c0-0.1-0.1-0.1-0.2-0.1
	h-2.4v-1.7h2.2c0.1,0,0.2,0,0.2-0.1c0-0.1,0.1-0.2,0.1-0.4v-0.3c0-0.2,0-0.3-0.1-0.4c0-0.1-0.1-0.1-0.2-0.1h-2.2v-1.5h2.4
	c0.1,0,0.2,0,0.2-0.1c0-0.1,0.1-0.2,0.1-0.4v-0.3c0-0.2,0-0.3-0.1-0.4c0-0.1-0.1-0.1-0.2-0.1h-3.6c-0.1,0-0.2,0-0.3,0.1
	c-0.1,0.1-0.1,0.2-0.1,0.3v6.3c0,0.1,0,0.2,0.1,0.3C20.7,50.1,20.8,50.1,20.9,50.1L20.9,50.1L20.9,50.1z M25.9,48H28
	c0.1,0,0.2,0,0.2-0.1c0-0.1,0.1-0.2,0.1-0.4v-0.1c0-0.2,0-0.3-0.1-0.4c0-0.1-0.1-0.1-0.2-0.1h-2.1c-0.1,0-0.2,0-0.2,0.1
	c0,0.1-0.1,0.2-0.1,0.4v0.1c0,0.2,0,0.3,0.1,0.4C25.7,47.9,25.8,48,25.9,48L25.9,48L25.9,48z M35.1,44.7c-0.3,0-0.6,0.1-0.9,0.2
	c-0.3,0.2-0.5,0.3-0.7,0.6c-0.1-0.3-0.3-0.5-0.5-0.6c-0.2-0.1-0.5-0.2-0.9-0.2c-0.3,0-0.6,0.1-0.9,0.2c-0.3,0.2-0.5,0.3-0.7,0.6
	c0,0,0-0.1,0-0.2c0-0.1-0.1-0.2-0.1-0.3c0-0.1-0.1-0.1-0.3-0.1c-0.2,0-0.5,0-0.7,0.1c-0.3,0.1-0.4,0.1-0.4,0.2c0,0,0,0.1,0,0.2
	c0,0.2,0,0.4,0.1,0.5c0,0.2,0,0.4,0,0.7v3.2c0,0.2,0.2,0.3,0.6,0.3h0.3c0.4,0,0.6-0.1,0.6-0.3v-3.3c0.1-0.2,0.2-0.3,0.3-0.4
	c0.1-0.1,0.3-0.2,0.5-0.2c0.2,0,0.4,0.1,0.5,0.2c0.1,0.1,0.1,0.3,0.1,0.5v3.2c0,0.2,0.2,0.3,0.6,0.3h0.3c0.4,0,0.6-0.1,0.6-0.3v-3.3
	c0.2-0.4,0.5-0.6,0.8-0.6c0.2,0,0.4,0.1,0.5,0.2c0.1,0.1,0.1,0.3,0.1,0.5v3.2c0,0.2,0.2,0.3,0.6,0.3H36c0.4,0,0.6-0.1,0.6-0.3v-3.5
	c0-0.6-0.1-1-0.4-1.3C36,44.8,35.6,44.7,35.1,44.7L35.1,44.7L35.1,44.7z M39.2,50.2c0.3,0,0.5-0.1,0.7-0.2c0.2-0.1,0.4-0.2,0.5-0.3
	c0.1-0.1,0.2-0.2,0.2-0.3c0,0,0,0.1,0,0.2c0,0.1,0.1,0.2,0.1,0.3c0,0.1,0.1,0.1,0.3,0.1c0.2,0,0.5,0,0.7-0.1
	c0.3-0.1,0.4-0.1,0.4-0.2c0-0.1,0-0.1,0-0.2c0-0.2,0-0.4-0.1-0.5c0-0.2,0-0.4,0-0.7v-1.9c0-0.5-0.2-1-0.5-1.3
	c-0.3-0.3-0.9-0.5-1.7-0.5c-0.4,0-0.7,0-1,0.1c-0.3,0.1-0.5,0.2-0.7,0.3c-0.2,0.1-0.3,0.2-0.3,0.3c0,0.1,0,0.2,0.1,0.3
	c0.1,0.1,0.1,0.3,0.2,0.4c0.1,0.1,0.2,0.2,0.2,0.2c0,0,0.1,0,0.2-0.1c0.1-0.1,0.3-0.1,0.5-0.2c0.2,0,0.4-0.1,0.6-0.1
	c0.3,0,0.5,0,0.6,0.1c0.1,0.1,0.2,0.2,0.2,0.4v0.3c-1.2,0-1.9,0.2-2.3,0.5c-0.4,0.4-0.6,0.8-0.6,1.4c0,0.5,0.1,0.8,0.4,1.1
	C38.3,50.1,38.7,50.2,39.2,50.2L39.2,50.2L39.2,50.2z M39.7,49c-0.2,0-0.3,0-0.4-0.1c-0.1-0.1-0.1-0.2-0.1-0.3
	c0-0.5,0.5-0.8,1.4-0.8v0.6c-0.1,0.2-0.2,0.3-0.4,0.5C40.1,49,39.9,49,39.7,49L39.7,49L39.7,49z M44.2,44.1c0.5,0,0.8-0.1,0.8-0.4
	V43c0-0.3-0.3-0.4-0.8-0.4c-0.5,0-0.8,0.1-0.8,0.4v0.7C43.5,44,43.7,44.1,44.2,44.1L44.2,44.1L44.2,44.1z M44.1,50.2h0.3
	c0.4,0,0.6-0.1,0.6-0.3v-4.7c0-0.2-0.2-0.3-0.6-0.3h-0.3c-0.4,0-0.6,0.1-0.6,0.3v4.7C43.5,50.1,43.7,50.2,44.1,50.2L44.1,50.2
	L44.1,50.2z M47.7,50.2c0.7,0,1-0.2,1-0.5c0,0,0-0.1,0-0.2c0-0.1-0.1-0.2-0.1-0.3c0-0.1-0.1-0.2-0.2-0.2c0,0-0.1,0-0.1,0
	c-0.1,0-0.1,0-0.1,0c-0.1,0-0.2,0-0.3-0.1c-0.1-0.1-0.1-0.2-0.1-0.3v-5.8c0-0.2-0.2-0.3-0.6-0.3h-0.3c-0.4,0-0.6,0.1-0.6,0.3v5.8
	C46.2,49.7,46.7,50.2,47.7,50.2L47.7,50.2L47.7,50.2z M50.6,50.2c0.3,0,0.5-0.1,0.7-0.2c0.2-0.1,0.4-0.2,0.5-0.3
	c0.1-0.1,0.2-0.2,0.2-0.3c0,0,0,0.1,0,0.2c0,0.1,0.1,0.2,0.1,0.3c0,0.1,0.1,0.1,0.3,0.1c0.2,0,0.5,0,0.7-0.1
	c0.3-0.1,0.4-0.1,0.4-0.2c0-0.1,0-0.1,0-0.2c0-0.2,0-0.4-0.1-0.5c0-0.2,0-0.4,0-0.7v-1.9c0-0.5-0.2-1-0.5-1.3
	c-0.3-0.3-0.9-0.5-1.7-0.5c-0.4,0-0.7,0-1,0.1c-0.3,0.1-0.5,0.2-0.7,0.3c-0.2,0.1-0.3,0.2-0.3,0.3c0,0.1,0,0.2,0.1,0.3
	s0.1,0.3,0.2,0.4c0.1,0.1,0.2,0.2,0.2,0.2c0,0,0.1,0,0.2-0.1c0.1-0.1,0.3-0.1,0.5-0.2c0.2,0,0.4-0.1,0.6-0.1c0.3,0,0.5,0,0.6,0.1
	c0.1,0.1,0.2,0.2,0.2,0.4v0.3c-1.2,0-1.9,0.2-2.3,0.5c-0.4,0.4-0.6,0.8-0.6,1.4c0,0.5,0.1,0.8,0.4,1.1
	C49.7,50.1,50.1,50.2,50.6,50.2L50.6,50.2L50.6,50.2z M51.1,49c-0.2,0-0.3,0-0.4-0.1c-0.1-0.1-0.1-0.2-0.1-0.3
	c0-0.5,0.5-0.8,1.4-0.8v0.6c-0.1,0.2-0.2,0.3-0.4,0.5C51.5,49,51.3,49,51.1,49L51.1,49L51.1,49z M56.6,50.2c0.3,0,0.6-0.1,0.8-0.2
	c0.2-0.1,0.4-0.3,0.5-0.6c0,0,0,0.1,0,0.2c0,0.1,0.1,0.2,0.1,0.3c0,0.1,0.1,0.1,0.3,0.1c0.2,0,0.5,0,0.7-0.1
	c0.3-0.1,0.4-0.1,0.4-0.2c0-0.1,0-0.1,0-0.2c0-0.2,0-0.4-0.1-0.5c0-0.2,0-0.4,0-0.7v-5.6c0-0.2-0.2-0.3-0.6-0.3h-0.3
	c-0.4,0-0.6,0.1-0.6,0.3V45c-0.3-0.2-0.6-0.3-1-0.3c-0.7,0-1.2,0.2-1.6,0.7c-0.4,0.5-0.6,1.2-0.6,2c0,0.6,0.1,1.1,0.2,1.5
	c0.2,0.4,0.4,0.7,0.7,0.9C55.9,50.1,56.2,50.2,56.6,50.2L56.6,50.2L56.6,50.2z M57,49c-0.6,0-0.8-0.5-0.8-1.5c0-1,0.3-1.6,1-1.6
	c0.2,0,0.5,0.1,0.7,0.2v2.3C57.6,48.8,57.3,49,57,49L57,49L57,49z M61.3,50.2h0.3c0.4,0,0.6-0.1,0.6-0.3v-3.3
	c0.1-0.1,0.2-0.2,0.3-0.4c0.1-0.1,0.3-0.2,0.5-0.2c0.1,0,0.2,0,0.3,0c0.1,0,0.2,0,0.2,0c0.1,0,0.2-0.1,0.2-0.3
	c0.1-0.2,0.1-0.4,0.1-0.5c0-0.1,0-0.3-0.1-0.4c-0.1-0.1-0.2-0.2-0.5-0.2c-0.3,0-0.5,0.1-0.7,0.2c-0.2,0.1-0.3,0.3-0.5,0.6
	c0,0,0-0.1,0-0.2c0-0.1-0.1-0.2-0.1-0.3c0-0.1-0.1-0.1-0.3-0.1c-0.2,0-0.5,0-0.7,0.1s-0.4,0.1-0.4,0.2c0,0,0,0.1,0,0.2
	c0,0.2,0,0.4,0.1,0.5c0,0.2,0,0.4,0,0.7v3.2C60.6,50.1,60.8,50.2,61.3,50.2L61.3,50.2L61.3,50.2z M66.9,50.2c0.2,0,0.5,0,0.8-0.1
	c0.3-0.1,0.5-0.1,0.8-0.3c0.2-0.1,0.3-0.2,0.3-0.4c0-0.1,0-0.2-0.1-0.3c-0.1-0.1-0.1-0.2-0.2-0.3c-0.1-0.1-0.2-0.1-0.2-0.1
	c0,0-0.1,0-0.2,0.1c-0.2,0.1-0.3,0.1-0.5,0.2c-0.2,0-0.3,0.1-0.5,0.1c-0.4,0-0.6-0.1-0.8-0.2c-0.2-0.2-0.3-0.4-0.3-0.8h2.6
	c0.1,0,0.2-0.1,0.3-0.2c0.1-0.2,0.2-0.3,0.2-0.4c0-0.8-0.2-1.4-0.5-1.9s-0.9-0.7-1.7-0.7c-0.8,0-1.4,0.2-1.8,0.7
	c-0.4,0.5-0.7,1.2-0.7,2.1c0,0.9,0.2,1.5,0.7,2S66,50.2,66.9,50.2L66.9,50.2L66.9,50.2z M65.7,46.9c0.1-0.7,0.4-1,0.9-1
	c0.2,0,0.4,0.1,0.6,0.3c0.1,0.2,0.2,0.4,0.2,0.8H65.7L65.7,46.9z M71.3,50.2c0.6,0,1.1-0.2,1.5-0.5c0.4-0.3,0.5-0.7,0.5-1.3
	c0-0.4-0.1-0.7-0.2-0.9c-0.2-0.2-0.4-0.4-0.7-0.5c-0.1,0-0.1-0.1-0.2-0.1c-0.1,0-0.2-0.1-0.2-0.1c-0.3-0.1-0.4-0.2-0.6-0.3
	c-0.1-0.1-0.2-0.2-0.2-0.3c0-0.2,0.2-0.4,0.5-0.4c0.2,0,0.4,0,0.6,0.1c0.2,0.1,0.3,0.1,0.3,0.1c0.1,0,0.2-0.1,0.3-0.3
	c0.1-0.2,0.2-0.4,0.2-0.5c0-0.2-0.2-0.3-0.5-0.4c-0.3-0.1-0.7-0.2-1-0.2c-0.6,0-1,0.1-1.4,0.4c-0.3,0.3-0.5,0.7-0.5,1.2
	c0,0.5,0.1,0.8,0.3,1c0.2,0.2,0.5,0.4,0.8,0.5c0.3,0.1,0.4,0.2,0.5,0.2c0.1,0,0.2,0.1,0.2,0.2c0.1,0.1,0.1,0.2,0.1,0.3
	c0,0.1-0.1,0.2-0.2,0.3C71.5,49,71.4,49,71.2,49c-0.2,0-0.3,0-0.4-0.1c-0.1,0-0.3-0.1-0.4-0.1c-0.1-0.1-0.2-0.1-0.2-0.1
	c-0.1,0-0.2,0.1-0.3,0.3c-0.1,0.2-0.2,0.4-0.2,0.5c0,0.2,0.2,0.4,0.5,0.5C70.5,50.2,70.9,50.2,71.3,50.2L71.3,50.2L71.3,50.2z"/>
<path class="st3" d="M41.5,178.1h2.1c1,0,1.7-0.3,2.3-0.8c0.6-0.6,0.9-1.5,0.9-2.7c0-1.2-0.3-2.2-0.9-2.7c-0.6-0.6-1.3-0.9-2.3-0.9
	h-2.1c-0.1,0-0.2,0-0.2,0.1c0,0-0.1,0.1-0.1,0.2v6.6c0,0.1,0,0.2,0.1,0.2C41.3,178.1,41.4,178.1,41.5,178.1L41.5,178.1L41.5,178.1z
	 M42.1,177.3v-5.6h1.4c0.7,0,1.2,0.2,1.7,0.7c0.4,0.5,0.6,1.2,0.6,2.1c0,1-0.2,1.7-0.6,2.1c-0.4,0.5-1,0.7-1.7,0.7H42.1L42.1,177.3z
	 M48.7,171.8c0.3,0,0.5-0.1,0.5-0.2V171c0-0.2-0.2-0.2-0.5-0.2c-0.3,0-0.5,0.1-0.5,0.2v0.6C48.2,171.7,48.4,171.8,48.7,171.8
	L48.7,171.8L48.7,171.8z M48.7,178.1L48.7,178.1c0.3,0,0.5-0.1,0.5-0.2V173c0-0.1-0.1-0.2-0.4-0.2h0c-0.3,0-0.4,0.1-0.4,0.2v4.9
	C48.3,178.1,48.4,178.1,48.7,178.1L48.7,178.1L48.7,178.1z M52.5,178.2c0.5,0,0.7-0.1,0.7-0.3c0-0.1,0-0.2-0.1-0.3
	c0-0.1-0.1-0.2-0.2-0.2c0,0-0.1,0-0.1,0c-0.1,0-0.2,0-0.3,0c-0.2,0-0.3-0.1-0.4-0.2c-0.1-0.1-0.1-0.3-0.1-0.6v-3.2h0.9
	c0.1,0,0.1,0,0.2-0.1c0,0,0-0.1,0-0.2v-0.1c0-0.1,0-0.2,0-0.2c0,0-0.1-0.1-0.2-0.1H52v-1.1c0-0.1-0.1-0.2-0.3-0.2h-0.1
	c-0.2,0-0.3,0.1-0.3,0.2l-0.1,1.1h-0.5c-0.1,0-0.1,0-0.2,0.1c0,0-0.1,0.1-0.1,0.2v0.1c0,0.1,0,0.2,0.1,0.2c0,0,0.1,0.1,0.2,0.1h0.5
	v3.3c0,0.5,0.1,0.9,0.4,1.1C51.8,178.1,52.1,178.2,52.5,178.2L52.5,178.2L52.5,178.2z M57.4,171.8c0.3,0,0.5-0.1,0.5-0.2V171
	c0-0.2-0.2-0.2-0.5-0.2c-0.3,0-0.5,0.1-0.5,0.2v0.6C56.9,171.7,57.1,171.8,57.4,171.8L57.4,171.8L57.4,171.8z M57.4,178.1
	L57.4,178.1c0.3,0,0.5-0.1,0.5-0.2V173c0-0.1-0.1-0.2-0.4-0.2h0c-0.3,0-0.4,0.1-0.4,0.2v4.9C57,178.1,57.1,178.1,57.4,178.1
	L57.4,178.1L57.4,178.1z M60.7,178.2c0.3,0,0.6-0.1,0.9-0.2s0.5-0.3,0.7-0.6c0.2-0.2,0.2-0.5,0.2-0.8c0-0.3,0-0.6-0.1-0.8
	c-0.1-0.2-0.3-0.4-0.5-0.5c-0.2-0.1-0.6-0.3-1-0.4c-0.3-0.1-0.5-0.2-0.6-0.3c-0.1-0.1-0.2-0.3-0.2-0.6c0-0.2,0.1-0.4,0.3-0.5
	c0.2-0.1,0.4-0.2,0.7-0.2c0.3,0,0.5,0,0.7,0.1c0.2,0.1,0.3,0.1,0.3,0.1c0.1,0,0.1-0.1,0.2-0.2c0.1-0.1,0.1-0.3,0.1-0.3
	c0-0.1-0.1-0.2-0.4-0.3c-0.3-0.1-0.6-0.1-0.9-0.1c-0.3,0-0.6,0.1-0.9,0.2c-0.3,0.1-0.5,0.3-0.6,0.5c-0.1,0.2-0.2,0.5-0.2,0.8
	c0,0.4,0.1,0.7,0.3,0.9c0.2,0.2,0.6,0.4,1.1,0.6c0.4,0.1,0.6,0.2,0.8,0.4c0.2,0.1,0.2,0.3,0.2,0.6c0,0.6-0.3,0.8-1,0.8
	c-0.2,0-0.4,0-0.6-0.1c-0.2-0.1-0.3-0.1-0.4-0.2c-0.1-0.1-0.2-0.1-0.2-0.1c-0.1,0-0.1,0.1-0.2,0.2c-0.1,0.1-0.1,0.2-0.1,0.3
	c0,0.1,0.1,0.2,0.2,0.3c0.1,0.1,0.3,0.2,0.6,0.3C60.2,178.2,60.4,178.2,60.7,178.2L60.7,178.2L60.7,178.2z M68.5,178.2
	c0.3,0,0.6,0,0.9-0.1c0.3-0.1,0.5-0.2,0.7-0.3c0.2-0.1,0.3-0.2,0.3-0.3c0-0.1,0-0.2-0.1-0.3c-0.1-0.1-0.2-0.2-0.2-0.2
	c0,0-0.1,0-0.2,0.1c-0.1,0.1-0.3,0.1-0.5,0.2c-0.2,0.1-0.5,0.1-0.7,0.1c-0.5,0-0.9-0.1-1.1-0.4c-0.3-0.3-0.4-0.7-0.4-1.2h3.2
	c0.1,0,0.1-0.1,0.2-0.2c0.1-0.1,0.1-0.2,0.1-0.3c0-0.9-0.2-1.5-0.5-2c-0.4-0.5-0.9-0.7-1.6-0.7c-0.8,0-1.4,0.2-1.8,0.7
	c-0.4,0.5-0.6,1.2-0.6,2.1c0,0.9,0.2,1.6,0.6,2C67,177.9,67.6,178.2,68.5,178.2L68.5,178.2L68.5,178.2z M66.9,175
	c0.1-1.1,0.6-1.6,1.4-1.6c0.8,0,1.2,0.5,1.2,1.6H66.9L66.9,175z M74,178.2c0.3,0,0.6,0,0.9-0.1c0.3-0.1,0.5-0.2,0.7-0.3
	c0.2-0.1,0.3-0.2,0.3-0.3c0-0.1,0-0.2-0.1-0.3c-0.1-0.1-0.2-0.2-0.2-0.2c0,0-0.1,0-0.2,0.1c-0.1,0.1-0.3,0.1-0.5,0.2
	c-0.2,0.1-0.5,0.1-0.7,0.1c-0.5,0-0.9-0.1-1.1-0.4c-0.3-0.3-0.4-0.7-0.4-1.2h3.2c0.1,0,0.1-0.1,0.2-0.2c0.1-0.1,0.1-0.2,0.1-0.3
	c0-0.9-0.2-1.5-0.5-2c-0.4-0.5-0.9-0.7-1.6-0.7c-0.8,0-1.4,0.2-1.8,0.7c-0.4,0.5-0.6,1.2-0.6,2.1c0,0.9,0.2,1.6,0.6,2
	C72.5,177.9,73.2,178.2,74,178.2L74,178.2L74,178.2z M72.4,175c0.1-1.1,0.6-1.6,1.4-1.6c0.8,0,1.2,0.5,1.2,1.6H72.4L72.4,175z
	 M77.7,178.1L77.7,178.1c0.3,0,0.5-0.1,0.5-0.2v-3.7c0.2-0.2,0.4-0.4,0.6-0.5c0.2-0.1,0.5-0.2,0.7-0.2c0.3,0,0.6,0.1,0.8,0.3
	c0.2,0.2,0.3,0.4,0.3,0.7v3.5c0,0.2,0.1,0.2,0.4,0.2h0c0.3,0,0.4-0.1,0.4-0.2v-3.6c0-0.5-0.1-0.9-0.4-1.2c-0.3-0.3-0.7-0.4-1.2-0.4
	c-0.3,0-0.6,0.1-0.8,0.2c-0.3,0.1-0.5,0.3-0.7,0.6c0,0,0-0.1,0-0.2c0-0.1-0.1-0.2-0.1-0.3c0-0.1-0.1-0.1-0.2-0.1
	c-0.1,0-0.2,0-0.4,0.1c-0.1,0-0.2,0.1-0.2,0.2c0,0,0,0.1,0.1,0.3s0.1,0.5,0.1,1v3.6C77.3,178.1,77.5,178.1,77.7,178.1L77.7,178.1
	L77.7,178.1z M86.9,178.1h0.4c0.2,0,0.4-0.1,0.4-0.2l1.6-4.9c0-0.1,0-0.1,0-0.1c0-0.1-0.1-0.2-0.4-0.2h0c-0.2,0-0.4,0.1-0.4,0.2
	l-1.1,3.3c-0.1,0.2-0.2,0.6-0.2,1l-0.1,0.3h0c-0.2-0.6-0.3-1.1-0.4-1.3l-1-3.3c0-0.1-0.2-0.2-0.4-0.2h-0.1c-0.3,0-0.4,0.1-0.4,0.2
	c0,0,0,0.1,0,0.1l1.6,4.9C86.5,178.1,86.7,178.1,86.9,178.1L86.9,178.1L86.9,178.1z M92.7,178.2c0.3,0,0.6,0,0.9-0.1
	c0.3-0.1,0.5-0.2,0.7-0.3c0.2-0.1,0.3-0.2,0.3-0.3c0-0.1,0-0.2-0.1-0.3c-0.1-0.1-0.2-0.2-0.2-0.2c0,0-0.1,0-0.2,0.1
	c-0.1,0.1-0.3,0.1-0.5,0.2c-0.2,0.1-0.5,0.1-0.7,0.1c-0.5,0-0.9-0.1-1.1-0.4c-0.3-0.3-0.4-0.7-0.4-1.2h3.2c0.1,0,0.1-0.1,0.2-0.2
	c0.1-0.1,0.1-0.2,0.1-0.3c0-0.9-0.2-1.5-0.5-2c-0.4-0.5-0.9-0.7-1.6-0.7c-0.8,0-1.4,0.2-1.8,0.7c-0.4,0.5-0.6,1.2-0.6,2.1
	c0,0.9,0.2,1.6,0.6,2C91.2,177.9,91.8,178.2,92.7,178.2L92.7,178.2L92.7,178.2z M91.1,175c0.1-1.1,0.6-1.6,1.4-1.6
	c0.8,0,1.2,0.5,1.2,1.6H91.1L91.1,175z M96.4,178.1L96.4,178.1c0.3,0,0.5-0.1,0.5-0.2v-3.7c0,0,0-0.1,0.1-0.2
	c0.1-0.1,0.2-0.2,0.4-0.3c0.1-0.1,0.3-0.1,0.4-0.1c0.1,0,0.3,0,0.4,0.1c0.1,0,0.2,0.1,0.2,0.1c0.1,0,0.1-0.1,0.1-0.2
	c0-0.1,0.1-0.2,0.1-0.4c0-0.1-0.1-0.2-0.2-0.3c-0.1-0.1-0.2-0.1-0.4-0.1c-0.4,0-0.8,0.3-1.2,0.8c0,0,0-0.1,0-0.2
	c0-0.1-0.1-0.2-0.1-0.3c0-0.1-0.1-0.1-0.2-0.1c-0.1,0-0.2,0-0.4,0.1c-0.1,0-0.2,0.1-0.2,0.2c0,0,0,0.1,0.1,0.3c0,0.2,0.1,0.5,0.1,1
	v3.6C96,178.1,96.2,178.1,96.4,178.1L96.4,178.1L96.4,178.1z M100.1,180.2L100.1,180.2c0.3,0,0.5-0.1,0.5-0.2v-2.4
	c0.2,0.2,0.4,0.3,0.7,0.4c0.2,0.1,0.5,0.1,0.8,0.1c0.4,0,0.8-0.1,1.1-0.3c0.3-0.2,0.6-0.5,0.7-0.9c0.2-0.4,0.3-0.9,0.3-1.5
	c0-0.5-0.1-1-0.2-1.4c-0.2-0.4-0.4-0.7-0.7-1c-0.3-0.2-0.7-0.4-1.1-0.4c-0.6,0-1.1,0.3-1.6,0.8c0,0,0-0.1,0-0.2
	c0-0.1-0.1-0.2-0.1-0.3c0-0.1-0.1-0.1-0.2-0.1c-0.1,0-0.2,0-0.4,0.1c-0.1,0-0.2,0.1-0.2,0.2c0,0,0,0.1,0.1,0.3c0,0.2,0.1,0.5,0.1,1
	v5.7C99.7,180.2,99.9,180.2,100.1,180.2L100.1,180.2L100.1,180.2z M101.9,177.4c-0.5,0-0.9-0.2-1.3-0.5v-2.8
	c0.2-0.2,0.4-0.4,0.7-0.5c0.2-0.1,0.5-0.2,0.7-0.2c0.4,0,0.7,0.2,0.9,0.5c0.2,0.4,0.3,0.9,0.3,1.5c0,0.6-0.1,1.1-0.3,1.4
	C102.7,177.2,102.3,177.4,101.9,177.4L101.9,177.4L101.9,177.4z M106.9,178.2c0.5,0,0.7-0.1,0.7-0.3c0-0.1,0-0.2-0.1-0.3
	c0-0.1-0.1-0.2-0.2-0.2c0,0-0.1,0-0.1,0c-0.1,0-0.2,0-0.3,0c-0.2,0-0.3-0.1-0.4-0.2c-0.1-0.1-0.1-0.3-0.1-0.6v-6
	c0-0.2-0.1-0.2-0.4-0.2h0c-0.3,0-0.4,0.1-0.4,0.2v6.1c0,0.5,0.1,0.9,0.4,1.1C106.2,178.1,106.5,178.2,106.9,178.2L106.9,178.2
	L106.9,178.2z M109.1,171.8c0.3,0,0.5-0.1,0.5-0.2V171c0-0.2-0.2-0.2-0.5-0.2c-0.3,0-0.5,0.1-0.5,0.2v0.6
	C108.7,171.7,108.8,171.8,109.1,171.8L109.1,171.8L109.1,171.8z M109.1,178.1L109.1,178.1c0.3,0,0.5-0.1,0.5-0.2V173
	c0-0.1-0.1-0.2-0.4-0.2h0c-0.3,0-0.4,0.1-0.4,0.2v4.9C108.7,178.1,108.8,178.1,109.1,178.1L109.1,178.1L109.1,178.1z M113.5,178.2
	c0.3,0,0.6,0,0.8-0.1c0.2-0.1,0.4-0.1,0.6-0.2c0.1-0.1,0.2-0.2,0.2-0.2s0-0.2-0.1-0.3c-0.1-0.1-0.2-0.2-0.2-0.2l-0.1,0
	c-0.4,0.2-0.7,0.3-1.2,0.3c-0.6,0-1-0.2-1.2-0.5c-0.2-0.3-0.4-0.8-0.4-1.6c0-1.3,0.5-2,1.5-2c0.4,0,0.7,0.1,1.1,0.2c0,0,0,0,0.1,0
	c0,0,0,0,0,0c0.1,0,0.1-0.1,0.2-0.2c0.1-0.1,0.1-0.3,0.1-0.3c0-0.1-0.2-0.2-0.5-0.3c-0.3-0.1-0.7-0.1-1.1-0.1
	c-0.7,0-1.3,0.2-1.7,0.6c-0.5,0.4-0.7,1.1-0.7,2.1c0,1,0.2,1.7,0.6,2.1C112,178,112.7,178.2,113.5,178.2L113.5,178.2L113.5,178.2z
	 M116.8,178.1L116.8,178.1c0.3,0,0.5-0.1,0.5-0.2v-3.7c0,0,0.1-0.1,0.2-0.2c0.1-0.1,0.3-0.2,0.5-0.3c0.2-0.1,0.4-0.2,0.6-0.2
	c0.3,0,0.6,0.1,0.8,0.3c0.2,0.2,0.3,0.4,0.3,0.7v3.5c0,0.2,0.1,0.2,0.4,0.2h0c0.3,0,0.4-0.1,0.4-0.2v-3.6c0-0.6-0.2-1.1-0.5-1.3
	c-0.3-0.2-0.7-0.4-1.1-0.4c-0.3,0-0.6,0.1-0.9,0.2c-0.3,0.1-0.5,0.3-0.7,0.5v-2.8c0-0.2-0.1-0.2-0.4-0.2h0c-0.3,0-0.4,0.1-0.4,0.2
	v7.3C116.4,178.1,116.5,178.1,116.8,178.1L116.8,178.1L116.8,178.1z M123.6,178.2c0.5,0,0.7-0.1,0.7-0.3c0-0.1,0-0.2-0.1-0.3
	c0-0.1-0.1-0.2-0.2-0.2c0,0-0.1,0-0.1,0c-0.1,0-0.2,0-0.3,0c-0.2,0-0.3-0.1-0.4-0.2c-0.1-0.1-0.1-0.3-0.1-0.6v-3.2h0.9
	c0.1,0,0.1,0,0.2-0.1c0,0,0-0.1,0-0.2v-0.1c0-0.1,0-0.2,0-0.2c0,0-0.1-0.1-0.2-0.1h-0.9v-1.1c0-0.1-0.1-0.2-0.3-0.2h-0.1
	c-0.2,0-0.3,0.1-0.3,0.2l-0.1,1.1h-0.5c-0.1,0-0.1,0-0.2,0.1c0,0-0.1,0.1-0.1,0.2v0.1c0,0.1,0,0.2,0.1,0.2c0,0,0.1,0.1,0.2,0.1h0.5
	v3.3c0,0.5,0.1,0.9,0.4,1.1C123,178.1,123.3,178.2,123.6,178.2L123.6,178.2L123.6,178.2z M129.5,178.1h0.4c0.2,0,0.4-0.1,0.4-0.2
	l1.6-4.9c0-0.1,0-0.1,0-0.1c0-0.1-0.1-0.2-0.4-0.2h0c-0.2,0-0.4,0.1-0.4,0.2l-1.1,3.3c-0.1,0.2-0.2,0.6-0.2,1l-0.1,0.3h0
	c-0.2-0.6-0.3-1.1-0.4-1.3l-1-3.3c0-0.1-0.2-0.2-0.4-0.2h-0.1c-0.3,0-0.4,0.1-0.4,0.2c0,0,0,0.1,0,0.1l1.6,4.9
	C129.1,178.1,129.3,178.1,129.5,178.1L129.5,178.1L129.5,178.1z M135.2,178.2c0.3,0,0.6,0,0.9-0.1c0.3-0.1,0.5-0.2,0.7-0.3
	c0.2-0.1,0.3-0.2,0.3-0.3c0-0.1,0-0.2-0.1-0.3c-0.1-0.1-0.2-0.2-0.2-0.2c0,0-0.1,0-0.2,0.1c-0.1,0.1-0.3,0.1-0.5,0.2
	c-0.2,0.1-0.5,0.1-0.7,0.1c-0.5,0-0.9-0.1-1.1-0.4c-0.3-0.3-0.4-0.7-0.4-1.2h3.2c0.1,0,0.1-0.1,0.2-0.2c0.1-0.1,0.1-0.2,0.1-0.3
	c0-0.9-0.2-1.5-0.5-2c-0.4-0.5-0.9-0.7-1.6-0.7c-0.8,0-1.4,0.2-1.8,0.7c-0.4,0.5-0.6,1.2-0.6,2.1c0,0.9,0.2,1.6,0.6,2
	C133.7,177.9,134.4,178.2,135.2,178.2L135.2,178.2L135.2,178.2z M133.6,175c0.1-1.1,0.6-1.6,1.4-1.6c0.8,0,1.2,0.5,1.2,1.6H133.6
	L133.6,175z M139.8,178.2c0.5,0,0.7-0.1,0.7-0.3c0-0.1,0-0.2-0.1-0.3c0-0.1-0.1-0.2-0.2-0.2c0,0-0.1,0-0.1,0c-0.1,0-0.2,0-0.3,0
	c-0.2,0-0.3-0.1-0.4-0.2c-0.1-0.1-0.1-0.3-0.1-0.6v-6c0-0.2-0.1-0.2-0.4-0.2h0c-0.3,0-0.4,0.1-0.4,0.2v6.1c0,0.5,0.1,0.9,0.4,1.1
	C139.2,178.1,139.5,178.2,139.8,178.2L139.8,178.2L139.8,178.2z M143.2,178.2c0.6,0,1.1-0.3,1.6-0.8c0,0,0,0.1,0,0.2
	c0,0.1,0.1,0.2,0.1,0.3c0,0.1,0.1,0.2,0.2,0.2c0.1,0,0.2,0,0.4-0.1c0.1,0,0.2-0.1,0.2-0.2c0,0,0-0.1-0.1-0.3c0-0.2-0.1-0.5-0.1-1v-6
	c0-0.2-0.1-0.2-0.4-0.2h0c-0.3,0-0.4,0.1-0.4,0.2v2.6c-0.2-0.2-0.4-0.3-0.7-0.4c-0.2-0.1-0.5-0.1-0.8-0.1c-0.4,0-0.8,0.1-1.1,0.3
	c-0.3,0.2-0.6,0.5-0.7,0.9c-0.2,0.4-0.3,0.9-0.3,1.5c0,0.5,0.1,1,0.2,1.4c0.2,0.4,0.4,0.7,0.7,1
	C142.5,178.1,142.8,178.2,143.2,178.2L143.2,178.2L143.2,178.2z M143.4,177.4c-0.4,0-0.7-0.2-0.9-0.5c-0.2-0.4-0.3-0.9-0.3-1.5
	c0-0.6,0.1-1.1,0.3-1.4c0.2-0.3,0.6-0.5,1-0.5c0.5,0,0.9,0.2,1.3,0.5v2.8c-0.2,0.2-0.4,0.4-0.7,0.5
	C143.9,177.4,143.6,177.4,143.4,177.4L143.4,177.4L143.4,177.4z M147.4,178.1h0.2c0.3,0,0.4-0.1,0.4-0.2v-0.7c0-0.2-0.1-0.2-0.4-0.2
	h-0.2c-0.3,0-0.4,0.1-0.4,0.2v0.7C147,178.1,147.2,178.1,147.4,178.1L147.4,178.1L147.4,178.1z"/>
<g>
	<defs>
		<rect id="SVGID_1_" x="19.7" y="166.6" width="16" height="15.4"/>
	</defs>
	<defs>
		<path id="SVGID_2_" d="M28.6,167.9l6.3,10.8c0.2,0.3,0.2,0.7,0.2,1c-0.1,0.3-0.3,0.6-0.6,0.8c-0.2,0.1-0.4,0.2-0.7,0.2H21.1
			c-0.7,0-1.3-0.6-1.3-1.3c0-0.2,0.1-0.5,0.2-0.7l6.3-10.8c0.2-0.3,0.5-0.5,0.8-0.6c0.3-0.1,0.7,0,1,0.1
			C28.3,167.5,28.5,167.7,28.6,167.9L28.6,167.9z"/>
	</defs>
	<clipPath id="SVGID_3_">
		<use xlink:href="#SVGID_1_"  style="overflow:visible;"/>
	</clipPath>
	<clipPath id="SVGID_4_" class="st4">
		<use xlink:href="#SVGID_2_"  style="overflow:visible;"/>
	</clipPath>
	<rect x="16.5" y="164" class="st5" width="21.8" height="19.9"/>
</g>
<g>
	<defs>
		<rect id="SVGID_5_" x="19.7" y="166.6" width="16" height="15.4"/>
	</defs>
	<defs>
		<path id="SVGID_6_" d="M27.1,171.1h0.6c0.2,0,0.3,0.1,0.3,0.3v3.8c0,0.2-0.1,0.3-0.3,0.3h-0.6c-0.2,0-0.3-0.1-0.3-0.3v-3.8
			C26.8,171.2,26.9,171.1,27.1,171.1L27.1,171.1z"/>
	</defs>
	<clipPath id="SVGID_7_">
		<use xlink:href="#SVGID_5_"  style="overflow:visible;"/>
	</clipPath>
	<clipPath id="SVGID_8_" class="st6">
		<use xlink:href="#SVGID_6_"  style="overflow:visible;"/>
	</clipPath>
	<rect x="23.6" y="167.9" class="st7" width="7.7" height="10.9"/>
</g>
<g>
	<defs>
		<rect id="SVGID_9_" x="19.7" y="166.6" width="16" height="15.4"/>
	</defs>
	<defs>
		<path id="SVGID_10_" d="M27.4,178.7c0.5,0,1-0.4,1-1c0-0.5-0.4-1-1-1c-0.5,0-1,0.4-1,1C26.5,178.3,26.9,178.7,27.4,178.7
			L27.4,178.7z"/>
	</defs>
	<clipPath id="SVGID_11_">
		<use xlink:href="#SVGID_9_"  style="overflow:visible;"/>
	</clipPath>
	<clipPath id="SVGID_12_" class="st8">
		<use xlink:href="#SVGID_10_"  style="overflow:visible;"/>
	</clipPath>
	<rect x="23.3" y="173.6" class="st9" width="8.3" height="8.3"/>
</g>
<path class="st10" d="M21.2,198.6L21.2,198.6c0.4,0,0.5-0.1,0.5-0.2v-6.8c0-0.2-0.1-0.2-0.4-0.2h-0.1c-0.3,0-0.4,0.1-0.4,0.2v6.8
	C20.7,198.5,20.9,198.6,21.2,198.6L21.2,198.6L21.2,198.6z M23.9,198.6L23.9,198.6c0.3,0,0.5-0.1,0.5-0.2v-3.7
	c0.2-0.2,0.4-0.4,0.6-0.5c0.2-0.1,0.5-0.2,0.7-0.2c0.3,0,0.6,0.1,0.8,0.3c0.2,0.2,0.3,0.4,0.3,0.7v3.5c0,0.2,0.1,0.2,0.4,0.2h0
	c0.3,0,0.4-0.1,0.4-0.2v-3.6c0-0.5-0.1-0.9-0.4-1.2c-0.3-0.3-0.7-0.4-1.2-0.4c-0.3,0-0.6,0.1-0.8,0.2c-0.3,0.1-0.5,0.3-0.7,0.6
	c0,0,0-0.1,0-0.2c0-0.1-0.1-0.2-0.1-0.3c0-0.1-0.1-0.1-0.2-0.1c-0.1,0-0.2,0-0.4,0.1c-0.1,0-0.2,0.1-0.2,0.2c0,0,0,0.1,0.1,0.3
	c0,0.2,0.1,0.5,0.1,1v3.6C23.5,198.5,23.7,198.6,23.9,198.6L23.9,198.6L23.9,198.6z M30.3,198.7c0.3,0,0.6-0.1,0.9-0.2
	c0.3-0.1,0.5-0.3,0.7-0.6c0.2-0.2,0.2-0.5,0.2-0.8c0-0.3,0-0.6-0.1-0.8c-0.1-0.2-0.3-0.4-0.5-0.5c-0.2-0.1-0.6-0.3-1-0.4
	c-0.3-0.1-0.5-0.2-0.6-0.3c-0.1-0.1-0.2-0.3-0.2-0.6c0-0.2,0.1-0.4,0.3-0.5c0.2-0.1,0.4-0.2,0.7-0.2c0.3,0,0.5,0,0.7,0.1
	c0.2,0.1,0.3,0.1,0.3,0.1c0.1,0,0.1-0.1,0.2-0.2c0.1-0.1,0.1-0.3,0.1-0.3c0-0.1-0.1-0.2-0.4-0.3c-0.3-0.1-0.6-0.1-0.9-0.1
	c-0.3,0-0.6,0.1-0.9,0.2c-0.3,0.1-0.5,0.3-0.6,0.5c-0.1,0.2-0.2,0.5-0.2,0.8c0,0.4,0.1,0.7,0.3,0.9c0.2,0.2,0.6,0.4,1.1,0.6
	c0.4,0.1,0.6,0.2,0.8,0.4c0.2,0.1,0.2,0.3,0.2,0.6c0,0.6-0.3,0.8-1,0.8c-0.2,0-0.4,0-0.6-0.1s-0.3-0.1-0.4-0.2
	c-0.1-0.1-0.2-0.1-0.2-0.1c-0.1,0-0.1,0.1-0.2,0.2c-0.1,0.1-0.1,0.2-0.1,0.3c0,0.1,0.1,0.2,0.2,0.3c0.1,0.1,0.3,0.2,0.6,0.3
	C29.8,198.6,30,198.7,30.3,198.7L30.3,198.7L30.3,198.7z M35,198.7c0.5,0,0.7-0.1,0.7-0.3c0-0.1,0-0.2-0.1-0.3
	c0-0.1-0.1-0.2-0.2-0.2c0,0-0.1,0-0.1,0c-0.1,0-0.2,0-0.3,0c-0.2,0-0.3-0.1-0.4-0.2c-0.1-0.1-0.1-0.3-0.1-0.6V194h0.9
	c0.1,0,0.1,0,0.2-0.1c0,0,0-0.1,0-0.2v-0.1c0-0.1,0-0.2,0-0.2c0,0-0.1-0.1-0.2-0.1h-0.9v-1.1c0-0.1-0.1-0.2-0.3-0.2h-0.1
	c-0.2,0-0.3,0.1-0.3,0.2l-0.1,1.1h-0.5c-0.1,0-0.1,0-0.2,0.1c0,0-0.1,0.1-0.1,0.2v0.1c0,0.1,0,0.2,0.1,0.2c0,0,0.1,0.1,0.2,0.1h0.5
	v3.3c0,0.5,0.1,0.9,0.4,1.1C34.3,198.5,34.7,198.7,35,198.7L35,198.7L35,198.7z M37.4,198.6L37.4,198.6c0.3,0,0.5-0.1,0.5-0.2v-3.7
	c0,0,0-0.1,0.1-0.2c0.1-0.1,0.2-0.2,0.4-0.3c0.1-0.1,0.3-0.1,0.4-0.1c0.1,0,0.3,0,0.4,0.1c0.1,0,0.2,0.1,0.2,0.1
	c0.1,0,0.1-0.1,0.1-0.2c0-0.1,0.1-0.2,0.1-0.4c0-0.1-0.1-0.2-0.2-0.3c-0.1-0.1-0.2-0.1-0.4-0.1c-0.4,0-0.8,0.3-1.2,0.8
	c0,0,0-0.1,0-0.2c0-0.1-0.1-0.2-0.1-0.3c0-0.1-0.1-0.1-0.2-0.1c-0.1,0-0.2,0-0.4,0.1c-0.1,0-0.2,0.1-0.2,0.2c0,0,0,0.1,0.1,0.3
	c0,0.2,0.1,0.5,0.1,1v3.6C37,198.5,37.1,198.6,37.4,198.6L37.4,198.6L37.4,198.6z M42.3,198.7c0.3,0,0.6-0.1,0.8-0.2
	c0.3-0.1,0.5-0.3,0.7-0.6c0,0,0,0.1,0,0.2c0,0.1,0.1,0.2,0.1,0.3c0,0.1,0.1,0.2,0.2,0.2c0.1,0,0.2,0,0.4-0.1c0.1,0,0.2-0.1,0.2-0.2
	c0,0,0-0.1-0.1-0.3c0-0.2-0.1-0.5-0.1-1v-3.6c0-0.2-0.1-0.2-0.4-0.2h0c-0.3,0-0.4,0.1-0.4,0.2v3.7c-0.2,0.2-0.4,0.4-0.6,0.5
	c-0.2,0.1-0.5,0.2-0.7,0.2c-0.3,0-0.6-0.1-0.8-0.3c-0.2-0.2-0.3-0.4-0.3-0.7v-3.5c0-0.2-0.1-0.2-0.4-0.2h0c-0.3,0-0.4,0.1-0.4,0.2
	v3.6c0,0.5,0.1,0.9,0.4,1.2C41.3,198.5,41.7,198.7,42.3,198.7L42.3,198.7L42.3,198.7z M48.6,198.7c0.3,0,0.6,0,0.8-0.1
	c0.2-0.1,0.4-0.1,0.6-0.2c0.1-0.1,0.2-0.2,0.2-0.2c0-0.1,0-0.2-0.1-0.3c-0.1-0.1-0.2-0.2-0.2-0.2l-0.1,0c-0.4,0.2-0.7,0.3-1.2,0.3
	c-0.6,0-1-0.2-1.2-0.5c-0.2-0.3-0.4-0.8-0.4-1.6c0-1.3,0.5-2,1.5-2c0.4,0,0.7,0.1,1.1,0.2c0,0,0,0,0.1,0c0,0,0,0,0,0
	c0.1,0,0.1-0.1,0.2-0.2c0.1-0.1,0.1-0.3,0.1-0.3c0-0.1-0.2-0.2-0.5-0.3c-0.3-0.1-0.7-0.1-1.1-0.1c-0.7,0-1.3,0.2-1.7,0.6
	c-0.5,0.4-0.7,1.1-0.7,2.1c0,1,0.2,1.7,0.6,2.1C47.1,198.4,47.7,198.7,48.6,198.7L48.6,198.7L48.6,198.7z M52.9,198.7
	c0.5,0,0.7-0.1,0.7-0.3c0-0.1,0-0.2-0.1-0.3c0-0.1-0.1-0.2-0.2-0.2c0,0-0.1,0-0.1,0c-0.1,0-0.2,0-0.3,0c-0.2,0-0.3-0.1-0.4-0.2
	c-0.1-0.1-0.1-0.3-0.1-0.6V194h0.9c0.1,0,0.1,0,0.2-0.1c0,0,0-0.1,0-0.2v-0.1c0-0.1,0-0.2,0-0.2c0,0-0.1-0.1-0.2-0.1h-0.9v-1.1
	c0-0.1-0.1-0.2-0.3-0.2H52c-0.2,0-0.3,0.1-0.3,0.2l-0.1,1.1h-0.5c-0.1,0-0.1,0-0.2,0.1c0,0-0.1,0.1-0.1,0.2v0.1c0,0.1,0,0.2,0.1,0.2
	c0,0,0.1,0.1,0.2,0.1h0.5v3.3c0,0.5,0.1,0.9,0.4,1.1C52.3,198.5,52.6,198.7,52.9,198.7L52.9,198.7L52.9,198.7z M55.3,192.3
	c0.3,0,0.5-0.1,0.5-0.2v-0.6c0-0.2-0.2-0.2-0.5-0.2c-0.3,0-0.5,0.1-0.5,0.2v0.6C54.9,192.2,55,192.3,55.3,192.3L55.3,192.3
	L55.3,192.3z M55.3,198.6L55.3,198.6c0.3,0,0.5-0.1,0.5-0.2v-4.9c0-0.2-0.1-0.2-0.4-0.2h0c-0.3,0-0.4,0.1-0.4,0.2v4.9
	C54.9,198.5,55.1,198.6,55.3,198.6L55.3,198.6L55.3,198.6z M59.8,198.7c0.3,0,0.6,0,0.9-0.1c0.3-0.1,0.5-0.2,0.7-0.3
	c0.2-0.1,0.3-0.2,0.3-0.3c0-0.1,0-0.2-0.1-0.3c-0.1-0.1-0.2-0.2-0.2-0.2c0,0-0.1,0-0.2,0.1c-0.1,0.1-0.3,0.1-0.5,0.2
	c-0.2,0.1-0.5,0.1-0.7,0.1c-0.5,0-0.9-0.1-1.1-0.4c-0.3-0.3-0.4-0.7-0.4-1.2h3.2c0.1,0,0.1-0.1,0.2-0.2c0.1-0.1,0.1-0.2,0.1-0.3
	c0-0.9-0.2-1.5-0.5-2c-0.4-0.5-0.9-0.7-1.6-0.7c-0.8,0-1.4,0.2-1.8,0.7c-0.4,0.5-0.6,1.2-0.6,2.1c0,0.9,0.2,1.6,0.6,2
	C58.3,198.4,58.9,198.7,59.8,198.7L59.8,198.7L59.8,198.7z M58.2,195.5c0.1-1.1,0.6-1.6,1.4-1.6c0.8,0,1.2,0.5,1.2,1.6H58.2
	L58.2,195.5z M67.1,198.7c0.5,0,0.7-0.1,0.7-0.3c0-0.1,0-0.2-0.1-0.3c0-0.1-0.1-0.2-0.2-0.2c0,0-0.1,0-0.1,0c-0.1,0-0.2,0-0.3,0
	c-0.2,0-0.3-0.1-0.4-0.2c-0.1-0.1-0.1-0.3-0.1-0.6V194h0.9c0.1,0,0.1,0,0.2-0.1c0,0,0-0.1,0-0.2v-0.1c0-0.1,0-0.2,0-0.2
	c0,0-0.1-0.1-0.2-0.1h-0.9v-1.1c0-0.1-0.1-0.2-0.3-0.2h-0.1c-0.2,0-0.3,0.1-0.3,0.2l-0.1,1.1h-0.5c-0.1,0-0.1,0-0.2,0.1
	c0,0-0.1,0.1-0.1,0.2v0.1c0,0.1,0,0.2,0.1,0.2c0,0,0.1,0.1,0.2,0.1h0.5v3.3c0,0.5,0.1,0.9,0.4,1.1C66.5,198.5,66.8,198.7,67.1,198.7
	L67.1,198.7L67.1,198.7z M71.3,198.7c0.3,0,0.6,0,0.9-0.1c0.3-0.1,0.5-0.2,0.7-0.3c0.2-0.1,0.3-0.2,0.3-0.3c0-0.1,0-0.2-0.1-0.3
	c-0.1-0.1-0.2-0.2-0.2-0.2c0,0-0.1,0-0.2,0.1c-0.1,0.1-0.3,0.1-0.5,0.2c-0.2,0.1-0.5,0.1-0.7,0.1c-0.5,0-0.9-0.1-1.1-0.4
	c-0.3-0.3-0.4-0.7-0.4-1.2h3.2c0.1,0,0.1-0.1,0.2-0.2c0.1-0.1,0.1-0.2,0.1-0.3c0-0.9-0.2-1.5-0.5-2c-0.4-0.5-0.9-0.7-1.6-0.7
	c-0.8,0-1.4,0.2-1.8,0.7c-0.4,0.5-0.6,1.2-0.6,2.1c0,0.9,0.2,1.6,0.6,2C69.8,198.4,70.4,198.7,71.3,198.7L71.3,198.7L71.3,198.7z
	 M69.7,195.5c0.1-1.1,0.6-1.6,1.4-1.6c0.8,0,1.2,0.5,1.2,1.6H69.7L69.7,195.5z M78.6,198.3l-2.1-2.5l1.9-2.3
	c0.1-0.1,0.1-0.1,0.1-0.2c0,0,0-0.1-0.1-0.1c-0.1,0-0.2,0-0.3,0h0c-0.3,0-0.5,0-0.5,0.1l-2,2.3h0v-4.6c0-0.2-0.1-0.2-0.4-0.2h0
	c-0.3,0-0.4,0.1-0.4,0.2v7.3c0,0.2,0.1,0.2,0.4,0.2h0c0.3,0,0.4-0.1,0.4-0.2v-2.3h0l2,2.4c0,0.1,0.1,0.1,0.2,0.1c0.1,0,0.2,0,0.3,0
	h0c0.2,0,0.3,0,0.3,0c0.1,0,0.1-0.1,0.1-0.1C78.7,198.4,78.6,198.4,78.6,198.3L78.6,198.3L78.6,198.3z M81,198.7
	c0.3,0,0.6-0.1,0.9-0.2c0.3-0.1,0.5-0.3,0.7-0.6c0.2-0.2,0.2-0.5,0.2-0.8c0-0.3,0-0.6-0.1-0.8c-0.1-0.2-0.3-0.4-0.5-0.5
	c-0.2-0.1-0.6-0.3-1-0.4c-0.3-0.1-0.5-0.2-0.6-0.3c-0.1-0.1-0.2-0.3-0.2-0.6c0-0.2,0.1-0.4,0.3-0.5c0.2-0.1,0.4-0.2,0.7-0.2
	c0.3,0,0.5,0,0.7,0.1c0.2,0.1,0.3,0.1,0.3,0.1c0.1,0,0.1-0.1,0.2-0.2c0.1-0.1,0.1-0.3,0.1-0.3c0-0.1-0.1-0.2-0.4-0.3
	c-0.3-0.1-0.6-0.1-0.9-0.1c-0.3,0-0.6,0.1-0.9,0.2c-0.3,0.1-0.5,0.3-0.6,0.5c-0.1,0.2-0.2,0.5-0.2,0.8c0,0.4,0.1,0.7,0.3,0.9
	c0.2,0.2,0.6,0.4,1.1,0.6c0.4,0.1,0.6,0.2,0.8,0.4c0.2,0.1,0.2,0.3,0.2,0.6c0,0.6-0.3,0.8-1,0.8c-0.2,0-0.4,0-0.6-0.1
	s-0.3-0.1-0.4-0.2c-0.1-0.1-0.2-0.1-0.2-0.1c-0.1,0-0.1,0.1-0.2,0.2c-0.1,0.1-0.1,0.2-0.1,0.3c0,0.1,0.1,0.2,0.2,0.3
	c0.1,0.1,0.3,0.2,0.6,0.3C80.5,198.6,80.7,198.7,81,198.7L81,198.7L81,198.7z M85.7,198.7c0.5,0,0.7-0.1,0.7-0.3
	c0-0.1,0-0.2-0.1-0.3c0-0.1-0.1-0.2-0.2-0.2c0,0-0.1,0-0.1,0c-0.1,0-0.2,0-0.3,0c-0.2,0-0.3-0.1-0.4-0.2c-0.1-0.1-0.1-0.3-0.1-0.6
	V194h0.9c0.1,0,0.1,0,0.2-0.1c0,0,0-0.1,0-0.2v-0.1c0-0.1,0-0.2,0-0.2c0,0-0.1-0.1-0.2-0.1h-0.9v-1.1c0-0.1-0.1-0.2-0.3-0.2h-0.1
	c-0.2,0-0.3,0.1-0.3,0.2l-0.1,1.1h-0.5c-0.1,0-0.1,0-0.2,0.1c0,0-0.1,0.1-0.1,0.2v0.1c0,0.1,0,0.2,0.1,0.2c0,0,0.1,0.1,0.2,0.1h0.5
	v3.3c0,0.5,0.1,0.9,0.4,1.1C85,198.5,85.4,198.7,85.7,198.7L85.7,198.7L85.7,198.7z M92.5,198.7c0.4,0,0.8-0.1,1.1-0.3
	c0.3-0.2,0.5-0.6,0.7-1c0.2-0.4,0.2-0.9,0.2-1.4c0-0.6-0.1-1.1-0.3-1.5c-0.2-0.4-0.4-0.7-0.7-0.9c-0.3-0.2-0.7-0.3-1.1-0.3
	c-0.3,0-0.6,0-0.8,0.1c-0.2,0.1-0.5,0.2-0.7,0.4v-2.6c0-0.2-0.1-0.2-0.4-0.2h0c-0.3,0-0.4,0.1-0.4,0.2v7.3c0,0.2,0.1,0.2,0.3,0.2h0
	c0.2,0,0.2,0,0.3-0.1c0.1-0.2,0.1-0.4,0.2-0.6C91.4,198.4,91.9,198.7,92.5,198.7L92.5,198.7L92.5,198.7z M92.3,197.9
	c-0.2,0-0.5-0.1-0.7-0.2c-0.2-0.1-0.5-0.3-0.7-0.5v-2.8c0.2-0.1,0.4-0.3,0.6-0.3c0.2-0.1,0.4-0.1,0.7-0.1c0.5,0,0.8,0.2,1,0.5
	c0.2,0.3,0.3,0.8,0.3,1.4c0,0.7-0.1,1.2-0.3,1.5C93.1,197.7,92.8,197.9,92.3,197.9L92.3,197.9L92.3,197.9z M97.5,198.7
	c0.3,0,0.6-0.1,0.8-0.2c0.3-0.1,0.5-0.3,0.7-0.6c0,0,0,0.1,0,0.2c0,0.1,0.1,0.2,0.1,0.3c0,0.1,0.1,0.2,0.2,0.2c0.1,0,0.2,0,0.4-0.1
	c0.1,0,0.2-0.1,0.2-0.2c0,0,0-0.1-0.1-0.3c0-0.2-0.1-0.5-0.1-1v-3.6c0-0.2-0.1-0.2-0.4-0.2h0c-0.3,0-0.4,0.1-0.4,0.2v3.7
	c-0.2,0.2-0.4,0.4-0.6,0.5c-0.2,0.1-0.5,0.2-0.7,0.2c-0.3,0-0.6-0.1-0.8-0.3c-0.2-0.2-0.3-0.4-0.3-0.7v-3.5c0-0.2-0.1-0.2-0.4-0.2h0
	c-0.3,0-0.4,0.1-0.4,0.2v3.6c0,0.5,0.1,0.9,0.4,1.2C96.6,198.5,97,198.7,97.5,198.7L97.5,198.7L97.5,198.7z M102.1,192.3
	c0.3,0,0.5-0.1,0.5-0.2v-0.6c0-0.2-0.2-0.2-0.5-0.2c-0.3,0-0.5,0.1-0.5,0.2v0.6C101.7,192.2,101.8,192.3,102.1,192.3L102.1,192.3
	L102.1,192.3z M102.1,198.6L102.1,198.6c0.3,0,0.5-0.1,0.5-0.2v-4.9c0-0.2-0.1-0.2-0.4-0.2h0c-0.3,0-0.4,0.1-0.4,0.2v4.9
	C101.7,198.5,101.8,198.6,102.1,198.6L102.1,198.6L102.1,198.6z M105.9,198.7c0.5,0,0.7-0.1,0.7-0.3c0-0.1,0-0.2-0.1-0.3
	c0-0.1-0.1-0.2-0.2-0.2c0,0-0.1,0-0.1,0c-0.1,0-0.2,0-0.3,0c-0.2,0-0.3-0.1-0.4-0.2c-0.1-0.1-0.1-0.3-0.1-0.6V194h0.9
	c0.1,0,0.1,0,0.2-0.1c0,0,0-0.1,0-0.2v-0.1c0-0.1,0-0.2,0-0.2c0,0-0.1-0.1-0.2-0.1h-0.9v-1.1c0-0.1-0.1-0.2-0.3-0.2H105
	c-0.2,0-0.3,0.1-0.3,0.2l-0.1,1.1h-0.5c-0.1,0-0.1,0-0.2,0.1c0,0-0.1,0.1-0.1,0.2v0.1c0,0.1,0,0.2,0.1,0.2c0,0,0.1,0.1,0.2,0.1h0.5
	v3.3c0,0.5,0.1,0.9,0.4,1.1C105.2,198.5,105.6,198.7,105.9,198.7L105.9,198.7L105.9,198.7z M110.1,198.7c0.3,0,0.6,0,0.9-0.1
	c0.3-0.1,0.5-0.2,0.7-0.3c0.2-0.1,0.3-0.2,0.3-0.3c0-0.1,0-0.2-0.1-0.3c-0.1-0.1-0.2-0.2-0.2-0.2c0,0-0.1,0-0.2,0.1
	c-0.1,0.1-0.3,0.1-0.5,0.2c-0.2,0.1-0.5,0.1-0.7,0.1c-0.5,0-0.9-0.1-1.1-0.4c-0.3-0.3-0.4-0.7-0.4-1.2h3.2c0.1,0,0.1-0.1,0.2-0.2
	c0.1-0.1,0.1-0.2,0.1-0.3c0-0.9-0.2-1.5-0.5-2c-0.4-0.5-0.9-0.7-1.6-0.7c-0.8,0-1.4,0.2-1.8,0.7c-0.4,0.5-0.6,1.2-0.6,2.1
	c0,0.9,0.2,1.6,0.6,2C108.6,198.4,109.2,198.7,110.1,198.7L110.1,198.7L110.1,198.7z M108.5,195.5c0.1-1.1,0.6-1.6,1.4-1.6
	c0.8,0,1.2,0.5,1.2,1.6H108.5L108.5,195.5z M113.8,198.6L113.8,198.6c0.3,0,0.5-0.1,0.5-0.2v-3.7c0.2-0.2,0.4-0.4,0.6-0.5
	c0.2-0.1,0.5-0.2,0.7-0.2c0.3,0,0.6,0.1,0.8,0.3c0.2,0.2,0.3,0.4,0.3,0.7v3.5c0,0.2,0.1,0.2,0.4,0.2h0c0.3,0,0.4-0.1,0.4-0.2v-3.6
	c0-0.5-0.1-0.9-0.4-1.2c-0.3-0.3-0.7-0.4-1.2-0.4c-0.3,0-0.6,0.1-0.8,0.2c-0.3,0.1-0.5,0.3-0.7,0.6c0,0,0-0.1,0-0.2
	c0-0.1-0.1-0.2-0.1-0.3c0-0.1-0.1-0.1-0.2-0.1c-0.1,0-0.2,0-0.4,0.1c-0.1,0-0.2,0.1-0.2,0.2c0,0,0,0.1,0.1,0.3c0,0.2,0.1,0.5,0.1,1
	v3.6C113.4,198.5,113.5,198.6,113.8,198.6L113.8,198.6L113.8,198.6z M123.7,198.7c0.3,0,0.6,0,0.9-0.1c0.3-0.1,0.5-0.2,0.7-0.3
	c0.2-0.1,0.3-0.2,0.3-0.3c0-0.1,0-0.2-0.1-0.3c-0.1-0.1-0.2-0.2-0.2-0.2c0,0-0.1,0-0.2,0.1c-0.1,0.1-0.3,0.1-0.5,0.2
	c-0.2,0.1-0.5,0.1-0.7,0.1c-0.5,0-0.9-0.1-1.1-0.4c-0.3-0.3-0.4-0.7-0.4-1.2h3.2c0.1,0,0.1-0.1,0.2-0.2c0.1-0.1,0.1-0.2,0.1-0.3
	c0-0.9-0.2-1.5-0.5-2c-0.4-0.5-0.9-0.7-1.6-0.7c-0.8,0-1.4,0.2-1.8,0.7c-0.4,0.5-0.6,1.2-0.6,2.1c0,0.9,0.2,1.6,0.6,2
	C122.2,198.4,122.9,198.7,123.7,198.7L123.7,198.7L123.7,198.7z M122.1,195.5c0.1-1.1,0.6-1.6,1.4-1.6c0.8,0,1.2,0.5,1.2,1.6H122.1
	L122.1,195.5z M129.3,198.7c0.3,0,0.6,0,0.9-0.1c0.3-0.1,0.5-0.2,0.7-0.3c0.2-0.1,0.3-0.2,0.3-0.3c0-0.1,0-0.2-0.1-0.3
	c-0.1-0.1-0.2-0.2-0.2-0.2c0,0-0.1,0-0.2,0.1c-0.1,0.1-0.3,0.1-0.5,0.2c-0.2,0.1-0.5,0.1-0.7,0.1c-0.5,0-0.9-0.1-1.1-0.4
	c-0.3-0.3-0.4-0.7-0.4-1.2h3.2c0.1,0,0.1-0.1,0.2-0.2c0.1-0.1,0.1-0.2,0.1-0.3c0-0.9-0.2-1.5-0.5-2c-0.4-0.5-0.9-0.7-1.6-0.7
	c-0.8,0-1.4,0.2-1.8,0.7c-0.4,0.5-0.6,1.2-0.6,2.1c0,0.9,0.2,1.6,0.6,2C127.8,198.4,128.4,198.7,129.3,198.7L129.3,198.7
	L129.3,198.7z M127.7,195.5c0.1-1.1,0.6-1.6,1.4-1.6c0.8,0,1.2,0.5,1.2,1.6H127.7L127.7,195.5z M133,198.6L133,198.6
	c0.3,0,0.5-0.1,0.5-0.2v-3.7c0.2-0.2,0.4-0.4,0.6-0.5c0.2-0.1,0.5-0.2,0.7-0.2c0.3,0,0.6,0.1,0.8,0.3c0.2,0.2,0.3,0.4,0.3,0.7v3.5
	c0,0.2,0.1,0.2,0.4,0.2h0c0.3,0,0.4-0.1,0.4-0.2v-3.6c0-0.5-0.1-0.9-0.4-1.2c-0.3-0.3-0.7-0.4-1.2-0.4c-0.3,0-0.6,0.1-0.8,0.2
	c-0.3,0.1-0.5,0.3-0.7,0.6c0,0,0-0.1,0-0.2c0-0.1-0.1-0.2-0.1-0.3c0-0.1-0.1-0.1-0.2-0.1c-0.1,0-0.2,0-0.4,0.1
	c-0.1,0-0.2,0.1-0.2,0.2c0,0,0,0.1,0.1,0.3c0,0.2,0.1,0.5,0.1,1v3.6C132.6,198.5,132.7,198.6,133,198.6L133,198.6L133,198.6z
	 M142.3,198.7c0.5,0,0.7-0.1,0.7-0.3c0-0.1,0-0.2-0.1-0.3c0-0.1-0.1-0.2-0.2-0.2c0,0-0.1,0-0.1,0c-0.1,0-0.2,0-0.3,0
	c-0.2,0-0.3-0.1-0.4-0.2c-0.1-0.1-0.1-0.3-0.1-0.6V194h0.9c0.1,0,0.1,0,0.2-0.1c0,0,0-0.1,0-0.2v-0.1c0-0.1,0-0.2,0-0.2
	c0,0-0.1-0.1-0.2-0.1h-0.9v-1.1c0-0.1-0.1-0.2-0.3-0.2h-0.1c-0.2,0-0.3,0.1-0.3,0.2l-0.1,1.1h-0.5c-0.1,0-0.1,0-0.2,0.1
	c0,0-0.1,0.1-0.1,0.2v0.1c0,0.1,0,0.2,0.1,0.2c0,0,0.1,0.1,0.2,0.1h0.5v3.3c0,0.5,0.1,0.9,0.4,1.1
	C141.6,198.5,141.9,198.7,142.3,198.7L142.3,198.7L142.3,198.7z M146.4,198.7c0.3,0,0.6,0,0.9-0.1c0.3-0.1,0.5-0.2,0.7-0.3
	c0.2-0.1,0.3-0.2,0.3-0.3c0-0.1,0-0.2-0.1-0.3c-0.1-0.1-0.2-0.2-0.2-0.2c0,0-0.1,0-0.2,0.1c-0.1,0.1-0.3,0.1-0.5,0.2
	c-0.2,0.1-0.5,0.1-0.7,0.1c-0.5,0-0.9-0.1-1.1-0.4c-0.3-0.3-0.4-0.7-0.4-1.2h3.2c0.1,0,0.1-0.1,0.2-0.2c0.1-0.1,0.1-0.2,0.1-0.3
	c0-0.9-0.2-1.5-0.5-2c-0.4-0.5-0.9-0.7-1.6-0.7c-0.8,0-1.4,0.2-1.8,0.7c-0.4,0.5-0.6,1.2-0.6,2.1c0,0.9,0.2,1.6,0.6,2
	C145,198.4,145.6,198.7,146.4,198.7L146.4,198.7L146.4,198.7z M144.8,195.5c0.1-1.1,0.6-1.6,1.4-1.6c0.8,0,1.2,0.5,1.2,1.6H144.8
	L144.8,195.5z M153.7,198.3l-2.1-2.5l1.9-2.3c0.1-0.1,0.1-0.1,0.1-0.2c0,0,0-0.1-0.1-0.1c-0.1,0-0.2,0-0.3,0h0c-0.3,0-0.5,0-0.5,0.1
	l-2,2.3h0v-4.6c0-0.2-0.1-0.2-0.4-0.2h0c-0.3,0-0.4,0.1-0.4,0.2v7.3c0,0.2,0.1,0.2,0.4,0.2h0c0.3,0,0.4-0.1,0.4-0.2v-2.3h0l2,2.4
	c0,0.1,0.1,0.1,0.2,0.1c0.1,0,0.2,0,0.3,0h0c0.2,0,0.3,0,0.3,0c0.1,0,0.1-0.1,0.1-0.1C153.8,198.4,153.8,198.4,153.7,198.3
	L153.7,198.3L153.7,198.3z M156.2,198.7c0.3,0,0.6-0.1,0.9-0.2s0.5-0.3,0.7-0.6c0.2-0.2,0.2-0.5,0.2-0.8c0-0.3,0-0.6-0.1-0.8
	c-0.1-0.2-0.3-0.4-0.5-0.5c-0.2-0.1-0.6-0.3-1-0.4c-0.3-0.1-0.5-0.2-0.6-0.3c-0.1-0.1-0.2-0.3-0.2-0.6c0-0.2,0.1-0.4,0.3-0.5
	c0.2-0.1,0.4-0.2,0.7-0.2c0.3,0,0.5,0,0.7,0.1c0.2,0.1,0.3,0.1,0.3,0.1c0.1,0,0.1-0.1,0.2-0.2c0.1-0.1,0.1-0.3,0.1-0.3
	c0-0.1-0.1-0.2-0.4-0.3c-0.3-0.1-0.6-0.1-0.9-0.1c-0.3,0-0.6,0.1-0.9,0.2c-0.3,0.1-0.5,0.3-0.6,0.5c-0.1,0.2-0.2,0.5-0.2,0.8
	c0,0.4,0.1,0.7,0.3,0.9c0.2,0.2,0.6,0.4,1.1,0.6c0.4,0.1,0.6,0.2,0.8,0.4c0.2,0.1,0.2,0.3,0.2,0.6c0,0.6-0.3,0.8-1,0.8
	c-0.2,0-0.4,0-0.6-0.1c-0.2-0.1-0.3-0.1-0.4-0.2c-0.1-0.1-0.2-0.1-0.2-0.1c-0.1,0-0.1,0.1-0.2,0.2c-0.1,0.1-0.1,0.2-0.1,0.3
	c0,0.1,0.1,0.2,0.2,0.3c0.1,0.1,0.3,0.2,0.6,0.3C155.6,198.6,155.9,198.7,156.2,198.7L156.2,198.7L156.2,198.7z M160.9,198.7
	c0.5,0,0.7-0.1,0.7-0.3c0-0.1,0-0.2-0.1-0.3c0-0.1-0.1-0.2-0.2-0.2c0,0-0.1,0-0.1,0c-0.1,0-0.2,0-0.3,0c-0.2,0-0.3-0.1-0.4-0.2
	c-0.1-0.1-0.1-0.3-0.1-0.6V194h0.9c0.1,0,0.1,0,0.2-0.1c0,0,0-0.1,0-0.2v-0.1c0-0.1,0-0.2,0-0.2c0,0-0.1-0.1-0.2-0.1h-0.9v-1.1
	c0-0.1-0.1-0.2-0.3-0.2H160c-0.2,0-0.3,0.1-0.3,0.2l-0.1,1.1H159c-0.1,0-0.1,0-0.2,0.1c0,0-0.1,0.1-0.1,0.2v0.1c0,0.1,0,0.2,0.1,0.2
	c0,0,0.1,0.1,0.2,0.1h0.5v3.3c0,0.5,0.1,0.9,0.4,1.1C160.2,198.5,160.5,198.7,160.9,198.7L160.9,198.7L160.9,198.7z M164.3,198.6
	h0.4c0.2,0,0.4-0.1,0.4-0.2l1.6-4.9c0-0.1,0-0.1,0-0.1c0-0.1-0.1-0.2-0.4-0.2h0c-0.2,0-0.4,0.1-0.4,0.2l-1.1,3.3
	c-0.1,0.2-0.2,0.6-0.2,1l-0.1,0.3h0c-0.2-0.6-0.3-1.1-0.4-1.3l-1-3.3c0-0.1-0.2-0.2-0.4-0.2h-0.1c-0.3,0-0.4,0.1-0.4,0.2
	c0,0,0,0.1,0,0.1l1.6,4.9C163.9,198.6,164,198.6,164.3,198.6L164.3,198.6L164.3,198.6z M170,198.7c0.3,0,0.6,0,0.9-0.1
	c0.3-0.1,0.5-0.2,0.7-0.3c0.2-0.1,0.3-0.2,0.3-0.3c0-0.1,0-0.2-0.1-0.3c-0.1-0.1-0.2-0.2-0.2-0.2c0,0-0.1,0-0.2,0.1
	c-0.1,0.1-0.3,0.1-0.5,0.2c-0.2,0.1-0.5,0.1-0.7,0.1c-0.5,0-0.9-0.1-1.1-0.4c-0.3-0.3-0.4-0.7-0.4-1.2h3.2c0.1,0,0.1-0.1,0.2-0.2
	s0.1-0.2,0.1-0.3c0-0.9-0.2-1.5-0.5-2c-0.4-0.5-0.9-0.7-1.6-0.7c-0.8,0-1.4,0.2-1.8,0.7c-0.4,0.5-0.6,1.2-0.6,2.1
	c0,0.9,0.2,1.6,0.6,2C168.5,198.4,169.1,198.7,170,198.7L170,198.7L170,198.7z M168.4,195.5c0.1-1.1,0.6-1.6,1.4-1.6
	c0.8,0,1.2,0.5,1.2,1.6H168.4L168.4,195.5z M174.6,198.7c0.5,0,0.7-0.1,0.7-0.3c0-0.1,0-0.2-0.1-0.3c0-0.1-0.1-0.2-0.2-0.2
	c0,0-0.1,0-0.1,0c-0.1,0-0.2,0-0.3,0c-0.2,0-0.3-0.1-0.4-0.2c-0.1-0.1-0.1-0.3-0.1-0.6v-6c0-0.2-0.1-0.2-0.4-0.2h0
	c-0.3,0-0.4,0.1-0.4,0.2v6.1c0,0.5,0.1,0.9,0.4,1.1C173.9,198.5,174.3,198.7,174.6,198.7L174.6,198.7L174.6,198.7z M178,198.7
	c0.6,0,1.1-0.3,1.6-0.8c0,0,0,0.1,0,0.2c0,0.1,0.1,0.2,0.1,0.3c0,0.1,0.1,0.2,0.2,0.2c0.1,0,0.2,0,0.4-0.1c0.1,0,0.2-0.1,0.2-0.2
	c0,0,0-0.1-0.1-0.3c0-0.2-0.1-0.5-0.1-1v-6c0-0.2-0.1-0.2-0.4-0.2h0c-0.3,0-0.4,0.1-0.4,0.2v2.6c-0.2-0.2-0.4-0.3-0.7-0.4
	c-0.2-0.1-0.5-0.1-0.8-0.1c-0.4,0-0.8,0.1-1.1,0.3c-0.3,0.2-0.6,0.5-0.7,0.9c-0.2,0.4-0.3,0.9-0.3,1.5c0,0.5,0.1,1,0.2,1.4
	c0.2,0.4,0.4,0.7,0.7,1C177.2,198.5,177.6,198.7,178,198.7L178,198.7L178,198.7z M178.2,197.9c-0.4,0-0.7-0.2-0.9-0.5
	c-0.2-0.4-0.3-0.9-0.3-1.5c0-0.6,0.1-1.1,0.3-1.4c0.2-0.3,0.6-0.5,1-0.5c0.5,0,0.9,0.2,1.3,0.5v2.8c-0.2,0.2-0.4,0.4-0.7,0.5
	C178.6,197.8,178.4,197.9,178.2,197.9L178.2,197.9L178.2,197.9z M182.2,198.6h0.2c0.3,0,0.4-0.1,0.4-0.2v-0.7c0-0.2-0.1-0.2-0.4-0.2
	h-0.2c-0.3,0-0.4,0.1-0.4,0.2v0.7C181.8,198.5,181.9,198.6,182.2,198.6L182.2,198.6L182.2,198.6z"/>
<path class="st2" d="M31.2,77.1h0.1c0.2,0,0.2-0.1,0.2-0.2v-8.9c0-0.2-0.1-0.2-0.2-0.2h-0.1c-0.2,0-0.2,0.1-0.2,0.2v8.9
	C31,77.1,31.1,77.1,31.2,77.1L31.2,77.1L31.2,77.1z"/>
<path class="st10" d="M21.2,101.3L21.2,101.3c0.4,0,0.5-0.1,0.5-0.2v-6.8c0-0.2-0.1-0.2-0.4-0.2h-0.1c-0.3,0-0.4,0.1-0.4,0.2v6.8
	C20.7,101.3,20.9,101.3,21.2,101.3L21.2,101.3L21.2,101.3z M23.9,101.3L23.9,101.3c0.3,0,0.5-0.1,0.5-0.2v-3.7
	c0.2-0.2,0.4-0.4,0.6-0.5c0.2-0.1,0.5-0.2,0.7-0.2c0.3,0,0.6,0.1,0.8,0.3c0.2,0.2,0.3,0.4,0.3,0.7v3.5c0,0.2,0.1,0.2,0.4,0.2h0
	c0.3,0,0.4-0.1,0.4-0.2v-3.6c0-0.5-0.1-0.9-0.4-1.2c-0.3-0.3-0.7-0.4-1.2-0.4c-0.3,0-0.6,0.1-0.8,0.2c-0.3,0.1-0.5,0.3-0.7,0.6
	c0,0,0-0.1,0-0.2c0-0.1-0.1-0.2-0.1-0.3c0-0.1-0.1-0.1-0.2-0.1c-0.1,0-0.2,0-0.4,0.1c-0.1,0-0.2,0.1-0.2,0.2c0,0,0,0.1,0.1,0.3
	c0,0.2,0.1,0.5,0.1,1v3.6C23.5,101.3,23.7,101.3,23.9,101.3L23.9,101.3L23.9,101.3z M30.3,101.4c0.3,0,0.6-0.1,0.9-0.2
	c0.3-0.1,0.5-0.3,0.7-0.6c0.2-0.2,0.2-0.5,0.2-0.8c0-0.3,0-0.6-0.1-0.8c-0.1-0.2-0.3-0.4-0.5-0.5c-0.2-0.1-0.6-0.3-1-0.4
	c-0.3-0.1-0.5-0.2-0.6-0.3c-0.1-0.1-0.2-0.3-0.2-0.6c0-0.2,0.1-0.4,0.3-0.5c0.2-0.1,0.4-0.2,0.7-0.2c0.3,0,0.5,0,0.7,0.1
	c0.2,0.1,0.3,0.1,0.3,0.1c0.1,0,0.1-0.1,0.2-0.2c0.1-0.1,0.1-0.3,0.1-0.3c0-0.1-0.1-0.2-0.4-0.3c-0.3-0.1-0.6-0.1-0.9-0.1
	c-0.3,0-0.6,0.1-0.9,0.2c-0.3,0.1-0.5,0.3-0.6,0.5c-0.1,0.2-0.2,0.5-0.2,0.8c0,0.4,0.1,0.7,0.3,0.9c0.2,0.2,0.6,0.4,1.1,0.6
	c0.4,0.1,0.6,0.2,0.8,0.4c0.2,0.1,0.2,0.3,0.2,0.6c0,0.6-0.3,0.8-1,0.8c-0.2,0-0.4,0-0.6-0.1c-0.2-0.1-0.3-0.1-0.4-0.2
	c-0.1-0.1-0.2-0.1-0.2-0.1c-0.1,0-0.1,0.1-0.2,0.2c-0.1,0.1-0.1,0.2-0.1,0.3c0,0.1,0.1,0.2,0.2,0.3c0.1,0.1,0.3,0.2,0.6,0.3
	C29.8,101.4,30,101.4,30.3,101.4L30.3,101.4L30.3,101.4z M35,101.4c0.5,0,0.7-0.1,0.7-0.3c0-0.1,0-0.2-0.1-0.3
	c0-0.1-0.1-0.2-0.2-0.2c0,0-0.1,0-0.1,0c-0.1,0-0.2,0-0.3,0c-0.2,0-0.3-0.1-0.4-0.2c-0.1-0.1-0.1-0.3-0.1-0.6v-3.2h0.9
	c0.1,0,0.1,0,0.2-0.1c0,0,0-0.1,0-0.2v-0.1c0-0.1,0-0.2,0-0.2c0,0-0.1-0.1-0.2-0.1h-0.9v-1.1c0-0.2-0.1-0.2-0.3-0.2h-0.1
	c-0.2,0-0.3,0.1-0.3,0.2L33.7,96h-0.5C33.1,96,33,96,33,96c0,0-0.1,0.1-0.1,0.2v0.1c0,0.1,0,0.2,0.1,0.2c0,0,0.1,0.1,0.2,0.1h0.5
	v3.3c0,0.5,0.1,0.9,0.4,1.1C34.3,101.3,34.7,101.4,35,101.4L35,101.4L35,101.4z M37.4,101.3L37.4,101.3c0.3,0,0.5-0.1,0.5-0.2v-3.7
	c0,0,0-0.1,0.1-0.2c0.1-0.1,0.2-0.2,0.4-0.3c0.1-0.1,0.3-0.1,0.4-0.1c0.1,0,0.3,0,0.4,0.1c0.1,0,0.2,0.1,0.2,0.1
	c0.1,0,0.1-0.1,0.1-0.2c0-0.1,0.1-0.2,0.1-0.4c0-0.1-0.1-0.2-0.2-0.3c-0.1-0.1-0.2-0.1-0.4-0.1c-0.4,0-0.8,0.3-1.2,0.8
	c0,0,0-0.1,0-0.2c0-0.1-0.1-0.2-0.1-0.3c0-0.1-0.1-0.1-0.2-0.1c-0.1,0-0.2,0-0.4,0.1c-0.1,0-0.2,0.1-0.2,0.2c0,0,0,0.1,0.1,0.3
	c0,0.2,0.1,0.5,0.1,1v3.6C37,101.3,37.1,101.3,37.4,101.3L37.4,101.3L37.4,101.3z M42.3,101.4c0.3,0,0.6-0.1,0.8-0.2
	c0.3-0.1,0.5-0.3,0.7-0.6c0,0,0,0.1,0,0.2c0,0.1,0.1,0.2,0.1,0.3c0,0.1,0.1,0.2,0.2,0.2c0.1,0,0.2,0,0.4-0.1c0.1,0,0.2-0.1,0.2-0.2
	c0,0,0-0.1-0.1-0.3c0-0.2-0.1-0.5-0.1-1v-3.6c0-0.2-0.1-0.2-0.4-0.2h0c-0.3,0-0.4,0.1-0.4,0.2v3.7c-0.2,0.2-0.4,0.4-0.6,0.5
	c-0.2,0.1-0.5,0.2-0.7,0.2c-0.3,0-0.6-0.1-0.8-0.3c-0.2-0.2-0.3-0.4-0.3-0.7v-3.5c0-0.2-0.1-0.2-0.4-0.2h0c-0.3,0-0.4,0.1-0.4,0.2
	v3.6c0,0.5,0.1,0.9,0.4,1.2C41.3,101.2,41.7,101.4,42.3,101.4L42.3,101.4L42.3,101.4z M48.6,101.4c0.3,0,0.6,0,0.8-0.1
	c0.2-0.1,0.4-0.1,0.6-0.2c0.1-0.1,0.2-0.2,0.2-0.2c0-0.1,0-0.2-0.1-0.3c-0.1-0.1-0.2-0.2-0.2-0.2l-0.1,0c-0.4,0.2-0.7,0.3-1.2,0.3
	c-0.6,0-1-0.2-1.2-0.5c-0.2-0.3-0.4-0.8-0.4-1.6c0-1.3,0.5-2,1.5-2c0.4,0,0.7,0.1,1.1,0.2c0,0,0,0,0.1,0c0,0,0,0,0,0
	c0.1,0,0.1-0.1,0.2-0.2c0.1-0.1,0.1-0.3,0.1-0.3c0-0.1-0.2-0.2-0.5-0.3c-0.3-0.1-0.7-0.1-1.1-0.1c-0.7,0-1.3,0.2-1.7,0.6
	c-0.5,0.4-0.7,1.1-0.7,2.1c0,1,0.2,1.7,0.6,2.1C47.1,101.2,47.7,101.4,48.6,101.4L48.6,101.4L48.6,101.4z M52.9,101.4
	c0.5,0,0.7-0.1,0.7-0.3c0-0.1,0-0.2-0.1-0.3c0-0.1-0.1-0.2-0.2-0.2c0,0-0.1,0-0.1,0c-0.1,0-0.2,0-0.3,0c-0.2,0-0.3-0.1-0.4-0.2
	c-0.1-0.1-0.1-0.3-0.1-0.6v-3.2h0.9c0.1,0,0.1,0,0.2-0.1c0,0,0-0.1,0-0.2v-0.1c0-0.1,0-0.2,0-0.2c0,0-0.1-0.1-0.2-0.1h-0.9v-1.1
	c0-0.2-0.1-0.2-0.3-0.2H52c-0.2,0-0.3,0.1-0.3,0.2L51.6,96h-0.5C51,96,51,96,50.9,96c0,0-0.1,0.1-0.1,0.2v0.1c0,0.1,0,0.2,0.1,0.2
	c0,0,0.1,0.1,0.2,0.1h0.5v3.3c0,0.5,0.1,0.9,0.4,1.1C52.3,101.3,52.6,101.4,52.9,101.4L52.9,101.4L52.9,101.4z M55.3,95
	c0.3,0,0.5-0.1,0.5-0.2v-0.6c0-0.2-0.2-0.2-0.5-0.2c-0.3,0-0.5,0.1-0.5,0.2v0.6C54.9,94.9,55,95,55.3,95L55.3,95L55.3,95z
	 M55.3,101.3L55.3,101.3c0.3,0,0.5-0.1,0.5-0.2v-4.9c0-0.2-0.1-0.2-0.4-0.2h0c-0.3,0-0.4,0.1-0.4,0.2v4.9
	C54.9,101.3,55.1,101.3,55.3,101.3L55.3,101.3L55.3,101.3z M59.8,101.4c0.3,0,0.6,0,0.9-0.1c0.3-0.1,0.5-0.2,0.7-0.3
	c0.2-0.1,0.3-0.2,0.3-0.3c0-0.1,0-0.2-0.1-0.3c-0.1-0.1-0.2-0.2-0.2-0.2c0,0-0.1,0-0.2,0.1c-0.1,0.1-0.3,0.1-0.5,0.2
	c-0.2,0.1-0.5,0.1-0.7,0.1c-0.5,0-0.9-0.1-1.1-0.4c-0.3-0.3-0.4-0.7-0.4-1.2h3.2c0.1,0,0.1-0.1,0.2-0.2c0.1-0.1,0.1-0.2,0.1-0.3
	c0-0.9-0.2-1.5-0.5-2c-0.4-0.5-0.9-0.7-1.6-0.7c-0.8,0-1.4,0.2-1.8,0.7c-0.4,0.5-0.6,1.2-0.6,2.1c0,0.9,0.2,1.6,0.6,2
	C58.3,101.1,58.9,101.4,59.8,101.4L59.8,101.4L59.8,101.4z M58.2,98.2c0.1-1.1,0.6-1.6,1.4-1.6c0.8,0,1.2,0.5,1.2,1.6H58.2
	L58.2,98.2z M67.1,101.4c0.5,0,0.7-0.1,0.7-0.3c0-0.1,0-0.2-0.1-0.3c0-0.1-0.1-0.2-0.2-0.2c0,0-0.1,0-0.1,0c-0.1,0-0.2,0-0.3,0
	c-0.2,0-0.3-0.1-0.4-0.2c-0.1-0.1-0.1-0.3-0.1-0.6v-3.2h0.9c0.1,0,0.1,0,0.2-0.1c0,0,0-0.1,0-0.2v-0.1c0-0.1,0-0.2,0-0.2
	c0,0-0.1-0.1-0.2-0.1h-0.9v-1.1c0-0.2-0.1-0.2-0.3-0.2h-0.1c-0.2,0-0.3,0.1-0.3,0.2L65.8,96h-0.5c-0.1,0-0.1,0-0.2,0.1
	c0,0-0.1,0.1-0.1,0.2v0.1c0,0.1,0,0.2,0.1,0.2c0,0,0.1,0.1,0.2,0.1h0.5v3.3c0,0.5,0.1,0.9,0.4,1.1C66.5,101.3,66.8,101.4,67.1,101.4
	L67.1,101.4L67.1,101.4z M71.3,101.4c0.3,0,0.6,0,0.9-0.1c0.3-0.1,0.5-0.2,0.7-0.3c0.2-0.1,0.3-0.2,0.3-0.3c0-0.1,0-0.2-0.1-0.3
	c-0.1-0.1-0.2-0.2-0.2-0.2c0,0-0.1,0-0.2,0.1c-0.1,0.1-0.3,0.1-0.5,0.2c-0.2,0.1-0.5,0.1-0.7,0.1c-0.5,0-0.9-0.1-1.1-0.4
	c-0.3-0.3-0.4-0.7-0.4-1.2h3.2c0.1,0,0.1-0.1,0.2-0.2c0.1-0.1,0.1-0.2,0.1-0.3c0-0.9-0.2-1.5-0.5-2c-0.4-0.5-0.9-0.7-1.6-0.7
	c-0.8,0-1.4,0.2-1.8,0.7c-0.4,0.5-0.6,1.2-0.6,2.1c0,0.9,0.2,1.6,0.6,2C69.8,101.1,70.4,101.4,71.3,101.4L71.3,101.4L71.3,101.4z
	 M69.7,98.2c0.1-1.1,0.6-1.6,1.4-1.6c0.8,0,1.2,0.5,1.2,1.6H69.7L69.7,98.2z M78.6,101l-2.1-2.5l1.9-2.3c0.1-0.1,0.1-0.1,0.1-0.2
	c0,0,0-0.1-0.1-0.1c-0.1,0-0.2,0-0.3,0h0c-0.3,0-0.5,0-0.5,0.1l-2,2.3h0v-4.6c0-0.2-0.1-0.2-0.4-0.2h0c-0.3,0-0.4,0.1-0.4,0.2v7.3
	c0,0.2,0.1,0.2,0.4,0.2h0c0.3,0,0.4-0.1,0.4-0.2v-2.3h0l2,2.4c0,0.1,0.1,0.1,0.2,0.1c0.1,0,0.2,0,0.3,0h0c0.2,0,0.3,0,0.3,0
	c0.1,0,0.1-0.1,0.1-0.1C78.7,101.1,78.6,101.1,78.6,101L78.6,101L78.6,101z M81,101.4c0.3,0,0.6-0.1,0.9-0.2
	c0.3-0.1,0.5-0.3,0.7-0.6c0.2-0.2,0.2-0.5,0.2-0.8c0-0.3,0-0.6-0.1-0.8c-0.1-0.2-0.3-0.4-0.5-0.5c-0.2-0.1-0.6-0.3-1-0.4
	c-0.3-0.1-0.5-0.2-0.6-0.3c-0.1-0.1-0.2-0.3-0.2-0.6c0-0.2,0.1-0.4,0.3-0.5c0.2-0.1,0.4-0.2,0.7-0.2c0.3,0,0.5,0,0.7,0.1
	c0.2,0.1,0.3,0.1,0.3,0.1c0.1,0,0.1-0.1,0.2-0.2c0.1-0.1,0.1-0.3,0.1-0.3c0-0.1-0.1-0.2-0.4-0.3c-0.3-0.1-0.6-0.1-0.9-0.1
	c-0.3,0-0.6,0.1-0.9,0.2c-0.3,0.1-0.5,0.3-0.6,0.5c-0.1,0.2-0.2,0.5-0.2,0.8c0,0.4,0.1,0.7,0.3,0.9c0.2,0.2,0.6,0.4,1.1,0.6
	c0.4,0.1,0.6,0.2,0.8,0.4c0.2,0.1,0.2,0.3,0.2,0.6c0,0.6-0.3,0.8-1,0.8c-0.2,0-0.4,0-0.6-0.1c-0.2-0.1-0.3-0.1-0.4-0.2
	c-0.1-0.1-0.2-0.1-0.2-0.1c-0.1,0-0.1,0.1-0.2,0.2c-0.1,0.1-0.1,0.2-0.1,0.3c0,0.1,0.1,0.2,0.2,0.3c0.1,0.1,0.3,0.2,0.6,0.3
	C80.5,101.4,80.7,101.4,81,101.4L81,101.4L81,101.4z M85.7,101.4c0.5,0,0.7-0.1,0.7-0.3c0-0.1,0-0.2-0.1-0.3c0-0.1-0.1-0.2-0.2-0.2
	c0,0-0.1,0-0.1,0c-0.1,0-0.2,0-0.3,0c-0.2,0-0.3-0.1-0.4-0.2c-0.1-0.1-0.1-0.3-0.1-0.6v-3.2h0.9c0.1,0,0.1,0,0.2-0.1
	c0,0,0-0.1,0-0.2v-0.1c0-0.1,0-0.2,0-0.2c0,0-0.1-0.1-0.2-0.1h-0.9v-1.1c0-0.2-0.1-0.2-0.3-0.2h-0.1c-0.2,0-0.3,0.1-0.3,0.2L84.4,96
	h-0.5c-0.1,0-0.1,0-0.2,0.1c0,0-0.1,0.1-0.1,0.2v0.1c0,0.1,0,0.2,0.1,0.2c0,0,0.1,0.1,0.2,0.1h0.5v3.3c0,0.5,0.1,0.9,0.4,1.1
	C85,101.3,85.4,101.4,85.7,101.4L85.7,101.4L85.7,101.4z M92.5,101.4c0.4,0,0.8-0.1,1.1-0.3c0.3-0.2,0.5-0.6,0.7-1
	c0.2-0.4,0.2-0.9,0.2-1.4c0-0.6-0.1-1.1-0.3-1.5c-0.2-0.4-0.4-0.7-0.7-0.9c-0.3-0.2-0.7-0.3-1.1-0.3c-0.3,0-0.6,0-0.8,0.1
	c-0.2,0.1-0.5,0.2-0.7,0.4v-2.6c0-0.2-0.1-0.2-0.4-0.2h0c-0.3,0-0.4,0.1-0.4,0.2v7.3c0,0.2,0.1,0.2,0.3,0.2h0c0.2,0,0.2,0,0.3-0.1
	c0.1-0.2,0.1-0.4,0.2-0.6C91.4,101.1,91.9,101.4,92.5,101.4L92.5,101.4L92.5,101.4z M92.3,100.6c-0.2,0-0.5-0.1-0.7-0.2
	c-0.2-0.1-0.5-0.3-0.7-0.5v-2.8c0.2-0.1,0.4-0.3,0.6-0.3c0.2-0.1,0.4-0.1,0.7-0.1c0.5,0,0.8,0.2,1,0.5c0.2,0.3,0.3,0.8,0.3,1.4
	c0,0.7-0.1,1.2-0.3,1.5C93.1,100.4,92.8,100.6,92.3,100.6L92.3,100.6L92.3,100.6z M97.5,101.4c0.3,0,0.6-0.1,0.8-0.2
	c0.3-0.1,0.5-0.3,0.7-0.6c0,0,0,0.1,0,0.2c0,0.1,0.1,0.2,0.1,0.3c0,0.1,0.1,0.2,0.2,0.2c0.1,0,0.2,0,0.4-0.1c0.1,0,0.2-0.1,0.2-0.2
	c0,0,0-0.1-0.1-0.3c0-0.2-0.1-0.5-0.1-1v-3.6c0-0.2-0.1-0.2-0.4-0.2h0c-0.3,0-0.4,0.1-0.4,0.2v3.7c-0.2,0.2-0.4,0.4-0.6,0.5
	c-0.2,0.1-0.5,0.2-0.7,0.2c-0.3,0-0.6-0.1-0.8-0.3c-0.2-0.2-0.3-0.4-0.3-0.7v-3.5c0-0.2-0.1-0.2-0.4-0.2h0c-0.3,0-0.4,0.1-0.4,0.2
	v3.6c0,0.5,0.1,0.9,0.4,1.2C96.6,101.2,97,101.4,97.5,101.4L97.5,101.4L97.5,101.4z M102.1,95c0.3,0,0.5-0.1,0.5-0.2v-0.6
	c0-0.2-0.2-0.2-0.5-0.2c-0.3,0-0.5,0.1-0.5,0.2v0.6C101.7,94.9,101.8,95,102.1,95L102.1,95L102.1,95z M102.1,101.3L102.1,101.3
	c0.3,0,0.5-0.1,0.5-0.2v-4.9c0-0.2-0.1-0.2-0.4-0.2h0c-0.3,0-0.4,0.1-0.4,0.2v4.9C101.7,101.3,101.8,101.3,102.1,101.3L102.1,101.3
	L102.1,101.3z M105.9,101.4c0.5,0,0.7-0.1,0.7-0.3c0-0.1,0-0.2-0.1-0.3c0-0.1-0.1-0.2-0.2-0.2c0,0-0.1,0-0.1,0c-0.1,0-0.2,0-0.3,0
	c-0.2,0-0.3-0.1-0.4-0.2c-0.1-0.1-0.1-0.3-0.1-0.6v-3.2h0.9c0.1,0,0.1,0,0.2-0.1c0,0,0-0.1,0-0.2v-0.1c0-0.1,0-0.2,0-0.2
	c0,0-0.1-0.1-0.2-0.1h-0.9v-1.1c0-0.2-0.1-0.2-0.3-0.2H105c-0.2,0-0.3,0.1-0.3,0.2l-0.1,1.1h-0.5c-0.1,0-0.1,0-0.2,0.1
	c0,0-0.1,0.1-0.1,0.2v0.1c0,0.1,0,0.2,0.1,0.2c0,0,0.1,0.1,0.2,0.1h0.5v3.3c0,0.5,0.1,0.9,0.4,1.1
	C105.2,101.3,105.6,101.4,105.9,101.4L105.9,101.4L105.9,101.4z M110.1,101.4c0.3,0,0.6,0,0.9-0.1c0.3-0.1,0.5-0.2,0.7-0.3
	c0.2-0.1,0.3-0.2,0.3-0.3c0-0.1,0-0.2-0.1-0.3c-0.1-0.1-0.2-0.2-0.2-0.2c0,0-0.1,0-0.2,0.1c-0.1,0.1-0.3,0.1-0.5,0.2
	c-0.2,0.1-0.5,0.1-0.7,0.1c-0.5,0-0.9-0.1-1.1-0.4c-0.3-0.3-0.4-0.7-0.4-1.2h3.2c0.1,0,0.1-0.1,0.2-0.2c0.1-0.1,0.1-0.2,0.1-0.3
	c0-0.9-0.2-1.5-0.5-2c-0.4-0.5-0.9-0.7-1.6-0.7c-0.8,0-1.4,0.2-1.8,0.7c-0.4,0.5-0.6,1.2-0.6,2.1c0,0.9,0.2,1.6,0.6,2
	C108.6,101.1,109.2,101.4,110.1,101.4L110.1,101.4L110.1,101.4z M108.5,98.2c0.1-1.1,0.6-1.6,1.4-1.6c0.8,0,1.2,0.5,1.2,1.6H108.5
	L108.5,98.2z M113.8,101.3L113.8,101.3c0.3,0,0.5-0.1,0.5-0.2v-3.7c0.2-0.2,0.4-0.4,0.6-0.5c0.2-0.1,0.5-0.2,0.7-0.2
	c0.3,0,0.6,0.1,0.8,0.3c0.2,0.2,0.3,0.4,0.3,0.7v3.5c0,0.2,0.1,0.2,0.4,0.2h0c0.3,0,0.4-0.1,0.4-0.2v-3.6c0-0.5-0.1-0.9-0.4-1.2
	c-0.3-0.3-0.7-0.4-1.2-0.4c-0.3,0-0.6,0.1-0.8,0.2c-0.3,0.1-0.5,0.3-0.7,0.6c0,0,0-0.1,0-0.2c0-0.1-0.1-0.2-0.1-0.3
	c0-0.1-0.1-0.1-0.2-0.1c-0.1,0-0.2,0-0.4,0.1c-0.1,0-0.2,0.1-0.2,0.2c0,0,0,0.1,0.1,0.3c0,0.2,0.1,0.5,0.1,1v3.6
	C113.4,101.3,113.5,101.3,113.8,101.3L113.8,101.3L113.8,101.3z M123.7,101.4c0.3,0,0.6,0,0.9-0.1c0.3-0.1,0.5-0.2,0.7-0.3
	c0.2-0.1,0.3-0.2,0.3-0.3c0-0.1,0-0.2-0.1-0.3c-0.1-0.1-0.2-0.2-0.2-0.2c0,0-0.1,0-0.2,0.1c-0.1,0.1-0.3,0.1-0.5,0.2
	c-0.2,0.1-0.5,0.1-0.7,0.1c-0.5,0-0.9-0.1-1.1-0.4c-0.3-0.3-0.4-0.7-0.4-1.2h3.2c0.1,0,0.1-0.1,0.2-0.2c0.1-0.1,0.1-0.2,0.1-0.3
	c0-0.9-0.2-1.5-0.5-2c-0.4-0.5-0.9-0.7-1.6-0.7c-0.8,0-1.4,0.2-1.8,0.7c-0.4,0.5-0.6,1.2-0.6,2.1c0,0.9,0.2,1.6,0.6,2
	C122.2,101.1,122.9,101.4,123.7,101.4L123.7,101.4L123.7,101.4z M122.1,98.2c0.1-1.1,0.6-1.6,1.4-1.6c0.8,0,1.2,0.5,1.2,1.6H122.1
	L122.1,98.2z M129.3,101.4c0.3,0,0.6,0,0.9-0.1c0.3-0.1,0.5-0.2,0.7-0.3c0.2-0.1,0.3-0.2,0.3-0.3c0-0.1,0-0.2-0.1-0.3
	c-0.1-0.1-0.2-0.2-0.2-0.2c0,0-0.1,0-0.2,0.1c-0.1,0.1-0.3,0.1-0.5,0.2c-0.2,0.1-0.5,0.1-0.7,0.1c-0.5,0-0.9-0.1-1.1-0.4
	c-0.3-0.3-0.4-0.7-0.4-1.2h3.2c0.1,0,0.1-0.1,0.2-0.2c0.1-0.1,0.1-0.2,0.1-0.3c0-0.9-0.2-1.5-0.5-2c-0.4-0.5-0.9-0.7-1.6-0.7
	c-0.8,0-1.4,0.2-1.8,0.7c-0.4,0.5-0.6,1.2-0.6,2.1c0,0.9,0.2,1.6,0.6,2C127.8,101.1,128.4,101.4,129.3,101.4L129.3,101.4
	L129.3,101.4z M127.7,98.2c0.1-1.1,0.6-1.6,1.4-1.6c0.8,0,1.2,0.5,1.2,1.6H127.7L127.7,98.2z M133,101.3L133,101.3
	c0.3,0,0.5-0.1,0.5-0.2v-3.7c0.2-0.2,0.4-0.4,0.6-0.5c0.2-0.1,0.5-0.2,0.7-0.2c0.3,0,0.6,0.1,0.8,0.3c0.2,0.2,0.3,0.4,0.3,0.7v3.5
	c0,0.2,0.1,0.2,0.4,0.2h0c0.3,0,0.4-0.1,0.4-0.2v-3.6c0-0.5-0.1-0.9-0.4-1.2c-0.3-0.3-0.7-0.4-1.2-0.4c-0.3,0-0.6,0.1-0.8,0.2
	c-0.3,0.1-0.5,0.3-0.7,0.6c0,0,0-0.1,0-0.2c0-0.1-0.1-0.2-0.1-0.3c0-0.1-0.1-0.1-0.2-0.1c-0.1,0-0.2,0-0.4,0.1
	c-0.1,0-0.2,0.1-0.2,0.2c0,0,0,0.1,0.1,0.3c0,0.2,0.1,0.5,0.1,1v3.6C132.6,101.3,132.7,101.3,133,101.3L133,101.3L133,101.3z
	 M142.3,101.4c0.5,0,0.7-0.1,0.7-0.3c0-0.1,0-0.2-0.1-0.3c0-0.1-0.1-0.2-0.2-0.2c0,0-0.1,0-0.1,0c-0.1,0-0.2,0-0.3,0
	c-0.2,0-0.3-0.1-0.4-0.2c-0.1-0.1-0.1-0.3-0.1-0.6v-3.2h0.9c0.1,0,0.1,0,0.2-0.1c0,0,0-0.1,0-0.2v-0.1c0-0.1,0-0.2,0-0.2
	c0,0-0.1-0.1-0.2-0.1h-0.9v-1.1c0-0.2-0.1-0.2-0.3-0.2h-0.1c-0.2,0-0.3,0.1-0.3,0.2L141,96h-0.5c-0.1,0-0.1,0-0.2,0.1
	c0,0-0.1,0.1-0.1,0.2v0.1c0,0.1,0,0.2,0.1,0.2c0,0,0.1,0.1,0.2,0.1h0.5v3.3c0,0.5,0.1,0.9,0.4,1.1
	C141.6,101.3,141.9,101.4,142.3,101.4L142.3,101.4L142.3,101.4z M146.4,101.4c0.3,0,0.6,0,0.9-0.1c0.3-0.1,0.5-0.2,0.7-0.3
	c0.2-0.1,0.3-0.2,0.3-0.3c0-0.1,0-0.2-0.1-0.3c-0.1-0.1-0.2-0.2-0.2-0.2c0,0-0.1,0-0.2,0.1c-0.1,0.1-0.3,0.1-0.5,0.2
	c-0.2,0.1-0.5,0.1-0.7,0.1c-0.5,0-0.9-0.1-1.1-0.4c-0.3-0.3-0.4-0.7-0.4-1.2h3.2c0.1,0,0.1-0.1,0.2-0.2c0.1-0.1,0.1-0.2,0.1-0.3
	c0-0.9-0.2-1.5-0.5-2c-0.4-0.5-0.9-0.7-1.6-0.7c-0.8,0-1.4,0.2-1.8,0.7c-0.4,0.5-0.6,1.2-0.6,2.1c0,0.9,0.2,1.6,0.6,2
	C145,101.1,145.6,101.4,146.4,101.4L146.4,101.4L146.4,101.4z M144.8,98.2c0.1-1.1,0.6-1.6,1.4-1.6c0.8,0,1.2,0.5,1.2,1.6H144.8
	L144.8,98.2z M153.7,101l-2.1-2.5l1.9-2.3c0.1-0.1,0.1-0.1,0.1-0.2c0,0,0-0.1-0.1-0.1c-0.1,0-0.2,0-0.3,0h0c-0.3,0-0.5,0-0.5,0.1
	l-2,2.3h0v-4.6c0-0.2-0.1-0.2-0.4-0.2h0c-0.3,0-0.4,0.1-0.4,0.2v7.3c0,0.2,0.1,0.2,0.4,0.2h0c0.3,0,0.4-0.1,0.4-0.2v-2.3h0l2,2.4
	c0,0.1,0.1,0.1,0.2,0.1c0.1,0,0.2,0,0.3,0h0c0.2,0,0.3,0,0.3,0c0.1,0,0.1-0.1,0.1-0.1C153.8,101.1,153.8,101.1,153.7,101L153.7,101
	L153.7,101z M156.2,101.4c0.3,0,0.6-0.1,0.9-0.2c0.3-0.1,0.5-0.3,0.7-0.6c0.2-0.2,0.2-0.5,0.2-0.8c0-0.3,0-0.6-0.1-0.8
	c-0.1-0.2-0.3-0.4-0.5-0.5c-0.2-0.1-0.6-0.3-1-0.4c-0.3-0.1-0.5-0.2-0.6-0.3c-0.1-0.1-0.2-0.3-0.2-0.6c0-0.2,0.1-0.4,0.3-0.5
	c0.2-0.1,0.4-0.2,0.7-0.2c0.3,0,0.5,0,0.7,0.1c0.2,0.1,0.3,0.1,0.3,0.1c0.1,0,0.1-0.1,0.2-0.2c0.1-0.1,0.1-0.3,0.1-0.3
	c0-0.1-0.1-0.2-0.4-0.3c-0.3-0.1-0.6-0.1-0.9-0.1c-0.3,0-0.6,0.1-0.9,0.2c-0.3,0.1-0.5,0.3-0.6,0.5c-0.1,0.2-0.2,0.5-0.2,0.8
	c0,0.4,0.1,0.7,0.3,0.9c0.2,0.2,0.6,0.4,1.1,0.6c0.4,0.1,0.6,0.2,0.8,0.4c0.2,0.1,0.2,0.3,0.2,0.6c0,0.6-0.3,0.8-1,0.8
	c-0.2,0-0.4,0-0.6-0.1c-0.2-0.1-0.3-0.1-0.4-0.2c-0.1-0.1-0.2-0.1-0.2-0.1c-0.1,0-0.1,0.1-0.2,0.2c-0.1,0.1-0.1,0.2-0.1,0.3
	c0,0.1,0.1,0.2,0.2,0.3c0.1,0.1,0.3,0.2,0.6,0.3C155.6,101.4,155.9,101.4,156.2,101.4L156.2,101.4L156.2,101.4z M160.9,101.4
	c0.5,0,0.7-0.1,0.7-0.3c0-0.1,0-0.2-0.1-0.3c0-0.1-0.1-0.2-0.2-0.2c0,0-0.1,0-0.1,0c-0.1,0-0.2,0-0.3,0c-0.2,0-0.3-0.1-0.4-0.2
	c-0.1-0.1-0.1-0.3-0.1-0.6v-3.2h0.9c0.1,0,0.1,0,0.2-0.1c0,0,0-0.1,0-0.2v-0.1c0-0.1,0-0.2,0-0.2c0,0-0.1-0.1-0.2-0.1h-0.9v-1.1
	c0-0.2-0.1-0.2-0.3-0.2H160c-0.2,0-0.3,0.1-0.3,0.2l-0.1,1.1H159c-0.1,0-0.1,0-0.2,0.1c0,0-0.1,0.1-0.1,0.2v0.1c0,0.1,0,0.2,0.1,0.2
	c0,0,0.1,0.1,0.2,0.1h0.5v3.3c0,0.5,0.1,0.9,0.4,1.1C160.2,101.3,160.5,101.4,160.9,101.4L160.9,101.4L160.9,101.4z M164.3,101.3
	h0.4c0.2,0,0.4-0.1,0.4-0.2l1.6-4.9c0-0.1,0-0.1,0-0.1c0-0.1-0.1-0.2-0.4-0.2h0c-0.2,0-0.4,0.1-0.4,0.2l-1.1,3.3
	c-0.1,0.2-0.2,0.6-0.2,1l-0.1,0.3h0c-0.2-0.6-0.3-1.1-0.4-1.3l-1-3.3c0-0.1-0.2-0.2-0.4-0.2h-0.1c-0.3,0-0.4,0.1-0.4,0.2
	c0,0,0,0.1,0,0.1l1.6,4.9C163.9,101.3,164,101.3,164.3,101.3L164.3,101.3L164.3,101.3z M170,101.4c0.3,0,0.6,0,0.9-0.1
	c0.3-0.1,0.5-0.2,0.7-0.3c0.2-0.1,0.3-0.2,0.3-0.3c0-0.1,0-0.2-0.1-0.3c-0.1-0.1-0.2-0.2-0.2-0.2c0,0-0.1,0-0.2,0.1
	c-0.1,0.1-0.3,0.1-0.5,0.2c-0.2,0.1-0.5,0.1-0.7,0.1c-0.5,0-0.9-0.1-1.1-0.4c-0.3-0.3-0.4-0.7-0.4-1.2h3.2c0.1,0,0.1-0.1,0.2-0.2
	c0.1-0.1,0.1-0.2,0.1-0.3c0-0.9-0.2-1.5-0.5-2c-0.4-0.5-0.9-0.7-1.6-0.7c-0.8,0-1.4,0.2-1.8,0.7c-0.4,0.5-0.6,1.2-0.6,2.1
	c0,0.9,0.2,1.6,0.6,2C168.5,101.1,169.1,101.4,170,101.4L170,101.4L170,101.4z M168.4,98.2c0.1-1.1,0.6-1.6,1.4-1.6
	c0.8,0,1.2,0.5,1.2,1.6H168.4L168.4,98.2z M174.6,101.4c0.5,0,0.7-0.1,0.7-0.3c0-0.1,0-0.2-0.1-0.3c0-0.1-0.1-0.2-0.2-0.2
	c0,0-0.1,0-0.1,0c-0.1,0-0.2,0-0.3,0c-0.2,0-0.3-0.1-0.4-0.2c-0.1-0.1-0.1-0.3-0.1-0.6v-6c0-0.2-0.1-0.2-0.4-0.2h0
	c-0.3,0-0.4,0.1-0.4,0.2v6.1c0,0.5,0.1,0.9,0.4,1.1C173.9,101.3,174.3,101.4,174.6,101.4L174.6,101.4L174.6,101.4z M178,101.4
	c0.6,0,1.1-0.3,1.6-0.8c0,0,0,0.1,0,0.2c0,0.1,0.1,0.2,0.1,0.3c0,0.1,0.1,0.2,0.2,0.2c0.1,0,0.2,0,0.4-0.1c0.1,0,0.2-0.1,0.2-0.2
	c0,0,0-0.1-0.1-0.3c0-0.2-0.1-0.5-0.1-1v-6c0-0.2-0.1-0.2-0.4-0.2h0c-0.3,0-0.4,0.1-0.4,0.2v2.6c-0.2-0.2-0.4-0.3-0.7-0.4
	c-0.2-0.1-0.5-0.1-0.8-0.1c-0.4,0-0.8,0.1-1.1,0.3c-0.3,0.2-0.6,0.5-0.7,0.9c-0.2,0.4-0.3,0.9-0.3,1.5c0,0.5,0.1,1,0.2,1.4
	c0.2,0.4,0.4,0.7,0.7,1C177.2,101.3,177.6,101.4,178,101.4L178,101.4L178,101.4z M178.2,100.6c-0.4,0-0.7-0.2-0.9-0.5
	c-0.2-0.4-0.3-0.9-0.3-1.5c0-0.6,0.1-1.1,0.3-1.4c0.2-0.3,0.6-0.5,1-0.5c0.5,0,0.9,0.2,1.3,0.5v2.8c-0.2,0.2-0.4,0.4-0.7,0.5
	C178.6,100.6,178.4,100.6,178.2,100.6L178.2,100.6L178.2,100.6z M182.2,101.3h0.2c0.3,0,0.4-0.1,0.4-0.2v-0.7c0-0.2-0.1-0.2-0.4-0.2
	h-0.2c-0.3,0-0.4,0.1-0.4,0.2v0.7C181.8,101.3,181.9,101.3,182.2,101.3L182.2,101.3L182.2,101.3z"/>
<path class="st11" d="M303.4,160.5H23c-1.7,0-3.2-1.4-3.2-3.2v-18.1c0-1.7,1.4-3.2,3.2-3.2h280.4c1.7,0,3.2,1.4,3.2,3.2v18.1
	C306.6,159.1,305.2,160.5,303.4,160.5z"/>
<g>
</g>
<g>
</g>
<g>
</g>
<g>
</g>
<g>
</g>
<g>
</g>
</svg>
