<?xml version="1.0" encoding="utf-8"?>
<!-- Generator: Adobe Illustrator 23.1.1, SVG Export Plug-In . SVG Version: 6.00 Build 0)  -->
<svg version="1.1" id="Layer_1" xmlns="http://www.w3.org/2000/svg" xmlns:xlink="http://www.w3.org/1999/xlink" x="0px" y="0px"
	 viewBox="0 0 650 320" style="enable-background:new 0 0 650 320;" xml:space="preserve">
<style type="text/css">
	.st0{clip-path:url(#SVGID_2_);fill:#F4D6DA;}
	.st1{fill:#161616;}
	.st2{clip-path:url(#SVGID_4_);}
	.st3{clip-path:url(#SVGID_6_);}
	.st4{clip-path:url(#SVGID_8_);fill:#F4D6DA;}
	.st5{clip-path:url(#SVGID_10_);}
	.st6{clip-path:url(#SVGID_13_);}
	.st7{clip-path:url(#SVGID_14_);fill:#CB3C51;}
	.st8{clip-path:url(#SVGID_17_);}
	.st9{clip-path:url(#SVGID_18_);fill:#FFFFFF;}
	.st10{clip-path:url(#SVGID_21_);}
	.st11{clip-path:url(#SVGID_22_);fill:#FFFFFF;}
	.st12{clip-path:url(#SVGID_25_);}
	.st13{clip-path:url(#SVGID_26_);fill:#CB3C51;}
	.st14{clip-path:url(#SVGID_29_);}
	.st15{clip-path:url(#SVGID_30_);fill:#FFFFFF;}
	.st16{clip-path:url(#SVGID_33_);}
	.st17{clip-path:url(#SVGID_34_);fill:#FFFFFF;}
	.st18{fill:none;stroke:#666666;stroke-width:0.9921;stroke-miterlimit:10;}
</style>
<g>
</g>
<g>
	<defs>
		<rect id="SVGID_1_" x="19.5" y="94.9" width="353.3" height="83.1"/>
	</defs>
	<clipPath id="SVGID_2_">
		<use xlink:href="#SVGID_1_"  style="overflow:visible;"/>
	</clipPath>
	<rect x="16.3" y="91.6" class="st0" width="359.8" height="89.6"/>
</g>
<path class="st1" d="M62.4,119.5H66c0.1,0,0.1,0,0.2-0.1c0,0,0-0.1,0-0.2v-0.2c0-0.1,0-0.2,0-0.2c0,0-0.1-0.1-0.2-0.1h-3v-2.5h2.7
	c0.1,0,0.1,0,0.2-0.1c0,0,0-0.1,0-0.2v-0.2c0-0.1,0-0.2,0-0.2c0,0-0.1-0.1-0.2-0.1H63v-2.4h3c0.1,0,0.1,0,0.2-0.1c0,0,0-0.1,0-0.2
	v-0.2c0-0.1,0-0.2,0-0.2c0,0-0.1-0.1-0.2-0.1h-3.6c-0.1,0-0.2,0-0.2,0.1c0,0-0.1,0.1-0.1,0.2v6.7c0,0.1,0,0.2,0.1,0.2
	C62.2,119.5,62.3,119.5,62.4,119.5L62.4,119.5L62.4,119.5z M69.9,119.6c0.3,0,0.6,0,0.9-0.1c0.3-0.1,0.5-0.2,0.7-0.3
	c0.2-0.1,0.3-0.2,0.3-0.3c0-0.1,0-0.2-0.1-0.3c-0.1-0.1-0.2-0.2-0.2-0.2c0,0-0.1,0-0.2,0.1c-0.1,0.1-0.3,0.1-0.5,0.2
	c-0.2,0.1-0.5,0.1-0.8,0.1c-0.5,0-0.9-0.1-1.2-0.4c-0.3-0.3-0.4-0.7-0.4-1.3h3.3c0.1,0,0.1-0.1,0.2-0.2c0.1-0.1,0.1-0.2,0.1-0.3
	c0-0.9-0.2-1.6-0.5-2c-0.4-0.5-0.9-0.7-1.6-0.7c-0.8,0-1.4,0.2-1.8,0.7c-0.4,0.5-0.6,1.2-0.6,2.1c0,0.9,0.2,1.6,0.6,2.1
	C68.4,119.4,69,119.6,69.9,119.6L69.9,119.6L69.9,119.6z M68.2,116.4c0.1-1.1,0.6-1.6,1.5-1.6c0.8,0,1.2,0.5,1.2,1.6H68.2
	L68.2,116.4z M73.7,119.6L73.7,119.6c0.3,0,0.5-0.1,0.5-0.2v-3.8c0.2-0.2,0.4-0.4,0.6-0.5c0.2-0.1,0.5-0.2,0.7-0.2
	c0.3,0,0.6,0.1,0.8,0.3c0.2,0.2,0.3,0.4,0.3,0.7v3.5c0,0.2,0.1,0.2,0.4,0.2h0c0.3,0,0.4-0.1,0.4-0.2v-3.6c0-0.5-0.2-0.9-0.5-1.2
	c-0.3-0.3-0.7-0.4-1.2-0.4c-0.3,0-0.6,0.1-0.9,0.2c-0.3,0.1-0.5,0.3-0.8,0.6c0,0,0-0.1,0-0.2c0-0.1-0.1-0.2-0.1-0.3
	c0-0.1-0.1-0.2-0.2-0.2c-0.1,0-0.2,0-0.4,0.1c-0.1,0-0.2,0.1-0.2,0.2c0,0,0,0.1,0.1,0.3c0,0.2,0.1,0.5,0.1,1v3.6
	C73.2,119.5,73.4,119.6,73.7,119.6L73.7,119.6L73.7,119.6z M82.9,119.6c0.7,0,1.3-0.3,1.7-0.8c0,0,0,0.1,0,0.2
	c0,0.1,0.1,0.2,0.1,0.3c0,0.1,0.1,0.2,0.2,0.2c0.1,0,0.2,0,0.4-0.1c0.1,0,0.2-0.1,0.2-0.2c0,0,0-0.1-0.1-0.3c0-0.2-0.1-0.5-0.1-1
	v-2.3c0-0.5-0.2-0.9-0.5-1.2c-0.4-0.3-0.9-0.4-1.5-0.4c-0.3,0-0.6,0-0.9,0.1c-0.3,0.1-0.5,0.2-0.7,0.3c-0.2,0.1-0.3,0.2-0.3,0.3
	c0,0.1,0,0.2,0.1,0.3c0.1,0.1,0.2,0.2,0.2,0.2c0,0,0.1,0,0.2-0.1c0.2-0.1,0.3-0.1,0.6-0.2c0.2-0.1,0.5-0.1,0.8-0.1
	c0.4,0,0.7,0.1,0.9,0.2c0.2,0.2,0.3,0.4,0.3,0.6v0.5c-0.7,0-1.3,0.1-1.7,0.1c-0.5,0.1-0.9,0.3-1.2,0.5c-0.3,0.3-0.5,0.7-0.5,1.2
	c0,0.5,0.2,0.9,0.5,1.2C81.9,119.5,82.4,119.6,82.9,119.6L82.9,119.6L82.9,119.6z M83,118.8c-0.3,0-0.5-0.1-0.7-0.2
	c-0.1-0.1-0.2-0.4-0.2-0.6c0-0.3,0.1-0.6,0.4-0.7c0.2-0.2,0.5-0.3,0.9-0.3c0.3,0,0.8-0.1,1.3-0.1v1.2c-0.3,0.2-0.5,0.4-0.8,0.5
	C83.6,118.8,83.3,118.8,83,118.8L83,118.8L83,118.8z M88.6,119.6c0.7,0,1.3-0.3,1.7-0.8c0,0,0,0.1,0,0.2c0,0.1,0.1,0.2,0.1,0.3
	c0,0.1,0.1,0.2,0.2,0.2c0.1,0,0.2,0,0.4-0.1c0.1,0,0.2-0.1,0.2-0.2c0,0,0-0.1-0.1-0.3c0-0.2-0.1-0.5-0.1-1v-2.3
	c0-0.5-0.2-0.9-0.5-1.2c-0.4-0.3-0.9-0.4-1.5-0.4c-0.3,0-0.6,0-0.9,0.1c-0.3,0.1-0.5,0.2-0.7,0.3c-0.2,0.1-0.3,0.2-0.3,0.3
	c0,0.1,0,0.2,0.1,0.3c0.1,0.1,0.2,0.2,0.2,0.2c0,0,0.1,0,0.2-0.1c0.2-0.1,0.3-0.1,0.6-0.2c0.2-0.1,0.5-0.1,0.8-0.1
	c0.4,0,0.7,0.1,0.9,0.2c0.2,0.2,0.3,0.4,0.3,0.6v0.5c-0.7,0-1.3,0.1-1.7,0.1c-0.5,0.1-0.9,0.3-1.2,0.5c-0.3,0.3-0.5,0.7-0.5,1.2
	c0,0.5,0.2,0.9,0.5,1.2C87.6,119.5,88,119.6,88.6,119.6L88.6,119.6L88.6,119.6z M88.6,118.8c-0.3,0-0.5-0.1-0.7-0.2
	c-0.1-0.1-0.2-0.4-0.2-0.6c0-0.3,0.1-0.6,0.4-0.7c0.2-0.2,0.5-0.3,0.9-0.3c0.3,0,0.8-0.1,1.3-0.1v1.2c-0.3,0.2-0.5,0.4-0.8,0.5
	C89.2,118.8,89,118.8,88.6,118.8L88.6,118.8L88.6,118.8z M93.3,119.6L93.3,119.6c0.3,0,0.5-0.1,0.5-0.2v-3.8
	c0.2-0.2,0.4-0.4,0.6-0.5c0.2-0.1,0.5-0.2,0.7-0.2c0.3,0,0.6,0.1,0.8,0.3c0.2,0.2,0.3,0.4,0.3,0.7v3.5c0,0.2,0.1,0.2,0.4,0.2h0
	c0.3,0,0.4-0.1,0.4-0.2v-3.6c0-0.5-0.2-0.9-0.5-1.2c-0.3-0.3-0.7-0.4-1.2-0.4c-0.3,0-0.6,0.1-0.9,0.2c-0.3,0.1-0.5,0.3-0.8,0.6
	c0,0,0-0.1,0-0.2c0-0.1-0.1-0.2-0.1-0.3c0-0.1-0.1-0.2-0.2-0.2c-0.1,0-0.2,0-0.4,0.1c-0.1,0-0.2,0.1-0.2,0.2c0,0,0,0.1,0.1,0.3
	c0,0.2,0.1,0.5,0.1,1v3.6C92.8,119.5,93,119.6,93.3,119.6L93.3,119.6L93.3,119.6z M100.2,119.6c0.5,0,0.8-0.1,0.8-0.3
	c0-0.1,0-0.2-0.1-0.3c0-0.1-0.1-0.2-0.2-0.2c0,0-0.1,0-0.2,0c-0.1,0-0.2,0-0.3,0c-0.2,0-0.3-0.1-0.4-0.2c-0.1-0.1-0.2-0.3-0.2-0.6
	v-3.2h0.9c0.1,0,0.1,0,0.2-0.1c0,0,0-0.1,0-0.2v-0.1c0-0.1,0-0.2,0-0.2c0,0-0.1-0.1-0.2-0.1h-0.9V113c0-0.2-0.1-0.2-0.3-0.2h-0.1
	c-0.2,0-0.3,0.1-0.3,0.2l-0.1,1.1h-0.5c-0.1,0-0.1,0-0.2,0.1c0,0-0.1,0.1-0.1,0.2v0.1c0,0.1,0,0.2,0.1,0.2c0,0,0.1,0.1,0.2,0.1h0.5
	v3.3c0,0.5,0.1,0.9,0.4,1.1C99.5,119.5,99.8,119.6,100.2,119.6L100.2,119.6L100.2,119.6z M103.6,119.6c0.7,0,1.3-0.3,1.7-0.8
	c0,0,0,0.1,0,0.2c0,0.1,0.1,0.2,0.1,0.3c0,0.1,0.1,0.2,0.2,0.2c0.1,0,0.2,0,0.4-0.1c0.1,0,0.2-0.1,0.2-0.2c0,0,0-0.1-0.1-0.3
	c0-0.2-0.1-0.5-0.1-1v-2.3c0-0.5-0.2-0.9-0.5-1.2c-0.4-0.3-0.9-0.4-1.5-0.4c-0.3,0-0.6,0-0.9,0.1c-0.3,0.1-0.5,0.2-0.7,0.3
	c-0.2,0.1-0.3,0.2-0.3,0.3c0,0.1,0,0.2,0.1,0.3c0.1,0.1,0.2,0.2,0.2,0.2c0,0,0.1,0,0.2-0.1c0.2-0.1,0.3-0.1,0.6-0.2
	c0.2-0.1,0.5-0.1,0.8-0.1c0.4,0,0.7,0.1,0.9,0.2c0.2,0.2,0.3,0.4,0.3,0.6v0.5c-0.7,0-1.3,0.1-1.7,0.1c-0.5,0.1-0.9,0.3-1.2,0.5
	c-0.3,0.3-0.5,0.7-0.5,1.2c0,0.5,0.2,0.9,0.5,1.2C102.6,119.5,103,119.6,103.6,119.6L103.6,119.6L103.6,119.6z M103.6,118.8
	c-0.3,0-0.5-0.1-0.7-0.2c-0.1-0.1-0.2-0.4-0.2-0.6c0-0.3,0.1-0.6,0.4-0.7c0.2-0.2,0.5-0.3,0.9-0.3c0.3,0,0.8-0.1,1.3-0.1v1.2
	c-0.3,0.2-0.5,0.4-0.8,0.5C104.3,118.8,104,118.8,103.6,118.8L103.6,118.8L103.6,118.8z M109.1,119.6c0.5,0,0.8-0.1,0.8-0.3
	c0-0.1,0-0.2-0.1-0.3c0-0.1-0.1-0.2-0.2-0.2c0,0-0.1,0-0.2,0c-0.1,0-0.2,0-0.3,0c-0.2,0-0.3-0.1-0.4-0.2c-0.1-0.1-0.2-0.3-0.2-0.6
	V112c0-0.2-0.1-0.2-0.4-0.2h0c-0.3,0-0.4,0.1-0.4,0.2v6.2c0,0.5,0.1,0.9,0.4,1.1C108.5,119.5,108.8,119.6,109.1,119.6L109.1,119.6
	L109.1,119.6z M114.9,119.6h0.4c0.2,0,0.4-0.1,0.4-0.2l1.7-5c0-0.1,0-0.1,0-0.1c0-0.1-0.1-0.2-0.4-0.2h0c-0.2,0-0.4,0.1-0.4,0.2
	l-1.1,3.3c-0.1,0.2-0.2,0.6-0.2,1l-0.1,0.3h0c-0.2-0.6-0.3-1.1-0.4-1.3l-1.1-3.3c0-0.1-0.2-0.2-0.4-0.2h-0.1c-0.3,0-0.4,0.1-0.4,0.2
	c0,0,0,0.1,0,0.1l1.7,5C114.5,119.5,114.6,119.6,114.9,119.6L114.9,119.6L114.9,119.6z M120.7,119.6c0.3,0,0.6,0,0.9-0.1
	c0.3-0.1,0.5-0.2,0.7-0.3c0.2-0.1,0.3-0.2,0.3-0.3c0-0.1,0-0.2-0.1-0.3c-0.1-0.1-0.2-0.2-0.2-0.2c0,0-0.1,0-0.2,0.1
	c-0.1,0.1-0.3,0.1-0.5,0.2c-0.2,0.1-0.5,0.1-0.8,0.1c-0.5,0-0.9-0.1-1.2-0.4c-0.3-0.3-0.4-0.7-0.4-1.3h3.3c0.1,0,0.1-0.1,0.2-0.2
	c0.1-0.1,0.1-0.2,0.1-0.3c0-0.9-0.2-1.6-0.5-2c-0.4-0.5-0.9-0.7-1.6-0.7c-0.8,0-1.4,0.2-1.8,0.7c-0.4,0.5-0.6,1.2-0.6,2.1
	c0,0.9,0.2,1.6,0.6,2.1C119.2,119.4,119.8,119.6,120.7,119.6L120.7,119.6L120.7,119.6z M119.1,116.4c0.1-1.1,0.6-1.6,1.5-1.6
	c0.8,0,1.2,0.5,1.2,1.6H119.1L119.1,116.4z M125.4,119.6c0.5,0,0.8-0.1,0.8-0.3c0-0.1,0-0.2-0.1-0.3c0-0.1-0.1-0.2-0.2-0.2
	c0,0-0.1,0-0.2,0c-0.1,0-0.2,0-0.3,0c-0.2,0-0.3-0.1-0.4-0.2c-0.1-0.1-0.2-0.3-0.2-0.6V112c0-0.2-0.1-0.2-0.4-0.2h0
	c-0.3,0-0.4,0.1-0.4,0.2v6.2c0,0.5,0.1,0.9,0.4,1.1C124.7,119.5,125,119.6,125.4,119.6L125.4,119.6L125.4,119.6z M128.8,119.6
	c0.6,0,1.2-0.3,1.7-0.8c0,0,0,0.1,0,0.2c0,0.1,0.1,0.2,0.1,0.3c0,0.1,0.1,0.2,0.2,0.2c0.1,0,0.2,0,0.4-0.1c0.1,0,0.2-0.1,0.2-0.2
	c0,0,0-0.1-0.1-0.3c0-0.2-0.1-0.5-0.1-1v-6c0-0.2-0.1-0.2-0.4-0.2h0c-0.3,0-0.4,0.1-0.4,0.2v2.6c-0.2-0.2-0.4-0.3-0.7-0.4
	c-0.2-0.1-0.5-0.1-0.8-0.1c-0.4,0-0.8,0.1-1.1,0.3c-0.3,0.2-0.6,0.5-0.7,1c-0.2,0.4-0.3,0.9-0.3,1.5c0,0.5,0.1,1,0.2,1.4
	c0.2,0.4,0.4,0.8,0.7,1C128,119.5,128.4,119.6,128.8,119.6L128.8,119.6L128.8,119.6z M129,118.8c-0.4,0-0.7-0.2-0.9-0.5
	c-0.2-0.4-0.3-0.9-0.3-1.6c0-0.6,0.1-1.1,0.4-1.4c0.2-0.3,0.6-0.5,1-0.5c0.5,0,0.9,0.2,1.3,0.5v2.8c-0.2,0.2-0.4,0.4-0.7,0.5
	C129.5,118.8,129.2,118.8,129,118.8L129,118.8L129,118.8z M135.2,119.6c0.3,0,0.6,0,0.9-0.1c0.3-0.1,0.5-0.2,0.7-0.3
	c0.2-0.1,0.3-0.2,0.3-0.3c0-0.1,0-0.2-0.1-0.3c-0.1-0.1-0.2-0.2-0.2-0.2c0,0-0.1,0-0.2,0.1c-0.1,0.1-0.3,0.1-0.5,0.2
	c-0.2,0.1-0.5,0.1-0.8,0.1c-0.5,0-0.9-0.1-1.2-0.4c-0.3-0.3-0.4-0.7-0.4-1.3h3.3c0.1,0,0.1-0.1,0.2-0.2c0.1-0.1,0.1-0.2,0.1-0.3
	c0-0.9-0.2-1.6-0.5-2c-0.4-0.5-0.9-0.7-1.6-0.7c-0.8,0-1.4,0.2-1.8,0.7c-0.4,0.5-0.6,1.2-0.6,2.1c0,0.9,0.2,1.6,0.6,2.1
	C133.7,119.4,134.4,119.6,135.2,119.6L135.2,119.6L135.2,119.6z M133.6,116.4c0.1-1.1,0.6-1.6,1.5-1.6c0.8,0,1.2,0.5,1.2,1.6H133.6
	L133.6,116.4z M139,119.6L139,119.6c0.3,0,0.5-0.1,0.5-0.2v-3.8c0.2-0.2,0.4-0.4,0.6-0.5c0.2-0.1,0.5-0.2,0.7-0.2
	c0.3,0,0.6,0.1,0.8,0.3c0.2,0.2,0.3,0.4,0.3,0.7v3.5c0,0.2,0.1,0.2,0.4,0.2h0c0.3,0,0.4-0.1,0.4-0.2v-3.6c0-0.5-0.2-0.9-0.5-1.2
	c-0.3-0.3-0.7-0.4-1.2-0.4c-0.3,0-0.6,0.1-0.9,0.2c-0.3,0.1-0.5,0.3-0.8,0.6c0,0,0-0.1,0-0.2c0-0.1-0.1-0.2-0.1-0.3
	c0-0.1-0.1-0.2-0.2-0.2c-0.1,0-0.2,0-0.4,0.1c-0.1,0-0.2,0.1-0.2,0.2c0,0,0,0.1,0.1,0.3c0,0.2,0.1,0.5,0.1,1v3.6
	C138.6,119.5,138.8,119.6,139,119.6L139,119.6L139,119.6z M147.4,113.1c0.3,0,0.5-0.1,0.5-0.2v-0.6c0-0.2-0.2-0.2-0.5-0.2
	c-0.3,0-0.5,0.1-0.5,0.2v0.6C146.9,113.1,147.1,113.1,147.4,113.1L147.4,113.1L147.4,113.1z M147.4,119.6L147.4,119.6
	c0.3,0,0.5-0.1,0.5-0.2v-5c0-0.2-0.1-0.2-0.4-0.2h0c-0.3,0-0.4,0.1-0.4,0.2v5C147,119.5,147.1,119.6,147.4,119.6L147.4,119.6
	L147.4,119.6z M150.8,119.6c0.3,0,0.6-0.1,0.9-0.2c0.3-0.1,0.5-0.3,0.7-0.6c0.2-0.2,0.2-0.5,0.2-0.8c0-0.3-0.1-0.6-0.2-0.8
	c-0.1-0.2-0.3-0.4-0.5-0.5c-0.2-0.1-0.6-0.3-1-0.4c-0.3-0.1-0.5-0.2-0.6-0.3c-0.1-0.1-0.2-0.3-0.2-0.6c0-0.2,0.1-0.4,0.3-0.5
	c0.2-0.1,0.4-0.2,0.7-0.2c0.3,0,0.5,0,0.7,0.1c0.2,0.1,0.3,0.1,0.3,0.1c0.1,0,0.1-0.1,0.2-0.2c0.1-0.1,0.1-0.3,0.1-0.3
	c0-0.1-0.1-0.2-0.4-0.3c-0.3-0.1-0.6-0.1-1-0.1c-0.3,0-0.6,0.1-0.9,0.2c-0.3,0.1-0.5,0.3-0.6,0.5c-0.1,0.2-0.2,0.5-0.2,0.8
	c0,0.4,0.1,0.7,0.3,1c0.2,0.2,0.6,0.4,1.1,0.6c0.4,0.1,0.7,0.2,0.8,0.4c0.2,0.1,0.2,0.3,0.2,0.6c0,0.6-0.3,0.8-1,0.8
	c-0.2,0-0.4,0-0.6-0.1c-0.2-0.1-0.3-0.1-0.4-0.2c-0.1-0.1-0.2-0.1-0.2-0.1c-0.1,0-0.1,0.1-0.2,0.2c-0.1,0.1-0.1,0.2-0.1,0.3
	c0,0.1,0.1,0.2,0.2,0.3c0.1,0.1,0.3,0.2,0.6,0.3C150.2,119.6,150.5,119.6,150.8,119.6L150.8,119.6L150.8,119.6z M156.9,119.6
	L156.9,119.6c0.3,0,0.5-0.1,0.5-0.2v-3.8c0.2-0.2,0.4-0.4,0.6-0.5c0.2-0.1,0.5-0.2,0.7-0.2c0.3,0,0.6,0.1,0.8,0.3
	c0.2,0.2,0.3,0.4,0.3,0.7v3.5c0,0.2,0.1,0.2,0.4,0.2h0c0.3,0,0.4-0.1,0.4-0.2v-3.6c0-0.5-0.2-0.9-0.5-1.2c-0.3-0.3-0.7-0.4-1.2-0.4
	c-0.3,0-0.6,0.1-0.9,0.2c-0.3,0.1-0.5,0.3-0.8,0.6c0,0,0-0.1,0-0.2c0-0.1-0.1-0.2-0.1-0.3c0-0.1-0.1-0.2-0.2-0.2
	c-0.1,0-0.2,0-0.4,0.1c-0.1,0-0.2,0.1-0.2,0.2c0,0,0,0.1,0.1,0.3c0,0.2,0.1,0.5,0.1,1v3.6C156.4,119.5,156.6,119.6,156.9,119.6
	L156.9,119.6L156.9,119.6z M162.7,113.1c0.3,0,0.5-0.1,0.5-0.2v-0.6c0-0.2-0.2-0.2-0.5-0.2c-0.3,0-0.5,0.1-0.5,0.2v0.6
	C162.2,113.1,162.4,113.1,162.7,113.1L162.7,113.1L162.7,113.1z M162.7,119.6L162.7,119.6c0.3,0,0.5-0.1,0.5-0.2v-5
	c0-0.2-0.1-0.2-0.4-0.2h0c-0.3,0-0.4,0.1-0.4,0.2v5C162.3,119.5,162.4,119.6,162.7,119.6L162.7,119.6L162.7,119.6z M167.2,119.6
	c0.3,0,0.6,0,0.9-0.1c0.3-0.1,0.5-0.2,0.7-0.3c0.2-0.1,0.3-0.2,0.3-0.3c0-0.1,0-0.2-0.1-0.3c-0.1-0.1-0.2-0.2-0.2-0.2
	c0,0-0.1,0-0.2,0.1c-0.1,0.1-0.3,0.1-0.5,0.2c-0.2,0.1-0.5,0.1-0.8,0.1c-0.5,0-0.9-0.1-1.2-0.4c-0.3-0.3-0.4-0.7-0.4-1.3h3.3
	c0.1,0,0.1-0.1,0.2-0.2c0.1-0.1,0.1-0.2,0.1-0.3c0-0.9-0.2-1.6-0.5-2c-0.4-0.5-0.9-0.7-1.6-0.7c-0.8,0-1.4,0.2-1.8,0.7
	c-0.4,0.5-0.6,1.2-0.6,2.1c0,0.9,0.2,1.6,0.6,2.1C165.7,119.4,166.3,119.6,167.2,119.6L167.2,119.6L167.2,119.6z M165.6,116.4
	c0.1-1.1,0.6-1.6,1.5-1.6c0.8,0,1.2,0.5,1.2,1.6H165.6L165.6,116.4z M172.1,119.6c0.5,0,0.8-0.1,0.8-0.3c0-0.1,0-0.2-0.1-0.3
	c0-0.1-0.1-0.2-0.2-0.2c0,0-0.1,0-0.2,0c-0.1,0-0.2,0-0.3,0c-0.2,0-0.3-0.1-0.4-0.2c-0.1-0.1-0.2-0.3-0.2-0.6v-3.2h0.9
	c0.1,0,0.1,0,0.2-0.1c0,0,0-0.1,0-0.2v-0.1c0-0.1,0-0.2,0-0.2c0,0-0.1-0.1-0.2-0.1h-0.9V113c0-0.2-0.1-0.2-0.3-0.2h-0.1
	c-0.2,0-0.3,0.1-0.3,0.2l-0.1,1.1h-0.5c-0.1,0-0.1,0-0.2,0.1c0,0-0.1,0.1-0.1,0.2v0.1c0,0.1,0,0.2,0.1,0.2c0,0,0.1,0.1,0.2,0.1h0.5
	v3.3c0,0.5,0.1,0.9,0.4,1.1C171.5,119.5,171.8,119.6,172.1,119.6L172.1,119.6L172.1,119.6z M178.4,121.7c0.8,0,1.4-0.1,1.8-0.4
	c0.4-0.3,0.6-0.7,0.6-1.2c0-0.4-0.1-0.7-0.4-0.9c-0.3-0.2-0.7-0.3-1.2-0.3c-0.1,0-0.2,0-0.3,0c-0.3,0-0.6-0.1-0.7-0.1
	c-0.2,0-0.3-0.1-0.4-0.2c-0.1-0.1-0.2-0.2-0.2-0.4c0-0.2,0.1-0.4,0.2-0.5c0.2-0.1,0.4-0.2,0.7-0.2c0.7,0,1.2-0.2,1.5-0.5
	c0.4-0.3,0.5-0.7,0.5-1.2c0-0.3-0.1-0.6-0.3-0.9l0,0c0.2,0,0.4,0,0.7,0c0.1,0,0.1,0,0.2-0.1c0,0,0-0.1,0-0.2v-0.1c0-0.1,0-0.2,0-0.2
	c0,0-0.1-0.1-0.2-0.1h-1.9c-0.2,0-0.4-0.1-0.6-0.1c-0.6,0-1.1,0.2-1.5,0.5c-0.4,0.3-0.5,0.7-0.5,1.2c0,0.3,0.1,0.6,0.2,0.9
	c0.2,0.3,0.4,0.5,0.7,0.6c-0.4,0.3-0.6,0.6-0.6,1.1c0,0.3,0.1,0.6,0.4,0.9l0,0c-0.3,0.1-0.5,0.3-0.7,0.5c-0.2,0.2-0.3,0.5-0.3,0.8
	c0,0.4,0.2,0.8,0.6,1C177.2,121.6,177.7,121.7,178.4,121.7L178.4,121.7L178.4,121.7z M178.5,116.7c-0.8,0-1.2-0.3-1.2-1
	c0-0.7,0.4-1,1.2-1c0.8,0,1.2,0.3,1.2,1c0,0.4-0.1,0.6-0.3,0.8C179.2,116.7,178.9,116.7,178.5,116.7L178.5,116.7L178.5,116.7z
	 M178.5,121c-1,0-1.5-0.2-1.5-0.7c0-0.4,0.2-0.6,0.7-0.8c0.2,0,0.4,0.1,0.9,0.1c0.5,0,0.8,0.1,1,0.2c0.2,0.1,0.3,0.2,0.3,0.5
	c0,0.3-0.1,0.5-0.3,0.6C179.3,121,179,121,178.5,121L178.5,121L178.5,121z M184.4,119.6c0.8,0,1.4-0.2,1.8-0.7
	c0.4-0.5,0.6-1.2,0.6-2.1c0-0.9-0.2-1.6-0.6-2.1c-0.4-0.5-1-0.7-1.8-0.7c-0.8,0-1.4,0.2-1.8,0.7c-0.4,0.5-0.6,1.2-0.6,2.1
	c0,0.9,0.2,1.6,0.6,2C183,119.4,183.6,119.6,184.4,119.6L184.4,119.6L184.4,119.6z M184.4,118.9c-0.5,0-0.9-0.2-1.1-0.5
	c-0.2-0.3-0.4-0.8-0.4-1.5c0-0.7,0.1-1.2,0.4-1.5c0.2-0.3,0.6-0.5,1.1-0.5c0.5,0,0.9,0.2,1.1,0.5c0.2,0.3,0.4,0.8,0.4,1.5
	c0,0.7-0.1,1.2-0.4,1.5C185.2,118.7,184.9,118.9,184.4,118.9L184.4,118.9L184.4,118.9z M190.4,119.6c0.3,0,0.6,0,0.9-0.1
	c0.3-0.1,0.5-0.2,0.7-0.3c0.2-0.1,0.3-0.2,0.3-0.3c0-0.1,0-0.2-0.1-0.3c-0.1-0.1-0.2-0.2-0.2-0.2c0,0-0.1,0-0.2,0.1
	c-0.1,0.1-0.3,0.1-0.5,0.2c-0.2,0.1-0.5,0.1-0.8,0.1c-0.5,0-0.9-0.1-1.2-0.4c-0.3-0.3-0.4-0.7-0.4-1.3h3.3c0.1,0,0.1-0.1,0.2-0.2
	c0.1-0.1,0.1-0.2,0.1-0.3c0-0.9-0.2-1.6-0.5-2c-0.4-0.5-0.9-0.7-1.6-0.7c-0.8,0-1.4,0.2-1.8,0.7c-0.4,0.5-0.6,1.2-0.6,2.1
	c0,0.9,0.2,1.6,0.6,2.1C188.9,119.4,189.6,119.6,190.4,119.6L190.4,119.6L190.4,119.6z M188.8,116.4c0.1-1.1,0.6-1.6,1.5-1.6
	c0.8,0,1.2,0.5,1.2,1.6H188.8L188.8,116.4z M195.5,119.6c0.6,0,1.2-0.3,1.7-0.8c0,0,0,0.1,0,0.2c0,0.1,0.1,0.2,0.1,0.3
	c0,0.1,0.1,0.2,0.2,0.2c0.1,0,0.2,0,0.4-0.1c0.1,0,0.2-0.1,0.2-0.2c0,0,0-0.1-0.1-0.3c0-0.2-0.1-0.5-0.1-1v-6c0-0.2-0.1-0.2-0.4-0.2
	h0c-0.3,0-0.4,0.1-0.4,0.2v2.6c-0.2-0.2-0.4-0.3-0.7-0.4c-0.2-0.1-0.5-0.1-0.8-0.1c-0.4,0-0.8,0.1-1.1,0.3c-0.3,0.2-0.6,0.5-0.7,1
	c-0.2,0.4-0.3,0.9-0.3,1.5c0,0.5,0.1,1,0.2,1.4c0.2,0.4,0.4,0.8,0.7,1C194.7,119.5,195.1,119.6,195.5,119.6L195.5,119.6L195.5,119.6
	z M195.7,118.8c-0.4,0-0.7-0.2-0.9-0.5c-0.2-0.4-0.3-0.9-0.3-1.6c0-0.6,0.1-1.1,0.4-1.4c0.2-0.3,0.6-0.5,1-0.5
	c0.5,0,0.9,0.2,1.3,0.5v2.8c-0.2,0.2-0.4,0.4-0.7,0.5C196.1,118.8,195.9,118.8,195.7,118.8L195.7,118.8L195.7,118.8z M202.6,113.1
	c0.3,0,0.5-0.1,0.5-0.2v-0.6c0-0.2-0.2-0.2-0.5-0.2c-0.3,0-0.5,0.1-0.5,0.2v0.6C202.2,113.1,202.3,113.1,202.6,113.1L202.6,113.1
	L202.6,113.1z M202.6,119.6L202.6,119.6c0.3,0,0.5-0.1,0.5-0.2v-5c0-0.2-0.1-0.2-0.4-0.2h0c-0.3,0-0.4,0.1-0.4,0.2v5
	C202.2,119.5,202.4,119.6,202.6,119.6L202.6,119.6L202.6,119.6z M205.4,119.6L205.4,119.6c0.3,0,0.5-0.1,0.5-0.2v-3.8
	c0.2-0.2,0.4-0.4,0.6-0.5c0.2-0.1,0.5-0.2,0.7-0.2c0.3,0,0.6,0.1,0.8,0.3c0.2,0.2,0.3,0.4,0.3,0.7v3.5c0,0.2,0.1,0.2,0.4,0.2h0
	c0.3,0,0.4-0.1,0.4-0.2v-3.6c0-0.5-0.2-0.9-0.5-1.2c-0.3-0.3-0.7-0.4-1.2-0.4c-0.3,0-0.6,0.1-0.9,0.2c-0.3,0.1-0.5,0.3-0.8,0.6
	c0,0,0-0.1,0-0.2c0-0.1-0.1-0.2-0.1-0.3c0-0.1-0.1-0.2-0.2-0.2c-0.1,0-0.2,0-0.4,0.1c-0.1,0-0.2,0.1-0.2,0.2c0,0,0,0.1,0.1,0.3
	c0,0.2,0.1,0.5,0.1,1v3.6C204.9,119.5,205.1,119.6,205.4,119.6L205.4,119.6L205.4,119.6z M212.5,121.7c0.8,0,1.4-0.1,1.8-0.4
	c0.4-0.3,0.6-0.7,0.6-1.2c0-0.4-0.1-0.7-0.4-0.9c-0.3-0.2-0.7-0.3-1.2-0.3c-0.1,0-0.2,0-0.3,0c-0.3,0-0.6-0.1-0.7-0.1
	c-0.2,0-0.3-0.1-0.4-0.2c-0.1-0.1-0.2-0.2-0.2-0.4c0-0.2,0.1-0.4,0.2-0.5c0.2-0.1,0.4-0.2,0.7-0.2c0.7,0,1.2-0.2,1.5-0.5
	c0.4-0.3,0.5-0.7,0.5-1.2c0-0.3-0.1-0.6-0.3-0.9l0,0c0.2,0,0.4,0,0.7,0c0.1,0,0.1,0,0.2-0.1c0,0,0-0.1,0-0.2v-0.1c0-0.1,0-0.2,0-0.2
	c0,0-0.1-0.1-0.2-0.1h-1.9c-0.2,0-0.4-0.1-0.6-0.1c-0.6,0-1.1,0.2-1.5,0.5c-0.4,0.3-0.5,0.7-0.5,1.2c0,0.3,0.1,0.6,0.2,0.9
	c0.2,0.3,0.4,0.5,0.7,0.6c-0.4,0.3-0.6,0.6-0.6,1.1c0,0.3,0.1,0.6,0.4,0.9l0,0c-0.3,0.1-0.5,0.3-0.7,0.5c-0.2,0.2-0.3,0.5-0.3,0.8
	c0,0.4,0.2,0.8,0.6,1C211.3,121.6,211.8,121.7,212.5,121.7L212.5,121.7L212.5,121.7z M212.6,116.7c-0.8,0-1.2-0.3-1.2-1
	c0-0.7,0.4-1,1.2-1c0.8,0,1.2,0.3,1.2,1c0,0.4-0.1,0.6-0.3,0.8C213.3,116.7,213,116.7,212.6,116.7L212.6,116.7L212.6,116.7z
	 M212.6,121c-1,0-1.5-0.2-1.5-0.7c0-0.4,0.2-0.6,0.7-0.8c0.2,0,0.4,0.1,0.9,0.1c0.5,0,0.8,0.1,1,0.2c0.2,0.1,0.3,0.2,0.3,0.5
	c0,0.3-0.1,0.5-0.3,0.6C213.4,121,213.1,121,212.6,121L212.6,121L212.6,121z M218.6,119.6c0.3,0,0.6,0,0.9-0.1
	c0.3-0.1,0.5-0.2,0.7-0.3c0.2-0.1,0.3-0.2,0.3-0.3c0-0.1,0-0.2-0.1-0.3c-0.1-0.1-0.2-0.2-0.2-0.2c0,0-0.1,0-0.2,0.1
	c-0.1,0.1-0.3,0.1-0.5,0.2c-0.2,0.1-0.5,0.1-0.8,0.1c-0.5,0-0.9-0.1-1.2-0.4c-0.3-0.3-0.4-0.7-0.4-1.3h3.3c0.1,0,0.1-0.1,0.2-0.2
	c0.1-0.1,0.1-0.2,0.1-0.3c0-0.9-0.2-1.6-0.5-2c-0.4-0.5-0.9-0.7-1.6-0.7c-0.8,0-1.4,0.2-1.8,0.7c-0.4,0.5-0.6,1.2-0.6,2.1
	c0,0.9,0.2,1.6,0.6,2.1C217.1,119.4,217.8,119.6,218.6,119.6L218.6,119.6L218.6,119.6z M217,116.4c0.1-1.1,0.6-1.6,1.5-1.6
	c0.8,0,1.2,0.5,1.2,1.6H217L217,116.4z M223.4,119.6h0.4c0.2,0,0.4-0.1,0.4-0.2l1.7-5c0-0.1,0-0.1,0-0.1c0-0.1-0.1-0.2-0.4-0.2h0
	c-0.2,0-0.4,0.1-0.4,0.2l-1.1,3.3c-0.1,0.2-0.2,0.6-0.2,1l-0.1,0.3h0c-0.2-0.6-0.3-1.1-0.4-1.3l-1.1-3.3c0-0.1-0.2-0.2-0.4-0.2h-0.1
	c-0.3,0-0.4,0.1-0.4,0.2c0,0,0,0.1,0,0.1l1.7,5C223.1,119.5,223.2,119.6,223.4,119.6L223.4,119.6L223.4,119.6z M228.6,119.6
	c0.3,0,0.6-0.1,0.9-0.2c0.3-0.1,0.5-0.3,0.8-0.6c0,0,0,0.1,0,0.2c0,0.1,0.1,0.2,0.1,0.3c0,0.1,0.1,0.2,0.2,0.2c0.1,0,0.2,0,0.4-0.1
	c0.1,0,0.2-0.1,0.2-0.2c0,0,0-0.1-0.1-0.3c0-0.2-0.1-0.5-0.1-1v-3.7c0-0.2-0.1-0.2-0.4-0.2h0c-0.3,0-0.4,0.1-0.4,0.2v3.8
	c-0.2,0.2-0.4,0.4-0.6,0.5c-0.2,0.1-0.5,0.2-0.7,0.2c-0.3,0-0.6-0.1-0.8-0.3c-0.2-0.2-0.3-0.4-0.3-0.7v-3.5c0-0.2-0.1-0.2-0.4-0.2h0
	c-0.3,0-0.4,0.1-0.4,0.2v3.6c0,0.5,0.2,0.9,0.5,1.2C227.7,119.5,228.1,119.6,228.6,119.6L228.6,119.6L228.6,119.6z M234.1,119.6
	c0.5,0,0.8-0.1,0.8-0.3c0-0.1,0-0.2-0.1-0.3c0-0.1-0.1-0.2-0.2-0.2c0,0-0.1,0-0.2,0c-0.1,0-0.2,0-0.3,0c-0.2,0-0.3-0.1-0.4-0.2
	c-0.1-0.1-0.2-0.3-0.2-0.6V112c0-0.2-0.1-0.2-0.4-0.2h0c-0.3,0-0.4,0.1-0.4,0.2v6.2c0,0.5,0.1,0.9,0.4,1.1
	C233.5,119.5,233.8,119.6,234.1,119.6L234.1,119.6L234.1,119.6z M237.6,119.6c0.6,0,1.2-0.3,1.7-0.8c0,0,0,0.1,0,0.2
	c0,0.1,0.1,0.2,0.1,0.3c0,0.1,0.1,0.2,0.2,0.2c0.1,0,0.2,0,0.4-0.1c0.1,0,0.2-0.1,0.2-0.2c0,0,0-0.1-0.1-0.3c0-0.2-0.1-0.5-0.1-1v-6
	c0-0.2-0.1-0.2-0.4-0.2h0c-0.3,0-0.4,0.1-0.4,0.2v2.6c-0.2-0.2-0.4-0.3-0.7-0.4c-0.2-0.1-0.5-0.1-0.8-0.1c-0.4,0-0.8,0.1-1.1,0.3
	c-0.3,0.2-0.6,0.5-0.7,1c-0.2,0.4-0.3,0.9-0.3,1.5c0,0.5,0.1,1,0.2,1.4c0.2,0.4,0.4,0.8,0.7,1C236.8,119.5,237.2,119.6,237.6,119.6
	L237.6,119.6L237.6,119.6z M237.7,118.8c-0.4,0-0.7-0.2-0.9-0.5c-0.2-0.4-0.3-0.9-0.3-1.6c0-0.6,0.1-1.1,0.4-1.4
	c0.2-0.3,0.6-0.5,1-0.5c0.5,0,0.9,0.2,1.3,0.5v2.8c-0.2,0.2-0.4,0.4-0.7,0.5C238.2,118.8,238,118.8,237.7,118.8L237.7,118.8
	L237.7,118.8z M241.8,119.6h0.2c0.3,0,0.4-0.1,0.4-0.2v-0.7c0-0.2-0.1-0.2-0.4-0.2h-0.2c-0.3,0-0.4,0.1-0.4,0.2v0.7
	C241.4,119.5,241.6,119.6,241.8,119.6L241.8,119.6L241.8,119.6z"/>
<path class="st1" d="M69.9,143.4c0.4,0,0.7-0.1,0.9-0.4c0.3-0.3,0.4-0.6,0.4-0.9c0-0.4-0.1-0.7-0.4-0.9c-0.3-0.3-0.6-0.4-0.9-0.4
	c-0.4,0-0.7,0.1-0.9,0.4c-0.3,0.3-0.4,0.6-0.4,0.9c0,0.4,0.1,0.7,0.4,0.9C69.3,143.3,69.6,143.4,69.9,143.4L69.9,143.4L69.9,143.4z"
	/>
<path class="st1" d="M89.6,145.4c0.1,0,0.1,0,0.2-0.1c0,0,0.1-0.1,0.1-0.2V145c0-0.2-0.1-0.3-0.2-0.4l-3.7-1.5l3.7-1.5
	c0.2-0.1,0.2-0.2,0.2-0.4v-0.1c0-0.1,0-0.1-0.1-0.2c0,0-0.1-0.1-0.2-0.1c0,0-0.1,0-0.2,0l-4.3,1.8c-0.2,0.1-0.3,0.2-0.3,0.4v0.2
	c0,0.2,0.1,0.3,0.3,0.4l4.3,1.8C89.5,145.4,89.5,145.4,89.6,145.4L89.6,145.4L89.6,145.4z M92.5,145.6c0.5,0,0.8-0.1,0.8-0.3
	c0-0.1,0-0.2-0.1-0.3c0-0.1-0.1-0.2-0.2-0.2c0,0-0.1,0-0.2,0c-0.1,0-0.2,0-0.3,0c-0.2,0-0.3-0.1-0.4-0.2c-0.1-0.1-0.2-0.3-0.2-0.6
	v-6.1c0-0.2-0.1-0.2-0.4-0.2h0c-0.3,0-0.4,0.1-0.4,0.2v6.2c0,0.5,0.1,0.9,0.4,1.1C91.8,145.5,92.1,145.6,92.5,145.6L92.5,145.6
	L92.5,145.6z M95.6,145.6c0.7,0,1.3-0.3,1.7-0.8c0,0,0,0.1,0,0.2c0,0.1,0.1,0.2,0.1,0.3c0,0.1,0.1,0.2,0.2,0.2c0.1,0,0.2,0,0.4-0.1
	c0.1,0,0.2-0.1,0.2-0.2c0,0,0-0.1-0.1-0.3c0-0.2-0.1-0.5-0.1-1v-2.3c0-0.5-0.2-0.9-0.5-1.2c-0.4-0.3-0.9-0.4-1.5-0.4
	c-0.3,0-0.6,0-0.9,0.1c-0.3,0.1-0.5,0.2-0.7,0.3c-0.2,0.1-0.3,0.2-0.3,0.3c0,0.1,0,0.2,0.1,0.3c0.1,0.1,0.2,0.2,0.2,0.2
	c0,0,0.1,0,0.2-0.1c0.2-0.1,0.3-0.1,0.6-0.2c0.2-0.1,0.5-0.1,0.8-0.1c0.4,0,0.7,0.1,0.9,0.2c0.2,0.2,0.3,0.4,0.3,0.6v0.5
	c-0.7,0-1.3,0.1-1.7,0.1c-0.5,0.1-0.9,0.3-1.2,0.5c-0.3,0.3-0.5,0.7-0.5,1.2c0,0.5,0.2,0.9,0.5,1.2
	C94.7,145.4,95.1,145.6,95.6,145.6L95.6,145.6L95.6,145.6z M95.7,144.8c-0.3,0-0.5-0.1-0.7-0.2c-0.1-0.1-0.2-0.4-0.2-0.6
	c0-0.3,0.1-0.6,0.4-0.7c0.2-0.2,0.5-0.3,0.9-0.3c0.3,0,0.8-0.1,1.3-0.1v1.2c-0.3,0.2-0.5,0.4-0.8,0.5
	C96.3,144.8,96,144.8,95.7,144.8L95.7,144.8L95.7,144.8z M102.4,145.6c0.4,0,0.8-0.1,1.1-0.4c0.3-0.2,0.5-0.6,0.7-1
	c0.2-0.4,0.2-0.9,0.2-1.4c0-0.6-0.1-1.1-0.3-1.5c-0.2-0.4-0.4-0.7-0.7-0.9c-0.3-0.2-0.7-0.3-1.1-0.3c-0.3,0-0.6,0-0.8,0.1
	c-0.2,0.1-0.5,0.2-0.7,0.4v-2.6c0-0.2-0.1-0.2-0.4-0.2h0c-0.3,0-0.4,0.1-0.4,0.2v7.4c0,0.2,0.1,0.2,0.3,0.2h0c0.2,0,0.2,0,0.3-0.1
	c0.1-0.2,0.1-0.4,0.2-0.6C101.2,145.3,101.7,145.6,102.4,145.6L102.4,145.6L102.4,145.6z M102.2,144.8c-0.2,0-0.5-0.1-0.7-0.2
	c-0.2-0.1-0.5-0.3-0.7-0.5v-2.8c0.2-0.2,0.4-0.3,0.6-0.3c0.2-0.1,0.5-0.1,0.7-0.1c0.5,0,0.8,0.2,1,0.5c0.2,0.3,0.4,0.8,0.4,1.4
	c0,0.7-0.1,1.2-0.3,1.6C102.9,144.6,102.6,144.8,102.2,144.8L102.2,144.8L102.2,144.8z M108,145.6c0.3,0,0.6,0,0.9-0.1
	c0.3-0.1,0.5-0.2,0.7-0.3c0.2-0.1,0.3-0.2,0.3-0.3c0-0.1,0-0.2-0.1-0.3c-0.1-0.1-0.2-0.2-0.2-0.2c0,0-0.1,0-0.2,0.1
	c-0.1,0.1-0.3,0.1-0.5,0.2c-0.2,0.1-0.5,0.1-0.8,0.1c-0.5,0-0.9-0.1-1.2-0.4c-0.3-0.3-0.4-0.7-0.4-1.3h3.3c0.1,0,0.1-0.1,0.2-0.2
	c0.1-0.1,0.1-0.2,0.1-0.3c0-0.9-0.2-1.6-0.5-2c-0.4-0.5-0.9-0.7-1.6-0.7c-0.8,0-1.4,0.2-1.8,0.7c-0.4,0.5-0.6,1.2-0.6,2.1
	c0,0.9,0.2,1.6,0.6,2.1C106.5,145.4,107.2,145.6,108,145.6L108,145.6L108,145.6z M106.4,142.4c0.1-1.1,0.6-1.6,1.5-1.6
	c0.8,0,1.2,0.5,1.2,1.6H106.4L106.4,142.4z M112.7,145.6c0.5,0,0.8-0.1,0.8-0.3c0-0.1,0-0.2-0.1-0.3c0-0.1-0.1-0.2-0.2-0.2
	c0,0-0.1,0-0.2,0c-0.1,0-0.2,0-0.3,0c-0.2,0-0.3-0.1-0.4-0.2c-0.1-0.1-0.2-0.3-0.2-0.6v-6.1c0-0.2-0.1-0.2-0.4-0.2h0
	c-0.3,0-0.4,0.1-0.4,0.2v6.2c0,0.5,0.1,0.9,0.4,1.1C112.1,145.5,112.4,145.6,112.7,145.6L112.7,145.6L112.7,145.6z M114.3,145.5
	c0.1,0,0.1,0,0.2,0l4.3-1.8c0.2-0.1,0.3-0.2,0.3-0.4v-0.2c0-0.2-0.1-0.3-0.3-0.4l-4.3-1.8c0,0-0.1,0-0.2,0c-0.1,0-0.1,0-0.2,0.1
	c0,0-0.1,0.1-0.1,0.2v0.1c0,0.2,0.1,0.3,0.2,0.4l3.7,1.5l-3.7,1.5c-0.2,0.1-0.2,0.2-0.2,0.4v0.1c0,0.1,0,0.1,0.1,0.2
	C114.2,145.4,114.2,145.5,114.3,145.5L114.3,145.5L114.3,145.5z M123.3,139.1c0.3,0,0.5-0.1,0.5-0.2v-0.6c0-0.2-0.2-0.2-0.5-0.2
	c-0.3,0-0.5,0.1-0.5,0.2v0.6C122.8,139,123,139.1,123.3,139.1L123.3,139.1L123.3,139.1z M123.3,145.5L123.3,145.5
	c0.3,0,0.5-0.1,0.5-0.2v-5c0-0.2-0.1-0.2-0.4-0.2h0c-0.3,0-0.4,0.1-0.4,0.2v5C122.9,145.5,123,145.5,123.3,145.5L123.3,145.5
	L123.3,145.5z M126.7,145.6c0.3,0,0.6-0.1,0.9-0.2c0.3-0.1,0.5-0.3,0.7-0.6c0.2-0.2,0.2-0.5,0.2-0.8c0-0.3-0.1-0.6-0.2-0.8
	c-0.1-0.2-0.3-0.4-0.5-0.5c-0.2-0.1-0.6-0.3-1-0.4c-0.3-0.1-0.5-0.2-0.6-0.3c-0.1-0.1-0.2-0.3-0.2-0.6c0-0.2,0.1-0.4,0.3-0.5
	c0.2-0.1,0.4-0.2,0.7-0.2c0.3,0,0.5,0,0.7,0.1c0.2,0.1,0.3,0.1,0.3,0.1c0.1,0,0.1-0.1,0.2-0.2c0.1-0.1,0.1-0.3,0.1-0.3
	c0-0.1-0.1-0.2-0.4-0.3c-0.3-0.1-0.6-0.1-1-0.1c-0.3,0-0.6,0.1-0.9,0.2c-0.3,0.1-0.5,0.3-0.6,0.5c-0.1,0.2-0.2,0.5-0.2,0.8
	c0,0.4,0.1,0.7,0.3,1c0.2,0.2,0.6,0.4,1.1,0.6c0.4,0.1,0.7,0.2,0.8,0.4c0.2,0.1,0.2,0.3,0.2,0.6c0,0.6-0.3,0.8-1,0.8
	c-0.2,0-0.4,0-0.6-0.1c-0.2-0.1-0.3-0.1-0.4-0.2c-0.1-0.1-0.2-0.1-0.2-0.1c-0.1,0-0.1,0.1-0.2,0.2c-0.1,0.1-0.1,0.2-0.1,0.3
	c0,0.1,0.1,0.2,0.2,0.3c0.1,0.1,0.3,0.2,0.6,0.3C126.1,145.6,126.4,145.6,126.7,145.6L126.7,145.6L126.7,145.6z M134.6,145.6
	c0.3,0,0.6,0,0.9-0.1c0.3-0.1,0.5-0.2,0.7-0.3c0.2-0.1,0.3-0.2,0.3-0.3c0-0.1,0-0.2-0.1-0.3c-0.1-0.1-0.2-0.2-0.2-0.2
	c0,0-0.1,0-0.2,0.1c-0.1,0.1-0.3,0.1-0.5,0.2c-0.2,0.1-0.5,0.1-0.8,0.1c-0.5,0-0.9-0.1-1.2-0.4c-0.3-0.3-0.4-0.7-0.4-1.3h3.3
	c0.1,0,0.1-0.1,0.2-0.2c0.1-0.1,0.1-0.2,0.1-0.3c0-0.9-0.2-1.6-0.5-2c-0.4-0.5-0.9-0.7-1.6-0.7c-0.8,0-1.4,0.2-1.8,0.7
	c-0.4,0.5-0.6,1.2-0.6,2.1c0,0.9,0.2,1.6,0.6,2.1C133.1,145.4,133.7,145.6,134.6,145.6L134.6,145.6L134.6,145.6z M133,142.4
	c0.1-1.1,0.6-1.6,1.5-1.6c0.8,0,1.2,0.5,1.2,1.6H133L133,142.4z M140.2,145.6c0.3,0,0.6,0,0.9-0.1c0.3-0.1,0.5-0.2,0.7-0.3
	c0.2-0.1,0.3-0.2,0.3-0.3c0-0.1,0-0.2-0.1-0.3c-0.1-0.1-0.2-0.2-0.2-0.2c0,0-0.1,0-0.2,0.1c-0.1,0.1-0.3,0.1-0.5,0.2
	c-0.2,0.1-0.5,0.1-0.8,0.1c-0.5,0-0.9-0.1-1.2-0.4c-0.3-0.3-0.4-0.7-0.4-1.3h3.3c0.1,0,0.1-0.1,0.2-0.2c0.1-0.1,0.1-0.2,0.1-0.3
	c0-0.9-0.2-1.6-0.5-2c-0.4-0.5-0.9-0.7-1.6-0.7c-0.8,0-1.4,0.2-1.8,0.7c-0.4,0.5-0.6,1.2-0.6,2.1c0,0.9,0.2,1.6,0.6,2.1
	C138.7,145.4,139.3,145.6,140.2,145.6L140.2,145.6L140.2,145.6z M138.6,142.4c0.1-1.1,0.6-1.6,1.5-1.6c0.8,0,1.2,0.5,1.2,1.6H138.6
	L138.6,142.4z M144,145.5L144,145.5c0.3,0,0.5-0.1,0.5-0.2v-3.8c0.2-0.2,0.4-0.4,0.6-0.5c0.2-0.1,0.5-0.2,0.7-0.2
	c0.3,0,0.6,0.1,0.8,0.3c0.2,0.2,0.3,0.4,0.3,0.7v3.5c0,0.2,0.1,0.2,0.4,0.2h0c0.3,0,0.4-0.1,0.4-0.2v-3.6c0-0.5-0.2-0.9-0.5-1.2
	c-0.3-0.3-0.7-0.4-1.2-0.4c-0.3,0-0.6,0.1-0.9,0.2c-0.3,0.1-0.5,0.3-0.8,0.6c0,0,0-0.1,0-0.2c0-0.1-0.1-0.2-0.1-0.3
	c0-0.1-0.1-0.2-0.2-0.2c-0.1,0-0.2,0-0.4,0.1c-0.1,0-0.2,0.1-0.2,0.2c0,0,0,0.1,0.1,0.3c0,0.2,0.1,0.5,0.1,1v3.6
	C143.6,145.5,143.7,145.5,144,145.5L144,145.5L144,145.5z M153.3,145.5h0.4c0.2,0,0.4-0.1,0.4-0.2l1.7-5c0-0.1,0-0.1,0-0.1
	c0-0.1-0.1-0.2-0.4-0.2h0c-0.2,0-0.4,0.1-0.4,0.2l-1.1,3.3c-0.1,0.2-0.2,0.6-0.2,1l-0.1,0.3h0c-0.2-0.6-0.3-1.1-0.4-1.3l-1.1-3.3
	c0-0.1-0.2-0.2-0.4-0.2h-0.1c-0.3,0-0.4,0.1-0.4,0.2c0,0,0,0.1,0,0.1l1.7,5C152.9,145.5,153,145.5,153.3,145.5L153.3,145.5
	L153.3,145.5z M159.1,145.6c0.3,0,0.6,0,0.9-0.1c0.3-0.1,0.5-0.2,0.7-0.3c0.2-0.1,0.3-0.2,0.3-0.3c0-0.1,0-0.2-0.1-0.3
	c-0.1-0.1-0.2-0.2-0.2-0.2c0,0-0.1,0-0.2,0.1c-0.1,0.1-0.3,0.1-0.5,0.2c-0.2,0.1-0.5,0.1-0.8,0.1c-0.5,0-0.9-0.1-1.2-0.4
	c-0.3-0.3-0.4-0.7-0.4-1.3h3.3c0.1,0,0.1-0.1,0.2-0.2c0.1-0.1,0.1-0.2,0.1-0.3c0-0.9-0.2-1.6-0.5-2c-0.4-0.5-0.9-0.7-1.6-0.7
	c-0.8,0-1.4,0.2-1.8,0.7c-0.4,0.5-0.6,1.2-0.6,2.1c0,0.9,0.2,1.6,0.6,2.1C157.6,145.4,158.2,145.6,159.1,145.6L159.1,145.6
	L159.1,145.6z M157.5,142.4c0.1-1.1,0.6-1.6,1.5-1.6c0.8,0,1.2,0.5,1.2,1.6H157.5L157.5,142.4z M162.9,145.5L162.9,145.5
	c0.3,0,0.5-0.1,0.5-0.2v-3.8c0,0,0-0.1,0.1-0.2c0.1-0.1,0.2-0.2,0.4-0.3c0.1-0.1,0.3-0.1,0.5-0.1c0.1,0,0.3,0,0.4,0.1
	c0.1,0,0.2,0.1,0.2,0.1c0.1,0,0.1-0.1,0.1-0.2c0-0.1,0.1-0.3,0.1-0.4c0-0.1-0.1-0.2-0.2-0.3c-0.1-0.1-0.3-0.1-0.4-0.1
	c-0.4,0-0.8,0.3-1.2,0.8c0,0,0-0.1,0-0.2c0-0.1-0.1-0.2-0.1-0.3c0-0.1-0.1-0.2-0.2-0.2c-0.1,0-0.2,0-0.4,0.1c-0.1,0-0.2,0.1-0.2,0.2
	c0,0,0,0.1,0.1,0.3c0,0.2,0.1,0.5,0.1,1v3.6C162.5,145.5,162.7,145.5,162.9,145.5L162.9,145.5L162.9,145.5z M166.7,147.7
	L166.7,147.7c0.3,0,0.5-0.1,0.5-0.2V145c0.2,0.2,0.4,0.3,0.7,0.4c0.2,0.1,0.5,0.1,0.8,0.1c0.4,0,0.8-0.1,1.1-0.3
	c0.3-0.2,0.6-0.5,0.7-0.9c0.2-0.4,0.3-0.9,0.3-1.5c0-0.5-0.1-1-0.2-1.4c-0.2-0.4-0.4-0.7-0.7-1c-0.3-0.2-0.7-0.4-1.1-0.4
	c-0.6,0-1.2,0.3-1.7,0.8c0,0,0-0.1,0-0.2c0-0.1-0.1-0.2-0.1-0.3c0-0.1-0.1-0.2-0.2-0.2c-0.1,0-0.2,0-0.4,0.1c-0.1,0-0.2,0.1-0.2,0.2
	c0,0,0,0.1,0.1,0.3c0,0.2,0.1,0.5,0.1,1v5.8C166.3,147.6,166.4,147.7,166.7,147.7L166.7,147.7L166.7,147.7z M168.4,144.8
	c-0.5,0-0.9-0.2-1.3-0.5v-2.8c0.2-0.2,0.4-0.4,0.7-0.5c0.2-0.1,0.5-0.2,0.7-0.2c0.4,0,0.7,0.2,0.9,0.5c0.2,0.4,0.3,0.9,0.3,1.6
	c0,0.6-0.1,1.1-0.4,1.4C169.2,144.6,168.9,144.8,168.4,144.8L168.4,144.8L168.4,144.8z M173.5,145.6c0.5,0,0.8-0.1,0.8-0.3
	c0-0.1,0-0.2-0.1-0.3c0-0.1-0.1-0.2-0.2-0.2c0,0-0.1,0-0.2,0c-0.1,0-0.2,0-0.3,0c-0.2,0-0.3-0.1-0.4-0.2c-0.1-0.1-0.2-0.3-0.2-0.6
	v-6.1c0-0.2-0.1-0.2-0.4-0.2h0c-0.3,0-0.4,0.1-0.4,0.2v6.2c0,0.5,0.1,0.9,0.4,1.1C172.9,145.5,173.2,145.6,173.5,145.6L173.5,145.6
	L173.5,145.6z M175.8,139.1c0.3,0,0.5-0.1,0.5-0.2v-0.6c0-0.2-0.2-0.2-0.5-0.2c-0.3,0-0.5,0.1-0.5,0.2v0.6
	C175.3,139,175.5,139.1,175.8,139.1L175.8,139.1L175.8,139.1z M175.8,145.5L175.8,145.5c0.3,0,0.5-0.1,0.5-0.2v-5
	c0-0.2-0.1-0.2-0.4-0.2h0c-0.3,0-0.4,0.1-0.4,0.2v5C175.4,145.5,175.5,145.5,175.8,145.5L175.8,145.5L175.8,145.5z M180.3,145.6
	c0.3,0,0.6,0,0.8-0.1c0.2-0.1,0.4-0.1,0.6-0.2c0.1-0.1,0.2-0.2,0.2-0.2c0-0.1,0-0.2-0.1-0.3c-0.1-0.1-0.2-0.2-0.2-0.2l-0.1,0
	c-0.4,0.2-0.8,0.3-1.2,0.3c-0.6,0-1-0.2-1.2-0.5c-0.2-0.3-0.4-0.9-0.4-1.6c0-1.3,0.5-2,1.5-2c0.4,0,0.8,0.1,1.1,0.2c0,0,0.1,0,0.1,0
	c0,0,0,0,0,0c0.1,0,0.1-0.1,0.2-0.2c0.1-0.1,0.1-0.3,0.1-0.3c0-0.1-0.2-0.2-0.5-0.3c-0.3-0.1-0.7-0.1-1.1-0.1
	c-0.7,0-1.3,0.2-1.8,0.6c-0.5,0.4-0.7,1.1-0.7,2.1c0,1,0.2,1.7,0.6,2.1C178.8,145.4,179.4,145.6,180.3,145.6L180.3,145.6
	L180.3,145.6z M183.6,145.5L183.6,145.5c0.3,0,0.5-0.1,0.5-0.2v-3.8c0,0,0.1-0.1,0.2-0.2c0.1-0.1,0.3-0.2,0.5-0.4
	c0.2-0.1,0.4-0.2,0.6-0.2c0.3,0,0.6,0.1,0.8,0.3c0.2,0.2,0.3,0.4,0.3,0.7v3.5c0,0.2,0.1,0.2,0.4,0.2h0c0.3,0,0.4-0.1,0.4-0.2v-3.6
	c0-0.6-0.2-1.1-0.5-1.3c-0.3-0.2-0.7-0.4-1.2-0.4c-0.3,0-0.6,0.1-0.9,0.2c-0.3,0.1-0.5,0.3-0.7,0.5v-2.8c0-0.2-0.1-0.2-0.4-0.2h0
	c-0.3,0-0.4,0.1-0.4,0.2v7.4C183.2,145.5,183.3,145.5,183.6,145.5L183.6,145.5L183.6,145.5z M190.5,145.6c0.5,0,0.8-0.1,0.8-0.3
	c0-0.1,0-0.2-0.1-0.3c0-0.1-0.1-0.2-0.2-0.2c0,0-0.1,0-0.2,0c-0.1,0-0.2,0-0.3,0c-0.2,0-0.3-0.1-0.4-0.2c-0.1-0.1-0.2-0.3-0.2-0.6
	v-3.2h0.9c0.1,0,0.1,0,0.2-0.1c0,0,0-0.1,0-0.2v-0.1c0-0.1,0-0.2,0-0.2c0,0-0.1-0.1-0.2-0.1h-0.9V139c0-0.2-0.1-0.2-0.3-0.2h-0.1
	c-0.2,0-0.3,0.1-0.3,0.2l-0.1,1.1h-0.5c-0.1,0-0.1,0-0.2,0.1c0,0-0.1,0.1-0.1,0.2v0.1c0,0.1,0,0.2,0.1,0.2c0,0,0.1,0.1,0.2,0.1h0.5
	v3.3c0,0.5,0.1,0.9,0.4,1.1C189.9,145.5,190.2,145.6,190.5,145.6L190.5,145.6L190.5,145.6z M196.5,145.5h0.4c0.2,0,0.4-0.1,0.4-0.2
	l1.7-5c0-0.1,0-0.1,0-0.1c0-0.1-0.1-0.2-0.4-0.2h0c-0.2,0-0.4,0.1-0.4,0.2l-1.1,3.3c-0.1,0.2-0.2,0.6-0.2,1l-0.1,0.3h0
	c-0.2-0.6-0.3-1.1-0.4-1.3l-1.1-3.3c0-0.1-0.2-0.2-0.4-0.2h-0.1c-0.3,0-0.4,0.1-0.4,0.2c0,0,0,0.1,0,0.1l1.7,5
	C196.1,145.5,196.2,145.5,196.5,145.5L196.5,145.5L196.5,145.5z M202.3,145.6c0.3,0,0.6,0,0.9-0.1c0.3-0.1,0.5-0.2,0.7-0.3
	c0.2-0.1,0.3-0.2,0.3-0.3c0-0.1,0-0.2-0.1-0.3c-0.1-0.1-0.2-0.2-0.2-0.2c0,0-0.1,0-0.2,0.1c-0.1,0.1-0.3,0.1-0.5,0.2
	c-0.2,0.1-0.5,0.1-0.8,0.1c-0.5,0-0.9-0.1-1.2-0.4c-0.3-0.3-0.4-0.7-0.4-1.3h3.3c0.1,0,0.1-0.1,0.2-0.2c0.1-0.1,0.1-0.2,0.1-0.3
	c0-0.9-0.2-1.6-0.5-2c-0.4-0.5-0.9-0.7-1.6-0.7c-0.8,0-1.4,0.2-1.8,0.7c-0.4,0.5-0.6,1.2-0.6,2.1c0,0.9,0.2,1.6,0.6,2.1
	C200.8,145.4,201.4,145.6,202.3,145.6L202.3,145.6L202.3,145.6z M200.7,142.4c0.1-1.1,0.6-1.6,1.5-1.6c0.8,0,1.2,0.5,1.2,1.6H200.7
	L200.7,142.4z M207,145.6c0.5,0,0.8-0.1,0.8-0.3c0-0.1,0-0.2-0.1-0.3c0-0.1-0.1-0.2-0.2-0.2c0,0-0.1,0-0.2,0c-0.1,0-0.2,0-0.3,0
	c-0.2,0-0.3-0.1-0.4-0.2c-0.1-0.1-0.2-0.3-0.2-0.6v-6.1c0-0.2-0.1-0.2-0.4-0.2h0c-0.3,0-0.4,0.1-0.4,0.2v6.2c0,0.5,0.1,0.9,0.4,1.1
	C206.3,145.5,206.6,145.6,207,145.6L207,145.6L207,145.6z M210.4,145.6c0.6,0,1.2-0.3,1.7-0.8c0,0,0,0.1,0,0.2
	c0,0.1,0.1,0.2,0.1,0.3c0,0.1,0.1,0.2,0.2,0.2c0.1,0,0.2,0,0.4-0.1c0.1,0,0.2-0.1,0.2-0.2c0,0,0-0.1-0.1-0.3c0-0.2-0.1-0.5-0.1-1v-6
	c0-0.2-0.1-0.2-0.4-0.2h0c-0.3,0-0.4,0.1-0.4,0.2v2.6c-0.2-0.2-0.4-0.3-0.7-0.4c-0.2-0.1-0.5-0.1-0.8-0.1c-0.4,0-0.8,0.1-1.1,0.3
	c-0.3,0.2-0.6,0.5-0.7,1c-0.2,0.4-0.3,0.9-0.3,1.5c0,0.5,0.1,1,0.2,1.4c0.2,0.4,0.4,0.8,0.7,1C209.7,145.5,210,145.6,210.4,145.6
	L210.4,145.6L210.4,145.6z M210.6,144.8c-0.4,0-0.7-0.2-0.9-0.5c-0.2-0.4-0.3-0.9-0.3-1.6c0-0.6,0.1-1.1,0.4-1.4
	c0.2-0.3,0.6-0.5,1-0.5c0.5,0,0.9,0.2,1.3,0.5v2.8c-0.2,0.2-0.4,0.4-0.7,0.5C211.1,144.8,210.8,144.8,210.6,144.8L210.6,144.8
	L210.6,144.8z M214.7,145.5h0.2c0.3,0,0.4-0.1,0.4-0.2v-0.7c0-0.2-0.1-0.2-0.4-0.2h-0.2c-0.3,0-0.4,0.1-0.4,0.2v0.7
	C214.3,145.5,214.4,145.5,214.7,145.5L214.7,145.5L214.7,145.5z"/>
<path class="st1" d="M69.9,159c0.4,0,0.7-0.1,0.9-0.4c0.3-0.3,0.4-0.6,0.4-0.9c0-0.4-0.1-0.7-0.4-0.9c-0.3-0.3-0.6-0.4-0.9-0.4
	c-0.4,0-0.7,0.1-0.9,0.4c-0.3,0.3-0.4,0.6-0.4,0.9c0,0.4,0.1,0.7,0.4,0.9C69.3,158.9,69.6,159,69.9,159L69.9,159L69.9,159z"/>
<path class="st1" d="M89.6,161c0.1,0,0.1,0,0.2-0.1c0,0,0.1-0.1,0.1-0.2v-0.1c0-0.2-0.1-0.3-0.2-0.4l-3.7-1.5l3.7-1.5
	c0.2-0.1,0.2-0.2,0.2-0.4v-0.1c0-0.1,0-0.1-0.1-0.2c0,0-0.1-0.1-0.2-0.1c0,0-0.1,0-0.2,0l-4.3,1.8c-0.2,0.1-0.3,0.2-0.3,0.4v0.2
	c0,0.2,0.1,0.3,0.3,0.4l4.3,1.8C89.5,161,89.5,161,89.6,161L89.6,161L89.6,161z M92.5,161.2c0.5,0,0.8-0.1,0.8-0.3
	c0-0.1,0-0.2-0.1-0.3c0-0.1-0.1-0.2-0.2-0.2c0,0-0.1,0-0.2,0c-0.1,0-0.2,0-0.3,0c-0.2,0-0.3-0.1-0.4-0.2c-0.1-0.1-0.2-0.3-0.2-0.6
	v-6.1c0-0.2-0.1-0.2-0.4-0.2h0c-0.3,0-0.4,0.1-0.4,0.2v6.2c0,0.5,0.1,0.9,0.4,1.1C91.8,161.1,92.1,161.2,92.5,161.2L92.5,161.2
	L92.5,161.2z M95.6,161.2c0.7,0,1.3-0.3,1.7-0.8c0,0,0,0.1,0,0.2c0,0.1,0.1,0.2,0.1,0.3c0,0.1,0.1,0.2,0.2,0.2c0.1,0,0.2,0,0.4-0.1
	c0.1,0,0.2-0.1,0.2-0.2c0,0,0-0.1-0.1-0.3c0-0.2-0.1-0.5-0.1-1v-2.3c0-0.5-0.2-0.9-0.5-1.2c-0.4-0.3-0.9-0.4-1.5-0.4
	c-0.3,0-0.6,0-0.9,0.1c-0.3,0.1-0.5,0.2-0.7,0.3c-0.2,0.1-0.3,0.2-0.3,0.3c0,0.1,0,0.2,0.1,0.3c0.1,0.1,0.2,0.2,0.2,0.2
	c0,0,0.1,0,0.2-0.1c0.2-0.1,0.3-0.1,0.6-0.2c0.2-0.1,0.5-0.1,0.8-0.1c0.4,0,0.7,0.1,0.9,0.2c0.2,0.2,0.3,0.4,0.3,0.6v0.5
	c-0.7,0-1.3,0.1-1.7,0.1c-0.5,0.1-0.9,0.3-1.2,0.5c-0.3,0.3-0.5,0.7-0.5,1.2c0,0.5,0.2,0.9,0.5,1.2C94.7,161,95.1,161.2,95.6,161.2
	L95.6,161.2L95.6,161.2z M95.7,160.4c-0.3,0-0.5-0.1-0.7-0.2c-0.1-0.1-0.2-0.4-0.2-0.6c0-0.3,0.1-0.6,0.4-0.7
	c0.2-0.2,0.5-0.3,0.9-0.3c0.3,0,0.8-0.1,1.3-0.1v1.2c-0.3,0.2-0.5,0.4-0.8,0.5C96.3,160.3,96,160.4,95.7,160.4L95.7,160.4
	L95.7,160.4z M102.4,161.2c0.4,0,0.8-0.1,1.1-0.4c0.3-0.2,0.5-0.6,0.7-1c0.2-0.4,0.2-0.9,0.2-1.4c0-0.6-0.1-1.1-0.3-1.5
	c-0.2-0.4-0.4-0.7-0.7-0.9c-0.3-0.2-0.7-0.3-1.1-0.3c-0.3,0-0.6,0-0.8,0.1c-0.2,0.1-0.5,0.2-0.7,0.4v-2.6c0-0.2-0.1-0.2-0.4-0.2h0
	c-0.3,0-0.4,0.1-0.4,0.2v7.4c0,0.2,0.1,0.2,0.3,0.2h0c0.2,0,0.2,0,0.3-0.1c0.1-0.2,0.1-0.4,0.2-0.6
	C101.2,160.9,101.7,161.2,102.4,161.2L102.4,161.2L102.4,161.2z M102.2,160.4c-0.2,0-0.5-0.1-0.7-0.2c-0.2-0.1-0.5-0.3-0.7-0.5v-2.8
	c0.2-0.2,0.4-0.3,0.6-0.3c0.2-0.1,0.5-0.1,0.7-0.1c0.5,0,0.8,0.2,1,0.5c0.2,0.3,0.4,0.8,0.4,1.4c0,0.7-0.1,1.2-0.3,1.6
	C102.9,160.2,102.6,160.4,102.2,160.4L102.2,160.4L102.2,160.4z M108,161.2c0.3,0,0.6,0,0.9-0.1c0.3-0.1,0.5-0.2,0.7-0.3
	c0.2-0.1,0.3-0.2,0.3-0.3c0-0.1,0-0.2-0.1-0.3c-0.1-0.1-0.2-0.2-0.2-0.2c0,0-0.1,0-0.2,0.1c-0.1,0.1-0.3,0.1-0.5,0.2
	c-0.2,0.1-0.5,0.1-0.8,0.1c-0.5,0-0.9-0.1-1.2-0.4c-0.3-0.3-0.4-0.7-0.4-1.3h3.3c0.1,0,0.1-0.1,0.2-0.2c0.1-0.1,0.1-0.2,0.1-0.3
	c0-0.9-0.2-1.6-0.5-2c-0.4-0.5-0.9-0.7-1.6-0.7c-0.8,0-1.4,0.2-1.8,0.7c-0.4,0.5-0.6,1.2-0.6,2.1c0,0.9,0.2,1.6,0.6,2.1
	C106.5,160.9,107.2,161.2,108,161.2L108,161.2L108,161.2z M106.4,158c0.1-1.1,0.6-1.6,1.5-1.6c0.8,0,1.2,0.5,1.2,1.6H106.4
	L106.4,158z M112.7,161.2c0.5,0,0.8-0.1,0.8-0.3c0-0.1,0-0.2-0.1-0.3c0-0.1-0.1-0.2-0.2-0.2c0,0-0.1,0-0.2,0c-0.1,0-0.2,0-0.3,0
	c-0.2,0-0.3-0.1-0.4-0.2c-0.1-0.1-0.2-0.3-0.2-0.6v-6.1c0-0.2-0.1-0.2-0.4-0.2h0c-0.3,0-0.4,0.1-0.4,0.2v6.2c0,0.5,0.1,0.9,0.4,1.1
	C112.1,161.1,112.4,161.2,112.7,161.2L112.7,161.2L112.7,161.2z M114.3,161c0.1,0,0.1,0,0.2,0l4.3-1.8c0.2-0.1,0.3-0.2,0.3-0.4v-0.2
	c0-0.2-0.1-0.3-0.3-0.4l-4.3-1.8c0,0-0.1,0-0.2,0c-0.1,0-0.1,0-0.2,0.1c0,0-0.1,0.1-0.1,0.2v0.1c0,0.2,0.1,0.3,0.2,0.4l3.7,1.5
	l-3.7,1.5c-0.2,0.1-0.2,0.2-0.2,0.4v0.1c0,0.1,0,0.1,0.1,0.2C114.2,161,114.2,161,114.3,161L114.3,161L114.3,161z M123.3,154.7
	c0.3,0,0.5-0.1,0.5-0.2v-0.6c0-0.2-0.2-0.2-0.5-0.2c-0.3,0-0.5,0.1-0.5,0.2v0.6C122.8,154.6,123,154.7,123.3,154.7L123.3,154.7
	L123.3,154.7z M123.3,161.1L123.3,161.1c0.3,0,0.5-0.1,0.5-0.2v-5c0-0.2-0.1-0.2-0.4-0.2h0c-0.3,0-0.4,0.1-0.4,0.2v5
	C122.9,161,123,161.1,123.3,161.1L123.3,161.1L123.3,161.1z M126.7,161.2c0.3,0,0.6-0.1,0.9-0.2c0.3-0.1,0.5-0.3,0.7-0.6
	c0.2-0.2,0.2-0.5,0.2-0.8c0-0.3-0.1-0.6-0.2-0.8c-0.1-0.2-0.3-0.4-0.5-0.5c-0.2-0.1-0.6-0.3-1-0.4c-0.3-0.1-0.5-0.2-0.6-0.3
	c-0.1-0.1-0.2-0.3-0.2-0.6c0-0.2,0.1-0.4,0.3-0.5c0.2-0.1,0.4-0.2,0.7-0.2c0.3,0,0.5,0,0.7,0.1c0.2,0.1,0.3,0.1,0.3,0.1
	c0.1,0,0.1-0.1,0.2-0.2c0.1-0.1,0.1-0.3,0.1-0.3c0-0.1-0.1-0.2-0.4-0.3c-0.3-0.1-0.6-0.1-1-0.1c-0.3,0-0.6,0.1-0.9,0.2
	c-0.3,0.1-0.5,0.3-0.6,0.5c-0.1,0.2-0.2,0.5-0.2,0.8c0,0.4,0.1,0.7,0.3,1c0.2,0.2,0.6,0.4,1.1,0.6c0.4,0.1,0.7,0.2,0.8,0.4
	c0.2,0.1,0.2,0.3,0.2,0.6c0,0.6-0.3,0.8-1,0.8c-0.2,0-0.4,0-0.6-0.1c-0.2-0.1-0.3-0.1-0.4-0.2c-0.1-0.1-0.2-0.1-0.2-0.1
	c-0.1,0-0.1,0.1-0.2,0.2c-0.1,0.1-0.1,0.2-0.1,0.3c0,0.1,0.1,0.2,0.2,0.3c0.1,0.1,0.3,0.2,0.6,0.3
	C126.1,161.2,126.4,161.2,126.7,161.2L126.7,161.2L126.7,161.2z M132.8,161.1L132.8,161.1c0.3,0,0.5-0.1,0.5-0.2v-3.8
	c0.2-0.2,0.4-0.4,0.6-0.5c0.2-0.1,0.5-0.2,0.7-0.2c0.3,0,0.6,0.1,0.8,0.3c0.2,0.2,0.3,0.4,0.3,0.7v3.5c0,0.2,0.1,0.2,0.4,0.2h0
	c0.3,0,0.4-0.1,0.4-0.2v-3.6c0-0.5-0.2-0.9-0.5-1.2c-0.3-0.3-0.7-0.4-1.2-0.4c-0.3,0-0.6,0.1-0.9,0.2c-0.3,0.1-0.5,0.3-0.8,0.6
	c0,0,0-0.1,0-0.2c0-0.1-0.1-0.2-0.1-0.3c0-0.1-0.1-0.2-0.2-0.2c-0.1,0-0.2,0-0.4,0.1c-0.1,0-0.2,0.1-0.2,0.2c0,0,0,0.1,0.1,0.3
	c0,0.2,0.1,0.5,0.1,1v3.6C132.4,161,132.5,161.1,132.8,161.1L132.8,161.1L132.8,161.1z M138.6,154.7c0.3,0,0.5-0.1,0.5-0.2v-0.6
	c0-0.2-0.2-0.2-0.5-0.2c-0.3,0-0.5,0.1-0.5,0.2v0.6C138.2,154.6,138.3,154.7,138.6,154.7L138.6,154.7L138.6,154.7z M138.6,161.1
	L138.6,161.1c0.3,0,0.5-0.1,0.5-0.2v-5c0-0.2-0.1-0.2-0.4-0.2h0c-0.3,0-0.4,0.1-0.4,0.2v5C138.2,161,138.3,161.1,138.6,161.1
	L138.6,161.1L138.6,161.1z M143.1,161.2c0.3,0,0.6,0,0.9-0.1c0.3-0.1,0.5-0.2,0.7-0.3c0.2-0.1,0.3-0.2,0.3-0.3c0-0.1,0-0.2-0.1-0.3
	c-0.1-0.1-0.2-0.2-0.2-0.2c0,0-0.1,0-0.2,0.1c-0.1,0.1-0.3,0.1-0.5,0.2c-0.2,0.1-0.5,0.1-0.8,0.1c-0.5,0-0.9-0.1-1.2-0.4
	c-0.3-0.3-0.4-0.7-0.4-1.3h3.3c0.1,0,0.1-0.1,0.2-0.2c0.1-0.1,0.1-0.2,0.1-0.3c0-0.9-0.2-1.6-0.5-2c-0.4-0.5-0.9-0.7-1.6-0.7
	c-0.8,0-1.4,0.2-1.8,0.7c-0.4,0.5-0.6,1.2-0.6,2.1c0,0.9,0.2,1.6,0.6,2.1C141.6,160.9,142.3,161.2,143.1,161.2L143.1,161.2
	L143.1,161.2z M141.5,158c0.1-1.1,0.6-1.6,1.5-1.6c0.8,0,1.2,0.5,1.2,1.6H141.5L141.5,158z M148.1,161.2c0.5,0,0.8-0.1,0.8-0.3
	c0-0.1,0-0.2-0.1-0.3c0-0.1-0.1-0.2-0.2-0.2c0,0-0.1,0-0.2,0c-0.1,0-0.2,0-0.3,0c-0.2,0-0.3-0.1-0.4-0.2c-0.1-0.1-0.2-0.3-0.2-0.6
	v-3.2h0.9c0.1,0,0.1,0,0.2-0.1c0,0,0-0.1,0-0.2V156c0-0.1,0-0.2,0-0.2c0,0-0.1-0.1-0.2-0.1h-0.9v-1.1c0-0.2-0.1-0.2-0.3-0.2h-0.1
	c-0.2,0-0.3,0.1-0.3,0.2l-0.1,1.1h-0.5c-0.1,0-0.1,0-0.2,0.1c0,0-0.1,0.1-0.1,0.2v0.1c0,0.1,0,0.2,0.1,0.2c0,0,0.1,0.1,0.2,0.1h0.5
	v3.3c0,0.5,0.1,0.9,0.4,1.1C147.4,161.1,147.7,161.2,148.1,161.2L148.1,161.2L148.1,161.2z M154.3,163.3c0.8,0,1.4-0.1,1.8-0.4
	c0.4-0.3,0.6-0.7,0.6-1.2c0-0.4-0.1-0.7-0.4-0.9c-0.3-0.2-0.7-0.3-1.2-0.3c-0.1,0-0.2,0-0.3,0c-0.3,0-0.6-0.1-0.7-0.1
	c-0.2,0-0.3-0.1-0.4-0.2c-0.1-0.1-0.2-0.2-0.2-0.4c0-0.2,0.1-0.4,0.2-0.5c0.2-0.1,0.4-0.2,0.7-0.2c0.7,0,1.2-0.2,1.5-0.5
	c0.4-0.3,0.5-0.7,0.5-1.2c0-0.3-0.1-0.6-0.3-0.9l0,0c0.2,0,0.4,0,0.7,0c0.1,0,0.1,0,0.2-0.1c0,0,0-0.1,0-0.2V156c0-0.1,0-0.2,0-0.2
	c0,0-0.1-0.1-0.2-0.1H155c-0.2,0-0.4-0.1-0.6-0.1c-0.6,0-1.1,0.2-1.5,0.5c-0.4,0.3-0.5,0.7-0.5,1.2c0,0.3,0.1,0.6,0.2,0.9
	c0.2,0.3,0.4,0.5,0.7,0.6c-0.4,0.3-0.6,0.6-0.6,1.1c0,0.3,0.1,0.6,0.4,0.9l0,0c-0.3,0.1-0.5,0.3-0.7,0.5c-0.2,0.2-0.3,0.5-0.3,0.8
	c0,0.4,0.2,0.8,0.6,1C153.1,163.2,153.6,163.3,154.3,163.3L154.3,163.3L154.3,163.3z M154.4,158.3c-0.8,0-1.2-0.3-1.2-1
	c0-0.7,0.4-1,1.2-1c0.8,0,1.2,0.3,1.2,1c0,0.4-0.1,0.6-0.3,0.8C155.1,158.2,154.8,158.3,154.4,158.3L154.4,158.3L154.4,158.3z
	 M154.4,162.6c-1,0-1.5-0.2-1.5-0.7c0-0.4,0.2-0.6,0.7-0.8c0.2,0,0.4,0.1,0.9,0.1c0.5,0,0.8,0.1,1,0.2c0.2,0.1,0.3,0.2,0.3,0.5
	c0,0.3-0.1,0.5-0.3,0.6C155.2,162.5,154.9,162.6,154.4,162.6L154.4,162.6L154.4,162.6z M160.3,161.2c0.8,0,1.4-0.2,1.8-0.7
	c0.4-0.5,0.6-1.2,0.6-2.1c0-0.9-0.2-1.6-0.6-2.1c-0.4-0.5-1-0.7-1.8-0.7c-0.8,0-1.4,0.2-1.8,0.7c-0.4,0.5-0.6,1.2-0.6,2.1
	c0,0.9,0.2,1.6,0.6,2C158.9,160.9,159.5,161.2,160.3,161.2L160.3,161.2L160.3,161.2z M160.3,160.4c-0.5,0-0.9-0.2-1.1-0.5
	c-0.2-0.3-0.4-0.8-0.4-1.5c0-0.7,0.1-1.2,0.4-1.5c0.2-0.3,0.6-0.5,1.1-0.5c0.5,0,0.9,0.2,1.1,0.5c0.2,0.3,0.4,0.8,0.4,1.5
	c0,0.7-0.1,1.2-0.4,1.5C161.2,160.3,160.8,160.4,160.3,160.4L160.3,160.4L160.3,160.4z M166.4,161.2c0.3,0,0.6,0,0.9-0.1
	c0.3-0.1,0.5-0.2,0.7-0.3c0.2-0.1,0.3-0.2,0.3-0.3c0-0.1,0-0.2-0.1-0.3c-0.1-0.1-0.2-0.2-0.2-0.2c0,0-0.1,0-0.2,0.1
	c-0.1,0.1-0.3,0.1-0.5,0.2c-0.2,0.1-0.5,0.1-0.8,0.1c-0.5,0-0.9-0.1-1.2-0.4c-0.3-0.3-0.4-0.7-0.4-1.3h3.3c0.1,0,0.1-0.1,0.2-0.2
	c0.1-0.1,0.1-0.2,0.1-0.3c0-0.9-0.2-1.6-0.5-2c-0.4-0.5-0.9-0.7-1.6-0.7c-0.8,0-1.4,0.2-1.8,0.7c-0.4,0.5-0.6,1.2-0.6,2.1
	c0,0.9,0.2,1.6,0.6,2.1C164.8,160.9,165.5,161.2,166.4,161.2L166.4,161.2L166.4,161.2z M164.7,158c0.1-1.1,0.6-1.6,1.5-1.6
	c0.8,0,1.2,0.5,1.2,1.6H164.7L164.7,158z M171.4,161.2c0.6,0,1.2-0.3,1.7-0.8c0,0,0,0.1,0,0.2c0,0.1,0.1,0.2,0.1,0.3
	c0,0.1,0.1,0.2,0.2,0.2c0.1,0,0.2,0,0.4-0.1c0.1,0,0.2-0.1,0.2-0.2c0,0,0-0.1-0.1-0.3c0-0.2-0.1-0.5-0.1-1v-6c0-0.2-0.1-0.2-0.4-0.2
	h0c-0.3,0-0.4,0.1-0.4,0.2v2.6c-0.2-0.2-0.4-0.3-0.7-0.4c-0.2-0.1-0.5-0.1-0.8-0.1c-0.4,0-0.8,0.1-1.1,0.3c-0.3,0.2-0.6,0.5-0.7,1
	c-0.2,0.4-0.3,0.9-0.3,1.5c0,0.5,0.1,1,0.2,1.4c0.2,0.4,0.4,0.8,0.7,1C170.6,161,171,161.2,171.4,161.2L171.4,161.2L171.4,161.2z
	 M171.6,160.4c-0.4,0-0.7-0.2-0.9-0.5c-0.2-0.4-0.3-0.9-0.3-1.6c0-0.6,0.1-1.1,0.4-1.4c0.2-0.3,0.6-0.5,1-0.5c0.5,0,0.9,0.2,1.3,0.5
	v2.8c-0.2,0.2-0.4,0.4-0.7,0.5C172,160.3,171.8,160.4,171.6,160.4L171.6,160.4L171.6,160.4z M178.6,154.7c0.3,0,0.5-0.1,0.5-0.2
	v-0.6c0-0.2-0.2-0.2-0.5-0.2c-0.3,0-0.5,0.1-0.5,0.2v0.6C178.1,154.6,178.3,154.7,178.6,154.7L178.6,154.7L178.6,154.7z
	 M178.6,161.1L178.6,161.1c0.3,0,0.5-0.1,0.5-0.2v-5c0-0.2-0.1-0.2-0.4-0.2h0c-0.3,0-0.4,0.1-0.4,0.2v5
	C178.1,161,178.3,161.1,178.6,161.1L178.6,161.1L178.6,161.1z M181.3,161.1L181.3,161.1c0.3,0,0.5-0.1,0.5-0.2v-3.8
	c0.2-0.2,0.4-0.4,0.6-0.5c0.2-0.1,0.5-0.2,0.7-0.2c0.3,0,0.6,0.1,0.8,0.3c0.2,0.2,0.3,0.4,0.3,0.7v3.5c0,0.2,0.1,0.2,0.4,0.2h0
	c0.3,0,0.4-0.1,0.4-0.2v-3.6c0-0.5-0.2-0.9-0.5-1.2c-0.3-0.3-0.7-0.4-1.2-0.4c-0.3,0-0.6,0.1-0.9,0.2c-0.3,0.1-0.5,0.3-0.8,0.6
	c0,0,0-0.1,0-0.2c0-0.1-0.1-0.2-0.1-0.3c0-0.1-0.1-0.2-0.2-0.2c-0.1,0-0.2,0-0.4,0.1c-0.1,0-0.2,0.1-0.2,0.2c0,0,0,0.1,0.1,0.3
	c0,0.2,0.1,0.5,0.1,1v3.6C180.9,161,181,161.1,181.3,161.1L181.3,161.1L181.3,161.1z M188.4,163.3c0.8,0,1.4-0.1,1.8-0.4
	c0.4-0.3,0.6-0.7,0.6-1.2c0-0.4-0.1-0.7-0.4-0.9c-0.3-0.2-0.7-0.3-1.2-0.3c-0.1,0-0.2,0-0.3,0c-0.3,0-0.6-0.1-0.7-0.1
	c-0.2,0-0.3-0.1-0.4-0.2c-0.1-0.1-0.2-0.2-0.2-0.4c0-0.2,0.1-0.4,0.2-0.5c0.2-0.1,0.4-0.2,0.7-0.2c0.7,0,1.2-0.2,1.5-0.5
	c0.4-0.3,0.5-0.7,0.5-1.2c0-0.3-0.1-0.6-0.3-0.9l0,0c0.2,0,0.4,0,0.7,0c0.1,0,0.1,0,0.2-0.1c0,0,0-0.1,0-0.2V156c0-0.1,0-0.2,0-0.2
	c0,0-0.1-0.1-0.2-0.1h-1.9c-0.2,0-0.4-0.1-0.6-0.1c-0.6,0-1.1,0.2-1.5,0.5c-0.4,0.3-0.5,0.7-0.5,1.2c0,0.3,0.1,0.6,0.2,0.9
	c0.2,0.3,0.4,0.5,0.7,0.6c-0.4,0.3-0.6,0.6-0.6,1.1c0,0.3,0.1,0.6,0.4,0.9l0,0c-0.3,0.1-0.5,0.3-0.7,0.5c-0.2,0.2-0.3,0.5-0.3,0.8
	c0,0.4,0.2,0.8,0.6,1C187.2,163.2,187.7,163.3,188.4,163.3L188.4,163.3L188.4,163.3z M188.5,158.3c-0.8,0-1.2-0.3-1.2-1
	c0-0.7,0.4-1,1.2-1c0.8,0,1.2,0.3,1.2,1c0,0.4-0.1,0.6-0.3,0.8C189.2,158.2,188.9,158.3,188.5,158.3L188.5,158.3L188.5,158.3z
	 M188.5,162.6c-1,0-1.5-0.2-1.5-0.7c0-0.4,0.2-0.6,0.7-0.8c0.2,0,0.4,0.1,0.9,0.1c0.5,0,0.8,0.1,1,0.2c0.2,0.1,0.3,0.2,0.3,0.5
	c0,0.3-0.1,0.5-0.3,0.6C189.3,162.5,189,162.6,188.5,162.6L188.5,162.6L188.5,162.6z M194.5,161.2c0.3,0,0.6,0,0.9-0.1
	c0.3-0.1,0.5-0.2,0.7-0.3c0.2-0.1,0.3-0.2,0.3-0.3c0-0.1,0-0.2-0.1-0.3c-0.1-0.1-0.2-0.2-0.2-0.2c0,0-0.1,0-0.2,0.1
	c-0.1,0.1-0.3,0.1-0.5,0.2c-0.2,0.1-0.5,0.1-0.8,0.1c-0.5,0-0.9-0.1-1.2-0.4c-0.3-0.3-0.4-0.7-0.4-1.3h3.3c0.1,0,0.1-0.1,0.2-0.2
	c0.1-0.1,0.1-0.2,0.1-0.3c0-0.9-0.2-1.6-0.5-2c-0.4-0.5-0.9-0.7-1.6-0.7c-0.8,0-1.4,0.2-1.8,0.7c-0.4,0.5-0.6,1.2-0.6,2.1
	c0,0.9,0.2,1.6,0.6,2.1C193,160.9,193.7,161.2,194.5,161.2L194.5,161.2L194.5,161.2z M192.9,158c0.1-1.1,0.6-1.6,1.5-1.6
	c0.8,0,1.2,0.5,1.2,1.6H192.9L192.9,158z M199.4,161.1h0.4c0.2,0,0.4-0.1,0.4-0.2l1.7-5c0-0.1,0-0.1,0-0.1c0-0.1-0.1-0.2-0.4-0.2h0
	c-0.2,0-0.4,0.1-0.4,0.2l-1.1,3.3c-0.1,0.2-0.2,0.6-0.2,1l-0.1,0.3h0c-0.2-0.6-0.3-1.1-0.4-1.3l-1.1-3.3c0-0.1-0.2-0.2-0.4-0.2h-0.1
	c-0.3,0-0.4,0.1-0.4,0.2c0,0,0,0.1,0,0.1l1.7,5C199,161.1,199.1,161.1,199.4,161.1L199.4,161.1L199.4,161.1z M204.5,161.2
	c0.3,0,0.6-0.1,0.9-0.2c0.3-0.1,0.5-0.3,0.8-0.6c0,0,0,0.1,0,0.2c0,0.1,0.1,0.2,0.1,0.3c0,0.1,0.1,0.2,0.2,0.2c0.1,0,0.2,0,0.4-0.1
	c0.1,0,0.2-0.1,0.2-0.2c0,0,0-0.1-0.1-0.3c0-0.2-0.1-0.5-0.1-1v-3.7c0-0.2-0.1-0.2-0.4-0.2h0c-0.3,0-0.4,0.1-0.4,0.2v3.8
	c-0.2,0.2-0.4,0.4-0.6,0.5c-0.2,0.1-0.5,0.2-0.7,0.2c-0.3,0-0.6-0.1-0.8-0.3c-0.2-0.2-0.3-0.4-0.3-0.7v-3.5c0-0.2-0.1-0.2-0.4-0.2h0
	c-0.3,0-0.4,0.1-0.4,0.2v3.6c0,0.5,0.2,0.9,0.5,1.2C203.6,161,204,161.2,204.5,161.2L204.5,161.2L204.5,161.2z M210,161.2
	c0.5,0,0.8-0.1,0.8-0.3c0-0.1,0-0.2-0.1-0.3c0-0.1-0.1-0.2-0.2-0.2c0,0-0.1,0-0.2,0c-0.1,0-0.2,0-0.3,0c-0.2,0-0.3-0.1-0.4-0.2
	c-0.1-0.1-0.2-0.3-0.2-0.6v-6.1c0-0.2-0.1-0.2-0.4-0.2h0c-0.3,0-0.4,0.1-0.4,0.2v6.2c0,0.5,0.1,0.9,0.4,1.1
	C209.4,161.1,209.7,161.2,210,161.2L210,161.2L210,161.2z M213.5,161.2c0.6,0,1.2-0.3,1.7-0.8c0,0,0,0.1,0,0.2
	c0,0.1,0.1,0.2,0.1,0.3c0,0.1,0.1,0.2,0.2,0.2c0.1,0,0.2,0,0.4-0.1c0.1,0,0.2-0.1,0.2-0.2c0,0,0-0.1-0.1-0.3c0-0.2-0.1-0.5-0.1-1v-6
	c0-0.2-0.1-0.2-0.4-0.2h0c-0.3,0-0.4,0.1-0.4,0.2v2.6c-0.2-0.2-0.4-0.3-0.7-0.4c-0.2-0.1-0.5-0.1-0.8-0.1c-0.4,0-0.8,0.1-1.1,0.3
	c-0.3,0.2-0.6,0.5-0.7,1c-0.2,0.4-0.3,0.9-0.3,1.5c0,0.5,0.1,1,0.2,1.4c0.2,0.4,0.4,0.8,0.7,1C212.7,161,213.1,161.2,213.5,161.2
	L213.5,161.2L213.5,161.2z M213.7,160.4c-0.4,0-0.7-0.2-0.9-0.5c-0.2-0.4-0.3-0.9-0.3-1.6c0-0.6,0.1-1.1,0.4-1.4
	c0.2-0.3,0.6-0.5,1-0.5c0.5,0,0.9,0.2,1.3,0.5v2.8c-0.2,0.2-0.4,0.4-0.7,0.5C214.1,160.3,213.9,160.4,213.7,160.4L213.7,160.4
	L213.7,160.4z M217.7,161.1h0.2c0.3,0,0.4-0.1,0.4-0.2v-0.7c0-0.2-0.1-0.2-0.4-0.2h-0.2c-0.3,0-0.4,0.1-0.4,0.2v0.7
	C217.3,161,217.5,161.1,217.7,161.1L217.7,161.1L217.7,161.1z"/>
<g>
	<defs>
		<rect id="SVGID_3_" x="83.8" y="146.2" width="36.4" height="1.3"/>
	</defs>
	<clipPath id="SVGID_4_">
		<use xlink:href="#SVGID_3_"  style="overflow:visible;"/>
	</clipPath>
	<rect x="80.6" y="142.9" class="st2" width="42.9" height="7.8"/>
</g>
<g>
	<defs>
		<rect id="SVGID_5_" x="83.8" y="161.8" width="36.4" height="1.3"/>
	</defs>
	<clipPath id="SVGID_6_">
		<use xlink:href="#SVGID_5_"  style="overflow:visible;"/>
	</clipPath>
	<rect x="80.6" y="158.5" class="st3" width="42.9" height="7.8"/>
</g>
<g>
	<defs>
		<rect id="SVGID_7_" x="19.5" y="42.9" width="353.3" height="41.6"/>
	</defs>
	<clipPath id="SVGID_8_">
		<use xlink:href="#SVGID_7_"  style="overflow:visible;"/>
	</clipPath>
	<rect x="16.3" y="39.7" class="st4" width="359.8" height="48.1"/>
</g>
<path class="st1" d="M66.2,67.5c0.1,0,0.1,0,0.2-0.1c0,0,0.1-0.1,0.1-0.2v-0.1c0-0.2-0.1-0.3-0.2-0.4l-3.7-1.5l3.7-1.5
	c0.2-0.1,0.2-0.2,0.2-0.4v-0.1c0-0.1,0-0.1-0.1-0.2c0,0-0.1-0.1-0.2-0.1c0,0-0.1,0-0.2,0l-4.3,1.8c-0.2,0.1-0.3,0.2-0.3,0.4v0.2
	c0,0.2,0.1,0.3,0.3,0.4l4.3,1.8C66.1,67.5,66.1,67.5,66.2,67.5L66.2,67.5L66.2,67.5z M69.1,67.6c0.5,0,0.8-0.1,0.8-0.3
	c0-0.1,0-0.2-0.1-0.3c0-0.1-0.1-0.2-0.2-0.2c0,0-0.1,0-0.2,0c-0.1,0-0.2,0-0.3,0c-0.2,0-0.3-0.1-0.4-0.2c-0.1-0.1-0.2-0.3-0.2-0.6
	V60c0-0.2-0.1-0.2-0.4-0.2h0c-0.3,0-0.4,0.1-0.4,0.2v6.2c0,0.5,0.1,0.9,0.4,1.1C68.4,67.5,68.7,67.6,69.1,67.6L69.1,67.6L69.1,67.6z
	 M72.3,67.6c0.7,0,1.3-0.3,1.7-0.8c0,0,0,0.1,0,0.2c0,0.1,0.1,0.2,0.1,0.3c0,0.1,0.1,0.2,0.2,0.2c0.1,0,0.2,0,0.4-0.1
	c0.1,0,0.2-0.1,0.2-0.2c0,0,0-0.1-0.1-0.3c0-0.2-0.1-0.5-0.1-1v-2.3c0-0.5-0.2-0.9-0.5-1.2c-0.4-0.3-0.9-0.4-1.5-0.4
	c-0.3,0-0.6,0-0.9,0.1c-0.3,0.1-0.5,0.2-0.7,0.3c-0.2,0.1-0.3,0.2-0.3,0.3c0,0.1,0,0.2,0.1,0.3c0.1,0.1,0.2,0.2,0.2,0.2
	c0,0,0.1,0,0.2-0.1c0.2-0.1,0.3-0.1,0.6-0.2c0.2-0.1,0.5-0.1,0.8-0.1c0.4,0,0.7,0.1,0.9,0.2c0.2,0.2,0.3,0.4,0.3,0.6v0.5
	c-0.7,0-1.3,0.1-1.7,0.1c-0.5,0.1-0.9,0.3-1.2,0.5c-0.3,0.3-0.5,0.7-0.5,1.2c0,0.5,0.2,0.9,0.5,1.2C71.3,67.5,71.7,67.6,72.3,67.6
	L72.3,67.6L72.3,67.6z M72.3,66.9c-0.3,0-0.5-0.1-0.7-0.2c-0.1-0.1-0.2-0.4-0.2-0.6c0-0.3,0.1-0.6,0.4-0.7c0.2-0.2,0.5-0.3,0.9-0.3
	c0.3,0,0.8-0.1,1.3-0.1v1.2c-0.3,0.2-0.5,0.4-0.8,0.5C72.9,66.8,72.6,66.9,72.3,66.9L72.3,66.9L72.3,66.9z M79,67.6
	c0.4,0,0.8-0.1,1.1-0.4c0.3-0.2,0.5-0.6,0.7-1c0.2-0.4,0.2-0.9,0.2-1.4c0-0.6-0.1-1.1-0.3-1.5c-0.2-0.4-0.4-0.7-0.7-0.9
	c-0.3-0.2-0.7-0.3-1.1-0.3c-0.3,0-0.6,0-0.8,0.1c-0.2,0.1-0.5,0.2-0.7,0.4V60c0-0.2-0.1-0.2-0.4-0.2h0c-0.3,0-0.4,0.1-0.4,0.2v7.4
	c0,0.2,0.1,0.2,0.3,0.2h0c0.2,0,0.2,0,0.3-0.1c0.1-0.2,0.1-0.4,0.2-0.6C77.8,67.4,78.4,67.6,79,67.6L79,67.6L79,67.6z M78.8,66.9
	c-0.2,0-0.5-0.1-0.7-0.2c-0.2-0.1-0.5-0.3-0.7-0.5v-2.8c0.2-0.2,0.4-0.3,0.6-0.3c0.2-0.1,0.5-0.1,0.7-0.1c0.5,0,0.8,0.2,1,0.5
	c0.2,0.3,0.4,0.8,0.4,1.4c0,0.7-0.1,1.2-0.3,1.6C79.5,66.7,79.2,66.9,78.8,66.9L78.8,66.9L78.8,66.9z M84.7,67.6
	c0.3,0,0.6,0,0.9-0.1c0.3-0.1,0.5-0.2,0.7-0.3c0.2-0.1,0.3-0.2,0.3-0.3c0-0.1,0-0.2-0.1-0.3c-0.1-0.1-0.2-0.2-0.2-0.2
	c0,0-0.1,0-0.2,0.1c-0.1,0.1-0.3,0.1-0.5,0.2c-0.2,0.1-0.5,0.1-0.8,0.1c-0.5,0-0.9-0.1-1.2-0.4c-0.3-0.3-0.4-0.7-0.4-1.3h3.3
	c0.1,0,0.1-0.1,0.2-0.2c0.1-0.1,0.1-0.2,0.1-0.3c0-0.9-0.2-1.6-0.5-2c-0.4-0.5-0.9-0.7-1.6-0.7c-0.8,0-1.4,0.2-1.8,0.7
	c-0.4,0.5-0.6,1.2-0.6,2.1c0,0.9,0.2,1.6,0.6,2.1C83.2,67.4,83.8,67.6,84.7,67.6L84.7,67.6L84.7,67.6z M83.1,64.5
	c0.1-1.1,0.6-1.6,1.5-1.6c0.8,0,1.2,0.5,1.2,1.6H83.1L83.1,64.5z M89.3,67.6c0.5,0,0.8-0.1,0.8-0.3c0-0.1,0-0.2-0.1-0.3
	c0-0.1-0.1-0.2-0.2-0.2c0,0-0.1,0-0.2,0c-0.1,0-0.2,0-0.3,0c-0.2,0-0.3-0.1-0.4-0.2c-0.1-0.1-0.2-0.3-0.2-0.6V60
	c0-0.2-0.1-0.2-0.4-0.2h0c-0.3,0-0.4,0.1-0.4,0.2v6.2c0,0.5,0.1,0.9,0.4,1.1C88.7,67.5,89,67.6,89.3,67.6L89.3,67.6L89.3,67.6z
	 M90.9,67.5c0.1,0,0.1,0,0.2,0l4.3-1.8c0.2-0.1,0.3-0.2,0.3-0.4v-0.2c0-0.2-0.1-0.3-0.3-0.4L91.1,63c0,0-0.1,0-0.2,0
	c-0.1,0-0.1,0-0.2,0.1c0,0-0.1,0.1-0.1,0.2v0.1c0,0.2,0.1,0.3,0.2,0.4l3.7,1.5L91,66.7c-0.2,0.1-0.2,0.2-0.2,0.4v0.1
	c0,0.1,0,0.1,0.1,0.2C90.8,67.5,90.9,67.5,90.9,67.5L90.9,67.5L90.9,67.5z M99.9,61.2c0.3,0,0.5-0.1,0.5-0.2v-0.6
	c0-0.2-0.2-0.2-0.5-0.2c-0.3,0-0.5,0.1-0.5,0.2v0.6C99.5,61.1,99.6,61.2,99.9,61.2L99.9,61.2L99.9,61.2z M99.9,67.6L99.9,67.6
	c0.3,0,0.5-0.1,0.5-0.2v-5c0-0.2-0.1-0.2-0.4-0.2h0c-0.3,0-0.4,0.1-0.4,0.2v5C99.5,67.5,99.6,67.6,99.9,67.6L99.9,67.6L99.9,67.6z
	 M103.3,67.7c0.3,0,0.6-0.1,0.9-0.2c0.3-0.1,0.5-0.3,0.7-0.6c0.2-0.2,0.2-0.5,0.2-0.8c0-0.3-0.1-0.6-0.2-0.8
	c-0.1-0.2-0.3-0.4-0.5-0.5c-0.2-0.1-0.6-0.3-1-0.4c-0.3-0.1-0.5-0.2-0.6-0.3c-0.1-0.1-0.2-0.3-0.2-0.6c0-0.2,0.1-0.4,0.3-0.5
	c0.2-0.1,0.4-0.2,0.7-0.2c0.3,0,0.5,0,0.7,0.1c0.2,0.1,0.3,0.1,0.3,0.1c0.1,0,0.1-0.1,0.2-0.2c0.1-0.1,0.1-0.3,0.1-0.3
	c0-0.1-0.1-0.2-0.4-0.3c-0.3-0.1-0.6-0.1-1-0.1c-0.3,0-0.6,0.1-0.9,0.2c-0.3,0.1-0.5,0.3-0.6,0.5c-0.1,0.2-0.2,0.5-0.2,0.8
	c0,0.4,0.1,0.7,0.3,1c0.2,0.2,0.6,0.4,1.1,0.6c0.4,0.1,0.7,0.2,0.8,0.4c0.2,0.1,0.2,0.3,0.2,0.6c0,0.6-0.3,0.8-1,0.8
	c-0.2,0-0.4,0-0.6-0.1c-0.2-0.1-0.3-0.1-0.4-0.2c-0.1-0.1-0.2-0.1-0.2-0.1c-0.1,0-0.1,0.1-0.2,0.2c-0.1,0.1-0.1,0.2-0.1,0.3
	c0,0.1,0.1,0.2,0.2,0.3c0.1,0.1,0.3,0.2,0.6,0.3C102.7,67.6,103,67.7,103.3,67.7L103.3,67.7L103.3,67.7z M111.2,67.6
	c0.3,0,0.6,0,0.9-0.1c0.3-0.1,0.5-0.2,0.7-0.3c0.2-0.1,0.3-0.2,0.3-0.3c0-0.1,0-0.2-0.1-0.3c-0.1-0.1-0.2-0.2-0.2-0.2
	c0,0-0.1,0-0.2,0.1c-0.1,0.1-0.3,0.1-0.5,0.2c-0.2,0.1-0.5,0.1-0.8,0.1c-0.5,0-0.9-0.1-1.2-0.4c-0.3-0.3-0.4-0.7-0.4-1.3h3.3
	c0.1,0,0.1-0.1,0.2-0.2c0.1-0.1,0.1-0.2,0.1-0.3c0-0.9-0.2-1.6-0.5-2c-0.4-0.5-0.9-0.7-1.6-0.7c-0.8,0-1.4,0.2-1.8,0.7
	c-0.4,0.5-0.6,1.2-0.6,2.1c0,0.9,0.2,1.6,0.6,2.1C109.7,67.4,110.3,67.6,111.2,67.6L111.2,67.6L111.2,67.6z M109.6,64.5
	c0.1-1.1,0.6-1.6,1.5-1.6c0.8,0,1.2,0.5,1.2,1.6H109.6L109.6,64.5z M116.8,67.6c0.3,0,0.6,0,0.9-0.1c0.3-0.1,0.5-0.2,0.7-0.3
	c0.2-0.1,0.3-0.2,0.3-0.3c0-0.1,0-0.2-0.1-0.3c-0.1-0.1-0.2-0.2-0.2-0.2c0,0-0.1,0-0.2,0.1c-0.1,0.1-0.3,0.1-0.5,0.2
	c-0.2,0.1-0.5,0.1-0.8,0.1c-0.5,0-0.9-0.1-1.2-0.4c-0.3-0.3-0.4-0.7-0.4-1.3h3.3c0.1,0,0.1-0.1,0.2-0.2c0.1-0.1,0.1-0.2,0.1-0.3
	c0-0.9-0.2-1.6-0.5-2c-0.4-0.5-0.9-0.7-1.6-0.7c-0.8,0-1.4,0.2-1.8,0.7c-0.4,0.5-0.6,1.2-0.6,2.1c0,0.9,0.2,1.6,0.6,2.1
	C115.3,67.4,115.9,67.6,116.8,67.6L116.8,67.6L116.8,67.6z M115.2,64.5c0.1-1.1,0.6-1.6,1.5-1.6c0.8,0,1.2,0.5,1.2,1.6H115.2
	L115.2,64.5z M120.6,67.6L120.6,67.6c0.3,0,0.5-0.1,0.5-0.2v-3.8c0.2-0.2,0.4-0.4,0.6-0.5c0.2-0.1,0.5-0.2,0.7-0.2
	c0.3,0,0.6,0.1,0.8,0.3c0.2,0.2,0.3,0.4,0.3,0.7v3.5c0,0.2,0.1,0.2,0.4,0.2h0c0.3,0,0.4-0.1,0.4-0.2v-3.6c0-0.5-0.2-0.9-0.5-1.2
	c-0.3-0.3-0.7-0.4-1.2-0.4c-0.3,0-0.6,0.1-0.9,0.2c-0.3,0.1-0.5,0.3-0.8,0.6c0,0,0-0.1,0-0.2c0-0.1-0.1-0.2-0.1-0.3
	c0-0.1-0.1-0.2-0.2-0.2c-0.1,0-0.2,0-0.4,0.1c-0.1,0-0.2,0.1-0.2,0.2c0,0,0,0.1,0.1,0.3s0.1,0.5,0.1,1v3.6
	C120.2,67.5,120.3,67.6,120.6,67.6L120.6,67.6L120.6,67.6z M129.9,67.6h0.4c0.2,0,0.4-0.1,0.4-0.2l1.7-5c0-0.1,0-0.1,0-0.1
	c0-0.1-0.1-0.2-0.4-0.2h0c-0.2,0-0.4,0.1-0.4,0.2l-1.1,3.3c-0.1,0.2-0.2,0.6-0.2,1l-0.1,0.3h0c-0.2-0.6-0.3-1.1-0.4-1.3l-1.1-3.3
	c0-0.1-0.2-0.2-0.4-0.2h-0.1c-0.3,0-0.4,0.1-0.4,0.2c0,0,0,0.1,0,0.1l1.7,5C129.5,67.6,129.7,67.6,129.9,67.6L129.9,67.6L129.9,67.6
	z M135.7,67.6c0.3,0,0.6,0,0.9-0.1c0.3-0.1,0.5-0.2,0.7-0.3c0.2-0.1,0.3-0.2,0.3-0.3c0-0.1,0-0.2-0.1-0.3c-0.1-0.1-0.2-0.2-0.2-0.2
	c0,0-0.1,0-0.2,0.1c-0.1,0.1-0.3,0.1-0.5,0.2c-0.2,0.1-0.5,0.1-0.8,0.1c-0.5,0-0.9-0.1-1.2-0.4c-0.3-0.3-0.4-0.7-0.4-1.3h3.3
	c0.1,0,0.1-0.1,0.2-0.2c0.1-0.1,0.1-0.2,0.1-0.3c0-0.9-0.2-1.6-0.5-2c-0.4-0.5-0.9-0.7-1.6-0.7c-0.8,0-1.4,0.2-1.8,0.7
	c-0.4,0.5-0.6,1.2-0.6,2.1c0,0.9,0.2,1.6,0.6,2.1C134.2,67.4,134.9,67.6,135.7,67.6L135.7,67.6L135.7,67.6z M134.1,64.5
	c0.1-1.1,0.6-1.6,1.5-1.6c0.8,0,1.2,0.5,1.2,1.6H134.1L134.1,64.5z M139.6,67.6L139.6,67.6c0.3,0,0.5-0.1,0.5-0.2v-3.8
	c0,0,0-0.1,0.1-0.2c0.1-0.1,0.2-0.2,0.4-0.3c0.1-0.1,0.3-0.1,0.5-0.1c0.1,0,0.3,0,0.4,0.1c0.1,0,0.2,0.1,0.2,0.1
	c0.1,0,0.1-0.1,0.1-0.2c0-0.1,0.1-0.3,0.1-0.4c0-0.1-0.1-0.2-0.2-0.3c-0.1-0.1-0.3-0.1-0.4-0.1c-0.4,0-0.8,0.3-1.2,0.8
	c0,0,0-0.1,0-0.2c0-0.1-0.1-0.2-0.1-0.3c0-0.1-0.1-0.2-0.2-0.2c-0.1,0-0.2,0-0.4,0.1c-0.1,0-0.2,0.1-0.2,0.2c0,0,0,0.1,0.1,0.3
	s0.1,0.5,0.1,1v3.6C139.1,67.5,139.3,67.6,139.6,67.6L139.6,67.6L139.6,67.6z M143.3,69.7L143.3,69.7c0.3,0,0.5-0.1,0.5-0.2v-2.4
	c0.2,0.2,0.4,0.3,0.7,0.4c0.2,0.1,0.5,0.1,0.8,0.1c0.4,0,0.8-0.1,1.1-0.3c0.3-0.2,0.6-0.5,0.7-0.9c0.2-0.4,0.3-0.9,0.3-1.5
	c0-0.5-0.1-1-0.2-1.4c-0.2-0.4-0.4-0.7-0.7-1c-0.3-0.2-0.7-0.4-1.1-0.4c-0.6,0-1.2,0.3-1.7,0.8c0,0,0-0.1,0-0.2
	c0-0.1-0.1-0.2-0.1-0.3c0-0.1-0.1-0.2-0.2-0.2c-0.1,0-0.2,0-0.4,0.1c-0.1,0-0.2,0.1-0.2,0.2c0,0,0,0.1,0.1,0.3c0,0.2,0.1,0.5,0.1,1
	v5.8C142.9,69.7,143,69.7,143.3,69.7L143.3,69.7L143.3,69.7z M145.1,66.9c-0.5,0-0.9-0.2-1.3-0.5v-2.8c0.2-0.2,0.4-0.4,0.7-0.5
	c0.2-0.1,0.5-0.2,0.7-0.2c0.4,0,0.7,0.2,0.9,0.5c0.2,0.4,0.3,0.9,0.3,1.6c0,0.6-0.1,1.1-0.4,1.4C145.9,66.7,145.5,66.9,145.1,66.9
	L145.1,66.9L145.1,66.9z M150.2,67.6c0.5,0,0.8-0.1,0.8-0.3c0-0.1,0-0.2-0.1-0.3c0-0.1-0.1-0.2-0.2-0.2c0,0-0.1,0-0.2,0
	c-0.1,0-0.2,0-0.3,0c-0.2,0-0.3-0.1-0.4-0.2c-0.1-0.1-0.2-0.3-0.2-0.6V60c0-0.2-0.1-0.2-0.4-0.2h0c-0.3,0-0.4,0.1-0.4,0.2v6.2
	c0,0.5,0.1,0.9,0.4,1.1C149.5,67.5,149.8,67.6,150.2,67.6L150.2,67.6L150.2,67.6z M152.4,61.2c0.3,0,0.5-0.1,0.5-0.2v-0.6
	c0-0.2-0.2-0.2-0.5-0.2c-0.3,0-0.5,0.1-0.5,0.2v0.6C152,61.1,152.1,61.2,152.4,61.2L152.4,61.2L152.4,61.2z M152.4,67.6L152.4,67.6
	c0.3,0,0.5-0.1,0.5-0.2v-5c0-0.2-0.1-0.2-0.4-0.2h0c-0.3,0-0.4,0.1-0.4,0.2v5C152,67.5,152.1,67.6,152.4,67.6L152.4,67.6L152.4,67.6
	z M156.9,67.6c0.3,0,0.6,0,0.8-0.1c0.2-0.1,0.4-0.1,0.6-0.2c0.1-0.1,0.2-0.2,0.2-0.2c0-0.1,0-0.2-0.1-0.3c-0.1-0.1-0.2-0.2-0.2-0.2
	l-0.1,0c-0.4,0.2-0.8,0.3-1.2,0.3c-0.6,0-1-0.2-1.2-0.5c-0.2-0.3-0.4-0.9-0.4-1.6c0-1.3,0.5-2,1.5-2c0.4,0,0.8,0.1,1.1,0.2
	c0,0,0.1,0,0.1,0c0,0,0,0,0,0c0.1,0,0.1-0.1,0.2-0.2c0.1-0.1,0.1-0.3,0.1-0.3c0-0.1-0.2-0.2-0.5-0.3c-0.3-0.1-0.7-0.1-1.1-0.1
	c-0.7,0-1.3,0.2-1.8,0.6c-0.5,0.4-0.7,1.1-0.7,2.1c0,1,0.2,1.7,0.6,2.1C155.4,67.4,156,67.6,156.9,67.6L156.9,67.6L156.9,67.6z
	 M160.2,67.6L160.2,67.6c0.3,0,0.5-0.1,0.5-0.2v-3.8c0,0,0.1-0.1,0.2-0.2c0.1-0.1,0.3-0.2,0.5-0.4c0.2-0.1,0.4-0.2,0.6-0.2
	c0.3,0,0.6,0.1,0.8,0.3c0.2,0.2,0.3,0.4,0.3,0.7v3.5c0,0.2,0.1,0.2,0.4,0.2h0c0.3,0,0.4-0.1,0.4-0.2v-3.6c0-0.6-0.2-1.1-0.5-1.3
	c-0.3-0.2-0.7-0.4-1.2-0.4c-0.3,0-0.6,0.1-0.9,0.2c-0.3,0.1-0.5,0.3-0.7,0.5V60c0-0.2-0.1-0.2-0.4-0.2h0c-0.3,0-0.4,0.1-0.4,0.2v7.4
	C159.8,67.5,159.9,67.6,160.2,67.6L160.2,67.6L160.2,67.6z M167.2,67.6c0.5,0,0.8-0.1,0.8-0.3c0-0.1,0-0.2-0.1-0.3
	c0-0.1-0.1-0.2-0.2-0.2c0,0-0.1,0-0.2,0c-0.1,0-0.2,0-0.3,0c-0.2,0-0.3-0.1-0.4-0.2c-0.1-0.1-0.2-0.3-0.2-0.6v-3.2h0.9
	c0.1,0,0.1,0,0.2-0.1c0,0,0-0.1,0-0.2v-0.1c0-0.1,0-0.2,0-0.2c0,0-0.1-0.1-0.2-0.1h-0.9v-1.1c0-0.2-0.1-0.2-0.3-0.2h-0.1
	c-0.2,0-0.3,0.1-0.3,0.2l-0.1,1.1h-0.5c-0.1,0-0.1,0-0.2,0.1c0,0-0.1,0.1-0.1,0.2v0.1c0,0.1,0,0.2,0.1,0.2c0,0,0.1,0.1,0.2,0.1h0.5
	v3.3c0,0.5,0.1,0.9,0.4,1.1C166.5,67.5,166.8,67.6,167.2,67.6L167.2,67.6L167.2,67.6z M173.1,67.6h0.4c0.2,0,0.4-0.1,0.4-0.2l1.7-5
	c0-0.1,0-0.1,0-0.1c0-0.1-0.1-0.2-0.4-0.2h0c-0.2,0-0.4,0.1-0.4,0.2l-1.1,3.3c-0.1,0.2-0.2,0.6-0.2,1l-0.1,0.3h0
	c-0.2-0.6-0.3-1.1-0.4-1.3l-1.1-3.3c0-0.1-0.2-0.2-0.4-0.2h-0.1c-0.3,0-0.4,0.1-0.4,0.2c0,0,0,0.1,0,0.1l1.7,5
	C172.7,67.6,172.9,67.6,173.1,67.6L173.1,67.6L173.1,67.6z M178.9,67.6c0.3,0,0.6,0,0.9-0.1c0.3-0.1,0.5-0.2,0.7-0.3
	c0.2-0.1,0.3-0.2,0.3-0.3c0-0.1,0-0.2-0.1-0.3c-0.1-0.1-0.2-0.2-0.2-0.2c0,0-0.1,0-0.2,0.1c-0.1,0.1-0.3,0.1-0.5,0.2
	c-0.2,0.1-0.5,0.1-0.8,0.1c-0.5,0-0.9-0.1-1.2-0.4c-0.3-0.3-0.4-0.7-0.4-1.3h3.3c0.1,0,0.1-0.1,0.2-0.2c0.1-0.1,0.1-0.2,0.1-0.3
	c0-0.9-0.2-1.6-0.5-2c-0.4-0.5-0.9-0.7-1.6-0.7c-0.8,0-1.4,0.2-1.8,0.7c-0.4,0.5-0.6,1.2-0.6,2.1c0,0.9,0.2,1.6,0.6,2.1
	C177.4,67.4,178.1,67.6,178.9,67.6L178.9,67.6L178.9,67.6z M177.3,64.5c0.1-1.1,0.6-1.6,1.5-1.6c0.8,0,1.2,0.5,1.2,1.6H177.3
	L177.3,64.5z M183.6,67.6c0.5,0,0.8-0.1,0.8-0.3c0-0.1,0-0.2-0.1-0.3c0-0.1-0.1-0.2-0.2-0.2c0,0-0.1,0-0.2,0c-0.1,0-0.2,0-0.3,0
	c-0.2,0-0.3-0.1-0.4-0.2c-0.1-0.1-0.2-0.3-0.2-0.6V60c0-0.2-0.1-0.2-0.4-0.2h0c-0.3,0-0.4,0.1-0.4,0.2v6.2c0,0.5,0.1,0.9,0.4,1.1
	C182.9,67.5,183.2,67.6,183.6,67.6L183.6,67.6L183.6,67.6z M187,67.6c0.6,0,1.2-0.3,1.7-0.8c0,0,0,0.1,0,0.2c0,0.1,0.1,0.2,0.1,0.3
	c0,0.1,0.1,0.2,0.2,0.2c0.1,0,0.2,0,0.4-0.1c0.1,0,0.2-0.1,0.2-0.2c0,0,0-0.1-0.1-0.3c0-0.2-0.1-0.5-0.1-1v-6c0-0.2-0.1-0.2-0.4-0.2
	h0c-0.3,0-0.4,0.1-0.4,0.2v2.6c-0.2-0.2-0.4-0.3-0.7-0.4c-0.2-0.1-0.5-0.1-0.8-0.1c-0.4,0-0.8,0.1-1.1,0.3c-0.3,0.2-0.6,0.5-0.7,1
	c-0.2,0.4-0.3,0.9-0.3,1.5c0,0.5,0.1,1,0.2,1.4c0.2,0.4,0.4,0.8,0.7,1C186.3,67.5,186.6,67.6,187,67.6L187,67.6L187,67.6z
	 M187.2,66.9c-0.4,0-0.7-0.2-0.9-0.5c-0.2-0.4-0.3-0.9-0.3-1.6c0-0.6,0.1-1.1,0.4-1.4c0.2-0.3,0.6-0.5,1-0.5c0.5,0,0.9,0.2,1.3,0.5
	v2.8c-0.2,0.2-0.4,0.4-0.7,0.5C187.7,66.8,187.5,66.9,187.2,66.9L187.2,66.9L187.2,66.9z M191.3,67.6h0.2c0.3,0,0.4-0.1,0.4-0.2
	v-0.7c0-0.2-0.1-0.2-0.4-0.2h-0.2c-0.3,0-0.4,0.1-0.4,0.2v0.7C190.9,67.5,191,67.6,191.3,67.6L191.3,67.6L191.3,67.6z"/>
<g>
	<defs>
		<rect id="SVGID_9_" x="61.1" y="68.2" width="36.4" height="1.3"/>
	</defs>
	<clipPath id="SVGID_10_">
		<use xlink:href="#SVGID_9_"  style="overflow:visible;"/>
	</clipPath>
	<rect x="57.8" y="65" class="st5" width="42.9" height="7.8"/>
</g>
<g>
	<defs>
		<rect id="SVGID_11_" x="19.4" y="42.6" width="353.3" height="57.1"/>
	</defs>
	<defs>
		<path id="SVGID_12_" d="M41.6,55.8l8,13.5c0.3,0.5,0.3,1.2,0,1.7c-0.3,0.5-0.9,0.8-1.5,0.8H32.1c-0.4,0-0.9-0.2-1.2-0.5
			c-0.3-0.3-0.5-0.7-0.5-1.2c0-0.3,0.1-0.6,0.2-0.9l8-13.5c0.5-0.8,1.5-1.1,2.3-0.6C41.3,55.4,41.5,55.6,41.6,55.8L41.6,55.8z"/>
	</defs>
	<clipPath id="SVGID_13_">
		<use xlink:href="#SVGID_11_"  style="overflow:visible;"/>
	</clipPath>
	<clipPath id="SVGID_14_" class="st6">
		<use xlink:href="#SVGID_12_"  style="overflow:visible;"/>
	</clipPath>
	<rect x="27.2" y="51.7" class="st7" width="26" height="23.4"/>
</g>
<g>
	<defs>
		<rect id="SVGID_15_" x="19.4" y="42.6" width="353.3" height="57.1"/>
	</defs>
	<defs>
		<path id="SVGID_16_" d="M39.8,59.8h0.8c0.2,0,0.4,0.2,0.4,0.4v4.9c0,0.2-0.2,0.4-0.4,0.4h-0.8c-0.2,0-0.4-0.2-0.4-0.4v-4.9
			C39.3,60,39.5,59.8,39.8,59.8L39.8,59.8z"/>
	</defs>
	<clipPath id="SVGID_17_">
		<use xlink:href="#SVGID_15_"  style="overflow:visible;"/>
	</clipPath>
	<clipPath id="SVGID_18_" class="st8">
		<use xlink:href="#SVGID_16_"  style="overflow:visible;"/>
	</clipPath>
	<rect x="36.1" y="56.6" class="st9" width="8.1" height="12.2"/>
</g>
<g>
	<defs>
		<rect id="SVGID_19_" x="19.4" y="42.6" width="353.3" height="57.1"/>
	</defs>
	<defs>
		<path id="SVGID_20_" d="M40.2,69.6c0.7,0,1.2-0.5,1.2-1.2c0-0.7-0.5-1.2-1.2-1.2c-0.7,0-1.2,0.5-1.2,1.2
			C38.9,69,39.5,69.6,40.2,69.6L40.2,69.6z"/>
	</defs>
	<clipPath id="SVGID_21_">
		<use xlink:href="#SVGID_19_"  style="overflow:visible;"/>
	</clipPath>
	<clipPath id="SVGID_22_" class="st10">
		<use xlink:href="#SVGID_20_"  style="overflow:visible;"/>
	</clipPath>
	<rect x="35.7" y="63.9" class="st11" width="8.9" height="8.9"/>
</g>
<g>
	<defs>
		<rect id="SVGID_23_" x="19.4" y="94.9" width="353.3" height="57.1"/>
	</defs>
	<defs>
		<path id="SVGID_24_" d="M41.7,108.1l8,13.5c0.3,0.5,0.3,1.2,0,1.7c-0.3,0.5-0.9,0.8-1.5,0.8H32.2c-0.4,0-0.9-0.2-1.2-0.5
			c-0.3-0.3-0.5-0.7-0.5-1.2c0-0.3,0.1-0.6,0.2-0.9l8-13.5c0.5-0.8,1.5-1.1,2.3-0.6C41.3,107.7,41.5,107.9,41.7,108.1L41.7,108.1z"
			/>
	</defs>
	<clipPath id="SVGID_25_">
		<use xlink:href="#SVGID_23_"  style="overflow:visible;"/>
	</clipPath>
	<clipPath id="SVGID_26_" class="st12">
		<use xlink:href="#SVGID_24_"  style="overflow:visible;"/>
	</clipPath>
	<rect x="27.2" y="104" class="st13" width="26" height="23.4"/>
</g>
<g>
	<defs>
		<rect id="SVGID_27_" x="19.4" y="94.9" width="353.3" height="57.1"/>
	</defs>
	<defs>
		<path id="SVGID_28_" d="M39.8,112.1h0.8c0.2,0,0.4,0.2,0.4,0.4v4.9c0,0.2-0.2,0.4-0.4,0.4h-0.8c-0.2,0-0.4-0.2-0.4-0.4v-4.9
			C39.4,112.3,39.6,112.1,39.8,112.1L39.8,112.1z"/>
	</defs>
	<clipPath id="SVGID_29_">
		<use xlink:href="#SVGID_27_"  style="overflow:visible;"/>
	</clipPath>
	<clipPath id="SVGID_30_" class="st14">
		<use xlink:href="#SVGID_28_"  style="overflow:visible;"/>
	</clipPath>
	<rect x="36.2" y="108.9" class="st15" width="8.1" height="12.2"/>
</g>
<g>
	<defs>
		<rect id="SVGID_31_" x="19.4" y="94.9" width="353.3" height="57.1"/>
	</defs>
	<defs>
		<path id="SVGID_32_" d="M40.2,121.9c0.7,0,1.2-0.5,1.2-1.2c0-0.7-0.5-1.2-1.2-1.2c-0.7,0-1.2,0.5-1.2,1.2
			C39,121.3,39.5,121.9,40.2,121.9L40.2,121.9z"/>
	</defs>
	<clipPath id="SVGID_33_">
		<use xlink:href="#SVGID_31_"  style="overflow:visible;"/>
	</clipPath>
	<clipPath id="SVGID_34_" class="st16">
		<use xlink:href="#SVGID_32_"  style="overflow:visible;"/>
	</clipPath>
	<rect x="35.8" y="116.2" class="st17" width="8.9" height="8.9"/>
</g>
<line class="st18" x1="0" y1="320" x2="0" y2="0"/>
<g>
</g>
<g>
</g>
<g>
</g>
<g>
</g>
<g>
</g>
<g>
</g>
</svg>
