<?xml version="1.0" encoding="utf-8"?>
<!-- Generator: Adobe Illustrator 23.1.1, SVG Export Plug-In . SVG Version: 6.00 Build 0)  -->
<svg version="1.1" id="Layer_1" xmlns="http://www.w3.org/2000/svg" xmlns:xlink="http://www.w3.org/1999/xlink" x="0px" y="0px"
	 viewBox="0 0 650 64" style="enable-background:new 0 0 650 64;" xml:space="preserve">
<style type="text/css">
	.st0{fill:none;stroke:#666666;stroke-width:0.4437;stroke-miterlimit:10;}
	.st1{fill:#161616;}
	.st2{fill:#39870C;}
</style>
<line class="st0" x1="0.6" y1="64" x2="0.6" y2="0"/>
<path class="st1" d="M62,37.4h4.5c0.1,0,0.2,0,0.2-0.1c0-0.1,0.1-0.2,0.1-0.3v-0.2c0-0.1,0-0.2-0.1-0.3c0-0.1-0.1-0.1-0.2-0.1h-3.7
	v-3.1h3.3c0.1,0,0.2,0,0.2-0.1c0-0.1,0.1-0.2,0.1-0.3v-0.2c0-0.1,0-0.2-0.1-0.3c0-0.1-0.1-0.1-0.2-0.1h-3.3v-2.9h3.7
	c0.1,0,0.2,0,0.2-0.1c0-0.1,0.1-0.2,0.1-0.3v-0.2c0-0.1,0-0.2-0.1-0.3c0-0.1-0.1-0.1-0.2-0.1H62c-0.1,0-0.2,0-0.3,0.1
	c-0.1,0.1-0.1,0.2-0.1,0.3V37c0,0.1,0,0.2,0.1,0.3C61.7,37.4,61.8,37.4,62,37.4L62,37.4L62,37.4z M71.2,37.5c0.4,0,0.8,0,1.1-0.1
	c0.4-0.1,0.6-0.2,0.9-0.3c0.2-0.1,0.3-0.2,0.3-0.4c0-0.1-0.1-0.2-0.2-0.4C73.2,36.1,73.1,36,73,36c0,0-0.1,0-0.3,0.1
	c-0.2,0.1-0.4,0.2-0.6,0.3c-0.3,0.1-0.6,0.1-0.9,0.1c-0.6,0-1.1-0.2-1.4-0.5c-0.3-0.3-0.5-0.9-0.6-1.6h4c0.1,0,0.2-0.1,0.3-0.2
	c0.1-0.1,0.2-0.2,0.2-0.3c0-1.1-0.2-1.9-0.7-2.5c-0.4-0.6-1.1-0.9-2-0.9c-1,0-1.7,0.3-2.2,0.9C68.3,32.1,68,33,68,34.1
	c0,1.1,0.3,2,0.8,2.5C69.3,37.2,70.1,37.5,71.2,37.5L71.2,37.5L71.2,37.5z M69.2,33.6c0.1-1.3,0.7-2,1.8-2c1,0,1.5,0.7,1.5,2H69.2
	L69.2,33.6z M75.8,37.4L75.8,37.4c0.4,0,0.6-0.1,0.6-0.3v-4.7c0.2-0.3,0.5-0.5,0.7-0.7c0.3-0.2,0.6-0.2,0.9-0.2c0.4,0,0.7,0.1,1,0.3
	c0.2,0.2,0.3,0.5,0.3,0.9v4.3c0,0.2,0.2,0.3,0.5,0.3h0.1c0.3,0,0.5-0.1,0.5-0.3v-4.4c0-0.6-0.2-1.2-0.6-1.5
	c-0.4-0.4-0.9-0.6-1.5-0.6c-0.4,0-0.7,0.1-1.1,0.3c-0.3,0.2-0.7,0.4-0.9,0.7c0,0,0-0.1-0.1-0.3c0-0.1-0.1-0.3-0.1-0.4
	c-0.1-0.1-0.1-0.2-0.3-0.2c-0.1,0-0.3,0-0.4,0.1c-0.2,0-0.2,0.1-0.2,0.2c0,0,0,0.2,0.1,0.4c0.1,0.2,0.1,0.6,0.1,1.2v4.5
	C75.3,37.3,75.5,37.4,75.8,37.4L75.8,37.4L75.8,37.4z M92.3,30.6c-0.4,0-0.8,0.1-1.1,0.3c-0.4,0.2-0.7,0.5-0.9,0.8
	c-0.2-0.4-0.4-0.7-0.7-0.8c-0.3-0.2-0.7-0.2-1.1-0.2c-0.4,0-0.7,0.1-1.1,0.3c-0.3,0.2-0.6,0.4-0.9,0.7c0,0,0-0.1-0.1-0.3
	c0-0.1-0.1-0.3-0.1-0.4c-0.1-0.1-0.1-0.2-0.3-0.2c-0.1,0-0.3,0-0.4,0.1c-0.2,0-0.2,0.1-0.2,0.2c0,0,0,0.2,0.1,0.4
	c0.1,0.2,0.1,0.6,0.1,1.2v4.5c0,0.2,0.2,0.3,0.5,0.3h0.1c0.3,0,0.5-0.1,0.5-0.3v-4.7c0,0,0.1-0.1,0.2-0.3c0.1-0.2,0.3-0.3,0.6-0.4
	c0.2-0.1,0.5-0.2,0.8-0.2c0.4,0,0.7,0.1,0.9,0.3c0.2,0.2,0.3,0.5,0.3,0.9v4.3c0,0.2,0.2,0.3,0.5,0.3H90c0.3,0,0.5-0.1,0.5-0.3v-4.4
	c0-0.1,0-0.2,0-0.3c0.5-0.6,1-0.9,1.6-0.9c0.4,0,0.7,0.1,0.9,0.3c0.2,0.2,0.3,0.5,0.3,0.9v4.3c0,0.2,0.2,0.3,0.5,0.3h0.1
	c0.3,0,0.5-0.1,0.5-0.3v-4.4c0-0.8-0.2-1.3-0.6-1.6C93.3,30.8,92.9,30.6,92.3,30.6L92.3,30.6L92.3,30.6z M99,37.5
	c1,0,1.7-0.3,2.2-0.9c0.5-0.6,0.7-1.4,0.7-2.5c0-1.1-0.2-2-0.7-2.6c-0.5-0.6-1.2-0.9-2.2-0.9c-1,0-1.7,0.3-2.2,0.9
	C96.3,32.1,96,33,96,34.1c0,1.1,0.3,1.9,0.8,2.5C97.3,37.2,98,37.5,99,37.5L99,37.5L99,37.5z M98.9,36.6c-0.6,0-1.1-0.2-1.4-0.6
	c-0.3-0.4-0.4-1-0.4-1.9c0-0.9,0.1-1.5,0.4-1.9c0.3-0.4,0.7-0.6,1.4-0.6c0.6,0,1.1,0.2,1.4,0.6c0.3,0.4,0.4,1,0.4,1.9
	c0,0.9-0.1,1.5-0.4,1.9C100,36.4,99.5,36.6,98.9,36.6L98.9,36.6L98.9,36.6z M110.5,30.6c-0.4,0-0.8,0.1-1.1,0.3
	c-0.4,0.2-0.7,0.5-0.9,0.8c-0.2-0.4-0.4-0.7-0.7-0.8c-0.3-0.2-0.7-0.2-1.1-0.2c-0.4,0-0.7,0.1-1.1,0.3c-0.3,0.2-0.6,0.4-0.9,0.7
	c0,0,0-0.1-0.1-0.3c0-0.1-0.1-0.3-0.1-0.4c-0.1-0.1-0.1-0.2-0.3-0.2c-0.1,0-0.3,0-0.4,0.1c-0.2,0-0.2,0.1-0.2,0.2c0,0,0,0.2,0.1,0.4
	c0.1,0.2,0.1,0.6,0.1,1.2v4.5c0,0.2,0.2,0.3,0.5,0.3h0.1c0.3,0,0.5-0.1,0.5-0.3v-4.7c0,0,0.1-0.1,0.2-0.3c0.1-0.2,0.3-0.3,0.6-0.4
	c0.2-0.1,0.5-0.2,0.8-0.2c0.4,0,0.7,0.1,0.9,0.3c0.2,0.2,0.3,0.5,0.3,0.9v4.3c0,0.2,0.2,0.3,0.5,0.3h0.1c0.3,0,0.5-0.1,0.5-0.3v-4.4
	c0-0.1,0-0.2,0-0.3c0.5-0.6,1-0.9,1.6-0.9c0.4,0,0.7,0.1,0.9,0.3c0.2,0.2,0.3,0.5,0.3,0.9v4.3c0,0.2,0.2,0.3,0.5,0.3h0.1
	c0.3,0,0.5-0.1,0.5-0.3v-4.4c0-0.8-0.2-1.3-0.6-1.6C111.5,30.8,111,30.6,110.5,30.6L110.5,30.6L110.5,30.6z M117.3,37.5
	c0.4,0,0.8,0,1.1-0.1c0.4-0.1,0.6-0.2,0.9-0.3c0.2-0.1,0.3-0.2,0.3-0.4c0-0.1-0.1-0.2-0.2-0.4c-0.1-0.2-0.2-0.3-0.3-0.3
	c0,0-0.1,0-0.3,0.1c-0.2,0.1-0.4,0.2-0.6,0.3c-0.3,0.1-0.6,0.1-0.9,0.1c-0.6,0-1.1-0.2-1.4-0.5c-0.3-0.3-0.5-0.9-0.6-1.6h4
	c0.1,0,0.2-0.1,0.3-0.2c0.1-0.1,0.2-0.2,0.2-0.3c0-1.1-0.2-1.9-0.7-2.5c-0.4-0.6-1.1-0.9-2-0.9c-1,0-1.7,0.3-2.2,0.9
	c-0.5,0.6-0.8,1.5-0.8,2.6c0,1.1,0.3,2,0.8,2.5C115.4,37.2,116.2,37.5,117.3,37.5L117.3,37.5L117.3,37.5z M115.3,33.6
	c0.1-1.3,0.7-2,1.8-2c1,0,1.5,0.7,1.5,2H115.3L115.3,33.6z M121.9,37.4L121.9,37.4c0.4,0,0.6-0.1,0.6-0.3v-4.7
	c0.2-0.3,0.5-0.5,0.7-0.7c0.3-0.2,0.6-0.2,0.9-0.2c0.4,0,0.7,0.1,1,0.3c0.2,0.2,0.3,0.5,0.3,0.9v4.3c0,0.2,0.2,0.3,0.5,0.3h0.1
	c0.3,0,0.5-0.1,0.5-0.3v-4.4c0-0.6-0.2-1.2-0.6-1.5c-0.4-0.4-0.9-0.6-1.5-0.6c-0.4,0-0.7,0.1-1.1,0.3c-0.3,0.2-0.7,0.4-0.9,0.7
	c0,0,0-0.1-0.1-0.3c0-0.1-0.1-0.3-0.1-0.4c-0.1-0.1-0.1-0.2-0.3-0.2c-0.1,0-0.3,0-0.4,0.1c-0.2,0-0.2,0.1-0.2,0.2c0,0,0,0.2,0.1,0.4
	c0.1,0.2,0.1,0.6,0.1,1.2v4.5C121.4,37.3,121.6,37.4,121.9,37.4L121.9,37.4L121.9,37.4z M130.5,37.5c0.6,0,0.9-0.1,0.9-0.4
	c0-0.1,0-0.2-0.1-0.4c-0.1-0.2-0.1-0.2-0.2-0.2c0,0-0.1,0-0.2,0c-0.1,0-0.2,0-0.4,0c-0.2,0-0.4-0.1-0.5-0.2
	c-0.1-0.1-0.2-0.4-0.2-0.7v-4h1.1c0.1,0,0.2,0,0.2-0.1c0-0.1,0.1-0.2,0.1-0.3v-0.2c0-0.1,0-0.2-0.1-0.3c0-0.1-0.1-0.1-0.2-0.1h-1.1
	v-1.3c0-0.2-0.1-0.3-0.4-0.3h-0.1c-0.2,0-0.4,0.1-0.4,0.3l-0.2,1.3h-0.6c-0.1,0-0.1,0-0.2,0.1c0,0.1-0.1,0.2-0.1,0.3v0.2
	c0,0.1,0,0.2,0.1,0.3c0,0.1,0.1,0.1,0.2,0.1h0.6v4.1c0,0.7,0.2,1.1,0.5,1.4C129.7,37.4,130.1,37.5,130.5,37.5L130.5,37.5L130.5,37.5
	z M138.1,40.1c1,0,1.7-0.2,2.2-0.5c0.5-0.3,0.7-0.8,0.7-1.4c0-0.5-0.2-0.9-0.5-1.1c-0.3-0.2-0.8-0.4-1.4-0.4c-0.1,0-0.2,0-0.4-0.1
	c-0.4,0-0.7-0.1-0.9-0.1c-0.2-0.1-0.4-0.1-0.5-0.2c-0.1-0.1-0.2-0.3-0.2-0.5c0-0.3,0.1-0.5,0.3-0.7c0.2-0.1,0.5-0.2,0.9-0.2
	c0.8,0,1.4-0.2,1.9-0.6c0.4-0.4,0.7-0.9,0.7-1.5c0-0.4-0.1-0.8-0.3-1.1l0,0c0.2,0,0.5,0,0.9,0c0.1,0,0.2,0,0.2-0.1
	c0-0.1,0.1-0.2,0.1-0.3v-0.2c0-0.1,0-0.2-0.1-0.3c0-0.1-0.1-0.1-0.2-0.1h-2.3c-0.2-0.1-0.5-0.1-0.8-0.1c-0.8,0-1.4,0.2-1.9,0.6
	c-0.4,0.4-0.7,0.9-0.7,1.5c0,0.4,0.1,0.7,0.3,1.1c0.2,0.3,0.5,0.6,0.8,0.7c-0.5,0.3-0.7,0.8-0.7,1.3c0,0.4,0.2,0.8,0.5,1l0,0
	c-0.4,0.1-0.6,0.4-0.8,0.6c-0.2,0.3-0.3,0.6-0.3,1c0,0.5,0.2,0.9,0.7,1.2C136.7,40,137.3,40.1,138.1,40.1L138.1,40.1L138.1,40.1z
	 M138.3,34c-1,0-1.5-0.4-1.5-1.2c0-0.8,0.5-1.2,1.5-1.2c1,0,1.5,0.4,1.5,1.2c0,0.4-0.1,0.7-0.4,0.9C139.1,33.9,138.8,34,138.3,34
	L138.3,34L138.3,34z M138.3,39.2c-1.2,0-1.8-0.3-1.8-0.9c0-0.5,0.3-0.8,0.8-1c0.2,0.1,0.5,0.1,1,0.2c0.6,0.1,1,0.1,1.3,0.2
	c0.3,0.1,0.4,0.3,0.4,0.6c0,0.3-0.1,0.6-0.4,0.7C139.3,39.2,138.9,39.2,138.3,39.2L138.3,39.2L138.3,39.2z M145.7,37.5
	c0.4,0,0.8,0,1.1-0.1c0.4-0.1,0.6-0.2,0.9-0.3c0.2-0.1,0.3-0.2,0.3-0.4c0-0.1-0.1-0.2-0.2-0.4c-0.1-0.2-0.2-0.3-0.3-0.3
	c0,0-0.1,0-0.3,0.1c-0.2,0.1-0.4,0.2-0.6,0.3c-0.3,0.1-0.6,0.1-0.9,0.1c-0.6,0-1.1-0.2-1.4-0.5c-0.3-0.3-0.5-0.9-0.6-1.6h4
	c0.1,0,0.2-0.1,0.3-0.2c0.1-0.1,0.2-0.2,0.2-0.3c0-1.1-0.2-1.9-0.7-2.5c-0.4-0.6-1.1-0.9-2-0.9c-1,0-1.7,0.3-2.2,0.9
	c-0.5,0.6-0.8,1.5-0.8,2.6c0,1.1,0.3,2,0.8,2.5C143.9,37.2,144.7,37.5,145.7,37.5L145.7,37.5L145.7,37.5z M143.8,33.6
	c0.1-1.3,0.7-2,1.8-2c1,0,1.5,0.7,1.5,2H143.8L143.8,33.6z M151.9,37.5c0.7,0,1.4-0.3,2-1c0,0,0,0.1,0.1,0.3c0,0.1,0.1,0.3,0.1,0.4
	c0.1,0.1,0.1,0.2,0.3,0.2c0.1,0,0.3,0,0.4-0.1c0.2,0,0.2-0.1,0.2-0.2c0,0,0-0.2-0.1-0.4c-0.1-0.2-0.1-0.6-0.1-1.2v-7.4
	c0-0.2-0.2-0.3-0.5-0.3h-0.1c-0.3,0-0.5,0.1-0.5,0.3v3.2c-0.3-0.2-0.6-0.4-0.8-0.5c-0.3-0.1-0.6-0.2-1-0.2c-0.5,0-1,0.1-1.4,0.4
	c-0.4,0.3-0.7,0.7-0.9,1.2c-0.2,0.5-0.3,1.1-0.3,1.9c0,0.7,0.1,1.2,0.3,1.8c0.2,0.5,0.5,0.9,0.9,1.2C151,37.3,151.4,37.5,151.9,37.5
	L151.9,37.5L151.9,37.5z M152.2,36.5c-0.5,0-0.9-0.2-1.2-0.7c-0.3-0.4-0.4-1.1-0.4-1.9c0-0.8,0.1-1.4,0.4-1.8
	c0.3-0.4,0.7-0.6,1.3-0.6c0.6,0,1.1,0.2,1.6,0.6v3.5c-0.3,0.3-0.5,0.5-0.8,0.7C152.7,36.5,152.5,36.5,152.2,36.5L152.2,36.5
	L152.2,36.5z M159.1,37.5c0.4,0,0.7-0.1,1.1-0.3c0.3-0.2,0.7-0.4,0.9-0.7c0,0,0,0.1,0.1,0.3c0,0.1,0.1,0.3,0.1,0.4
	c0.1,0.1,0.1,0.2,0.3,0.2c0.1,0,0.3,0,0.4-0.1c0.2,0,0.2-0.1,0.2-0.2c0,0,0-0.2-0.1-0.4c-0.1-0.2-0.1-0.6-0.1-1.2V31
	c0-0.2-0.2-0.3-0.5-0.3h-0.1c-0.3,0-0.5,0.1-0.5,0.3v4.7c-0.2,0.3-0.5,0.5-0.7,0.7c-0.3,0.2-0.6,0.2-0.9,0.2c-0.4,0-0.7-0.1-1-0.3
	c-0.2-0.2-0.3-0.5-0.3-0.9V31c0-0.2-0.2-0.3-0.5-0.3h-0.1c-0.3,0-0.5,0.1-0.5,0.3v4.4c0,0.6,0.2,1.2,0.6,1.5
	C157.9,37.3,158.4,37.5,159.1,37.5L159.1,37.5L159.1,37.5z M165.9,37.5c0.6,0,0.9-0.1,0.9-0.4c0-0.1,0-0.2-0.1-0.4
	c-0.1-0.2-0.1-0.2-0.2-0.2c0,0-0.1,0-0.2,0c-0.1,0-0.2,0-0.4,0c-0.2,0-0.4-0.1-0.5-0.2c-0.1-0.1-0.2-0.4-0.2-0.7v-7.6
	c0-0.2-0.2-0.3-0.5-0.3h-0.1c-0.3,0-0.5,0.1-0.5,0.3v7.7c0,0.7,0.2,1.1,0.5,1.4C165,37.4,165.4,37.5,165.9,37.5L165.9,37.5
	L165.9,37.5z M170.1,37.5c0.7,0,1.4-0.3,2-1c0,0,0,0.1,0.1,0.3c0,0.1,0.1,0.3,0.1,0.4c0.1,0.1,0.1,0.2,0.3,0.2c0.1,0,0.3,0,0.4-0.1
	c0.2,0,0.2-0.1,0.2-0.2c0,0,0-0.2-0.1-0.4c-0.1-0.2-0.1-0.6-0.1-1.2v-7.4c0-0.2-0.2-0.3-0.5-0.3h-0.1c-0.3,0-0.5,0.1-0.5,0.3v3.2
	c-0.3-0.2-0.6-0.4-0.8-0.5c-0.3-0.1-0.6-0.2-1-0.2c-0.5,0-1,0.1-1.4,0.4c-0.4,0.3-0.7,0.7-0.9,1.2c-0.2,0.5-0.3,1.1-0.3,1.9
	c0,0.7,0.1,1.2,0.3,1.8c0.2,0.5,0.5,0.9,0.9,1.2C169.2,37.3,169.6,37.5,170.1,37.5L170.1,37.5L170.1,37.5z M170.3,36.5
	c-0.5,0-0.9-0.2-1.2-0.7c-0.3-0.4-0.4-1.1-0.4-1.9c0-0.8,0.1-1.4,0.4-1.8c0.3-0.4,0.7-0.6,1.3-0.6c0.6,0,1.1,0.2,1.6,0.6v3.5
	c-0.3,0.3-0.5,0.5-0.8,0.7C170.9,36.5,170.6,36.5,170.3,36.5L170.3,36.5L170.3,36.5z M180.1,37.5c0.9,0,1.6-0.3,2.2-1
	c0,0,0,0.1,0.1,0.3c0,0.1,0.1,0.3,0.1,0.4c0.1,0.1,0.1,0.2,0.3,0.2c0.1,0,0.3,0,0.4-0.1c0.2,0,0.2-0.1,0.2-0.2c0,0,0-0.2-0.1-0.4
	c-0.1-0.2-0.1-0.6-0.1-1.2v-2.9c0-0.6-0.2-1.1-0.7-1.5c-0.4-0.4-1.1-0.5-1.9-0.5c-0.4,0-0.8,0-1.2,0.1c-0.4,0.1-0.7,0.2-0.9,0.3
	c-0.2,0.1-0.3,0.2-0.3,0.4c0,0.1,0.1,0.2,0.2,0.4c0.1,0.2,0.2,0.3,0.3,0.3c0,0,0.1,0,0.3-0.1c0.2-0.1,0.4-0.2,0.7-0.3
	c0.3-0.1,0.6-0.1,1-0.1c0.5,0,0.9,0.1,1.1,0.3c0.2,0.2,0.3,0.5,0.3,0.8v0.6c-0.8,0-1.6,0.1-2.2,0.2c-0.6,0.1-1.1,0.3-1.5,0.7
	c-0.4,0.3-0.6,0.8-0.6,1.5c0,0.6,0.2,1.1,0.6,1.4C178.9,37.3,179.4,37.5,180.1,37.5L180.1,37.5L180.1,37.5z M180.1,36.5
	c-0.4,0-0.6-0.1-0.8-0.3c-0.2-0.2-0.3-0.4-0.3-0.8c0-0.4,0.2-0.7,0.5-0.9c0.3-0.2,0.7-0.3,1.1-0.4c0.4,0,0.9-0.1,1.6-0.1v1.5
	c-0.3,0.3-0.6,0.5-0.9,0.7C180.9,36.5,180.5,36.5,180.1,36.5L180.1,36.5L180.1,36.5z M185.4,37.4h0.2c0.3,0,0.5-0.1,0.5-0.3v-0.8
	c0-0.2-0.2-0.3-0.5-0.3h-0.2c-0.3,0-0.5,0.1-0.5,0.3v0.8C184.9,37.3,185.1,37.4,185.4,37.4L185.4,37.4L185.4,37.4z M189.8,37.5
	c0.4,0,0.7-0.1,1.1-0.3c0.3-0.2,0.7-0.4,0.9-0.7c0,0,0,0.1,0.1,0.3c0,0.1,0.1,0.3,0.1,0.4c0.1,0.1,0.1,0.2,0.3,0.2
	c0.1,0,0.3,0,0.4-0.1c0.2,0,0.2-0.1,0.2-0.2c0,0,0-0.2-0.1-0.4c-0.1-0.2-0.1-0.6-0.1-1.2V31c0-0.2-0.2-0.3-0.5-0.3h-0.1
	c-0.3,0-0.5,0.1-0.5,0.3v4.7c-0.2,0.3-0.5,0.5-0.7,0.7c-0.3,0.2-0.6,0.2-0.9,0.2c-0.4,0-0.7-0.1-1-0.3c-0.2-0.2-0.3-0.5-0.3-0.9V31
	c0-0.2-0.2-0.3-0.5-0.3h-0.1c-0.3,0-0.5,0.1-0.5,0.3v4.4c0,0.6,0.2,1.2,0.6,1.5C188.7,37.3,189.2,37.5,189.8,37.5L189.8,37.5
	L189.8,37.5z M195.1,37.4h0.2c0.3,0,0.5-0.1,0.5-0.3v-0.8c0-0.2-0.2-0.3-0.5-0.3h-0.2c-0.3,0-0.5,0.1-0.5,0.3v0.8
	C194.6,37.3,194.7,37.4,195.1,37.4L195.1,37.4L195.1,37.4z M200.5,37.5c0.5,0,0.9-0.1,1.3-0.4c0.4-0.3,0.7-0.7,0.9-1.2
	c0.2-0.5,0.3-1.1,0.3-1.8c0-0.7-0.1-1.3-0.3-1.9c-0.2-0.5-0.5-0.9-0.9-1.2c-0.4-0.3-0.8-0.4-1.4-0.4c-0.4,0-0.7,0.1-1,0.2
	c-0.3,0.1-0.6,0.3-0.8,0.5v-3.2c0-0.2-0.2-0.3-0.5-0.3H198c-0.3,0-0.5,0.1-0.5,0.3v9.1c0,0.2,0.1,0.3,0.4,0.3h0.1
	c0.2,0,0.3-0.1,0.3-0.2c0.1-0.2,0.2-0.5,0.2-0.8C199.1,37.2,199.8,37.5,200.5,37.5L200.5,37.5L200.5,37.5z M200.3,36.5
	c-0.3,0-0.6-0.1-0.9-0.2c-0.3-0.2-0.6-0.4-0.8-0.7v-3.5c0.2-0.2,0.5-0.3,0.7-0.4c0.3-0.1,0.6-0.1,0.8-0.1c0.6,0,1,0.2,1.3,0.6
	c0.3,0.4,0.4,1,0.4,1.8c0,0.8-0.1,1.5-0.4,1.9C201.2,36.3,200.8,36.5,200.3,36.5L200.3,36.5L200.3,36.5z M204.9,37.4h0.2
	c0.3,0,0.5-0.1,0.5-0.3v-0.8c0-0.2-0.2-0.3-0.5-0.3h-0.2c-0.3,0-0.5,0.1-0.5,0.3v0.8C204.4,37.3,204.5,37.4,204.9,37.4L204.9,37.4
	L204.9,37.4z"/>
<path class="st2" d="M43.7,22.9l-2.3,2.7c3.4,3.9,3.5,9.8,0,13.9c-3.8,4.5-10.5,5-15,1.2c-4.5-3.8-5-10.5-1.2-15
	c3.4-4,9.2-4.8,13.5-2.2l2.3-2.7c-5.9-3.8-13.8-2.8-18.5,2.6c-5.1,5.9-4.4,14.9,1.6,20s14.9,4.4,20-1.6
	C48.8,36.2,48.5,28.1,43.7,22.9z"/>
<g>
</g>
<g>
</g>
<g>
</g>
<g>
</g>
<g>
</g>
<g>
</g>
</svg>
