<?xml version="1.0" encoding="utf-8"?>
<!-- Generator: Adobe Illustrator 23.1.1, SVG Export Plug-In . SVG Version: 6.00 Build 0)  -->
<svg version="1.1" id="Layer_1" xmlns="http://www.w3.org/2000/svg" xmlns:xlink="http://www.w3.org/1999/xlink" x="0px" y="0px"
	 viewBox="0 0 650 64" style="enable-background:new 0 0 650 64;" xml:space="preserve">
<style type="text/css">
	.st0{fill:#161616;}
	.st1{fill:none;stroke:#666666;stroke-width:0.4437;stroke-miterlimit:10;}
</style>
<path class="st0" d="M33.5,35h-2.8c-0.1,0-0.2,0-0.2,0.1c-0.1,0.1-0.1,0.2-0.1,0.4v0.3c0,0.2,0,0.3,0.1,0.4c0.1,0.1,0.1,0.1,0.2,0.1
	h1.9v3.2c-0.2,0.1-0.5,0.1-0.9,0.2c-0.4,0-0.8,0.1-1.2,0.1c-1.3,0-2.3-0.4-2.8-1.2c-0.5-0.8-0.8-1.9-0.8-3.3c0-1.5,0.3-2.6,0.9-3.3
	c0.6-0.7,1.5-1.1,2.9-1.1c0.4,0,0.8,0.1,1.2,0.2c0.3,0.1,0.6,0.2,0.9,0.4c0.2,0.1,0.4,0.2,0.4,0.2c0.1,0,0.2-0.1,0.3-0.4
	c0.1-0.2,0.2-0.4,0.2-0.6c0-0.1-0.1-0.3-0.4-0.4c-0.3-0.2-0.7-0.3-1.2-0.4c-0.5-0.1-1-0.2-1.5-0.2c-3.5,0-5.2,1.9-5.2,5.8
	c0,1.9,0.4,3.3,1.3,4.2c0.8,0.9,2.1,1.4,3.7,1.4c1,0,1.9-0.1,2.6-0.3c0.7-0.2,1-0.5,1-0.9v-4.2c0-0.2,0-0.3-0.1-0.4
	C33.8,35,33.7,35,33.5,35L33.5,35L33.5,35z M40.1,40.9c0.5,0,1-0.1,1.4-0.2c0.4-0.1,0.8-0.3,1.1-0.4c0.3-0.2,0.4-0.3,0.4-0.4
	c0-0.1-0.1-0.3-0.2-0.5c-0.1-0.2-0.3-0.3-0.4-0.3c0,0-0.2,0.1-0.4,0.2c-0.2,0.1-0.5,0.2-0.8,0.3c-0.3,0.1-0.7,0.2-1.2,0.2
	c-0.8,0-1.4-0.2-1.8-0.6c-0.4-0.4-0.6-1.1-0.7-2h5.1c0.1,0,0.2-0.1,0.3-0.3c0.1-0.2,0.2-0.3,0.2-0.4c0-1.4-0.3-2.4-0.8-3.1
	c-0.6-0.7-1.4-1.1-2.5-1.1c-1.2,0-2.2,0.4-2.8,1.1c-0.6,0.7-0.9,1.8-0.9,3.2c0,1.4,0.3,2.5,1,3.2C37.8,40.5,38.8,40.9,40.1,40.9
	L40.1,40.9L40.1,40.9z M37.6,36c0.1-1.7,0.9-2.5,2.2-2.5c1.3,0,1.9,0.8,1.9,2.5H37.6L37.6,36z M48.7,40.9c0.5,0,1-0.1,1.4-0.2
	c0.4-0.1,0.8-0.3,1.1-0.4c0.3-0.2,0.4-0.3,0.4-0.4c0-0.1-0.1-0.3-0.2-0.5c-0.1-0.2-0.3-0.3-0.4-0.3c0,0-0.2,0.1-0.4,0.2
	c-0.2,0.1-0.5,0.2-0.8,0.3c-0.3,0.1-0.7,0.2-1.2,0.2c-0.8,0-1.4-0.2-1.8-0.6c-0.4-0.4-0.6-1.1-0.7-2h5.1c0.1,0,0.2-0.1,0.3-0.3
	c0.1-0.2,0.2-0.3,0.2-0.4c0-1.4-0.3-2.4-0.8-3.1c-0.6-0.7-1.4-1.1-2.5-1.1c-1.2,0-2.2,0.4-2.8,1.1c-0.6,0.7-0.9,1.8-0.9,3.2
	c0,1.4,0.3,2.5,1,3.2C46.4,40.5,47.4,40.9,48.7,40.9L48.7,40.9L48.7,40.9z M46.2,36c0.1-1.7,0.9-2.5,2.2-2.5c1.3,0,1.9,0.8,1.9,2.5
	H46.2L46.2,36z M54.6,40.8L54.6,40.8c0.5,0,0.7-0.1,0.7-0.4v-5.9c0.3-0.3,0.6-0.6,0.9-0.8c0.4-0.2,0.7-0.3,1.1-0.3
	c0.5,0,0.9,0.1,1.2,0.4c0.3,0.3,0.4,0.7,0.4,1.1v5.4c0,0.2,0.2,0.4,0.6,0.4h0.1c0.4,0,0.6-0.1,0.6-0.4v-5.6c0-0.8-0.2-1.4-0.7-1.9
	c-0.5-0.5-1.1-0.7-1.9-0.7c-0.4,0-0.9,0.1-1.3,0.3c-0.4,0.2-0.8,0.5-1.2,0.9c0-0.1,0-0.2-0.1-0.3c0-0.2-0.1-0.3-0.2-0.5
	c-0.1-0.2-0.2-0.2-0.3-0.2c-0.2,0-0.4,0-0.6,0.1c-0.2,0.1-0.3,0.2-0.3,0.3c0,0,0,0.2,0.1,0.5s0.1,0.8,0.1,1.5v5.6
	C53.9,40.7,54.1,40.8,54.6,40.8L54.6,40.8L54.6,40.8z M67.4,30.9c0.5,0,0.8-0.1,0.8-0.4v-0.9c0-0.3-0.2-0.4-0.7-0.4
	c-0.5,0-0.8,0.1-0.8,0.4v0.9C66.7,30.8,66.9,30.9,67.4,30.9L67.4,30.9L67.4,30.9z M67.4,40.8L67.4,40.8c0.5,0,0.7-0.1,0.7-0.4v-7.7
	c0-0.2-0.2-0.4-0.6-0.4h-0.1c-0.4,0-0.6,0.1-0.6,0.4v7.7C66.7,40.7,67,40.8,67.4,40.8L67.4,40.8L67.4,40.8z M71.5,40.8L71.5,40.8
	c0.5,0,0.7-0.1,0.7-0.4v-5.9c0.3-0.3,0.6-0.6,0.9-0.8c0.4-0.2,0.7-0.3,1.1-0.3c0.5,0,0.9,0.1,1.2,0.4c0.3,0.3,0.4,0.7,0.4,1.1v5.4
	c0,0.2,0.2,0.4,0.6,0.4h0.1c0.4,0,0.6-0.1,0.6-0.4v-5.6c0-0.8-0.2-1.4-0.7-1.9c-0.5-0.5-1.1-0.7-1.9-0.7c-0.4,0-0.9,0.1-1.3,0.3
	c-0.4,0.2-0.8,0.5-1.2,0.9c0-0.1,0-0.2-0.1-0.3c0-0.2-0.1-0.3-0.2-0.5c-0.1-0.2-0.2-0.2-0.3-0.2c-0.2,0-0.4,0-0.6,0.1
	c-0.2,0.1-0.3,0.2-0.3,0.3c0,0,0,0.2,0.1,0.5s0.1,0.8,0.1,1.5v5.6C70.9,40.7,71.1,40.8,71.5,40.8L71.5,40.8L71.5,40.8z M82.4,40.9
	c0.9,0,1.8-0.4,2.5-1.2c0,0.1,0,0.2,0.1,0.4c0,0.2,0.1,0.4,0.2,0.5c0.1,0.2,0.2,0.2,0.3,0.2c0.2,0,0.4,0,0.6-0.1
	c0.2-0.1,0.3-0.2,0.3-0.3c0,0,0-0.2-0.1-0.5c-0.1-0.3-0.1-0.8-0.1-1.5v-9.3c0-0.2-0.2-0.4-0.6-0.4h-0.1c-0.4,0-0.6,0.1-0.6,0.4v4
	c-0.3-0.3-0.7-0.5-1-0.6c-0.4-0.1-0.8-0.2-1.2-0.2c-0.6,0-1.2,0.2-1.7,0.5c-0.5,0.3-0.9,0.8-1.1,1.5c-0.3,0.6-0.4,1.4-0.4,2.3
	c0,0.8,0.1,1.6,0.4,2.2c0.3,0.7,0.6,1.2,1.1,1.5C81.2,40.7,81.8,40.9,82.4,40.9L82.4,40.9L82.4,40.9z M82.7,39.7
	c-0.6,0-1.1-0.3-1.5-0.8c-0.3-0.6-0.5-1.4-0.5-2.4c0-1,0.2-1.7,0.5-2.2c0.4-0.5,0.9-0.8,1.6-0.8c0.7,0,1.4,0.2,2,0.7v4.4
	c-0.3,0.4-0.7,0.6-1,0.8C83.4,39.6,83,39.7,82.7,39.7L82.7,39.7L82.7,39.7z M89.6,30.9c0.5,0,0.8-0.1,0.8-0.4v-0.9
	c0-0.3-0.2-0.4-0.7-0.4c-0.5,0-0.8,0.1-0.8,0.4v0.9C88.9,30.8,89.1,30.9,89.6,30.9L89.6,30.9L89.6,30.9z M89.6,40.8L89.6,40.8
	c0.5,0,0.7-0.1,0.7-0.4v-7.7c0-0.2-0.2-0.4-0.6-0.4h-0.1c-0.4,0-0.6,0.1-0.6,0.4v7.7C88.9,40.7,89.2,40.8,89.6,40.8L89.6,40.8
	L89.6,40.8z M96.5,40.9c0.4,0,0.9,0,1.2-0.1c0.4-0.1,0.7-0.2,0.9-0.3c0.2-0.1,0.3-0.2,0.3-0.4c0-0.1-0.1-0.3-0.2-0.5
	s-0.2-0.3-0.4-0.3l-0.2,0.1c-0.6,0.3-1.2,0.4-1.8,0.4c-0.9,0-1.5-0.3-1.9-0.8c-0.4-0.5-0.6-1.3-0.6-2.4c0-2,0.8-3.1,2.3-3.1
	c0.6,0,1.2,0.1,1.7,0.4c0,0,0.1,0,0.1,0c0,0,0.1,0,0.1,0c0.1,0,0.2-0.1,0.3-0.3c0.1-0.2,0.2-0.4,0.2-0.5c0-0.2-0.2-0.4-0.7-0.5
	c-0.5-0.1-1-0.2-1.7-0.2c-1.1,0-2,0.3-2.7,1c-0.7,0.7-1.1,1.7-1.1,3.3c0,1.5,0.3,2.6,1,3.3C94.2,40.5,95.2,40.9,96.5,40.9L96.5,40.9
	L96.5,40.9z M103,40.9c1.1,0,2-0.4,2.7-1.2c0,0.1,0,0.2,0.1,0.4c0,0.2,0.1,0.4,0.2,0.5c0.1,0.2,0.2,0.2,0.3,0.2c0.2,0,0.4,0,0.6-0.1
	c0.2-0.1,0.3-0.2,0.3-0.3c0,0,0-0.2-0.1-0.5c-0.1-0.3-0.1-0.8-0.1-1.5v-3.6c0-0.8-0.3-1.4-0.8-1.8c-0.6-0.4-1.3-0.7-2.3-0.7
	c-0.5,0-1,0.1-1.5,0.2c-0.5,0.1-0.8,0.2-1.1,0.4c-0.3,0.2-0.4,0.3-0.4,0.4c0,0.1,0.1,0.3,0.2,0.5c0.1,0.2,0.3,0.3,0.4,0.3
	c0,0,0.1-0.1,0.4-0.2c0.2-0.1,0.5-0.2,0.9-0.3c0.4-0.1,0.8-0.2,1.2-0.2c0.6,0,1.1,0.1,1.3,0.4c0.3,0.3,0.4,0.6,0.4,1v0.8
	c-1.1,0-2,0.1-2.7,0.2c-0.7,0.1-1.4,0.4-1.9,0.8c-0.5,0.4-0.8,1.1-0.8,1.9c0,0.8,0.3,1.4,0.8,1.8C101.5,40.7,102.2,40.9,103,40.9
	L103,40.9L103,40.9z M103.1,39.7c-0.4,0-0.8-0.1-1-0.3c-0.2-0.2-0.3-0.5-0.3-1c0-0.5,0.2-0.9,0.6-1.1c0.4-0.2,0.8-0.4,1.3-0.4
	c0.5-0.1,1.2-0.1,2-0.1v1.9c-0.4,0.4-0.8,0.6-1.2,0.8C104,39.6,103.6,39.7,103.1,39.7L103.1,39.7L103.1,39.7z M112,40.9
	c0.8,0,1.2-0.2,1.2-0.5c0-0.1,0-0.3-0.1-0.5c-0.1-0.2-0.1-0.3-0.2-0.3c-0.1,0-0.1,0-0.2,0c-0.1,0-0.3,0-0.5,0
	c-0.3,0-0.5-0.1-0.6-0.3c-0.2-0.2-0.2-0.5-0.2-0.9v-5h1.3c0.1,0,0.2,0,0.2-0.1c0-0.1,0.1-0.2,0.1-0.4v-0.2c0-0.2,0-0.3-0.1-0.4
	c0-0.1-0.1-0.1-0.2-0.1h-1.3v-1.7c0-0.2-0.2-0.4-0.5-0.4h-0.2c-0.3,0-0.5,0.1-0.5,0.4l-0.2,1.7h-0.8c-0.1,0-0.2,0-0.2,0.1
	c-0.1,0.1-0.1,0.2-0.1,0.4v0.2c0,0.2,0,0.3,0.1,0.4c0.1,0.1,0.1,0.1,0.2,0.1h0.8v5.1c0,0.8,0.2,1.4,0.6,1.7
	C111,40.7,111.4,40.9,112,40.9L112,40.9L112,40.9z M118.3,40.9c1.2,0,2.1-0.4,2.7-1.1c0.6-0.7,0.9-1.8,0.9-3.2
	c0-1.4-0.3-2.5-0.9-3.2c-0.6-0.7-1.5-1.1-2.7-1.1c-1.2,0-2.1,0.4-2.8,1.1c-0.6,0.7-1,1.8-1,3.2c0,1.4,0.3,2.4,1,3.2
	C116.1,40.5,117.1,40.9,118.3,40.9L118.3,40.9L118.3,40.9z M118.2,39.7c-0.8,0-1.3-0.3-1.7-0.8c-0.4-0.5-0.5-1.3-0.5-2.4
	c0-1.1,0.2-1.9,0.5-2.4c0.4-0.5,0.9-0.8,1.7-0.8c0.8,0,1.4,0.3,1.7,0.8c0.4,0.5,0.6,1.3,0.6,2.4c0,1.1-0.2,1.9-0.6,2.4
	C119.6,39.5,119,39.7,118.2,39.7L118.2,39.7L118.2,39.7z M124.9,40.8L124.9,40.8c0.5,0,0.7-0.1,0.7-0.4v-5.9c0,0,0.1-0.1,0.2-0.3
	c0.1-0.2,0.3-0.3,0.6-0.5c0.2-0.1,0.5-0.2,0.7-0.2c0.2,0,0.4,0,0.6,0.1c0.2,0.1,0.3,0.1,0.3,0.1c0.1,0,0.2-0.1,0.2-0.3
	c0.1-0.2,0.1-0.4,0.1-0.6c0-0.2-0.1-0.3-0.2-0.4c-0.2-0.1-0.4-0.2-0.7-0.2c-0.7,0-1.3,0.4-1.9,1.2c0-0.1,0-0.2-0.1-0.3
	c0-0.2-0.1-0.3-0.2-0.5c-0.1-0.2-0.2-0.2-0.3-0.2c-0.2,0-0.4,0-0.6,0.1c-0.2,0.1-0.3,0.2-0.3,0.3c0,0,0,0.2,0.1,0.5s0.1,0.8,0.1,1.5
	v5.6C124.2,40.7,124.4,40.8,124.9,40.8L124.9,40.8L124.9,40.8z"/>
<line class="st1" x1="0.6" y1="64" x2="0.6" y2="0"/>
</svg>
