<svg aria-hidden="true" style="position: absolute; width: 0; height: 0; overflow: hidden;" version="1.1" xmlns="http://www.w3.org/2000/svg" xmlns:xlink="http://www.w3.org/1999/xlink">
  <defs>
    <symbol id="icon-Chevron-Down" viewBox="0 0 32 32">
      <title>Chevron-Down</title>
      <path fill="var(--color-1)" class="p2" d="M1.333 9.333c0-0.8 0.267-1.333 0.8-1.867 1.067-1.067 2.667-1.067 3.733 0l11.467 11.467 11.467-11.467c1.067-1.067 2.667-1.067 3.733 0s1.067 2.667 0 3.733l-13.333 13.333c-1.067 1.067-2.667 1.067-3.733 0l-13.333-13.333c-0.533-0.533-0.8-1.067-0.8-1.867z"></path>
    </symbol>
    <symbol id="icon-Chevron-Left" viewBox="0 0 32 32">
      <title>Chevron-Left</title>
      <path fill="var(--color-1)" class="p3" d="M24 0c0.8 0 1.333 0.267 1.867 0.8 1.067 1.067 1.067 2.667 0 3.733l-11.467 11.467 11.467 11.467c1.067 1.067 1.067 2.667 0 3.733s-2.667 1.067-3.733 0l-13.333-13.333c-1.067-1.067-1.067-2.667 0-3.733l13.333-13.333c0.533-0.533 1.067-0.8 1.867-0.8z"></path>
    </symbol>
    <symbol id="icon-Chevron-Right" viewBox="0 0 32 32">
      <title>Chevron-Right</title>
      <path fill="var(--color-1)" class="p4" d="M10.667 32c-0.8 0-1.333-0.267-1.867-0.8-1.067-1.067-1.067-2.667 0-3.733l11.467-11.467-11.467-11.467c-1.067-1.067-1.067-2.667 0-3.733s2.667-1.067 3.733 0l13.333 13.333c1.067 1.067 1.067 2.667 0 3.733l-13.333 13.333c-0.533 0.533-1.067 0.8-1.867 0.8z"></path>
    </symbol>
    <symbol id="icon-Chevron-Up" viewBox="0 0 32 32">
      <title>Chevron-Up</title>
      <path fill="var(--color-1)" class="p1" d="M33.333 22.667c0 0.8-0.267 1.333-0.8 1.867-1.067 1.067-2.667 1.067-3.733 0l-11.467-11.467-11.467 11.467c-1.067 1.067-2.667 1.067-3.733 0s-1.067-2.667 0-3.733l13.333-13.333c1.067-1.067 2.667-1.067 3.733 0l13.333 13.333c0.533 0.533 0.8 1.067 0.8 1.867z"></path>
    </symbol>
    <symbol id="icon-Cross" viewBox="0 0 32 32">
      <title>Cross</title>
      <path fill="var(--color-1)" class="p5" d="M29.867 26.133c1.067 1.067 1.067 2.667 0 3.733-0.533 0.533-1.333 0.8-1.867 0.8s-1.333-0.267-1.867-0.8l-10.133-10.133-10.133 10.133c-0.533 0.533-1.333 0.8-1.867 0.8s-1.333-0.267-1.867-0.8c-1.067-1.067-1.067-2.667 0-3.733l10.133-10.133-10.133-10.133c-1.067-1.067-1.067-2.667 0-3.733s2.667-1.067 3.733 0l10.133 10.133 10.133-10.133c1.067-1.067 2.667-1.067 3.733 0s1.067 2.667 0 3.733l-10.133 10.133 10.133 10.133z"></path>
    </symbol>
    <symbol id="icon-Warning" viewBox="0 0 32 32">
      <title>Warning</title>
      <path fill="#000" style="fill: var(--color-2)" d="M16 0v0c8.8 0 16 7.2 16 16v0c0 8.8-7.2 16-16 16v0c-8.8 0-16-7.2-16-16v0c0-8.8 7.2-16 16-16z"></path>
      <path fill="#fff" style="fill: var(--color-3)" d="M17 16v-5c0-0.6-0.4-1-1-1s-1 0.4-1 1v5c0 0.6 0.4 1 1 1s1-0.4 1-1z"></path>
      <path fill="#fff" style="fill: var(--color-3)" d="M17.5 20.5c0 0.828-0.672 1.5-1.5 1.5s-1.5-0.672-1.5-1.5c0-0.828 0.672-1.5 1.5-1.5s1.5 0.672 1.5 1.5z"></path>
    </symbol>
  </defs>
</svg>
