<?xml version="1.0" encoding="UTF-8"?>
<svg width="192px" height="40px" viewBox="0 0 192 40" version="1.1" xmlns="http://www.w3.org/2000/svg" xmlns:xlink="http://www.w3.org/1999/xlink">
    <title>Maaregelen op maat</title>
    <g id="Maaregelen-op-maat" stroke="none" stroke-width="1" fill="none" fill-rule="evenodd">
        <path d="M4.02,28.04 C4.72666667,28.04 5.08,27.8466667 5.08,27.46 L5.08,27.46 L5.08,19.32 C5.08,18.8666667 5.07333333,18.5266667 5.06,18.3 L5.06,18.3 L5.14,18.28 C5.28666667,18.6 5.44,18.8733333 5.6,19.1 L5.6,19.1 L8.44,24.12 C8.58666667,24.3466667 8.81333333,24.46 9.12,24.46 L9.12,24.46 L9.76,24.46 C10.0666667,24.46 10.2933333,24.3466667 10.44,24.12 L10.44,24.12 L13.26,19.14 C13.42,18.9133333 13.5733333,18.64 13.72,18.32 L13.72,18.32 L13.8,18.34 C13.7866667,18.5666667 13.78,18.9066667 13.78,19.36 L13.78,27.46 C13.78,27.8466667 14.1333333,28.04 14.84,28.04 L14.84,28.04 L15.28,28.04 C15.9866667,28.04 16.34,27.8466667 16.34,27.46 L16.34,27.46 L16.34,14.54 C16.34,14.1533333 15.9866667,13.96 15.28,13.96 L15.28,13.96 L14.36,13.96 C13.8,13.96 13.4333333,14.12 13.26,14.44 L13.26,14.44 L9.76,20.56 C9.6,20.84 9.49333333,21.0666667 9.44,21.24 C9.36,21.0266667 9.25333333,20.8066667 9.12,20.58 L9.12,20.58 L5.64,14.44 C5.46666667,14.12 5.09333333,13.96 4.52,13.96 L4.52,13.96 L3.58,13.96 C2.87333333,13.96 2.52,14.1533333 2.52,14.54 L2.52,14.54 L2.52,27.46 C2.52,27.8466667 2.87333333,28.04 3.58,28.04 L3.58,28.04 L4.02,28.04 Z M21.86,28.14 C22.62,28.14 23.2566667,27.98 23.77,27.66 C24.2833333,27.34 24.68,27 24.96,26.64 C24.9733333,26.72 25.0033333,26.8733333 25.05,27.1 C25.0966667,27.3266667 25.1666667,27.5366667 25.26,27.73 C25.3533333,27.9233333 25.5066667,28.02 25.72,28.02 C26.0666667,28.02 26.46,27.97 26.9,27.87 C27.34,27.77 27.56,27.6266667 27.56,27.44 C27.56,27.3466667 27.52,27.09 27.44,26.67 C27.36,26.25 27.32,25.5866667 27.32,24.68 L27.32,24.68 L27.32,20.66 C27.32,19.6466667 26.9766667,18.85 26.29,18.27 C25.6033333,17.69 24.5533333,17.4 23.14,17.4 C22.46,17.4 21.8266667,17.4666667 21.24,17.6 C20.6533333,17.7333333 20.19,17.9033333 19.85,18.11 C19.51,18.3166667 19.34,18.5266667 19.34,18.74 C19.34,18.9266667 19.45,19.2066667 19.67,19.58 C19.89,19.9533333 20.0866667,20.14 20.26,20.14 C20.3,20.14 20.46,20.0766667 20.74,19.95 C21.02,19.8233333 21.3466667,19.7033333 21.72,19.59 C22.0933333,19.4766667 22.5266667,19.42 23.02,19.42 C24.2066667,19.42 24.8,19.86 24.8,20.74 L24.8,20.74 L24.8,21.5 C20.76,21.5133333 18.74,22.7466667 18.74,25.2 C18.74,26.1066667 19.0066667,26.8233333 19.54,27.35 C20.0733333,27.8766667 20.8466667,28.14 21.86,28.14 Z M22.54,26.12 C22.14,26.12 21.8333333,26.0166667 21.62,25.81 C21.4066667,25.6033333 21.3,25.32 21.3,24.96 C21.3,24.3333333 21.61,23.8966667 22.23,23.65 C22.85,23.4033333 23.7066667,23.28 24.8,23.28 L24.8,23.28 L24.8,24.8 C24.5333333,25.1866667 24.2066667,25.5033333 23.82,25.75 C23.4333333,25.9966667 23.0066667,26.12 22.54,26.12 Z M32.76,28.14 C33.52,28.14 34.1566667,27.98 34.67,27.66 C35.1833333,27.34 35.58,27 35.86,26.64 C35.8733333,26.72 35.9033333,26.8733333 35.95,27.1 C35.9966667,27.3266667 36.0666667,27.5366667 36.16,27.73 C36.2533333,27.9233333 36.4066667,28.02 36.62,28.02 C36.9666667,28.02 37.36,27.97 37.8,27.87 C38.24,27.77 38.46,27.6266667 38.46,27.44 C38.46,27.3466667 38.42,27.09 38.34,26.67 C38.26,26.25 38.22,25.5866667 38.22,24.68 L38.22,24.68 L38.22,20.66 C38.22,19.6466667 37.8766667,18.85 37.19,18.27 C36.5033333,17.69 35.4533333,17.4 34.04,17.4 C33.36,17.4 32.7266667,17.4666667 32.14,17.6 C31.5533333,17.7333333 31.09,17.9033333 30.75,18.11 C30.41,18.3166667 30.24,18.5266667 30.24,18.74 C30.24,18.9266667 30.35,19.2066667 30.57,19.58 C30.79,19.9533333 30.9866667,20.14 31.16,20.14 C31.2,20.14 31.36,20.0766667 31.64,19.95 C31.92,19.8233333 32.2466667,19.7033333 32.62,19.59 C32.9933333,19.4766667 33.4266667,19.42 33.92,19.42 C35.1066667,19.42 35.7,19.86 35.7,20.74 L35.7,20.74 L35.7,21.5 C31.66,21.5133333 29.64,22.7466667 29.64,25.2 C29.64,26.1066667 29.9066667,26.8233333 30.44,27.35 C30.9733333,27.8766667 31.7466667,28.14 32.76,28.14 Z M33.44,26.12 C33.04,26.12 32.7333333,26.0166667 32.52,25.81 C32.3066667,25.6033333 32.2,25.32 32.2,24.96 C32.2,24.3333333 32.51,23.8966667 33.13,23.65 C33.75,23.4033333 34.6066667,23.28 35.7,23.28 L35.7,23.28 L35.7,24.8 C35.4333333,25.1866667 35.1066667,25.5033333 34.72,25.75 C34.3333333,25.9966667 33.9066667,26.12 33.44,26.12 Z M44.22,28.14 C45.3933333,28.14 45.98,27.86 45.98,27.3 C45.98,27.14 45.9266667,26.89 45.82,26.55 C45.7133333,26.21 45.58,26.04 45.42,26.04 C45.3533333,26.04 45.26,26.0533333 45.14,26.08 C45.02,26.1066667 44.8933333,26.12 44.76,26.12 C44.48,26.12 44.27,26.04 44.13,25.88 C43.99,25.72 43.92,25.44 43.92,25.04 L43.92,25.04 L43.92,19.56 L45.14,19.56 C45.3266667,19.56 45.4633333,19.4933333 45.55,19.36 C45.6366667,19.2266667 45.68,19.0066667 45.68,18.7 L45.68,18.7 L45.68,18.4 C45.68,18.0933333 45.6366667,17.8733333 45.55,17.74 C45.4633333,17.6066667 45.3266667,17.54 45.14,17.54 L45.14,17.54 L43.92,17.54 L43.92,15.58 C43.92,15.1933333 43.6333333,15 43.06,15 L43.06,15 L42.58,15 C42.0333333,15 41.7266667,15.1933333 41.66,15.58 L41.66,15.58 L41.4,17.54 L40.86,17.54 C40.6733333,17.54 40.5366667,17.6066667 40.45,17.74 C40.3633333,17.8733333 40.32,18.0933333 40.32,18.4 L40.32,18.4 L40.32,18.7 C40.32,19.0066667 40.3633333,19.2266667 40.45,19.36 C40.5366667,19.4933333 40.6733333,19.56 40.86,19.56 L40.86,19.56 L41.4,19.56 L41.4,25.08 C41.4,26.1333333 41.6566667,26.9066667 42.17,27.4 C42.6833333,27.8933333 43.3666667,28.14 44.22,28.14 Z M49.38,28.04 C50.1,28.04 50.46,27.8466667 50.46,27.46 L50.46,27.46 L50.46,20.74 C50.58,20.5266667 50.7933333,20.2933333 51.1,20.04 C51.4066667,19.7866667 51.7533333,19.66 52.14,19.66 C52.34,19.66 52.5366667,19.69 52.73,19.75 C52.9233333,19.81 53.0533333,19.84 53.12,19.84 C53.28,19.84 53.4133333,19.66 53.52,19.3 C53.6266667,18.94 53.68,18.6266667 53.68,18.36 C53.68,18.04 53.5966667,17.8 53.43,17.64 C53.2633333,17.48 52.96,17.4 52.52,17.4 C51.6533333,17.4 50.9133333,17.9 50.3,18.9 C50.2866667,18.82 50.2566667,18.6766667 50.21,18.47 C50.1633333,18.2633333 50.0933333,18.0666667 50,17.88 C49.9066667,17.6933333 49.7533333,17.6 49.54,17.6 C49.1933333,17.6 48.8,17.65 48.36,17.75 C47.92,17.85 47.7,17.9933333 47.7,18.18 C47.7,18.2733333 47.74,18.5266667 47.82,18.94 C47.9,19.3533333 47.94,20.0066667 47.94,20.9 L47.94,20.9 L47.94,27.46 C47.94,27.8466667 48.2933333,28.04 49,28.04 L49,28.04 L49.38,28.04 Z M59.46,28.14 C59.9533333,28.14 60.4833333,28.08 61.05,27.96 C61.6166667,27.84 62.0933333,27.6733333 62.48,27.46 C62.8666667,27.2466667 63.06,27.0133333 63.06,26.76 C63.06,26.5733333 62.95,26.3033333 62.73,25.95 C62.51,25.5966667 62.3133333,25.42 62.14,25.42 C62.0866667,25.42 61.9533333,25.4666667 61.74,25.56 C60.9933333,25.9333333 60.26,26.12 59.54,26.12 C58.74,26.12 58.13,25.9233333 57.71,25.53 C57.29,25.1366667 57.0466667,24.5 56.98,23.62 L56.98,23.62 L62.5,23.62 C62.62,23.62 62.8,23.4833333 63.04,23.21 C63.28,22.9366667 63.4,22.7266667 63.4,22.58 C63.4,20.9933333 63.05,19.7333333 62.35,18.8 C61.65,17.8666667 60.58,17.4 59.14,17.4 C57.62,17.4 56.4433333,17.8466667 55.61,18.74 C54.7766667,19.6333333 54.36,21 54.36,22.84 C54.36,24.5466667 54.78,25.8566667 55.62,26.77 C56.46,27.6833333 57.74,28.14 59.46,28.14 Z M60.9,21.84 L56.98,21.84 C57.1666667,20.2266667 57.88,19.42 59.12,19.42 C59.7066667,19.42 60.15,19.6333333 60.45,20.06 C60.75,20.4866667 60.9,21.08 60.9,21.84 L60.9,21.84 Z M69.38,32.24 C70.94,32.24 72.1666667,31.9466667 73.06,31.36 C73.9533333,30.7733333 74.4,29.98 74.4,28.98 C74.4,28.0866667 74.12,27.4366667 73.56,27.03 C73,26.6233333 72.2333333,26.3333333 71.26,26.16 L71.26,26.16 L70.42,26.04 C69.6333333,25.9466667 69.0533333,25.8366667 68.68,25.71 C68.3066667,25.5833333 68.12,25.36 68.12,25.04 C68.12,24.7333333 68.23,24.5166667 68.45,24.39 C68.67,24.2633333 69.0733333,24.2 69.66,24.2 C70.8866667,24.2 71.8666667,23.91 72.6,23.33 C73.3333333,22.75 73.7,21.92 73.7,20.84 C73.7,20.5733333 73.6566667,20.3166667 73.57,20.07 C73.4833333,19.8233333 73.36,19.6066667 73.2,19.42 L73.2,19.42 L73.22,19.36 C73.3533333,19.4 73.5433333,19.4366667 73.79,19.47 C74.0366667,19.5033333 74.2333333,19.52 74.38,19.52 C74.54,19.52 74.6566667,19.4566667 74.73,19.33 C74.8033333,19.2033333 74.84,18.9933333 74.84,18.7 L74.84,18.7 L74.84,18.4 C74.84,18.0933333 74.7966667,17.8733333 74.71,17.74 C74.6233333,17.6066667 74.4866667,17.54 74.3,17.54 L74.3,17.54 L70.94,17.54 C70.5266667,17.4466667 70.0533333,17.4 69.52,17.4 C68.2533333,17.4 67.2433333,17.6933333 66.49,18.28 C65.7366667,18.8666667 65.36,19.72 65.36,20.84 C65.36,21.5066667 65.5033333,22.0766667 65.79,22.55 C66.0766667,23.0233333 66.48,23.4 67,23.68 C66.2266667,24.1333333 65.84,24.7466667 65.84,25.52 C65.84,26.2266667 66.12,26.7466667 66.68,27.08 L66.68,27.08 L66.66,27.14 C66.1,27.3666667 65.66,27.6866667 65.34,28.1 C65.02,28.5133333 64.86,28.9866667 64.86,29.52 C64.86,31.3333333 66.3666667,32.24 69.38,32.24 Z M69.52,22.32 C68.9866667,22.32 68.5566667,22.2 68.23,21.96 C67.9033333,21.72 67.74,21.3333333 67.74,20.8 C67.74,20.28 67.9033333,19.8966667 68.23,19.65 C68.5566667,19.4033333 68.9866667,19.28 69.52,19.28 C70.0533333,19.28 70.4866667,19.4033333 70.82,19.65 C71.1533333,19.8966667 71.32,20.28 71.32,20.8 C71.32,21.32 71.1533333,21.7033333 70.82,21.95 C70.4866667,22.1966667 70.0533333,22.32 69.52,22.32 Z M69.6,30.24 C68.8,30.24 68.2133333,30.1433333 67.84,29.95 C67.4666667,29.7566667 67.28,29.4733333 67.28,29.1 C67.28,28.82 67.38,28.57 67.58,28.35 C67.78,28.13 68.0533333,27.9533333 68.4,27.82 L68.4,27.82 L69.22,27.92 C70.2066667,28.0266667 70.91,28.15 71.33,28.29 C71.75,28.43 71.96,28.6866667 71.96,29.06 C71.96,29.8466667 71.1733333,30.24 69.6,30.24 Z M80.76,28.14 C81.2533333,28.14 81.7833333,28.08 82.35,27.96 C82.9166667,27.84 83.3933333,27.6733333 83.78,27.46 C84.1666667,27.2466667 84.36,27.0133333 84.36,26.76 C84.36,26.5733333 84.25,26.3033333 84.03,25.95 C83.81,25.5966667 83.6133333,25.42 83.44,25.42 C83.3866667,25.42 83.2533333,25.4666667 83.04,25.56 C82.2933333,25.9333333 81.56,26.12 80.84,26.12 C80.04,26.12 79.43,25.9233333 79.01,25.53 C78.59,25.1366667 78.3466667,24.5 78.28,23.62 L78.28,23.62 L83.8,23.62 C83.92,23.62 84.1,23.4833333 84.34,23.21 C84.58,22.9366667 84.7,22.7266667 84.7,22.58 C84.7,20.9933333 84.35,19.7333333 83.65,18.8 C82.95,17.8666667 81.88,17.4 80.44,17.4 C78.92,17.4 77.7433333,17.8466667 76.91,18.74 C76.0766667,19.6333333 75.66,21 75.66,22.84 C75.66,24.5466667 76.08,25.8566667 76.92,26.77 C77.76,27.6833333 79.04,28.14 80.76,28.14 Z M82.2,21.84 L78.28,21.84 C78.4666667,20.2266667 79.18,19.42 80.42,19.42 C81.0066667,19.42 81.45,19.6333333 81.75,20.06 C82.05,20.4866667 82.2,21.08 82.2,21.84 L82.2,21.84 Z M89.7,28.14 C90.8733333,28.14 91.46,27.86 91.46,27.3 C91.46,27.14 91.4066667,26.89 91.3,26.55 C91.1933333,26.21 91.06,26.04 90.9,26.04 C90.8466667,26.04 90.76,26.0533333 90.64,26.08 C90.52,26.1066667 90.3933333,26.12 90.26,26.12 C89.98,26.12 89.7666667,26.0366667 89.62,25.87 C89.4733333,25.7033333 89.4,25.4266667 89.4,25.04 L89.4,25.04 L89.4,13.5 C89.4,13.1266667 89.0466667,12.94 88.34,12.94 L88.34,12.94 L87.96,12.94 C87.2533333,12.94 86.9,13.1266667 86.9,13.5 L86.9,13.5 L86.9,25.08 C86.9,26.1466667 87.1533333,26.9233333 87.66,27.41 C88.1666667,27.8966667 88.8466667,28.14 89.7,28.14 Z M96.82,28.14 C97.3133333,28.14 97.8433333,28.08 98.41,27.96 C98.9766667,27.84 99.4533333,27.6733333 99.84,27.46 C100.226667,27.2466667 100.42,27.0133333 100.42,26.76 C100.42,26.5733333 100.31,26.3033333 100.09,25.95 C99.87,25.5966667 99.6733333,25.42 99.5,25.42 C99.4466667,25.42 99.3133333,25.4666667 99.1,25.56 C98.3533333,25.9333333 97.62,26.12 96.9,26.12 C96.1,26.12 95.49,25.9233333 95.07,25.53 C94.65,25.1366667 94.4066667,24.5 94.34,23.62 L94.34,23.62 L99.86,23.62 C99.98,23.62 100.16,23.4833333 100.4,23.21 C100.64,22.9366667 100.76,22.7266667 100.76,22.58 C100.76,20.9933333 100.41,19.7333333 99.71,18.8 C99.01,17.8666667 97.94,17.4 96.5,17.4 C94.98,17.4 93.8033333,17.8466667 92.97,18.74 C92.1366667,19.6333333 91.72,21 91.72,22.84 C91.72,24.5466667 92.14,25.8566667 92.98,26.77 C93.82,27.6833333 95.1,28.14 96.82,28.14 Z M98.26,21.84 L94.34,21.84 C94.5266667,20.2266667 95.24,19.42 96.48,19.42 C97.0666667,19.42 97.51,19.6333333 97.81,20.06 C98.11,20.4866667 98.26,21.08 98.26,21.84 L98.26,21.84 Z M104.42,28.04 C105.126667,28.04 105.48,27.8466667 105.48,27.46 L105.48,27.46 L105.48,20.74 C105.693333,20.3933333 105.97,20.1 106.31,19.86 C106.65,19.62 107.013333,19.5 107.4,19.5 C108.4,19.5 108.9,19.9933333 108.9,20.98 L108.9,20.98 L108.9,27.46 C108.9,27.8466667 109.253333,28.04 109.96,28.04 L109.96,28.04 L110.34,28.04 C110.713333,28.04 110.983333,27.9933333 111.15,27.9 C111.316667,27.8066667 111.4,27.66 111.4,27.46 L111.4,27.46 L111.4,20.64 C111.4,18.48 110.386667,17.4 108.36,17.4 C107.773333,17.4 107.21,17.54 106.67,17.82 C106.13,18.1 105.686667,18.46 105.34,18.9 C105.326667,18.8333333 105.296667,18.6966667 105.25,18.49 C105.203333,18.2833333 105.133333,18.0833333 105.04,17.89 C104.946667,17.6966667 104.786667,17.6 104.56,17.6 C104.213333,17.6 103.82,17.65 103.38,17.75 C102.94,17.85 102.72,17.9933333 102.72,18.18 C102.72,18.2733333 102.76,18.5266667 102.84,18.94 C102.92,19.3533333 102.96,20.0066667 102.96,20.9 L102.96,20.9 L102.96,27.46 C102.96,27.8466667 103.313333,28.04 104.02,28.04 L104.02,28.04 L104.42,28.04 Z M123.22,28.14 C124.766667,28.14 125.943333,27.6833333 126.75,26.77 C127.556667,25.8566667 127.96,24.5266667 127.96,22.78 C127.96,21.0333333 127.556667,19.7 126.75,18.78 C125.943333,17.86 124.766667,17.4 123.22,17.4 C121.66,17.4 120.473333,17.86 119.66,18.78 C118.846667,19.7 118.44,21.0333333 118.44,22.78 C118.44,24.5133333 118.846667,25.84 119.66,26.76 C120.473333,27.68 121.66,28.14 123.22,28.14 Z M123.2,26.12 C122.453333,26.12 121.9,25.8433333 121.54,25.29 C121.18,24.7366667 121,23.8933333 121,22.76 C121,21.64 121.18,20.8033333 121.54,20.25 C121.9,19.6966667 122.453333,19.42 123.2,19.42 C123.946667,19.42 124.496667,19.6966667 124.85,20.25 C125.203333,20.8033333 125.38,21.64 125.38,22.76 C125.38,23.8933333 125.203333,24.7366667 124.85,25.29 C124.496667,25.8433333 123.946667,26.12 123.2,26.12 Z M131.84,32.14 C132.546667,32.14 132.9,31.9466667 132.9,31.56 L132.9,31.56 L132.9,27.38 C133.58,27.8866667 134.36,28.14 135.24,28.14 C136.533333,28.14 137.55,27.6633333 138.29,26.71 C139.03,25.7566667 139.4,24.4466667 139.4,22.78 C139.4,21.6866667 139.243333,20.7333333 138.93,19.92 C138.616667,19.1066667 138.173333,18.4833333 137.6,18.05 C137.026667,17.6166667 136.36,17.4 135.6,17.4 C135.013333,17.4 134.476667,17.5333333 133.99,17.8 C133.503333,18.0666667 133.093333,18.4333333 132.76,18.9 C132.746667,18.82 132.716667,18.6766667 132.67,18.47 C132.623333,18.2633333 132.553333,18.0666667 132.46,17.88 C132.366667,17.6933333 132.206667,17.6 131.98,17.6 C131.646667,17.6 131.26,17.65 130.82,17.75 C130.38,17.85 130.16,17.9933333 130.16,18.18 C130.16,18.2733333 130.2,18.5266667 130.28,18.94 C130.36,19.3533333 130.4,20.0066667 130.4,20.9 L130.4,20.9 L130.4,31.56 C130.4,31.76 130.483333,31.9066667 130.65,32 C130.816667,32.0933333 131.086667,32.14 131.46,32.14 L131.46,32.14 L131.84,32.14 Z M134.68,26.1 C134.026667,26.1 133.433333,25.9133333 132.9,25.54 L132.9,25.54 L132.9,20.74 C133.18,20.3533333 133.49,20.0466667 133.83,19.82 C134.17,19.5933333 134.533333,19.48 134.92,19.48 C135.546667,19.48 136.02,19.7633333 136.34,20.33 C136.66,20.8966667 136.82,21.7266667 136.82,22.82 C136.82,25.0066667 136.106667,26.1 134.68,26.1 Z M148,28.04 C148.706667,28.04 149.06,27.8466667 149.06,27.46 L149.06,27.46 L149.06,20.74 C149.193333,20.4866667 149.426667,20.2166667 149.76,19.93 C150.093333,19.6433333 150.486667,19.5 150.94,19.5 C151.9,19.5 152.38,19.9933333 152.38,20.98 L152.38,20.98 L152.38,27.46 C152.38,27.66 152.463333,27.8066667 152.63,27.9 C152.796667,27.9933333 153.066667,28.04 153.44,28.04 L153.44,28.04 L153.82,28.04 C154.526667,28.04 154.88,27.8466667 154.88,27.46 L154.88,27.46 L154.88,20.74 C155.066667,20.4333333 155.32,20.15 155.64,19.89 C155.96,19.63 156.333333,19.5 156.76,19.5 C157.72,19.5 158.2,19.9933333 158.2,20.98 L158.2,20.98 L158.2,27.46 C158.2,27.8466667 158.553333,28.04 159.26,28.04 L159.26,28.04 L159.66,28.04 C160.366667,28.04 160.72,27.8466667 160.72,27.46 L160.72,27.46 L160.72,20.64 C160.72,18.48 159.72,17.4 157.72,17.4 C157.106667,17.4 156.523333,17.55 155.97,17.85 C155.416667,18.15 154.96,18.52 154.6,18.96 C154.2,17.92 153.3,17.4 151.9,17.4 C151.3,17.4 150.736667,17.5433333 150.21,17.83 C149.683333,18.1166667 149.246667,18.4733333 148.9,18.9 C148.886667,18.82 148.856667,18.6766667 148.81,18.47 C148.763333,18.2633333 148.693333,18.0666667 148.6,17.88 C148.506667,17.6933333 148.353333,17.6 148.14,17.6 C147.793333,17.6 147.4,17.65 146.96,17.75 C146.52,17.85 146.3,17.9933333 146.3,18.18 C146.3,18.2733333 146.34,18.5266667 146.42,18.94 C146.5,19.3533333 146.54,20.0066667 146.54,20.9 L146.54,20.9 L146.54,27.46 C146.54,27.8466667 146.893333,28.04 147.6,28.04 L147.6,28.04 L148,28.04 Z M166.1,28.14 C166.86,28.14 167.496667,27.98 168.01,27.66 C168.523333,27.34 168.92,27 169.2,26.64 C169.213333,26.72 169.243333,26.8733333 169.29,27.1 C169.336667,27.3266667 169.406667,27.5366667 169.5,27.73 C169.593333,27.9233333 169.746667,28.02 169.96,28.02 C170.306667,28.02 170.7,27.97 171.14,27.87 C171.58,27.77 171.8,27.6266667 171.8,27.44 C171.8,27.3466667 171.76,27.09 171.68,26.67 C171.6,26.25 171.56,25.5866667 171.56,24.68 L171.56,24.68 L171.56,20.66 C171.56,19.6466667 171.216667,18.85 170.53,18.27 C169.843333,17.69 168.793333,17.4 167.38,17.4 C166.7,17.4 166.066667,17.4666667 165.48,17.6 C164.893333,17.7333333 164.43,17.9033333 164.09,18.11 C163.75,18.3166667 163.58,18.5266667 163.58,18.74 C163.58,18.9266667 163.69,19.2066667 163.91,19.58 C164.13,19.9533333 164.326667,20.14 164.5,20.14 C164.54,20.14 164.7,20.0766667 164.98,19.95 C165.26,19.8233333 165.586667,19.7033333 165.96,19.59 C166.333333,19.4766667 166.766667,19.42 167.26,19.42 C168.446667,19.42 169.04,19.86 169.04,20.74 L169.04,20.74 L169.04,21.5 C165,21.5133333 162.98,22.7466667 162.98,25.2 C162.98,26.1066667 163.246667,26.8233333 163.78,27.35 C164.313333,27.8766667 165.086667,28.14 166.1,28.14 Z M166.78,26.12 C166.38,26.12 166.073333,26.0166667 165.86,25.81 C165.646667,25.6033333 165.54,25.32 165.54,24.96 C165.54,24.3333333 165.85,23.8966667 166.47,23.65 C167.09,23.4033333 167.946667,23.28 169.04,23.28 L169.04,23.28 L169.04,24.8 C168.773333,25.1866667 168.446667,25.5033333 168.06,25.75 C167.673333,25.9966667 167.246667,26.12 166.78,26.12 Z M177,28.14 C177.76,28.14 178.396667,27.98 178.91,27.66 C179.423333,27.34 179.82,27 180.1,26.64 C180.113333,26.72 180.143333,26.8733333 180.19,27.1 C180.236667,27.3266667 180.306667,27.5366667 180.4,27.73 C180.493333,27.9233333 180.646667,28.02 180.86,28.02 C181.206667,28.02 181.6,27.97 182.04,27.87 C182.48,27.77 182.7,27.6266667 182.7,27.44 C182.7,27.3466667 182.66,27.09 182.58,26.67 C182.5,26.25 182.46,25.5866667 182.46,24.68 L182.46,24.68 L182.46,20.66 C182.46,19.6466667 182.116667,18.85 181.43,18.27 C180.743333,17.69 179.693333,17.4 178.28,17.4 C177.6,17.4 176.966667,17.4666667 176.38,17.6 C175.793333,17.7333333 175.33,17.9033333 174.99,18.11 C174.65,18.3166667 174.48,18.5266667 174.48,18.74 C174.48,18.9266667 174.59,19.2066667 174.81,19.58 C175.03,19.9533333 175.226667,20.14 175.4,20.14 C175.44,20.14 175.6,20.0766667 175.88,19.95 C176.16,19.8233333 176.486667,19.7033333 176.86,19.59 C177.233333,19.4766667 177.666667,19.42 178.16,19.42 C179.346667,19.42 179.94,19.86 179.94,20.74 L179.94,20.74 L179.94,21.5 C175.9,21.5133333 173.88,22.7466667 173.88,25.2 C173.88,26.1066667 174.146667,26.8233333 174.68,27.35 C175.213333,27.8766667 175.986667,28.14 177,28.14 Z M177.68,26.12 C177.28,26.12 176.973333,26.0166667 176.76,25.81 C176.546667,25.6033333 176.44,25.32 176.44,24.96 C176.44,24.3333333 176.75,23.8966667 177.37,23.65 C177.99,23.4033333 178.846667,23.28 179.94,23.28 L179.94,23.28 L179.94,24.8 C179.673333,25.1866667 179.346667,25.5033333 178.96,25.75 C178.573333,25.9966667 178.146667,26.12 177.68,26.12 Z M188.46,28.14 C189.633333,28.14 190.22,27.86 190.22,27.3 C190.22,27.14 190.166667,26.89 190.06,26.55 C189.953333,26.21 189.82,26.04 189.66,26.04 C189.593333,26.04 189.5,26.0533333 189.38,26.08 C189.26,26.1066667 189.133333,26.12 189,26.12 C188.72,26.12 188.51,26.04 188.37,25.88 C188.23,25.72 188.16,25.44 188.16,25.04 L188.16,25.04 L188.16,19.56 L189.38,19.56 C189.566667,19.56 189.703333,19.4933333 189.79,19.36 C189.876667,19.2266667 189.92,19.0066667 189.92,18.7 L189.92,18.7 L189.92,18.4 C189.92,18.0933333 189.876667,17.8733333 189.79,17.74 C189.703333,17.6066667 189.566667,17.54 189.38,17.54 L189.38,17.54 L188.16,17.54 L188.16,15.58 C188.16,15.1933333 187.873333,15 187.3,15 L187.3,15 L186.82,15 C186.273333,15 185.966667,15.1933333 185.9,15.58 L185.9,15.58 L185.64,17.54 L185.1,17.54 C184.913333,17.54 184.776667,17.6066667 184.69,17.74 C184.603333,17.8733333 184.56,18.0933333 184.56,18.4 L184.56,18.4 L184.56,18.7 C184.56,19.0066667 184.603333,19.2266667 184.69,19.36 C184.776667,19.4933333 184.913333,19.56 185.1,19.56 L185.1,19.56 L185.64,19.56 L185.64,25.08 C185.64,26.1333333 185.896667,26.9066667 186.41,27.4 C186.923333,27.8933333 187.606667,28.14 188.46,28.14 Z" id="Maatregelenopmaat" fill="#275937" fill-rule="nonzero"></path>
    </g>
</svg>
