<?xml version="1.0" encoding="UTF-8"?>
<svg width="269px" height="40px" viewBox="0 0 269 40" version="1.1" xmlns="http://www.w3.org/2000/svg" xmlns:xlink="http://www.w3.org/1999/xlink">
    <title>Mijn Omgevingsloket</title>
    <g id="Mijn-Omgevingsloket" stroke="none" stroke-width="1" fill="none" fill-rule="evenodd">
        <path d="M4.02,28.04 C4.72666667,28.04 5.08,27.8466667 5.08,27.46 L5.08,27.46 L5.08,19.32 C5.08,18.8666667 5.07333333,18.5266667 5.06,18.3 L5.06,18.3 L5.14,18.28 C5.28666667,18.6 5.44,18.8733333 5.6,19.1 L5.6,19.1 L8.44,24.12 C8.58666667,24.3466667 8.81333333,24.46 9.12,24.46 L9.12,24.46 L9.76,24.46 C10.0666667,24.46 10.2933333,24.3466667 10.44,24.12 L10.44,24.12 L13.26,19.14 C13.42,18.9133333 13.5733333,18.64 13.72,18.32 L13.72,18.32 L13.8,18.34 C13.7866667,18.5666667 13.78,18.9066667 13.78,19.36 L13.78,27.46 C13.78,27.8466667 14.1333333,28.04 14.84,28.04 L14.84,28.04 L15.28,28.04 C15.9866667,28.04 16.34,27.8466667 16.34,27.46 L16.34,27.46 L16.34,14.54 C16.34,14.1533333 15.9866667,13.96 15.28,13.96 L15.28,13.96 L14.36,13.96 C13.8,13.96 13.4333333,14.12 13.26,14.44 L13.26,14.44 L9.76,20.56 C9.6,20.84 9.49333333,21.0666667 9.44,21.24 C9.36,21.0266667 9.25333333,20.8066667 9.12,20.58 L9.12,20.58 L5.64,14.44 C5.46666667,14.12 5.09333333,13.96 4.52,13.96 L4.52,13.96 L3.58,13.96 C2.87333333,13.96 2.52,14.1533333 2.52,14.54 L2.52,14.54 L2.52,27.46 C2.52,27.8466667 2.87333333,28.04 3.58,28.04 L3.58,28.04 L4.02,28.04 Z M20.54,16.38 C21.38,16.38 21.8,16.1866667 21.8,15.8 L21.8,15.8 L21.8,14.36 C21.8,13.9866667 21.38,13.8 20.54,13.8 C19.6866667,13.8 19.26,13.9866667 19.26,14.36 L19.26,14.36 L19.26,15.8 C19.26,16.1866667 19.6866667,16.38 20.54,16.38 Z M20.72,28.04 C21.4266667,28.04 21.78,27.8466667 21.78,27.46 L21.78,27.46 L21.78,18.08 C21.78,17.6933333 21.4266667,17.5 20.72,17.5 L20.72,17.5 L20.32,17.5 C19.6133333,17.5 19.26,17.6933333 19.26,18.08 L19.26,18.08 L19.26,27.46 C19.26,27.8466667 19.6133333,28.04 20.32,28.04 L20.32,28.04 L20.72,28.04 Z M26.04,16.38 C26.88,16.38 27.3,16.1866667 27.3,15.8 L27.3,15.8 L27.3,14.36 C27.3,13.9866667 26.88,13.8 26.04,13.8 C25.1866667,13.8 24.76,13.9866667 24.76,14.36 L24.76,14.36 L24.76,15.8 C24.76,16.1866667 25.1866667,16.38 26.04,16.38 Z M24.48,32.24 C25.28,32.24 25.95,31.9866667 26.49,31.48 C27.03,30.9733333 27.3,30.2 27.3,29.16 L27.3,29.16 L27.3,18.08 C27.3,17.6933333 26.9466667,17.5 26.24,17.5 L26.24,17.5 L25.84,17.5 C25.1333333,17.5 24.78,17.6933333 24.78,18.08 L24.78,18.08 L24.78,29.14 C24.78,29.5266667 24.71,29.8033333 24.57,29.97 C24.43,30.1366667 24.22,30.22 23.94,30.22 C23.7933333,30.22 23.6533333,30.2033333 23.52,30.17 C23.3866667,30.1366667 23.2933333,30.12 23.24,30.12 C23.0666667,30.12 22.92,30.27 22.8,30.57 C22.68,30.87 22.62,31.1333333 22.62,31.36 C22.62,31.6933333 22.77,31.9233333 23.07,32.05 C23.37,32.1766667 23.84,32.24 24.48,32.24 Z M31.54,28.04 C32.2466667,28.04 32.6,27.8466667 32.6,27.46 L32.6,27.46 L32.6,20.74 C32.8133333,20.3933333 33.09,20.1 33.43,19.86 C33.77,19.62 34.1333333,19.5 34.52,19.5 C35.52,19.5 36.02,19.9933333 36.02,20.98 L36.02,20.98 L36.02,27.46 C36.02,27.8466667 36.3733333,28.04 37.08,28.04 L37.08,28.04 L37.46,28.04 C37.8333333,28.04 38.1033333,27.9933333 38.27,27.9 C38.4366667,27.8066667 38.52,27.66 38.52,27.46 L38.52,27.46 L38.52,20.64 C38.52,18.48 37.5066667,17.4 35.48,17.4 C34.8933333,17.4 34.33,17.54 33.79,17.82 C33.25,18.1 32.8066667,18.46 32.46,18.9 C32.4466667,18.8333333 32.4166667,18.6966667 32.37,18.49 C32.3233333,18.2833333 32.2533333,18.0833333 32.16,17.89 C32.0666667,17.6966667 31.9066667,17.6 31.68,17.6 C31.3333333,17.6 30.94,17.65 30.5,17.75 C30.06,17.85 29.84,17.9933333 29.84,18.18 C29.84,18.2733333 29.88,18.5266667 29.96,18.94 C30.04,19.3533333 30.08,20.0066667 30.08,20.9 L30.08,20.9 L30.08,27.46 C30.08,27.8466667 30.4333333,28.04 31.14,28.04 L31.14,28.04 L31.54,28.04 Z M51.94,28.14 C53.98,28.14 55.5433333,27.5266667 56.63,26.3 C57.7166667,25.0733333 58.26,23.3 58.26,20.98 C58.26,18.66 57.7166667,16.8933333 56.63,15.68 C55.5433333,14.4666667 53.98,13.86 51.94,13.86 C49.9,13.86 48.3333333,14.47 47.24,15.69 C46.1466667,16.91 45.6,18.6733333 45.6,20.98 C45.6,23.3 46.1466667,25.0733333 47.24,26.3 C48.3333333,27.5266667 49.9,28.14 51.94,28.14 Z M51.94,25.9 C50.7533333,25.9 49.85,25.48 49.23,24.64 C48.61,23.8 48.3,22.58 48.3,20.98 C48.3,19.38 48.61,18.1666667 49.23,17.34 C49.85,16.5133333 50.7533333,16.1 51.94,16.1 C53.1266667,16.1 54.0266667,16.5133333 54.64,17.34 C55.2533333,18.1666667 55.56,19.38 55.56,20.98 C55.56,22.58 55.25,23.8 54.63,24.64 C54.01,25.48 53.1133333,25.9 51.94,25.9 Z M62.1,28.04 C62.8066667,28.04 63.16,27.8466667 63.16,27.46 L63.16,27.46 L63.16,20.74 C63.2933333,20.4866667 63.5266667,20.2166667 63.86,19.93 C64.1933333,19.6433333 64.5866667,19.5 65.04,19.5 C66,19.5 66.48,19.9933333 66.48,20.98 L66.48,20.98 L66.48,27.46 C66.48,27.66 66.5633333,27.8066667 66.73,27.9 C66.8966667,27.9933333 67.1666667,28.04 67.54,28.04 L67.54,28.04 L67.92,28.04 C68.6266667,28.04 68.98,27.8466667 68.98,27.46 L68.98,27.46 L68.98,20.74 C69.1666667,20.4333333 69.42,20.15 69.74,19.89 C70.06,19.63 70.4333333,19.5 70.86,19.5 C71.82,19.5 72.3,19.9933333 72.3,20.98 L72.3,20.98 L72.3,27.46 C72.3,27.8466667 72.6533333,28.04 73.36,28.04 L73.36,28.04 L73.76,28.04 C74.4666667,28.04 74.82,27.8466667 74.82,27.46 L74.82,27.46 L74.82,20.64 C74.82,18.48 73.82,17.4 71.82,17.4 C71.2066667,17.4 70.6233333,17.55 70.07,17.85 C69.5166667,18.15 69.06,18.52 68.7,18.96 C68.3,17.92 67.4,17.4 66,17.4 C65.4,17.4 64.8366667,17.5433333 64.31,17.83 C63.7833333,18.1166667 63.3466667,18.4733333 63,18.9 C62.9866667,18.82 62.9566667,18.6766667 62.91,18.47 C62.8633333,18.2633333 62.7933333,18.0666667 62.7,17.88 C62.6066667,17.6933333 62.4533333,17.6 62.24,17.6 C61.8933333,17.6 61.5,17.65 61.06,17.75 C60.62,17.85 60.4,17.9933333 60.4,18.18 C60.4,18.2733333 60.44,18.5266667 60.52,18.94 C60.6,19.3533333 60.64,20.0066667 60.64,20.9 L60.64,20.9 L60.64,27.46 C60.64,27.8466667 60.9933333,28.04 61.7,28.04 L61.7,28.04 L62.1,28.04 Z M81.38,32.24 C82.94,32.24 84.1666667,31.9466667 85.06,31.36 C85.9533333,30.7733333 86.4,29.98 86.4,28.98 C86.4,28.0866667 86.12,27.4366667 85.56,27.03 C85,26.6233333 84.2333333,26.3333333 83.26,26.16 L83.26,26.16 L82.42,26.04 C81.6333333,25.9466667 81.0533333,25.8366667 80.68,25.71 C80.3066667,25.5833333 80.12,25.36 80.12,25.04 C80.12,24.7333333 80.23,24.5166667 80.45,24.39 C80.67,24.2633333 81.0733333,24.2 81.66,24.2 C82.8866667,24.2 83.8666667,23.91 84.6,23.33 C85.3333333,22.75 85.7,21.92 85.7,20.84 C85.7,20.5733333 85.6566667,20.3166667 85.57,20.07 C85.4833333,19.8233333 85.36,19.6066667 85.2,19.42 L85.2,19.42 L85.22,19.36 C85.3533333,19.4 85.5433333,19.4366667 85.79,19.47 C86.0366667,19.5033333 86.2333333,19.52 86.38,19.52 C86.54,19.52 86.6566667,19.4566667 86.73,19.33 C86.8033333,19.2033333 86.84,18.9933333 86.84,18.7 L86.84,18.7 L86.84,18.4 C86.84,18.0933333 86.7966667,17.8733333 86.71,17.74 C86.6233333,17.6066667 86.4866667,17.54 86.3,17.54 L86.3,17.54 L82.94,17.54 C82.5266667,17.4466667 82.0533333,17.4 81.52,17.4 C80.2533333,17.4 79.2433333,17.6933333 78.49,18.28 C77.7366667,18.8666667 77.36,19.72 77.36,20.84 C77.36,21.5066667 77.5033333,22.0766667 77.79,22.55 C78.0766667,23.0233333 78.48,23.4 79,23.68 C78.2266667,24.1333333 77.84,24.7466667 77.84,25.52 C77.84,26.2266667 78.12,26.7466667 78.68,27.08 L78.68,27.08 L78.66,27.14 C78.1,27.3666667 77.66,27.6866667 77.34,28.1 C77.02,28.5133333 76.86,28.9866667 76.86,29.52 C76.86,31.3333333 78.3666667,32.24 81.38,32.24 Z M81.52,22.32 C80.9866667,22.32 80.5566667,22.2 80.23,21.96 C79.9033333,21.72 79.74,21.3333333 79.74,20.8 C79.74,20.28 79.9033333,19.8966667 80.23,19.65 C80.5566667,19.4033333 80.9866667,19.28 81.52,19.28 C82.0533333,19.28 82.4866667,19.4033333 82.82,19.65 C83.1533333,19.8966667 83.32,20.28 83.32,20.8 C83.32,21.32 83.1533333,21.7033333 82.82,21.95 C82.4866667,22.1966667 82.0533333,22.32 81.52,22.32 Z M81.6,30.24 C80.8,30.24 80.2133333,30.1433333 79.84,29.95 C79.4666667,29.7566667 79.28,29.4733333 79.28,29.1 C79.28,28.82 79.38,28.57 79.58,28.35 C79.78,28.13 80.0533333,27.9533333 80.4,27.82 L80.4,27.82 L81.22,27.92 C82.2066667,28.0266667 82.91,28.15 83.33,28.29 C83.75,28.43 83.96,28.6866667 83.96,29.06 C83.96,29.8466667 83.1733333,30.24 81.6,30.24 Z M92.76,28.14 C93.2533333,28.14 93.7833333,28.08 94.35,27.96 C94.9166667,27.84 95.3933333,27.6733333 95.78,27.46 C96.1666667,27.2466667 96.36,27.0133333 96.36,26.76 C96.36,26.5733333 96.25,26.3033333 96.03,25.95 C95.81,25.5966667 95.6133333,25.42 95.44,25.42 C95.3866667,25.42 95.2533333,25.4666667 95.04,25.56 C94.2933333,25.9333333 93.56,26.12 92.84,26.12 C92.04,26.12 91.43,25.9233333 91.01,25.53 C90.59,25.1366667 90.3466667,24.5 90.28,23.62 L90.28,23.62 L95.8,23.62 C95.92,23.62 96.1,23.4833333 96.34,23.21 C96.58,22.9366667 96.7,22.7266667 96.7,22.58 C96.7,20.9933333 96.35,19.7333333 95.65,18.8 C94.95,17.8666667 93.88,17.4 92.44,17.4 C90.92,17.4 89.7433333,17.8466667 88.91,18.74 C88.0766667,19.6333333 87.66,21 87.66,22.84 C87.66,24.5466667 88.08,25.8566667 88.92,26.77 C89.76,27.6833333 91.04,28.14 92.76,28.14 Z M94.2,21.84 L90.28,21.84 C90.4666667,20.2266667 91.18,19.42 92.42,19.42 C93.0066667,19.42 93.45,19.6333333 93.75,20.06 C94.05,20.4866667 94.2,21.08 94.2,21.84 L94.2,21.84 Z M102.48,28.04 C103.066667,28.04 103.406667,27.9133333 103.5,27.66 L103.5,27.66 L106.7,18.24 C106.74,18.0933333 106.76,17.98 106.76,17.9 C106.76,17.6333333 106.406667,17.5 105.7,17.5 L105.7,17.5 L105.36,17.5 C104.773333,17.5 104.433333,17.6266667 104.34,17.88 L104.34,17.88 L103.02,22.04 C102.686667,23.04 102.44,24.06 102.28,25.1 L102.28,25.1 L102.2,25.1 C102.013333,24.0466667 101.773333,23.0666667 101.48,22.16 L101.48,22.16 L100.12,17.88 C100.026667,17.6266667 99.6933333,17.5 99.12,17.5 L99.12,17.5 L98.64,17.5 C97.92,17.5 97.56,17.6333333 97.56,17.9 C97.56,17.9666667 97.5666667,18.03 97.58,18.09 C97.5933333,18.15 97.6066667,18.2 97.62,18.24 L97.62,18.24 L100.82,27.66 C100.913333,27.9133333 101.246667,28.04 101.82,28.04 L101.82,28.04 L102.48,28.04 Z M109.68,16.38 C110.52,16.38 110.94,16.1866667 110.94,15.8 L110.94,15.8 L110.94,14.36 C110.94,13.9866667 110.52,13.8 109.68,13.8 C108.826667,13.8 108.4,13.9866667 108.4,14.36 L108.4,14.36 L108.4,15.8 C108.4,16.1866667 108.826667,16.38 109.68,16.38 Z M109.86,28.04 C110.566667,28.04 110.92,27.8466667 110.92,27.46 L110.92,27.46 L110.92,18.08 C110.92,17.6933333 110.566667,17.5 109.86,17.5 L109.86,17.5 L109.46,17.5 C108.753333,17.5 108.4,17.6933333 108.4,18.08 L108.4,18.08 L108.4,27.46 C108.4,27.8466667 108.753333,28.04 109.46,28.04 L109.46,28.04 L109.86,28.04 Z M115.16,28.04 C115.866667,28.04 116.22,27.8466667 116.22,27.46 L116.22,27.46 L116.22,20.74 C116.433333,20.3933333 116.71,20.1 117.05,19.86 C117.39,19.62 117.753333,19.5 118.14,19.5 C119.14,19.5 119.64,19.9933333 119.64,20.98 L119.64,20.98 L119.64,27.46 C119.64,27.8466667 119.993333,28.04 120.7,28.04 L120.7,28.04 L121.08,28.04 C121.453333,28.04 121.723333,27.9933333 121.89,27.9 C122.056667,27.8066667 122.14,27.66 122.14,27.46 L122.14,27.46 L122.14,20.64 C122.14,18.48 121.126667,17.4 119.1,17.4 C118.513333,17.4 117.95,17.54 117.41,17.82 C116.87,18.1 116.426667,18.46 116.08,18.9 C116.066667,18.8333333 116.036667,18.6966667 115.99,18.49 C115.943333,18.2833333 115.873333,18.0833333 115.78,17.89 C115.686667,17.6966667 115.526667,17.6 115.3,17.6 C114.953333,17.6 114.56,17.65 114.12,17.75 C113.68,17.85 113.46,17.9933333 113.46,18.18 C113.46,18.2733333 113.5,18.5266667 113.58,18.94 C113.66,19.3533333 113.7,20.0066667 113.7,20.9 L113.7,20.9 L113.7,27.46 C113.7,27.8466667 114.053333,28.04 114.76,28.04 L114.76,28.04 L115.16,28.04 Z M128.62,32.24 C130.18,32.24 131.406667,31.9466667 132.3,31.36 C133.193333,30.7733333 133.64,29.98 133.64,28.98 C133.64,28.0866667 133.36,27.4366667 132.8,27.03 C132.24,26.6233333 131.473333,26.3333333 130.5,26.16 L130.5,26.16 L129.66,26.04 C128.873333,25.9466667 128.293333,25.8366667 127.92,25.71 C127.546667,25.5833333 127.36,25.36 127.36,25.04 C127.36,24.7333333 127.47,24.5166667 127.69,24.39 C127.91,24.2633333 128.313333,24.2 128.9,24.2 C130.126667,24.2 131.106667,23.91 131.84,23.33 C132.573333,22.75 132.94,21.92 132.94,20.84 C132.94,20.5733333 132.896667,20.3166667 132.81,20.07 C132.723333,19.8233333 132.6,19.6066667 132.44,19.42 L132.44,19.42 L132.46,19.36 C132.593333,19.4 132.783333,19.4366667 133.03,19.47 C133.276667,19.5033333 133.473333,19.52 133.62,19.52 C133.78,19.52 133.896667,19.4566667 133.97,19.33 C134.043333,19.2033333 134.08,18.9933333 134.08,18.7 L134.08,18.7 L134.08,18.4 C134.08,18.0933333 134.036667,17.8733333 133.95,17.74 C133.863333,17.6066667 133.726667,17.54 133.54,17.54 L133.54,17.54 L130.18,17.54 C129.766667,17.4466667 129.293333,17.4 128.76,17.4 C127.493333,17.4 126.483333,17.6933333 125.73,18.28 C124.976667,18.8666667 124.6,19.72 124.6,20.84 C124.6,21.5066667 124.743333,22.0766667 125.03,22.55 C125.316667,23.0233333 125.72,23.4 126.24,23.68 C125.466667,24.1333333 125.08,24.7466667 125.08,25.52 C125.08,26.2266667 125.36,26.7466667 125.92,27.08 L125.92,27.08 L125.9,27.14 C125.34,27.3666667 124.9,27.6866667 124.58,28.1 C124.26,28.5133333 124.1,28.9866667 124.1,29.52 C124.1,31.3333333 125.606667,32.24 128.62,32.24 Z M128.76,22.32 C128.226667,22.32 127.796667,22.2 127.47,21.96 C127.143333,21.72 126.98,21.3333333 126.98,20.8 C126.98,20.28 127.143333,19.8966667 127.47,19.65 C127.796667,19.4033333 128.226667,19.28 128.76,19.28 C129.293333,19.28 129.726667,19.4033333 130.06,19.65 C130.393333,19.8966667 130.56,20.28 130.56,20.8 C130.56,21.32 130.393333,21.7033333 130.06,21.95 C129.726667,22.1966667 129.293333,22.32 128.76,22.32 Z M128.84,30.24 C128.04,30.24 127.453333,30.1433333 127.08,29.95 C126.706667,29.7566667 126.52,29.4733333 126.52,29.1 C126.52,28.82 126.62,28.57 126.82,28.35 C127.02,28.13 127.293333,27.9533333 127.64,27.82 L127.64,27.82 L128.46,27.92 C129.446667,28.0266667 130.15,28.15 130.57,28.29 C130.99,28.43 131.2,28.6866667 131.2,29.06 C131.2,29.8466667 130.413333,30.24 128.84,30.24 Z M138.26,28.16 C139.406667,28.16 140.326667,27.8533333 141.02,27.24 C141.713333,26.6266667 142.06,25.8333333 142.06,24.86 C142.06,23.9533333 141.816667,23.2666667 141.33,22.8 C140.843333,22.3333333 140.193333,21.96 139.38,21.68 C138.78,21.4666667 138.36,21.27 138.12,21.09 C137.88,20.91 137.76,20.66 137.76,20.34 C137.76,20.0333333 137.876667,19.8 138.11,19.64 C138.343333,19.48 138.66,19.4 139.06,19.4 C139.54,19.4 139.95,19.4733333 140.29,19.62 C140.63,19.7666667 140.82,19.84 140.86,19.84 C141.02,19.84 141.19,19.6633333 141.37,19.31 C141.55,18.9566667 141.64,18.6666667 141.64,18.44 C141.64,18.12 141.336667,17.8633333 140.73,17.67 C140.123333,17.4766667 139.466667,17.38 138.76,17.38 C137.693333,17.38 136.84,17.6666667 136.2,18.24 C135.56,18.8133333 135.24,19.58 135.24,20.54 C135.24,21.1666667 135.363333,21.6833333 135.61,22.09 C135.856667,22.4966667 136.16,22.8066667 136.52,23.02 C136.88,23.2333333 137.306667,23.4333333 137.8,23.62 C138.426667,23.8733333 138.873333,24.0933333 139.14,24.28 C139.406667,24.4666667 139.54,24.7266667 139.54,25.06 C139.54,25.4066667 139.416667,25.6733333 139.17,25.86 C138.923333,26.0466667 138.553333,26.14 138.06,26.14 C137.713333,26.14 137.406667,26.0933333 137.14,26 C136.873333,25.9066667 136.62,25.7966667 136.38,25.67 C136.14,25.5433333 135.993333,25.48 135.94,25.48 C135.766667,25.48 135.566667,25.65 135.34,25.99 C135.113333,26.33 135,26.6133333 135,26.84 C135,27.0666667 135.16,27.2833333 135.48,27.49 C135.8,27.6966667 136.21,27.86 136.71,27.98 C137.21,28.1 137.726667,28.16 138.26,28.16 Z M146.82,28.14 C147.993333,28.14 148.58,27.86 148.58,27.3 C148.58,27.14 148.526667,26.89 148.42,26.55 C148.313333,26.21 148.18,26.04 148.02,26.04 C147.966667,26.04 147.88,26.0533333 147.76,26.08 C147.64,26.1066667 147.513333,26.12 147.38,26.12 C147.1,26.12 146.886667,26.0366667 146.74,25.87 C146.593333,25.7033333 146.52,25.4266667 146.52,25.04 L146.52,25.04 L146.52,13.5 C146.52,13.1266667 146.166667,12.94 145.46,12.94 L145.46,12.94 L145.08,12.94 C144.373333,12.94 144.02,13.1266667 144.02,13.5 L144.02,13.5 L144.02,25.08 C144.02,26.1466667 144.273333,26.9233333 144.78,27.41 C145.286667,27.8966667 145.966667,28.14 146.82,28.14 Z M153.62,28.14 C155.166667,28.14 156.343333,27.6833333 157.15,26.77 C157.956667,25.8566667 158.36,24.5266667 158.36,22.78 C158.36,21.0333333 157.956667,19.7 157.15,18.78 C156.343333,17.86 155.166667,17.4 153.62,17.4 C152.06,17.4 150.873333,17.86 150.06,18.78 C149.246667,19.7 148.84,21.0333333 148.84,22.78 C148.84,24.5133333 149.246667,25.84 150.06,26.76 C150.873333,27.68 152.06,28.14 153.62,28.14 Z M153.6,26.12 C152.853333,26.12 152.3,25.8433333 151.94,25.29 C151.58,24.7366667 151.4,23.8933333 151.4,22.76 C151.4,21.64 151.58,20.8033333 151.94,20.25 C152.3,19.6966667 152.853333,19.42 153.6,19.42 C154.346667,19.42 154.896667,19.6966667 155.25,20.25 C155.603333,20.8033333 155.78,21.64 155.78,22.76 C155.78,23.8933333 155.603333,24.7366667 155.25,25.29 C154.896667,25.8433333 154.346667,26.12 153.6,26.12 Z M162.24,28.04 C162.96,28.04 163.32,27.8466667 163.32,27.46 L163.32,27.46 L163.32,23.06 L163.4,23.06 L166.6,27.7 C166.68,27.8333333 166.816667,27.9233333 167.01,27.97 C167.203333,28.0166667 167.453333,28.04 167.76,28.04 L167.76,28.04 L168.32,28.04 C169.026667,28.04 169.38,27.94 169.38,27.74 C169.38,27.6466667 169.326667,27.52 169.22,27.36 L169.22,27.36 L165.68,22.3 L168.76,18.18 C168.88,18.02 168.94,17.8866667 168.94,17.78 C168.94,17.7 168.86,17.6333333 168.7,17.58 C168.54,17.5266667 168.3,17.5 167.98,17.5 L167.98,17.5 L167.46,17.5 C167.153333,17.5 166.906667,17.5233333 166.72,17.57 C166.533333,17.6166667 166.393333,17.7066667 166.3,17.84 L166.3,17.84 L163.4,21.8 L163.32,21.78 L163.32,13.5 C163.32,13.1266667 162.96,12.94 162.24,12.94 L162.24,12.94 L161.86,12.94 C161.153333,12.94 160.8,13.1266667 160.8,13.5 L160.8,13.5 L160.8,27.46 C160.8,27.8466667 161.153333,28.04 161.86,28.04 L161.86,28.04 L162.24,28.04 Z M175.14,28.14 C175.633333,28.14 176.163333,28.08 176.73,27.96 C177.296667,27.84 177.773333,27.6733333 178.16,27.46 C178.546667,27.2466667 178.74,27.0133333 178.74,26.76 C178.74,26.5733333 178.63,26.3033333 178.41,25.95 C178.19,25.5966667 177.993333,25.42 177.82,25.42 C177.766667,25.42 177.633333,25.4666667 177.42,25.56 C176.673333,25.9333333 175.94,26.12 175.22,26.12 C174.42,26.12 173.81,25.9233333 173.39,25.53 C172.97,25.1366667 172.726667,24.5 172.66,23.62 L172.66,23.62 L178.18,23.62 C178.3,23.62 178.48,23.4833333 178.72,23.21 C178.96,22.9366667 179.08,22.7266667 179.08,22.58 C179.08,20.9933333 178.73,19.7333333 178.03,18.8 C177.33,17.8666667 176.26,17.4 174.82,17.4 C173.3,17.4 172.123333,17.8466667 171.29,18.74 C170.456667,19.6333333 170.04,21 170.04,22.84 C170.04,24.5466667 170.46,25.8566667 171.3,26.77 C172.14,27.6833333 173.42,28.14 175.14,28.14 Z M176.58,21.84 L172.66,21.84 C172.846667,20.2266667 173.56,19.42 174.8,19.42 C175.386667,19.42 175.83,19.6333333 176.13,20.06 C176.43,20.4866667 176.58,21.08 176.58,21.84 L176.58,21.84 Z M184.44,28.14 C185.613333,28.14 186.2,27.86 186.2,27.3 C186.2,27.14 186.146667,26.89 186.04,26.55 C185.933333,26.21 185.8,26.04 185.64,26.04 C185.573333,26.04 185.48,26.0533333 185.36,26.08 C185.24,26.1066667 185.113333,26.12 184.98,26.12 C184.7,26.12 184.49,26.04 184.35,25.88 C184.21,25.72 184.14,25.44 184.14,25.04 L184.14,25.04 L184.14,19.56 L185.36,19.56 C185.546667,19.56 185.683333,19.4933333 185.77,19.36 C185.856667,19.2266667 185.9,19.0066667 185.9,18.7 L185.9,18.7 L185.9,18.4 C185.9,18.0933333 185.856667,17.8733333 185.77,17.74 C185.683333,17.6066667 185.546667,17.54 185.36,17.54 L185.36,17.54 L184.14,17.54 L184.14,15.58 C184.14,15.1933333 183.853333,15 183.28,15 L183.28,15 L182.8,15 C182.253333,15 181.946667,15.1933333 181.88,15.58 L181.88,15.58 L181.62,17.54 L181.08,17.54 C180.893333,17.54 180.756667,17.6066667 180.67,17.74 C180.583333,17.8733333 180.54,18.0933333 180.54,18.4 L180.54,18.4 L180.54,18.7 C180.54,19.0066667 180.583333,19.2266667 180.67,19.36 C180.756667,19.4933333 180.893333,19.56 181.08,19.56 L181.08,19.56 L181.62,19.56 L181.62,25.08 C181.62,26.1333333 181.876667,26.9066667 182.39,27.4 C182.903333,27.8933333 183.586667,28.14 184.44,28.14 Z" id="MijnOmgevingsloket" fill="#275937" fill-rule="nonzero"></path>
    </g>
</svg>