<?xml version="1.0" encoding="UTF-8"?>
<svg width="269px" height="40px" viewBox="0 0 269 40" version="1.1" xmlns="http://www.w3.org/2000/svg" xmlns:xlink="http://www.w3.org/1999/xlink">
    <title>Regels op de kaart</title>
    <g id="Regels-op-de-kaart" stroke="none" stroke-width="1" fill="none" fill-rule="evenodd">
        <path d="M4.14,28.04 C4.84666667,28.04 5.2,27.8466667 5.2,27.46 L5.2,27.46 L5.2,22.28 L6.34,22.28 C7.00666667,22.28 7.50333333,22.3866667 7.83,22.6 C8.15666667,22.8133333 8.44,23.1933333 8.68,23.74 L8.68,23.74 L10.24,27.66 C10.3466667,27.9133333 10.6933333,28.04 11.28,28.04 L11.28,28.04 L11.88,28.04 C12.6,28.04 12.96,27.9133333 12.96,27.66 C12.96,27.62 12.9333333,27.5066667 12.88,27.32 L12.88,27.32 L11.18,23.08 C10.9666667,22.5466667 10.7266667,22.0966667 10.46,21.73 C10.1933333,21.3633333 9.91333333,21.1266667 9.62,21.02 L9.62,21.02 L9.62,20.94 C10.34,20.66 10.9066667,20.24 11.32,19.68 C11.7333333,19.12 11.94,18.4533333 11.94,17.68 C11.94,16.4533333 11.5366667,15.5333333 10.73,14.92 C9.92333333,14.3066667 8.68666667,14 7.02,14 L7.02,14 L3.3,14 C3.04666667,14 2.86333333,14.06 2.75,14.18 C2.63666667,14.3 2.58,14.4866667 2.58,14.74 L2.58,14.74 L2.58,27.46 C2.58,27.8466667 2.93333333,28.04 3.64,28.04 L3.64,28.04 L4.14,28.04 Z M7.36,20.02 L5.2,20.02 L5.2,16.24 L7.22,16.24 C7.84666667,16.24 8.34,16.3966667 8.7,16.71 C9.06,17.0233333 9.24,17.4666667 9.24,18.04 C9.24,18.5733333 9.05333333,19.0366667 8.68,19.43 C8.30666667,19.8233333 7.86666667,20.02 7.36,20.02 L7.36,20.02 Z M19.24,28.14 C19.7333333,28.14 20.2633333,28.08 20.83,27.96 C21.3966667,27.84 21.8733333,27.6733333 22.26,27.46 C22.6466667,27.2466667 22.84,27.0133333 22.84,26.76 C22.84,26.5733333 22.73,26.3033333 22.51,25.95 C22.29,25.5966667 22.0933333,25.42 21.92,25.42 C21.8666667,25.42 21.7333333,25.4666667 21.52,25.56 C20.7733333,25.9333333 20.04,26.12 19.32,26.12 C18.52,26.12 17.91,25.9233333 17.49,25.53 C17.07,25.1366667 16.8266667,24.5 16.76,23.62 L16.76,23.62 L22.28,23.62 C22.4,23.62 22.58,23.4833333 22.82,23.21 C23.06,22.9366667 23.18,22.7266667 23.18,22.58 C23.18,20.9933333 22.83,19.7333333 22.13,18.8 C21.43,17.8666667 20.36,17.4 18.92,17.4 C17.4,17.4 16.2233333,17.8466667 15.39,18.74 C14.5566667,19.6333333 14.14,21 14.14,22.84 C14.14,24.5466667 14.56,25.8566667 15.4,26.77 C16.24,27.6833333 17.52,28.14 19.24,28.14 Z M20.68,21.84 L16.76,21.84 C16.9466667,20.2266667 17.66,19.42 18.9,19.42 C19.4866667,19.42 19.93,19.6333333 20.23,20.06 C20.53,20.4866667 20.68,21.08 20.68,21.84 L20.68,21.84 Z M29.16,32.24 C30.72,32.24 31.9466667,31.9466667 32.84,31.36 C33.7333333,30.7733333 34.18,29.98 34.18,28.98 C34.18,28.0866667 33.9,27.4366667 33.34,27.03 C32.78,26.6233333 32.0133333,26.3333333 31.04,26.16 L31.04,26.16 L30.2,26.04 C29.4133333,25.9466667 28.8333333,25.8366667 28.46,25.71 C28.0866667,25.5833333 27.9,25.36 27.9,25.04 C27.9,24.7333333 28.01,24.5166667 28.23,24.39 C28.45,24.2633333 28.8533333,24.2 29.44,24.2 C30.6666667,24.2 31.6466667,23.91 32.38,23.33 C33.1133333,22.75 33.48,21.92 33.48,20.84 C33.48,20.5733333 33.4366667,20.3166667 33.35,20.07 C33.2633333,19.8233333 33.14,19.6066667 32.98,19.42 L32.98,19.42 L33,19.36 C33.1333333,19.4 33.3233333,19.4366667 33.57,19.47 C33.8166667,19.5033333 34.0133333,19.52 34.16,19.52 C34.32,19.52 34.4366667,19.4566667 34.51,19.33 C34.5833333,19.2033333 34.62,18.9933333 34.62,18.7 L34.62,18.7 L34.62,18.4 C34.62,18.0933333 34.5766667,17.8733333 34.49,17.74 C34.4033333,17.6066667 34.2666667,17.54 34.08,17.54 L34.08,17.54 L30.72,17.54 C30.3066667,17.4466667 29.8333333,17.4 29.3,17.4 C28.0333333,17.4 27.0233333,17.6933333 26.27,18.28 C25.5166667,18.8666667 25.14,19.72 25.14,20.84 C25.14,21.5066667 25.2833333,22.0766667 25.57,22.55 C25.8566667,23.0233333 26.26,23.4 26.78,23.68 C26.0066667,24.1333333 25.62,24.7466667 25.62,25.52 C25.62,26.2266667 25.9,26.7466667 26.46,27.08 L26.46,27.08 L26.44,27.14 C25.88,27.3666667 25.44,27.6866667 25.12,28.1 C24.8,28.5133333 24.64,28.9866667 24.64,29.52 C24.64,31.3333333 26.1466667,32.24 29.16,32.24 Z M29.3,22.32 C28.7666667,22.32 28.3366667,22.2 28.01,21.96 C27.6833333,21.72 27.52,21.3333333 27.52,20.8 C27.52,20.28 27.6833333,19.8966667 28.01,19.65 C28.3366667,19.4033333 28.7666667,19.28 29.3,19.28 C29.8333333,19.28 30.2666667,19.4033333 30.6,19.65 C30.9333333,19.8966667 31.1,20.28 31.1,20.8 C31.1,21.32 30.9333333,21.7033333 30.6,21.95 C30.2666667,22.1966667 29.8333333,22.32 29.3,22.32 Z M29.38,30.24 C28.58,30.24 27.9933333,30.1433333 27.62,29.95 C27.2466667,29.7566667 27.06,29.4733333 27.06,29.1 C27.06,28.82 27.16,28.57 27.36,28.35 C27.56,28.13 27.8333333,27.9533333 28.18,27.82 L28.18,27.82 L29,27.92 C29.9866667,28.0266667 30.69,28.15 31.11,28.29 C31.53,28.43 31.74,28.6866667 31.74,29.06 C31.74,29.8466667 30.9533333,30.24 29.38,30.24 Z M40.54,28.14 C41.0333333,28.14 41.5633333,28.08 42.13,27.96 C42.6966667,27.84 43.1733333,27.6733333 43.56,27.46 C43.9466667,27.2466667 44.14,27.0133333 44.14,26.76 C44.14,26.5733333 44.03,26.3033333 43.81,25.95 C43.59,25.5966667 43.3933333,25.42 43.22,25.42 C43.1666667,25.42 43.0333333,25.4666667 42.82,25.56 C42.0733333,25.9333333 41.34,26.12 40.62,26.12 C39.82,26.12 39.21,25.9233333 38.79,25.53 C38.37,25.1366667 38.1266667,24.5 38.06,23.62 L38.06,23.62 L43.58,23.62 C43.7,23.62 43.88,23.4833333 44.12,23.21 C44.36,22.9366667 44.48,22.7266667 44.48,22.58 C44.48,20.9933333 44.13,19.7333333 43.43,18.8 C42.73,17.8666667 41.66,17.4 40.22,17.4 C38.7,17.4 37.5233333,17.8466667 36.69,18.74 C35.8566667,19.6333333 35.44,21 35.44,22.84 C35.44,24.5466667 35.86,25.8566667 36.7,26.77 C37.54,27.6833333 38.82,28.14 40.54,28.14 Z M41.98,21.84 L38.06,21.84 C38.2466667,20.2266667 38.96,19.42 40.2,19.42 C40.7866667,19.42 41.23,19.6333333 41.53,20.06 C41.83,20.4866667 41.98,21.08 41.98,21.84 L41.98,21.84 Z M49.48,28.14 C50.6533333,28.14 51.24,27.86 51.24,27.3 C51.24,27.14 51.1866667,26.89 51.08,26.55 C50.9733333,26.21 50.84,26.04 50.68,26.04 C50.6266667,26.04 50.54,26.0533333 50.42,26.08 C50.3,26.1066667 50.1733333,26.12 50.04,26.12 C49.76,26.12 49.5466667,26.0366667 49.4,25.87 C49.2533333,25.7033333 49.18,25.4266667 49.18,25.04 L49.18,25.04 L49.18,13.5 C49.18,13.1266667 48.8266667,12.94 48.12,12.94 L48.12,12.94 L47.74,12.94 C47.0333333,12.94 46.68,13.1266667 46.68,13.5 L46.68,13.5 L46.68,25.08 C46.68,26.1466667 46.9333333,26.9233333 47.44,27.41 C47.9466667,27.8966667 48.6266667,28.14 49.48,28.14 Z M55.12,28.16 C56.2666667,28.16 57.1866667,27.8533333 57.88,27.24 C58.5733333,26.6266667 58.92,25.8333333 58.92,24.86 C58.92,23.9533333 58.6766667,23.2666667 58.19,22.8 C57.7033333,22.3333333 57.0533333,21.96 56.24,21.68 C55.64,21.4666667 55.22,21.27 54.98,21.09 C54.74,20.91 54.62,20.66 54.62,20.34 C54.62,20.0333333 54.7366667,19.8 54.97,19.64 C55.2033333,19.48 55.52,19.4 55.92,19.4 C56.4,19.4 56.81,19.4733333 57.15,19.62 C57.49,19.7666667 57.68,19.84 57.72,19.84 C57.88,19.84 58.05,19.6633333 58.23,19.31 C58.41,18.9566667 58.5,18.6666667 58.5,18.44 C58.5,18.12 58.1966667,17.8633333 57.59,17.67 C56.9833333,17.4766667 56.3266667,17.38 55.62,17.38 C54.5533333,17.38 53.7,17.6666667 53.06,18.24 C52.42,18.8133333 52.1,19.58 52.1,20.54 C52.1,21.1666667 52.2233333,21.6833333 52.47,22.09 C52.7166667,22.4966667 53.02,22.8066667 53.38,23.02 C53.74,23.2333333 54.1666667,23.4333333 54.66,23.62 C55.2866667,23.8733333 55.7333333,24.0933333 56,24.28 C56.2666667,24.4666667 56.4,24.7266667 56.4,25.06 C56.4,25.4066667 56.2766667,25.6733333 56.03,25.86 C55.7833333,26.0466667 55.4133333,26.14 54.92,26.14 C54.5733333,26.14 54.2666667,26.0933333 54,26 C53.7333333,25.9066667 53.48,25.7966667 53.24,25.67 C53,25.5433333 52.8533333,25.48 52.8,25.48 C52.6266667,25.48 52.4266667,25.65 52.2,25.99 C51.9733333,26.33 51.86,26.6133333 51.86,26.84 C51.86,27.0666667 52.02,27.2833333 52.34,27.49 C52.66,27.6966667 53.07,27.86 53.57,27.98 C54.07,28.1 54.5866667,28.16 55.12,28.16 Z M70,28.14 C71.5466667,28.14 72.7233333,27.6833333 73.53,26.77 C74.3366667,25.8566667 74.74,24.5266667 74.74,22.78 C74.74,21.0333333 74.3366667,19.7 73.53,18.78 C72.7233333,17.86 71.5466667,17.4 70,17.4 C68.44,17.4 67.2533333,17.86 66.44,18.78 C65.6266667,19.7 65.22,21.0333333 65.22,22.78 C65.22,24.5133333 65.6266667,25.84 66.44,26.76 C67.2533333,27.68 68.44,28.14 70,28.14 Z M69.98,26.12 C69.2333333,26.12 68.68,25.8433333 68.32,25.29 C67.96,24.7366667 67.78,23.8933333 67.78,22.76 C67.78,21.64 67.96,20.8033333 68.32,20.25 C68.68,19.6966667 69.2333333,19.42 69.98,19.42 C70.7266667,19.42 71.2766667,19.6966667 71.63,20.25 C71.9833333,20.8033333 72.16,21.64 72.16,22.76 C72.16,23.8933333 71.9833333,24.7366667 71.63,25.29 C71.2766667,25.8433333 70.7266667,26.12 69.98,26.12 Z M78.62,32.14 C79.3266667,32.14 79.68,31.9466667 79.68,31.56 L79.68,31.56 L79.68,27.38 C80.36,27.8866667 81.14,28.14 82.02,28.14 C83.3133333,28.14 84.33,27.6633333 85.07,26.71 C85.81,25.7566667 86.18,24.4466667 86.18,22.78 C86.18,21.6866667 86.0233333,20.7333333 85.71,19.92 C85.3966667,19.1066667 84.9533333,18.4833333 84.38,18.05 C83.8066667,17.6166667 83.14,17.4 82.38,17.4 C81.7933333,17.4 81.2566667,17.5333333 80.77,17.8 C80.2833333,18.0666667 79.8733333,18.4333333 79.54,18.9 C79.5266667,18.82 79.4966667,18.6766667 79.45,18.47 C79.4033333,18.2633333 79.3333333,18.0666667 79.24,17.88 C79.1466667,17.6933333 78.9866667,17.6 78.76,17.6 C78.4266667,17.6 78.04,17.65 77.6,17.75 C77.16,17.85 76.94,17.9933333 76.94,18.18 C76.94,18.2733333 76.98,18.5266667 77.06,18.94 C77.14,19.3533333 77.18,20.0066667 77.18,20.9 L77.18,20.9 L77.18,31.56 C77.18,31.76 77.2633333,31.9066667 77.43,32 C77.5966667,32.0933333 77.8666667,32.14 78.24,32.14 L78.24,32.14 L78.62,32.14 Z M81.46,26.1 C80.8066667,26.1 80.2133333,25.9133333 79.68,25.54 L79.68,25.54 L79.68,20.74 C79.96,20.3533333 80.27,20.0466667 80.61,19.82 C80.95,19.5933333 81.3133333,19.48 81.7,19.48 C82.3266667,19.48 82.8,19.7633333 83.12,20.33 C83.44,20.8966667 83.6,21.7266667 83.6,22.82 C83.6,25.0066667 82.8866667,26.1 81.46,26.1 Z M96.62,28.14 C97.2066667,28.14 97.75,28.0066667 98.25,27.74 C98.75,27.4733333 99.16,27.1066667 99.48,26.64 C99.4933333,26.72 99.5233333,26.8733333 99.57,27.1 C99.6166667,27.3266667 99.6866667,27.5366667 99.78,27.73 C99.8733333,27.9233333 100.026667,28.02 100.24,28.02 C100.586667,28.02 100.98,27.97 101.42,27.87 C101.86,27.77 102.08,27.6266667 102.08,27.44 C102.08,27.3466667 102.04,27.09 101.96,26.67 C101.88,26.25 101.84,25.5866667 101.84,24.68 L101.84,24.68 L101.84,13.5 C101.84,13.1266667 101.486667,12.94 100.78,12.94 L100.78,12.94 L100.38,12.94 C99.6733333,12.94 99.32,13.1266667 99.32,13.5 L99.32,13.5 L99.32,18.16 C98.6666667,17.6533333 97.8933333,17.4 97,17.4 C95.7066667,17.4 94.6866667,17.8766667 93.94,18.83 C93.1933333,19.7833333 92.82,21.0933333 92.82,22.76 C92.82,23.8666667 92.98,24.8233333 93.3,25.63 C93.62,26.4366667 94.0666667,27.0566667 94.64,27.49 C95.2133333,27.9233333 95.8733333,28.14 96.62,28.14 Z M97.32,26.06 C96.68,26.06 96.2,25.7766667 95.88,25.21 C95.56,24.6433333 95.4,23.8133333 95.4,22.72 C95.4,20.5333333 96.12,19.44 97.56,19.44 C98.2,19.44 98.7866667,19.6266667 99.32,20 L99.32,20 L99.32,24.8 C98.72,25.64 98.0533333,26.06 97.32,26.06 Z M109.26,28.14 C109.753333,28.14 110.283333,28.08 110.85,27.96 C111.416667,27.84 111.893333,27.6733333 112.28,27.46 C112.666667,27.2466667 112.86,27.0133333 112.86,26.76 C112.86,26.5733333 112.75,26.3033333 112.53,25.95 C112.31,25.5966667 112.113333,25.42 111.94,25.42 C111.886667,25.42 111.753333,25.4666667 111.54,25.56 C110.793333,25.9333333 110.06,26.12 109.34,26.12 C108.54,26.12 107.93,25.9233333 107.51,25.53 C107.09,25.1366667 106.846667,24.5 106.78,23.62 L106.78,23.62 L112.3,23.62 C112.42,23.62 112.6,23.4833333 112.84,23.21 C113.08,22.9366667 113.2,22.7266667 113.2,22.58 C113.2,20.9933333 112.85,19.7333333 112.15,18.8 C111.45,17.8666667 110.38,17.4 108.94,17.4 C107.42,17.4 106.243333,17.8466667 105.41,18.74 C104.576667,19.6333333 104.16,21 104.16,22.84 C104.16,24.5466667 104.58,25.8566667 105.42,26.77 C106.26,27.6833333 107.54,28.14 109.26,28.14 Z M110.7,21.84 L106.78,21.84 C106.966667,20.2266667 107.68,19.42 108.92,19.42 C109.506667,19.42 109.95,19.6333333 110.25,20.06 C110.55,20.4866667 110.7,21.08 110.7,21.84 L110.7,21.84 Z M121.76,28.04 C122.48,28.04 122.84,27.8466667 122.84,27.46 L122.84,27.46 L122.84,23.06 L122.92,23.06 L126.12,27.7 C126.2,27.8333333 126.336667,27.9233333 126.53,27.97 C126.723333,28.0166667 126.973333,28.04 127.28,28.04 L127.28,28.04 L127.84,28.04 C128.546667,28.04 128.9,27.94 128.9,27.74 C128.9,27.6466667 128.846667,27.52 128.74,27.36 L128.74,27.36 L125.2,22.3 L128.28,18.18 C128.4,18.02 128.46,17.8866667 128.46,17.78 C128.46,17.7 128.38,17.6333333 128.22,17.58 C128.06,17.5266667 127.82,17.5 127.5,17.5 L127.5,17.5 L126.98,17.5 C126.673333,17.5 126.426667,17.5233333 126.24,17.57 C126.053333,17.6166667 125.913333,17.7066667 125.82,17.84 L125.82,17.84 L122.92,21.8 L122.84,21.78 L122.84,13.5 C122.84,13.1266667 122.48,12.94 121.76,12.94 L121.76,12.94 L121.38,12.94 C120.673333,12.94 120.32,13.1266667 120.32,13.5 L120.32,13.5 L120.32,27.46 C120.32,27.8466667 120.673333,28.04 121.38,28.04 L121.38,28.04 L121.76,28.04 Z M133.22,28.14 C133.98,28.14 134.616667,27.98 135.13,27.66 C135.643333,27.34 136.04,27 136.32,26.64 C136.333333,26.72 136.363333,26.8733333 136.41,27.1 C136.456667,27.3266667 136.526667,27.5366667 136.62,27.73 C136.713333,27.9233333 136.866667,28.02 137.08,28.02 C137.426667,28.02 137.82,27.97 138.26,27.87 C138.7,27.77 138.92,27.6266667 138.92,27.44 C138.92,27.3466667 138.88,27.09 138.8,26.67 C138.72,26.25 138.68,25.5866667 138.68,24.68 L138.68,24.68 L138.68,20.66 C138.68,19.6466667 138.336667,18.85 137.65,18.27 C136.963333,17.69 135.913333,17.4 134.5,17.4 C133.82,17.4 133.186667,17.4666667 132.6,17.6 C132.013333,17.7333333 131.55,17.9033333 131.21,18.11 C130.87,18.3166667 130.7,18.5266667 130.7,18.74 C130.7,18.9266667 130.81,19.2066667 131.03,19.58 C131.25,19.9533333 131.446667,20.14 131.62,20.14 C131.66,20.14 131.82,20.0766667 132.1,19.95 C132.38,19.8233333 132.706667,19.7033333 133.08,19.59 C133.453333,19.4766667 133.886667,19.42 134.38,19.42 C135.566667,19.42 136.16,19.86 136.16,20.74 L136.16,20.74 L136.16,21.5 C132.12,21.5133333 130.1,22.7466667 130.1,25.2 C130.1,26.1066667 130.366667,26.8233333 130.9,27.35 C131.433333,27.8766667 132.206667,28.14 133.22,28.14 Z M133.9,26.12 C133.5,26.12 133.193333,26.0166667 132.98,25.81 C132.766667,25.6033333 132.66,25.32 132.66,24.96 C132.66,24.3333333 132.97,23.8966667 133.59,23.65 C134.21,23.4033333 135.066667,23.28 136.16,23.28 L136.16,23.28 L136.16,24.8 C135.893333,25.1866667 135.566667,25.5033333 135.18,25.75 C134.793333,25.9966667 134.366667,26.12 133.9,26.12 Z M144.12,28.14 C144.88,28.14 145.516667,27.98 146.03,27.66 C146.543333,27.34 146.94,27 147.22,26.64 C147.233333,26.72 147.263333,26.8733333 147.31,27.1 C147.356667,27.3266667 147.426667,27.5366667 147.52,27.73 C147.613333,27.9233333 147.766667,28.02 147.98,28.02 C148.326667,28.02 148.72,27.97 149.16,27.87 C149.6,27.77 149.82,27.6266667 149.82,27.44 C149.82,27.3466667 149.78,27.09 149.7,26.67 C149.62,26.25 149.58,25.5866667 149.58,24.68 L149.58,24.68 L149.58,20.66 C149.58,19.6466667 149.236667,18.85 148.55,18.27 C147.863333,17.69 146.813333,17.4 145.4,17.4 C144.72,17.4 144.086667,17.4666667 143.5,17.6 C142.913333,17.7333333 142.45,17.9033333 142.11,18.11 C141.77,18.3166667 141.6,18.5266667 141.6,18.74 C141.6,18.9266667 141.71,19.2066667 141.93,19.58 C142.15,19.9533333 142.346667,20.14 142.52,20.14 C142.56,20.14 142.72,20.0766667 143,19.95 C143.28,19.8233333 143.606667,19.7033333 143.98,19.59 C144.353333,19.4766667 144.786667,19.42 145.28,19.42 C146.466667,19.42 147.06,19.86 147.06,20.74 L147.06,20.74 L147.06,21.5 C143.02,21.5133333 141,22.7466667 141,25.2 C141,26.1066667 141.266667,26.8233333 141.8,27.35 C142.333333,27.8766667 143.106667,28.14 144.12,28.14 Z M144.8,26.12 C144.4,26.12 144.093333,26.0166667 143.88,25.81 C143.666667,25.6033333 143.56,25.32 143.56,24.96 C143.56,24.3333333 143.87,23.8966667 144.49,23.65 C145.11,23.4033333 145.966667,23.28 147.06,23.28 L147.06,23.28 L147.06,24.8 C146.793333,25.1866667 146.466667,25.5033333 146.08,25.75 C145.693333,25.9966667 145.266667,26.12 144.8,26.12 Z M153.9,28.04 C154.62,28.04 154.98,27.8466667 154.98,27.46 L154.98,27.46 L154.98,20.74 C155.1,20.5266667 155.313333,20.2933333 155.62,20.04 C155.926667,19.7866667 156.273333,19.66 156.66,19.66 C156.86,19.66 157.056667,19.69 157.25,19.75 C157.443333,19.81 157.573333,19.84 157.64,19.84 C157.8,19.84 157.933333,19.66 158.04,19.3 C158.146667,18.94 158.2,18.6266667 158.2,18.36 C158.2,18.04 158.116667,17.8 157.95,17.64 C157.783333,17.48 157.48,17.4 157.04,17.4 C156.173333,17.4 155.433333,17.9 154.82,18.9 C154.806667,18.82 154.776667,18.6766667 154.73,18.47 C154.683333,18.2633333 154.613333,18.0666667 154.52,17.88 C154.426667,17.6933333 154.273333,17.6 154.06,17.6 C153.713333,17.6 153.32,17.65 152.88,17.75 C152.44,17.85 152.22,17.9933333 152.22,18.18 C152.22,18.2733333 152.26,18.5266667 152.34,18.94 C152.42,19.3533333 152.46,20.0066667 152.46,20.9 L152.46,20.9 L152.46,27.46 C152.46,27.8466667 152.813333,28.04 153.52,28.04 L153.52,28.04 L153.9,28.04 Z M162.7,28.14 C163.873333,28.14 164.46,27.86 164.46,27.3 C164.46,27.14 164.406667,26.89 164.3,26.55 C164.193333,26.21 164.06,26.04 163.9,26.04 C163.833333,26.04 163.74,26.0533333 163.62,26.08 C163.5,26.1066667 163.373333,26.12 163.24,26.12 C162.96,26.12 162.75,26.04 162.61,25.88 C162.47,25.72 162.4,25.44 162.4,25.04 L162.4,25.04 L162.4,19.56 L163.62,19.56 C163.806667,19.56 163.943333,19.4933333 164.03,19.36 C164.116667,19.2266667 164.16,19.0066667 164.16,18.7 L164.16,18.7 L164.16,18.4 C164.16,18.0933333 164.116667,17.8733333 164.03,17.74 C163.943333,17.6066667 163.806667,17.54 163.62,17.54 L163.62,17.54 L162.4,17.54 L162.4,15.58 C162.4,15.1933333 162.113333,15 161.54,15 L161.54,15 L161.06,15 C160.513333,15 160.206667,15.1933333 160.14,15.58 L160.14,15.58 L159.88,17.54 L159.34,17.54 C159.153333,17.54 159.016667,17.6066667 158.93,17.74 C158.843333,17.8733333 158.8,18.0933333 158.8,18.4 L158.8,18.4 L158.8,18.7 C158.8,19.0066667 158.843333,19.2266667 158.93,19.36 C159.016667,19.4933333 159.153333,19.56 159.34,19.56 L159.34,19.56 L159.88,19.56 L159.88,25.08 C159.88,26.1333333 160.136667,26.9066667 160.65,27.4 C161.163333,27.8933333 161.846667,28.14 162.7,28.14 Z" id="Regelsopdekaart" fill="#275937" fill-rule="nonzero"></path>
    </g>
</svg>