<svg viewBox="0 0 296 87" xmlns="http://www.w3.org/2000/svg" fill-rule="evenodd" clip-rule="evenodd" stroke-linejoin="round" stroke-miterlimit="1.414"><path d="M84.158 18.69l5.144 17.666h-4.04l-.969-3.797h-5.979l-.969 3.797H73.71l5.17-17.666h5.278zm-.592 11.095l-2.181-8.187h-.189l-2.181 8.187h4.55zm17.962-2.155v8.726h-3.07v-.835a5.822 5.822 0 01-1.67.754c-.591.162-1.283.242-2.073.242-1.383 0-2.433-.35-3.16-1.041-.727-.691-1.086-1.589-1.086-2.71 0-1.258.485-2.281 1.463-3.071.979-.79 2.523-1.185 4.623-1.185.341 0 .665.01.97.018.304.01.583.01.834.01v-.593c0-.683-.224-1.212-.664-1.59-.44-.376-1.211-.565-2.298-.565-.646 0-1.257.063-1.831.189a12.5 12.5 0 00-1.94.619l-.43-2.774a13.637 13.637 0 012.379-.754c.763-.161 1.57-.242 2.433-.242 1.876 0 3.276.413 4.174 1.257.897.843 1.346 2.02 1.346 3.545zm-7.702 4.875c0 .449.161.799.494 1.05.332.251.799.377 1.382.377a5.45 5.45 0 001.374-.153 6.861 6.861 0 001.266-.44v-2.45a21.026 21.026 0 00-.853-.036c-.315-.009-.602-.018-.845-.018-1.005 0-1.731.153-2.171.458-.431.305-.647.709-.647 1.212zm19.229 3.85v-8.051c0-.88-.199-1.5-.593-1.867-.395-.369-.97-.548-1.724-.548a8.14 8.14 0 00-1.212.09c-.359.063-.762.17-1.211.34v10.046h-3.313V23.079l3.205-.134v.996a6.228 6.228 0 011.696-.844 6.23 6.23 0 011.832-.26c1.436 0 2.567.413 3.393 1.23.825.817 1.239 2.002 1.239 3.537v8.752h-3.312zm23.59-18.823v18.824h-3.205v-.916a5.813 5.813 0 01-1.579.799 6.073 6.073 0 01-1.868.278c-1.67 0-3.007-.556-4.022-1.66-1.014-1.105-1.516-2.73-1.516-4.884 0-2.19.673-3.931 2.019-5.215 1.347-1.284 3.025-1.93 5.036-1.93.323 0 .638.018.934.036.296.027.593.08.898.152v-5.332l3.303-.152zm-5.09 8.105c-1.131 0-2.038.378-2.72 1.123-.682.745-1.023 1.76-1.023 3.052 0 1.364.296 2.352.897 2.953.602.601 1.365.898 2.298.898.449 0 .845-.036 1.185-.117a6.4 6.4 0 001.158-.422v-7.352c-.304-.036-.601-.072-.88-.09-.278-.017-.574-.044-.915-.044zm7.999 4.067c0-2.262.592-3.986 1.785-5.17 1.194-1.185 2.64-1.778 4.318-1.778 1.634 0 2.935.485 3.905 1.454.969.97 1.455 2.307 1.455 4.013 0 .449-.009.898-.028 1.328-.018.44-.044.808-.08 1.096h-8.187c.197 1.059.628 1.84 1.292 2.342.665.503 1.59.755 2.775.755.754 0 1.418-.045 1.992-.153a14.884 14.884 0 001.831-.44v2.693a20.01 20.01 0 01-1.992.494c-.611.117-1.365.18-2.262.18-2.083 0-3.744-.566-4.973-1.688-1.222-1.122-1.831-2.828-1.831-5.126zm3.177-1.427h5.116c0-.88-.223-1.598-.655-2.155-.44-.556-1.032-.834-1.759-.834-.683 0-1.275.26-1.768.762-.503.512-.808 1.257-.934 2.227zm15.781 7.89v-2.854a14.69 14.69 0 001.939.35c.646.072 1.266.107 1.858.107.933 0 1.571-.116 1.93-.34.35-.225.521-.512.521-.88a.984.984 0 00-.341-.763c-.224-.207-.673-.404-1.365-.602l-1.696-.511c-.916-.27-1.625-.692-2.128-1.275-.503-.584-.754-1.347-.754-2.298 0-1.239.503-2.262 1.508-3.061 1.006-.8 2.415-1.194 4.228-1.194.61 0 1.194.027 1.768.08.566.055 1.069.117 1.518.19l-.189 2.773c-.592-.09-1.14-.153-1.651-.206a18.182 18.182 0 00-1.599-.072c-.808 0-1.382.107-1.741.323-.359.215-.539.476-.539.78 0 .288.081.53.252.719.171.188.574.377 1.22.547l1.581.431c1.157.324 1.983.79 2.477 1.383.494.601.737 1.355.737 2.253 0 1.4-.504 2.495-1.518 3.285s-2.405 1.185-4.165 1.185c-.736 0-1.436-.027-2.109-.08a10.65 10.65 0 01-1.742-.27zm15.646-18.635v18.824h-3.312V17.693l3.312-.161zm13.734 10.098v8.726h-3.069v-.835a5.831 5.831 0 01-1.671.754c-.592.162-1.283.242-2.073.242-1.382 0-2.433-.35-3.169-1.041-.727-.691-1.086-1.589-1.086-2.71 0-1.258.485-2.281 1.472-3.071.979-.79 2.514-1.185 4.615-1.185.341 0 .664.01.969.018.305.01.584.01.834.01v-.593c0-.683-.224-1.212-.655-1.59-.439-.376-1.211-.565-2.307-.565a8.55 8.55 0 00-1.831.189c-.574.125-1.22.332-1.939.619l-.431-2.774a13.647 13.647 0 012.379-.754 11.704 11.704 0 012.433-.242c1.876 0 3.277.413 4.174 1.257.898.834 1.355 2.02 1.355 3.545zm-7.702 4.875c0 .449.162.799.504 1.05.331.251.789.377 1.382.377.502 0 .96-.045 1.373-.153a6.833 6.833 0 001.265-.44v-2.45c-.25-.018-.529-.027-.843-.036-.314-.009-.601-.018-.853-.018-1.005 0-1.723.153-2.172.458-.44.305-.656.709-.656 1.212zm13.52.269c0 .287.125.52.386.691.26.17.709.26 1.355.26l3.096.027c1.509.018 2.604.315 3.286.88.683.566 1.023 1.365 1.023 2.388 0 1.275-.565 2.36-1.696 3.276-1.131.907-2.926 1.356-5.386 1.356-1.939 0-3.376-.305-4.327-.934-.942-.619-1.409-1.436-1.409-2.468 0-.629.189-1.194.575-1.715.385-.511.906-.888 1.57-1.14v-.08a1.71 1.71 0 01-.843-.674 1.978 1.978 0 01-.342-1.158c0-.43.144-.835.432-1.212.287-.377.681-.664 1.185-.861v-.081a3.722 3.722 0 01-1.527-1.338c-.386-.583-.574-1.292-.574-2.136 0-1.58.52-2.81 1.571-3.69 1.05-.88 2.414-1.32 4.111-1.32.377 0 .736.028 1.078.082.34.053.681.125 1.023.215h4.381v2.154h-2.101v.081c.287.18.556.476.789.889.243.413.368.925.368 1.535 0 1.4-.493 2.487-1.481 3.259-.987.771-2.414 1.158-4.282 1.158-.287 0-.574-.019-.87-.054a6.24 6.24 0 01-.853-.162.838.838 0 00-.386.341.682.682 0 00-.152.431zm-.701 4.776c0 .52.252.942.754 1.247.503.306 1.266.467 2.289.467 1.4 0 2.397-.162 2.99-.494.592-.323.889-.736.889-1.22 0-.377-.144-.674-.414-.88-.278-.207-.727-.323-1.338-.341l-4.497-.135a1.695 1.695 0 00-.493.584c-.126.224-.18.484-.18.772zm3.151-7.496c.825 0 1.463-.206 1.903-.62.44-.412.664-1.059.664-1.938 0-.772-.206-1.356-.619-1.76-.413-.404-1.051-.601-1.912-.601-.754 0-1.373.206-1.84.628-.476.422-.718 1.068-.718 1.93 0 .808.224 1.41.664 1.796.422.368 1.051.565 1.858.565zm30.162 6.302v-7.998c0-.88-.198-1.509-.593-1.895-.395-.386-.96-.583-1.696-.583-.449 0-.836.027-1.158.08-.324.055-.71.171-1.159.35v10.046h-3.312v-7.998c0-.898-.206-1.535-.611-1.913-.403-.377-.969-.565-1.687-.565a7.25 7.25 0 00-1.185.09c-.323.063-.7.17-1.131.34v10.046h-3.312V23.079l3.205-.134v.996c.61-.395 1.175-.673 1.705-.844.53-.17 1.122-.26 1.796-.26.861 0 1.579.125 2.153.377.576.251 1.069.62 1.481 1.104a7.641 7.641 0 011.958-1.086 6.308 6.308 0 012.244-.395c1.454 0 2.586.413 3.393 1.239.808.825 1.212 2.01 1.212 3.554v8.726h-3.303zm6.005-6.652c0-2.262.593-3.986 1.796-5.17 1.193-1.185 2.629-1.778 4.317-1.778 1.634 0 2.936.485 3.905 1.454.969.97 1.454 2.307 1.454 4.013 0 .449-.009.898-.027 1.328-.018.44-.045.808-.081 1.096h-8.186c.197 1.059.628 1.84 1.292 2.342.664.503 1.589.755 2.774.755.754 0 1.419-.045 1.993-.153a14.927 14.927 0 001.831-.44v2.693c-.718.215-1.382.377-1.993.494-.611.117-1.364.18-2.262.18-2.082 0-3.743-.566-4.973-1.688-1.229-1.122-1.84-2.828-1.84-5.126zm3.178-1.427h5.117c0-.88-.225-1.598-.665-2.155-.439-.556-1.032-.834-1.759-.834-.682 0-1.275.26-1.76.762-.503.512-.808 1.257-.933 2.227zm10.018-2.774v-2.505h1.616v-2.45l3.312-.27v2.72h3.366v2.505h-3.366v6.014c0 .736.188 1.275.556 1.625.368.35.853.52 1.446.52.305 0 .574-.017.826-.053a8.35 8.35 0 00.87-.189v2.774c-.467.126-.898.207-1.301.26-.395.045-.862.072-1.409.072-1.303 0-2.344-.377-3.124-1.13-.782-.755-1.176-1.886-1.176-3.394v-6.49h-1.616v-.01zm27.657-7.971v18.824h-3.205v-.916a5.88 5.88 0 01-1.571.799 6.022 6.022 0 01-1.867.278c-1.67 0-3.017-.556-4.031-1.66-1.014-1.105-1.516-2.73-1.516-4.884 0-2.19.672-3.931 2.019-5.215 1.347-1.284 3.025-1.93 5.036-1.93.323 0 .638.018.934.036.296.027.601.08.897.152v-5.332l3.304-.152zm-5.09 8.105c-1.131 0-2.038.378-2.72 1.123-.682.745-1.024 1.76-1.024 3.052 0 1.364.297 2.352.898 2.953.602.601 1.365.898 2.298.898.449 0 .845-.036 1.185-.117a6.4 6.4 0 001.158-.422v-7.352c-.305-.036-.602-.072-.871-.09a7.3 7.3 0 00-.924-.044zm7.999 4.067c0-2.262.592-3.986 1.794-5.17 1.194-1.185 2.631-1.778 4.318-1.778 1.634 0 2.935.485 3.905 1.454.969.97 1.454 2.307 1.454 4.013 0 .449-.008.898-.027 1.328-.018.44-.045.808-.08 1.096h-8.187c.197 1.059.628 1.84 1.292 2.342.665.503 1.59.755 2.775.755.753 0 1.417-.045 1.992-.153a14.884 14.884 0 001.831-.44v2.693a20.01 20.01 0 01-1.992.494c-.611.117-1.365.18-2.263.18-2.082 0-3.743-.566-4.972-1.688-1.231-1.122-1.84-2.828-1.84-5.126zm3.177-1.427h5.116c0-.88-.224-1.598-.664-2.155-.44-.556-1.032-.834-1.759-.834-.683 0-1.275.26-1.76.762-.502.512-.807 1.257-.933 2.227z" fill="#275937" fill-rule="nonzero"/><path d="M74.68 54.614c0-2.998.86-5.287 2.593-6.867s3.752-2.37 6.06-2.37c2.28 0 4.219.727 5.834 2.182 1.616 1.454 2.424 3.698 2.424 6.732 0 2.998-.853 5.287-2.567 6.867-1.715 1.58-3.726 2.37-6.033 2.37-2.298 0-4.255-.727-5.87-2.181-1.616-1.455-2.442-3.699-2.442-6.733zm3.661-.296c0 2.19.476 3.752 1.419 4.686.942.933 2.073 1.4 3.393 1.4 1.185 0 2.28-.458 3.285-1.373.997-.916 1.5-2.397 1.5-4.444 0-2.19-.467-3.752-1.4-4.695-.934-.942-2.066-1.418-3.376-1.418-1.22 0-2.334.458-3.321 1.383-1.006.933-1.5 2.414-1.5 4.461zm32.209 8.968v-7.999c0-.88-.198-1.508-.592-1.903-.396-.386-.961-.574-1.698-.574-.448 0-.834.027-1.157.08-.324.054-.709.171-1.158.35v10.046h-3.312v-7.999c0-.897-.207-1.535-.602-1.912-.404-.377-.969-.565-1.688-.565-.466 0-.862.036-1.184.09-.324.063-.701.18-1.131.34v10.046h-3.314V50.009l3.205-.135v.997c.61-.395 1.176-.673 1.715-.853a5.8 5.8 0 011.787-.26c.861 0 1.58.125 2.154.377.574.251 1.068.62 1.481 1.104a7.604 7.604 0 011.948-1.086 6.318 6.318 0 012.253-.395c1.454 0 2.585.413 3.393 1.239.808.825 1.212 2.01 1.212 3.554v8.726h-3.312v.009zm9.103-3.582c0 .287.134.52.394.682.261.17.71.26 1.365.26l3.097.027c1.508.018 2.603.306 3.284.871.683.566 1.025 1.365 1.025 2.388 0 1.275-.567 2.36-1.697 3.276-1.131.907-2.927 1.356-5.387 1.356-1.938 0-3.384-.305-4.317-.934-.943-.619-1.418-1.436-1.418-2.468 0-.629.188-1.194.583-1.715.386-.512.916-.889 1.58-1.14v-.08a1.773 1.773 0 01-.853-.674 1.985 1.985 0 01-.341-1.158c0-.43.144-.835.431-1.212.287-.377.682-.664 1.185-.861v-.081a3.713 3.713 0 01-1.526-1.338c-.386-.583-.584-1.292-.584-2.136 0-1.58.521-2.81 1.58-3.69 1.051-.88 2.414-1.32 4.103-1.32.377 0 .736.028 1.077.082.341.053.682.125 1.023.215h4.362v2.154h-2.1v.081c.288.18.557.476.799.889.243.413.359.925.359 1.535 0 1.4-.493 2.486-1.481 3.258-.988.773-2.414 1.159-4.282 1.159-.287 0-.583-.019-.879-.054a5.875 5.875 0 01-.845-.162.904.904 0 00-.394.341.822.822 0 00-.143.449zm-.701 4.776c0 .52.252.942.754 1.247.503.305 1.266.458 2.289.458 1.4 0 2.396-.162 2.989-.485.592-.323.888-.736.888-1.22 0-.377-.143-.674-.412-.88-.278-.207-.727-.323-1.338-.341l-4.497-.135c-.215.162-.386.36-.502.584a1.641 1.641 0 00-.171.772zm3.15-7.496c.826 0 1.464-.206 1.904-.62.44-.412.655-1.059.655-1.938 0-.772-.206-1.356-.62-1.76-.412-.404-1.05-.601-1.911-.601-.755 0-1.373.206-1.85.628-.476.422-.708 1.069-.708 1.93 0 .808.215 1.41.655 1.796.44.367 1.067.565 1.875.565zm8.188-.35c0-2.262.592-3.986 1.786-5.17 1.193-1.185 2.639-1.778 4.317-1.778 1.634 0 2.936.485 3.906 1.454.968.97 1.454 2.307 1.454 4.013 0 .449-.009.897-.028 1.337-.018.44-.044.808-.08 1.087h-8.178c.197 1.059.628 1.84 1.292 2.342.665.503 1.59.754 2.775.754.754 0 1.418-.044 1.992-.152a13.521 13.521 0 001.831-.449v2.693a19.98 19.98 0 01-1.992.494c-.611.116-1.364.18-2.262.18-2.083 0-3.744-.566-4.973-1.688-1.23-1.113-1.84-2.819-1.84-5.117zm3.177-1.427h5.117c0-.88-.224-1.598-.655-2.155-.441-.556-1.033-.835-1.76-.835-.682 0-1.274.26-1.769.764-.502.511-.807 1.256-.933 2.226zm13.546 8.079l-4.174-13.358h3.797l2.72 10.8h.215l2.693-10.8h3.447l-4.12 13.358h-4.578zm10.314-16.993c0-.503.161-.943.494-1.32.332-.377.808-.565 1.419-.565.609 0 1.076.18 1.409.538.332.36.502.808.502 1.347 0 .485-.17.915-.502 1.284-.333.367-.809.547-1.409.547-.611 0-1.087-.17-1.419-.52-.333-.36-.494-.79-.494-1.311zm3.582 3.581v13.412h-3.312V50.009l3.312-.135zm11.715 13.412v-8.052c0-.88-.199-1.5-.593-1.867-.395-.369-.969-.548-1.724-.548-.449 0-.852.036-1.212.09-.359.063-.762.18-1.211.34v10.046h-3.313V50.009l3.205-.135v.997a6.538 6.538 0 011.696-.853 6.23 6.23 0 011.832-.26c1.436 0 2.567.413 3.393 1.23.826.816 1.239 2.001 1.239 3.545v8.753h-3.312zm9.102-3.582c0 .287.125.52.385.682.261.17.71.26 1.356.26l3.097.027c1.508.018 2.603.306 3.286.871.682.566 1.023 1.365 1.023 2.388 0 1.275-.565 2.36-1.697 3.276-1.131.907-2.926 1.356-5.386 1.356-1.939 0-3.375-.305-4.327-.934-.942-.619-1.409-1.436-1.409-2.468 0-.629.189-1.194.575-1.715.385-.512.906-.889 1.57-1.14v-.08a1.713 1.713 0 01-.843-.674 1.986 1.986 0 01-.342-1.158c0-.43.144-.835.431-1.212.288-.377.682-.664 1.185-.861v-.081a3.726 3.726 0 01-1.526-1.338c-.386-.583-.574-1.292-.574-2.136 0-1.58.521-2.81 1.571-3.69 1.05-.88 2.415-1.32 4.111-1.32.377 0 .736.028 1.078.082.34.053.681.125 1.023.215h4.363v2.154h-2.101v.081c.287.18.557.476.789.889.243.413.368.925.368 1.535 0 1.4-.493 2.486-1.481 3.258-.987.773-2.414 1.159-4.282 1.159-.287 0-.574-.019-.87-.054a6.226 6.226 0 01-.852-.162.84.84 0 00-.387.341.887.887 0 00-.134.449zm-.701 4.776c0 .52.252.942.754 1.247.503.305 1.266.458 2.289.458 1.401 0 2.398-.162 2.99-.485.593-.323.889-.736.889-1.22 0-.377-.144-.674-.414-.88-.278-.207-.727-.323-1.337-.341l-4.497-.135c-.216.162-.378.36-.494.584-.126.224-.18.484-.18.772zm3.152-7.496c.825 0 1.463-.206 1.902-.62.44-.412.665-1.059.665-1.938 0-.772-.207-1.356-.62-1.76-.413-.404-1.051-.601-1.912-.601-.754 0-1.373.206-1.84.628-.476.422-.718 1.069-.718 1.93 0 .808.225 1.41.664 1.796.44.386 1.05.565 1.859.565z" fill="#39870c" fill-rule="nonzero"/><path d="M192.363 63.097v-2.854a14.63 14.63 0 001.939.35c.646.071 1.266.107 1.858.107.934 0 1.571-.116 1.93-.34.35-.225.521-.521.521-.88a.981.981 0 00-.342-.763c-.224-.198-.673-.413-1.363-.602l-1.698-.512c-.915-.269-1.625-.7-2.127-1.274-.503-.584-.754-1.347-.754-2.307 0-1.239.503-2.253 1.508-3.061 1.005-.8 2.414-1.194 4.228-1.194.611 0 1.194.027 1.768.08.566.054 1.069.117 1.518.19l-.189 2.773c-.593-.09-1.14-.153-1.652-.207a18.197 18.197 0 00-1.598-.071c-.807 0-1.382.107-1.741.323-.359.215-.538.476-.538.78 0 .288.08.521.25.71.171.188.576.377 1.222.556l1.58.431c1.158.323 1.984.79 2.477 1.383.493.601.736 1.355.736 2.253 0 1.4-.502 2.495-1.517 3.285s-2.406 1.185-4.165 1.185c-.736 0-1.437-.027-2.11-.08a10.057 10.057 0 01-1.741-.26zm30.457-13.169l-3.446 13.358h-4.471l-1.938-7.298h-.081l-2.263 7.298h-4.282l-3.393-13.358h3.798l2.019 10.772h.134l2.694-8.294-.674-2.478h3.286l2.935 10.772h.135l2.101-10.772h3.446zm1.185 6.706c0-2.262.593-3.986 1.796-5.17 1.194-1.185 2.631-1.778 4.318-1.778 1.634 0 2.935.485 3.905 1.454.969.97 1.453 2.307 1.453 4.013 0 .449-.009.897-.026 1.337-.018.44-.045.808-.081 1.087h-8.187c.198 1.059.629 1.84 1.293 2.342.664.503 1.588.754 2.773.754.755 0 1.419-.044 1.994-.152a13.594 13.594 0 001.831-.449v2.693c-.719.215-1.383.377-1.993.494-.61.116-1.365.18-2.262.18-2.083 0-3.743-.566-4.974-1.688-1.229-1.122-1.84-2.819-1.84-5.117zm3.178-1.427h5.117c0-.88-.225-1.598-.664-2.155-.44-.556-1.033-.835-1.76-.835-.682 0-1.275.26-1.759.764-.502.511-.808 1.256-.934 2.226zm10.018-2.774v-2.505h1.616v-2.45l3.312-.27v2.72h3.367v2.505h-3.367v6.014c0 .736.189 1.275.557 1.625.368.35.852.52 1.445.52.305 0 .575-.017.826-.053a8.16 8.16 0 00.87-.189v2.774a8.695 8.695 0 01-1.301.26c-.404.045-.861.072-1.409.072-1.301 0-2.343-.377-3.124-1.13-.781-.755-1.176-1.886-1.176-3.394v-6.49h-1.616v-.01z" fill="#275937" fill-rule="nonzero"/><circle cx="27.048" cy="42.778" fill="#39870c" r="26.073"/><circle cx="27.048" cy="42.778" fill="#275937" r="17.955"/><circle cx="27.048" cy="42.778" fill="#e17000" r="9.486"/></svg>