<svg xmlns="http://www.w3.org/2000/svg" width="254" height="72"><g fill="none" fill-rule="nonzero"><path fill="#80BC00" d="M24 0C10.72 0 0 10.72 0 24s10.72 24 24 24 24-10.72 24-24C47.905 10.72 37.186 0 24 0z"/><path fill="#275937" d="M24 8C15.121 8 8 15.121 8 24s7.121 16 16 16c8.786 0 16-7.121 16-16S32.786 8 24 8z"/><path fill="#E17000" d="M24 32c4.404 0 8-3.596 8-8s-3.596-8-8-8-8 3.596-8 8c0 4.494 3.596 8 8 8z"/><path fill="#666" d="M70.58 67c1.867 0 3.363-.553 4.49-1.66 1.127-1.107 1.69-2.887 1.69-5.34 0-2.44-.563-4.217-1.69-5.33-1.127-1.113-2.623-1.67-4.49-1.67h-4.04c-.213 0-.367.047-.46.14-.093.093-.14.247-.14.46v12.8c0 .213.047.367.14.46.093.093.247.14.46.14h4.04zm-.14-1.52H67.7V54.52h2.74c1.347 0 2.433.443 3.26 1.33s1.24 2.27 1.24 4.15c0 1.893-.413 3.28-1.24 4.16-.827.88-1.913 1.32-3.26 1.32zm12.34 1.64c1.36 0 2.44-.347 3.24-1.04.8-.693 1.2-1.64 1.2-2.84 0-.84-.177-1.53-.53-2.07a3.746 3.746 0 00-1.29-1.24c-.507-.287-1.16-.583-1.96-.89-.747-.293-1.27-.51-1.57-.65-.3-.14-.567-.35-.8-.63-.233-.28-.35-.647-.35-1.1 0-.707.237-1.26.71-1.66.473-.4 1.097-.6 1.87-.6.72 0 1.413.173 2.08.52.04.027.123.073.25.14.127.067.223.1.29.1.093 0 .223-.14.39-.42.167-.28.25-.493.25-.64 0-.187-.133-.36-.4-.52-.307-.213-.74-.383-1.3-.51a6.952 6.952 0 00-1.52-.19c-.88 0-1.657.157-2.33.47-.673.313-1.193.75-1.56 1.31s-.55 1.2-.55 1.92c0 .813.16 1.47.48 1.97.32.5.707.877 1.16 1.13.453.253 1.067.533 1.84.84.72.28 1.27.517 1.65.71.38.193.703.453.97.78s.4.737.4 1.23c0 .707-.243 1.277-.73 1.71-.487.433-1.117.65-1.89.65-.653 0-1.217-.08-1.69-.24a8.261 8.261 0 01-1.33-.58c-.227-.133-.367-.2-.42-.2-.107 0-.25.14-.43.42-.18.28-.27.5-.27.66 0 .147.127.313.38.5.347.267.86.493 1.54.68.68.187 1.42.28 2.22.28zm12.42 0c2.013 0 3.547-.61 4.6-1.83 1.053-1.22 1.58-2.997 1.58-5.33s-.527-4.097-1.58-5.29c-1.053-1.193-2.587-1.79-4.6-1.79-2.013 0-3.543.597-4.59 1.79-1.047 1.193-1.57 2.957-1.57 5.29s.527 4.11 1.58 5.33c1.053 1.22 2.58 1.83 4.58 1.83zm0-1.52c-1.413 0-2.49-.48-3.23-1.44-.74-.96-1.11-2.36-1.11-4.2 0-1.827.37-3.21 1.11-4.15.74-.94 1.817-1.41 3.23-1.41s2.493.47 3.24 1.41c.747.94 1.12 2.323 1.12 4.15 0 1.84-.373 3.24-1.12 4.2-.747.96-1.827 1.44-3.24 1.44zm17.72 1.44c.533 0 .8-.147.8-.44V54.52h3.78c.147 0 .25-.047.31-.14.06-.093.09-.247.09-.46v-.32c0-.213-.03-.367-.09-.46-.06-.093-.163-.14-.31-.14h-9.38c-.133 0-.233.047-.3.14-.067.093-.1.247-.1.46v.32c0 .213.033.367.1.46.067.093.167.14.3.14h3.84V66.6c0 .293.267.44.8.44h.16zm10.62.08c1.493 0 2.623-.45 3.39-1.35.767-.9 1.15-2.217 1.15-3.95 0-1.747-.39-3.083-1.17-4.01-.78-.927-1.903-1.39-3.37-1.39-1.493 0-2.64.467-3.44 1.4-.8.933-1.2 2.267-1.2 4 0 1.72.397 3.033 1.19 3.94.793.907 1.943 1.36 3.45 1.36zm-.06-1.44c-.973 0-1.687-.317-2.14-.95-.453-.633-.68-1.617-.68-2.95 0-1.347.227-2.337.68-2.97.453-.633 1.167-.95 2.14-.95.973 0 1.693.32 2.16.96.467.64.7 1.627.7 2.96s-.233 2.317-.7 2.95c-.467.633-1.187.95-2.16.95zm11.44 1.44c1.493 0 2.623-.45 3.39-1.35.767-.9 1.15-2.217 1.15-3.95 0-1.747-.39-3.083-1.17-4.01-.78-.927-1.903-1.39-3.37-1.39-1.493 0-2.64.467-3.44 1.4-.8.933-1.2 2.267-1.2 4 0 1.72.397 3.033 1.19 3.94.793.907 1.943 1.36 3.45 1.36zm-.06-1.44c-.973 0-1.687-.317-2.14-.95-.453-.633-.68-1.617-.68-2.95 0-1.347.227-2.337.68-2.97.453-.633 1.167-.95 2.14-.95.973 0 1.693.32 2.16.96.467.64.7 1.627.7 2.96s-.233 2.317-.7 2.95c-.467.633-1.187.95-2.16.95zm9.92 1.44c.973 0 1.46-.2 1.46-.6 0-.133-.04-.323-.12-.57-.08-.247-.18-.37-.3-.37-.067 0-.163.017-.29.05a2.41 2.41 0 01-.57.05c-.333 0-.597-.107-.79-.32-.193-.213-.29-.6-.29-1.16V52.4c0-.293-.267-.44-.8-.44H143c-.533 0-.8.147-.8.44v11.96c0 1.027.263 1.743.79 2.15.527.407 1.123.61 1.79.61zm4.48-.08c.533 0 .8-.147.8-.44v-4.56h.08l4 4.74a.683.683 0 00.4.21c.173.033.4.05.68.05h.08c.32 0 .547-.02.68-.06.133-.04.2-.113.2-.22 0-.08-.06-.187-.18-.32l-4.12-4.88 3.72-4.4c.133-.147.2-.28.2-.4 0-.08-.06-.143-.18-.19-.12-.047-.293-.07-.52-.07h-.08c-.56 0-.913.093-1.06.28l-3.82 4.56h-.08V52.4c0-.293-.267-.44-.8-.44h-.08c-.533 0-.8.147-.8.44v14.2c0 .293.267.44.8.44h.08zm10.28-12.36c.64 0 .96-.16.96-.48v-1.12c0-.32-.293-.48-.88-.48-.64 0-.96.16-.96.48v1.12c0 .32.293.48.88.48zm.08 12.36c.533 0 .8-.147.8-.44v-9.66c0-.293-.267-.44-.8-.44h-.08c-.533 0-.8.147-.8.44v9.66c0 .293.267.44.8.44h.08zm7.32.08c.973 0 1.46-.2 1.46-.6 0-.133-.04-.323-.12-.57-.08-.247-.18-.37-.3-.37-.067 0-.163.017-.29.05a2.41 2.41 0 01-.57.05c-.333 0-.597-.107-.79-.32-.193-.213-.29-.6-.29-1.16v-6.22h1.68c.147 0 .25-.047.31-.14.06-.093.09-.247.09-.46v-.24c0-.213-.03-.367-.09-.46-.06-.093-.163-.14-.31-.14h-1.68v-2.1c0-.293-.2-.44-.6-.44h-.2c-.387 0-.6.147-.64.44l-.24 2.1h-1c-.133 0-.233.047-.3.14-.067.093-.1.247-.1.46v.24c0 .213.033.367.1.46.067.093.167.14.3.14h1v6.38c0 1.027.263 1.743.79 2.15.527.407 1.123.61 1.79.61z"/><path fill="#39870C" d="M72.275 13.25c-2.726 0-4.77.77-6.133 2.404C64.779 17.192 64 19.596 64 22.577c0 2.98.681 5.385 2.142 6.923 1.46 1.635 3.505 2.404 6.133 2.404 2.629 0 4.77-.866 6.133-2.404 1.363-1.635 2.142-3.942 2.142-6.923 0-2.98-.681-5.385-2.142-6.923-1.362-1.635-3.407-2.404-6.133-2.404zm5.063 9.327c0 2.211-.487 3.846-1.363 4.904-.877 1.057-2.045 1.634-3.7 1.634-1.655 0-2.823-.48-3.7-1.634-.876-1.154-1.265-2.789-1.265-4.904 0-2.212.39-3.846 1.266-4.904.876-1.058 2.044-1.538 3.7-1.538 1.654 0 2.822.48 3.699 1.538.876 1.058 1.363 2.692 1.363 4.904zm22.878-4.135c-.876-.577-1.753-.769-2.823-.769-1.46 0-2.726.577-3.895 1.73-.778-1.153-1.947-1.73-3.7-1.73-1.362 0-2.53.48-3.601 1.442v-.096c0-.192-.098-.288-.098-.384-.194-.193-.292-.289-.292-.385-.097-.096-.194-.192-.389-.288-.292-.097-.681-.193-1.46.096-.682.192-.78.673-.78.865 0 .096 0 .096.196 1.058.097.384.097 1.057.097 2.115v8.75c0 .289.097 1.058 1.558 1.058 1.363 0 1.46-.673 1.46-1.058v-8.942l.292-.289c.195-.288.487-.48.973-.769.877-.48 2.142-.577 2.824.096.292.385.487.77.487 1.443v8.461c0 .289.097 1.058 1.557 1.058 1.363 0 1.46-.673 1.46-1.058v-8.654-.384c.877-.962 1.753-1.443 2.63-1.443.68 0 1.167.193 1.46.481.291.385.486.866.486 1.442v8.462c0 .288.098 1.058 1.558 1.058 1.363 0 1.46-.673 1.46-1.058v-8.654c0-.865-.097-1.634-.39-2.211-.194-.577-.583-1.154-1.07-1.443zm15.966-.673h-4.284a9.761 9.761 0 00-1.752-.192c-1.752 0-3.115.48-4.089 1.346-.973.865-1.46 2.02-1.46 3.462 0 .865.195 1.73.681 2.403.292.481.682.866 1.071 1.25-1.07.674-1.363 1.443-1.363 2.116 0 .577.195 1.346.974 2.02-1.46.768-2.24 1.826-2.24 3.076 0 1.346.585 2.404 1.753 2.98 1.07.578 2.531.77 4.576.77 1.947 0 3.602-.385 4.77-1.154 1.266-.865 1.85-1.923 1.85-3.173 0-1.058-.39-1.923-1.071-2.5-.682-.577-1.46-1.058-2.337-1.25-.876-.192-1.752-.288-2.53-.48-.78-.097-1.461-.193-2.045-.385-.292-.096-.584-.193-.584-.289 0-.288.681-.48 1.655-.577h.292c1.752 0 3.115-.48 4.089-1.346.973-.865 1.46-2.02 1.46-3.461 0-.673-.097-1.347-.39-1.923h.877c.194 0 .973-.097.973-1.25v-.289c.098-1.058-.681-1.154-.876-1.154zm-6.036 6.635c-1.655 0-2.336-.673-2.336-2.02 0-1.442.681-2.019 2.336-2.019 1.655 0 2.337.673 2.337 2.02.097 1.442-.682 2.019-2.337 2.019zm2.629 9.423c-.585.385-1.46.48-2.532.48-1.557 0-3.31-.192-3.31-1.25 0-.384.195-.672.584-.96a5.826 5.826 0 011.46-.866c.195 0 .585.096.974.192 1.558.192 2.726.48 3.31.77.195.095.292.288.292.576 0 .193 0 .577-.778 1.058zm17.231-8.27c.292-.384.39-.672.39-.865 0-5.769-3.213-7.019-5.842-7.019-1.947 0-3.504.673-4.575 1.923-1.071 1.25-1.655 3.077-1.655 5.385 0 2.307.584 4.134 1.655 5.288 1.07 1.154 2.823 1.731 5.062 1.731 1.266 0 2.337-.192 3.31-.577.78-.288 1.655-.77 1.655-1.442 0-.289-.097-.577-.39-.962-.194-.288-.486-.769-.973-.769-.097 0-.194 0-.778.288-.877.481-1.85.77-2.921.77-1.071 0-1.947-.289-2.434-.866-.487-.48-.779-1.25-.876-2.211h7.496c.39-.096.779-.577.876-.673zm-8.372-2.21c.39-2.693 1.85-2.982 3.018-2.982 1.07 0 2.434.289 2.531 2.981h-5.55zm20.347-5.578c-.292 0-1.363 0-1.558.77l-2.92 8.75-2.921-8.75c-.195-.481-.681-.77-1.46-.77h-.195c-1.07 0-1.558.289-1.558.866 0 .096 0 .288.098.48l4.089 12.02c.194.48.681.769 1.46.769h.876c.779 0 1.363-.289 1.46-.77l4.09-12.019c.097-.192.097-.384.097-.48-.098-.385-.39-.866-1.558-.866zm5.062 0c-1.363 0-1.46.673-1.46 1.058v12.02c0 .288.097 1.057 1.558 1.057 1.363 0 1.46-.673 1.46-1.058V18.731c0-.289-.195-.962-1.558-.962zm.195-5.673h-.292c-1.363 0-1.46.673-1.46 1.058v1.442c0 .289.097 1.058 1.46 1.058h.292c1.363 0 1.46-.673 1.46-1.058v-1.442c0-.385-.194-1.058-1.46-1.058zm11.293 5.577c-1.265 0-2.434.48-3.505 1.442v-.096c0-.192-.097-.288-.097-.384-.097-.097-.097-.193-.195-.289-.097-.096-.194-.192-.389-.288-.292-.096-.682-.193-1.46.096-.682.192-.877.673-.877.865 0 .096 0 .096.195 1.058.098.385.098 1.058.098 2.115v8.75c0 .289.097 1.058 1.557 1.058 1.363 0 1.46-.673 1.46-1.058V22c.78-.962 1.656-1.442 2.726-1.442.682 0 1.266.192 1.558.48.39.289.487.77.487 1.443v8.461c0 .289.097 1.058 1.558 1.058 1.363 0 1.46-.673 1.46-1.058v-8.654c0-1.346-.39-2.5-1.266-3.269-.681-.961-1.85-1.346-3.31-1.346zm19.18.096h-4.285a9.761 9.761 0 00-1.752-.192c-1.752 0-3.115.48-4.089 1.346-.973.865-1.46 2.02-1.46 3.462 0 .865.195 1.73.681 2.403.292.481.682.866 1.071 1.25-1.07.674-1.363 1.443-1.363 2.116 0 .577.195 1.346.974 2.02-1.46.768-2.24 1.826-2.24 3.076 0 1.346.585 2.404 1.753 2.98 1.071.578 2.531.77 4.576.77 1.947 0 3.602-.385 4.77-1.154 1.266-.865 1.85-1.923 1.85-3.173 0-1.058-.39-1.923-1.071-2.5-.682-.577-1.46-1.058-2.337-1.25-.876-.192-1.655-.288-2.53-.48-.78-.097-1.461-.193-2.045-.385-.292-.096-.584-.193-.584-.289 0-.288.681-.48 1.655-.577h.292c1.752 0 3.115-.48 4.089-1.346.973-.865 1.46-2.02 1.46-3.461 0-.673-.097-1.347-.39-1.923h.877c.194 0 .973-.097.973-1.25v-.289c.098-1.058-.681-1.154-.876-1.154zm-6.037 6.635c-1.655 0-2.336-.673-2.336-2.02 0-1.442.681-2.019 2.336-2.019 1.655 0 2.337.673 2.337 2.02 0 1.442-.682 2.019-2.337 2.019zm2.531 9.423c-.584.385-1.46.48-2.53.48-1.559 0-3.311-.192-3.311-1.25 0-.384.195-.672.584-.96a5.826 5.826 0 011.46-.866c.195 0 .585.096.974.192 1.558.192 2.726.48 3.31.77.195.095.292.288.292.576.097.193.097.577-.779 1.058zm10.125-10.962a13.05 13.05 0 01-1.363-.577c-.195-.192-.292-.384-.292-.769 0-.288.097-.577.39-.769.681-.48 2.141-.48 3.115.096.292.192.39.192.584.192.487 0 .779-.384.974-.769.194-.384.389-.769.389-1.057 0-.674-.779-.962-1.363-1.154-.681-.193-1.558-.385-2.434-.385-1.363 0-2.531.385-3.31 1.154-.876.77-1.363 1.73-1.363 2.885 0 1.153.292 2.019.876 2.596.584.577 1.46.961 2.629 1.346 1.266.384 1.85.673 2.044.865.292.289.39.673.39 1.154 0 .48-.195.865-.487 1.154-.39.288-.779.48-1.363.48a6.854 6.854 0 01-1.558-.192c-.39-.192-.778-.288-.973-.384-.39-.289-.487-.289-.682-.289-.486 0-.779.385-.973.77-.292.384-.39.769-.39.961 0 .673.877 1.154 1.558 1.442.876.385 1.947.577 3.213.577 1.265 0 2.434-.384 3.31-1.25.973-.865 1.363-1.923 1.363-3.173s-.292-2.307-.974-2.884c-.487-.962-1.655-1.539-3.31-2.02z"/><path fill="#275937" d="M196.207 29.02c-.097 0-.194 0-.486.095-.195 0-.39.097-.682.097-.292 0-.876 0-.876-1.347V13.058c0-.289-.097-1.058-1.558-1.058-1.363 0-1.46.673-1.46 1.058v15c0 1.442.39 2.5 1.168 3.077.78.577 1.655.865 2.531.865 1.558 0 2.337-.385 2.337-1.25 0-.192-.097-.48-.195-.865-.194-.673-.584-.866-.779-.866zm8.276-11.347c-2.045 0-3.603.673-4.673 1.923-1.071 1.25-1.656 2.98-1.656 5.289 0 2.307.585 4.038 1.656 5.288 1.07 1.25 2.725 1.827 4.673 1.827 2.044 0 3.602-.577 4.673-1.827 1.07-1.25 1.557-2.98 1.557-5.288 0-2.308-.584-4.039-1.557-5.289-1.169-1.346-2.726-1.923-4.673-1.923zm-.098 2.692c1.071 0 1.85.289 2.337.962.486.673.779 1.827.779 3.461 0 1.539-.293 2.693-.78 3.366-.486.673-1.265.961-2.336.961-1.07 0-1.85-.288-2.336-.961-.487-.673-.78-1.827-.78-3.462 0-1.538.293-2.692.78-3.461.486-.577 1.265-.866 2.336-.866zM219.28 24.5l4.381-5.192c.292-.289.39-.577.39-.866 0-.577-.487-.769-1.46-.769-.877 0-1.46.192-1.753.48l-4.089 4.809v-9.904c0-.289-.097-1.058-1.557-1.058-1.363 0-1.46.673-1.46 1.058V30.75c0 .288.097 1.058 1.557 1.058 1.363 0 1.46-.673 1.46-1.058v-4.52l4.284 5c.292.385.876.482 1.85.482.389 0 1.557 0 1.557-.866a.83.83 0 00-.39-.673l-4.77-5.673zm18.498 1.058c.292-.385.39-.673.39-.866 0-5.769-3.214-7.019-5.842-7.019-1.947 0-3.505.673-4.576 1.923-1.07 1.25-1.655 3.077-1.655 5.385 0 2.307.584 4.134 1.655 5.288 1.071 1.154 2.824 1.731 5.063 1.731 1.265 0 2.336-.192 3.31-.577.779-.288 1.655-.77 1.655-1.442 0-.289-.098-.577-.39-.962-.194-.288-.486-.769-.973-.769-.098 0-.195 0-.779.288-.876.481-1.85.77-2.92.77-1.072 0-1.948-.289-2.435-.866-.486-.48-.778-1.25-.876-2.211h7.497c.389-.096.778-.577.876-.673zm-8.373-2.212c.39-2.692 1.85-2.98 3.018-2.98 1.071 0 2.434.288 2.531 2.98h-5.549zm17.719 6.539c-.195-.673-.584-.77-.876-.77-.098 0-.098 0-.487.097-.195 0-.39.096-.682.096-.292 0-.876 0-.876-1.346v-7.308h1.655c.195 0 .974-.096.974-1.25v-.289c0-1.153-.78-1.25-.974-1.25h-1.655V15.75c0-.192-.097-1.058-1.265-1.058h-.292c-1.071 0-1.266.77-1.266.962l-.292 2.211h-.876c-.195 0-.974.097-.974 1.25v.289c0 1.154.779 1.25.974 1.25h.778v7.404c0 1.442.39 2.5 1.169 3.077s1.655.865 2.53.865c1.559 0 2.337-.385 2.337-1.25.293-.288.195-.577.098-.865z"/><path fill="#E17000" d="M252.346 43.594l-53.4 4.399c-1.07.097-1.946-.782-1.946-1.76V36.165c0-.977.68-1.759 1.654-1.759l53.4-4.399c1.07-.097 1.946.782 1.946 1.76v9.97c0 .977-.778 1.76-1.654 1.857z"/><path fill="#FFF" d="M212.193 45.3c-.096-.1-.096-.2-.096-.3l.193-8.5c0-.2 0-.3.096-.3.097-.1.193-.1.29-.1l2.317-.2c.87-.1 1.545.1 2.028.4.482.3.772.8.772 1.5 0 .3 0 .7-.193 1-.097.3-.29.6-.58.9-.192.3-.482.4-.772.6v.1s.193 0 .483.1.58.3.869.6c.29.3.386.6.483 1.1.096 1-.193 1.7-.773 2.3-.579.5-1.448.9-2.607 1l-2.317.2c0-.3-.096-.3-.193-.4zm2.993-1.2c.58-.1 1.062-.3 1.448-.6.29-.4.483-.9.387-1.4 0-.4-.193-.8-.58-1-.386-.2-.772-.3-1.448-.2l-1.738.1-.096 3.3 2.027-.2zm-.29-4.3c.387 0 .676-.1.966-.3.29-.2.483-.4.676-.7.193-.3.193-.6.193-.9 0-.4-.193-.7-.483-.9-.29-.2-.772-.2-1.351-.2l-1.545.1-.097 3 1.642-.1zm4.828 4.9c-.096 0-.096-.1-.096-.2l.193-8.7c0-.1 0-.2.096-.3.097-.1.193-.1.29-.1l4.538-.4c.193 0 .193.1.193.3v.6c0 .1-.097.2-.29.2l-3.765.3-.097 3.1 3.38-.3c.193 0 .193.1.29.3v.6c0 .1-.097.2-.29.2l-3.38.3-.096 3.3 3.765-.3c.193 0 .193.1.193.3v.6c0 .1-.096.2-.29.2l-4.537.4c.096-.4 0-.4-.097-.4zm8.98-.8c-.097 0-.097-.1-.097-.2l.193-8.1-2.51.2c-.193 0-.193-.1-.29-.3v-.2-.4c0-.1.097-.2.193-.2l6.083-.5c.193 0 .193.1.193.3v.6c0 .1-.097.2-.29.2l-2.413.2-.194 8.1c0 .1-.096.2-.096.2-.097.1-.193.1-.386.1h-.097c-.096.1-.193.1-.29 0zm3.572-.4s0-.1.096-.2l3.187-9.1c0-.1.193-.2.482-.3h.387c.29 0 .482 0 .482.2l2.897 8.5v.1c0 .2-.193.3-.58.3h-.096c-.29 0-.483 0-.483-.2l-.676-2.1-3.765.3-.773 2.3c0 .1-.193.2-.482.3h-.097c-.386.1-.483 0-.58-.1zm5.407-3.7l-1.255-3.9c-.097-.2-.097-.5-.097-.8-.097.3-.097.6-.193.8L234.69 40l2.993-.2z"/></g></svg>