<?xml version="1.0" encoding="utf-8"?>
<!-- Generator: Adobe Illustrator 23.0.6, SVG Export Plug-In . SVG Version: 6.00 Build 0)  -->
<svg version="1.1" xmlns="http://www.w3.org/2000/svg" xmlns:xlink="http://www.w3.org/1999/xlink" x="0px" y="0px"
	 viewBox="0 0 226.8 226.8" style="enable-background:new 0 0 226.8 226.8;" xml:space="preserve">
<style type="text/css">
	.st0{fill:#39870C;}
	.st1{fill:#FFFFFF;}
	.st2{display:none;fill:#39870C;}
	.st3{clip-path:url(#SVGID_2_);fill:#39870C;}
	.st4{fill:#FFFFFF;stroke:#39870C;stroke-width:4;stroke-miterlimit:10;}
	.st5{fill:none;}
	.st6{clip-path:url(#SVGID_4_);fill:#39870C;}
	.st7{clip-path:url(#SVGID_4_);}
	.st8{display:none;}
	.st9{display:inline;fill:#39870C;stroke:#FFFFFF;stroke-width:3.7729;stroke-miterlimit:10;}
	.st10{display:inline;}
	.st11{fill:#39870C;stroke:#FFFFFF;stroke-width:3.7729;stroke-miterlimit:10;}
	.st12{fill:#39870C;stroke:#FFFFFF;stroke-width:4.252;stroke-miterlimit:10;}
	.st13{fill:#FFFFFF;stroke:#39870C;stroke-width:4.8014;stroke-miterlimit:10;}
	.st14{fill:#39870C;stroke:#39870C;stroke-width:4.8014;stroke-miterlimit:10;}
	.st15{fill:none;stroke:#39870C;stroke-width:4.8014;stroke-miterlimit:10;}
	.st16{fill:#39870C;stroke:#FFFFFF;stroke-width:5.3333;stroke-miterlimit:10;}
</style>
<g id="Kader">
</g>
<g id="Icoon">
	<path class="st0" d="M44.8,62.8c-11.5,0-11.5,12.4-11.5,12.4v128.1h23.4V75.2C56.6,75.2,56.3,62.8,44.8,62.8z"/>
	<path class="st0" d="M75.5,62.8c-11.5,0-11.5,12.4-11.5,12.4v128.1h23.4V75.2C87.3,75.2,87,62.8,75.5,62.8z"/>
	<path class="st0" d="M106.2,62.8c-11.5,0-11.5,12.4-11.5,12.4v128.1H118V75.2C118,75.2,117.7,62.8,106.2,62.8z"/>
	<path class="st0" d="M136.9,62.8c-11.5,0-11.5,12.4-11.5,12.4v128.1h23.4V75.2C148.7,75.2,148.4,62.8,136.9,62.8z"/>
	<path class="st0" d="M178.6,39h-23.1c-0.8,0-1.4-0.6-1.4-1.4V15.9c0-0.8,0.6-1.4,1.4-1.4h23.1c0.8,0,1.4,0.6,1.4,1.4v21.7
		C180,38.4,179.4,39,178.6,39z"/>
	<path class="st0" d="M211,39h-26.2c-0.8,0-1.4-0.6-1.4-1.4V15.9c0-0.8,0.6-1.4,1.4-1.4H211c0.8,0,1.4,0.6,1.4,1.4v21.7
		C212.4,38.4,211.8,39,211,39z"/>
	<path class="st0" d="M165.9,93h-10.1c-0.8,0-1.4-0.6-1.4-1.4V69.8c0-0.8,0.6-1.4,1.4-1.4h10.1c0.8,0,1.4,0.6,1.4,1.4v21.7
		C167.3,92.4,166.7,93,165.9,93z"/>
	<path class="st0" d="M211,93h-38.9c-0.8,0-1.4-0.6-1.4-1.4V69.8c0-0.8,0.6-1.4,1.4-1.4H211c0.8,0,1.4,0.6,1.4,1.4v21.7
		C212.4,92.4,211.8,93,211,93z"/>
	<path class="st0" d="M178.6,203.3h-23.1c-0.8,0-1.4-0.6-1.4-1.4v-21.7c0-0.8,0.6-1.4,1.4-1.4h23.1c0.8,0,1.4,0.6,1.4,1.4v21.7
		C180,202.7,179.4,203.3,178.6,203.3z"/>
	<path class="st0" d="M211,203.3h-26.2c-0.8,0-1.4-0.6-1.4-1.4v-21.7c0-0.8,0.6-1.4,1.4-1.4H211c0.8,0,1.4,0.6,1.4,1.4v21.7
		C212.4,202.7,211.8,203.3,211,203.3z"/>
	<path class="st0" d="M186.7,121.8h-31.2c-0.8,0-1.4-0.6-1.4-1.4V98.7c0-0.8,0.6-1.4,1.4-1.4h31.2c0.8,0,1.4,0.6,1.4,1.4v21.7
		C188.1,121.2,187.5,121.8,186.7,121.8z"/>
	<path class="st0" d="M211,121.8h-18.2c-0.8,0-1.4-0.6-1.4-1.4V98.7c0-0.8,0.6-1.4,1.4-1.4H211c0.8,0,1.4,0.6,1.4,1.4v21.7
		C212.4,121.2,211.8,121.8,211,121.8z"/>
	<path class="st0" d="M165.3,176.1h-9.9c-0.8,0-1.4-0.6-1.4-1.4V153c0-0.8,0.6-1.4,1.4-1.4h9.9c0.8,0,1.4,0.6,1.4,1.4v21.7
		C166.7,175.5,166.1,176.1,165.3,176.1z"/>
	<path class="st0" d="M211,176.1h-39c-0.8,0-1.4-0.6-1.4-1.4V153c0-0.8,0.6-1.4,1.4-1.4h39c0.8,0,1.4,0.6,1.4,1.4v21.7
		C212.4,175.5,211.8,176.1,211,176.1z"/>
	<path class="st0" d="M192.5,65h-36.8c-0.8,0-1.4-0.6-1.4-1.4V43.8c0-0.8,0.6-1.4,1.4-1.4h36.8c0.8,0,1.4,0.6,1.4,1.4v19.8
		C193.9,64.4,193.2,65,192.5,65z"/>
	<path class="st0" d="M211,65h-12c-0.8,0-1.4-0.6-1.4-1.4V43.8c0-0.8,0.6-1.4,1.4-1.4h12c0.8,0,1.4,0.6,1.4,1.4v19.8
		C212.4,64.4,211.8,65,211,65z"/>
	<path class="st0" d="M192.5,148.1h-36.8c-0.8,0-1.4-0.6-1.4-1.4v-19.8c0-0.8,0.6-1.4,1.4-1.4h36.8c0.8,0,1.4,0.6,1.4,1.4v19.8
		C193.9,147.5,193.2,148.1,192.5,148.1z"/>
	<path class="st0" d="M211,148.1h-12c-0.8,0-1.4-0.6-1.4-1.4v-19.8c0-0.8,0.6-1.4,1.4-1.4h12c0.8,0,1.4,0.6,1.4,1.4v19.8
		C212.4,147.5,211.8,148.1,211,148.1z"/>
	<g>
		<circle class="st4" cx="58.7" cy="168" r="42.5"/>
		<g>
			<path class="st0" d="M56.3,190.9c-0.4-0.3-0.7-0.8-0.7-1.4v-16.9H38.7c-0.7,0-1.2-0.2-1.5-0.5c-0.3-0.3-0.4-1-0.4-1.9v-0.7
				c0-2.1,0.6-3.2,1.9-3.2h16.9v-16.9c0-0.7,0.2-1.2,0.7-1.5c0.4-0.3,1.2-0.4,2.2-0.4h0.7c1,0,1.7,0.2,2.2,0.5
				c0.4,0.3,0.7,0.8,0.7,1.4v16.9h16.8c0.7,0,1.2,0.2,1.5,0.7c0.3,0.4,0.4,1.2,0.4,2.2v0.7c0,1-0.1,1.7-0.4,2.2
				c-0.3,0.4-0.8,0.7-1.5,0.7H61.9v16.9c0,0.6-0.2,1.1-0.7,1.4c-0.4,0.3-1.2,0.5-2.2,0.5h-0.7C57.4,191.3,56.7,191.2,56.3,190.9z"/>
		</g>
	</g>
</g>
</svg>
