<?xml version="1.0" encoding="utf-8"?>
<!-- Generator: Adobe Illustrator 23.0.6, SVG Export Plug-In . SVG Version: 6.00 Build 0)  -->
<svg version="1.1" xmlns="http://www.w3.org/2000/svg" xmlns:xlink="http://www.w3.org/1999/xlink" x="0px" y="0px"
	 viewBox="0 0 226.8 226.8" style="enable-background:new 0 0 226.8 226.8;" xml:space="preserve">
<style type="text/css">
	.st0{fill:#39870C;}
	.st1{fill:#FFFFFF;}
	.st2{display:none;fill:#39870C;}
	.st3{clip-path:url(#SVGID_2_);fill:#39870C;}
	.st4{fill:#FFFFFF;stroke:#39870C;stroke-width:4;stroke-miterlimit:10;}
	.st5{fill:none;}
	.st6{clip-path:url(#SVGID_4_);fill:#39870C;}
	.st7{clip-path:url(#SVGID_4_);}
	.st8{display:none;}
	.st9{display:inline;fill:#39870C;stroke:#FFFFFF;stroke-width:3.7729;stroke-miterlimit:10;}
	.st10{display:inline;}
	.st11{fill:#39870C;stroke:#FFFFFF;stroke-width:3.7729;stroke-miterlimit:10;}
	.st12{fill:#39870C;stroke:#FFFFFF;stroke-width:4.252;stroke-miterlimit:10;}
	.st13{fill:#FFFFFF;stroke:#39870C;stroke-width:4.8014;stroke-miterlimit:10;}
	.st14{fill:#39870C;stroke:#39870C;stroke-width:4.8014;stroke-miterlimit:10;}
	.st15{fill:none;stroke:#39870C;stroke-width:4.8014;stroke-miterlimit:10;}
	.st16{fill:#39870C;stroke:#FFFFFF;stroke-width:5.3333;stroke-miterlimit:10;}
</style>
<g id="Kader">
</g>
<g id="Icoon">
	<g>
		<g>
			<rect x="21.3" y="14.7" class="st5" width="188.4" height="188.4"/>
			<path class="st0" d="M135.9,153.9h-12.3v-8.2h4.1c6.8,0,12.3-5.5,12.3-12.3v-16.4h0c0-3.6-1.2-7.1-3.4-9.9L113,76.7
				c-2.3-3-5.9-4.7-9.7-4.7H45.9c-6.8,0-12.3,5.5-12.3,12.3v49.1c0,6.8,5.5,12.3,12.3,12.3h12.3v8.2H45.9c-13.5,0-24.6,11-24.6,24.6
				s11,24.6,24.6,24.6h90.1c13.5,0,24.6-11,24.6-24.6S149.5,153.9,135.9,153.9z"/>
			<path class="st1" d="M103.3,80.2c1.2,0,2.5,0.6,3.2,1.6l23.6,30.4c1.1,1.4,1.7,3.1,1.7,4.9H98.1L88.1,80.2H103.3z"/>
			<rect x="66.3" y="145.7" class="st0" width="49.1" height="8.2"/>
			<circle class="st0" cx="45.9" cy="178.5" r="8.2"/>
			<circle class="st0" cx="70.4" cy="178.5" r="8.2"/>
			<circle class="st1" cx="111.4" cy="178.5" r="8.2"/>
			<circle class="st1" cx="135.9" cy="178.5" r="8.2"/>
			<rect x="21.3" y="14.7" class="st5" width="188.4" height="188.4"/>
		</g>
		<path class="st0" d="M197.4,140.1v-3.7c2.4-1.4,4.1-4,4.1-7.1c0-3-1.7-5.6-4.1-7.1V18.8c0-0.1,0-0.1,0-0.2c0-0.4-0.1-0.8-0.2-1.2
			c0-0.1-0.1-0.2-0.1-0.3c0-0.1,0-0.2-0.1-0.2c-0.2-0.3-0.4-0.7-0.7-0.9c0,0-0.1-0.1-0.1-0.1c-0.3-0.3-0.7-0.5-1-0.7
			c-0.1-0.1-0.2-0.1-0.4-0.2c-0.4-0.2-0.9-0.3-1.4-0.3h-16.4c-1.1,0-2.1,0.4-2.9,1.2l-57.7,58.5l5.1,6.5l15.4-15.7l2.8,26.6
			l-4.5,6.8l4.7,6c0.2,0.3,0.4,0.6,0.6,0.8l48.8-73.2v90c-2.4,1.4-4.1,4-4.1,7.1c0,3,1.7,5.6,4.1,7.1v3.7
			c-8.2,1.9-14.3,9.2-14.3,17.9c0,10.2,8.2,18.4,18.4,18.4c10.2,0,18.4-8.2,18.4-18.4C211.7,149.2,205.6,141.9,197.4,140.1z"/>
		<polygon class="st1" points="146.7,81.1 144.6,60.7 161.1,59.6 		"/>
		<polygon class="st1" points="149.7,52.2 163,38.7 164,51.2 		"/>
		<polygon class="st1" points="171.6,43.8 170.6,31 178.6,22.9 185.6,22.9 		"/>
	</g>
	<g>
		<circle class="st4" cx="58.8" cy="168" r="42.5"/>
		<g>
			<path class="st0" d="M38.9,172.6c-0.7,0-1.2-0.2-1.5-0.5c-0.3-0.3-0.4-1-0.4-1.9v-0.7c0-2.1,0.6-3.2,1.9-3.2h40
				c0.7,0,1.2,0.2,1.5,0.7c0.3,0.4,0.4,1.2,0.4,2.2v0.7c0,1-0.1,1.7-0.4,2.2c-0.3,0.4-0.8,0.7-1.5,0.7H38.9z"/>
		</g>
	</g>
</g>
</svg>
