<svg xmlns="http://www.w3.org/2000/svg" xmlns:xlink="http://www.w3.org/1999/xlink" viewBox="0 0 226.8 226.8"><style>.st0,.st3{fill:#39870c}.st3{clip-path:url(#SVGID_2_)}</style><g id="Icoon"><path class="st0" d="M112.3 88.2L26.8 21.3v179.6h70.8c2.2 0 4.1-1.8 4.1-4.1V94.5l11.3.1c1.4-1.8 1.1-5-.7-6.4z"/><defs><path id="SVGID_1_" d="M99.9 77.6h112.8v112.8H99.9z"/></defs><clipPath id="SVGID_2_"><use xlink:href="#SVGID_1_" overflow="visible"/></clipPath><path class="st3" d="M123 123.8v66.7h51.3v-66.7H123zm46.1 35.9c0 1.4-1.2 2.6-2.6 2.6s-2.6-1.2-2.6-2.6v-10.3c0-1.4 1.2-2.6 2.6-2.6s2.6 1.2 2.6 2.6v10.3z"/><path class="st3" d="M212.7 108.4v79.5c0 1.4-1.2 2.6-2.6 2.6h-15.4v-69.2c0-1.4-1.2-2.6-2.6-2.6h-71.8c-1.4 0-2.6 1.2-2.6 2.6v69.2h-15.4c-1.4 0-2.6-1.2-2.6-2.6v-79.5c0-1 .5-1.8 1.4-2.3l53.8-28.2c.7-.4 1.6-.4 2.4 0l53.8 28.2c1.1.5 1.6 1.4 1.6 2.3z"/><circle cx="58.8" cy="168" r="42.5" fill="#fff" stroke="#39870c" stroke-width="4" stroke-miterlimit="10"/><path class="st0" d="M56.4 190.9c-.4-.3-.7-.8-.7-1.4v-16.9H38.8c-.7 0-1.2-.2-1.5-.5-.3-.3-.4-1-.4-1.9v-.7c0-2.1.6-3.2 1.9-3.2h16.9v-16.9c0-.7.2-1.2.7-1.5.4-.3 1.2-.4 2.2-.4h.7c1 0 1.7.2 2.2.5.4.3.7.8.7 1.4v16.9H79c.7 0 1.2.2 1.5.7.3.4.4 1.2.4 2.2v.7c0 1-.1 1.7-.4 2.2-.3.4-.8.7-1.5.7H62v16.9c0 .6-.2 1.1-.7 1.4-.4.3-1.2.5-2.2.5h-.7c-.9-.3-1.6-.4-2-.7z"/></g></svg>