<svg xmlns="http://www.w3.org/2000/svg" viewBox="0 0 226.8 226.8"><style/><g id="Icoon"><circle cx="113.4" cy="113.4" r="56.7" fill="#fff" stroke="#39870c" stroke-width="4" stroke-miterlimit="10"/><path d="M110.2 143.8c-.6-.4-.9-1-.9-1.9v-22.5H86.8c-.9 0-1.6-.2-1.9-.7-.4-.5-.6-1.3-.6-2.6v-.9c0-2.8.8-4.3 2.5-4.3h22.5V88.5c0-.9.3-1.6.9-1.9.6-.4 1.5-.6 2.9-.6h.9c1.3 0 2.3.2 2.9.6.6.4.9 1 .9 1.9V111h22.4c.9 0 1.6.3 1.9.9.4.6.6 1.5.6 2.9v.9c0 1.3-.2 2.3-.6 2.9-.4.6-1 .9-1.9.9h-22.4V142c0 .8-.3 1.5-.9 1.9-.6.4-1.6.6-2.9.6h-.9c-1.4-.1-2.3-.3-2.9-.7z" fill="#39870c"/></g></svg>