<svg xmlns="http://www.w3.org/2000/svg" viewBox="0 0 226.8 226.8"><style>.st0{fill:#39870c}</style><g id="Icoon"><path class="st0" d="M211.2 96.3l-11.4.1v102.9c0 2.2-1.8 4.1-4.1 4.1H32.4c-2.2 0-4.1-1.8-4.1-4.1v-103l-11.4.1c-1.4-1.8-1.1-5.1.7-6.4l93.9-73.5c1.5-1.1 3.6-1.1 5.1 0L210.5 90c1.7 1.3 2.1 4.5.7 6.3z"/><circle cx="59.2" cy="168" r="42.5" fill="#fff" stroke="#39870c" stroke-width="4" stroke-miterlimit="10"/><path class="st0" d="M58.9 142.4c-6.6 0-12.6 2.4-17.2 6.3-1 .8-1.1 2.1-.4 3.1.8 1 2.1 1.1 3.1.4l.1-.1c3.9-3.3 8.9-5.3 14.3-5.3 11.5 0 20.9 8.7 22 19.9h-6.5l8.8 13.3 8.8-13.3h-6.7c-1-13.6-12.4-24.3-26.3-24.3zm-24.3 15.4l-8.8 13.3h6.7c1.1 13.6 12.5 24.3 26.4 24.3 6.6 0 12.6-2.4 17.2-6.3 1-.8 1.1-2.1.4-3.1-.8-1-2.1-1.1-3.1-.4l-.1.1C69.4 189 64.4 191 59 191c-11.5 0-20.9-8.7-22-19.9h6.5l-8.9-13.3z"/><path d="M126.9 105.2h18.4v29.1h-18.4zm23.5 0h18.4v29.1h-18.4zm-23.5 34.5h18.4v29.1h-18.4zm23.5 0h18.4v29.1h-18.4z" fill="#fff"/></g></svg>