<svg xmlns="http://www.w3.org/2000/svg" viewBox="0 0 278.2 74.5"><path fill="#80BC00" d="M25.3 0C11.3 0 0 11.3 0 25.3s11.3 25.3 25.3 25.3 25.3-11.3 25.3-25.3C50.5 11.3 39.2 0 25.3 0zm0 42.6C15.7 42.6 8 34.8 8 25.3 8 15.7 15.7 8 25.3 8c9.5 0 17.3 7.7 17.3 17.3 0 9.5-7.8 17.3-17.3 17.3z"/><path fill="#275937" d="M25.3 8C15.7 8 8 15.7 8 25.3c0 9.6 7.7 17.3 17.3 17.3 9.5 0 17.3-7.7 17.3-17.3C42.6 15.7 34.8 8 25.3 8z"/><path fill="#E17000" d="M25.3 34.1c4.9 0 8.9-4 8.9-8.9s-4-8.9-8.9-8.9-8.9 4-8.9 8.9c0 5 4 8.9 8.9 8.9z"/><g fill="#39870C"><path d="M76.1 14.6c-2.8 0-4.9.8-6.3 2.5-1.4 1.6-2.2 4.1-2.2 7.2 0 3.1.7 5.6 2.2 7.2 1.5 1.7 3.6 2.5 6.3 2.5 2.7 0 4.9-.9 6.3-2.5 1.4-1.7 2.2-4.1 2.2-7.2 0-3.1-.7-5.6-2.2-7.2-1.4-1.7-3.5-2.5-6.3-2.5zm5.2 9.7c0 2.3-.5 4-1.4 5.1-.9 1.1-2.1 1.7-3.8 1.7-1.7 0-2.9-.5-3.8-1.7-.9-1.2-1.3-2.9-1.3-5.1 0-2.3.4-4 1.3-5.1.9-1.1 2.1-1.6 3.8-1.6 1.7 0 2.9.5 3.8 1.6.9 1.1 1.4 2.8 1.4 5.1zM104.8 20c-.9-.6-1.8-.8-2.9-.8-1.5 0-2.8.6-4 1.8-.8-1.2-2-1.8-3.8-1.8-1.4 0-2.6.5-3.7 1.5v-.1c0-.2-.1-.3-.1-.4-.2-.2-.3-.3-.3-.4-.1-.1-.2-.2-.4-.3-.3-.1-.7-.2-1.5.1-.7.2-.8.7-.8.9 0 .1 0 .1.2 1.1.1.4.1 1.1.1 2.2v9.1c0 .3.1 1.1 1.6 1.1 1.4 0 1.5-.7 1.5-1.1v-9.3l.3-.3c.2-.3.5-.5 1-.8.9-.5 2.2-.6 2.9.1.3.4.5.8.5 1.5v8.8c0 .3.1 1.1 1.6 1.1 1.4 0 1.5-.7 1.5-1.1v-9-.4c.9-1 1.8-1.5 2.7-1.5.7 0 1.2.2 1.5.5.3.4.5.9.5 1.5v8.8c0 .3.1 1.1 1.6 1.1 1.4 0 1.5-.7 1.5-1.1v-9c0-.9-.1-1.7-.4-2.3-.2-.6-.6-1.2-1.1-1.5zM121.2 19.3h-4.4c-.5-.1-1.2-.2-1.8-.2-1.8 0-3.2.5-4.2 1.4-1 .9-1.5 2.1-1.5 3.6 0 .9.2 1.8.7 2.5.3.5.7.9 1.1 1.3-1.1.7-1.4 1.5-1.4 2.2 0 .6.2 1.4 1 2.1-1.5.8-2.3 1.9-2.3 3.2 0 1.4.6 2.5 1.8 3.1 1.1.6 2.6.8 4.7.8 2 0 3.7-.4 4.9-1.2 1.3-.9 1.9-2 1.9-3.3 0-1.1-.4-2-1.1-2.6-.7-.6-1.5-1.1-2.4-1.3-.9-.2-1.8-.3-2.6-.5-.8-.1-1.5-.2-2.1-.4-.3-.1-.6-.2-.6-.3 0-.3.7-.5 1.7-.6h.3c1.8 0 3.2-.5 4.2-1.4 1-.9 1.5-2.1 1.5-3.6 0-.7-.1-1.4-.4-2h.9c.2 0 1-.1 1-1.3v-.3c.1-1.1-.7-1.2-.9-1.2zm-6.2 6.9c-1.7 0-2.4-.7-2.4-2.1 0-1.5.7-2.1 2.4-2.1s2.4.7 2.4 2.1c.1 1.5-.7 2.1-2.4 2.1zm2.7 9.8c-.6.4-1.5.5-2.6.5-1.6 0-3.4-.2-3.4-1.3 0-.4.2-.7.6-1 .5-.4 1-.7 1.5-.9.2 0 .6.1 1 .2 1.6.2 2.8.5 3.4.8.2.1.3.3.3.6 0 .2 0 .6-.8 1.1zM135.4 27.4c.3-.4.4-.7.4-.9 0-6-3.3-7.3-6-7.3-2 0-3.6.7-4.7 2s-1.7 3.2-1.7 5.6c0 2.4.6 4.3 1.7 5.5 1.1 1.2 2.9 1.8 5.2 1.8 1.3 0 2.4-.2 3.4-.6.8-.3 1.7-.8 1.7-1.5 0-.3-.1-.6-.4-1-.2-.3-.5-.8-1-.8-.1 0-.2 0-.8.3-.9.5-1.9.8-3 .8s-2-.3-2.5-.9c-.5-.5-.8-1.3-.9-2.3h7.7c.4-.1.8-.6.9-.7zm-8.6-2.3c.4-2.8 1.9-3.1 3.1-3.1 1.1 0 2.5.3 2.6 3.1h-5.7zM147.7 19.3c-.3 0-1.4 0-1.6.8l-3 9.1-3-9.1c-.2-.5-.7-.8-1.5-.8h-.2c-1.1 0-1.6.3-1.6.9 0 .1 0 .3.1.5l4.2 12.5c.2.5.7.8 1.5.8h.9c.8 0 1.4-.3 1.5-.8l4.2-12.5c.1-.2.1-.4.1-.5-.1-.4-.4-.9-1.6-.9zM152.9 19.3c-1.4 0-1.5.7-1.5 1.1v12.5c0 .3.1 1.1 1.6 1.1 1.4 0 1.5-.7 1.5-1.1V20.3c0-.3-.2-1-1.6-1zM153.1 13.4h-.3c-1.4 0-1.5.7-1.5 1.1V16c0 .3.1 1.1 1.5 1.1h.3c1.4 0 1.5-.7 1.5-1.1v-1.5c0-.4-.2-1.1-1.5-1.1zM164.7 19.2c-1.3 0-2.5.5-3.6 1.5v-.1c0-.2-.1-.3-.1-.4-.1-.1-.1-.2-.2-.3-.1-.1-.2-.2-.4-.3-.3-.1-.7-.2-1.5.1-.7.2-.9.7-.9.9 0 .1 0 .1.2 1.1.1.4.1 1.1.1 2.2V33c0 .3.1 1.1 1.6 1.1 1.4 0 1.5-.7 1.5-1.1v-9.3c.8-1 1.7-1.5 2.8-1.5.7 0 1.3.2 1.6.5.4.3.5.8.5 1.5V33c0 .3.1 1.1 1.6 1.1 1.4 0 1.5-.7 1.5-1.1v-9c0-1.4-.4-2.6-1.3-3.4-.7-1-1.9-1.4-3.4-1.4zM184.4 19.3H180c-.5-.1-1.2-.2-1.8-.2-1.8 0-3.2.5-4.2 1.4-1 .9-1.5 2.1-1.5 3.6 0 .9.2 1.8.7 2.5.3.5.7.9 1.1 1.3-1.1.7-1.4 1.5-1.4 2.2 0 .6.2 1.4 1 2.1-1.5.8-2.3 1.9-2.3 3.2 0 1.4.6 2.5 1.8 3.1 1.1.6 2.6.8 4.7.8 2 0 3.7-.4 4.9-1.2 1.3-.9 1.9-2 1.9-3.3 0-1.1-.4-2-1.1-2.6-.7-.6-1.5-1.1-2.4-1.3-.9-.2-1.7-.3-2.6-.5-.8-.1-1.5-.2-2.1-.4-.3-.1-.6-.2-.6-.3 0-.3.7-.5 1.7-.6h.3c1.8 0 3.2-.5 4.2-1.4 1-.9 1.5-2.1 1.5-3.6 0-.7-.1-1.4-.4-2h.9c.2 0 1-.1 1-1.3v-.3c.1-1.1-.7-1.2-.9-1.2zm-6.2 6.9c-1.7 0-2.4-.7-2.4-2.1 0-1.5.7-2.1 2.4-2.1s2.4.7 2.4 2.1c0 1.5-.7 2.1-2.4 2.1zm2.6 9.8c-.6.4-1.5.5-2.6.5-1.6 0-3.4-.2-3.4-1.3 0-.4.2-.7.6-1 .5-.4 1-.7 1.5-.9.2 0 .6.1 1 .2 1.6.2 2.8.5 3.4.8.2.1.3.3.3.6.1.2.1.6-.8 1.1z"/></g><path fill="#39870C" d="M191.2 24.6c-.8-.3-1.2-.5-1.4-.6-.2-.2-.3-.4-.3-.8 0-.3.1-.6.4-.8.7-.5 2.2-.5 3.2.1.3.2.4.2.6.2.5 0 .8-.4 1-.8.2-.4.4-.8.4-1.1 0-.7-.8-1-1.4-1.2-.7-.2-1.6-.4-2.5-.4-1.4 0-2.6.4-3.4 1.2-.9.8-1.4 1.8-1.4 3s.3 2.1.9 2.7c.6.6 1.5 1 2.7 1.4 1.3.4 1.9.7 2.1.9.3.3.4.7.4 1.2s-.2.9-.5 1.2c-.4.3-.8.5-1.4.5-.6 0-1.2-.1-1.6-.2-.4-.2-.8-.3-1-.4-.4-.3-.5-.3-.7-.3-.5 0-.8.4-1 .8-.3.4-.4.8-.4 1 0 .7.9 1.2 1.6 1.5.9.4 2 .6 3.3.6 1.3 0 2.5-.4 3.4-1.3 1-.9 1.4-2 1.4-3.3 0-1.3-.3-2.4-1-3-.5-1-1.7-1.6-3.4-2.1z"/><path fill="#275937" d="M203.4 31c-.1 0-.2 0-.5.1-.2 0-.4.1-.7.1-.3 0-.9 0-.9-1.4V14.4c0-.3-.1-1.1-1.6-1.1-1.4 0-1.5.7-1.5 1.1V30c0 1.5.4 2.6 1.2 3.2.8.6 1.7.9 2.6.9 1.6 0 2.4-.4 2.4-1.3 0-.2-.1-.5-.2-.9-.2-.7-.6-.9-.8-.9zM211.9 19.2c-2.1 0-3.7.7-4.8 2-1.1 1.3-1.7 3.1-1.7 5.5s.6 4.2 1.7 5.5c1.1 1.3 2.8 1.9 4.8 1.9 2.1 0 3.7-.6 4.8-1.9 1.1-1.3 1.6-3.1 1.6-5.5s-.6-4.2-1.6-5.5c-1.2-1.4-2.8-2-4.8-2zm-.1 2.8c1.1 0 1.9.3 2.4 1s.8 1.9.8 3.6c0 1.6-.3 2.8-.8 3.5-.5.7-1.3 1-2.4 1-1.1 0-1.9-.3-2.4-1s-.8-1.9-.8-3.6c0-1.6.3-2.8.8-3.6.5-.6 1.3-.9 2.4-.9zM227.1 26.3l4.5-5.4c.3-.3.4-.6.4-.9 0-.6-.5-.8-1.5-.8-.9 0-1.5.2-1.8.5l-4.2 5V14.4c0-.3-.1-1.1-1.6-1.1-1.4 0-1.5.7-1.5 1.1v18.4c0 .3.1 1.1 1.6 1.1 1.4 0 1.5-.7 1.5-1.1v-4.7l4.4 5.2c.3.4.9.5 1.9.5.4 0 1.6 0 1.6-.9 0-.2-.1-.5-.4-.7l-4.9-5.9zM246.1 27.4c.3-.4.4-.7.4-.9 0-6-3.3-7.3-6-7.3-2 0-3.6.7-4.7 2s-1.7 3.2-1.7 5.6c0 2.4.6 4.3 1.7 5.5 1.1 1.2 2.9 1.8 5.2 1.8 1.3 0 2.4-.2 3.4-.6.8-.3 1.7-.8 1.7-1.5 0-.3-.1-.6-.4-1-.2-.3-.5-.8-1-.8-.1 0-.2 0-.8.3-.9.5-1.9.8-3 .8s-2-.3-2.5-.9c-.5-.5-.8-1.3-.9-2.3h7.7c.4-.1.8-.6.9-.7zm-8.6-2.3c.4-2.8 1.9-3.1 3.1-3.1 1.1 0 2.5.3 2.6 3.1h-5.7zM255.7 31.9c-.2-.7-.6-.8-.9-.8-.1 0-.1 0-.5.1-.2 0-.4.1-.7.1-.3 0-.9 0-.9-1.4v-7.6h1.7c.2 0 1-.1 1-1.3v-.3c0-1.2-.8-1.3-1-1.3h-1.7v-2.2c0-.2-.1-1.1-1.3-1.1h-.3c-1.1 0-1.3.8-1.3 1l-.3 2.3h-.9c-.2 0-1 .1-1 1.3v.3c0 1.2.8 1.3 1 1.3h.8V30c0 1.5.4 2.6 1.2 3.2.8.6 1.7.9 2.6.9 1.6 0 2.4-.4 2.4-1.3.3-.3.2-.6.1-.9z"/><path fill="#E17000" d="M259.7 44.1l-54.9 4.5c-1.1.1-2-.8-2-1.8V36.5c0-1 .7-1.8 1.7-1.8l54.9-4.5c1.1-.1 2 .8 2 1.8v10.2c0 1-.8 1.8-1.7 1.9z"/><g fill="#FFF"><path d="M218.2 45.3c-.1-.1-.1-.2-.1-.3l.2-8.5c0-.2 0-.3.1-.3.1-.1.2-.1.3-.1l2.4-.2c.9-.1 1.6.1 2.1.4.5.3.8.8.8 1.5 0 .3 0 .7-.2 1-.1.3-.3.6-.6.9-.2.3-.5.4-.8.6v.1s.2 0 .5.1.6.3.9.6c.3.3.4.6.5 1.1.1 1-.2 1.7-.8 2.3-.6.5-1.5.9-2.7 1l-2.4.2c0-.3-.1-.3-.2-.4zm3.1-1.2c.6-.1 1.1-.3 1.5-.6.3-.4.5-.9.4-1.4 0-.4-.2-.8-.6-1-.4-.2-.8-.3-1.5-.2l-1.8.1-.1 3.3 2.1-.2zm-.3-4.3c.4 0 .7-.1 1-.3.3-.2.5-.4.7-.7.2-.3.2-.6.2-.9 0-.4-.2-.7-.5-.9-.3-.2-.8-.2-1.4-.2l-1.6.1-.1 3 1.7-.1zM226 44.7c-.1 0-.1-.1-.1-.2l.2-8.7c0-.1 0-.2.1-.3.1-.1.2-.1.3-.1l4.7-.4c.2 0 .2.1.2.3v.6c0 .1-.1.2-.3.2l-3.9.3-.1 3.1 3.5-.3c.2 0 .2.1.3.3v.6c0 .1-.1.2-.3.2l-3.5.3-.1 3.3 3.9-.3c.2 0 .2.1.2.3v.6c0 .1-.1.2-.3.2l-4.7.4c.1-.4 0-.4-.1-.4zM235.3 43.9c-.1 0-.1-.1-.1-.2l.2-8.1-2.6.2c-.2 0-.2-.1-.3-.3v-.2-.4c0-.1.1-.2.2-.2l6.3-.5c.2 0 .2.1.2.3v.6c0 .1-.1.2-.3.2l-2.5.2-.2 8.1c0 .1-.1.2-.1.2-.1.1-.2.1-.4.1h-.1c-.1.1-.2.1-.3 0zM239 43.5s0-.1.1-.2l3.3-9.1c0-.1.2-.2.5-.3h.4c.3 0 .5 0 .5.2l3 8.5v.1c0 .2-.2.3-.6.3h-.1c-.3 0-.5 0-.5-.2l-.7-2.1-3.9.3-.8 2.3c0 .1-.2.2-.5.3h-.1c-.4.1-.5 0-.6-.1zm5.6-3.7l-1.3-3.9c-.1-.2-.1-.5-.1-.8-.1.3-.1.6-.2.8l-1.5 4.1 3.1-.2z"/></g><g fill="#666"><path d="M68.1 69.6c-.1-.1-.1-.2-.1-.4V56.4c0-.2 0-.4.1-.5.1-.1.2-.1.5-.1h3.6c1.5 0 2.6.3 3.3 1 .8.6 1.1 1.5 1.1 2.6 0 .7-.2 1.3-.7 1.9s-1 1-1.5 1.1v.1c0-.1.3 0 .8.3s1 .6 1.4 1.1c.4.5.6 1.1.6 1.9 0 2.7-1.7 4-5.2 4h-3.4c-.3 0-.4-.1-.5-.2zm3.9-7.8c.8 0 1.5-.2 2-.7.5-.5.8-1 .8-1.7s-.2-1.3-.7-1.7c-.5-.4-1.2-.5-2.2-.5h-2.2v4.5H72zm.6 6.4c.9 0 1.6-.2 2-.7s.7-1.1.7-1.9c0-.7-.3-1.3-.8-1.7-.5-.4-1.3-.6-2.3-.6h-2.6v4.9h3zM80.2 68.6c-.8-.9-1.2-2.2-1.2-4 0-1.8.4-3.1 1.2-4 .8-.9 1.9-1.4 3.5-1.4 1.4 0 2.4.4 3.1 1.3s1 2.2 1 3.9c0 .1-.1.3-.2.5-.2.2-.3.3-.4.3h-6.3c.1 1.1.4 1.9.9 2.4s1.2.8 2.2.8c.6 0 1-.1 1.5-.2.4-.1.7-.3 1-.4.3-.1.4-.2.5-.2.1 0 .3.1.5.4.2.3.2.5.2.6 0 .2-.2.3-.5.6-.3.2-.8.4-1.3.5-.6.1-1.1.2-1.8.2-1.9 0-3.1-.4-3.9-1.3zm5.8-4.8c0-2.1-.8-3.2-2.4-3.2-1.7 0-2.7 1.1-2.8 3.2H86zM90.5 69.4V55.2c0-.3.3-.4.8-.4h.1c.5 0 .8.1.8.4v5.4c.4-.4.9-.7 1.4-1 .5-.3 1.1-.4 1.7-.4.8 0 1.6.2 2.2.7.6.5 1 1.3 1 2.5v6.9c0 .3-.3.4-.8.4h-.1c-.5 0-.8-.1-.8-.4v-6.8c0-.6-.2-1.1-.5-1.4-.3-.3-.9-.5-1.5-.5-.4 0-.8.1-1.2.3-.4.2-.7.4-.9.7l-.4.4v7.3c0 .3-.3.4-.8.4h-.1c-.6.1-.9 0-.9-.3zM102.3 68.6c-.8-.9-1.2-2.2-1.2-4 0-1.8.4-3.1 1.2-4 .8-.9 1.9-1.4 3.5-1.4 1.4 0 2.4.4 3.1 1.3s1 2.2 1 3.9c0 .1-.1.3-.2.5-.2.2-.3.3-.4.3H103c.1 1.1.4 1.9.9 2.4s1.2.8 2.2.8c.6 0 1-.1 1.5-.2.4-.1.7-.3 1-.4.3-.1.4-.2.5-.2.1 0 .3.1.5.4.2.3.2.5.2.6 0 .2-.2.3-.5.6-.3.2-.8.4-1.3.5-.6.1-1.1.2-1.8.2-1.9 0-3.1-.4-3.9-1.3zm5.8-4.8c0-2.1-.8-3.2-2.4-3.2-1.7 0-2.7 1.1-2.8 3.2h5.2zM113 68.6c-.8-.9-1.2-2.2-1.2-4 0-1.8.4-3.1 1.2-4 .8-.9 1.9-1.4 3.5-1.4 1.4 0 2.4.4 3.1 1.3s1 2.2 1 3.9c0 .1-.1.3-.2.5-.2.2-.3.3-.4.3h-6.3c.1 1.1.4 1.9.9 2.4s1.2.8 2.2.8c.6 0 1-.1 1.5-.2.4-.1.7-.3 1-.4.3-.1.4-.2.5-.2.1 0 .3.1.5.4.2.3.2.5.2.6 0 .2-.2.3-.5.6-.3.2-.8.4-1.3.5-.6.1-1.1.2-1.8.2-1.8 0-3.1-.4-3.9-1.3zm5.8-4.8c0-2.1-.8-3.2-2.4-3.2-1.7 0-2.7 1.1-2.8 3.2h5.2zM123.3 69.4v-7c0-.9 0-1.5-.1-1.9-.1-.4-.1-.6-.1-.6 0-.2.1-.3.4-.4s.5-.1.7-.1c.2 0 .3.1.4.3s.2.4.2.6c0 .2.1.4.1.4.7-1 1.5-1.5 2.3-1.5.4 0 .7.1.9.2.2.1.3.3.3.6s0 .5-.1.7c-.1.2-.2.4-.3.4-.1 0-.2 0-.4-.1s-.4-.1-.7-.1c-.3 0-.6.1-.9.3-.3.2-.5.4-.7.6-.2.2-.3.3-.3.4v7.3c0 .3-.3.4-.8.4h-.1c-.5-.1-.8-.2-.8-.5zM136.3 69.6c-.7-.2-1.2-.4-1.5-.7-.3-.2-.4-.4-.4-.5 0-.2.1-.4.3-.7.2-.3.3-.4.4-.4.1 0 .2.1.4.2.4.2.9.4 1.3.6.5.2 1 .2 1.7.2.8 0 1.4-.2 1.9-.6.5-.4.7-1 .7-1.7 0-.5-.1-.9-.4-1.2-.3-.3-.6-.6-1-.8-.4-.2-.9-.4-1.6-.7-.8-.3-1.4-.6-1.8-.8-.5-.3-.8-.6-1.2-1.1s-.5-1.2-.5-2c0-.7.2-1.4.5-1.9s.9-1 1.6-1.3c.7-.3 1.5-.5 2.3-.5.5 0 1 .1 1.5.2.6.1 1 .3 1.3.5.3.2.4.3.4.5 0 .1-.1.4-.2.6-.2.3-.3.4-.4.4-.1 0-.2 0-.3-.1-.1-.1-.2-.1-.2-.1-.7-.3-1.4-.5-2.1-.5-.8 0-1.4.2-1.9.6s-.7 1-.7 1.7c0 .5.1.8.4 1.1.2.3.5.5.8.6.3.1.8.4 1.6.6.8.3 1.5.6 2 .9.5.3.9.7 1.3 1.2s.5 1.2.5 2.1c0 1.2-.4 2.1-1.2 2.8-.8.7-1.9 1-3.2 1-.9.1-1.6 0-2.3-.2zM146.6 69.3c-.5-.4-.8-1.1-.8-2.1v-6.4h-1c-.1 0-.2 0-.3-.1-.1-.1-.1-.2-.1-.5V60c0-.2 0-.4.1-.5s.2-.1.3-.1h1l.2-2.1c0-.3.3-.4.6-.4h.2c.4 0 .6.1.6.4v2.1h1.7c.1 0 .2 0 .3.1s.1.2.1.5v.2c0 .2 0 .4-.1.5-.1.1-.2.1-.3.1h-1.7V67c0 .6.1.9.3 1.2.2.2.5.3.8.3.3 0 .4 0 .6-.1h.3c.1 0 .2.1.3.4s.1.4.1.6c0 .4-.5.6-1.5.6-.6-.1-1.2-.3-1.7-.7zM152.8 68.6c-.8-.9-1.2-2.2-1.2-4 0-1.8.4-3.1 1.2-4 .8-.9 1.9-1.4 3.5-1.4 1.4 0 2.4.4 3.1 1.3s1 2.2 1 3.9c0 .1-.1.3-.2.5-.2.2-.3.3-.4.3h-6.3c.1 1.1.4 1.9.9 2.4s1.2.8 2.2.8c.6 0 1-.1 1.5-.2.4-.1.7-.3 1-.4.3-.1.4-.2.5-.2.1 0 .3.1.5.4.2.3.2.5.2.6 0 .2-.2.3-.5.6-.3.2-.8.4-1.3.5-.6.1-1.1.2-1.8.2-1.9 0-3.1-.4-3.9-1.3zm5.8-4.8c0-2.1-.8-3.2-2.4-3.2-1.7 0-2.7 1.1-2.8 3.2h5.2zM163.7 69.3c-.5-.4-.8-1.1-.8-2.1v-12c0-.3.3-.4.8-.4h.1c.5 0 .8.1.8.4V67c0 .6.1.9.3 1.2.2.2.5.3.8.3.3 0 .4 0 .6-.1h.3c.1 0 .2.1.3.4s.1.4.1.6c0 .4-.5.6-1.5.6-.7-.1-1.3-.3-1.8-.7zM169.5 69.7c-.5-.1-.9-.3-1.2-.5s-.4-.4-.4-.5c0-.1.1-.3.2-.6.2-.3.3-.4.4-.4l.4.2c.2.1.5.3.9.4.3.1.7.2 1.1.2 1.3 0 2-.5 2-1.6 0-.5-.1-.8-.4-1.1-.3-.3-.8-.5-1.6-.7-1.1-.3-1.8-.7-2.2-1.1s-.6-1.1-.6-1.9c0-.6.1-1.1.4-1.5.3-.4.7-.8 1.2-1 .5-.2 1.1-.4 1.7-.4.7 0 1.3.1 1.8.3s.8.4.8.6c0 .2-.1.4-.2.7s-.3.4-.4.4c0 0-.2-.1-.5-.3-.3-.2-.7-.2-1.3-.2-.5 0-.9.1-1.3.3s-.5.5-.5.9c0 .5.1.8.4 1.1.2.3.6.5 1.2.7.9.3 1.5.5 1.9.8.4.3.8.6 1 1 .2.4.3.9.3 1.5s-.2 1.1-.5 1.6-.7.8-1.3 1.1-1.1.4-1.8.4c-.5-.1-1-.2-1.5-.4zM177.8 68.6c-.8-.9-1.2-2.2-1.2-4 0-1.8.4-3.1 1.2-4 .8-.9 1.9-1.4 3.5-1.4 1.4 0 2.4.4 3.1 1.3s1 2.2 1 3.9c0 .1-.1.3-.2.5-.2.2-.3.3-.4.3h-6.3c.1 1.1.4 1.9.9 2.4s1.2.8 2.2.8c.6 0 1-.1 1.5-.2.4-.1.7-.3 1-.4.3-.1.4-.2.5-.2.1 0 .3.1.5.4.2.3.2.5.2.6 0 .2-.2.3-.5.6-.3.2-.8.4-1.3.5-.6.1-1.1.2-1.8.2-1.9 0-3.1-.4-3.9-1.3zm5.8-4.8c0-2.1-.8-3.2-2.4-3.2-1.7 0-2.7 1.1-2.8 3.2h5.2zM188.7 69.3c-.5-.4-.8-1.1-.8-2.1v-12c0-.3.3-.4.8-.4h.1c.5 0 .8.1.8.4V67c0 .6.1.9.3 1.2.2.2.5.3.8.3.3 0 .4 0 .6-.1h.3c.1 0 .2.1.3.4s.1.4.1.6c0 .4-.5.6-1.5.6-.7-.1-1.3-.3-1.8-.7zM194.4 68.6c-.8-.9-1.2-2.2-1.2-4.1 0-1.9.5-3.3 1.4-4.1s2-1.2 3.4-1.2c.8 0 1.5.1 2.1.3s.9.4.9.6c0 .2-.1.4-.2.7-.2.3-.3.4-.4.4h-.1s-.1 0-.1-.1c-.7-.3-1.4-.5-2.2-.5-1.9 0-2.9 1.3-2.9 3.8 0 1.4.2 2.4.7 3.1.5.6 1.3.9 2.4.9.8 0 1.6-.2 2.3-.5l.2-.1c.1 0 .3.1.4.4.2.3.2.5.2.6 0 .2-.1.3-.4.5-.3.2-.7.3-1.1.4s-1 .2-1.6.2c-1.7 0-3-.4-3.8-1.3zM203.8 69.1c-.6-.5-.9-1.3-.9-2.2 0-1.1.3-1.8 1-2.4.6-.5 1.4-.9 2.3-1 .9-.2 2-.2 3.4-.2v-.9c0-.5-.2-.9-.5-1.2-.3-.3-.9-.5-1.7-.5-.6 0-1.1.1-1.5.2-.4.1-.8.3-1.1.4-.3.1-.5.2-.5.2-.1 0-.3-.1-.4-.4-.2-.3-.2-.5-.2-.6 0-.2.2-.4.5-.6.4-.2.8-.4 1.4-.5.6-.1 1.2-.2 1.8-.2 1.2 0 2.2.3 2.9.8s1 1.3 1 2.3v4.5c0 .9 0 1.5.1 1.9.1.4.1.6.1.6 0 .2-.1.3-.4.4-.3.1-.5.1-.7.1-.2 0-.3-.1-.4-.3-.1-.2-.2-.4-.2-.6 0-.2-.1-.4-.1-.4-.9 1-2 1.5-3.4 1.5-1.1-.1-1.9-.4-2.5-.9zm4.2-1c.5-.2 1-.6 1.5-1v-2.4c-1 0-1.8.1-2.5.1-.6.1-1.2.3-1.7.6s-.7.8-.7 1.4c0 .5.1.9.4 1.2.3.3.7.4 1.3.4.7 0 1.3-.1 1.7-.3zM215.7 69.3c-.5-.4-.8-1.1-.8-2.1v-6.4h-1c-.1 0-.2 0-.3-.1-.1-.1-.1-.2-.1-.5V60c0-.2 0-.4.1-.5s.2-.1.3-.1h1l.2-2.1c0-.3.3-.4.6-.4h.2c.4 0 .6.1.6.4v2.1h1.7c.1 0 .2 0 .3.1s.1.2.1.5v.2c0 .2 0 .4-.1.5-.1.1-.2.1-.3.1h-1.7V67c0 .6.1.9.3 1.2.2.2.5.3.8.3.3 0 .4 0 .6-.1h.3c.1 0 .2.1.3.4s.1.4.1.6c0 .4-.5.6-1.5.6-.6-.1-1.2-.3-1.7-.7zM221.5 69.1c-.6-.5-.9-1.3-.9-2.2 0-1.1.3-1.8 1-2.4.6-.5 1.4-.9 2.3-1 .9-.2 2-.2 3.4-.2v-.9c0-.5-.2-.9-.5-1.2-.3-.3-.9-.5-1.7-.5-.6 0-1.1.1-1.5.2-.4.1-.8.3-1.1.4-.3.1-.5.2-.5.2-.1 0-.3-.1-.4-.4-.2-.3-.2-.5-.2-.6 0-.2.2-.4.5-.6.4-.2.8-.4 1.4-.5.6-.1 1.2-.2 1.8-.2 1.2 0 2.2.3 2.9.8s1 1.3 1 2.3v4.5c0 .9 0 1.5.1 1.9.1.4.1.6.1.6 0 .2-.1.3-.4.4-.3.1-.5.1-.7.1-.2 0-.3-.1-.4-.3-.1-.2-.2-.4-.2-.6 0-.2-.1-.4-.1-.4-.9 1-2 1.5-3.4 1.5-1-.1-1.8-.4-2.5-.9zm4.3-1c.5-.2 1-.6 1.5-1v-2.4c-1 0-1.8.1-2.5.1-.6.1-1.2.3-1.7.6s-.7.8-.7 1.4c0 .5.1.9.4 1.2.3.3.7.4 1.3.4.6 0 1.2-.1 1.7-.3zM232.9 69.3c-.5-.4-.8-1.1-.8-2.1v-12c0-.3.3-.4.8-.4h.1c.5 0 .8.1.8.4V67c0 .6.1.9.3 1.2.2.2.5.3.8.3.3 0 .4 0 .6-.1h.3c.1 0 .2.1.3.4s.1.4.1.6c0 .4-.5.6-1.5.6-.6-.1-1.2-.3-1.8-.7zM238.7 68.5c-.8-.9-1.2-2.2-1.2-3.9 0-1.7.4-3.1 1.2-4 .8-.9 1.9-1.4 3.4-1.4s2.6.5 3.4 1.4c.8.9 1.2 2.3 1.2 4 0 1.7-.4 3.1-1.1 4s-1.9 1.4-3.4 1.4c-1.5-.1-2.7-.6-3.5-1.5zm5.6-1c.5-.6.7-1.6.7-3 0-1.3-.2-2.3-.7-3-.5-.6-1.2-1-2.2-1-1 0-1.7.3-2.1 1-.5.6-.7 1.6-.7 3 0 1.3.2 2.3.7 3 .5.6 1.2 1 2.1 1 1 0 1.7-.4 2.2-1zM249.9 73.4c-.7-.4-1.1-1-1.1-1.9 0-.6.2-1.1.5-1.5.3-.4.8-.8 1.3-1-.5-.4-.8-1-.8-1.6 0-.9.4-1.6 1.1-2.1-.6-.3-1-.7-1.3-1.2-.3-.5-.4-1-.4-1.7 0-.9.3-1.7 1-2.3.7-.6 1.7-.9 2.9-.9.4 0 .8 0 1.2.1h3.6c.1 0 .2 0 .3.1s.1.2.1.5v.2c0 .2 0 .4-.1.5-.1.1-.2.1-.3.1-.5 0-1 0-1.4-.1.3.5.5 1.1.5 1.7 0 1-.3 1.7-1 2.4-.7.6-1.7.9-2.9.9-.6 0-1.1.1-1.4.3-.3.2-.5.6-.5 1 0 .3.1.6.3.8.2.2.5.3.8.4.3.1.8.2 1.4.2.3 0 .5.1.7.1 1 .1 1.7.3 2.2.7.5.3.8.9.8 1.7 0 1-.4 1.7-1.2 2.2-.8.5-1.9.8-3.4.8-1.2.2-2.2 0-2.9-.4zm5.3-1.1c.4-.2.7-.6.7-1.1 0-.5-.2-.8-.7-.9s-1.1-.3-2-.4c-.8-.1-1.3-.2-1.6-.3-.9.4-1.3.9-1.3 1.6 0 1 1 1.4 2.9 1.4.8 0 1.5-.1 2-.3zm-.3-8.4c.4-.3.7-.8.7-1.5 0-1.3-.8-1.9-2.4-1.9-1.6 0-2.4.6-2.4 1.9 0 1.3.8 1.9 2.4 1.9.6.1 1.2-.1 1.7-.4zM261.1 69c-.6-.6-.9-1.4-.9-2.4v-6.9c0-.3.3-.4.8-.4h.1c.5 0 .8.1.8.4v6.8c0 .6.2 1.1.5 1.4.4.3.9.5 1.5.5.5 0 .9-.1 1.3-.4.4-.3.8-.6 1.2-1v-7.3c0-.3.3-.4.8-.4h.1c.5 0 .8.1.8.4v7.1c0 .9 0 1.5.1 1.9.1.4.1.6.1.6 0 .2-.1.3-.4.4s-.5.1-.7.1c-.2 0-.3-.1-.4-.3-.1-.2-.2-.4-.2-.6 0-.2-.1-.4-.1-.4-.4.5-.9.8-1.5 1.1s-1.1.4-1.7.4c-.8-.1-1.6-.4-2.2-1zM272.2 69.7c-.5-.1-.9-.3-1.2-.5s-.4-.4-.4-.5c0-.1.1-.3.2-.6.2-.3.3-.4.4-.4l.4.2c.2.1.5.3.9.4.3.1.7.2 1.1.2 1.3 0 2-.5 2-1.6 0-.5-.1-.8-.4-1.1-.3-.3-.8-.5-1.6-.7-1.1-.3-1.8-.7-2.2-1.1s-.6-1.1-.6-1.9c0-.6.1-1.1.4-1.5.3-.4.7-.8 1.2-1 .5-.2 1.1-.4 1.7-.4.7 0 1.3.1 1.8.3s.8.4.8.6c0 .2-.1.4-.2.7s-.3.4-.4.4c0 0-.2-.1-.5-.3-.3-.2-.7-.2-1.3-.2-.5 0-.9.1-1.3.3s-.5.5-.5.9c0 .5.1.8.4 1.1.2.3.6.5 1.2.7.9.3 1.5.5 1.9.8.4.3.8.6 1 1 .2.4.3.9.3 1.5s-.2 1.1-.5 1.6-.7.8-1.3 1.1-1.1.4-1.8.4c-.5-.1-1-.2-1.5-.4z"/></g></svg>