<svg xmlns="http://www.w3.org/2000/svg" viewBox="0 0 226.8 226.8"><style>.st0{fill:#39870c}</style><g id="Icoon"><path class="st0" d="M207 106c1-11.5-6-22.1-16.8-27.4 6.2-3.4 10.6-9.2 11.2-16.2 1-11.7-9-22.1-22.2-23.2-1.1-6.4-4.6-12.5-10.7-17.1-13-9.9-32.4-8.8-43.2 2.5-2.9 3.1-4.9 6.5-6 10.2-8.1-1.4-17.6 1.3-24.7 7.8-6.3 5.9-9.1 13.3-8.2 20-1.3-.3-2.7-.6-4.1-.7-13.3-1.1-24.8 7.5-25.8 19.3-.7 8.2 4 15.6 11.4 19.8-.4.3-.8.5-1.2.8-9.6 8-8.3 22.9 2.8 33.3 5.2 4.8 11.6 7.7 18 8.7l.1.1c.5.4 12.3 10.6 16.6 13.4 3.2 2.1 5.6 3 6.7 3.4.7 1.4 2.6 6.1 2.1 13.5-1.4 21.5-2.7 24.8-6.5 27.3-3.7 2.5 28.7 5.7 25.9 2.2-3.2-4.1-7.8-9.8-7.5-28.5.2-9.3 1-12.4 1.4-13.4 10.7 2 16.2-3.8 18.6-7.9 9 4.7 21.1 5.1 31.4 0 11.4-5.6 17.4-16.3 16.1-26.4 8.2-4.7 13.8-12.4 14.6-21.5zm-93.5 46.3c-3.1.8-9.6-4.3-14.4-9.1 2.9-.8 5.6-2.1 7.9-4 .6-.5 1-1.1 1.5-1.6 1.5.8 3.1 1.6 4.8 2.3.9 6.2 1 11.6.2 12.4zm10-.1c-2.5 0-2.5-4.1-2.4-5 0-1-.1-2.9-.3-4.8 2.6.7 5.3 1.2 8.1 1.6-1.6 4.2-4 8.3-5.4 8.2zm12.3 3.2c-1.8 1.2-5.2 1.1-5.7.9.1-1 3.1-5.6 6.1-9.8 1 1.4 2.2 2.7 3.5 3.8-.6 1.3-1.9 3.7-3.9 5.1z"/><circle cx="59.3" cy="167.8" r="42.5" fill="#fff" stroke="#39870c" stroke-width="4" stroke-miterlimit="10"/><path class="st0" d="M39.3 172.3c-.7 0-1.2-.2-1.5-.5-.3-.3-.4-1-.4-1.9v-.7c0-2.1.6-3.2 1.9-3.2h40c.7 0 1.2.2 1.5.7.3.4.4 1.2.4 2.2v.7c0 1-.1 1.7-.4 2.2-.3.4-.8.7-1.5.7h-40z"/></g></svg>