<svg xmlns="http://www.w3.org/2000/svg" viewBox="0 0 226.8 226.8"><style>.st0{fill:#39870c}</style><g id="Icoon"><path class="st0" d="M17.1 96.3l11.4.1v102.5c0 2.2 1.8 4.1 4.1 4.1h162.8c2.2 0 4.1-1.8 4.1-4.1V96.2l11.4.1c1.4-1.8 1.1-5-.7-6.4L186.1 71V43h2.8c.5-.7.7-5.9 0-6.4l-46.7-.1-25.8-20c-1.5-1.1-3.5-1.1-5.1 0L17.8 89.9c-1.8 1.3-2.1 4.6-.7 6.4z"/><circle cx="58.7" cy="168" r="42.5" fill="#fff" stroke="#39870c" stroke-width="4" stroke-miterlimit="10"/><path class="st0" d="M56.3 190.9c-.4-.3-.7-.8-.7-1.4v-16.9H38.7c-.7 0-1.2-.2-1.5-.5-.3-.3-.4-1-.4-1.9v-.7c0-2.1.6-3.2 1.9-3.2h16.9v-16.9c0-.7.2-1.2.7-1.5.4-.3 1.2-.4 2.2-.4h.7c1 0 1.7.2 2.2.5.4.3.7.8.7 1.4v16.9h16.8c.7 0 1.2.2 1.5.7.3.4.4 1.2.4 2.2v.7c0 1-.1 1.7-.4 2.2-.3.4-.8.7-1.5.7h-17v16.9c0 .6-.2 1.1-.7 1.4-.4.3-1.2.5-2.2.5h-.7c-.9-.3-1.6-.4-2-.7z"/></g></svg>