<svg xmlns="http://www.w3.org/2000/svg" viewBox="0 0 226.8 226.8"><style>.st0{fill:#39870c}.st1{fill:#fff}.st5{fill:none}</style><g id="Icoon"><path class="st5" d="M21.3 14.7h188.4v188.4H21.3z"/><path class="st0" d="M135.9 153.9h-12.3v-8.2h4.1c6.8 0 12.3-5.5 12.3-12.3V117c0-3.6-1.2-7.1-3.4-9.9L113 76.7c-2.3-3-5.9-4.7-9.7-4.7H45.9c-6.8 0-12.3 5.5-12.3 12.3v49.1c0 6.8 5.5 12.3 12.3 12.3h12.3v8.2H45.9c-13.5 0-24.6 11-24.6 24.6s11 24.6 24.6 24.6H136c13.5 0 24.6-11 24.6-24.6s-11.1-24.6-24.7-24.6z"/><path class="st1" d="M103.3 80.2c1.2 0 2.5.6 3.2 1.6l23.6 30.4c1.1 1.4 1.7 3.1 1.7 4.9H98.1l-10-36.9h15.2z"/><path class="st0" d="M66.3 145.7h49.1v8.2H66.3z"/><circle class="st0" cx="45.9" cy="178.5" r="8.2"/><circle class="st0" cx="70.4" cy="178.5" r="8.2"/><circle class="st1" cx="111.4" cy="178.5" r="8.2"/><circle class="st1" cx="135.9" cy="178.5" r="8.2"/><path class="st5" d="M21.3 14.7h188.4v188.4H21.3z"/><path class="st0" d="M197.4 140.1v-3.7c2.4-1.4 4.1-4 4.1-7.1 0-3-1.7-5.6-4.1-7.1V18.8v-.2c0-.4-.1-.8-.2-1.2 0-.1-.1-.2-.1-.3 0-.1 0-.2-.1-.2-.2-.3-.4-.7-.7-.9l-.1-.1c-.3-.3-.7-.5-1-.7-.1-.1-.2-.1-.4-.2-.4-.2-.9-.3-1.4-.3H177c-1.1 0-2.1.4-2.9 1.2l-57.7 58.5 5.1 6.5 15.4-15.7 2.8 26.6-4.5 6.8 4.7 6c.2.3.4.6.6.8l48.8-73.2v90c-2.4 1.4-4.1 4-4.1 7.1 0 3 1.7 5.6 4.1 7.1v3.7c-8.2 1.9-14.3 9.2-14.3 17.9 0 10.2 8.2 18.4 18.4 18.4s18.4-8.2 18.4-18.4c-.1-8.8-6.2-16.1-14.4-17.9z"/><path class="st1" d="M146.7 81.1l-2.1-20.4 16.5-1.1zM149.7 52.2L163 38.7l1 12.5zM171.6 43.8l-1-12.8 8-8.1h7z"/><g><circle cx="58.8" cy="168" r="42.5" fill="#fff" stroke="#39870c" stroke-width="4" stroke-miterlimit="10"/><path class="st0" d="M38.9 172.6c-.7 0-1.2-.2-1.5-.5-.3-.3-.4-1-.4-1.9v-.7c0-2.1.6-3.2 1.9-3.2h40c.7 0 1.2.2 1.5.7.3.4.4 1.2.4 2.2v.7c0 1-.1 1.7-.4 2.2-.3.4-.8.7-1.5.7h-40z"/></g></g></svg>