<?xml version="1.0" encoding="utf-8"?>
<!-- Generator: Adobe Illustrator 22.0.1, SVG Export Plug-In . SVG Version: 6.00 Build 0)  -->
<svg version="1.1" id="Layer_1" xmlns="http://www.w3.org/2000/svg" xmlns:xlink="http://www.w3.org/1999/xlink" x="0px" y="0px"
	 viewBox="0 0 576 512" style="enable-background:new 0 0 576 512;" xml:space="preserve">
<style type="text/css">
	.st0{fill:#39870C;}
</style>
<path class="st0" d="M576,24v128c0,21.5-26,32-41,17l-35.7-35.7L255.8,376.8c-9.4,9.4-24.6,9.4-33.9,0l-22.6-22.6
	c-9.4-9.4-9.4-24.6,0-33.9L442.8,76.7L407.1,41C392,25.9,402.7,0,424,0h128C565.3,0,576,10.7,576,24z M407,270.8l-16,16
	c-4.5,4.5-7,10.6-7,17V448H64V128h264c6.4,0,12.5-2.5,17-7l16-16c15.1-15.1,4.4-41-17-41H48C21.5,64,0,85.5,0,112v352
	c0,26.5,21.5,48,48,48h352c26.5,0,48-21.5,48-48V287.8C448,266.4,422.1,255.7,407,270.8z"/>
</svg>
