<?xml version="1.0" encoding="UTF-8"?>
<svg width="269px" height="40px" viewBox="0 0 269 40" version="1.1" xmlns="http://www.w3.org/2000/svg" xmlns:xlink="http://www.w3.org/1999/xlink">
    <title>Aanvragen</title>
    <g id="Aanvragen" stroke="none" stroke-width="1" fill="none" fill-rule="evenodd">
        <path d="M2.74,28.04 C3.23333333,28.04 3.52666667,27.9133333 3.62,27.66 L3.62,27.66 L4.54,24.92 L9.66,24.92 L10.58,27.66 C10.6733333,27.9133333 11.0133333,28.04 11.6,28.04 L11.6,28.04 L12.22,28.04 C12.86,28.04 13.18,27.9066667 13.18,27.64 C13.18,27.5466667 13.16,27.4333333 13.12,27.3 L13.12,27.3 L8.6,14.34 C8.50666667,14.0866667 8.16666667,13.96 7.58,13.96 L7.58,13.96 L6.7,13.96 C6.1,13.96 5.76,14.0866667 5.68,14.34 L5.68,14.34 L1.16,27.3 C1.10666667,27.4866667 1.08,27.6 1.08,27.64 C1.08,27.9066667 1.44666667,28.04 2.18,28.04 L2.18,28.04 L2.74,28.04 Z M8.9,22.68 L5.28,22.68 L6.78,18.28 C6.86,18.0666667 6.92666667,17.8266667 6.98,17.56 C7.03333333,17.2933333 7.06666667,17.12 7.08,17.04 L7.08,17.04 L7.16,17.04 C7.24,17.56 7.33333333,17.9733333 7.44,18.28 L7.44,18.28 L8.9,22.68 Z M17.26,28.14 C18.02,28.14 18.6566667,27.98 19.17,27.66 C19.6833333,27.34 20.08,27 20.36,26.64 C20.3733333,26.72 20.4033333,26.8733333 20.45,27.1 C20.4966667,27.3266667 20.5666667,27.5366667 20.66,27.73 C20.7533333,27.9233333 20.9066667,28.02 21.12,28.02 C21.4666667,28.02 21.86,27.97 22.3,27.87 C22.74,27.77 22.96,27.6266667 22.96,27.44 C22.96,27.3466667 22.92,27.09 22.84,26.67 C22.76,26.25 22.72,25.5866667 22.72,24.68 L22.72,24.68 L22.72,20.66 C22.72,19.6466667 22.3766667,18.85 21.69,18.27 C21.0033333,17.69 19.9533333,17.4 18.54,17.4 C17.86,17.4 17.2266667,17.4666667 16.64,17.6 C16.0533333,17.7333333 15.59,17.9033333 15.25,18.11 C14.91,18.3166667 14.74,18.5266667 14.74,18.74 C14.74,18.9266667 14.85,19.2066667 15.07,19.58 C15.29,19.9533333 15.4866667,20.14 15.66,20.14 C15.7,20.14 15.86,20.0766667 16.14,19.95 C16.42,19.8233333 16.7466667,19.7033333 17.12,19.59 C17.4933333,19.4766667 17.9266667,19.42 18.42,19.42 C19.6066667,19.42 20.2,19.86 20.2,20.74 L20.2,20.74 L20.2,21.5 C16.16,21.5133333 14.14,22.7466667 14.14,25.2 C14.14,26.1066667 14.4066667,26.8233333 14.94,27.35 C15.4733333,27.8766667 16.2466667,28.14 17.26,28.14 Z M17.94,26.12 C17.54,26.12 17.2333333,26.0166667 17.02,25.81 C16.8066667,25.6033333 16.7,25.32 16.7,24.96 C16.7,24.3333333 17.01,23.8966667 17.63,23.65 C18.25,23.4033333 19.1066667,23.28 20.2,23.28 L20.2,23.28 L20.2,24.8 C19.9333333,25.1866667 19.6066667,25.5033333 19.22,25.75 C18.8333333,25.9966667 18.4066667,26.12 17.94,26.12 Z M27.02,28.04 C27.7266667,28.04 28.08,27.8466667 28.08,27.46 L28.08,27.46 L28.08,20.74 C28.2933333,20.3933333 28.57,20.1 28.91,19.86 C29.25,19.62 29.6133333,19.5 30,19.5 C31,19.5 31.5,19.9933333 31.5,20.98 L31.5,20.98 L31.5,27.46 C31.5,27.8466667 31.8533333,28.04 32.56,28.04 L32.56,28.04 L32.94,28.04 C33.3133333,28.04 33.5833333,27.9933333 33.75,27.9 C33.9166667,27.8066667 34,27.66 34,27.46 L34,27.46 L34,20.64 C34,18.48 32.9866667,17.4 30.96,17.4 C30.3733333,17.4 29.81,17.54 29.27,17.82 C28.73,18.1 28.2866667,18.46 27.94,18.9 C27.9266667,18.8333333 27.8966667,18.6966667 27.85,18.49 C27.8033333,18.2833333 27.7333333,18.0833333 27.64,17.89 C27.5466667,17.6966667 27.3866667,17.6 27.16,17.6 C26.8133333,17.6 26.42,17.65 25.98,17.75 C25.54,17.85 25.32,17.9933333 25.32,18.18 C25.32,18.2733333 25.36,18.5266667 25.44,18.94 C25.52,19.3533333 25.56,20.0066667 25.56,20.9 L25.56,20.9 L25.56,27.46 C25.56,27.8466667 25.9133333,28.04 26.62,28.04 L26.62,28.04 L27.02,28.04 Z M40.48,28.04 C41.0666667,28.04 41.4066667,27.9133333 41.5,27.66 L41.5,27.66 L44.7,18.24 C44.74,18.0933333 44.76,17.98 44.76,17.9 C44.76,17.6333333 44.4066667,17.5 43.7,17.5 L43.7,17.5 L43.36,17.5 C42.7733333,17.5 42.4333333,17.6266667 42.34,17.88 L42.34,17.88 L41.02,22.04 C40.6866667,23.04 40.44,24.06 40.28,25.1 L40.28,25.1 L40.2,25.1 C40.0133333,24.0466667 39.7733333,23.0666667 39.48,22.16 L39.48,22.16 L38.12,17.88 C38.0266667,17.6266667 37.6933333,17.5 37.12,17.5 L37.12,17.5 L36.64,17.5 C35.92,17.5 35.56,17.6333333 35.56,17.9 C35.56,17.9666667 35.5666667,18.03 35.58,18.09 C35.5933333,18.15 35.6066667,18.2 35.62,18.24 L35.62,18.24 L38.82,27.66 C38.9133333,27.9133333 39.2466667,28.04 39.82,28.04 L39.82,28.04 L40.48,28.04 Z M47.88,28.04 C48.6,28.04 48.96,27.8466667 48.96,27.46 L48.96,27.46 L48.96,20.74 C49.08,20.5266667 49.2933333,20.2933333 49.6,20.04 C49.9066667,19.7866667 50.2533333,19.66 50.64,19.66 C50.84,19.66 51.0366667,19.69 51.23,19.75 C51.4233333,19.81 51.5533333,19.84 51.62,19.84 C51.78,19.84 51.9133333,19.66 52.02,19.3 C52.1266667,18.94 52.18,18.6266667 52.18,18.36 C52.18,18.04 52.0966667,17.8 51.93,17.64 C51.7633333,17.48 51.46,17.4 51.02,17.4 C50.1533333,17.4 49.4133333,17.9 48.8,18.9 C48.7866667,18.82 48.7566667,18.6766667 48.71,18.47 C48.6633333,18.2633333 48.5933333,18.0666667 48.5,17.88 C48.4066667,17.6933333 48.2533333,17.6 48.04,17.6 C47.6933333,17.6 47.3,17.65 46.86,17.75 C46.42,17.85 46.2,17.9933333 46.2,18.18 C46.2,18.2733333 46.24,18.5266667 46.32,18.94 C46.4,19.3533333 46.44,20.0066667 46.44,20.9 L46.44,20.9 L46.44,27.46 C46.44,27.8466667 46.7933333,28.04 47.5,28.04 L47.5,28.04 L47.88,28.04 Z M55.92,28.14 C56.68,28.14 57.3166667,27.98 57.83,27.66 C58.3433333,27.34 58.74,27 59.02,26.64 C59.0333333,26.72 59.0633333,26.8733333 59.11,27.1 C59.1566667,27.3266667 59.2266667,27.5366667 59.32,27.73 C59.4133333,27.9233333 59.5666667,28.02 59.78,28.02 C60.1266667,28.02 60.52,27.97 60.96,27.87 C61.4,27.77 61.62,27.6266667 61.62,27.44 C61.62,27.3466667 61.58,27.09 61.5,26.67 C61.42,26.25 61.38,25.5866667 61.38,24.68 L61.38,24.68 L61.38,20.66 C61.38,19.6466667 61.0366667,18.85 60.35,18.27 C59.6633333,17.69 58.6133333,17.4 57.2,17.4 C56.52,17.4 55.8866667,17.4666667 55.3,17.6 C54.7133333,17.7333333 54.25,17.9033333 53.91,18.11 C53.57,18.3166667 53.4,18.5266667 53.4,18.74 C53.4,18.9266667 53.51,19.2066667 53.73,19.58 C53.95,19.9533333 54.1466667,20.14 54.32,20.14 C54.36,20.14 54.52,20.0766667 54.8,19.95 C55.08,19.8233333 55.4066667,19.7033333 55.78,19.59 C56.1533333,19.4766667 56.5866667,19.42 57.08,19.42 C58.2666667,19.42 58.86,19.86 58.86,20.74 L58.86,20.74 L58.86,21.5 C54.82,21.5133333 52.8,22.7466667 52.8,25.2 C52.8,26.1066667 53.0666667,26.8233333 53.6,27.35 C54.1333333,27.8766667 54.9066667,28.14 55.92,28.14 Z M56.6,26.12 C56.2,26.12 55.8933333,26.0166667 55.68,25.81 C55.4666667,25.6033333 55.36,25.32 55.36,24.96 C55.36,24.3333333 55.67,23.8966667 56.29,23.65 C56.91,23.4033333 57.7666667,23.28 58.86,23.28 L58.86,23.28 L58.86,24.8 C58.5933333,25.1866667 58.2666667,25.5033333 57.88,25.75 C57.4933333,25.9966667 57.0666667,26.12 56.6,26.12 Z M68,32.24 C69.56,32.24 70.7866667,31.9466667 71.68,31.36 C72.5733333,30.7733333 73.02,29.98 73.02,28.98 C73.02,28.0866667 72.74,27.4366667 72.18,27.03 C71.62,26.6233333 70.8533333,26.3333333 69.88,26.16 L69.88,26.16 L69.04,26.04 C68.2533333,25.9466667 67.6733333,25.8366667 67.3,25.71 C66.9266667,25.5833333 66.74,25.36 66.74,25.04 C66.74,24.7333333 66.85,24.5166667 67.07,24.39 C67.29,24.2633333 67.6933333,24.2 68.28,24.2 C69.5066667,24.2 70.4866667,23.91 71.22,23.33 C71.9533333,22.75 72.32,21.92 72.32,20.84 C72.32,20.5733333 72.2766667,20.3166667 72.19,20.07 C72.1033333,19.8233333 71.98,19.6066667 71.82,19.42 L71.82,19.42 L71.84,19.36 C71.9733333,19.4 72.1633333,19.4366667 72.41,19.47 C72.6566667,19.5033333 72.8533333,19.52 73,19.52 C73.16,19.52 73.2766667,19.4566667 73.35,19.33 C73.4233333,19.2033333 73.46,18.9933333 73.46,18.7 L73.46,18.7 L73.46,18.4 C73.46,18.0933333 73.4166667,17.8733333 73.33,17.74 C73.2433333,17.6066667 73.1066667,17.54 72.92,17.54 L72.92,17.54 L69.56,17.54 C69.1466667,17.4466667 68.6733333,17.4 68.14,17.4 C66.8733333,17.4 65.8633333,17.6933333 65.11,18.28 C64.3566667,18.8666667 63.98,19.72 63.98,20.84 C63.98,21.5066667 64.1233333,22.0766667 64.41,22.55 C64.6966667,23.0233333 65.1,23.4 65.62,23.68 C64.8466667,24.1333333 64.46,24.7466667 64.46,25.52 C64.46,26.2266667 64.74,26.7466667 65.3,27.08 L65.3,27.08 L65.28,27.14 C64.72,27.3666667 64.28,27.6866667 63.96,28.1 C63.64,28.5133333 63.48,28.9866667 63.48,29.52 C63.48,31.3333333 64.9866667,32.24 68,32.24 Z M68.14,22.32 C67.6066667,22.32 67.1766667,22.2 66.85,21.96 C66.5233333,21.72 66.36,21.3333333 66.36,20.8 C66.36,20.28 66.5233333,19.8966667 66.85,19.65 C67.1766667,19.4033333 67.6066667,19.28 68.14,19.28 C68.6733333,19.28 69.1066667,19.4033333 69.44,19.65 C69.7733333,19.8966667 69.94,20.28 69.94,20.8 C69.94,21.32 69.7733333,21.7033333 69.44,21.95 C69.1066667,22.1966667 68.6733333,22.32 68.14,22.32 Z M68.22,30.24 C67.42,30.24 66.8333333,30.1433333 66.46,29.95 C66.0866667,29.7566667 65.9,29.4733333 65.9,29.1 C65.9,28.82 66,28.57 66.2,28.35 C66.4,28.13 66.6733333,27.9533333 67.02,27.82 L67.02,27.82 L67.84,27.92 C68.8266667,28.0266667 69.53,28.15 69.95,28.29 C70.37,28.43 70.58,28.6866667 70.58,29.06 C70.58,29.8466667 69.7933333,30.24 68.22,30.24 Z M79.38,28.14 C79.8733333,28.14 80.4033333,28.08 80.97,27.96 C81.5366667,27.84 82.0133333,27.6733333 82.4,27.46 C82.7866667,27.2466667 82.98,27.0133333 82.98,26.76 C82.98,26.5733333 82.87,26.3033333 82.65,25.95 C82.43,25.5966667 82.2333333,25.42 82.06,25.42 C82.0066667,25.42 81.8733333,25.4666667 81.66,25.56 C80.9133333,25.9333333 80.18,26.12 79.46,26.12 C78.66,26.12 78.05,25.9233333 77.63,25.53 C77.21,25.1366667 76.9666667,24.5 76.9,23.62 L76.9,23.62 L82.42,23.62 C82.54,23.62 82.72,23.4833333 82.96,23.21 C83.2,22.9366667 83.32,22.7266667 83.32,22.58 C83.32,20.9933333 82.97,19.7333333 82.27,18.8 C81.57,17.8666667 80.5,17.4 79.06,17.4 C77.54,17.4 76.3633333,17.8466667 75.53,18.74 C74.6966667,19.6333333 74.28,21 74.28,22.84 C74.28,24.5466667 74.7,25.8566667 75.54,26.77 C76.38,27.6833333 77.66,28.14 79.38,28.14 Z M80.82,21.84 L76.9,21.84 C77.0866667,20.2266667 77.8,19.42 79.04,19.42 C79.6266667,19.42 80.07,19.6333333 80.37,20.06 C80.67,20.4866667 80.82,21.08 80.82,21.84 L80.82,21.84 Z M86.98,28.04 C87.6866667,28.04 88.04,27.8466667 88.04,27.46 L88.04,27.46 L88.04,20.74 C88.2533333,20.3933333 88.53,20.1 88.87,19.86 C89.21,19.62 89.5733333,19.5 89.96,19.5 C90.96,19.5 91.46,19.9933333 91.46,20.98 L91.46,20.98 L91.46,27.46 C91.46,27.8466667 91.8133333,28.04 92.52,28.04 L92.52,28.04 L92.9,28.04 C93.2733333,28.04 93.5433333,27.9933333 93.71,27.9 C93.8766667,27.8066667 93.96,27.66 93.96,27.46 L93.96,27.46 L93.96,20.64 C93.96,18.48 92.9466667,17.4 90.92,17.4 C90.3333333,17.4 89.77,17.54 89.23,17.82 C88.69,18.1 88.2466667,18.46 87.9,18.9 C87.8866667,18.8333333 87.8566667,18.6966667 87.81,18.49 C87.7633333,18.2833333 87.6933333,18.0833333 87.6,17.89 C87.5066667,17.6966667 87.3466667,17.6 87.12,17.6 C86.7733333,17.6 86.38,17.65 85.94,17.75 C85.5,17.85 85.28,17.9933333 85.28,18.18 C85.28,18.2733333 85.32,18.5266667 85.4,18.94 C85.48,19.3533333 85.52,20.0066667 85.52,20.9 L85.52,20.9 L85.52,27.46 C85.52,27.8466667 85.8733333,28.04 86.58,28.04 L86.58,28.04 L86.98,28.04 Z" fill="#275937" fill-rule="nonzero"></path>
    </g>
</svg>