<?xml version="1.0" encoding="UTF-8"?>
<svg width="269px" height="40px" viewBox="0 0 269 40" version="1.1" xmlns="http://www.w3.org/2000/svg" xmlns:xlink="http://www.w3.org/1999/xlink">
    <title>Vergunningcheck</title>
    <g id="Vergunningcheck" stroke="none" stroke-width="1" fill="none" fill-rule="evenodd">
        <path d="M7.62,28.04 C8.20666667,28.04 8.54666667,27.9133333 8.64,27.66 L8.64,27.66 L13.04,14.7 C13.08,14.5533333 13.1,14.44 13.1,14.36 C13.1,14.0933333 12.74,13.96 12.02,13.96 L12.02,13.96 L11.6,13.96 C11.0133333,13.96 10.6666667,14.12 10.56,14.44 L10.56,14.44 L7.72,23.02 C7.48,23.7533333 7.32,24.3733333 7.24,24.88 L7.24,24.88 L7.18,24.88 C7.12666667,24.4666667 6.97333333,23.8466667 6.72,23.02 L6.72,23.02 L3.9,14.44 C3.79333333,14.12 3.44666667,13.96 2.86,13.96 L2.86,13.96 L2.34,13.96 C1.60666667,13.96 1.24,14.0933333 1.24,14.36 C1.24,14.4 1.26666667,14.5133333 1.32,14.7 L1.32,14.7 L5.72,27.66 C5.81333333,27.9133333 6.14666667,28.04 6.72,28.04 L6.72,28.04 L7.62,28.04 Z M18.58,28.14 C19.0733333,28.14 19.6033333,28.08 20.17,27.96 C20.7366667,27.84 21.2133333,27.6733333 21.6,27.46 C21.9866667,27.2466667 22.18,27.0133333 22.18,26.76 C22.18,26.5733333 22.07,26.3033333 21.85,25.95 C21.63,25.5966667 21.4333333,25.42 21.26,25.42 C21.2066667,25.42 21.0733333,25.4666667 20.86,25.56 C20.1133333,25.9333333 19.38,26.12 18.66,26.12 C17.86,26.12 17.25,25.9233333 16.83,25.53 C16.41,25.1366667 16.1666667,24.5 16.1,23.62 L16.1,23.62 L21.62,23.62 C21.74,23.62 21.92,23.4833333 22.16,23.21 C22.4,22.9366667 22.52,22.7266667 22.52,22.58 C22.52,20.9933333 22.17,19.7333333 21.47,18.8 C20.77,17.8666667 19.7,17.4 18.26,17.4 C16.74,17.4 15.5633333,17.8466667 14.73,18.74 C13.8966667,19.6333333 13.48,21 13.48,22.84 C13.48,24.5466667 13.9,25.8566667 14.74,26.77 C15.58,27.6833333 16.86,28.14 18.58,28.14 Z M20.02,21.84 L16.1,21.84 C16.2866667,20.2266667 17,19.42 18.24,19.42 C18.8266667,19.42 19.27,19.6333333 19.57,20.06 C19.87,20.4866667 20.02,21.08 20.02,21.84 L20.02,21.84 Z M26.2,28.04 C26.92,28.04 27.28,27.8466667 27.28,27.46 L27.28,27.46 L27.28,20.74 C27.4,20.5266667 27.6133333,20.2933333 27.92,20.04 C28.2266667,19.7866667 28.5733333,19.66 28.96,19.66 C29.16,19.66 29.3566667,19.69 29.55,19.75 C29.7433333,19.81 29.8733333,19.84 29.94,19.84 C30.1,19.84 30.2333333,19.66 30.34,19.3 C30.4466667,18.94 30.5,18.6266667 30.5,18.36 C30.5,18.04 30.4166667,17.8 30.25,17.64 C30.0833333,17.48 29.78,17.4 29.34,17.4 C28.4733333,17.4 27.7333333,17.9 27.12,18.9 C27.1066667,18.82 27.0766667,18.6766667 27.03,18.47 C26.9833333,18.2633333 26.9133333,18.0666667 26.82,17.88 C26.7266667,17.6933333 26.5733333,17.6 26.36,17.6 C26.0133333,17.6 25.62,17.65 25.18,17.75 C24.74,17.85 24.52,17.9933333 24.52,18.18 C24.52,18.2733333 24.56,18.5266667 24.64,18.94 C24.72,19.3533333 24.76,20.0066667 24.76,20.9 L24.76,20.9 L24.76,27.46 C24.76,27.8466667 25.1133333,28.04 25.82,28.04 L25.82,28.04 L26.2,28.04 Z M35.22,32.24 C36.78,32.24 38.0066667,31.9466667 38.9,31.36 C39.7933333,30.7733333 40.24,29.98 40.24,28.98 C40.24,28.0866667 39.96,27.4366667 39.4,27.03 C38.84,26.6233333 38.0733333,26.3333333 37.1,26.16 L37.1,26.16 L36.26,26.04 C35.4733333,25.9466667 34.8933333,25.8366667 34.52,25.71 C34.1466667,25.5833333 33.96,25.36 33.96,25.04 C33.96,24.7333333 34.07,24.5166667 34.29,24.39 C34.51,24.2633333 34.9133333,24.2 35.5,24.2 C36.7266667,24.2 37.7066667,23.91 38.44,23.33 C39.1733333,22.75 39.54,21.92 39.54,20.84 C39.54,20.5733333 39.4966667,20.3166667 39.41,20.07 C39.3233333,19.8233333 39.2,19.6066667 39.04,19.42 L39.04,19.42 L39.06,19.36 C39.1933333,19.4 39.3833333,19.4366667 39.63,19.47 C39.8766667,19.5033333 40.0733333,19.52 40.22,19.52 C40.38,19.52 40.4966667,19.4566667 40.57,19.33 C40.6433333,19.2033333 40.68,18.9933333 40.68,18.7 L40.68,18.7 L40.68,18.4 C40.68,18.0933333 40.6366667,17.8733333 40.55,17.74 C40.4633333,17.6066667 40.3266667,17.54 40.14,17.54 L40.14,17.54 L36.78,17.54 C36.3666667,17.4466667 35.8933333,17.4 35.36,17.4 C34.0933333,17.4 33.0833333,17.6933333 32.33,18.28 C31.5766667,18.8666667 31.2,19.72 31.2,20.84 C31.2,21.5066667 31.3433333,22.0766667 31.63,22.55 C31.9166667,23.0233333 32.32,23.4 32.84,23.68 C32.0666667,24.1333333 31.68,24.7466667 31.68,25.52 C31.68,26.2266667 31.96,26.7466667 32.52,27.08 L32.52,27.08 L32.5,27.14 C31.94,27.3666667 31.5,27.6866667 31.18,28.1 C30.86,28.5133333 30.7,28.9866667 30.7,29.52 C30.7,31.3333333 32.2066667,32.24 35.22,32.24 Z M35.36,22.32 C34.8266667,22.32 34.3966667,22.2 34.07,21.96 C33.7433333,21.72 33.58,21.3333333 33.58,20.8 C33.58,20.28 33.7433333,19.8966667 34.07,19.65 C34.3966667,19.4033333 34.8266667,19.28 35.36,19.28 C35.8933333,19.28 36.3266667,19.4033333 36.66,19.65 C36.9933333,19.8966667 37.16,20.28 37.16,20.8 C37.16,21.32 36.9933333,21.7033333 36.66,21.95 C36.3266667,22.1966667 35.8933333,22.32 35.36,22.32 Z M35.44,30.24 C34.64,30.24 34.0533333,30.1433333 33.68,29.95 C33.3066667,29.7566667 33.12,29.4733333 33.12,29.1 C33.12,28.82 33.22,28.57 33.42,28.35 C33.62,28.13 33.8933333,27.9533333 34.24,27.82 L34.24,27.82 L35.06,27.92 C36.0466667,28.0266667 36.75,28.15 37.17,28.29 C37.59,28.43 37.8,28.6866667 37.8,29.06 C37.8,29.8466667 37.0133333,30.24 35.44,30.24 Z M45.3,28.14 C45.8866667,28.14 46.45,28 46.99,27.72 C47.53,27.44 47.98,27.08 48.34,26.64 C48.3533333,26.72 48.3833333,26.8733333 48.43,27.1 C48.4766667,27.3266667 48.5466667,27.5366667 48.64,27.73 C48.7333333,27.9233333 48.8866667,28.02 49.1,28.02 C49.4466667,28.02 49.84,27.97 50.28,27.87 C50.72,27.77 50.94,27.6266667 50.94,27.44 C50.94,27.3466667 50.9,27.09 50.82,26.67 C50.74,26.25 50.7,25.5866667 50.7,24.68 L50.7,24.68 L50.7,18.08 C50.7,17.6933333 50.3466667,17.5 49.64,17.5 L49.64,17.5 L49.24,17.5 C48.5333333,17.5 48.18,17.6933333 48.18,18.08 L48.18,18.08 L48.18,24.8 C47.9666667,25.1466667 47.69,25.44 47.35,25.68 C47.01,25.92 46.6466667,26.04 46.26,26.04 C45.26,26.04 44.76,25.5466667 44.76,24.56 L44.76,24.56 L44.76,18.08 C44.76,17.6933333 44.4066667,17.5 43.7,17.5 L43.7,17.5 L43.32,17.5 C42.9466667,17.5 42.6766667,17.5466667 42.51,17.64 C42.3433333,17.7333333 42.26,17.88 42.26,18.08 L42.26,18.08 L42.26,24.9 C42.26,27.06 43.2733333,28.14 45.3,28.14 Z M54.96,28.04 C55.6666667,28.04 56.02,27.8466667 56.02,27.46 L56.02,27.46 L56.02,20.74 C56.2333333,20.3933333 56.51,20.1 56.85,19.86 C57.19,19.62 57.5533333,19.5 57.94,19.5 C58.94,19.5 59.44,19.9933333 59.44,20.98 L59.44,20.98 L59.44,27.46 C59.44,27.8466667 59.7933333,28.04 60.5,28.04 L60.5,28.04 L60.88,28.04 C61.2533333,28.04 61.5233333,27.9933333 61.69,27.9 C61.8566667,27.8066667 61.94,27.66 61.94,27.46 L61.94,27.46 L61.94,20.64 C61.94,18.48 60.9266667,17.4 58.9,17.4 C58.3133333,17.4 57.75,17.54 57.21,17.82 C56.67,18.1 56.2266667,18.46 55.88,18.9 C55.8666667,18.8333333 55.8366667,18.6966667 55.79,18.49 C55.7433333,18.2833333 55.6733333,18.0833333 55.58,17.89 C55.4866667,17.6966667 55.3266667,17.6 55.1,17.6 C54.7533333,17.6 54.36,17.65 53.92,17.75 C53.48,17.85 53.26,17.9933333 53.26,18.18 C53.26,18.2733333 53.3,18.5266667 53.38,18.94 C53.46,19.3533333 53.5,20.0066667 53.5,20.9 L53.5,20.9 L53.5,27.46 C53.5,27.8466667 53.8533333,28.04 54.56,28.04 L54.56,28.04 L54.96,28.04 Z M66.1,28.04 C66.8066667,28.04 67.16,27.8466667 67.16,27.46 L67.16,27.46 L67.16,20.74 C67.3733333,20.3933333 67.65,20.1 67.99,19.86 C68.33,19.62 68.6933333,19.5 69.08,19.5 C70.08,19.5 70.58,19.9933333 70.58,20.98 L70.58,20.98 L70.58,27.46 C70.58,27.8466667 70.9333333,28.04 71.64,28.04 L71.64,28.04 L72.02,28.04 C72.3933333,28.04 72.6633333,27.9933333 72.83,27.9 C72.9966667,27.8066667 73.08,27.66 73.08,27.46 L73.08,27.46 L73.08,20.64 C73.08,18.48 72.0666667,17.4 70.04,17.4 C69.4533333,17.4 68.89,17.54 68.35,17.82 C67.81,18.1 67.3666667,18.46 67.02,18.9 C67.0066667,18.8333333 66.9766667,18.6966667 66.93,18.49 C66.8833333,18.2833333 66.8133333,18.0833333 66.72,17.89 C66.6266667,17.6966667 66.4666667,17.6 66.24,17.6 C65.8933333,17.6 65.5,17.65 65.06,17.75 C64.62,17.85 64.4,17.9933333 64.4,18.18 C64.4,18.2733333 64.44,18.5266667 64.52,18.94 C64.6,19.3533333 64.64,20.0066667 64.64,20.9 L64.64,20.9 L64.64,27.46 C64.64,27.8466667 64.9933333,28.04 65.7,28.04 L65.7,28.04 L66.1,28.04 Z M77.06,16.38 C77.9,16.38 78.32,16.1866667 78.32,15.8 L78.32,15.8 L78.32,14.36 C78.32,13.9866667 77.9,13.8 77.06,13.8 C76.2066667,13.8 75.78,13.9866667 75.78,14.36 L75.78,14.36 L75.78,15.8 C75.78,16.1866667 76.2066667,16.38 77.06,16.38 Z M77.24,28.04 C77.9466667,28.04 78.3,27.8466667 78.3,27.46 L78.3,27.46 L78.3,18.08 C78.3,17.6933333 77.9466667,17.5 77.24,17.5 L77.24,17.5 L76.84,17.5 C76.1333333,17.5 75.78,17.6933333 75.78,18.08 L75.78,18.08 L75.78,27.46 C75.78,27.8466667 76.1333333,28.04 76.84,28.04 L76.84,28.04 L77.24,28.04 Z M82.54,28.04 C83.2466667,28.04 83.6,27.8466667 83.6,27.46 L83.6,27.46 L83.6,20.74 C83.8133333,20.3933333 84.09,20.1 84.43,19.86 C84.77,19.62 85.1333333,19.5 85.52,19.5 C86.52,19.5 87.02,19.9933333 87.02,20.98 L87.02,20.98 L87.02,27.46 C87.02,27.8466667 87.3733333,28.04 88.08,28.04 L88.08,28.04 L88.46,28.04 C88.8333333,28.04 89.1033333,27.9933333 89.27,27.9 C89.4366667,27.8066667 89.52,27.66 89.52,27.46 L89.52,27.46 L89.52,20.64 C89.52,18.48 88.5066667,17.4 86.48,17.4 C85.8933333,17.4 85.33,17.54 84.79,17.82 C84.25,18.1 83.8066667,18.46 83.46,18.9 C83.4466667,18.8333333 83.4166667,18.6966667 83.37,18.49 C83.3233333,18.2833333 83.2533333,18.0833333 83.16,17.89 C83.0666667,17.6966667 82.9066667,17.6 82.68,17.6 C82.3333333,17.6 81.94,17.65 81.5,17.75 C81.06,17.85 80.84,17.9933333 80.84,18.18 C80.84,18.2733333 80.88,18.5266667 80.96,18.94 C81.04,19.3533333 81.08,20.0066667 81.08,20.9 L81.08,20.9 L81.08,27.46 C81.08,27.8466667 81.4333333,28.04 82.14,28.04 L82.14,28.04 L82.54,28.04 Z M96,32.24 C97.56,32.24 98.7866667,31.9466667 99.68,31.36 C100.573333,30.7733333 101.02,29.98 101.02,28.98 C101.02,28.0866667 100.74,27.4366667 100.18,27.03 C99.62,26.6233333 98.8533333,26.3333333 97.88,26.16 L97.88,26.16 L97.04,26.04 C96.2533333,25.9466667 95.6733333,25.8366667 95.3,25.71 C94.9266667,25.5833333 94.74,25.36 94.74,25.04 C94.74,24.7333333 94.85,24.5166667 95.07,24.39 C95.29,24.2633333 95.6933333,24.2 96.28,24.2 C97.5066667,24.2 98.4866667,23.91 99.22,23.33 C99.9533333,22.75 100.32,21.92 100.32,20.84 C100.32,20.5733333 100.276667,20.3166667 100.19,20.07 C100.103333,19.8233333 99.98,19.6066667 99.82,19.42 L99.82,19.42 L99.84,19.36 C99.9733333,19.4 100.163333,19.4366667 100.41,19.47 C100.656667,19.5033333 100.853333,19.52 101,19.52 C101.16,19.52 101.276667,19.4566667 101.35,19.33 C101.423333,19.2033333 101.46,18.9933333 101.46,18.7 L101.46,18.7 L101.46,18.4 C101.46,18.0933333 101.416667,17.8733333 101.33,17.74 C101.243333,17.6066667 101.106667,17.54 100.92,17.54 L100.92,17.54 L97.56,17.54 C97.1466667,17.4466667 96.6733333,17.4 96.14,17.4 C94.8733333,17.4 93.8633333,17.6933333 93.11,18.28 C92.3566667,18.8666667 91.98,19.72 91.98,20.84 C91.98,21.5066667 92.1233333,22.0766667 92.41,22.55 C92.6966667,23.0233333 93.1,23.4 93.62,23.68 C92.8466667,24.1333333 92.46,24.7466667 92.46,25.52 C92.46,26.2266667 92.74,26.7466667 93.3,27.08 L93.3,27.08 L93.28,27.14 C92.72,27.3666667 92.28,27.6866667 91.96,28.1 C91.64,28.5133333 91.48,28.9866667 91.48,29.52 C91.48,31.3333333 92.9866667,32.24 96,32.24 Z M96.14,22.32 C95.6066667,22.32 95.1766667,22.2 94.85,21.96 C94.5233333,21.72 94.36,21.3333333 94.36,20.8 C94.36,20.28 94.5233333,19.8966667 94.85,19.65 C95.1766667,19.4033333 95.6066667,19.28 96.14,19.28 C96.6733333,19.28 97.1066667,19.4033333 97.44,19.65 C97.7733333,19.8966667 97.94,20.28 97.94,20.8 C97.94,21.32 97.7733333,21.7033333 97.44,21.95 C97.1066667,22.1966667 96.6733333,22.32 96.14,22.32 Z M96.22,30.24 C95.42,30.24 94.8333333,30.1433333 94.46,29.95 C94.0866667,29.7566667 93.9,29.4733333 93.9,29.1 C93.9,28.82 94,28.57 94.2,28.35 C94.4,28.13 94.6733333,27.9533333 95.02,27.82 L95.02,27.82 L95.84,27.92 C96.8266667,28.0266667 97.53,28.15 97.95,28.29 C98.37,28.43 98.58,28.6866667 98.58,29.06 C98.58,29.8466667 97.7933333,30.24 96.22,30.24 Z M107.24,28.14 C107.64,28.14 108.106667,28.0933333 108.64,28 C109.173333,27.9066667 109.636667,27.7633333 110.03,27.57 C110.423333,27.3766667 110.62,27.1466667 110.62,26.88 C110.62,26.68 110.513333,26.4066667 110.3,26.06 C110.086667,25.7133333 109.886667,25.54 109.7,25.54 C109.66,25.54 109.56,25.5733333 109.4,25.64 C109.053333,25.7866667 108.73,25.9033333 108.43,25.99 C108.13,26.0766667 107.766667,26.12 107.34,26.12 C106.46,26.12 105.826667,25.8466667 105.44,25.3 C105.053333,24.7533333 104.86,23.9 104.86,22.74 C104.86,21.5933333 105.063333,20.7533333 105.47,20.22 C105.876667,19.6866667 106.5,19.42 107.34,19.42 C107.993333,19.42 108.626667,19.5733333 109.24,19.88 C109.426667,19.96 109.526667,20 109.54,20 C109.686667,20 109.876667,19.8166667 110.11,19.45 C110.343333,19.0833333 110.46,18.8066667 110.46,18.62 C110.46,18.26 110.126667,17.9666667 109.46,17.74 C108.793333,17.5133333 108.06,17.4 107.26,17.4 C105.646667,17.4 104.406667,17.84 103.54,18.72 C102.673333,19.6 102.24,20.96 102.24,22.8 C102.24,24.6266667 102.653333,25.9733333 103.48,26.84 C104.306667,27.7066667 105.56,28.14 107.24,28.14 Z M114,28.04 C114.706667,28.04 115.06,27.8466667 115.06,27.46 L115.06,27.46 L115.06,20.74 C115.193333,20.4866667 115.433333,20.2166667 115.78,19.93 C116.126667,19.6433333 116.526667,19.5 116.98,19.5 C117.486667,19.5 117.87,19.63 118.13,19.89 C118.39,20.15 118.52,20.5133333 118.52,20.98 L118.52,20.98 L118.52,27.46 C118.52,27.8466667 118.873333,28.04 119.58,28.04 L119.58,28.04 L119.98,28.04 C120.686667,28.04 121.04,27.8466667 121.04,27.46 L121.04,27.46 L121.04,20.64 C121.04,19.5066667 120.763333,18.6833333 120.21,18.17 C119.656667,17.6566667 118.906667,17.4 117.96,17.4 C117.386667,17.4 116.846667,17.5266667 116.34,17.78 C115.833333,18.0333333 115.406667,18.36 115.06,18.76 L115.06,18.76 L115.06,13.5 C115.06,13.1266667 114.706667,12.94 114,12.94 L114,12.94 L113.6,12.94 C112.893333,12.94 112.54,13.1266667 112.54,13.5 L112.54,13.5 L112.54,27.46 C112.54,27.8466667 112.893333,28.04 113.6,28.04 L113.6,28.04 L114,28.04 Z M128.38,28.14 C128.873333,28.14 129.403333,28.08 129.97,27.96 C130.536667,27.84 131.013333,27.6733333 131.4,27.46 C131.786667,27.2466667 131.98,27.0133333 131.98,26.76 C131.98,26.5733333 131.87,26.3033333 131.65,25.95 C131.43,25.5966667 131.233333,25.42 131.06,25.42 C131.006667,25.42 130.873333,25.4666667 130.66,25.56 C129.913333,25.9333333 129.18,26.12 128.46,26.12 C127.66,26.12 127.05,25.9233333 126.63,25.53 C126.21,25.1366667 125.966667,24.5 125.9,23.62 L125.9,23.62 L131.42,23.62 C131.54,23.62 131.72,23.4833333 131.96,23.21 C132.2,22.9366667 132.32,22.7266667 132.32,22.58 C132.32,20.9933333 131.97,19.7333333 131.27,18.8 C130.57,17.8666667 129.5,17.4 128.06,17.4 C126.54,17.4 125.363333,17.8466667 124.53,18.74 C123.696667,19.6333333 123.28,21 123.28,22.84 C123.28,24.5466667 123.7,25.8566667 124.54,26.77 C125.38,27.6833333 126.66,28.14 128.38,28.14 Z M129.82,21.84 L125.9,21.84 C126.086667,20.2266667 126.8,19.42 128.04,19.42 C128.626667,19.42 129.07,19.6333333 129.37,20.06 C129.67,20.4866667 129.82,21.08 129.82,21.84 L129.82,21.84 Z M138.82,28.14 C139.22,28.14 139.686667,28.0933333 140.22,28 C140.753333,27.9066667 141.216667,27.7633333 141.61,27.57 C142.003333,27.3766667 142.2,27.1466667 142.2,26.88 C142.2,26.68 142.093333,26.4066667 141.88,26.06 C141.666667,25.7133333 141.466667,25.54 141.28,25.54 C141.24,25.54 141.14,25.5733333 140.98,25.64 C140.633333,25.7866667 140.31,25.9033333 140.01,25.99 C139.71,26.0766667 139.346667,26.12 138.92,26.12 C138.04,26.12 137.406667,25.8466667 137.02,25.3 C136.633333,24.7533333 136.44,23.9 136.44,22.74 C136.44,21.5933333 136.643333,20.7533333 137.05,20.22 C137.456667,19.6866667 138.08,19.42 138.92,19.42 C139.573333,19.42 140.206667,19.5733333 140.82,19.88 C141.006667,19.96 141.106667,20 141.12,20 C141.266667,20 141.456667,19.8166667 141.69,19.45 C141.923333,19.0833333 142.04,18.8066667 142.04,18.62 C142.04,18.26 141.706667,17.9666667 141.04,17.74 C140.373333,17.5133333 139.64,17.4 138.84,17.4 C137.226667,17.4 135.986667,17.84 135.12,18.72 C134.253333,19.6 133.82,20.96 133.82,22.8 C133.82,24.6266667 134.233333,25.9733333 135.06,26.84 C135.886667,27.7066667 137.14,28.14 138.82,28.14 Z M145.58,28.04 C146.3,28.04 146.66,27.8466667 146.66,27.46 L146.66,27.46 L146.66,23.06 L146.74,23.06 L149.94,27.7 C150.02,27.8333333 150.156667,27.9233333 150.35,27.97 C150.543333,28.0166667 150.793333,28.04 151.1,28.04 L151.1,28.04 L151.66,28.04 C152.366667,28.04 152.72,27.94 152.72,27.74 C152.72,27.6466667 152.666667,27.52 152.56,27.36 L152.56,27.36 L149.02,22.3 L152.1,18.18 C152.22,18.02 152.28,17.8866667 152.28,17.78 C152.28,17.7 152.2,17.6333333 152.04,17.58 C151.88,17.5266667 151.64,17.5 151.32,17.5 L151.32,17.5 L150.8,17.5 C150.493333,17.5 150.246667,17.5233333 150.06,17.57 C149.873333,17.6166667 149.733333,17.7066667 149.64,17.84 L149.64,17.84 L146.74,21.8 L146.66,21.78 L146.66,13.5 C146.66,13.1266667 146.3,12.94 145.58,12.94 L145.58,12.94 L145.2,12.94 C144.493333,12.94 144.14,13.1266667 144.14,13.5 L144.14,13.5 L144.14,27.46 C144.14,27.8466667 144.493333,28.04 145.2,28.04 L145.2,28.04 L145.58,28.04 Z" fill="#275937" fill-rule="nonzero"></path>
    </g>
</svg>