<?xml version="1.0" encoding="utf-8"?>
<!-- Generator: Adobe Illustrator 23.0.6, SVG Export Plug-In . SVG Version: 6.00 Build 0)  -->
<svg version="1.1" id="Samenwerken" xmlns="http://www.w3.org/2000/svg" xmlns:xlink="http://www.w3.org/1999/xlink" x="0px"
	 y="0px" viewBox="0 0 261.4 74.5" enable-background="new 0 0 261.4 74.5" xml:space="preserve">
<g>
	<g>
		<path fill="#80BC00" d="M25.3,0C11.3,0,0,11.3,0,25.3c0,14,11.3,25.3,25.3,25.3c14,0,25.3-11.3,25.3-25.3C50.5,11.3,39.2,0,25.3,0
			z M25.3,42.6C15.7,42.6,8,34.8,8,25.3C8,15.7,15.7,8,25.3,8c9.5,0,17.3,7.7,17.3,17.3C42.6,34.8,34.8,42.6,25.3,42.6z"/>
		<path fill="#275937" d="M25.3,8C15.7,8,8,15.7,8,25.3c0,9.6,7.7,17.3,17.3,17.3c9.5,0,17.3-7.7,17.3-17.3C42.6,15.7,34.8,8,25.3,8
			z"/>
	</g>
	<path fill="#E17000" d="M25.3,34.1c4.9,0,8.9-4,8.9-8.9c0-4.9-4-8.9-8.9-8.9c-4.9,0-8.9,4-8.9,8.9C16.4,30.2,20.4,34.1,25.3,34.1
		L25.3,34.1z"/>
</g>
<g>
	<g>
		<path fill="#39870C" d="M76.1,14.6c-2.8,0-4.9,0.8-6.3,2.5c-1.4,1.6-2.2,4.1-2.2,7.2c0,3.1,0.7,5.6,2.2,7.2
			c1.5,1.7,3.6,2.5,6.3,2.5c2.7,0,4.9-0.9,6.3-2.5c1.4-1.7,2.2-4.1,2.2-7.2c0-3.1-0.7-5.6-2.2-7.2C81,15.4,78.9,14.6,76.1,14.6z
			 M81.3,24.3c0,2.3-0.5,4-1.4,5.1c-0.9,1.1-2.1,1.7-3.8,1.7c-1.7,0-2.9-0.5-3.8-1.7c-0.9-1.2-1.3-2.9-1.3-5.1c0-2.3,0.4-4,1.3-5.1
			c0.9-1.1,2.1-1.6,3.8-1.6c1.7,0,2.9,0.5,3.8,1.6C80.8,20.3,81.3,22,81.3,24.3z"/>
		<path fill="#39870C" d="M104.8,20c-0.9-0.6-1.8-0.8-2.9-0.8c-1.5,0-2.8,0.6-4,1.8c-0.8-1.2-2-1.8-3.8-1.8c-1.4,0-2.6,0.5-3.7,1.5
			c0,0,0-0.1,0-0.1c0-0.2-0.1-0.3-0.1-0.4C90.1,20,90,19.9,90,19.8c-0.1-0.1-0.2-0.2-0.4-0.3c-0.3-0.1-0.7-0.2-1.5,0.1
			c-0.7,0.2-0.8,0.7-0.8,0.9c0,0.1,0,0.1,0.2,1.1c0.1,0.4,0.1,1.1,0.1,2.2v9.1c0,0.3,0.1,1.1,1.6,1.1c1.4,0,1.5-0.7,1.5-1.1v-9.3
			l0.3-0.3c0.2-0.3,0.5-0.5,1-0.8c0.9-0.5,2.2-0.6,2.9,0.1c0.3,0.4,0.5,0.8,0.5,1.5v8.8c0,0.3,0.1,1.1,1.6,1.1
			c1.4,0,1.5-0.7,1.5-1.1v-9c0-0.1,0-0.3,0-0.4c0.9-1,1.8-1.5,2.7-1.5c0.7,0,1.2,0.2,1.5,0.5c0.3,0.4,0.5,0.9,0.5,1.5v8.8
			c0,0.3,0.1,1.1,1.6,1.1c1.4,0,1.5-0.7,1.5-1.1v-9c0-0.9-0.1-1.7-0.4-2.3C105.7,20.9,105.3,20.3,104.8,20z"/>
		<path fill="#39870C" d="M121.2,19.3l-4.4,0c-0.5-0.1-1.2-0.2-1.8-0.2c-1.8,0-3.2,0.5-4.2,1.4c-1,0.9-1.5,2.1-1.5,3.6
			c0,0.9,0.2,1.8,0.7,2.5c0.3,0.5,0.7,0.9,1.1,1.3c-1.1,0.7-1.4,1.5-1.4,2.2c0,0.6,0.2,1.4,1,2.1c-1.5,0.8-2.3,1.9-2.3,3.2
			c0,1.4,0.6,2.5,1.8,3.1c1.1,0.6,2.6,0.8,4.7,0.8c2,0,3.7-0.4,4.9-1.2c1.3-0.9,1.9-2,1.9-3.3c0-1.1-0.4-2-1.1-2.6
			c-0.7-0.6-1.5-1.1-2.4-1.3c-0.9-0.2-1.8-0.3-2.6-0.5c-0.8-0.1-1.5-0.2-2.1-0.4c-0.3-0.1-0.6-0.2-0.6-0.3c0-0.3,0.7-0.5,1.7-0.6
			h0.3c1.8,0,3.2-0.5,4.2-1.4c1-0.9,1.5-2.1,1.5-3.6c0-0.7-0.1-1.4-0.4-2h0.9c0.2,0,1-0.1,1-1.3v-0.3
			C122.2,19.4,121.4,19.3,121.2,19.3z M115,26.2c-1.7,0-2.4-0.7-2.4-2.1c0-1.5,0.7-2.1,2.4-2.1c1.7,0,2.4,0.7,2.4,2.1
			C117.5,25.6,116.7,26.2,115,26.2z M117.7,36c-0.6,0.4-1.5,0.5-2.6,0.5c-1.6,0-3.4-0.2-3.4-1.3c0-0.4,0.2-0.7,0.6-1
			c0.5-0.4,1-0.7,1.5-0.9c0.2,0,0.6,0.1,1,0.2c1.6,0.2,2.8,0.5,3.4,0.8c0.2,0.1,0.3,0.3,0.3,0.6C118.5,35.1,118.5,35.5,117.7,36z"/>
		<path fill="#39870C" d="M135.4,27.4c0.3-0.4,0.4-0.7,0.4-0.9c0-6-3.3-7.3-6-7.3c-2,0-3.6,0.7-4.7,2c-1.1,1.3-1.7,3.2-1.7,5.6
			c0,2.4,0.6,4.3,1.7,5.5c1.1,1.2,2.9,1.8,5.2,1.8c1.3,0,2.4-0.2,3.4-0.6c0.8-0.3,1.7-0.8,1.7-1.5c0-0.3-0.1-0.6-0.4-1
			c-0.2-0.3-0.5-0.8-1-0.8c-0.1,0-0.2,0-0.8,0.3c-0.9,0.5-1.9,0.8-3,0.8c-1.1,0-2-0.3-2.5-0.9c-0.5-0.5-0.8-1.3-0.9-2.3h7.7
			C134.9,28,135.3,27.5,135.4,27.4z M126.8,25.1c0.4-2.8,1.9-3.1,3.1-3.1c1.1,0,2.5,0.3,2.6,3.1H126.8z"/>
		<path fill="#39870C" d="M147.7,19.3c-0.3,0-1.4,0-1.6,0.8l-3,9.1l-3-9.1c-0.2-0.5-0.7-0.8-1.5-0.8h-0.2c-1.1,0-1.6,0.3-1.6,0.9
			c0,0.1,0,0.3,0.1,0.5l4.2,12.5c0.2,0.5,0.7,0.8,1.5,0.8h0.9c0.8,0,1.4-0.3,1.5-0.8l4.2-12.5c0.1-0.2,0.1-0.4,0.1-0.5
			C149.2,19.8,148.9,19.3,147.7,19.3z"/>
		<path fill="#39870C" d="M152.9,19.3c-1.4,0-1.5,0.7-1.5,1.1v12.5c0,0.3,0.1,1.1,1.6,1.1c1.4,0,1.5-0.7,1.5-1.1V20.3
			C154.5,20,154.3,19.3,152.9,19.3z"/>
		<path fill="#39870C" d="M153.1,13.4h-0.3c-1.4,0-1.5,0.7-1.5,1.1V16c0,0.3,0.1,1.1,1.5,1.1h0.3c1.4,0,1.5-0.7,1.5-1.1v-1.5
			C154.6,14.1,154.4,13.4,153.1,13.4z"/>
		<path fill="#39870C" d="M164.7,19.2c-1.3,0-2.5,0.5-3.6,1.5c0,0,0-0.1,0-0.1c0-0.2-0.1-0.3-0.1-0.4c-0.1-0.1-0.1-0.2-0.2-0.3
			c-0.1-0.1-0.2-0.2-0.4-0.3c-0.3-0.1-0.7-0.2-1.5,0.1c-0.7,0.2-0.9,0.7-0.9,0.9c0,0.1,0,0.1,0.2,1.1c0.1,0.4,0.1,1.1,0.1,2.2v9.1
			c0,0.3,0.1,1.1,1.6,1.1c1.4,0,1.5-0.7,1.5-1.1v-9.3c0.8-1,1.7-1.5,2.8-1.5c0.7,0,1.3,0.2,1.6,0.5c0.4,0.3,0.5,0.8,0.5,1.5v8.8
			c0,0.3,0.1,1.1,1.6,1.1c1.4,0,1.5-0.7,1.5-1.1v-9c0-1.4-0.4-2.6-1.3-3.4C167.4,19.6,166.2,19.2,164.7,19.2z"/>
		<path fill="#39870C" d="M184.4,19.3l-4.4,0c-0.5-0.1-1.2-0.2-1.8-0.2c-1.8,0-3.2,0.5-4.2,1.4c-1,0.9-1.5,2.1-1.5,3.6
			c0,0.9,0.2,1.8,0.7,2.5c0.3,0.5,0.7,0.9,1.1,1.3c-1.1,0.7-1.4,1.5-1.4,2.2c0,0.6,0.2,1.4,1,2.1c-1.5,0.8-2.3,1.9-2.3,3.2
			c0,1.4,0.6,2.5,1.8,3.1c1.1,0.6,2.6,0.8,4.7,0.8c2,0,3.7-0.4,4.9-1.2c1.3-0.9,1.9-2,1.9-3.3c0-1.1-0.4-2-1.1-2.6
			c-0.7-0.6-1.5-1.1-2.4-1.3c-0.9-0.2-1.7-0.3-2.6-0.5c-0.8-0.1-1.5-0.2-2.1-0.4c-0.3-0.1-0.6-0.2-0.6-0.3c0-0.3,0.7-0.5,1.7-0.6
			h0.3c1.8,0,3.2-0.5,4.2-1.4c1-0.9,1.5-2.1,1.5-3.6c0-0.7-0.1-1.4-0.4-2h0.9c0.2,0,1-0.1,1-1.3v-0.3
			C185.4,19.4,184.6,19.3,184.4,19.3z M178.2,26.2c-1.7,0-2.4-0.7-2.4-2.1c0-1.5,0.7-2.1,2.4-2.1s2.4,0.7,2.4,2.1
			C180.6,25.6,179.9,26.2,178.2,26.2z M180.8,36c-0.6,0.4-1.5,0.5-2.6,0.5c-1.6,0-3.4-0.2-3.4-1.3c0-0.4,0.2-0.7,0.6-1
			c0.5-0.4,1-0.7,1.5-0.9c0.2,0,0.6,0.1,1,0.2c1.6,0.2,2.8,0.5,3.4,0.8c0.2,0.1,0.3,0.3,0.3,0.6C181.7,35.1,181.7,35.5,180.8,36z"/>
	</g>
	<g>
		<path fill="#39870C" d="M191.2,24.6c-0.8-0.3-1.2-0.5-1.4-0.6c-0.2-0.2-0.3-0.4-0.3-0.8c0-0.3,0.1-0.6,0.4-0.8
			c0.7-0.5,2.2-0.5,3.2,0.1c0.3,0.2,0.4,0.2,0.6,0.2c0.5,0,0.8-0.4,1-0.8c0.2-0.4,0.4-0.8,0.4-1.1c0-0.7-0.8-1-1.4-1.2
			c-0.7-0.2-1.6-0.4-2.5-0.4c-1.4,0-2.6,0.4-3.4,1.2c-0.9,0.8-1.4,1.8-1.4,3c0,1.2,0.3,2.1,0.9,2.7c0.6,0.6,1.5,1,2.7,1.4
			c1.3,0.4,1.9,0.7,2.1,0.9c0.3,0.3,0.4,0.7,0.4,1.2c0,0.5-0.2,0.9-0.5,1.2c-0.4,0.3-0.8,0.5-1.4,0.5c-0.6,0-1.2-0.1-1.6-0.2
			c-0.4-0.2-0.8-0.3-1-0.4c-0.4-0.3-0.5-0.3-0.7-0.3c-0.5,0-0.8,0.4-1,0.8c-0.3,0.4-0.4,0.8-0.4,1c0,0.7,0.9,1.2,1.6,1.5
			c0.9,0.4,2,0.6,3.3,0.6c1.3,0,2.5-0.4,3.4-1.3c1-0.9,1.4-2,1.4-3.3c0-1.3-0.3-2.4-1-3C194.1,25.7,192.9,25.1,191.2,24.6z"/>
		<path fill="#275937" d="M203.4,31c-0.1,0-0.2,0-0.5,0.1c-0.2,0-0.4,0.1-0.7,0.1c-0.3,0-0.9,0-0.9-1.4V14.4c0-0.3-0.1-1.1-1.6-1.1
			c-1.4,0-1.5,0.7-1.5,1.1V30c0,1.5,0.4,2.6,1.2,3.2c0.8,0.6,1.7,0.9,2.6,0.9c1.6,0,2.4-0.4,2.4-1.3c0-0.2-0.1-0.5-0.2-0.9
			C204,31.2,203.6,31,203.4,31z"/>
		<path fill="#275937" d="M211.9,19.2c-2.1,0-3.7,0.7-4.8,2c-1.1,1.3-1.7,3.1-1.7,5.5c0,2.4,0.6,4.2,1.7,5.5
			c1.1,1.3,2.8,1.9,4.8,1.9c2.1,0,3.7-0.6,4.8-1.9c1.1-1.3,1.6-3.1,1.6-5.5c0-2.4-0.6-4.2-1.6-5.5C215.5,19.8,213.9,19.2,211.9,19.2
			z M211.8,22c1.1,0,1.9,0.3,2.4,1c0.5,0.7,0.8,1.9,0.8,3.6c0,1.6-0.3,2.8-0.8,3.5c-0.5,0.7-1.3,1-2.4,1c-1.1,0-1.9-0.3-2.4-1
			c-0.5-0.7-0.8-1.9-0.8-3.6c0-1.6,0.3-2.8,0.8-3.6C209.9,22.3,210.7,22,211.8,22z"/>
		<path fill="#275937" d="M227.1,26.3l4.5-5.4c0.3-0.3,0.4-0.6,0.4-0.9c0-0.6-0.5-0.8-1.5-0.8c-0.9,0-1.5,0.2-1.8,0.5l-4.2,5V14.4
			c0-0.3-0.1-1.1-1.6-1.1c-1.4,0-1.5,0.7-1.5,1.1v18.4c0,0.3,0.1,1.1,1.6,1.1c1.4,0,1.5-0.7,1.5-1.1v-4.7l4.4,5.2
			c0.3,0.4,0.9,0.5,1.9,0.5c0.4,0,1.6,0,1.6-0.9c0-0.2-0.1-0.5-0.4-0.7L227.1,26.3z"/>
		<path fill="#275937" d="M246.1,27.4c0.3-0.4,0.4-0.7,0.4-0.9c0-6-3.3-7.3-6-7.3c-2,0-3.6,0.7-4.7,2c-1.1,1.3-1.7,3.2-1.7,5.6
			c0,2.4,0.6,4.3,1.7,5.5c1.1,1.2,2.9,1.8,5.2,1.8c1.3,0,2.4-0.2,3.4-0.6c0.8-0.3,1.7-0.8,1.7-1.5c0-0.3-0.1-0.6-0.4-1
			c-0.2-0.3-0.5-0.8-1-0.8c-0.1,0-0.2,0-0.8,0.3c-0.9,0.5-1.9,0.8-3,0.8c-1.1,0-2-0.3-2.5-0.9c-0.5-0.5-0.8-1.3-0.9-2.3h7.7
			C245.6,28,246,27.5,246.1,27.4z M237.5,25.1c0.4-2.8,1.9-3.1,3.1-3.1c1.1,0,2.5,0.3,2.6,3.1H237.5z"/>
		<path fill="#275937" d="M255.7,31.9c-0.2-0.7-0.6-0.8-0.9-0.8c-0.1,0-0.1,0-0.5,0.1c-0.2,0-0.4,0.1-0.7,0.1c-0.3,0-0.9,0-0.9-1.4
			v-7.6h1.7c0.2,0,1-0.1,1-1.3v-0.3c0-1.2-0.8-1.3-1-1.3h-1.7v-2.2c0-0.2-0.1-1.1-1.3-1.1h-0.3c-1.1,0-1.3,0.8-1.3,1l-0.3,2.3h-0.9
			c-0.2,0-1,0.1-1,1.3v0.3c0,1.2,0.8,1.3,1,1.3h0.8V30c0,1.5,0.4,2.6,1.2,3.2c0.8,0.6,1.7,0.9,2.6,0.9c1.6,0,2.4-0.4,2.4-1.3
			C255.9,32.5,255.8,32.2,255.7,31.9z"/>
	</g>
</g>
<path fill="#E17000" d="M259.7,44.1l-54.9,4.5c-1.1,0.1-2-0.8-2-1.8V36.5c0-1,0.7-1.8,1.7-1.8l54.9-4.5c1.1-0.1,2,0.8,2,1.8v10.2
	C261.4,43.2,260.6,44,259.7,44.1z"/>
<g>
	<path fill="#FFFFFF" d="M218.2,45.3c-0.1-0.1-0.1-0.2-0.1-0.3l0.2-8.5c0-0.2,0-0.3,0.1-0.3c0.1-0.1,0.2-0.1,0.3-0.1l2.4-0.2
		c0.9-0.1,1.6,0.1,2.1,0.4c0.5,0.3,0.8,0.8,0.8,1.5c0,0.3,0,0.7-0.2,1c-0.1,0.3-0.3,0.6-0.6,0.9c-0.2,0.3-0.5,0.4-0.8,0.6l0,0.1
		c0,0,0.2,0,0.5,0.1c0.3,0.1,0.6,0.3,0.9,0.6c0.3,0.3,0.4,0.6,0.5,1.1c0.1,1-0.2,1.7-0.8,2.3c-0.6,0.5-1.5,0.9-2.7,1l-2.4,0.2
		C218.4,45.4,218.3,45.4,218.2,45.3z M221.3,44.1c0.6-0.1,1.1-0.3,1.5-0.6c0.3-0.4,0.5-0.9,0.4-1.4c0-0.4-0.2-0.8-0.6-1
		c-0.4-0.2-0.8-0.3-1.5-0.2l-1.8,0.1l-0.1,3.3L221.3,44.1z M221,39.8c0.4,0,0.7-0.1,1-0.3c0.3-0.2,0.5-0.4,0.7-0.7
		c0.2-0.3,0.2-0.6,0.2-0.9c0-0.4-0.2-0.7-0.5-0.9c-0.3-0.2-0.8-0.2-1.4-0.2l-1.6,0.1l-0.1,3L221,39.8z"/>
	<path fill="#FFFFFF" d="M226,44.7c-0.1,0-0.1-0.1-0.1-0.2l0.2-8.7c0-0.1,0-0.2,0.1-0.3c0.1-0.1,0.2-0.1,0.3-0.1l4.7-0.4
		c0.2,0,0.2,0.1,0.2,0.3l0,0.1c0,0.2,0,0.4,0,0.5c0,0.1-0.1,0.2-0.3,0.2l-3.9,0.3l-0.1,3.1l3.5-0.3c0.2,0,0.2,0.1,0.3,0.3l0,0.1
		c0,0.2,0,0.4,0,0.5c0,0.1-0.1,0.2-0.3,0.2l-3.5,0.3l-0.1,3.3l3.9-0.3c0.2,0,0.2,0.1,0.2,0.3l0,0.1c0,0.2,0,0.4,0,0.5
		c0,0.1-0.1,0.2-0.3,0.2l-4.7,0.4C226.2,44.7,226.1,44.7,226,44.7z"/>
	<path fill="#FFFFFF" d="M235.3,43.9c-0.1,0-0.1-0.1-0.1-0.2l0.2-8.1l-2.6,0.2c-0.2,0-0.2-0.1-0.3-0.3l0-0.2c0-0.1,0-0.3,0-0.4
		c0-0.1,0.1-0.2,0.2-0.2l6.3-0.5c0.2,0,0.2,0.1,0.2,0.3l0,0.1c0,0.2,0,0.3,0,0.5c0,0.1-0.1,0.2-0.3,0.2l-2.5,0.2l-0.2,8.1
		c0,0.1-0.1,0.2-0.1,0.2c-0.1,0.1-0.2,0.1-0.4,0.1l-0.1,0C235.5,44,235.4,44,235.3,43.9z"/>
	<path fill="#FFFFFF" d="M239,43.5c0,0,0-0.1,0.1-0.2l3.3-9.1c0-0.1,0.2-0.2,0.5-0.3l0.4,0c0.3,0,0.5,0,0.5,0.2l3,8.5
		c0,0,0,0.1,0,0.1c0,0.2-0.2,0.3-0.6,0.3l-0.1,0c-0.3,0-0.5,0-0.5-0.2l-0.7-2.1l-3.9,0.3l-0.8,2.3c0,0.1-0.2,0.2-0.5,0.3l-0.1,0
		C239.2,43.7,239.1,43.6,239,43.5z M244.6,39.8l-1.3-3.9c-0.1-0.2-0.1-0.5-0.1-0.8l0,0c-0.1,0.3-0.1,0.6-0.2,0.8l-1.5,4.1
		L244.6,39.8z"/>
</g>
<g>
	<path fill="#666666" d="M68.7,69.6c-0.7-0.2-1.2-0.4-1.5-0.7c-0.3-0.2-0.4-0.4-0.4-0.5c0-0.2,0.1-0.4,0.3-0.7
		c0.2-0.3,0.3-0.4,0.4-0.4c0.1,0,0.2,0.1,0.4,0.2c0.4,0.2,0.9,0.4,1.3,0.6c0.5,0.2,1,0.2,1.7,0.2c0.8,0,1.4-0.2,1.9-0.6
		c0.5-0.4,0.7-1,0.7-1.7c0-0.5-0.1-0.9-0.4-1.2c-0.3-0.3-0.6-0.6-1-0.8c-0.4-0.2-0.9-0.4-1.6-0.7c-0.8-0.3-1.4-0.6-1.8-0.8
		c-0.5-0.3-0.8-0.6-1.2-1.1s-0.5-1.2-0.5-2c0-0.7,0.2-1.4,0.5-1.9s0.9-1,1.6-1.3c0.7-0.3,1.5-0.5,2.3-0.5c0.5,0,1,0.1,1.5,0.2
		c0.6,0.1,1,0.3,1.3,0.5c0.3,0.2,0.4,0.3,0.4,0.5c0,0.1-0.1,0.4-0.2,0.6c-0.2,0.3-0.3,0.4-0.4,0.4c-0.1,0-0.2,0-0.3-0.1
		c-0.1-0.1-0.2-0.1-0.2-0.1c-0.7-0.3-1.4-0.5-2.1-0.5c-0.8,0-1.4,0.2-1.9,0.6s-0.7,1-0.7,1.7c0,0.5,0.1,0.8,0.4,1.1
		c0.2,0.3,0.5,0.5,0.8,0.6c0.3,0.1,0.8,0.4,1.6,0.6c0.8,0.3,1.5,0.6,2,0.9c0.5,0.3,0.9,0.7,1.3,1.2c0.4,0.5,0.5,1.2,0.5,2.1
		c0,1.2-0.4,2.1-1.2,2.8c-0.8,0.7-1.9,1-3.2,1C70.1,69.9,69.4,69.8,68.7,69.6z"/>
	<path fill="#666666" d="M77.9,69.1c-0.6-0.5-0.9-1.3-0.9-2.2c0-1.1,0.3-1.8,1-2.4c0.6-0.5,1.4-0.9,2.3-1c0.9-0.2,2-0.2,3.4-0.2
		v-0.9c0-0.5-0.2-0.9-0.5-1.2c-0.3-0.3-0.9-0.5-1.7-0.5c-0.6,0-1.1,0.1-1.5,0.2c-0.4,0.1-0.8,0.3-1.1,0.4c-0.3,0.1-0.5,0.2-0.5,0.2
		c-0.1,0-0.3-0.1-0.4-0.4c-0.2-0.3-0.2-0.5-0.2-0.6c0-0.2,0.2-0.4,0.5-0.6c0.4-0.2,0.8-0.4,1.4-0.5c0.6-0.1,1.2-0.2,1.8-0.2
		c1.2,0,2.2,0.3,2.9,0.8s1,1.3,1,2.3v4.5c0,0.9,0,1.5,0.1,1.9c0.1,0.4,0.1,0.6,0.1,0.6c0,0.2-0.1,0.3-0.4,0.4
		c-0.3,0.1-0.5,0.1-0.7,0.1c-0.2,0-0.3-0.1-0.4-0.3c-0.1-0.2-0.2-0.4-0.2-0.6c0-0.2-0.1-0.4-0.1-0.4c-0.9,1-2,1.5-3.4,1.5
		C79.4,69.9,78.6,69.6,77.9,69.1z M82.2,68.1c0.5-0.2,1-0.6,1.5-1v-2.4c-1,0-1.8,0.1-2.5,0.1c-0.6,0.1-1.2,0.3-1.7,0.6
		s-0.7,0.8-0.7,1.4c0,0.5,0.1,0.9,0.4,1.2c0.3,0.3,0.7,0.4,1.3,0.4C81.1,68.4,81.7,68.3,82.2,68.1z"/>
	<path fill="#666666" d="M101.4,59.9c0.6,0.5,0.9,1.3,0.9,2.5v6.9c0,0.3-0.3,0.4-0.8,0.4h-0.1c-0.5,0-0.8-0.1-0.8-0.4v-6.8
		c0-0.6-0.2-1.1-0.5-1.4c-0.3-0.3-0.8-0.5-1.4-0.5c-0.9,0-1.7,0.5-2.5,1.4c0,0.1,0,0.2,0,0.4v6.9c0,0.3-0.3,0.4-0.8,0.4h-0.1
		c-0.5,0-0.8-0.1-0.8-0.4v-6.8c0-0.6-0.2-1.1-0.5-1.4c-0.3-0.3-0.8-0.5-1.4-0.5c-0.4,0-0.8,0.1-1.2,0.3c-0.4,0.2-0.7,0.4-0.9,0.7
		c-0.2,0.2-0.4,0.4-0.4,0.4v7.3c0,0.3-0.3,0.4-0.8,0.4h-0.1c-0.5,0-0.8-0.1-0.8-0.4v-7c0-0.9,0-1.5-0.1-1.9s-0.1-0.6-0.1-0.6
		c0-0.2,0.1-0.3,0.4-0.4s0.5-0.1,0.7-0.1c0.2,0,0.3,0.1,0.4,0.3c0.1,0.2,0.2,0.4,0.2,0.6c0,0.2,0.1,0.4,0.1,0.4
		c0.4-0.4,0.8-0.8,1.3-1.1s1.1-0.4,1.7-0.4c0.6,0,1.2,0.1,1.7,0.4c0.5,0.2,0.9,0.7,1.2,1.3c0.4-0.5,0.9-0.9,1.4-1.2s1.1-0.5,1.7-0.5
		C100.1,59.2,100.8,59.4,101.4,59.9z"/>
	<path fill="#666666" d="M106.2,68.6c-0.8-0.9-1.2-2.2-1.2-4c0-1.8,0.4-3.1,1.2-4c0.8-0.9,1.9-1.4,3.5-1.4c1.4,0,2.4,0.4,3.1,1.3
		s1,2.2,1,3.9c0,0.1-0.1,0.3-0.2,0.5c-0.2,0.2-0.3,0.3-0.4,0.3h-6.3c0.1,1.1,0.4,1.9,0.9,2.4s1.2,0.8,2.2,0.8c0.6,0,1-0.1,1.5-0.2
		c0.4-0.1,0.7-0.3,1-0.4c0.3-0.1,0.4-0.2,0.5-0.2c0.1,0,0.3,0.1,0.5,0.4c0.2,0.3,0.2,0.5,0.2,0.6c0,0.2-0.2,0.3-0.5,0.6
		c-0.3,0.2-0.8,0.4-1.3,0.5c-0.6,0.1-1.1,0.2-1.8,0.2C108.2,69.9,107,69.5,106.2,68.6z M112,63.8c0-2.1-0.8-3.2-2.4-3.2
		c-1.7,0-2.7,1.1-2.8,3.2H112z"/>
	<path fill="#666666" d="M116.4,69.4v-7c0-0.9,0-1.5-0.1-1.9s-0.1-0.6-0.1-0.6c0-0.2,0.1-0.3,0.4-0.4s0.5-0.1,0.7-0.1
		c0.2,0,0.3,0.1,0.4,0.3c0.1,0.2,0.2,0.4,0.2,0.6c0,0.2,0.1,0.4,0.1,0.4c0.4-0.5,0.9-0.8,1.5-1.1c0.5-0.3,1.1-0.4,1.7-0.4
		c1,0,1.8,0.3,2.4,0.9c0.6,0.6,0.9,1.4,0.9,2.4v6.9c0,0.3-0.3,0.4-0.8,0.4h-0.1c-0.5,0-0.8-0.1-0.8-0.4v-6.8c0-0.6-0.2-1.1-0.5-1.4
		c-0.4-0.3-0.9-0.5-1.5-0.5c-0.5,0-0.9,0.1-1.4,0.4c-0.4,0.3-0.8,0.6-1.2,1v7.3c0,0.3-0.3,0.4-0.8,0.4h-0.1
		C116.6,69.8,116.4,69.7,116.4,69.4z"/>
	<path fill="#666666" d="M129.1,69.5l-2.6-9.5c-0.1-0.2-0.1-0.3-0.1-0.4c0-0.2,0.3-0.3,0.9-0.3c0.5,0,0.7,0.1,0.8,0.3l1.7,6.4
		c0,0.1,0.1,0.3,0.1,0.6c0.1,0.3,0.1,0.5,0.1,0.6l0.2,1h0.1c0.2-1.2,0.4-2,0.5-2.3l1.7-6.4c0.1-0.2,0.3-0.3,0.8-0.3h0.1
		c0.5,0,0.7,0.1,0.8,0.3l1.7,6.4c0.1,0.6,0.3,1.1,0.3,1.5c0.1,0.4,0.1,0.7,0.1,0.8h0l0.1-0.8c0.1-0.8,0.2-1.3,0.3-1.5l1.7-6.4
		c0.1-0.2,0.3-0.3,0.8-0.3c0.5,0,0.8,0.1,0.8,0.3c0,0.1,0,0.2-0.1,0.3l-2.7,9.6c-0.1,0.2-0.3,0.3-0.8,0.3H136
		c-0.5,0-0.7-0.1-0.8-0.3l-1.6-6.3c-0.1-0.2-0.1-0.5-0.2-1.1l-0.1-0.5h0l-0.1,0.5c-0.1,0.5-0.1,0.9-0.2,1.1l-1.6,6.4
		c-0.1,0.2-0.3,0.3-0.8,0.3h-0.6C129.5,69.8,129.2,69.7,129.1,69.5z"/>
	<path fill="#666666" d="M143,68.6c-0.8-0.9-1.2-2.2-1.2-4c0-1.8,0.4-3.1,1.2-4c0.8-0.9,1.9-1.4,3.5-1.4c1.4,0,2.4,0.4,3.1,1.3
		s1,2.2,1,3.9c0,0.1-0.1,0.3-0.2,0.5c-0.2,0.2-0.3,0.3-0.4,0.3h-6.3c0.1,1.1,0.4,1.9,0.9,2.4s1.2,0.8,2.2,0.8c0.6,0,1-0.1,1.5-0.2
		c0.4-0.1,0.7-0.3,1-0.4c0.3-0.1,0.4-0.2,0.5-0.2c0.1,0,0.3,0.1,0.5,0.4c0.2,0.3,0.2,0.5,0.2,0.6c0,0.2-0.2,0.3-0.5,0.6
		c-0.3,0.2-0.8,0.4-1.3,0.5c-0.6,0.1-1.1,0.2-1.8,0.2C145.1,69.9,143.8,69.5,143,68.6z M148.8,63.8c0-2.1-0.8-3.2-2.4-3.2
		c-1.7,0-2.7,1.1-2.8,3.2H148.8z"/>
	<path fill="#666666" d="M153.3,69.4v-7c0-0.9,0-1.5-0.1-1.9c-0.1-0.4-0.1-0.6-0.1-0.6c0-0.2,0.1-0.3,0.4-0.4s0.5-0.1,0.7-0.1
		c0.2,0,0.3,0.1,0.4,0.3s0.2,0.4,0.2,0.6c0,0.2,0.1,0.4,0.1,0.4c0.7-1,1.5-1.5,2.3-1.5c0.4,0,0.7,0.1,0.9,0.2
		c0.2,0.1,0.3,0.3,0.3,0.6s0,0.5-0.1,0.7c-0.1,0.2-0.2,0.4-0.3,0.4c-0.1,0-0.2,0-0.4-0.1c-0.2-0.1-0.4-0.1-0.7-0.1
		c-0.3,0-0.6,0.1-0.9,0.3c-0.3,0.2-0.5,0.4-0.7,0.6c-0.2,0.2-0.3,0.3-0.3,0.4v7.3c0,0.3-0.3,0.4-0.8,0.4h-0.1
		C153.6,69.8,153.3,69.7,153.3,69.4z"/>
	<path fill="#666666" d="M168.5,69.5c0,0.1-0.1,0.2-0.2,0.2s-0.4,0.1-0.7,0.1h-0.1c-0.3,0-0.5,0-0.7,0c-0.2,0-0.3-0.1-0.4-0.2
		l-4-4.7h-0.1v4.6c0,0.3-0.3,0.4-0.8,0.4h-0.1c-0.5,0-0.8-0.1-0.8-0.4V55.2c0-0.3,0.3-0.4,0.8-0.4h0.1c0.5,0,0.8,0.1,0.8,0.4v8.9
		h0.1l3.8-4.6c0.1-0.2,0.5-0.3,1.1-0.3h0.1c0.2,0,0.4,0,0.5,0.1c0.1,0,0.2,0.1,0.2,0.2c0,0.1-0.1,0.3-0.2,0.4l-3.7,4.4l4.1,4.9
		C168.5,69.3,168.5,69.5,168.5,69.5z"/>
	<path fill="#666666" d="M171.6,68.6c-0.8-0.9-1.2-2.2-1.2-4c0-1.8,0.4-3.1,1.2-4c0.8-0.9,1.9-1.4,3.5-1.4c1.4,0,2.4,0.4,3.1,1.3
		s1,2.2,1,3.9c0,0.1-0.1,0.3-0.2,0.5c-0.2,0.2-0.3,0.3-0.4,0.3h-6.3c0.1,1.1,0.4,1.9,0.9,2.4s1.2,0.8,2.2,0.8c0.6,0,1-0.1,1.5-0.2
		c0.4-0.1,0.7-0.3,1-0.4c0.3-0.1,0.4-0.2,0.5-0.2c0.1,0,0.3,0.1,0.5,0.4c0.2,0.3,0.2,0.5,0.2,0.6c0,0.2-0.2,0.3-0.5,0.6
		c-0.3,0.2-0.8,0.4-1.3,0.5c-0.6,0.1-1.1,0.2-1.8,0.2C173.6,69.9,172.4,69.5,171.6,68.6z M177.4,63.8c0-2.1-0.8-3.2-2.4-3.2
		c-1.7,0-2.7,1.1-2.8,3.2H177.4z"/>
	<path fill="#666666" d="M181.8,69.4v-7c0-0.9,0-1.5-0.1-1.9s-0.1-0.6-0.1-0.6c0-0.2,0.1-0.3,0.4-0.4s0.5-0.1,0.7-0.1
		c0.2,0,0.3,0.1,0.4,0.3c0.1,0.2,0.2,0.4,0.2,0.6c0,0.2,0.1,0.4,0.1,0.4c0.4-0.5,0.9-0.8,1.5-1.1c0.5-0.3,1.1-0.4,1.7-0.4
		c1,0,1.8,0.3,2.4,0.9c0.6,0.6,0.9,1.4,0.9,2.4v6.9c0,0.3-0.3,0.4-0.8,0.4h-0.1c-0.5,0-0.8-0.1-0.8-0.4v-6.8c0-0.6-0.2-1.1-0.5-1.4
		c-0.4-0.3-0.9-0.5-1.5-0.5c-0.5,0-0.9,0.1-1.4,0.4c-0.4,0.3-0.8,0.6-1.2,1v7.3c0,0.3-0.3,0.4-0.8,0.4h-0.1
		C182,69.8,181.8,69.7,181.8,69.4z"/>
</g>
<g>
</g>
<g>
</g>
<g>
</g>
<g>
</g>
<g>
</g>
<g>
</g>
</svg>
