<svg viewBox="0 0 244 64" width="244" height="64" xmlns="http://www.w3.org/2000/svg"><g fill="none" fill-rule="nonzero"><path d="m66.9 59.04c.5333333 0 .8-.1466667.8-.44v-5.76h1.8c.8133333 0 1.44.1366667 1.88.41s.8066667.79 1.1 1.55l1.52 3.92c.04.0933333.1333333.17.28.23s.32.09.52.09h.2c.56 0 .84-.1066667.84-.32 0-.0666667-.02-.16-.06-.28l-1.56-3.94c-.2933333-.76-.57-1.3333333-.83-1.72s-.5833333-.6466667-.97-.78v-.08c.7333333-.2933333 1.3-.7233333 1.7-1.29s.6-1.2633333.6-2.09c0-1.2266667-.4033333-2.1233333-1.21-2.69s-2.01-.85-3.61-.85h-3.36c-.2133333 0-.3666667.0466667-.46.14s-.14.2466667-.14.46v13c0 .2933333.2666667.44.8.44zm3.44-7.72h-2.64v-4.8h2.5c.84 0 1.5.1933333 1.98.58s.72.9733333.72 1.76c0 .44-.1133333.8466667-.34 1.22s-.5366667.6733333-.93.9-.8233333.34-1.29.34zm11.46 7.72c.5333333 0 .8-.1466667.8-.44v-12.08h3.78c.1466667 0 .25-.0466667.31-.14s.09-.2466667.09-.46v-.32c0-.2133333-.03-.3666667-.09-.46s-.1633333-.14-.31-.14h-9.38c-.1333333 0-.2333333.0466667-.3.14s-.1.2466667-.1.46v.32c0 .2133333.0333333.3666667.1.46s.1666667.14.3.14h3.84v12.08c0 .2933333.2666667.44.8.44zm8.28 0c.5333333 0 .8-.1466667.8-.44v-5.76h1.8c.8133333 0 1.44.1366667 1.88.41s.8066667.79 1.1 1.55l1.52 3.92c.04.0933333.1333333.17.28.23s.32.09.52.09h.2c.56 0 .84-.1066667.84-.32 0-.0666667-.02-.16-.06-.28l-1.56-3.94c-.2933333-.76-.57-1.3333333-.83-1.72s-.5833333-.6466667-.97-.78v-.08c.7333333-.2933333 1.3-.7233333 1.7-1.29s.6-1.2633333.6-2.09c0-1.2266667-.4033333-2.1233333-1.21-2.69s-2.01-.85-3.61-.85h-3.36c-.2133333 0-.3666667.0466667-.46.14s-.14.2466667-.14.46v13c0 .2933333.2666667.44.8.44zm3.44-7.72h-2.64v-4.8h2.5c.84 0 1.5.1933333 1.98.58s.72.9733333.72 1.76c0 .44-.1133333.8466667-.34 1.22s-.5366667.6733333-.93.9-.8233333.34-1.29.34z" fill="#666"/><g><path d="m24 0c-13.2806324 0-24 10.7193676-24 24s10.7193676 24 24 24 24-10.7193676 24-24c-.0948617-13.2806324-10.8142292-24-24-24z" fill="#80bc00"/><path d="m24 8c-8.8786127 0-16 7.1213873-16 16s7.1213873 16 16 16c8.7861272 0 16-7.1213873 16-16s-7.2138728-16-16-16z" fill="#275937"/><path d="m24 32c4.4044944 0 8-3.5955056 8-8s-3.5955056-8-8-8-8 3.5955056-8 8c0 4.494382 3.5955056 8 8 8z" fill="#e17000"/><path d="m73.15 33.175c2.55 0 4.5041667-.7666667 5.8625-2.3s2.0375-3.75 2.0375-6.65-.6791667-5.1083333-2.0375-6.625-3.3125-2.275-5.8625-2.275-4.5083333.7625-5.875 2.2875-2.05 3.7291667-2.05 6.6125c0 2.9.6833333 5.1166667 2.05 6.65s3.325 2.3 5.875 2.3zm0-2.8c-1.4833333 0-2.6125-.525-3.3875-1.575s-1.1625-2.575-1.1625-4.575.3875-3.5166667 1.1625-4.55 1.9041667-1.55 3.3875-1.55 2.6083333.5166667 3.375 1.55 1.15 2.55 1.15 4.55-.3875 3.525-1.1625 4.575-1.8958333 1.575-3.3625 1.575zm12.7 2.675c.8833333 0 1.325-.2416667 1.325-.725v-8.4c.1666667-.3166667.4583333-.6541667.875-1.0125s.9083333-.5375 1.475-.5375c1.2 0 1.8.6166667 1.8 1.85v8.1c0 .25.1041667.4333333.3125.55s.5458333.175 1.0125.175h.475c.8833333 0 1.325-.2416667 1.325-.725v-8.4c.2333333-.3833333.55-.7375.95-1.0625s.8666667-.4875 1.4-.4875c1.2 0 1.8.6166667 1.8 1.85v8.1c0 .4833333.4416667.725 1.325.725h.5c.883333 0 1.325-.2416667 1.325-.725v-8.525c0-2.7-1.25-4.05-3.75-4.05-.7666667 0-1.4958333.1875-2.1875.5625s-1.2625.8375-1.7125 1.3875c-.5-1.3-1.625-1.95-3.375-1.95-.75 0-1.4541667.1791667-2.1125.5375s-1.2041667.8041667-1.6375 1.3375c-.0166667-.1-.0541667-.2791667-.1125-.5375s-.1458333-.5041667-.2625-.7375-.3083333-.35-.575-.35c-.4333333 0-.925.0625-1.475.1875s-.825.3041667-.825.5375c0 .1166667.05.4333333.15.95s.15 1.3333333.15 2.45v8.2c0 .4833333.4416667.725 1.325.725zm24.1 5.25c1.916667 0 3.429167-.3666667 4.5375-1.1s1.6625-1.725 1.6625-2.975c0-1.1-.345833-1.8958333-1.0375-2.3875s-1.629167-.8375-2.8125-1.0375c-.266667-.05-.65-.1083333-1.15-.175-.916667-.1166667-1.591667-.25-2.025-.4s-.65-.4166667-.65-.8c0-.7.608333-1.05 1.825-1.05 1.533333 0 2.758333-.375 3.675-1.125s1.375-1.8166667 1.375-3.2c0-.2833333-.045833-.5791667-.1375-.8875s-.2125-.5625-.3625-.7625l.05-.075c.3.05.733333.075 1.3.075.2 0 .345833-.0791667.4375-.2375s.1375-.4208333.1375-.7875v-.375c0-.3833333-.054167-.6583333-.1625-.825s-.279167-.25-.5125-.25h-4.2c-.516667-.1166667-1.108333-.175-1.775-.175-1.583333 0-2.845833.3666667-3.7875 1.1s-1.4125 1.8-1.4125 3.2c0 .85.179167 1.5833333.5375 2.2s.8625 1.1083333 1.5125 1.475c-.966667.55-1.45 1.3-1.45 2.25 0 .4333333.091667.8166667.275 1.15s.441667.5916667.775.775l-.025.1c-.716667.2833333-1.275.6791667-1.675 1.1875s-.6 1.1041667-.6 1.7875c0 2.2166667 1.891667 3.325 5.675 3.325zm.175-12.25c-.683333 0-1.229167-.1583333-1.6375-.475s-.6125-.8166667-.6125-1.5.208333-1.1875.625-1.5125.958333-.4875 1.625-.4875c.683333 0 1.233333.1625 1.65.4875s.625.8291667.625 1.5125-.208333 1.1833333-.625 1.5-.966667.475-1.65.475zm.1 9.75c-.933333 0-1.658333-.1083333-2.175-.325s-.775-.5583333-.775-1.025c0-.35.129167-.6625.3875-.9375s.6125-.4958333 1.0625-.6625c.466667.0666667.816667.1083333 1.05.125 1.183333.1333333 2.033333.2875 2.55.4625s.775.4791667.775.9125c0 .4666667-.241667.825-.725 1.075s-1.2.375-2.15.375zm14.45-2.625c.616667 0 1.279167-.075 1.9875-.225s1.304167-.3583333 1.7875-.625.725-.5583333.725-.875c0-.2333333-.1375-.5708333-.4125-1.0125s-.520833-.6625-.7375-.6625c-.066667 0-.233333.0583333-.5.175-.933333.4666667-1.85.7-2.75.7-1 0-1.7625-.2458333-2.2875-.7375s-.829167-1.2875-.9125-2.3875h6.9c.15 0 .375-.1708333.675-.5125s.45-.6041667.45-.7875c0-1.9833333-.4375-3.5583333-1.3125-4.725s-2.2125-1.75-4.0125-1.75c-1.9 0-3.370833.5583333-4.4125 1.675s-1.5625 2.825-1.5625 5.125c0 2.1333333.525 3.7708333 1.575 4.9125s2.65 1.7125 4.8 1.7125zm1.8-7.875h-4.9c.233333-2.0166667 1.125-3.025 2.675-3.025.733333 0 1.2875.2666667 1.6625.8s.5625 1.275.5625 2.225zm10.6 7.75c.716667 0 1.133333-.1583333 1.25-.475l4-11.775c.05-.1833333.075-.325.075-.425 0-.3333333-.433333-.5-1.3-.5h-.45c-.75 0-1.166667.1583333-1.25.475l-1.875 5.8c-.233333.8666667-.466667 1.8833333-.7 3.05h-.1l-.2-.85c-.283333-1.1666667-.475-1.9-.575-2.2l-1.85-5.8c-.083333-.3166667-.5-.475-1.25-.475h-.575c-.916667 0-1.375.1666667-1.375.5 0 .0833333.033333.225.1.425l3.975 11.775c.116667.3166667.541667.475 1.275.475zm8.95-15c.566667 0 .979167-.0666667 1.2375-.2s.3875-.3416667.3875-.625v-1.625c0-.55-.525-.825-1.575-.825-1.083333 0-1.625.275-1.625.825v1.625c0 .55.525.825 1.575.825zm.275 15c.883333 0 1.325-.2416667 1.325-.725v-11.725c0-.4833333-.441667-.725-1.325-.725h-.5c-.883333 0-1.325.2416667-1.325.725v11.725c0 .4833333.441667.725 1.325.725zm6.625 0c.883333 0 1.325-.2416667 1.325-.725v-8.4c.266667-.4333333.6125-.8 1.0375-1.1s.879167-.45 1.3625-.45c1.25 0 1.875.6166667 1.875 1.85v8.1c0 .4833333.441667.725 1.325.725h.475c.466667 0 .804167-.0583333 1.0125-.175s.3125-.3.3125-.55v-8.525c0-2.7-1.266667-4.05-3.8-4.05-.733333 0-1.4375.175-2.1125.525s-1.229167.8-1.6625 1.35c-.016667-.0833333-.054167-.2541667-.1125-.5125s-.145833-.5083333-.2625-.75-.316667-.3625-.6-.3625c-.433333 0-.925.0625-1.475.1875s-.825.3041667-.825.5375c0 .1166667.05.4333333.15.95s.15 1.3333333.15 2.45v8.2c0 .4833333.441667.725 1.325.725zm16.825 5.25c1.916667 0 3.429167-.3666667 4.5375-1.1s1.6625-1.725 1.6625-2.975c0-1.1-.345833-1.8958333-1.0375-2.3875s-1.629167-.8375-2.8125-1.0375c-.266667-.05-.65-.1083333-1.15-.175-.916667-.1166667-1.591667-.25-2.025-.4s-.65-.4166667-.65-.8c0-.7.608333-1.05 1.825-1.05 1.533333 0 2.758333-.375 3.675-1.125s1.375-1.8166667 1.375-3.2c0-.2833333-.045833-.5791667-.1375-.8875s-.2125-.5625-.3625-.7625l.05-.075c.3.05.733333.075 1.3.075.2 0 .345833-.0791667.4375-.2375s.1375-.4208333.1375-.7875v-.375c0-.3833333-.054167-.6583333-.1625-.825s-.279167-.25-.5125-.25h-4.2c-.516667-.1166667-1.108333-.175-1.775-.175-1.583333 0-2.845833.3666667-3.7875 1.1s-1.4125 1.8-1.4125 3.2c0 .85.179167 1.5833333.5375 2.2s.8625 1.1083333 1.5125 1.475c-.966667.55-1.45 1.3-1.45 2.25 0 .4333333.091667.8166667.275 1.15s.441667.5916667.775.775l-.025.1c-.716667.2833333-1.275.6791667-1.675 1.1875s-.6 1.1041667-.6 1.7875c0 2.2166667 1.891667 3.325 5.675 3.325zm.175-12.25c-.683333 0-1.229167-.1583333-1.6375-.475s-.6125-.8166667-.6125-1.5.208333-1.1875.625-1.5125.958333-.4875 1.625-.4875c.683333 0 1.233333.1625 1.65.4875s.625.8291667.625 1.5125-.208333 1.1833333-.625 1.5-.966667.475-1.65.475zm.1 9.75c-.933333 0-1.658333-.1083333-2.175-.325s-.775-.5583333-.775-1.025c0-.35.129167-.6625.3875-.9375s.6125-.4958333 1.0625-.6625c.466667.0666667.816667.1083333 1.05.125 1.183333.1333333 2.033333.2875 2.55.4625s.775.4791667.775.9125c0 .4666667-.241667.825-.725 1.075s-1.2.375-2.15.375zm11.8-2.6c1.433333 0 2.579167-.3791667 3.4375-1.1375s1.2875-1.7541667 1.2875-2.9875c0-1-.225-1.7666667-.675-2.3s-1.158333-.9916667-2.125-1.375c-.7-.2833333-1.1875-.4916667-1.4625-.625s-.520833-.3166667-.7375-.55-.325-.525-.325-.875.15-.6208333.45-.8125.7-.2875 1.2-.2875c.583333 0 1.083333.0916667 1.5.275s.641667.275.675.275c.2 0 .416667-.2208333.65-.6625s.35-.8041667.35-1.0875c0-.4-.383333-.7208333-1.15-.9625s-1.583333-.3625-2.45-.3625c-1.333333 0-2.404167.3583333-3.2125 1.075s-1.2125 1.675-1.2125 2.875c0 1.05.266667 1.85.8 2.4s1.291667 1 2.275 1.35c.8.2833333 1.379167.55 1.7375.8s.5375.6.5375 1.05c0 .9333333-.6 1.4-1.8 1.4-.433333 0-.820833-.0583333-1.1625-.175s-.6625-.2541667-.9625-.4125-.483333-.2375-.55-.2375c-.216667 0-.466667.2125-.75.6375s-.425.7791667-.425 1.0625.2.5541667.6.8125.916667.4625 1.55.6125 1.283333.225 1.95.225z" fill="#39870c"/><path d="m192.5 33.175c1.466667 0 2.2-.35 2.2-1.05 0-.2-.066667-.5125-.2-.9375s-.3-.6375-.5-.6375c-.066667 0-.175.0166667-.325.05s-.308333.05-.475.05c-.35 0-.616667-.1041667-.8-.3125s-.275-.5541667-.275-1.0375v-14.425c0-.4666667-.441667-.7-1.325-.7h-.475c-.883333 0-1.325.2333333-1.325.7v14.475c0 1.3333333.316667 2.3041667.95 2.9125s1.483333.9125 2.55.9125zm9.325 0c1.933333 0 3.404167-.5708333 4.4125-1.7125s1.5125-2.8041667 1.5125-4.9875-.504167-3.85-1.5125-5-2.479167-1.725-4.4125-1.725c-1.95 0-3.433333.575-4.45 1.725s-1.525 2.8166667-1.525 5c0 2.1666667.508333 3.825 1.525 4.975s2.5 1.725 4.45 1.725zm-.025-2.525c-.933333 0-1.625-.3458333-2.075-1.0375s-.675-1.7458333-.675-3.1625c0-1.4.225-2.4458333.675-3.1375s1.141667-1.0375 2.075-1.0375 1.620833.3458333 2.0625 1.0375.6625 1.7375.6625 3.1375c0 1.4166667-.220833 2.4708333-.6625 3.1625s-1.129167 1.0375-2.0625 1.0375zm10.8 2.4c.9 0 1.35-.2416667 1.35-.725v-5.5h.1l4 5.8c.1.1666667.270833.2791667.5125.3375s.554167.0875.9375.0875h.7c.883333 0 1.325-.125 1.325-.375 0-.1166667-.066667-.275-.2-.475l-4.425-6.325 3.85-5.15c.15-.2.225-.3666667.225-.5 0-.1-.1-.1833333-.3-.25s-.5-.1-.9-.1h-.65c-.383333 0-.691667.0291667-.925.0875s-.408333.1708333-.525.3375l-3.625 4.95-.1-.025v-10.35c0-.4666667-.45-.7-1.35-.7h-.475c-.883333 0-1.325.2333333-1.325.7v17.45c0 .4833333.441667.725 1.325.725zm16.875.125c.616667 0 1.279167-.075 1.9875-.225s1.304167-.3583333 1.7875-.625.725-.5583333.725-.875c0-.2333333-.1375-.5708333-.4125-1.0125s-.520833-.6625-.7375-.6625c-.066667 0-.233333.0583333-.5.175-.933333.4666667-1.85.7-2.75.7-1 0-1.7625-.2458333-2.2875-.7375s-.829167-1.2875-.9125-2.3875h6.9c.15 0 .375-.1708333.675-.5125s.45-.6041667.45-.7875c0-1.9833333-.4375-3.5583333-1.3125-4.725s-2.2125-1.75-4.0125-1.75c-1.9 0-3.370833.5583333-4.4125 1.675s-1.5625 2.825-1.5625 5.125c0 2.1333333.525 3.7708333 1.575 4.9125s2.65 1.7125 4.8 1.7125zm1.8-7.875h-4.9c.233333-2.0166667 1.125-3.025 2.675-3.025.733333 0 1.2875.2666667 1.6625.8s.5625 1.275.5625 2.225zm9.825 7.875c1.466667 0 2.2-.35 2.2-1.05 0-.2-.066667-.5125-.2-.9375s-.3-.6375-.5-.6375c-.083333 0-.2.0166667-.35.05s-.308333.05-.475.05c-.35 0-.6125-.1-.7875-.3s-.2625-.55-.2625-1.05v-6.85h1.525c.233333 0 .404167-.0833333.5125-.25s.1625-.4416667.1625-.825v-.375c0-.3833333-.054167-.6583333-.1625-.825s-.279167-.25-.5125-.25h-1.525v-2.45c0-.4833333-.358333-.725-1.075-.725h-.6c-.683333 0-1.066667.2416667-1.15.725l-.325 2.45h-.675c-.233333 0-.404167.0833333-.5125.25s-.1625.4416667-.1625.825v.375c0 .3833333.054167.6583333.1625.825s.279167.25.5125.25h.675v6.9c0 1.3166667.320833 2.2833333.9625 2.9s1.495833.925 2.5625.925z" fill="#275937"/></g></g></svg>
