<svg viewBox="0 0 277 64" width="277" height="64" xmlns="http://www.w3.org/2000/svg"><g fill="none" fill-rule="nonzero"><path d="m69.98 59c3.48 0 5.22-1.34 5.22-4.02 0-.7866667-.2066667-1.4233333-.62-1.91s-.88-.8566667-1.4-1.11-.78-.3533333-.78-.3v-.08c.5866667-.16 1.1-.54 1.54-1.14s.66-1.2333333.66-1.9c0-1.08-.3833333-1.94-1.15-2.58s-1.8766667-.96-3.33-.96h-3.58c-.2133333 0-.3666667.0466667-.46.14s-.14.2466667-.14.46v12.8c0 .2133333.0466667.3666667.14.46s.2466667.14.46.14zm.04-7.96h-2.32v-4.52h2.24c.9866667 0 1.7066667.1766667 2.16.53s.68.9033333.68 1.65c0 .6533333-.26 1.2066667-.78 1.66s-1.18.68-1.98.68zm.6 6.44h-2.92v-4.92h2.58c1.0133333 0 1.7833333.2033333 2.31.61s.79.9833333.79 1.73c0 .8-.24 1.43-.72 1.89s-1.16.69-2.04.69zm11.24 1.64c.6266667 0 1.2166667-.07 1.77-.21s.9966667-.3133333 1.33-.52.5-.39.5-.55c0-.1333333-.0833333-.3333333-.25-.6s-.3166667-.4-.45-.4c-.04 0-.1933333.07-.46.21s-.6033333.28-1.01.42-.89.21-1.45.21c-.9866667 0-1.7266667-.26-2.22-.78s-.78-1.3333333-.86-2.44h6.32c.12 0 .26-.1066667.42-.32s.24-.38.24-.5c0-1.7066667-.3466667-3.0033333-1.04-3.89s-1.72-1.33-3.08-1.33c-1.5333333 0-2.6933333.46-3.48 1.38s-1.18 2.2666667-1.18 4.04c0 1.7866667.4 3.1133333 1.2 3.98s2.0333333 1.3 3.7 1.3zm2.1-6.1h-5.2c.1466667-2.1066667 1.08-3.16 2.8-3.16 1.6 0 2.4 1.0533333 2.4 3.16zm5.4 6.02c.5333333 0 .8-.1466667.8-.44v-7.32c0-.0266667.1233333-.1633333.37-.41s.5566667-.4733333.93-.68.78-.31 1.22-.31c.6666667 0 1.1733333.1733333 1.52.52s.52.82.52 1.42v6.78c0 .2933333.2666667.44.8.44h.08c.5333333 0 .8-.1466667.8-.44v-6.94c0-1.2133333-.32-2.0566667-.96-2.53s-1.38-.71-2.22-.71c-.5866667 0-1.1433333.13-1.67.39s-.99.59-1.39.99v-5.4c0-.2933333-.2666667-.44-.8-.44h-.08c-.5333333 0-.8.1466667-.8.44v14.2c0 .2933333.2666667.44.8.44zm14.58.08c.626667 0 1.216667-.07 1.77-.21s.996667-.3133333 1.33-.52.5-.39.5-.55c0-.1333333-.083333-.3333333-.25-.6s-.316667-.4-.45-.4c-.04 0-.193333.07-.46.21s-.603333.28-1.01.42-.89.21-1.45.21c-.986667 0-1.726667-.26-2.22-.78s-.78-1.3333333-.86-2.44h6.32c.12 0 .26-.1066667.42-.32s.24-.38.24-.5c0-1.7066667-.346667-3.0033333-1.04-3.89s-1.72-1.33-3.08-1.33c-1.533333 0-2.693333.46-3.48 1.38-.7866667.92-1.18 2.2666667-1.18 4.04 0 1.7866667.4 3.1133333 1.2 3.98s2.033333 1.3 3.7 1.3zm2.1-6.1h-5.2c.146667-2.1066667 1.08-3.16 2.8-3.16 1.6 0 2.4 1.0533333 2.4 3.16zm8.68 6.1c.626667 0 1.216667-.07 1.77-.21s.996667-.3133333 1.33-.52.5-.39.5-.55c0-.1333333-.083333-.3333333-.25-.6s-.316667-.4-.45-.4c-.04 0-.193333.07-.46.21s-.603333.28-1.01.42-.89.21-1.45.21c-.986667 0-1.726667-.26-2.22-.78s-.78-1.3333333-.86-2.44h6.32c.12 0 .26-.1066667.42-.32s.24-.38.24-.5c0-1.7066667-.346667-3.0033333-1.04-3.89s-1.72-1.33-3.08-1.33c-1.533333 0-2.693333.46-3.48 1.38s-1.18 2.2666667-1.18 4.04c0 1.7866667.4 3.1133333 1.2 3.98s2.033333 1.3 3.7 1.3zm2.1-6.1h-5.2c.146667-2.1066667 1.08-3.16 2.8-3.16 1.6 0 2.4 1.0533333 2.4 3.16zm5.36 6.02c.533333 0 .8-.1466667.8-.44v-7.32c0-.0266667.093333-.1466667.28-.36s.416667-.41.69-.59.563333-.27.87-.27c.28 0 .516667.0366667.71.11s.323333.11.39.11c.106667 0 .2-.1233333.28-.37s.12-.4833333.12-.71-.1-.4133333-.3-.56-.486667-.22-.86-.22c-.84 0-1.613333.5-2.32 1.5-.013333-.0666667-.043333-.2066667-.09-.42s-.113333-.4166667-.2-.61-.223333-.29-.41-.29c-.213333 0-.446667.0366667-.7.11s-.38.19-.38.35c0 .04.04.25.12.63s.12 1.01.12 1.89v7.02c0 .2933333.266667.44.8.44zm14.32.08c1.36 0 2.44-.3466667 3.24-1.04s1.2-1.64 1.2-2.84c0-.84-.176667-1.53-.53-2.07s-.783333-.9533333-1.29-1.24-1.16-.5833333-1.96-.89c-.746667-.2933333-1.27-.51-1.57-.65s-.566667-.35-.8-.63-.35-.6466667-.35-1.1c0-.7066667.236667-1.26.71-1.66s1.096667-.6 1.87-.6c.72 0 1.413333.1733333 2.08.52.04.0266667.123333.0733333.25.14s.223333.1.29.1c.093333 0 .223333-.14.39-.42s.25-.4933333.25-.64c0-.1866667-.133333-.36-.4-.52-.306667-.2133333-.74-.3833333-1.3-.51s-1.066667-.19-1.52-.19c-.88 0-1.656667.1566667-2.33.47s-1.193333.75-1.56 1.31-.55 1.2-.55 1.92c0 .8133333.16 1.47.48 1.97s.706667.8766667 1.16 1.13 1.066667.5333333 1.84.84c.72.28 1.27.5166667 1.65.71s.703333.4533333.97.78.4.7366667.4 1.23c0 .7066667-.243333 1.2766667-.73 1.71s-1.116667.65-1.89.65c-.653333 0-1.216667-.08-1.69-.24s-.916667-.3533333-1.33-.58c-.226667-.1333333-.366667-.2-.42-.2-.106667 0-.25.14-.43.42s-.27.5-.27.66c0 .1466667.126667.3133333.38.5.346667.2666667.86.4933333 1.54.68s1.42.28 2.22.28zm9.84 0c.973333 0 1.46-.2 1.46-.6 0-.1333333-.04-.3233333-.12-.57s-.18-.37-.3-.37c-.066667 0-.163333.0166667-.29.05s-.316667.05-.57.05c-.333333 0-.596667-.1066667-.79-.32s-.29-.6-.29-1.16v-6.22h1.68c.146667 0 .25-.0466667.31-.14s.09-.2466667.09-.46v-.24c0-.2133333-.03-.3666667-.09-.46s-.163333-.14-.31-.14h-1.68v-2.1c0-.2933333-.2-.44-.6-.44h-.2c-.386667 0-.6.1466667-.64.44l-.24 2.1h-1c-.133333 0-.233333.0466667-.3.14s-.1.2466667-.1.46v.24c0 .2133333.033333.3666667.1.46s.166667.14.3.14h1v6.38c0 1.0266667.263333 1.7433333.79 2.15s1.123333.61 1.79.61zm8.12 0c.626667 0 1.216667-.07 1.77-.21s.996667-.3133333 1.33-.52.5-.39.5-.55c0-.1333333-.083333-.3333333-.25-.6s-.316667-.4-.45-.4c-.04 0-.193333.07-.46.21s-.603333.28-1.01.42-.89.21-1.45.21c-.986667 0-1.726667-.26-2.22-.78s-.78-1.3333333-.86-2.44h6.32c.12 0 .26-.1066667.42-.32s.24-.38.24-.5c0-1.7066667-.346667-3.0033333-1.04-3.89s-1.72-1.33-3.08-1.33c-1.533333 0-2.693333.46-3.48 1.38s-1.18 2.2666667-1.18 4.04c0 1.7866667.4 3.1133333 1.2 3.98s2.033333 1.3 3.7 1.3zm2.1-6.1h-5.2c.146667-2.1066667 1.08-3.16 2.8-3.16 1.6 0 2.4 1.0533333 2.4 3.16zm6.9 6.1c.973333 0 1.46-.2 1.46-.6 0-.1333333-.04-.3233333-.12-.57s-.18-.37-.3-.37c-.066667 0-.163333.0166667-.29.05s-.316667.05-.57.05c-.333333 0-.596667-.1066667-.79-.32s-.29-.6-.29-1.16v-11.8c0-.2933333-.266667-.44-.8-.44h-.08c-.533333 0-.8.1466667-.8.44v11.96c0 1.0266667.263333 1.7433333.79 2.15s1.123333.61 1.79.61zm5.6.06c.653333 0 1.25-.1366667 1.79-.41s.966667-.6466667 1.28-1.12.47-1.0033333.47-1.59c0-.6133333-.096667-1.11-.29-1.49s-.513333-.7-.96-.96-1.096667-.5233333-1.95-.79c-.56-.1733333-.96-.3933333-1.2-.66s-.36-.6266667-.36-1.08c0-.3866667.17-.6933333.51-.92s.763333-.34 1.27-.34c.546667 0 .976667.0833333 1.29.25s.49.2566667.53.27c.12 0 .256667-.1366667.41-.41s.23-.4966667.23-.67c0-.2266667-.27-.4266667-.81-.6s-1.15-.26-1.83-.26c-.64 0-1.21.1233333-1.71.37s-.893333.59-1.18 1.03-.43.94-.43 1.5c0 .7733333.2 1.39.6 1.85s1.126667.8433333 2.18 1.15c.746667.2133333 1.266667.4533333 1.56.72s.44.6266667.44 1.08c0 1.08-.653333 1.62-1.96 1.62-.413333 0-.79-.06-1.13-.18s-.623333-.2533333-.85-.4-.353333-.22-.38-.22c-.133333 0-.283333.1333333-.45.4s-.25.4666667-.25.6c0 .16.143333.34.43.54s.673333.37 1.16.51 1.016667.21 1.59.21zm10.38-.06c.626667 0 1.216667-.07 1.77-.21s.996667-.3133333 1.33-.52.5-.39.5-.55c0-.1333333-.083333-.3333333-.25-.6s-.316667-.4-.45-.4c-.04 0-.193333.07-.46.21s-.603333.28-1.01.42-.89.21-1.45.21c-.986667 0-1.726667-.26-2.22-.78s-.78-1.3333333-.86-2.44h6.32c.12 0 .26-.1066667.42-.32s.24-.38.24-.5c0-1.7066667-.346667-3.0033333-1.04-3.89s-1.72-1.33-3.08-1.33c-1.533333 0-2.693333.46-3.48 1.38s-1.18 2.2666667-1.18 4.04c0 1.7866667.4 3.1133333 1.2 3.98s2.033333 1.3 3.7 1.3zm2.1-6.1h-5.2c.146667-2.1066667 1.08-3.16 2.8-3.16 1.6 0 2.4 1.0533333 2.4 3.16zm6.9 6.1c.973333 0 1.46-.2 1.46-.6 0-.1333333-.04-.3233333-.12-.57s-.18-.37-.3-.37c-.066667 0-.163333.0166667-.29.05s-.316667.05-.57.05c-.333333 0-.596667-.1066667-.79-.32s-.29-.6-.29-1.16v-11.8c0-.2933333-.266667-.44-.8-.44h-.08c-.533333 0-.8.1466667-.8.44v11.96c0 1.0266667.263333 1.7433333.79 2.15s1.123333.61 1.79.61zm7.68 0c.56 0 1.08-.0533333 1.56-.16s.863333-.2366667 1.15-.39.43-.31.43-.47-.08-.37-.24-.63-.306667-.39-.44-.39l-.22.08c-.693333.3466667-1.446667.52-2.26.52-1.12 0-1.916667-.3133333-2.39-.94s-.71-1.6466667-.71-3.06c0-2.5466667.966667-3.82 2.9-3.82.733333 0 1.46.16 2.18.48.053333.0133333.096667.03.13.05s.063333.03.09.03c.12 0 .256667-.1366667.41-.41s.23-.4966667.23-.67c0-.24-.306667-.4533333-.92-.64s-1.306667-.28-2.08-.28c-1.346667 0-2.473333.4066667-3.38 1.22s-1.36 2.1733333-1.36 4.08c0 1.8933333.406667 3.2666667 1.22 4.12s2.046667 1.28 3.7 1.28zm8.14 0c1.333333 0 2.453333-.5 3.36-1.5.013333.0666667.043333.2133333.09.44s.113333.4433333.2.65.223333.31.41.31c.213333 0 .446667-.0366667.7-.11s.38-.19.38-.35c0-.04-.04-.25-.12-.63s-.12-1.01-.12-1.89v-4.48c0-.9866667-.346667-1.7566667-1.04-2.31s-1.66-.83-2.9-.83c-.626667 0-1.233333.07-1.82.21s-1.056667.31-1.41.51-.53.3866667-.53.56c0 .1333333.083333.3333333.25.6s.316667.4.45.4c.026667 0 .186667-.07.48-.21s.66-.28 1.1-.42.953333-.21 1.54-.21c.773333 0 1.333333.1566667 1.68.47s.52.7166667.52 1.21v.94c-1.32.0133333-2.44.0966667-3.36.25s-1.696667.4933333-2.33 1.02-.95 1.3166667-.95 2.37c0 .9866667.313333 1.7333333.94 2.24s1.453333.76 2.48.76zm.08-1.46c-.56 0-.983333-.14-1.27-.42s-.43-.6866667-.43-1.22c0-.64.24-1.1133333.72-1.42s1.036667-.4933333 1.67-.56 1.45-.1066667 2.45-.12v2.36c-.493333.44-.976667.78-1.45 1.02s-1.036667.36-1.69.36zm11.14 1.46c.973333 0 1.46-.2 1.46-.6 0-.1333333-.04-.3233333-.12-.57s-.18-.37-.3-.37c-.066667 0-.163333.0166667-.29.05s-.316667.05-.57.05c-.333333 0-.596667-.1066667-.79-.32s-.29-.6-.29-1.16v-6.22h1.68c.146667 0 .25-.0466667.31-.14s.09-.2466667.09-.46v-.24c0-.2133333-.03-.3666667-.09-.46s-.163333-.14-.31-.14h-1.68v-2.1c0-.2933333-.2-.44-.6-.44h-.2c-.386667 0-.6.1466667-.64.44l-.24 2.1h-1c-.133333 0-.233333.0466667-.3.14s-.1.2466667-.1.46v.24c0 .2133333.033333.3666667.1.46s.166667.14.3.14h1v6.38c0 1.0266667.263333 1.7433333.79 2.15s1.123333.61 1.79.61zm6.52 0c1.333333 0 2.453333-.5 3.36-1.5.013333.0666667.043333.2133333.09.44s.113333.4433333.2.65.223333.31.41.31c.213333 0 .446667-.0366667.7-.11s.38-.19.38-.35c0-.04-.04-.25-.12-.63s-.12-1.01-.12-1.89v-4.48c0-.9866667-.346667-1.7566667-1.04-2.31s-1.66-.83-2.9-.83c-.626667 0-1.233333.07-1.82.21s-1.056667.31-1.41.51-.53.3866667-.53.56c0 .1333333.083333.3333333.25.6s.316667.4.45.4c.026667 0 .186667-.07.48-.21s.66-.28 1.1-.42.953333-.21 1.54-.21c.773333 0 1.333333.1566667 1.68.47s.52.7166667.52 1.21v.94c-1.32.0133333-2.44.0966667-3.36.25s-1.696667.4933333-2.33 1.02-.95 1.3166667-.95 2.37c0 .9866667.313333 1.7333333.94 2.24s1.453333.76 2.48.76zm.08-1.46c-.56 0-.983333-.14-1.27-.42s-.43-.6866667-.43-1.22c0-.64.24-1.1133333.72-1.42s1.036667-.4933333 1.67-.56 1.45-.1066667 2.45-.12v2.36c-.493333.44-.976667.78-1.45 1.02s-1.036667.36-1.69.36zm10.64 1.46c.973333 0 1.46-.2 1.46-.6 0-.1333333-.04-.3233333-.12-.57s-.18-.37-.3-.37c-.066667 0-.163333.0166667-.29.05s-.316667.05-.57.05c-.333333 0-.596667-.1066667-.79-.32s-.29-.6-.29-1.16v-11.8c0-.2933333-.266667-.44-.8-.44h-.08c-.533333 0-.8.1466667-.8.44v11.96c0 1.0266667.263333 1.7433333.79 2.15s1.123333.61 1.79.61zm7.46 0c1.493333 0 2.623333-.45 3.39-1.35s1.15-2.2166667 1.15-3.95c0-1.7466667-.39-3.0833333-1.17-4.01s-1.903333-1.39-3.37-1.39c-1.493333 0-2.64.4666667-3.44 1.4s-1.2 2.2666667-1.2 4c0 1.72.396667 3.0333333 1.19 3.94s1.943333 1.36 3.45 1.36zm-.06-1.44c-.973333 0-1.686667-.3166667-2.14-.95s-.68-1.6166667-.68-2.95c0-1.3466667.226667-2.3366667.68-2.97s1.166667-.95 2.14-.95 1.693333.32 2.16.96.7 1.6266667.7 2.96-.233333 2.3166667-.7 2.95-1.186667.95-2.16.95zm10.76 5.56c1.493333 0 2.626667-.26 3.4-.78s1.16-1.2666667 1.16-2.24c0-.8266667-.263333-1.4033333-.79-1.73s-1.27-.55-2.23-.67c-.146667-.0266667-.366667-.0533333-.66-.08-.6-.0666667-1.066667-.14-1.4-.22s-.61-.21-.83-.39-.33-.4433333-.33-.79c0-.48.16-.83.48-1.05s.793333-.33 1.42-.33c1.253333 0 2.223333-.3066667 2.91-.92s1.03-1.4 1.03-2.36c0-.6533333-.173333-1.2266667-.52-1.72l.02-.04c.386667.04.853333.06 1.4.06.146667 0 .25-.0466667.31-.14s.09-.2466667.09-.46v-.24c0-.2133333-.03-.3666667-.09-.46s-.163333-.14-.31-.14h-3.64c-.36-.08-.753333-.12-1.18-.12-1.24 0-2.206667.3066667-2.9.92s-1.04 1.3933333-1.04 2.34c0 .6133333.146667 1.1666667.44 1.66s.72.88 1.28 1.16c-.746667.52-1.12 1.2133333-1.12 2.08 0 .6666667.266667 1.2133333.8 1.64l-.02.04c-.546667.2266667-.986667.5533333-1.32.98s-.5.9333333-.5 1.52c0 .8533333.37 1.48 1.11 1.88s1.75.6 3.03.6zm.22-9.62c-1.586667 0-2.38-.64-2.38-1.92 0-1.2933333.793333-1.94 2.38-1.94 1.6 0 2.4.6466667 2.4 1.94 0 .68-.216667 1.17-.65 1.47s-1.016667.45-1.75.45zm0 8.26c-1.906667 0-2.86-.48-2.86-1.44 0-.7066667.44-1.2466667 1.32-1.62.293333.0933333.84.18 1.64.26.88.0933333 1.54.22 1.98.38s.66.4733333.66.94c0 .5066667-.223333.88-.67 1.12s-1.136667.36-2.07.36zm10.4-2.76c.56 0 1.113333-.1333333 1.66-.4s1.033333-.6333333 1.46-1.1c.013333.0666667.043333.2133333.09.44s.113333.4433333.2.65.223333.31.41.31c.213333 0 .446667-.0366667.7-.11s.38-.19.38-.35c0-.04-.04-.25-.12-.63s-.12-1.01-.12-1.89v-7.1c0-.2933333-.266667-.44-.8-.44h-.08c-.533333 0-.8.1466667-.8.44v7.32c-.333333.4266667-.723333.7666667-1.17 1.02s-.896667.38-1.35.38c-.653333 0-1.156667-.17-1.51-.51s-.53-.8166667-.53-1.43v-6.78c0-.2933333-.266667-.44-.8-.44h-.08c-.533333 0-.8.1466667-.8.44v6.94c0 1.0133333.29 1.8066667.87 2.38s1.376667.86 2.39.86zm10.26.06c.653333 0 1.25-.1366667 1.79-.41s.966667-.6466667 1.28-1.12.47-1.0033333.47-1.59c0-.6133333-.096667-1.11-.29-1.49s-.513333-.7-.96-.96-1.096667-.5233333-1.95-.79c-.56-.1733333-.96-.3933333-1.2-.66s-.36-.6266667-.36-1.08c0-.3866667.17-.6933333.51-.92s.763333-.34 1.27-.34c.546667 0 .976667.0833333 1.29.25s.49.2566667.53.27c.12 0 .256667-.1366667.41-.41s.23-.4966667.23-.67c0-.2266667-.27-.4266667-.81-.6s-1.15-.26-1.83-.26c-.64 0-1.21.1233333-1.71.37s-.893333.59-1.18 1.03-.43.94-.43 1.5c0 .7733333.2 1.39.6 1.85s1.126667.8433333 2.18 1.15c.746667.2133333 1.266667.4533333 1.56.72s.44.6266667.44 1.08c0 1.08-.653333 1.62-1.96 1.62-.413333 0-.79-.06-1.13-.18s-.623333-.2533333-.85-.4-.353333-.22-.38-.22c-.133333 0-.283333.1333333-.45.4s-.25.4666667-.25.6c0 .16.143333.34.43.54s.673333.37 1.16.51 1.016667.21 1.59.21z" fill="#666"/><g><path d="m24 0c-13.2806324 0-24 10.7193676-24 24s10.7193676 24 24 24 24-10.7193676 24-24c-.0948617-13.2806324-10.8142292-24-24-24z" fill="#80bc00"/><path d="m24 8c-8.8786127 0-16 7.1213873-16 16s7.1213873 16 16 16c8.7861272 0 16-7.1213873 16-16s-7.2138728-16-16-16z" fill="#275937"/><path d="m24 32c4.4044944 0 8-3.5955056 8-8s-3.5955056-8-8-8-8 3.5955056-8 8c0 4.494382 3.5955056 8 8 8z" fill="#e17000"/><path d="m73.15 33.175c2.55 0 4.5041667-.7666667 5.8625-2.3s2.0375-3.75 2.0375-6.65-.6791667-5.1083333-2.0375-6.625-3.3125-2.275-5.8625-2.275-4.5083333.7625-5.875 2.2875-2.05 3.7291667-2.05 6.6125c0 2.9.6833333 5.1166667 2.05 6.65s3.325 2.3 5.875 2.3zm0-2.8c-1.4833333 0-2.6125-.525-3.3875-1.575s-1.1625-2.575-1.1625-4.575.3875-3.5166667 1.1625-4.55 1.9041667-1.55 3.3875-1.55 2.6083333.5166667 3.375 1.55 1.15 2.55 1.15 4.55-.3875 3.525-1.1625 4.575-1.8958333 1.575-3.3625 1.575zm12.7 2.675c.8833333 0 1.325-.2416667 1.325-.725v-8.4c.1666667-.3166667.4583333-.6541667.875-1.0125s.9083333-.5375 1.475-.5375c1.2 0 1.8.6166667 1.8 1.85v8.1c0 .25.1041667.4333333.3125.55s.5458333.175 1.0125.175h.475c.8833333 0 1.325-.2416667 1.325-.725v-8.4c.2333333-.3833333.55-.7375.95-1.0625s.8666667-.4875 1.4-.4875c1.2 0 1.8.6166667 1.8 1.85v8.1c0 .4833333.4416667.725 1.325.725h.5c.883333 0 1.325-.2416667 1.325-.725v-8.525c0-2.7-1.25-4.05-3.75-4.05-.7666667 0-1.4958333.1875-2.1875.5625s-1.2625.8375-1.7125 1.3875c-.5-1.3-1.625-1.95-3.375-1.95-.75 0-1.4541667.1791667-2.1125.5375s-1.2041667.8041667-1.6375 1.3375c-.0166667-.1-.0541667-.2791667-.1125-.5375s-.1458333-.5041667-.2625-.7375-.3083333-.35-.575-.35c-.4333333 0-.925.0625-1.475.1875s-.825.3041667-.825.5375c0 .1166667.05.4333333.15.95s.15 1.3333333.15 2.45v8.2c0 .4833333.4416667.725 1.325.725zm24.1 5.25c1.916667 0 3.429167-.3666667 4.5375-1.1s1.6625-1.725 1.6625-2.975c0-1.1-.345833-1.8958333-1.0375-2.3875s-1.629167-.8375-2.8125-1.0375c-.266667-.05-.65-.1083333-1.15-.175-.916667-.1166667-1.591667-.25-2.025-.4s-.65-.4166667-.65-.8c0-.7.608333-1.05 1.825-1.05 1.533333 0 2.758333-.375 3.675-1.125s1.375-1.8166667 1.375-3.2c0-.2833333-.045833-.5791667-.1375-.8875s-.2125-.5625-.3625-.7625l.05-.075c.3.05.733333.075 1.3.075.2 0 .345833-.0791667.4375-.2375s.1375-.4208333.1375-.7875v-.375c0-.3833333-.054167-.6583333-.1625-.825s-.279167-.25-.5125-.25h-4.2c-.516667-.1166667-1.108333-.175-1.775-.175-1.583333 0-2.845833.3666667-3.7875 1.1s-1.4125 1.8-1.4125 3.2c0 .85.179167 1.5833333.5375 2.2s.8625 1.1083333 1.5125 1.475c-.966667.55-1.45 1.3-1.45 2.25 0 .4333333.091667.8166667.275 1.15s.441667.5916667.775.775l-.025.1c-.716667.2833333-1.275.6791667-1.675 1.1875s-.6 1.1041667-.6 1.7875c0 2.2166667 1.891667 3.325 5.675 3.325zm.175-12.25c-.683333 0-1.229167-.1583333-1.6375-.475s-.6125-.8166667-.6125-1.5.208333-1.1875.625-1.5125.958333-.4875 1.625-.4875c.683333 0 1.233333.1625 1.65.4875s.625.8291667.625 1.5125-.208333 1.1833333-.625 1.5-.966667.475-1.65.475zm.1 9.75c-.933333 0-1.658333-.1083333-2.175-.325s-.775-.5583333-.775-1.025c0-.35.129167-.6625.3875-.9375s.6125-.4958333 1.0625-.6625c.466667.0666667.816667.1083333 1.05.125 1.183333.1333333 2.033333.2875 2.55.4625s.775.4791667.775.9125c0 .4666667-.241667.825-.725 1.075s-1.2.375-2.15.375zm14.45-2.625c.616667 0 1.279167-.075 1.9875-.225s1.304167-.3583333 1.7875-.625.725-.5583333.725-.875c0-.2333333-.1375-.5708333-.4125-1.0125s-.520833-.6625-.7375-.6625c-.066667 0-.233333.0583333-.5.175-.933333.4666667-1.85.7-2.75.7-1 0-1.7625-.2458333-2.2875-.7375s-.829167-1.2875-.9125-2.3875h6.9c.15 0 .375-.1708333.675-.5125s.45-.6041667.45-.7875c0-1.9833333-.4375-3.5583333-1.3125-4.725s-2.2125-1.75-4.0125-1.75c-1.9 0-3.370833.5583333-4.4125 1.675s-1.5625 2.825-1.5625 5.125c0 2.1333333.525 3.7708333 1.575 4.9125s2.65 1.7125 4.8 1.7125zm1.8-7.875h-4.9c.233333-2.0166667 1.125-3.025 2.675-3.025.733333 0 1.2875.2666667 1.6625.8s.5625 1.275.5625 2.225zm10.6 7.75c.716667 0 1.133333-.1583333 1.25-.475l4-11.775c.05-.1833333.075-.325.075-.425 0-.3333333-.433333-.5-1.3-.5h-.45c-.75 0-1.166667.1583333-1.25.475l-1.875 5.8c-.233333.8666667-.466667 1.8833333-.7 3.05h-.1l-.2-.85c-.283333-1.1666667-.475-1.9-.575-2.2l-1.85-5.8c-.083333-.3166667-.5-.475-1.25-.475h-.575c-.916667 0-1.375.1666667-1.375.5 0 .0833333.033333.225.1.425l3.975 11.775c.116667.3166667.541667.475 1.275.475zm8.95-15c.566667 0 .979167-.0666667 1.2375-.2s.3875-.3416667.3875-.625v-1.625c0-.55-.525-.825-1.575-.825-1.083333 0-1.625.275-1.625.825v1.625c0 .55.525.825 1.575.825zm.275 15c.883333 0 1.325-.2416667 1.325-.725v-11.725c0-.4833333-.441667-.725-1.325-.725h-.5c-.883333 0-1.325.2416667-1.325.725v11.725c0 .4833333.441667.725 1.325.725zm6.625 0c.883333 0 1.325-.2416667 1.325-.725v-8.4c.266667-.4333333.6125-.8 1.0375-1.1s.879167-.45 1.3625-.45c1.25 0 1.875.6166667 1.875 1.85v8.1c0 .4833333.441667.725 1.325.725h.475c.466667 0 .804167-.0583333 1.0125-.175s.3125-.3.3125-.55v-8.525c0-2.7-1.266667-4.05-3.8-4.05-.733333 0-1.4375.175-2.1125.525s-1.229167.8-1.6625 1.35c-.016667-.0833333-.054167-.2541667-.1125-.5125s-.145833-.5083333-.2625-.75-.316667-.3625-.6-.3625c-.433333 0-.925.0625-1.475.1875s-.825.3041667-.825.5375c0 .1166667.05.4333333.15.95s.15 1.3333333.15 2.45v8.2c0 .4833333.441667.725 1.325.725zm16.825 5.25c1.916667 0 3.429167-.3666667 4.5375-1.1s1.6625-1.725 1.6625-2.975c0-1.1-.345833-1.8958333-1.0375-2.3875s-1.629167-.8375-2.8125-1.0375c-.266667-.05-.65-.1083333-1.15-.175-.916667-.1166667-1.591667-.25-2.025-.4s-.65-.4166667-.65-.8c0-.7.608333-1.05 1.825-1.05 1.533333 0 2.758333-.375 3.675-1.125s1.375-1.8166667 1.375-3.2c0-.2833333-.045833-.5791667-.1375-.8875s-.2125-.5625-.3625-.7625l.05-.075c.3.05.733333.075 1.3.075.2 0 .345833-.0791667.4375-.2375s.1375-.4208333.1375-.7875v-.375c0-.3833333-.054167-.6583333-.1625-.825s-.279167-.25-.5125-.25h-4.2c-.516667-.1166667-1.108333-.175-1.775-.175-1.583333 0-2.845833.3666667-3.7875 1.1s-1.4125 1.8-1.4125 3.2c0 .85.179167 1.5833333.5375 2.2s.8625 1.1083333 1.5125 1.475c-.966667.55-1.45 1.3-1.45 2.25 0 .4333333.091667.8166667.275 1.15s.441667.5916667.775.775l-.025.1c-.716667.2833333-1.275.6791667-1.675 1.1875s-.6 1.1041667-.6 1.7875c0 2.2166667 1.891667 3.325 5.675 3.325zm.175-12.25c-.683333 0-1.229167-.1583333-1.6375-.475s-.6125-.8166667-.6125-1.5.208333-1.1875.625-1.5125.958333-.4875 1.625-.4875c.683333 0 1.233333.1625 1.65.4875s.625.8291667.625 1.5125-.208333 1.1833333-.625 1.5-.966667.475-1.65.475zm.1 9.75c-.933333 0-1.658333-.1083333-2.175-.325s-.775-.5583333-.775-1.025c0-.35.129167-.6625.3875-.9375s.6125-.4958333 1.0625-.6625c.466667.0666667.816667.1083333 1.05.125 1.183333.1333333 2.033333.2875 2.55.4625s.775.4791667.775.9125c0 .4666667-.241667.825-.725 1.075s-1.2.375-2.15.375zm11.8-2.6c1.433333 0 2.579167-.3791667 3.4375-1.1375s1.2875-1.7541667 1.2875-2.9875c0-1-.225-1.7666667-.675-2.3s-1.158333-.9916667-2.125-1.375c-.7-.2833333-1.1875-.4916667-1.4625-.625s-.520833-.3166667-.7375-.55-.325-.525-.325-.875.15-.6208333.45-.8125.7-.2875 1.2-.2875c.583333 0 1.083333.0916667 1.5.275s.641667.275.675.275c.2 0 .416667-.2208333.65-.6625s.35-.8041667.35-1.0875c0-.4-.383333-.7208333-1.15-.9625s-1.583333-.3625-2.45-.3625c-1.333333 0-2.404167.3583333-3.2125 1.075s-1.2125 1.675-1.2125 2.875c0 1.05.266667 1.85.8 2.4s1.291667 1 2.275 1.35c.8.2833333 1.379167.55 1.7375.8s.5375.6.5375 1.05c0 .9333333-.6 1.4-1.8 1.4-.433333 0-.820833-.0583333-1.1625-.175s-.6625-.2541667-.9625-.4125-.483333-.2375-.55-.2375c-.216667 0-.466667.2125-.75.6375s-.425.7791667-.425 1.0625.2.5541667.6.8125.916667.4625 1.55.6125 1.283333.225 1.95.225z" fill="#39870c"/><path d="m192.5 33.175c1.466667 0 2.2-.35 2.2-1.05 0-.2-.066667-.5125-.2-.9375s-.3-.6375-.5-.6375c-.066667 0-.175.0166667-.325.05s-.308333.05-.475.05c-.35 0-.616667-.1041667-.8-.3125s-.275-.5541667-.275-1.0375v-14.425c0-.4666667-.441667-.7-1.325-.7h-.475c-.883333 0-1.325.2333333-1.325.7v14.475c0 1.3333333.316667 2.3041667.95 2.9125s1.483333.9125 2.55.9125zm9.325 0c1.933333 0 3.404167-.5708333 4.4125-1.7125s1.5125-2.8041667 1.5125-4.9875-.504167-3.85-1.5125-5-2.479167-1.725-4.4125-1.725c-1.95 0-3.433333.575-4.45 1.725s-1.525 2.8166667-1.525 5c0 2.1666667.508333 3.825 1.525 4.975s2.5 1.725 4.45 1.725zm-.025-2.525c-.933333 0-1.625-.3458333-2.075-1.0375s-.675-1.7458333-.675-3.1625c0-1.4.225-2.4458333.675-3.1375s1.141667-1.0375 2.075-1.0375 1.620833.3458333 2.0625 1.0375.6625 1.7375.6625 3.1375c0 1.4166667-.220833 2.4708333-.6625 3.1625s-1.129167 1.0375-2.0625 1.0375zm10.8 2.4c.9 0 1.35-.2416667 1.35-.725v-5.5h.1l4 5.8c.1.1666667.270833.2791667.5125.3375s.554167.0875.9375.0875h.7c.883333 0 1.325-.125 1.325-.375 0-.1166667-.066667-.275-.2-.475l-4.425-6.325 3.85-5.15c.15-.2.225-.3666667.225-.5 0-.1-.1-.1833333-.3-.25s-.5-.1-.9-.1h-.65c-.383333 0-.691667.0291667-.925.0875s-.408333.1708333-.525.3375l-3.625 4.95-.1-.025v-10.35c0-.4666667-.45-.7-1.35-.7h-.475c-.883333 0-1.325.2333333-1.325.7v17.45c0 .4833333.441667.725 1.325.725zm16.875.125c.616667 0 1.279167-.075 1.9875-.225s1.304167-.3583333 1.7875-.625.725-.5583333.725-.875c0-.2333333-.1375-.5708333-.4125-1.0125s-.520833-.6625-.7375-.6625c-.066667 0-.233333.0583333-.5.175-.933333.4666667-1.85.7-2.75.7-1 0-1.7625-.2458333-2.2875-.7375s-.829167-1.2875-.9125-2.3875h6.9c.15 0 .375-.1708333.675-.5125s.45-.6041667.45-.7875c0-1.9833333-.4375-3.5583333-1.3125-4.725s-2.2125-1.75-4.0125-1.75c-1.9 0-3.370833.5583333-4.4125 1.675s-1.5625 2.825-1.5625 5.125c0 2.1333333.525 3.7708333 1.575 4.9125s2.65 1.7125 4.8 1.7125zm1.8-7.875h-4.9c.233333-2.0166667 1.125-3.025 2.675-3.025.733333 0 1.2875.2666667 1.6625.8s.5625 1.275.5625 2.225zm9.825 7.875c1.466667 0 2.2-.35 2.2-1.05 0-.2-.066667-.5125-.2-.9375s-.3-.6375-.5-.6375c-.083333 0-.2.0166667-.35.05s-.308333.05-.475.05c-.35 0-.6125-.1-.7875-.3s-.2625-.55-.2625-1.05v-6.85h1.525c.233333 0 .404167-.0833333.5125-.25s.1625-.4416667.1625-.825v-.375c0-.3833333-.054167-.6583333-.1625-.825s-.279167-.25-.5125-.25h-1.525v-2.45c0-.4833333-.358333-.725-1.075-.725h-.6c-.683333 0-1.066667.2416667-1.15.725l-.325 2.45h-.675c-.233333 0-.404167.0833333-.5125.25s-.1625.4416667-.1625.825v.375c0 .3833333.054167.6583333.1625.825s.279167.25.5125.25h.675v6.9c0 1.3166667.320833 2.2833333.9625 2.9s1.495833.925 2.5625.925z" fill="#275937"/></g></g></svg>
