<?xml version="1.0" encoding="utf-8"?>
<!-- Generator: Adobe Illustrator 23.0.6, SVG Export Plug-In . SVG Version: 6.00 Build 0)  -->
<svg version="1.1" xmlns="http://www.w3.org/2000/svg" xmlns:xlink="http://www.w3.org/1999/xlink" x="0px" y="0px"
	 viewBox="0 0 226.8 226.8" style="enable-background:new 0 0 226.8 226.8;" xml:space="preserve">
<style type="text/css">
	.st0{fill:#39870C;}
	.st1{fill:#FFFFFF;}
	.st2{display:none;fill:#39870C;}
	.st3{clip-path:url(#SVGID_2_);fill:#39870C;}
	.st4{fill:#FFFFFF;stroke:#39870C;stroke-width:4;stroke-miterlimit:10;}
	.st5{fill:none;}
	.st6{clip-path:url(#SVGID_4_);fill:#39870C;}
	.st7{clip-path:url(#SVGID_4_);}
	.st8{display:none;}
	.st9{display:inline;fill:#39870C;stroke:#FFFFFF;stroke-width:3.7729;stroke-miterlimit:10;}
	.st10{display:inline;}
	.st11{fill:#39870C;stroke:#FFFFFF;stroke-width:3.7729;stroke-miterlimit:10;}
	.st12{fill:#39870C;stroke:#FFFFFF;stroke-width:4.252;stroke-miterlimit:10;}
	.st13{fill:#FFFFFF;stroke:#39870C;stroke-width:4.8014;stroke-miterlimit:10;}
	.st14{fill:#39870C;stroke:#39870C;stroke-width:4.8014;stroke-miterlimit:10;}
	.st15{fill:none;stroke:#39870C;stroke-width:4.8014;stroke-miterlimit:10;}
	.st16{fill:#39870C;stroke:#FFFFFF;stroke-width:5.3333;stroke-miterlimit:10;}
</style>
<g id="Kader">
</g>
<g id="Icoon">
	<path class="st0" d="M203,49.3C203,49.3,203,49.3,203,49.3C203,49.2,203,49.2,203,49.3c0-1.1-0.6-2.1-1.6-2.5
		c-0.1-0.1-0.3-0.1-0.4-0.2h-0.2c-5.1-2-10-4.6-10.7-5.7c-0.9-2.3,1.4-9.1,3.3-12.9c0.5-1,0.3-2.3-0.5-3.1c-0.8-0.8-2.1-1-3.1-0.4
		c-2.8,1.5-8.3,3.9-11.1,3.9c-0.4,0-0.6-0.1-0.6-0.1c-1.6-0.9-5-6.8-7.1-11.9c-0.4-1-1.4-1.6-2.5-1.6c-1.1,0-2,0.8-2.4,1.8
		c-1.8,5.4-4.7,10.9-6.1,11.5c0,0-0.2,0.1-0.7,0.1c-3.3,0-9.8-2.8-12-3.8c-1-0.5-2.2-0.3-3,0.5c-0.8,0.8-1,1.9-0.6,3
		c2,4.6,4,10.8,3.7,12.9c-1.3,1.2-6.5,3.9-11.1,5.9h0c-0.2,0.1-0.3,0.1-0.5,0.2c-0.9,0.4-1.5,1.2-1.6,2.1c0,0,0,0.1,0,0.1
		c0,0.1,0,0.2,0,0.3c0,0,0,0,0,0c0,0,0,0,0,0c0,0.1,0,0.2,0,0.3c0,0,0,0.1,0,0.1c0.1,0.9,0.7,1.7,1.6,2.1c0.2,0.1,0.3,0.1,0.5,0.2h0
		c4.6,2,9.8,4.7,11.1,5.9c0.2,2.1-1.7,8.3-3.7,12.9c-0.4,1-0.2,2.2,0.6,3c0.8,0.8,2,1,3,0.5c2.2-1.1,8.8-3.8,12-3.8
		c0.5,0,0.7,0.1,0.7,0.1c1.3,0.6,4.2,6.1,6.1,11.5c0.4,1,1.3,1.8,2.4,1.8c1.1,0,2.1-0.6,2.5-1.6c2.1-5.1,5.5-11,7.1-11.9
		c0,0,0.2-0.1,0.6-0.1c2.7,0,8.3,2.4,11.1,3.9c1,0.5,2.3,0.4,3.1-0.4c0.8-0.8,1-2,0.5-3.1c-1.9-3.8-4.2-10.5-3.3-12.9
		c0.7-1.1,5.6-3.8,10.7-5.7h0.2c0.1-0.1,0.3-0.1,0.4-0.2C202.4,51.3,203,50.4,203,49.3C203,49.3,203,49.3,203,49.3
		C203,49.3,203,49.3,203,49.3z M168.6,62.5c-6.4,0-11.7-4.5-13-10.6h0c-0.1-0.7-0.2-1.5-0.3-2.2c0-0.1,0-0.3,0-0.4
		c0-0.1,0-0.3,0-0.4c0-0.8,0.1-1.5,0.3-2.2h0c1.2-6,6.6-10.6,13-10.6s11.7,4.5,13,10.6h0c0.1,0.7,0.2,1.5,0.3,2.2c0,0.1,0,0.3,0,0.4
		c0,0.1,0,0.3,0,0.4c0,0.8-0.1,1.5-0.3,2.2h0C180.3,58,175,62.5,168.6,62.5z"/>
	<path class="st0" d="M153.4,104.2c-0.1,0-0.3,0-0.4,0c-2.9-21.5-21.3-38.1-43.6-38.1c-17.6,0-32.8,10.3-39.9,25.3
		c-3.2-1.2-6.7-1.9-10.3-1.9c-16.2,0-29.4,13.1-29.4,29.4c0,4.2,0.9,8.1,2.4,11.7c-10.2,0.8-18.2,9.2-18.2,19.6
		c0,10.9,8.8,19.7,19.7,19.7h119.7v-0.2c18.1,0,32.7-14.7,32.7-32.7C186.1,118.9,171.5,104.2,153.4,104.2z"/>
	<path class="st16" d="M205.2,175.9c0.2-0.9,0.3-1.8,0.3-2.8c0-8.5-6.9-15.3-15.3-15.3c-2,0-3.8,0.4-5.5,1
		c-1.5-11.1-11-19.6-22.4-19.6c-12.5,0-22.7,10.1-22.7,22.7c0,0.3,0,0.5,0,0.8c-4.3,1.1-8.1,3.2-11.2,6.2c-2.1-1.7-4.8-2.8-7.8-2.8
		c-6.8,0-12.4,5.5-12.4,12.4c0,6.8,5.5,12.4,12.4,12.4c0.1,0,0.2,0,0.3,0c1.8,12,12.2,21.3,24.8,21.3c6.1,0,11.7-2.2,16-5.8
		c2.1,5.3,7.2,9,13.1,9c5.9,0,11-3.6,13.1-8.8c2.7,1.7,5.8,2.6,9.2,2.6c9.7,0,17.6-7.9,17.6-17.6
		C214.6,184.7,210.8,178.8,205.2,175.9z"/>
</g>
</svg>
