<?xml version="1.0" encoding="utf-8"?>
<!-- Generator: Adobe Illustrator 23.0.6, SVG Export Plug-In . SVG Version: 6.00 Build 0)  -->
<svg version="1.1" xmlns="http://www.w3.org/2000/svg" xmlns:xlink="http://www.w3.org/1999/xlink" x="0px" y="0px"
	 viewBox="0 0 226.8 226.8" style="enable-background:new 0 0 226.8 226.8;" xml:space="preserve">
<style type="text/css">
	.st0{fill:#39870C;}
	.st1{fill:#FFFFFF;}
	.st2{display:none;fill:#39870C;}
	.st3{clip-path:url(#SVGID_2_);fill:#39870C;}
	.st4{fill:#FFFFFF;stroke:#39870C;stroke-width:4;stroke-miterlimit:10;}
	.st5{fill:none;}
	.st6{clip-path:url(#SVGID_4_);fill:#39870C;}
	.st7{clip-path:url(#SVGID_4_);}
	.st8{display:none;}
	.st9{display:inline;fill:#39870C;stroke:#FFFFFF;stroke-width:3.7729;stroke-miterlimit:10;}
	.st10{display:inline;}
	.st11{fill:#39870C;stroke:#FFFFFF;stroke-width:3.7729;stroke-miterlimit:10;}
	.st12{fill:#39870C;stroke:#FFFFFF;stroke-width:4.252;stroke-miterlimit:10;}
	.st13{fill:#FFFFFF;stroke:#39870C;stroke-width:4.8014;stroke-miterlimit:10;}
	.st14{fill:#39870C;stroke:#39870C;stroke-width:4.8014;stroke-miterlimit:10;}
	.st15{fill:none;stroke:#39870C;stroke-width:4.8014;stroke-miterlimit:10;}
	.st16{fill:#39870C;stroke:#FFFFFF;stroke-width:5.3333;stroke-miterlimit:10;}
</style>
<g id="Kader">
</g>
<g id="Icoon">
	<polygon class="st0" points="92.5,100.9 172.8,100.9 210.8,200.5 50.3,200.5 	"/>
	<g>
		<g>
			<path class="st0" d="M44.7,151.1c-2.3,0-4.1-1.8-4.1-4.1v-14.4c0-2.3,1.8-4.1,4.1-4.1h5.9V57.8c0-2.3,1.8-4.1,4.1-4.1h25.6
				c2.3,0,4.1,1.8,4.1,4.1V61h96.3c1.7,0,3.1,1.4,3.1,3.1v20.1c0,1.7-1.4,3.1-3.1,3.1H84.5v41.1h7.7c2.3,0,4.1,1.8,4.1,4.1V147
				c0,2.3-1.8,4.1-4.1,4.1H44.7z"/>
			<path class="st1" d="M80.4,55.8c1.1,0,2,0.9,2,2v5.3c0,0,0,0,0,0h98.4c0.5,0,1,0.4,1,1v20.1c0,0.5-0.4,1-1,1H82.4c0,0,0,0,0,0
				v45.1c0,0.1,0,0.1,0,0.2h9.9c1.1,0,2,0.9,2,2V147c0,1.1-0.9,2-2,2H44.7c-1.1,0-2-0.9-2-2v-14.4c0-1.1,0.9-2,2-2h8.1
				c0-0.1,0-0.1,0-0.2V57.8c0-1.1,0.9-2,2-2H80.4 M80.4,51.6H54.7c-3.4,0-6.2,2.8-6.2,6.2v68.5h-3.8c-3.4,0-6.2,2.8-6.2,6.2V147
				c0,3.4,2.8,6.2,6.2,6.2h47.5c3.4,0,6.2-2.8,6.2-6.2v-14.4c0-3.4-2.8-6.2-6.2-6.2h-5.6V89.5h94.2c2.9,0,5.2-2.4,5.2-5.2V64.2
				c0-2.9-2.4-5.2-5.2-5.2H86.6v-1.1C86.6,54.4,83.8,51.6,80.4,51.6L80.4,51.6z"/>
		</g>
		<polygon class="st1" points="87.9,79.3 96.4,79.3 103.1,67.7 94.6,67.7 		"/>
		<polygon class="st1" points="102.7,79.3 111.2,79.3 117.8,67.7 109.4,67.7 		"/>
		<polygon class="st1" points="117.5,79.3 126,79.3 132.6,67.7 124.2,67.7 		"/>
		<polygon class="st1" points="132.3,79.3 140.8,79.3 147.4,67.7 139,67.7 		"/>
		<polygon class="st1" points="147.1,79.3 155.5,79.3 162.2,67.7 153.7,67.7 		"/>
		<polygon class="st1" points="161.9,79.3 170.3,79.3 177,67.7 168.5,67.7 		"/>
	</g>
	<g>
		<circle class="st4" cx="58.7" cy="168" r="42.5"/>
		<g>
			<path class="st0" d="M56.3,190.9c-0.4-0.3-0.7-0.8-0.7-1.4v-16.9H38.7c-0.7,0-1.2-0.2-1.5-0.5c-0.3-0.3-0.4-1-0.4-1.9v-0.7
				c0-2.1,0.6-3.2,1.9-3.2h16.9v-16.9c0-0.7,0.2-1.2,0.7-1.5c0.4-0.3,1.2-0.4,2.2-0.4h0.7c1,0,1.7,0.2,2.2,0.5
				c0.4,0.3,0.7,0.8,0.7,1.4v16.9h16.8c0.7,0,1.2,0.2,1.5,0.7c0.3,0.4,0.4,1.2,0.4,2.2v0.7c0,1-0.1,1.7-0.4,2.2
				c-0.3,0.4-0.8,0.7-1.5,0.7H61.9v16.9c0,0.6-0.2,1.1-0.7,1.4c-0.4,0.3-1.2,0.5-2.2,0.5h-0.7C57.4,191.3,56.7,191.2,56.3,190.9z"/>
		</g>
	</g>
	<polygon class="st1" points="129.4,104.7 134,104.7 136.2,120.8 127,120.8 	"/>
	<polygon class="st1" points="127.1,129.2 135.8,129.2 139.9,159.4 122.6,159.4 	"/>
	<polygon class="st1" points="142.5,200.7 139,174.7 123.2,174.7 119.3,200.7 	"/>
</g>
</svg>
