<?xml version="1.0" encoding="utf-8"?>
<!-- Generator: Adobe Illustrator 24.3.0, SVG Export Plug-In . SVG Version: 6.00 Build 0)  -->
<svg version="1.1" id="Layer_1" xmlns="http://www.w3.org/2000/svg" xmlns:xlink="http://www.w3.org/1999/xlink" x="0px" y="0px"
	 viewBox="0 0 254 72" style="enable-background:new 0 0 254 72;" xml:space="preserve">
<style type="text/css">
	.st0{fill:#80BC00;}
	.st1{fill:#275937;}
	.st2{fill:#E17000;}
	.st3{display:none;fill:#666666;}
	.st4{display:none;fill:#39870C;}
	.st5{display:none;fill:#275937;}
	.st6{display:none;fill:#E17000;}
	.st7{display:none;fill:#FFFFFF;}
	.st8{fill:#39870C;}
	.st9{display:none;}
	.st10{display:inline;fill:#666666;}
	.st11{fill:#666666;}
	.st12{fill:#FFFFFF;}
</style>
<g>
	<path class="st0" d="M24,0C10.7,0,0,10.7,0,24s10.7,24,24,24s24-10.7,24-24C47.9,10.7,37.2,0,24,0z"/>
	<path class="st1" d="M24,8C15.1,8,8,15.1,8,24s7.1,16,16,16c8.8,0,16-7.1,16-16S32.8,8,24,8z"/>
	<path class="st2" d="M24,32c4.4,0,8-3.6,8-8s-3.6-8-8-8s-8,3.6-8,8C16,28.5,19.6,32,24,32L24,32z"/>
	<path class="st3" d="M70.6,67c1.9,0,3.4-0.6,4.5-1.7s1.7-2.9,1.7-5.3c0-2.4-0.6-4.2-1.7-5.3c-1.1-1.1-2.6-1.7-4.5-1.7l0,0h-4
		c-0.2,0-0.4,0-0.5,0.1c-0.1,0.1-0.1,0.2-0.1,0.5l0,0v12.8c0,0.2,0,0.4,0.1,0.5c0.1,0.1,0.2,0.1,0.5,0.1l0,0H70.6z M70.4,65.5h-2.7
		v-11h2.7c1.3,0,2.4,0.4,3.3,1.3c0.8,0.9,1.2,2.3,1.2,4.2c0,1.9-0.4,3.3-1.2,4.2C72.9,65,71.8,65.5,70.4,65.5L70.4,65.5z M82.8,67.1
		c1.4,0,2.4-0.3,3.2-1c0.8-0.7,1.2-1.6,1.2-2.8c0-0.8-0.2-1.5-0.5-2.1c-0.4-0.5-0.8-1-1.3-1.2s-1.2-0.6-2-0.9
		c-0.7-0.3-1.3-0.5-1.6-0.7c-0.3-0.1-0.6-0.3-0.8-0.6c-0.2-0.3-0.3-0.6-0.3-1.1c0-0.7,0.2-1.3,0.7-1.7s1.1-0.6,1.9-0.6
		c0.7,0,1.4,0.2,2.1,0.5c0,0,0.1,0.1,0.2,0.1c0.1,0.1,0.2,0.1,0.3,0.1c0.1,0,0.2-0.1,0.4-0.4c0.2-0.3,0.2-0.5,0.2-0.6
		c0-0.2-0.1-0.4-0.4-0.5c-0.3-0.2-0.7-0.4-1.3-0.5s-1.1-0.2-1.5-0.2c-0.9,0-1.7,0.2-2.3,0.5c-0.7,0.3-1.2,0.8-1.6,1.3
		c-0.4,0.6-0.5,1.2-0.5,1.9c0,0.8,0.2,1.5,0.5,2s0.7,0.9,1.2,1.1s1.1,0.5,1.8,0.8c0.7,0.3,1.3,0.5,1.7,0.7c0.4,0.2,0.7,0.5,1,0.8
		c0.3,0.3,0.4,0.7,0.4,1.2c0,0.7-0.2,1.3-0.7,1.7c-0.5,0.4-1.1,0.7-1.9,0.7c-0.7,0-1.2-0.1-1.7-0.2c-0.5-0.2-0.9-0.4-1.3-0.6
		c-0.2-0.1-0.4-0.2-0.4-0.2c-0.1,0-0.2,0.1-0.4,0.4c-0.2,0.3-0.3,0.5-0.3,0.7c0,0.1,0.1,0.3,0.4,0.5c0.3,0.3,0.9,0.5,1.5,0.7
		C81.2,67,82,67.1,82.8,67.1z M95.2,67.1c2,0,3.5-0.6,4.6-1.8c1.1-1.2,1.6-3,1.6-5.3c0-2.3-0.5-4.1-1.6-5.3
		c-1.1-1.2-2.6-1.8-4.6-1.8c-2,0-3.5,0.6-4.6,1.8c-1,1.2-1.6,3-1.6,5.3c0,2.3,0.5,4.1,1.6,5.3C91.7,66.5,93.2,67.1,95.2,67.1z
		 M95.2,65.6c-1.4,0-2.5-0.5-3.2-1.4c-0.7-1-1.1-2.4-1.1-4.2c0-1.8,0.4-3.2,1.1-4.1c0.7-0.9,1.8-1.4,3.2-1.4c1.4,0,2.5,0.5,3.2,1.4
		c0.7,0.9,1.1,2.3,1.1,4.1c0,1.8-0.4,3.2-1.1,4.2C97.7,65.1,96.6,65.6,95.2,65.6z M112.9,67c0.5,0,0.8-0.1,0.8-0.4l0,0V54.5h3.8
		c0.1,0,0.2,0,0.3-0.1c0.1-0.1,0.1-0.2,0.1-0.5l0,0v-0.3c0-0.2,0-0.4-0.1-0.5c-0.1-0.1-0.2-0.1-0.3-0.1l0,0h-9.4
		c-0.1,0-0.2,0-0.3,0.1s-0.1,0.2-0.1,0.5l0,0v0.3c0,0.2,0,0.4,0.1,0.5c0.1,0.1,0.2,0.1,0.3,0.1l0,0h3.8v12.1c0,0.3,0.3,0.4,0.8,0.4
		l0,0H112.9z M123.5,67.1c1.5,0,2.6-0.5,3.4-1.4c0.8-0.9,1.2-2.2,1.2-3.9c0-1.7-0.4-3.1-1.2-4c-0.8-0.9-1.9-1.4-3.4-1.4
		c-1.5,0-2.6,0.5-3.4,1.4c-0.8,0.9-1.2,2.3-1.2,4c0,1.7,0.4,3,1.2,3.9C120.9,66.7,122,67.1,123.5,67.1z M123.5,65.7
		c-1,0-1.7-0.3-2.1-0.9c-0.5-0.6-0.7-1.6-0.7-3c0-1.3,0.2-2.3,0.7-3c0.5-0.6,1.2-1,2.1-1c1,0,1.7,0.3,2.2,1s0.7,1.6,0.7,3
		c0,1.3-0.2,2.3-0.7,3C125.2,65.4,124.5,65.7,123.5,65.7z M134.9,67.1c1.5,0,2.6-0.5,3.4-1.4c0.8-0.9,1.2-2.2,1.2-3.9
		c0-1.7-0.4-3.1-1.2-4c-0.8-0.9-1.9-1.4-3.4-1.4c-1.5,0-2.6,0.5-3.4,1.4s-1.2,2.3-1.2,4c0,1.7,0.4,3,1.2,3.9
		C132.3,66.7,133.4,67.1,134.9,67.1z M134.9,65.7c-1,0-1.7-0.3-2.1-0.9c-0.5-0.6-0.7-1.6-0.7-3c0-1.3,0.2-2.3,0.7-3
		c0.5-0.6,1.2-1,2.1-1s1.7,0.3,2.2,1c0.5,0.6,0.7,1.6,0.7,3c0,1.3-0.2,2.3-0.7,3C136.6,65.4,135.8,65.7,134.9,65.7z M144.8,67.1
		c1,0,1.5-0.2,1.5-0.6c0-0.1,0-0.3-0.1-0.6s-0.2-0.4-0.3-0.4c-0.1,0-0.2,0-0.3,0s-0.3,0.1-0.6,0.1c-0.3,0-0.6-0.1-0.8-0.3
		s-0.3-0.6-0.3-1.2l0,0V52.4c0-0.3-0.3-0.4-0.8-0.4l0,0H143c-0.5,0-0.8,0.1-0.8,0.4l0,0v12c0,1,0.3,1.7,0.8,2.2
		C143.5,66.9,144.1,67.1,144.8,67.1z M149.3,67c0.5,0,0.8-0.1,0.8-0.4l0,0V62h0.1l4,4.7c0.1,0.1,0.2,0.2,0.4,0.2
		c0.2,0,0.4,0.1,0.7,0.1l0,0h0.1c0.3,0,0.5,0,0.7-0.1c0.1,0,0.2-0.1,0.2-0.2c0-0.1-0.1-0.2-0.2-0.3l0,0l-4.1-4.9l3.7-4.4
		c0.1-0.1,0.2-0.3,0.2-0.4c0-0.1-0.1-0.1-0.2-0.2c-0.1,0-0.3-0.1-0.5-0.1l0,0H155c-0.6,0-0.9,0.1-1.1,0.3l0,0l-3.8,4.6h-0.1v-8.9
		c0-0.3-0.3-0.4-0.8-0.4l0,0h-0.1c-0.5,0-0.8,0.1-0.8,0.4l0,0v14.2C148.4,66.9,148.6,67,149.3,67L149.3,67L149.3,67z M159.5,54.7
		c0.6,0,1-0.2,1-0.5l0,0v-1.1c0-0.3-0.3-0.5-0.9-0.5c-0.6,0-1,0.2-1,0.5l0,0v1.1C158.7,54.5,159,54.7,159.5,54.7z M159.6,67
		c0.5,0,0.8-0.1,0.8-0.4l0,0v-9.7c0-0.3-0.3-0.4-0.8-0.4l0,0h-0.1c-0.5,0-0.8,0.1-0.8,0.4l0,0v9.7C158.7,66.9,159,67,159.6,67
		L159.6,67L159.6,67z M166.9,67.1c1,0,1.5-0.2,1.5-0.6c0-0.1,0-0.3-0.1-0.6s-0.2-0.4-0.3-0.4c-0.1,0-0.2,0-0.3,0s-0.3,0.1-0.6,0.1
		c-0.3,0-0.6-0.1-0.8-0.3s-0.3-0.6-0.3-1.2l0,0V58h1.7c0.1,0,0.2,0,0.3-0.1s0.1-0.2,0.1-0.5l0,0v-0.2c0-0.2,0-0.4-0.1-0.5
		s-0.2-0.1-0.3-0.1l0,0H166v-2.1c0-0.3-0.2-0.4-0.6-0.4l0,0h-0.2c-0.4,0-0.6,0.1-0.6,0.4l0,0l-0.2,2.1h-1c-0.1,0-0.2,0-0.3,0.1
		s-0.1,0.2-0.1,0.5l0,0v0.2c0,0.2,0,0.4,0.1,0.5s0.2,0.1,0.3,0.1l0,0h1v6.4c0,1,0.3,1.7,0.8,2.2C165.7,66.9,166.3,67.1,166.9,67.1z"
		/>
	<path class="st4" d="M72.3,13.2c-2.7,0-4.8,0.8-6.1,2.4c-1.4,1.5-2.1,3.9-2.1,6.9s0.7,5.4,2.1,6.9c1.5,1.6,3.5,2.4,6.1,2.4
		s4.8-0.9,6.1-2.4c1.4-1.6,2.1-3.9,2.1-6.9s-0.7-5.4-2.1-6.9C77,14,75,13.2,72.3,13.2z M77.3,22.6c0,2.2-0.5,3.8-1.4,4.9
		c-0.9,1.1-2,1.6-3.7,1.6c-1.7,0-2.8-0.5-3.7-1.6c-0.9-1.2-1.3-2.8-1.3-4.9c0-2.2,0.4-3.8,1.3-4.9c0.9-1.1,2-1.5,3.7-1.5
		c1.7,0,2.8,0.5,3.7,1.5C76.9,18.7,77.3,20.4,77.3,22.6z M100.2,18.4c-0.9-0.6-1.8-0.8-2.8-0.8c-1.5,0-2.7,0.6-3.9,1.7
		c-0.8-1.2-1.9-1.7-3.7-1.7c-1.4,0-2.5,0.5-3.6,1.4V19c0-0.2-0.1-0.3-0.1-0.4c-0.2-0.2-0.3-0.3-0.3-0.4c-0.1-0.1-0.2-0.2-0.4-0.3
		c-0.3-0.1-0.7-0.2-1.5,0.1c-0.7,0.2-0.8,0.7-0.8,0.9c0,0.1,0,0.1,0.2,1.1c0.1,0.4,0.1,1.1,0.1,2.1v8.8c0,0.3,0.1,1.1,1.6,1.1
		c1.4,0,1.5-0.7,1.5-1.1v-8.9l0.3-0.3c0.2-0.3,0.5-0.5,1-0.8c0.9-0.5,2.1-0.6,2.8,0.1c0.3,0.4,0.5,0.8,0.5,1.4v8.5
		c0,0.3,0.1,1.1,1.6,1.1c1.4,0,1.5-0.7,1.5-1.1v-8.7c0-0.1,0-0.3,0-0.4c0.9-1,1.8-1.4,2.6-1.4c0.7,0,1.2,0.2,1.5,0.5
		c0.3,0.4,0.5,0.9,0.5,1.4v8.5c0,0.3,0.1,1.1,1.6,1.1c1.4,0,1.5-0.7,1.5-1.1v-8.7c0-0.9-0.1-1.6-0.4-2.2
		C101.1,19.3,100.7,18.7,100.2,18.4z M116.2,17.8h-4.3c-0.5-0.1-1.2-0.2-1.8-0.2c-1.8,0-3.1,0.5-4.1,1.3c-1,0.9-1.5,2-1.5,3.5
		c0,0.9,0.2,1.7,0.7,2.4c0.3,0.5,0.7,0.9,1.1,1.2c-1.1,0.7-1.4,1.4-1.4,2.1c0,0.6,0.2,1.3,1,2c-1.5,0.8-2.2,1.8-2.2,3.1
		c0,1.3,0.6,2.4,1.8,3c1.1,0.6,2.5,0.8,4.6,0.8c1.9,0,3.6-0.4,4.8-1.2c1.3-0.9,1.8-1.9,1.8-3.2c0-1.1-0.4-1.9-1.1-2.5
		s-1.5-1.1-2.3-1.2c-0.9-0.2-1.8-0.3-2.5-0.5c-0.8-0.1-1.5-0.2-2-0.4c-0.3-0.1-0.6-0.2-0.6-0.3c0-0.3,0.7-0.5,1.7-0.6h0.3
		c1.8,0,3.1-0.5,4.1-1.3c1-0.9,1.5-2,1.5-3.5c0-0.7-0.1-1.3-0.4-1.9h0.9c0.2,0,1-0.1,1-1.2v-0.3C117.2,17.9,116.4,17.8,116.2,17.8z
		 M110.1,24.4c-1.7,0-2.3-0.7-2.3-2c0-1.4,0.7-2,2.3-2c1.7,0,2.3,0.7,2.3,2C112.6,23.8,111.8,24.4,110.1,24.4z M112.8,33.8
		c-0.6,0.4-1.5,0.5-2.5,0.5c-1.6,0-3.3-0.2-3.3-1.2c0-0.4,0.2-0.7,0.6-1c0.5-0.4,1-0.7,1.5-0.9c0.2,0,0.6,0.1,1,0.2
		c1.6,0.2,2.7,0.5,3.3,0.8c0.2,0.1,0.3,0.3,0.3,0.6C113.6,33,113.6,33.3,112.8,33.8z M130,25.6c0.3-0.4,0.4-0.7,0.4-0.9
		c0-5.8-3.2-7-5.8-7c-1.9,0-3.5,0.7-4.6,1.9s-1.7,3.1-1.7,5.4s0.6,4.1,1.7,5.3c1.1,1.2,2.8,1.7,5.1,1.7c1.3,0,2.3-0.2,3.3-0.6
		c0.8-0.3,1.7-0.8,1.7-1.4c0-0.3-0.1-0.6-0.4-1c-0.2-0.3-0.5-0.8-1-0.8c-0.1,0-0.2,0-0.8,0.3c-0.9,0.5-1.8,0.8-2.9,0.8
		s-1.9-0.3-2.4-0.9c-0.5-0.5-0.8-1.2-0.9-2.2h7.5C129.5,26.1,129.9,25.7,130,25.6z M121.6,23.3c0.4-2.7,1.8-3,3-3
		c1.1,0,2.4,0.3,2.5,3H121.6z M142,17.8c-0.3,0-1.4,0-1.6,0.8l-2.9,8.8l-2.9-8.8c-0.2-0.5-0.7-0.8-1.5-0.8h-0.2
		c-1.1,0-1.6,0.3-1.6,0.9c0,0.1,0,0.3,0.1,0.5l4.1,12c0.2,0.5,0.7,0.8,1.5,0.8h0.9c0.8,0,1.4-0.3,1.5-0.8l4.1-12
		c0.1-0.2,0.1-0.4,0.1-0.5C143.4,18.2,143.1,17.8,142,17.8z M147,17.8c-1.4,0-1.5,0.7-1.5,1.1v12c0,0.3,0.1,1.1,1.6,1.1
		c1.4,0,1.5-0.7,1.5-1.1V18.7C148.6,18.4,148.4,17.8,147,17.8z M147.2,12.1h-0.3c-1.4,0-1.5,0.7-1.5,1.1v1.4c0,0.3,0.1,1.1,1.5,1.1
		h0.3c1.4,0,1.5-0.7,1.5-1.1v-1.4C148.7,12.8,148.5,12.1,147.2,12.1z M158.5,17.7c-1.3,0-2.4,0.5-3.5,1.4V19c0-0.2-0.1-0.3-0.1-0.4
		c-0.1-0.1-0.1-0.2-0.2-0.3c-0.1-0.1-0.2-0.2-0.4-0.3c-0.3-0.1-0.7-0.2-1.5,0.1c-0.7,0.2-0.9,0.7-0.9,0.9c0,0.1,0,0.1,0.2,1.1
		c0.1,0.4,0.1,1.1,0.1,2.1v8.8c0,0.3,0.1,1.1,1.6,1.1c1.4,0,1.5-0.7,1.5-1.1V22c0.8-1,1.7-1.4,2.7-1.4c0.7,0,1.3,0.2,1.6,0.5
		c0.4,0.3,0.5,0.8,0.5,1.4v8.5c0,0.3,0.1,1.1,1.6,1.1c1.4,0,1.5-0.7,1.5-1.1v-8.7c0-1.3-0.4-2.5-1.3-3.3
		C161.2,18.1,160,17.7,158.5,17.7z M177.7,17.8h-4.3c-0.5-0.1-1.2-0.2-1.8-0.2c-1.8,0-3.1,0.5-4.1,1.3c-1,0.9-1.5,2-1.5,3.5
		c0,0.9,0.2,1.7,0.7,2.4c0.3,0.5,0.7,0.9,1.1,1.2c-1.1,0.7-1.4,1.4-1.4,2.1c0,0.6,0.2,1.3,1,2c-1.5,0.8-2.2,1.8-2.2,3.1
		c0,1.3,0.6,2.4,1.8,3c1.1,0.6,2.5,0.8,4.6,0.8c1.9,0,3.6-0.4,4.8-1.2c1.3-0.9,1.8-1.9,1.8-3.2c0-1.1-0.4-1.9-1.1-2.5
		c-0.7-0.6-1.5-1.1-2.3-1.2c-0.9-0.2-1.7-0.3-2.5-0.5c-0.8-0.1-1.5-0.2-2-0.4c-0.3-0.1-0.6-0.2-0.6-0.3c0-0.3,0.7-0.5,1.7-0.6h0.3
		c1.8,0,3.1-0.5,4.1-1.3c1-0.9,1.5-2,1.5-3.5c0-0.7-0.1-1.3-0.4-1.9h0.9c0.2,0,1-0.1,1-1.2v-0.3C178.7,17.9,177.9,17.8,177.7,17.8z
		 M171.7,24.4c-1.7,0-2.3-0.7-2.3-2c0-1.4,0.7-2,2.3-2s2.3,0.7,2.3,2C174,23.8,173.3,24.4,171.7,24.4z M174.2,33.8
		c-0.6,0.4-1.5,0.5-2.5,0.5c-1.6,0-3.3-0.2-3.3-1.2c0-0.4,0.2-0.7,0.6-1c0.5-0.4,1-0.7,1.5-0.9c0.2,0,0.6,0.1,1,0.2
		c1.6,0.2,2.7,0.5,3.3,0.8c0.2,0.1,0.3,0.3,0.3,0.6C175.1,33,175.1,33.3,174.2,33.8z M184.3,22.9c-0.8-0.3-1.2-0.5-1.4-0.6
		c-0.2-0.2-0.3-0.4-0.3-0.8c0-0.3,0.1-0.6,0.4-0.8c0.7-0.5,2.1-0.5,3.1,0.1c0.3,0.2,0.4,0.2,0.6,0.2c0.5,0,0.8-0.4,1-0.8
		c0.2-0.4,0.4-0.8,0.4-1.1c0-0.7-0.8-1-1.4-1.2c-0.7-0.2-1.6-0.4-2.4-0.4c-1.4,0-2.5,0.4-3.3,1.2c-0.9,0.8-1.4,1.7-1.4,2.9
		s0.3,2,0.9,2.6c0.6,0.6,1.5,1,2.6,1.3c1.3,0.4,1.8,0.7,2,0.9c0.3,0.3,0.4,0.7,0.4,1.2c0,0.5-0.2,0.9-0.5,1.2
		c-0.4,0.3-0.8,0.5-1.4,0.5s-1.2-0.1-1.6-0.2c-0.4-0.2-0.8-0.3-1-0.4c-0.4-0.3-0.5-0.3-0.7-0.3c-0.5,0-0.8,0.4-1,0.8
		c-0.3,0.4-0.4,0.8-0.4,1c0,0.7,0.9,1.2,1.6,1.4c0.9,0.4,1.9,0.6,3.2,0.6s2.4-0.4,3.3-1.2c1-0.9,1.4-1.9,1.4-3.2s-0.3-2.3-1-2.9
		C187.2,23.9,186,23.3,184.3,22.9z"/>
	<path class="st5" d="M196.2,29c-0.1,0-0.2,0-0.5,0.1c-0.2,0-0.4,0.1-0.7,0.1s-0.9,0-0.9-1.3V13.1c0-0.3-0.1-1.1-1.6-1.1
		c-1.4,0-1.5,0.7-1.5,1.1v15c0,1.4,0.4,2.5,1.2,3.1c0.8,0.6,1.7,0.9,2.5,0.9c1.6,0,2.3-0.4,2.3-1.2c0-0.2-0.1-0.5-0.2-0.9
		C196.8,29.2,196.4,29,196.2,29z M204.5,17.7c-2,0-3.6,0.7-4.7,1.9c-1.1,1.2-1.7,3-1.7,5.3s0.6,4,1.7,5.3c1.1,1.2,2.7,1.8,4.7,1.8
		c2,0,3.6-0.6,4.7-1.8c1.1-1.2,1.6-3,1.6-5.3s-0.6-4-1.6-5.3C208,18.2,206.4,17.7,204.5,17.7z M204.4,20.4c1.1,0,1.8,0.3,2.3,1
		s0.8,1.8,0.8,3.5c0,1.5-0.3,2.7-0.8,3.4s-1.3,1-2.3,1c-1.1,0-1.8-0.3-2.3-1s-0.8-1.8-0.8-3.5c0-1.5,0.3-2.7,0.8-3.5
		C202.5,20.7,203.3,20.4,204.4,20.4z M219.3,24.5l4.4-5.2c0.3-0.3,0.4-0.6,0.4-0.9c0-0.6-0.5-0.8-1.5-0.8c-0.9,0-1.5,0.2-1.8,0.5
		l-4.1,4.8v-9.9c0-0.3-0.1-1.1-1.6-1.1c-1.4,0-1.5,0.7-1.5,1.1v17.7c0,0.3,0.1,1.1,1.6,1.1c1.4,0,1.5-0.7,1.5-1.1v-4.5l4.3,5
		c0.3,0.4,0.9,0.5,1.8,0.5c0.4,0,1.6,0,1.6-0.9c0-0.2-0.1-0.5-0.4-0.7L219.3,24.5z M237.8,25.6c0.3-0.4,0.4-0.7,0.4-0.9
		c0-5.8-3.2-7-5.8-7c-1.9,0-3.5,0.7-4.6,1.9c-1.1,1.2-1.7,3.1-1.7,5.4s0.6,4.1,1.7,5.3c1.1,1.2,2.8,1.7,5.1,1.7
		c1.3,0,2.3-0.2,3.3-0.6c0.8-0.3,1.7-0.8,1.7-1.4c0-0.3-0.1-0.6-0.4-1c-0.2-0.3-0.5-0.8-1-0.8c-0.1,0-0.2,0-0.8,0.3
		c-0.9,0.5-1.8,0.8-2.9,0.8c-1.1,0-1.9-0.3-2.4-0.9c-0.5-0.5-0.8-1.2-0.9-2.2h7.5C237.3,26.1,237.7,25.7,237.8,25.6z M229.4,23.3
		c0.4-2.7,1.8-3,3-3c1.1,0,2.4,0.3,2.5,3H229.4z M247.1,29.9c-0.2-0.7-0.6-0.8-0.9-0.8c-0.1,0-0.1,0-0.5,0.1c-0.2,0-0.4,0.1-0.7,0.1
		c-0.3,0-0.9,0-0.9-1.3v-7.3h1.7c0.2,0,1-0.1,1-1.2v-0.3c0-1.2-0.8-1.2-1-1.2h-1.7v-2.1c0-0.2-0.1-1.1-1.3-1.1h-0.3
		c-1.1,0-1.3,0.8-1.3,1l-0.3,2.2h-0.9c-0.2,0-1,0.1-1,1.2v0.3c0,1.2,0.8,1.2,1,1.2h0.8v7.4c0,1.4,0.4,2.5,1.2,3.1
		c0.8,0.6,1.7,0.9,2.5,0.9c1.6,0,2.3-0.4,2.3-1.2C247.3,30.5,247.2,30.2,247.1,29.9z"/>
</g>
<path class="st6" d="M202.3,43.6L148.9,48c-1.1,0.1-1.9-0.8-1.9-1.8V36.2c0-1,0.7-1.8,1.7-1.8l53.4-4.4c1.1-0.1,1.9,0.8,1.9,1.8v10
	C204,42.7,203.2,43.5,202.3,43.6z"/>
<path class="st7" d="M162.2,45.3c-0.1-0.1-0.1-0.2-0.1-0.3l0.2-8.5c0-0.2,0-0.3,0.1-0.3c0.1-0.1,0.2-0.1,0.3-0.1l2.3-0.2
	c0.9-0.1,1.5,0.1,2,0.4s0.8,0.8,0.8,1.5c0,0.3,0,0.7-0.2,1c-0.1,0.3-0.3,0.6-0.6,0.9c-0.2,0.3-0.5,0.4-0.8,0.6v0.1
	c0,0,0.2,0,0.5,0.1s0.6,0.3,0.9,0.6c0.3,0.3,0.4,0.6,0.5,1.1c0.1,1-0.2,1.7-0.8,2.3c-0.6,0.5-1.4,0.9-2.6,1l-2.3,0.2
	C162.4,45.4,162.3,45.4,162.2,45.3z M165.2,44.1c0.6-0.1,1.1-0.3,1.4-0.6c0.3-0.4,0.5-0.9,0.4-1.4c0-0.4-0.2-0.8-0.6-1
	c-0.4-0.2-0.8-0.3-1.4-0.2l-1.7,0.1l-0.1,3.3L165.2,44.1z M164.9,39.8c0.4,0,0.7-0.1,1-0.3c0.3-0.2,0.5-0.4,0.7-0.7s0.2-0.6,0.2-0.9
	c0-0.4-0.2-0.7-0.5-0.9s-0.8-0.2-1.4-0.2l-1.5,0.1l-0.1,3L164.9,39.8z M169.7,44.7c-0.1,0-0.1-0.1-0.1-0.2l0.2-8.7
	c0-0.1,0-0.2,0.1-0.3c0.1-0.1,0.2-0.1,0.3-0.1l4.5-0.4c0.2,0,0.2,0.1,0.2,0.3v0.1c0,0.2,0,0.4,0,0.5c0,0.1-0.1,0.2-0.3,0.2l-3.8,0.3
	l-0.1,3.1l3.4-0.3c0.2,0,0.2,0.1,0.3,0.3v0.1c0,0.2,0,0.4,0,0.5c0,0.1-0.1,0.2-0.3,0.2l-3.4,0.3l-0.1,3.3l3.8-0.3
	c0.2,0,0.2,0.1,0.2,0.3V44c0,0.2,0,0.4,0,0.5s-0.1,0.2-0.3,0.2l-4.5,0.4C169.9,44.7,169.8,44.7,169.7,44.7z M178.7,43.9
	c-0.1,0-0.1-0.1-0.1-0.2l0.2-8.1l-2.5,0.2c-0.2,0-0.2-0.1-0.3-0.3v-0.2c0-0.1,0-0.3,0-0.4c0-0.1,0.1-0.2,0.2-0.2l6.1-0.5
	c0.2,0,0.2,0.1,0.2,0.3v0.1c0,0.2,0,0.3,0,0.5c0,0.1-0.1,0.2-0.3,0.2l-2.4,0.2l-0.2,8.1c0,0.1-0.1,0.2-0.1,0.2
	c-0.1,0.1-0.2,0.1-0.4,0.1H179C178.9,44,178.8,44,178.7,43.9z M182.3,43.5c0,0,0-0.1,0.1-0.2l3.2-9.1c0-0.1,0.2-0.2,0.5-0.3h0.4
	c0.3,0,0.5,0,0.5,0.2l2.9,8.5v0.1c0,0.2-0.2,0.3-0.6,0.3h-0.1c-0.3,0-0.5,0-0.5-0.2l-0.7-2.1l-3.8,0.3l-0.8,2.3
	c0,0.1-0.2,0.2-0.5,0.3h-0.1C182.5,43.7,182.4,43.6,182.3,43.5z M187.7,39.8l-1.3-3.9c-0.1-0.2-0.1-0.5-0.1-0.8l0,0
	c-0.1,0.3-0.1,0.6-0.2,0.8l-1.4,4.1L187.7,39.8z"/>
<g>
	<path class="st8" d="M65.2,31.6c-0.2-0.2-0.2-0.4-0.2-0.7V14.6c0-0.3,0.1-0.6,0.2-0.7c0.2-0.1,0.4-0.2,0.7-0.2h5.5
		c2.6,0,4.6,0.8,6,2.3c1.4,1.5,2.2,3.8,2.2,6.8s-0.7,5.3-2.2,6.8c-1.4,1.5-3.5,2.3-6,2.3h-5.5C65.6,31.8,65.3,31.7,65.2,31.6z
		 M71.3,28.9c1.5,0,2.7-0.5,3.5-1.5s1.3-2.6,1.3-4.6c0-2.1-0.4-3.6-1.3-4.6c-0.8-1-2-1.5-3.5-1.5h-2.9v12.4H71.3z"/>
	<path class="st8" d="M84.3,31.6c-0.9-0.2-1.6-0.5-2.1-0.9c-0.4-0.3-0.6-0.6-0.6-0.9c0-0.3,0.2-0.7,0.5-1.2c0.3-0.5,0.6-0.7,0.9-0.7
		c0.1,0,0.3,0.1,0.6,0.3c0.5,0.3,1.1,0.5,1.6,0.7c0.5,0.2,1.1,0.3,1.8,0.3c0.8,0,1.4-0.2,2-0.6c0.5-0.4,0.8-0.9,0.8-1.7
		c0-0.5-0.1-0.9-0.4-1.2s-0.6-0.6-1-0.8c-0.4-0.2-1-0.5-1.7-0.8l-0.9-0.4c-0.8-0.3-1.5-0.7-2-1.1c-0.5-0.4-1-0.9-1.3-1.6
		c-0.3-0.7-0.5-1.5-0.5-2.5c0-1.1,0.3-2,0.8-2.8c0.5-0.8,1.3-1.3,2.2-1.7c0.9-0.4,1.9-0.6,3-0.6c0.8,0,1.5,0.1,2.3,0.3
		c0.7,0.2,1.3,0.4,1.7,0.7c0.4,0.3,0.5,0.5,0.5,0.8c0,0.3-0.1,0.7-0.4,1.2c-0.3,0.5-0.6,0.7-0.8,0.7c-0.1,0-0.2,0-0.4-0.1
		c-0.2-0.1-0.3-0.2-0.4-0.2c-0.7-0.3-1.4-0.4-2.2-0.4c-0.9,0-1.6,0.2-2.1,0.6c-0.4,0.4-0.7,0.8-0.7,1.4c0,0.5,0.1,0.9,0.4,1.2
		c0.3,0.3,0.6,0.6,1,0.8c0.4,0.2,0.9,0.4,1.7,0.7c1,0.4,1.8,0.8,2.4,1.2c0.6,0.4,1.2,0.9,1.7,1.6c0.5,0.7,0.7,1.6,0.7,2.7
		c0,1.8-0.6,3.2-1.7,4.1c-1.1,0.9-2.5,1.4-4.2,1.4C86.3,32,85.2,31.9,84.3,31.6z"/>
	<path class="st8" d="M97.3,29.6c-1.4-1.6-2.1-3.9-2.1-6.9c0-3,0.7-5.3,2.1-6.9s3.5-2.4,6.1-2.4c2.7,0,4.7,0.8,6.1,2.4
		c1.4,1.6,2.1,3.9,2.1,6.9s-0.7,5.3-2.1,6.9S106,32,103.4,32C100.7,32,98.7,31.2,97.3,29.6z M106.9,27.4c0.8-1.1,1.2-2.7,1.2-4.8
		s-0.4-3.7-1.2-4.7s-2-1.6-3.5-1.6c-1.5,0-2.7,0.5-3.5,1.6c-0.8,1.1-1.2,2.7-1.2,4.7s0.4,3.7,1.2,4.8c0.8,1.1,2,1.6,3.5,1.6
		C104.9,29.1,106.1,28.5,106.9,27.4z"/>
	<path class="st1" d="M127.8,31.1V16.5h-4.4c-0.2,0-0.4-0.1-0.5-0.3c-0.1-0.2-0.2-0.5-0.2-0.9v-0.7c0-0.4,0.1-0.7,0.2-0.9
		c0.1-0.2,0.3-0.3,0.5-0.3h12.2c0.2,0,0.4,0.1,0.5,0.3c0.1,0.2,0.2,0.5,0.2,0.9v0.7c0,0.4-0.1,0.7-0.2,0.9c-0.1,0.2-0.3,0.3-0.5,0.3
		h-4.4v14.6c0,0.5-0.5,0.8-1.4,0.8h-0.7C128.2,31.9,127.8,31.6,127.8,31.1z"/>
	<path class="st1" d="M137.6,30.2c-1.1-1.2-1.6-2.9-1.6-5.2c0-2.3,0.5-4,1.6-5.2c1.1-1.2,2.6-1.8,4.6-1.8c2,0,3.5,0.6,4.6,1.8
		c1,1.2,1.6,2.9,1.6,5.2c0,2.3-0.5,4-1.6,5.2c-1,1.2-2.6,1.8-4.6,1.8C140.2,32,138.7,31.4,137.6,30.2z M144.4,28.3
		c0.5-0.7,0.7-1.8,0.7-3.3c0-1.5-0.2-2.5-0.7-3.3c-0.5-0.7-1.2-1.1-2.1-1.1s-1.7,0.4-2.2,1.1c-0.5,0.7-0.7,1.8-0.7,3.3
		c0,1.5,0.2,2.6,0.7,3.3s1.2,1.1,2.2,1.1S143.9,29,144.4,28.3z"/>
	<path class="st1" d="M152.4,30.2c-1.1-1.2-1.6-2.9-1.6-5.2c0-2.3,0.5-4,1.6-5.2c1.1-1.2,2.6-1.8,4.6-1.8c2,0,3.5,0.6,4.6,1.8
		c1,1.2,1.6,2.9,1.6,5.2c0,2.3-0.5,4-1.6,5.2c-1,1.2-2.6,1.8-4.6,1.8C155,32,153.5,31.4,152.4,30.2z M159.1,28.3
		c0.5-0.7,0.7-1.8,0.7-3.3c0-1.5-0.2-2.5-0.7-3.3c-0.5-0.7-1.2-1.1-2.1-1.1s-1.7,0.4-2.2,1.1c-0.5,0.7-0.7,1.8-0.7,3.3
		c0,1.5,0.2,2.6,0.7,3.3s1.2,1.1,2.2,1.1S158.7,29,159.1,28.3z"/>
	<path class="st1" d="M167.2,31c-0.7-0.6-1-1.6-1-3V13c0-0.5,0.5-0.7,1.4-0.7h0.5c0.9,0,1.4,0.2,1.4,0.7v15c0,0.5,0.1,0.9,0.3,1.1
		c0.2,0.2,0.5,0.3,0.8,0.3c0.2,0,0.3,0,0.5-0.1c0.2,0,0.3-0.1,0.3-0.1c0.2,0,0.4,0.2,0.5,0.7c0.1,0.4,0.2,0.8,0.2,1
		c0,0.7-0.8,1.1-2.3,1.1C168.7,32,167.8,31.7,167.2,31z"/>
	<path class="st1" d="M185.2,31.5c0,0.3-0.5,0.4-1.4,0.4h-0.7c-0.4,0-0.7,0-1-0.1s-0.4-0.2-0.5-0.4l-4.2-6h-0.1v5.7
		c0,0.5-0.5,0.8-1.4,0.8h-0.5c-0.9,0-1.4-0.3-1.4-0.8V13c0-0.5,0.5-0.7,1.4-0.7h0.5c0.9,0,1.4,0.2,1.4,0.7v10.8l0.1,0l3.8-5.1
		c0.1-0.2,0.3-0.3,0.5-0.4c0.2-0.1,0.6-0.1,1-0.1h0.7c0.4,0,0.7,0,0.9,0.1s0.3,0.2,0.3,0.3c0,0.1-0.1,0.3-0.2,0.5l-4,5.4L185,31
		C185.2,31.2,185.2,31.3,185.2,31.5z"/>
	<path class="st1" d="M187.5,15.9v-1.9c0-0.5,0.6-0.7,1.7-0.7c1.1,0,1.6,0.2,1.6,0.7v1.9c0,0.5-0.5,0.8-1.6,0.8
		C188,16.7,187.5,16.5,187.5,15.9z M187.5,31.1V18.9c0-0.5,0.5-0.8,1.4-0.8h0.5c0.9,0,1.4,0.3,1.4,0.8v12.2c0,0.5-0.5,0.8-1.4,0.8
		h-0.5C187.9,31.9,187.5,31.6,187.5,31.1z"/>
	<path class="st1" d="M195.8,31c-0.7-0.6-1-1.6-1-3v-7.2h-0.7c-0.2,0-0.4-0.1-0.5-0.3c-0.1-0.2-0.2-0.5-0.2-0.9v-0.4
		c0-0.4,0.1-0.7,0.2-0.9c0.1-0.2,0.3-0.3,0.5-0.3h0.7l0.3-2.5c0.1-0.5,0.5-0.8,1.2-0.8h0.6c0.7,0,1.1,0.3,1.1,0.8v2.5h1.6
		c0.2,0,0.4,0.1,0.5,0.3c0.1,0.2,0.2,0.5,0.2,0.9v0.4c0,0.4-0.1,0.7-0.2,0.9c-0.1,0.2-0.3,0.3-0.5,0.3h-1.6V28
		c0,0.5,0.1,0.9,0.3,1.1c0.2,0.2,0.5,0.3,0.8,0.3c0.2,0,0.3,0,0.5-0.1c0.2,0,0.3-0.1,0.4-0.1c0.2,0,0.4,0.2,0.5,0.7
		c0.1,0.4,0.2,0.8,0.2,1c0,0.7-0.8,1.1-2.3,1.1C197.4,32,196.5,31.7,195.8,31z"/>
</g>
<g class="st9">
	<path class="st10" d="M66.4,65.5c-1-1.2-1.6-2.9-1.6-5.4c0-4.7,2.2-7.1,6.5-7.1c0.7,0,1.3,0.1,1.9,0.2c0.6,0.1,1.1,0.3,1.5,0.5
		c0.3,0.2,0.5,0.4,0.5,0.5c0,0.2-0.1,0.4-0.2,0.7c-0.2,0.3-0.3,0.4-0.4,0.4c0,0-0.2-0.1-0.5-0.2s-0.7-0.3-1.1-0.4
		c-0.4-0.1-0.9-0.2-1.5-0.2c-1.6,0-2.8,0.4-3.6,1.3c-0.8,0.9-1.1,2.3-1.1,4.3c0,1.9,0.4,3.3,1.1,4.2s1.9,1.3,3.5,1.3
		c0.7,0,1.2-0.1,1.7-0.2s0.9-0.4,1.4-0.6c0.2-0.1,0.3-0.2,0.4-0.2c0.1,0,0.3,0.1,0.4,0.4s0.3,0.5,0.3,0.6c0,0.2-0.2,0.4-0.6,0.7
		c-0.4,0.2-0.9,0.4-1.5,0.6s-1.3,0.2-2,0.2C69.1,67.2,67.5,66.6,66.4,65.5z"/>
	<path class="st10" d="M78.8,66.9c-0.7-0.2-1.2-0.4-1.5-0.7c-0.3-0.2-0.4-0.4-0.4-0.5c0-0.2,0.1-0.4,0.3-0.7
		c0.2-0.3,0.3-0.4,0.4-0.4c0.1,0,0.2,0.1,0.4,0.2c0.4,0.2,0.9,0.4,1.3,0.6c0.5,0.2,1,0.2,1.7,0.2c0.8,0,1.4-0.2,1.9-0.6
		c0.5-0.4,0.7-1,0.7-1.7c0-0.5-0.1-0.9-0.4-1.2c-0.3-0.3-0.6-0.6-1-0.8s-0.9-0.4-1.6-0.7c-0.8-0.3-1.4-0.6-1.8-0.8
		c-0.5-0.3-0.8-0.6-1.2-1.1s-0.5-1.2-0.5-2c0-0.7,0.2-1.4,0.5-1.9c0.4-0.6,0.9-1,1.6-1.3s1.5-0.5,2.3-0.5c0.5,0,1,0.1,1.5,0.2
		s1,0.3,1.3,0.5c0.3,0.2,0.4,0.3,0.4,0.5c0,0.1-0.1,0.4-0.2,0.6c-0.2,0.3-0.3,0.4-0.4,0.4c-0.1,0-0.2,0-0.3-0.1
		c-0.1-0.1-0.2-0.1-0.2-0.1c-0.7-0.3-1.4-0.5-2.1-0.5c-0.8,0-1.4,0.2-1.9,0.6c-0.5,0.4-0.7,1-0.7,1.7c0,0.5,0.1,0.8,0.4,1.1
		c0.2,0.3,0.5,0.5,0.8,0.6c0.3,0.1,0.8,0.4,1.6,0.7c0.8,0.3,1.5,0.6,2,0.9c0.5,0.3,0.9,0.7,1.3,1.2c0.4,0.5,0.5,1.2,0.5,2.1
		c0,1.2-0.4,2.1-1.2,2.8c-0.8,0.7-1.9,1-3.2,1C80.2,67.2,79.4,67.1,78.8,66.9z"/>
	<path class="st10" d="M88.8,66.9c-0.7-0.2-1.2-0.4-1.5-0.7c-0.3-0.2-0.4-0.4-0.4-0.5c0-0.2,0.1-0.4,0.3-0.7
		c0.2-0.3,0.3-0.4,0.4-0.4c0.1,0,0.2,0.1,0.4,0.2c0.4,0.2,0.9,0.4,1.3,0.6c0.5,0.2,1,0.2,1.7,0.2c0.8,0,1.4-0.2,1.9-0.6
		c0.5-0.4,0.7-1,0.7-1.7c0-0.5-0.1-0.9-0.4-1.2c-0.3-0.3-0.6-0.6-1-0.8s-0.9-0.4-1.6-0.7c-0.8-0.3-1.4-0.6-1.8-0.8
		c-0.5-0.3-0.8-0.6-1.2-1.1s-0.5-1.2-0.5-2c0-0.7,0.2-1.4,0.5-1.9c0.4-0.6,0.9-1,1.6-1.3s1.5-0.5,2.3-0.5c0.5,0,1,0.1,1.5,0.2
		s1,0.3,1.3,0.5c0.3,0.2,0.4,0.3,0.4,0.5c0,0.1-0.1,0.4-0.2,0.6c-0.2,0.3-0.3,0.4-0.4,0.4c-0.1,0-0.2,0-0.3-0.1
		c-0.1-0.1-0.2-0.1-0.2-0.1c-0.7-0.3-1.4-0.5-2.1-0.5c-0.8,0-1.4,0.2-1.9,0.6c-0.5,0.4-0.7,1-0.7,1.7c0,0.5,0.1,0.8,0.4,1.1
		c0.2,0.3,0.5,0.5,0.8,0.6c0.3,0.1,0.8,0.4,1.6,0.7c0.8,0.3,1.5,0.6,2,0.9c0.5,0.3,0.9,0.7,1.3,1.2c0.4,0.5,0.5,1.2,0.5,2.1
		c0,1.2-0.4,2.1-1.2,2.8c-0.8,0.7-1.9,1-3.2,1C90.2,67.2,89.4,67.1,88.8,66.9z"/>
	<path class="st10" d="M103.6,65.5c-1-1.2-1.6-2.9-1.6-5.4c0-4.7,2.2-7.1,6.5-7.1c0.7,0,1.3,0.1,1.9,0.2c0.6,0.1,1.1,0.3,1.5,0.5
		c0.3,0.2,0.5,0.4,0.5,0.5c0,0.2-0.1,0.4-0.2,0.7c-0.2,0.3-0.3,0.4-0.4,0.4c0,0-0.2-0.1-0.5-0.2s-0.7-0.3-1.1-0.4
		c-0.4-0.1-0.9-0.2-1.5-0.2c-1.6,0-2.8,0.4-3.6,1.3c-0.8,0.9-1.1,2.3-1.1,4.3c0,1.9,0.4,3.3,1.1,4.2s1.9,1.3,3.5,1.3
		c0.7,0,1.2-0.1,1.7-0.2s0.9-0.4,1.4-0.6c0.2-0.1,0.3-0.2,0.4-0.2c0.1,0,0.3,0.1,0.4,0.4s0.3,0.5,0.3,0.6c0,0.2-0.2,0.4-0.6,0.7
		c-0.4,0.2-0.9,0.4-1.5,0.6s-1.3,0.2-2,0.2C106.3,67.2,104.7,66.6,103.6,65.5z"/>
	<path class="st10" d="M115.6,65.8c-0.8-0.9-1.2-2.2-1.2-3.9c0-1.7,0.4-3.1,1.2-4c0.8-0.9,1.9-1.4,3.4-1.4c1.5,0,2.6,0.5,3.4,1.4
		c0.8,0.9,1.2,2.3,1.2,4c0,1.7-0.4,3-1.1,3.9c-0.8,0.9-1.9,1.4-3.4,1.4C117.5,67.2,116.4,66.7,115.6,65.8z M121.1,64.8
		c0.5-0.6,0.7-1.6,0.7-3s-0.2-2.3-0.7-3c-0.5-0.6-1.2-1-2.2-1c-1,0-1.7,0.3-2.1,1c-0.5,0.6-0.7,1.6-0.7,3c0,1.3,0.2,2.3,0.7,3
		c0.5,0.6,1.2,0.9,2.1,0.9C119.9,65.7,120.7,65.4,121.1,64.8z"/>
	<path class="st10" d="M139.2,57.2c0.6,0.5,0.9,1.3,0.9,2.5v6.9c0,0.3-0.3,0.4-0.8,0.4h-0.1c-0.5,0-0.8-0.1-0.8-0.4v-6.8
		c0-0.6-0.2-1.1-0.5-1.4c-0.3-0.3-0.8-0.5-1.4-0.5c-0.9,0-1.7,0.5-2.5,1.4c0,0.1,0,0.2,0,0.4v6.9c0,0.3-0.3,0.4-0.8,0.4h-0.1
		c-0.5,0-0.8-0.1-0.8-0.4v-6.8c0-0.6-0.2-1.1-0.5-1.4c-0.3-0.3-0.8-0.5-1.4-0.5c-0.5,0-0.9,0.1-1.4,0.4s-0.8,0.6-1.1,1v7.3
		c0,0.3-0.3,0.4-0.8,0.4h-0.1c-0.5,0-0.8-0.1-0.8-0.4v-7c0-0.9,0-1.5-0.1-1.9c-0.1-0.4-0.1-0.6-0.1-0.6c0-0.2,0.1-0.3,0.4-0.4
		s0.5-0.1,0.7-0.1c0.2,0,0.3,0.1,0.4,0.3c0.1,0.2,0.2,0.4,0.2,0.6c0,0.2,0.1,0.4,0.1,0.4c0.4-0.4,0.8-0.8,1.4-1.1
		c0.5-0.3,1.1-0.4,1.7-0.4c0.6,0,1.2,0.1,1.7,0.4c0.5,0.2,0.9,0.7,1.2,1.3c0.4-0.5,0.9-0.9,1.5-1.2c0.6-0.3,1.1-0.5,1.7-0.5
		C137.8,56.5,138.6,56.7,139.2,57.2z"/>
	<path class="st10" d="M143.3,70.8V59.6c0-0.9,0-1.5-0.1-1.9c-0.1-0.4-0.1-0.6-0.1-0.6c0-0.2,0.1-0.3,0.4-0.4
		c0.3-0.1,0.5-0.1,0.7-0.1c0.2,0,0.3,0.1,0.4,0.3s0.2,0.4,0.2,0.6s0.1,0.4,0.1,0.4c1-1,2-1.5,3.2-1.5c0.8,0,1.5,0.2,2.1,0.7
		c0.6,0.5,1,1.1,1.3,1.9c0.3,0.8,0.5,1.7,0.5,2.8c0,1.1-0.2,2.1-0.5,2.9c-0.3,0.8-0.8,1.4-1.4,1.8s-1.3,0.6-2.1,0.6
		c-0.6,0-1.1-0.1-1.5-0.3c-0.4-0.2-0.9-0.4-1.3-0.8v4.6c0,0.3-0.3,0.4-0.8,0.4h-0.1C143.6,71.2,143.3,71.1,143.3,70.8z M149.5,64.7
		c0.5-0.6,0.7-1.6,0.7-2.8c0-1.3-0.2-2.3-0.6-3c-0.4-0.7-1-1-1.8-1c-0.5,0-0.9,0.1-1.4,0.4s-0.9,0.6-1.3,1v5.5
		c0.7,0.6,1.5,0.9,2.5,0.9C148.4,65.7,149,65.4,149.5,64.7z"/>
	<path class="st10" d="M155.4,65.8c-0.8-0.9-1.2-2.2-1.2-3.9c0-1.7,0.4-3.1,1.2-4s1.9-1.4,3.4-1.4c1.5,0,2.6,0.5,3.4,1.4
		c0.8,0.9,1.2,2.3,1.2,4c0,1.7-0.4,3-1.2,3.9c-0.8,0.9-1.9,1.4-3.4,1.4C157.3,67.2,156.2,66.7,155.4,65.8z M160.9,64.8
		c0.5-0.6,0.7-1.6,0.7-3s-0.2-2.3-0.7-3c-0.5-0.6-1.2-1-2.2-1c-1,0-1.7,0.3-2.1,1c-0.5,0.6-0.7,1.6-0.7,3c0,1.3,0.2,2.3,0.7,3
		c0.5,0.6,1.2,0.9,2.1,0.9C159.7,65.7,160.5,65.4,160.9,64.8z"/>
	<path class="st10" d="M166.2,66.7v-7c0-0.9,0-1.5-0.1-1.9c-0.1-0.4-0.1-0.6-0.1-0.6c0-0.2,0.1-0.3,0.4-0.4c0.3-0.1,0.5-0.1,0.7-0.1
		c0.2,0,0.3,0.1,0.4,0.3s0.2,0.4,0.2,0.6s0.1,0.4,0.1,0.4c0.4-0.5,0.9-0.8,1.5-1.1s1.1-0.4,1.7-0.4c1,0,1.8,0.3,2.4,0.9
		c0.6,0.6,0.9,1.4,0.9,2.4v6.9c0,0.3-0.3,0.4-0.8,0.4h-0.1c-0.5,0-0.8-0.1-0.8-0.4v-6.8c0-0.6-0.2-1.1-0.5-1.4
		c-0.4-0.3-0.9-0.5-1.5-0.5c-0.5,0-0.9,0.1-1.3,0.4c-0.4,0.3-0.8,0.6-1.2,1v7.3c0,0.3-0.3,0.4-0.8,0.4H167
		C166.4,67.1,166.2,67,166.2,66.7z"/>
	<path class="st10" d="M177.9,65.9c-0.8-0.9-1.2-2.2-1.2-4c0-1.8,0.4-3.1,1.2-4c0.8-0.9,1.9-1.4,3.5-1.4c1.4,0,2.4,0.4,3.1,1.3
		s1,2.2,1,3.9c0,0.1-0.1,0.3-0.2,0.5c-0.2,0.2-0.3,0.3-0.4,0.3h-6.3c0.1,1.1,0.4,1.9,0.9,2.4c0.5,0.5,1.2,0.8,2.2,0.8
		c0.6,0,1-0.1,1.4-0.2c0.4-0.1,0.7-0.3,1-0.4c0.3-0.1,0.4-0.2,0.5-0.2c0.1,0,0.3,0.1,0.4,0.4c0.2,0.3,0.2,0.5,0.2,0.6
		c0,0.2-0.2,0.3-0.5,0.5c-0.3,0.2-0.8,0.4-1.3,0.5c-0.6,0.1-1.1,0.2-1.8,0.2C179.9,67.2,178.7,66.8,177.9,65.9z M183.7,61.1
		c0-2.1-0.8-3.2-2.4-3.2c-1.7,0-2.7,1.1-2.8,3.2H183.7z"/>
	<path class="st10" d="M188.1,66.7v-7c0-0.9,0-1.5-0.1-1.9c-0.1-0.4-0.1-0.6-0.1-0.6c0-0.2,0.1-0.3,0.4-0.4c0.3-0.1,0.5-0.1,0.7-0.1
		c0.2,0,0.3,0.1,0.4,0.3s0.2,0.4,0.2,0.6s0.1,0.4,0.1,0.4c0.4-0.5,0.9-0.8,1.5-1.1s1.1-0.4,1.7-0.4c1,0,1.8,0.3,2.4,0.9
		c0.6,0.6,0.9,1.4,0.9,2.4v6.9c0,0.3-0.3,0.4-0.8,0.4h-0.1c-0.5,0-0.8-0.1-0.8-0.4v-6.8c0-0.6-0.2-1.1-0.5-1.4
		c-0.4-0.3-0.9-0.5-1.5-0.5c-0.5,0-0.9,0.1-1.3,0.4c-0.4,0.3-0.8,0.6-1.2,1v7.3c0,0.3-0.3,0.4-0.8,0.4h-0.1
		C188.4,67.1,188.1,67,188.1,66.7z"/>
	<path class="st10" d="M200.4,66.6c-0.5-0.4-0.8-1.1-0.8-2.1V58h-1c-0.1,0-0.2,0-0.3-0.1c-0.1-0.1-0.1-0.2-0.1-0.5v-0.2
		c0-0.2,0-0.4,0.1-0.5c0.1-0.1,0.2-0.1,0.3-0.1h1l0.2-2.1c0-0.3,0.3-0.4,0.6-0.4h0.2c0.4,0,0.6,0.1,0.6,0.4v2.1h1.7
		c0.1,0,0.2,0,0.3,0.1c0.1,0.1,0.1,0.2,0.1,0.5v0.2c0,0.2,0,0.4-0.1,0.5c-0.1,0.1-0.2,0.1-0.3,0.1h-1.7v6.2c0,0.6,0.1,0.9,0.3,1.2
		c0.2,0.2,0.5,0.3,0.8,0.3c0.3,0,0.4,0,0.6,0s0.2,0,0.3,0c0.1,0,0.2,0.1,0.3,0.4c0.1,0.2,0.1,0.4,0.1,0.6c0,0.4-0.5,0.6-1.5,0.6
		C201.6,67.2,201,67,200.4,66.6z"/>
	<path class="st10" d="M206.7,67c-0.5-0.1-0.9-0.3-1.2-0.5c-0.3-0.2-0.4-0.4-0.4-0.5c0-0.1,0.1-0.3,0.2-0.6c0.2-0.3,0.3-0.4,0.5-0.4
		c0,0,0.2,0.1,0.4,0.2c0.2,0.1,0.5,0.3,0.8,0.4s0.7,0.2,1.1,0.2c0.6,0,1.1-0.1,1.5-0.4c0.3-0.3,0.5-0.6,0.5-1.1
		c0-0.5-0.2-0.8-0.5-1.1c-0.3-0.3-0.8-0.5-1.5-0.7c-0.6-0.2-1.1-0.4-1.4-0.6c-0.4-0.2-0.7-0.5-1-0.9c-0.3-0.4-0.4-0.9-0.4-1.6
		c0-0.6,0.1-1.1,0.4-1.5c0.3-0.4,0.7-0.8,1.2-1s1.1-0.4,1.7-0.4c0.7,0,1.3,0.1,1.8,0.3c0.5,0.2,0.8,0.4,0.8,0.6
		c0,0.2-0.1,0.4-0.2,0.7s-0.3,0.4-0.4,0.4c0,0-0.2-0.1-0.5-0.3s-0.7-0.2-1.3-0.2c-0.5,0-0.9,0.1-1.3,0.4c-0.3,0.2-0.5,0.6-0.5,1
		c0,0.4,0.1,0.7,0.3,0.9c0.2,0.2,0.6,0.4,1.2,0.6c1,0.3,1.8,0.8,2.4,1.3s0.8,1.2,0.8,2.1c0,0.6-0.2,1.1-0.5,1.6
		c-0.3,0.5-0.7,0.8-1.3,1.1c-0.5,0.3-1.1,0.4-1.8,0.4C207.7,67.2,207.2,67.2,206.7,67z"/>
</g>
<g>
	<path class="st11" d="M68.4,66.7L65,53.6c0-0.2-0.1-0.3-0.1-0.3c0-0.2,0.3-0.3,0.9-0.3H66c0.5,0,0.7,0.1,0.8,0.3l2.3,9.1
		c0.3,1,0.4,1.9,0.5,2.6h0.1l0.5-1.9l2.4-9.8c0.1-0.2,0.3-0.3,0.8-0.3h0.3c0.5,0,0.7,0.1,0.8,0.3l2.3,9.1c0.1,0.4,0.2,0.9,0.3,1.4
		c0.1,0.5,0.2,0.9,0.2,1.2h0.1c0.2-1,0.4-1.6,0.4-1.9l2.4-9.8c0.1-0.2,0.3-0.3,0.8-0.3h0.1c0.6,0,0.9,0.1,0.9,0.3l-0.1,0.3
		l-3.5,13.1c-0.1,0.2-0.3,0.3-0.8,0.3h-0.8c-0.5,0-0.7-0.1-0.8-0.3l-1.9-7.1c-0.1-0.5-0.3-1.2-0.4-1.9c-0.1-0.7-0.2-1.3-0.2-1.8
		h-0.1c0,0.5-0.1,1-0.2,1.6c-0.1,0.6-0.2,1-0.3,1.4l-2.1,7.8C70.8,66.9,70.5,67,70,67h-0.8C68.7,67,68.5,66.9,68.4,66.7z"/>
	<path class="st11" d="M84.1,65.8c-0.8-0.9-1.2-2.2-1.2-4c0-1.8,0.4-3.1,1.2-4s1.9-1.4,3.5-1.4c1.4,0,2.4,0.4,3.1,1.3s1,2.2,1,3.9
		c0,0.1-0.1,0.3-0.2,0.5c-0.2,0.2-0.3,0.3-0.4,0.3h-6.3c0.1,1.1,0.4,1.9,0.9,2.4c0.5,0.5,1.2,0.8,2.2,0.8c0.6,0,1-0.1,1.5-0.2
		c0.4-0.1,0.7-0.3,1-0.4c0.3-0.1,0.4-0.2,0.5-0.2c0.1,0,0.3,0.1,0.5,0.4c0.2,0.3,0.2,0.5,0.2,0.6c0,0.2-0.2,0.3-0.5,0.5
		c-0.3,0.2-0.8,0.4-1.3,0.5c-0.6,0.1-1.1,0.2-1.8,0.2C86.1,67.1,84.9,66.7,84.1,65.8z M89.9,61c0-2.1-0.8-3.2-2.4-3.2
		c-1.7,0-2.7,1.1-2.8,3.2H89.9z"/>
	<path class="st11" d="M95.8,65.6c-0.1,0.5-0.2,0.9-0.3,1.2C95.4,67,95.2,67,94.9,67h-0.1c-0.4,0-0.6-0.1-0.6-0.4V52.4
		c0-0.3,0.3-0.4,0.8-0.4h0.1c0.5,0,0.8,0.1,0.8,0.4v5c0.4-0.3,0.9-0.6,1.3-0.8c0.4-0.2,1-0.3,1.6-0.3c0.8,0,1.5,0.2,2.1,0.6
		s1.1,1,1.4,1.8c0.3,0.8,0.5,1.8,0.5,2.9c0,1-0.2,2-0.5,2.8c-0.3,0.8-0.8,1.4-1.4,1.9c-0.6,0.5-1.3,0.7-2.1,0.7
		C97.8,67.1,96.7,66.6,95.8,65.6z M100.4,64.6c0.4-0.7,0.6-1.7,0.6-3c0-1.2-0.2-2.1-0.7-2.8c-0.5-0.6-1.1-1-2-1
		c-0.4,0-0.9,0.1-1.3,0.2s-0.8,0.4-1.2,0.7v5.5c0.4,0.4,0.8,0.8,1.3,1s0.9,0.4,1.4,0.4C99.4,65.7,100,65.3,100.4,64.6z"/>
	<path class="st11" d="M111.4,65.4c-1-1.2-1.6-2.9-1.6-5.4c0-4.7,2.2-7.1,6.5-7.1c0.7,0,1.3,0.1,1.9,0.2c0.6,0.1,1.1,0.3,1.5,0.5
		c0.3,0.2,0.5,0.4,0.5,0.5c0,0.2-0.1,0.4-0.2,0.7c-0.2,0.3-0.3,0.4-0.4,0.4c0,0-0.2-0.1-0.5-0.2c-0.3-0.2-0.7-0.3-1.1-0.4
		s-0.9-0.2-1.5-0.2c-1.6,0-2.8,0.4-3.6,1.3c-0.8,0.9-1.1,2.3-1.1,4.3c0,1.9,0.4,3.3,1.1,4.2s1.9,1.3,3.5,1.3c0.7,0,1.2-0.1,1.7-0.2
		s0.9-0.4,1.4-0.6c0.2-0.1,0.3-0.2,0.4-0.2c0.1,0,0.3,0.1,0.4,0.4s0.3,0.5,0.3,0.6c0,0.2-0.2,0.4-0.6,0.7c-0.4,0.2-0.9,0.4-1.5,0.6
		s-1.3,0.2-2,0.2C114.1,67.1,112.5,66.5,111.4,65.4z"/>
	<path class="st11" d="M123.4,65.8c-0.8-0.9-1.2-2.2-1.2-3.9c0-1.7,0.4-3.1,1.2-4c0.8-0.9,1.9-1.4,3.4-1.4c1.5,0,2.6,0.5,3.4,1.4
		c0.8,0.9,1.2,2.3,1.2,4c0,1.7-0.4,3-1.2,3.9c-0.8,0.9-1.9,1.4-3.4,1.4C125.3,67.1,124.2,66.7,123.4,65.8z M128.9,64.7
		c0.5-0.6,0.7-1.6,0.7-3s-0.2-2.3-0.7-3c-0.5-0.6-1.2-1-2.2-1c-1,0-1.7,0.3-2.1,1c-0.5,0.6-0.7,1.6-0.7,3c0,1.3,0.2,2.3,0.7,3
		c0.5,0.6,1.2,0.9,2.1,0.9C127.8,65.7,128.5,65.4,128.9,64.7z"/>
	<path class="st11" d="M147,57.1c0.6,0.5,0.9,1.3,0.9,2.5v6.9c0,0.3-0.3,0.4-0.8,0.4h-0.1c-0.5,0-0.8-0.1-0.8-0.4v-6.8
		c0-0.6-0.2-1.1-0.5-1.4c-0.3-0.3-0.8-0.5-1.4-0.5c-0.9,0-1.7,0.5-2.5,1.4c0,0.1,0,0.2,0,0.4v6.9c0,0.3-0.3,0.4-0.8,0.4H141
		c-0.5,0-0.8-0.1-0.8-0.4v-6.8c0-0.6-0.2-1.1-0.5-1.4c-0.3-0.3-0.8-0.5-1.4-0.5c-0.5,0-0.9,0.1-1.4,0.4s-0.8,0.6-1.1,1v7.3
		c0,0.3-0.3,0.4-0.8,0.4H135c-0.5,0-0.8-0.1-0.8-0.4v-7c0-0.9,0-1.5-0.1-1.9c-0.1-0.4-0.1-0.6-0.1-0.6c0-0.2,0.1-0.3,0.4-0.3
		s0.5-0.1,0.7-0.1c0.2,0,0.3,0.1,0.4,0.3c0.1,0.2,0.2,0.4,0.2,0.6c0,0.2,0.1,0.4,0.1,0.4c0.4-0.4,0.8-0.8,1.3-1.1
		c0.5-0.3,1.1-0.4,1.7-0.4c0.6,0,1.2,0.1,1.7,0.4s0.9,0.7,1.2,1.3c0.4-0.5,0.9-0.9,1.5-1.2s1.1-0.5,1.7-0.5
		C145.6,56.4,146.4,56.7,147,57.1z"/>
	<path class="st11" d="M151.2,70.7V59.6c0-0.9,0-1.5-0.1-1.9c-0.1-0.4-0.1-0.6-0.1-0.6c0-0.2,0.1-0.3,0.4-0.3
		c0.3-0.1,0.5-0.1,0.7-0.1c0.2,0,0.3,0.1,0.4,0.3c0.1,0.2,0.2,0.4,0.2,0.6s0.1,0.4,0.1,0.4c1-1,2-1.5,3.2-1.5c0.8,0,1.5,0.2,2.1,0.7
		c0.6,0.5,1,1.1,1.3,1.9c0.3,0.8,0.5,1.7,0.5,2.8c0,1.1-0.2,2.1-0.5,2.9c-0.3,0.8-0.8,1.4-1.4,1.8s-1.3,0.6-2.1,0.6
		c-0.6,0-1.1-0.1-1.5-0.3c-0.4-0.2-0.9-0.4-1.3-0.8v4.6c0,0.3-0.3,0.4-0.8,0.4H152C151.4,71.2,151.2,71,151.2,70.7z M157.3,64.7
		c0.5-0.6,0.7-1.6,0.7-2.8c0-1.3-0.2-2.3-0.6-3c-0.4-0.7-1-1-1.8-1c-0.5,0-0.9,0.1-1.4,0.4s-0.9,0.6-1.3,1v5.5
		c0.7,0.6,1.5,0.9,2.5,0.9C156.2,65.6,156.9,65.3,157.3,64.7z"/>
	<path class="st11" d="M163.2,65.8c-0.8-0.9-1.2-2.2-1.2-3.9c0-1.7,0.4-3.1,1.2-4s1.9-1.4,3.4-1.4c1.5,0,2.6,0.5,3.4,1.4
		c0.8,0.9,1.2,2.3,1.2,4c0,1.7-0.4,3-1.2,3.9c-0.8,0.9-1.9,1.4-3.4,1.4C165.1,67.1,164,66.7,163.2,65.8z M168.7,64.7
		c0.5-0.6,0.7-1.6,0.7-3s-0.2-2.3-0.7-3c-0.5-0.6-1.2-1-2.2-1c-1,0-1.7,0.3-2.1,1c-0.5,0.6-0.7,1.6-0.7,3c0,1.3,0.2,2.3,0.7,3
		c0.5,0.6,1.2,0.9,2.1,0.9C167.6,65.7,168.3,65.4,168.7,64.7z"/>
	<path class="st11" d="M174,66.6v-7c0-0.9,0-1.5-0.1-1.9c-0.1-0.4-0.1-0.6-0.1-0.6c0-0.2,0.1-0.3,0.4-0.3c0.3-0.1,0.5-0.1,0.7-0.1
		c0.2,0,0.3,0.1,0.4,0.3c0.1,0.2,0.2,0.4,0.2,0.6s0.1,0.4,0.1,0.4c0.4-0.5,0.9-0.8,1.5-1.1c0.5-0.3,1.1-0.4,1.7-0.4
		c1,0,1.8,0.3,2.4,0.9c0.6,0.6,0.9,1.4,0.9,2.4v6.9c0,0.3-0.3,0.4-0.8,0.4H181c-0.5,0-0.8-0.1-0.8-0.4v-6.8c0-0.6-0.2-1.1-0.5-1.4
		c-0.4-0.3-0.9-0.5-1.5-0.5c-0.5,0-0.9,0.1-1.3,0.4c-0.4,0.3-0.8,0.6-1.2,1v7.3c0,0.3-0.3,0.4-0.8,0.4h-0.1
		C174.3,67,174,66.9,174,66.6z"/>
	<path class="st11" d="M185.7,65.8c-0.8-0.9-1.2-2.2-1.2-4c0-1.8,0.4-3.1,1.2-4c0.8-0.9,1.9-1.4,3.5-1.4c1.4,0,2.4,0.4,3.1,1.3
		s1,2.2,1,3.9c0,0.1-0.1,0.3-0.2,0.5c-0.2,0.2-0.3,0.3-0.4,0.3h-6.3c0.1,1.1,0.4,1.9,0.9,2.4c0.5,0.5,1.2,0.8,2.2,0.8
		c0.6,0,1-0.1,1.4-0.2c0.4-0.1,0.7-0.3,1-0.4c0.3-0.1,0.4-0.2,0.5-0.2c0.1,0,0.3,0.1,0.4,0.4c0.2,0.3,0.2,0.5,0.2,0.6
		c0,0.2-0.2,0.3-0.5,0.5c-0.3,0.2-0.8,0.4-1.3,0.5c-0.6,0.1-1.1,0.2-1.8,0.2C187.8,67.1,186.5,66.7,185.7,65.8z M191.5,61
		c0-2.1-0.8-3.2-2.4-3.2c-1.7,0-2.7,1.1-2.8,3.2H191.5z"/>
	<path class="st11" d="M195.9,66.6v-7c0-0.9,0-1.5-0.1-1.9c-0.1-0.4-0.1-0.6-0.1-0.6c0-0.2,0.1-0.3,0.4-0.3c0.3-0.1,0.5-0.1,0.7-0.1
		c0.2,0,0.3,0.1,0.4,0.3c0.1,0.2,0.2,0.4,0.2,0.6s0.1,0.4,0.1,0.4c0.4-0.5,0.9-0.8,1.5-1.1c0.5-0.3,1.1-0.4,1.7-0.4
		c1,0,1.8,0.3,2.4,0.9c0.6,0.6,0.9,1.4,0.9,2.4v6.9c0,0.3-0.3,0.4-0.8,0.4H203c-0.5,0-0.8-0.1-0.8-0.4v-6.8c0-0.6-0.2-1.1-0.5-1.4
		c-0.4-0.3-0.9-0.5-1.5-0.5c-0.5,0-0.9,0.1-1.3,0.4c-0.4,0.3-0.8,0.6-1.2,1v7.3c0,0.3-0.3,0.4-0.8,0.4h-0.1
		C196.2,67,195.9,66.9,195.9,66.6z"/>
	<path class="st11" d="M208.3,66.5c-0.5-0.4-0.8-1.1-0.8-2.1V58h-1c-0.1,0-0.2,0-0.3-0.1c-0.1-0.1-0.1-0.2-0.1-0.5v-0.2
		c0-0.2,0-0.4,0.1-0.5c0.1-0.1,0.2-0.1,0.3-0.1h1l0.2-2.1c0-0.3,0.3-0.4,0.6-0.4h0.2c0.4,0,0.6,0.1,0.6,0.4v2.1h1.7
		c0.1,0,0.2,0,0.3,0.1c0.1,0.1,0.1,0.2,0.1,0.5v0.2c0,0.2,0,0.4-0.1,0.5c-0.1,0.1-0.2,0.1-0.3,0.1h-1.7v6.2c0,0.6,0.1,0.9,0.3,1.2
		c0.2,0.2,0.5,0.3,0.8,0.3c0.3,0,0.4,0,0.6,0s0.2,0,0.3,0c0.1,0,0.2,0.1,0.3,0.4c0.1,0.2,0.1,0.4,0.1,0.6c0,0.4-0.5,0.6-1.5,0.6
		C209.4,67.1,208.8,66.9,208.3,66.5z"/>
	<path class="st11" d="M214.6,67c-0.5-0.1-0.9-0.3-1.2-0.5c-0.3-0.2-0.4-0.4-0.4-0.5c0-0.1,0.1-0.3,0.2-0.6c0.2-0.3,0.3-0.4,0.5-0.4
		c0,0,0.2,0.1,0.4,0.2c0.2,0.1,0.5,0.3,0.8,0.4s0.7,0.2,1.1,0.2c0.6,0,1.1-0.1,1.5-0.4c0.3-0.3,0.5-0.6,0.5-1.1
		c0-0.5-0.2-0.8-0.5-1.1c-0.3-0.3-0.8-0.5-1.5-0.7c-0.6-0.2-1.1-0.4-1.4-0.6c-0.4-0.2-0.7-0.5-1-0.9c-0.3-0.4-0.4-0.9-0.4-1.6
		c0-0.6,0.1-1.1,0.4-1.5c0.3-0.4,0.7-0.8,1.2-1c0.5-0.2,1.1-0.4,1.7-0.4c0.7,0,1.3,0.1,1.8,0.3c0.5,0.2,0.8,0.4,0.8,0.6
		c0,0.2-0.1,0.4-0.2,0.7s-0.3,0.4-0.4,0.4c0,0-0.2-0.1-0.5-0.3s-0.7-0.2-1.3-0.2c-0.5,0-0.9,0.1-1.3,0.4c-0.3,0.2-0.5,0.6-0.5,1
		c0,0.4,0.1,0.7,0.3,0.9c0.2,0.2,0.6,0.4,1.2,0.6c1,0.3,1.8,0.8,2.4,1.3s0.8,1.2,0.8,2.1c0,0.6-0.2,1.1-0.5,1.6
		c-0.3,0.5-0.7,0.8-1.3,1.1c-0.5,0.3-1.1,0.4-1.8,0.4C215.6,67.2,215,67.1,214.6,67z"/>
</g>
<path class="st2" d="M208.7,42.2l-81.4,7.2c-1.6,0.2-3-0.7-3-1.7V37.7c0-1,1-1.8,2.5-1.8l81.4-7.2c1.6-0.2,3,0.7,3,1.7v10
	C211.2,41.2,210,42,208.7,42.2z"/>
<g>
	<path class="st12" d="M138.1,45.8c-0.4-0.1-0.7-0.2-0.9-0.3c-0.2-0.1-0.2-0.2-0.2-0.3c0-0.1,0.1-0.2,0.2-0.4
		c0.1-0.2,0.2-0.3,0.3-0.3c0,0,0.1,0,0.3,0.1c0.2,0.1,0.5,0.2,0.8,0.3c0.3,0.1,0.6,0.1,1,0.1c0.5,0,0.8-0.2,1.1-0.5
		c0.3-0.3,0.4-0.6,0.4-1.1c0-0.3-0.1-0.5-0.2-0.7c-0.2-0.2-0.4-0.3-0.6-0.4c-0.2-0.1-0.6-0.2-1-0.3c-0.5-0.1-0.8-0.3-1.1-0.4
		c-0.3-0.1-0.5-0.3-0.7-0.6c-0.2-0.3-0.3-0.7-0.3-1.2c0-0.4,0.1-0.8,0.3-1.2c0.2-0.4,0.5-0.6,0.9-0.9c0.4-0.2,0.9-0.4,1.4-0.4
		c0.3,0,0.6,0,0.9,0c0.3,0,0.6,0.1,0.8,0.2c0.2,0.1,0.2,0.2,0.2,0.3c0,0.1-0.1,0.2-0.2,0.4c-0.1,0.2-0.2,0.3-0.2,0.3
		c0,0-0.1,0-0.2,0s-0.1-0.1-0.1-0.1c-0.4-0.2-0.8-0.2-1.2-0.2c-0.5,0-0.8,0.2-1.1,0.5c-0.3,0.3-0.4,0.6-0.4,1c0,0.3,0.1,0.5,0.2,0.6
		c0.1,0.2,0.3,0.3,0.5,0.3s0.5,0.2,0.9,0.3c0.5,0.1,0.9,0.3,1.2,0.4c0.3,0.1,0.6,0.4,0.8,0.7c0.2,0.3,0.3,0.7,0.3,1.2
		c0,0.7-0.2,1.3-0.7,1.8c-0.5,0.5-1.1,0.7-1.9,0.8C139,45.9,138.6,45.9,138.1,45.8z"/>
	<path class="st12" d="M145.3,45v-7.2L143,38c-0.1,0-0.1,0-0.2-0.1c0-0.1-0.1-0.1-0.1-0.3v-0.2c0-0.1,0-0.2,0.1-0.3
		c0-0.1,0.1-0.1,0.2-0.1l5.6-0.5c0.1,0,0.1,0,0.2,0.1c0,0.1,0.1,0.1,0.1,0.3v0.2c0,0.1,0,0.2-0.1,0.3c0,0.1-0.1,0.1-0.2,0.1
		l-2.3,0.2v7.2c0,0.2-0.2,0.3-0.5,0.3l-0.1,0C145.5,45.3,145.3,45.2,145.3,45z"/>
	<path class="st12" d="M150.5,43.8c-0.6-0.7-0.9-1.7-0.9-3.1c0-1.4,0.3-2.5,0.9-3.3c0.6-0.8,1.5-1.2,2.8-1.3
		c1.2-0.1,2.1,0.2,2.8,0.8c0.6,0.7,0.9,1.7,0.9,3.1c0,1.4-0.3,2.5-0.9,3.3c-0.6,0.8-1.6,1.2-2.8,1.3
		C152.1,44.7,151.2,44.5,150.5,43.8z M155.2,42.7c0.4-0.6,0.7-1.5,0.7-2.6c0-1.1-0.2-1.9-0.7-2.4c-0.4-0.5-1.1-0.7-1.9-0.7
		c-0.8,0.1-1.5,0.4-1.9,1c-0.4,0.6-0.7,1.5-0.7,2.5c0,1.1,0.2,1.9,0.7,2.5c0.4,0.5,1.1,0.8,1.9,0.7
		C154.1,43.7,154.8,43.3,155.2,42.7z"/>
	<path class="st12" d="M158.8,43.8V36c0-0.1,0-0.2,0.1-0.3c0.1-0.1,0.1-0.1,0.3-0.1l2-0.2c1-0.1,1.7,0,2.2,0.3
		c0.5,0.3,0.7,0.8,0.7,1.5c0,0.5-0.1,0.9-0.4,1.3c-0.2,0.4-0.6,0.6-1,0.9v0c0.2,0.1,0.4,0.2,0.6,0.4c0.2,0.2,0.3,0.5,0.5,1l0.9,2.3
		c0,0.1,0,0.1,0,0.2c0,0.1-0.2,0.2-0.5,0.2l-0.1,0c-0.1,0-0.2,0-0.3,0c-0.1,0-0.1-0.1-0.2-0.1l-0.9-2.3c-0.2-0.4-0.4-0.7-0.7-0.9
		c-0.3-0.1-0.6-0.2-1.1-0.1l-1.1,0.1v3.5c0,0.2-0.2,0.3-0.5,0.3l-0.1,0C159,44.1,158.8,44,158.8,43.8z M161.5,39.2
		c0.3,0,0.5-0.1,0.8-0.3c0.2-0.2,0.4-0.4,0.6-0.6c0.1-0.2,0.2-0.5,0.2-0.8c0-0.5-0.1-0.8-0.4-1c-0.3-0.2-0.7-0.3-1.2-0.2l-1.5,0.1
		v2.9L161.5,39.2z"/>
	<path class="st12" d="M167.7,43.1V39l-2.5-3.5c-0.1-0.1-0.1-0.2-0.1-0.2c0-0.1,0.2-0.2,0.6-0.3l0.1,0c0.1,0,0.2,0,0.3,0
		c0.1,0,0.1,0.1,0.2,0.1l2,2.8l2-3.1c0.1-0.1,0.3-0.2,0.5-0.2l0.1,0c0.2,0,0.3,0,0.4,0c0.1,0,0.1,0.1,0.1,0.1c0,0.1,0,0.1-0.1,0.2
		l-2.5,4v4c0,0.2-0.2,0.3-0.5,0.3l-0.1,0C167.8,43.3,167.7,43.2,167.7,43.1z"/>
	<path class="st12" d="M172.8,42.8c-0.1-0.1-0.1-0.1-0.1-0.3v-7.7c0-0.1,0-0.2,0.1-0.3c0.1-0.1,0.1-0.1,0.3-0.1l2.1-0.2
		c0.9-0.1,1.5,0.1,2,0.4s0.7,0.8,0.7,1.5c0,0.4-0.1,0.8-0.4,1.2c-0.3,0.4-0.6,0.6-0.9,0.8v0c0.5,0.1,0.9,0.3,1.2,0.6
		c0.3,0.3,0.5,0.7,0.5,1.2c0,1.6-1,2.5-3.1,2.7l-2.1,0.2C173,42.8,172.9,42.8,172.8,42.8z M175.2,37.9c0.5,0,0.9-0.2,1.2-0.5
		c0.3-0.3,0.5-0.6,0.5-1c0-0.4-0.1-0.8-0.4-1c-0.3-0.2-0.7-0.3-1.3-0.2l-1.3,0.1V38L175.2,37.9z M175.5,41.7c0.5,0,0.9-0.2,1.2-0.5
		c0.3-0.3,0.4-0.7,0.4-1.2c0-0.4-0.2-0.8-0.5-1c-0.3-0.2-0.8-0.3-1.4-0.2l-1.5,0.1v3L175.5,41.7z"/>
	<path class="st12" d="M180.3,41.2c-0.6-0.7-0.9-1.7-0.9-3.1c0-1.4,0.3-2.5,0.9-3.3c0.6-0.8,1.5-1.2,2.8-1.3s2.1,0.2,2.8,0.8
		c0.6,0.7,0.9,1.7,0.9,3.1c0,1.4-0.3,2.5-0.9,3.3c-0.6,0.8-1.6,1.2-2.8,1.3C181.9,42.1,181,41.9,180.3,41.2z M185,40.1
		c0.4-0.6,0.7-1.5,0.7-2.6c0-1.1-0.2-1.9-0.7-2.4c-0.4-0.5-1.1-0.7-1.9-0.7s-1.5,0.4-1.9,1c-0.4,0.6-0.7,1.5-0.7,2.5
		c0,1.1,0.2,1.9,0.7,2.5c0.4,0.5,1.1,0.8,1.9,0.7S184.6,40.7,185,40.1z"/>
	<path class="st12" d="M189.1,40.4c-0.6-0.7-0.9-1.7-0.9-3.1c0-1.4,0.3-2.5,0.9-3.3c0.6-0.8,1.5-1.2,2.8-1.3s2.1,0.2,2.8,0.8
		c0.6,0.7,0.9,1.7,0.9,3.1c0,1.4-0.3,2.5-0.9,3.3c-0.6,0.8-1.6,1.2-2.8,1.3C190.6,41.4,189.7,41.1,189.1,40.4z M193.8,39.3
		c0.4-0.6,0.7-1.5,0.7-2.6c0-1.1-0.2-1.9-0.7-2.4c-0.4-0.5-1.1-0.7-1.9-0.7s-1.5,0.4-1.9,1c-0.4,0.6-0.7,1.5-0.7,2.5
		c0,1.1,0.2,1.9,0.7,2.5c0.4,0.5,1.1,0.8,1.9,0.7S193.3,39.9,193.8,39.3z"/>
	<path class="st12" d="M197.4,40.5v-7.9c0-0.2,0.2-0.3,0.5-0.3l0.1,0c0.3,0,0.5,0,0.5,0.2v3.7l0,0l3-4c0.1-0.1,0.3-0.2,0.6-0.2
		l0.1,0c0.1,0,0.2,0,0.3,0c0.1,0,0.1,0.1,0.1,0.1c0,0.1,0,0.2-0.1,0.2l-3,4l3.6,3.6c0.1,0.1,0.1,0.1,0.1,0.2c0,0.1,0,0.1-0.1,0.1
		c-0.1,0-0.2,0.1-0.4,0.1l-0.1,0c-0.2,0-0.3,0-0.4,0c-0.1,0-0.2,0-0.2-0.1l-3.4-3.6l0,0v3.8c0,0.2-0.2,0.3-0.5,0.3l-0.1,0
		C197.6,40.7,197.4,40.6,197.4,40.5z"/>
</g>
</svg>
