<svg version="1.1" id="Layer_1" xmlns="http://www.w3.org/2000/svg" x="0" y="0" viewBox="0 0 650 320" xml:space="preserve"><style>.st0{fill:#80bc00}.st1{fill:#275937}.st2{fill:#e17000}.st3{fill:#39870c}.st4{fill:#fff}.st5{fill:#666}.st6{fill:#ff15d4}.st7{stroke-dasharray:6,6}.st7,.st8{fill:none;stroke:#ff15d4;stroke-width:1.4173;stroke-miterlimit:10}</style><path class="st0" d="M77.8 75.9c-31.8 0-57.7 25.8-57.7 57.7 0 31.8 25.8 57.7 57.7 57.7 31.8 0 57.7-25.8 57.7-57.7-.1-31.9-25.9-57.7-57.7-57.7zm0 97.1c-21.8 0-39.5-17.7-39.5-39.4 0-21.8 17.7-39.4 39.5-39.4s39.4 17.7 39.4 39.4S99.6 173 77.8 173z"/><path class="st1" d="M77.8 94.1c-21.8 0-39.5 17.7-39.5 39.4 0 21.8 17.7 39.4 39.5 39.4s39.4-17.7 39.4-39.4c0-21.8-17.6-39.4-39.4-39.4z"/><path class="st2" d="M77.8 153.7c11.2 0 20.2-9.1 20.2-20.2 0-11.2-9.1-20.2-20.2-20.2-11.2 0-20.2 9.1-20.2 20.2-.1 11.2 9 20.2 20.2 20.2z"/><path class="st3" d="M193.8 109.1c-6.3 0-11.1 1.9-14.4 5.7-3.3 3.7-4.9 9.2-4.9 16.4 0 7.2 1.7 12.7 5 16.5 3.3 3.9 8.2 5.8 14.4 5.8 6.3 0 11.1-2 14.4-5.8 3.3-3.8 5-9.4 5-16.5 0-7.2-1.7-12.7-5-16.4-3.3-3.8-8.2-5.7-14.5-5.7zm11.8 22.1c0 5.1-1 9.1-3.1 11.7-2 2.6-4.9 3.8-8.7 3.8-3.9 0-6.7-1.3-8.7-3.8-2-2.6-3.1-6.6-3.1-11.7s1-9.1 3-11.6 4.8-3.7 8.7-3.7c3.9 0 6.7 1.2 8.7 3.8 2.2 2.4 3.2 6.4 3.2 11.5zM259.1 121.5c-2-1.3-4.2-1.9-6.7-1.9-3.4 0-6.4 1.4-9.2 4.1-1.7-2.7-4.6-4.1-8.7-4.1-3.1 0-5.9 1.1-8.4 3.3 0-.1 0-.1-.1-.2-.1-.4-.2-.7-.3-.9-.1-.3-.3-.5-.5-.8-.2-.3-.5-.5-.8-.7-.6-.3-1.6-.4-3.4.1-1.7.5-1.9 1.5-1.9 2.1 0 .1 0 .3.4 2.5.2 1 .3 2.6.3 4.9v20.8c0 .7.3 2.4 3.7 2.4 3.2 0 3.5-1.7 3.5-2.4v-21.3l.7-.7c.5-.6 1.2-1.2 2.3-1.8 2-1.1 5-1.3 6.6.3.8.8 1.1 1.9 1.1 3.4v20.1c0 .7.3 2.4 3.7 2.4 3.2 0 3.5-1.7 3.5-2.4v-20.5-.9c2.1-2.2 4.1-3.4 6.1-3.4 1.5 0 2.7.4 3.4 1.2.8.8 1.1 1.9 1.1 3.4v20.1c0 .7.3 2.4 3.7 2.4 3.2 0 3.5-1.7 3.5-2.4V130c0-2-.3-3.8-1-5.3-.5-1.3-1.4-2.4-2.6-3.2zM296.6 119.9h-10c-1.3-.3-2.6-.4-4.1-.4-4 0-7.2 1.1-9.5 3.2s-3.5 4.9-3.5 8.2c0 2.1.5 4.1 1.5 5.8.7 1.1 1.5 2.1 2.5 2.9-2.6 1.5-3.2 3.5-3.2 5 0 1.4.5 3.3 2.4 4.8-3.5 1.7-5.3 4.2-5.3 7.4 0 3.3 1.4 5.7 4.1 7 2.5 1.3 6 1.9 10.7 1.9 4.6 0 8.4-1 11.2-2.8 2.9-2 4.4-4.5 4.4-7.6 0-2.4-.8-4.5-2.4-6-1.5-1.5-3.4-2.4-5.5-2.9-2-.4-4-.8-6-1-1.9-.2-3.5-.5-4.8-.9-.8-.2-1.3-.5-1.3-.8 0-.7 1.5-1.2 4-1.4h.6c4 0 7.2-1.1 9.5-3.2s3.5-4.9 3.5-8.1c0-1.6-.3-3.1-1-4.5h2.1c.5 0 2.3-.2 2.3-2.9v-.7c.1-2.8-1.6-3-2.2-3zm-14 15.8c-3.8 0-5.5-1.5-5.5-4.8s1.7-4.8 5.5-4.8 5.5 1.5 5.5 4.8-1.7 4.8-5.5 4.8zm6 22.3c-1.5.8-3.4 1.2-5.9 1.2-3.5 0-7.8-.5-7.8-2.9 0-.8.5-1.6 1.4-2.3 1-.8 2.2-1.5 3.5-2 .6.1 1.3.2 2.2.4 3.7.5 6.3 1.1 7.6 1.9.6.3.8.7.8 1.4.1.2.1 1.2-1.8 2.3zM328.9 138.3c.6-.9.9-1.5.9-2.2 0-13.7-7.4-16.6-13.7-16.6-4.6 0-8.3 1.5-10.8 4.5-2.5 2.9-3.8 7.2-3.8 12.7 0 5.5 1.3 9.8 3.9 12.5 2.6 2.8 6.5 4.2 11.8 4.2 2.9 0 5.6-.5 7.9-1.4 1.8-.7 3.9-1.8 3.9-3.5 0-.6-.3-1.4-.9-2.4-.5-.7-1.2-1.7-2.3-1.7-.3 0-.5.1-1.8.7-2.1 1.2-4.4 1.7-6.9 1.7-2.6 0-4.5-.7-5.8-2-1.1-1.2-1.8-2.9-2.1-5.3h17.5c1.2.2 2-.9 2.2-1.2zm-19.6-5.1c.8-6.3 4.4-7.1 7-7.1 2.4 0 5.6.8 6 7.1h-13zM357 119.8c-.8 0-3.2 0-3.7 1.7l-6.9 20.8-6.9-20.7c-.4-1.2-1.5-1.7-3.4-1.7h-.5c-2.4 0-3.7.7-3.7 2.1 0 .3.1.6.2 1.1l9.5 28.5c.4 1.2 1.5 1.7 3.4 1.7h2.1c1.9 0 3.1-.6 3.4-1.7l9.5-28.4c.2-.5.2-.9.2-1.2.3-1-.3-2.2-3.2-2.2zM368.8 119.8c-3.2 0-3.5 1.7-3.5 2.4v28.6c0 .7.3 2.4 3.7 2.4 3.2 0 3.5-1.7 3.5-2.4v-28.6c.1-.7-.3-2.4-3.7-2.4zM369.3 106.3h-.7c-3.2 0-3.5 1.7-3.5 2.4v3.5c0 .7.3 2.4 3.5 2.4h.7c3.2 0 3.5-1.7 3.5-2.4v-3.5c0-.7-.3-2.4-3.5-2.4zM395.8 119.6c-3 0-5.7 1.1-8.2 3.3 0-.1 0-.2-.1-.2-.1-.4-.2-.6-.3-.9-.1-.3-.3-.5-.5-.8-.2-.3-.5-.5-.8-.7-.6-.3-1.6-.4-3.4.1-1.7.5-1.9 1.5-1.9 2.1 0 .1 0 .3.4 2.5.2 1 .3 2.6.3 4.9v20.8c0 .7.3 2.4 3.7 2.4 3.2 0 3.5-1.7 3.5-2.4v-21.3c1.9-2.3 3.9-3.4 6.3-3.4 1.6 0 2.9.4 3.7 1.2.8.8 1.2 1.9 1.2 3.4v20.1c0 .7.3 2.4 3.7 2.4 3.2 0 3.5-1.7 3.5-2.4v-20.6c0-3.3-1-5.9-2.9-7.9-1.9-1.7-4.7-2.6-8.2-2.6zM440.7 119.9h-10c-1.3-.3-2.6-.4-4.1-.4-4 0-7.2 1.1-9.5 3.2s-3.5 4.9-3.5 8.2c0 2.1.5 4.1 1.6 5.8.7 1.1 1.5 2.1 2.5 2.9-2.6 1.5-3.2 3.5-3.2 5 0 1.4.5 3.3 2.4 4.8-3.5 1.7-5.3 4.2-5.3 7.4 0 3.3 1.4 5.7 4.1 7 2.5 1.3 6 1.9 10.7 1.9 4.6 0 8.4-1 11.2-2.8 2.9-2 4.4-4.5 4.4-7.6 0-2.4-.8-4.5-2.4-6-1.5-1.5-3.4-2.4-5.5-2.9-2-.4-4-.8-6-1-1.9-.2-3.5-.5-4.8-.9-.8-.2-1.3-.5-1.3-.8 0-.7 1.5-1.2 4-1.4h.6c4 0 7.2-1.1 9.5-3.2s3.5-4.9 3.5-8.1c0-1.6-.3-3.1-1-4.5h2.1c.5 0 2.3-.2 2.3-2.9v-.7c0-2.8-1.8-3-2.3-3zm-14.1 15.8c-3.8 0-5.5-1.5-5.5-4.8s1.7-4.8 5.5-4.8 5.5 1.5 5.5 4.8-1.7 4.8-5.5 4.8zm6 22.3c-1.5.8-3.4 1.2-5.9 1.2-3.5 0-7.8-.5-7.8-2.9 0-.8.4-1.6 1.4-2.3 1-.8 2.2-1.5 3.5-2 .6.1 1.3.2 2.2.4 3.7.5 6.3 1.1 7.6 1.9.6.3.8.7.8 1.4.1.2.1 1.2-1.8 2.3zM456.4 131.9c-1.9-.6-2.7-1.1-3.1-1.5-.4-.4-.7-1-.7-1.8 0-.7.3-1.3.9-1.8 1.5-1.1 4.9-1.1 7.3.1.8.4 1 .5 1.3.5 1.1 0 1.8-1 2.2-1.8.6-1 .8-1.8.8-2.5 0-1.6-1.8-2.4-3.2-2.8-1.7-.5-3.6-.8-5.7-.8-3.2 0-5.8.9-7.9 2.7-2.1 1.8-3.1 4.1-3.1 6.8s.7 4.7 2.1 6.1c1.3 1.3 3.4 2.3 6.2 3.2 3.1.9 4.3 1.6 4.8 2.1.7.6 1 1.5 1 2.7 0 1.2-.4 2.1-1.1 2.8-.8.7-1.8 1-3.1 1-1.4 0-2.7-.2-3.6-.5-1-.3-1.8-.7-2.3-1-1-.6-1.2-.7-1.6-.7-1.1 0-1.8 1-2.3 1.7-.6 1-.9 1.7-.9 2.4 0 1.7 2 2.7 3.7 3.4 2.1.9 4.6 1.3 7.5 1.3 3 0 5.6-1 7.8-3s3.3-4.6 3.3-7.6-.8-5.4-2.3-6.9c-1.5-1.5-4.1-2.9-8-4.1z"/><path class="st1" d="M484 146.7c-.2 0-.4 0-1.1.2-.4.1-.9.1-1.5.1-.7 0-2.1 0-2.1-3.3v-34.9c0-.7-.3-2.4-3.7-2.4-3.2 0-3.5 1.7-3.5 2.4v35.4c0 3.4.9 5.8 2.8 7.3 1.8 1.4 3.8 2 6 2 3.6 0 5.5-1 5.5-2.9 0-.5-.1-1.2-.4-2-.5-1.6-1.3-1.9-2-1.9zM503.5 119.6c-4.7 0-8.4 1.5-11 4.5-2.5 3-3.8 7.2-3.8 12.6 0 5.4 1.3 9.6 3.8 12.4 2.6 2.9 6.3 4.4 11 4.4 4.8 0 8.4-1.5 10.9-4.4 2.4-2.9 3.7-7.1 3.7-12.5s-1.3-9.6-3.7-12.6c-2.6-2.9-6.2-4.4-10.9-4.4zm-.1 6.5c2.5 0 4.3.8 5.5 2.4 1.2 1.7 1.9 4.4 1.9 8.1 0 3.7-.6 6.4-1.9 8.1-1.2 1.6-3 2.4-5.5 2.4s-4.3-.8-5.4-2.3c-1.2-1.7-1.8-4.4-1.8-8.1 0-3.7.6-6.4 1.8-8.1 1.1-1.8 2.8-2.5 5.4-2.5zM538.1 135.9l10.4-12.3c.6-.6.9-1.3.9-1.9 0-1.3-1.1-1.9-3.4-1.9-2.1 0-3.3.4-4 1.2l-9.6 11.4v-23.7c0-.7-.3-2.4-3.7-2.4-3.2 0-3.5 1.7-3.5 2.4v42.1c0 .7.3 2.4 3.7 2.4 3.2 0 3.5-1.7 3.5-2.4v-10.7l10.1 12c.7.8 2 1.2 4.3 1.2 1 0 3.7 0 3.7-2 0-.5-.3-1.1-.8-1.7l-11.6-13.7zM581.5 138.3c.6-.9.9-1.5.9-2.2 0-13.7-7.4-16.6-13.7-16.6-4.6 0-8.3 1.5-10.8 4.5-2.5 2.9-3.8 7.2-3.8 12.7 0 5.5 1.3 9.8 3.9 12.5 2.6 2.8 6.5 4.2 11.8 4.2 2.9 0 5.6-.5 7.9-1.4 1.8-.7 3.9-1.8 3.9-3.5 0-.6-.3-1.4-.9-2.4-.5-.7-1.2-1.7-2.3-1.7-.3 0-.5.1-1.8.7-2.1 1.2-4.4 1.7-6.9 1.7-2.6 0-4.5-.7-5.8-2-1.1-1.2-1.8-2.9-2.1-5.3h17.5c1.1.2 1.9-.9 2.2-1.2zm-19.6-5.1c.8-6.3 4.4-7.1 7-7.1 2.4 0 5.6.8 5.9 7.1h-12.9zM603.5 148.6c-.5-1.6-1.3-1.9-2-1.9-.1 0-.3 0-1.1.2-.4.1-.9.1-1.5.1-.7 0-2.1 0-2.1-3.3v-17.3h3.8c.5 0 2.3-.2 2.3-2.9v-.7c0-2.7-1.8-2.9-2.3-2.9h-3.8v-5.1c0-.6-.2-2.4-2.9-2.4h-.6c-2.6 0-3 1.8-3 2.3l-.6 5.2h-2c-.5 0-2.3.2-2.3 2.9v.7c0 2.7 1.8 2.9 2.3 2.9h1.8v17.8c0 3.4.9 5.8 2.8 7.3 1.8 1.4 3.8 2 6 2 3.6 0 5.5-1 5.5-2.9.1-.5-.1-1.2-.3-2z"/><path class="st2" d="M612.5 176.5l-125.2 10.2c-2.4.2-4.5-1.7-4.5-4.2v-23.3c0-2.2 1.7-4 3.9-4.2l125.2-10.2c2.4-.2 4.5 1.7 4.5 4.2v23.3c0 2.2-1.7 4-3.9 4.2z"/><path class="st4" d="M518 179.2c-.1-.1-.2-.4-.2-.7l.4-19.5c0-.3.1-.6.2-.8.1-.2.4-.3.7-.3l5.6-.5c2.1-.2 3.7.1 4.8.9 1.2.8 1.8 1.9 1.9 3.3.1.7-.1 1.5-.4 2.3-.3.8-.7 1.4-1.3 2-.6.6-1.2 1-1.8 1.3v.1c0-.1.4 0 1.1.3.7.3 1.4.7 2 1.3.6.6 1 1.5 1.1 2.5.2 2.2-.5 3.9-1.9 5.2-1.5 1.2-3.5 2-6.2 2.2l-5.4.5c-.3.1-.5 0-.6-.1zm7-2.7c1.4-.1 2.5-.6 3.3-1.5.8-.9 1.1-2 1-3.3-.1-1-.5-1.7-1.3-2.2-.8-.5-1.9-.6-3.4-.5l-4.1.3-.2 7.5 4.7-.3zm-.7-9.7c.9-.1 1.7-.3 2.3-.7.7-.4 1.2-1 1.5-1.6.4-.7.5-1.4.4-2.1-.1-.9-.5-1.6-1.2-2-.7-.4-1.8-.5-3.1-.4l-3.5.3-.1 6.9 3.7-.4zM535.8 177.8c-.1-.1-.2-.3-.2-.5l.4-19.7c0-.3.1-.6.2-.7.1-.2.4-.2.7-.3l10.7-.9c.3 0 .5.2.6.6v.2c0 .4 0 .8-.1 1.1-.1.3-.3.4-.6.5l-8.9.8-.1 7 8-.7c.3 0 .5.2.6.6v.2c0 .4 0 .8-.1 1.1-.1.3-.3.4-.6.4l-8 .7-.1 7.5 9-.8c.3 0 .5.2.6.6v.2c0 .4 0 .8-.1 1.1-.1.3-.3.4-.6.5l-10.7.9c-.4-.3-.6-.3-.7-.4zM557 176c-.2-.1-.3-.3-.3-.5l.4-18.5-5.9.5c-.3 0-.5-.2-.6-.6v-.4c0-.3 0-.6.1-.9.1-.3.3-.4.6-.4l14.3-1.2c.3 0 .5.2.6.6v.2c0 .4 0 .8-.1 1-.1.3-.3.4-.6.4l-5.8.5-.4 18.5c0 .2-.1.4-.3.5-.2.1-.5.2-.9.2h-.2c-.5.3-.8.2-.9.1zM565.5 175c0-.1 0-.3.1-.5l7.6-20.7c.1-.3.5-.5 1.2-.6l.9-.1c.7-.1 1.1.1 1.2.4l6.8 19.5c0 .1 0 .2.1.3 0 .4-.4.6-1.3.7h-.2c-.7.1-1.1-.1-1.2-.4l-1.7-4.9-8.9.8-1.8 5.2c-.1.3-.5.5-1.2.6h-.2c-1 .1-1.4 0-1.4-.3zm12.6-8.4l-3-8.8c-.2-.5-.3-1-.3-1.7h-.1c-.2.8-.3 1.4-.5 1.8l-3.4 9.4 7.3-.7z"/><path class="st5" d="M175.7 222c-.2-.2-.3-.5-.3-1v-28.2c0-.5.1-.8.3-1 .2-.2.5-.3 1-.3h15.4c.3 0 .5.1.7.3.1.2.2.5.2 1v.7c0 .5-.1.8-.2 1s-.4.3-.7.3h-12.8v10h11.5c.3 0 .5.1.7.3.1.2.2.5.2 1v.7c0 .5-.1.8-.2 1-.1.2-.4.3-.7.3h-11.5v10.7h12.8c.3 0 .5.1.7.3.1.2.2.5.2 1v.7c0 .5-.1.8-.2 1s-.4.3-.7.3h-15.4c-.5.2-.8.1-1-.1zM196.5 222.2c-.3-.1-.4-.3-.4-.6 0-.2.1-.5.4-.8l7.1-10.3-6.6-9.8c-.2-.3-.4-.6-.4-.8 0-.5.7-.7 2-.7h.4c.5 0 .9 0 1.2.1s.5.3.7.5l4.2 6.3c.2.3.5.8.9 1.5.4-.7.7-1.2.9-1.5l4.2-6.3c.3-.4.9-.6 2-.6h.2c.6 0 1.1.1 1.4.2.3.1.4.3.4.6 0 .2-.1.5-.4.8l-6.6 9.7 7.1 10.4c.2.3.4.6.4.8 0 .5-.7.7-2 .7h-.4c-.5 0-.9 0-1.2-.1s-.5-.3-.7-.5l-4.7-7c-.2-.3-.5-.8-.9-1.5-.4.7-.7 1.2-.9 1.5l-4.8 7c-.3.4-1 .6-2 .6h-.1c-.7 0-1.1-.1-1.4-.2zM222.9 221.2c-1.2-.9-1.7-2.5-1.7-4.7v-14H219c-.3 0-.5-.1-.7-.3-.1-.2-.2-.5-.2-1v-.5c0-.5.1-.8.2-1 .1-.2.4-.3.7-.3h2.2l.5-4.6c.1-.6.6-1 1.4-1h.4c.9 0 1.3.3 1.3 1v4.6h3.7c.3 0 .6.1.7.3.1.2.2.5.2 1v.5c0 .5-.1.8-.2 1-.1.2-.4.3-.7.3h-3.7v13.7c0 1.2.2 2.1.6 2.6.4.5 1 .7 1.7.7.6 0 1 0 1.3-.1.3-.1.5-.1.6-.1.3 0 .5.3.7.8s.3 1 .3 1.3c0 .9-1.1 1.3-3.2 1.3-1.4-.2-2.7-.6-3.9-1.5zM235.5 221.4V206c0-1.9-.1-3.3-.3-4.2-.2-.8-.3-1.3-.3-1.4 0-.4.3-.6.8-.8s1.1-.2 1.5-.2c.4 0 .7.2.9.6.2.4.3.9.4 1.3.1.5.2.8.2.9 1.6-2.2 3.3-3.3 5.1-3.3.8 0 1.5.2 1.9.5.4.3.7.7.7 1.2s-.1 1-.3 1.6c-.2.5-.4.8-.6.8-.1 0-.4-.1-.9-.2s-.9-.2-1.6-.2c-.7 0-1.3.2-1.9.6-.6.4-1.1.8-1.5 1.3-.4.5-.6.7-.6.8v16.1c0 .6-.6 1-1.8 1h-.2c-.9 0-1.5-.4-1.5-1zM251.9 220.9c-1.4-1.1-2.1-2.8-2.1-4.9 0-2.3.7-4.1 2.1-5.2 1.4-1.2 3.1-1.9 5.1-2.2 2-.3 4.5-.5 7.4-.5V206c0-1.1-.4-2-1.1-2.7-.8-.7-2-1-3.7-1-1.3 0-2.4.2-3.4.5s-1.8.6-2.4.9c-.6.3-1 .5-1.1.5-.3 0-.6-.3-1-.9-.4-.6-.6-1-.6-1.3 0-.4.4-.8 1.2-1.2.8-.4 1.8-.8 3.1-1.1 1.3-.3 2.6-.5 4-.5 2.7 0 4.9.6 6.4 1.8 1.5 1.2 2.3 2.9 2.3 5.1v9.9c0 1.9.1 3.3.3 4.2.2.8.3 1.3.3 1.4 0 .4-.3.6-.8.8-.6.2-1.1.2-1.5.2-.4 0-.7-.2-.9-.7-.2-.5-.3-.9-.4-1.4-.1-.5-.2-.8-.2-1-2 2.2-4.5 3.3-7.4 3.3-2.4-.3-4.3-.8-5.6-1.9zm9.3-2.4c1-.5 2.1-1.3 3.2-2.2v-5.2c-2.2 0-4 .1-5.4.3-1.4.1-2.6.6-3.7 1.2-1.1.7-1.6 1.7-1.6 3.1 0 1.2.3 2.1.9 2.7s1.6.9 2.8.9c1.5 0 2.8-.2 3.8-.8zM288.6 221.2c-1.2-.9-1.7-2.5-1.7-4.7v-14h-2.2c-.3 0-.5-.1-.7-.3-.1-.2-.2-.5-.2-1v-.5c0-.5.1-.8.2-1 .1-.2.4-.3.7-.3h2.2l.5-4.6c.1-.6.6-1 1.4-1h.4c.9 0 1.3.3 1.3 1v4.6h3.7c.3 0 .6.1.7.3.1.2.2.5.2 1v.5c0 .5-.1.8-.2 1-.1.2-.4.3-.7.3h-3.7v13.7c0 1.2.2 2.1.6 2.6.4.5 1 .7 1.7.7.6 0 1 0 1.3-.1.3-.1.5-.1.6-.1.3 0 .5.3.7.8s.3 1 .3 1.3c0 .9-1.1 1.3-3.2 1.3-1.4-.2-2.7-.6-3.9-1.5zM302.3 219.7c-1.8-1.9-2.6-4.8-2.6-8.8 0-3.9.9-6.9 2.6-8.9 1.7-2 4.3-3 7.7-3 3 0 5.3 1 6.8 2.9 1.5 2 2.3 4.8 2.3 8.6 0 .3-.2.6-.5 1.1-.4.5-.7.7-.9.7h-13.9c.2 2.4.8 4.2 1.9 5.4 1.1 1.1 2.7 1.7 4.9 1.7 1.2 0 2.3-.2 3.2-.5.9-.3 1.6-.6 2.2-.9.6-.3.9-.5 1-.5.3 0 .6.3 1 .9.4.6.5 1 .5 1.3 0 .4-.4.8-1.1 1.2s-1.7.8-2.9 1.1a16 16 0 01-3.9.5c-3.8 0-6.6-.9-8.3-2.8zm12.7-10.6c0-4.6-1.8-7-5.3-7-3.8 0-5.8 2.3-6.2 7H315zM342.2 221.8c0 .2-.1.4-.4.5-.3.1-.8.1-1.5.1h-.2c-.6 0-1.1 0-1.5-.1-.4-.1-.7-.2-.9-.5l-8.8-10.4h-.2v10c0 .6-.6 1-1.8 1h-.2c-1.2 0-1.8-.3-1.8-1v-31.2c0-.6.6-1 1.8-1h.2c1.2 0 1.8.3 1.8 1v19.7h.2l8.4-10c.3-.4 1.1-.6 2.3-.6h.2c.5 0 .9.1 1.1.2.3.1.4.2.4.4 0 .3-.1.6-.4.9l-8.2 9.7 9.1 10.7c.3.1.4.4.4.6zM348.9 222.2c-1.1-.3-1.9-.7-2.6-1.1-.6-.4-.9-.8-.9-1.2 0-.3.2-.7.5-1.3.4-.6.7-.9 1-.9.1 0 .3.2.8.5s1.1.6 1.9.9 1.6.4 2.5.4c2.9 0 4.3-1.2 4.3-3.6 0-1-.3-1.8-1-2.4-.6-.6-1.8-1.1-3.4-1.6-2.3-.7-3.9-1.5-4.8-2.5s-1.3-2.4-1.3-4.1c0-1.2.3-2.3.9-3.3s1.5-1.7 2.6-2.3c1.1-.5 2.4-.8 3.8-.8 1.5 0 2.8.2 4 .6 1.2.4 1.8.8 1.8 1.3 0 .4-.2.9-.5 1.5s-.6.9-.9.9c-.1 0-.5-.2-1.2-.6-.7-.4-1.6-.5-2.8-.5-1.1 0-2 .2-2.8.7-.7.5-1.1 1.2-1.1 2 0 1 .3 1.8.8 2.4.5.6 1.4 1.1 2.6 1.5 1.9.6 3.3 1.2 4.3 1.7 1 .6 1.7 1.3 2.1 2.1.4.8.6 1.9.6 3.3 0 1.3-.3 2.5-1 3.5s-1.6 1.9-2.8 2.5c-1.2.6-2.5.9-3.9.9-1.3 0-2.4-.2-3.5-.5zM368.5 221.2c-1.2-.9-1.7-2.5-1.7-4.7v-14h-2.2c-.3 0-.5-.1-.7-.3-.1-.2-.2-.5-.2-1v-.5c0-.5.1-.8.2-1 .1-.2.4-.3.7-.3h2.2l.5-4.6c.1-.6.6-1 1.4-1h.4c.9 0 1.3.3 1.3 1v4.6h3.7c.3 0 .6.1.7.3.1.2.2.5.2 1v.5c0 .5-.1.8-.2 1-.1.2-.4.3-.7.3h-3.7v13.7c0 1.2.2 2.1.6 2.6.4.5 1 .7 1.7.7.6 0 1 0 1.3-.1.3-.1.5-.1.6-.1.3 0 .5.3.7.8s.3 1 .3 1.3c0 .9-1.1 1.3-3.2 1.3-1.4-.2-2.8-.6-3.9-1.5zM381 221.4V206c0-1.9-.1-3.3-.3-4.2-.2-.8-.3-1.3-.3-1.4 0-.4.3-.6.8-.8s1.1-.2 1.5-.2c.4 0 .7.2.9.6.2.4.3.9.4 1.3.1.5.2.8.2.9 1.6-2.2 3.3-3.3 5.1-3.3.8 0 1.5.2 1.9.5.4.3.7.7.7 1.2s-.1 1-.3 1.6c-.2.5-.4.8-.6.8-.1 0-.4-.1-.9-.2s-.9-.2-1.6-.2c-.7 0-1.3.2-1.9.6-.6.4-1.1.8-1.5 1.3-.4.5-.6.7-.6.8v16.1c0 .6-.6 1-1.8 1h-.2c-.9 0-1.5-.4-1.5-1zM398.2 219.7c-1.8-1.9-2.6-4.8-2.6-8.8 0-3.9.9-6.9 2.6-8.9 1.7-2 4.3-3 7.7-3 3 0 5.3 1 6.8 2.9 1.5 2 2.3 4.8 2.3 8.6 0 .3-.2.6-.5 1.1-.4.5-.7.7-.9.7h-13.9c.2 2.4.8 4.2 1.9 5.4 1.1 1.1 2.7 1.7 4.9 1.7 1.2 0 2.3-.2 3.2-.5.9-.3 1.6-.6 2.2-.9.6-.3.9-.5 1-.5.3 0 .6.3 1 .9.4.6.5 1 .5 1.3 0 .4-.4.8-1.1 1.2s-1.7.8-2.9 1.1a16 16 0 01-3.9.5c-3.8 0-6.5-.9-8.3-2.8zm12.8-10.6c0-4.6-1.8-7-5.3-7-3.8 0-5.8 2.3-6.2 7H411zM421.4 230.3c-1.6-.9-2.4-2.3-2.4-4.1 0-1.3.4-2.4 1.1-3.3.7-.9 1.7-1.7 2.9-2.2v-.1c-1.2-.9-1.8-2.1-1.8-3.6 0-1.9.8-3.4 2.5-4.6-1.2-.6-2.2-1.5-2.8-2.6-.6-1.1-1-2.3-1-3.7 0-2.1.8-3.8 2.3-5.1 1.5-1.3 3.7-2 6.4-2 .9 0 1.8.1 2.6.3h8c.3 0 .6.1.7.3.1.2.2.5.2 1v.5c0 .5-.1.8-.2 1-.1.2-.4.3-.7.3-1.2 0-2.2 0-3.1-.1v.1c.8 1.1 1.1 2.3 1.1 3.8 0 2.1-.8 3.8-2.3 5.2-1.5 1.3-3.6 2-6.4 2-1.4 0-2.4.2-3.1.7s-1.1 1.3-1.1 2.3c0 .8.2 1.3.7 1.7.5.4 1.1.7 1.8.9.7.2 1.8.3 3.1.5.6.1 1.1.1 1.5.2 2.1.3 3.7.8 4.9 1.5 1.2.7 1.7 2 1.7 3.8 0 2.1-.9 3.8-2.6 4.9-1.7 1.1-4.2 1.7-7.5 1.7-2.7 0-4.9-.4-6.5-1.3zm11.7-2.5c1-.5 1.5-1.3 1.5-2.5 0-1-.5-1.7-1.5-2.1-1-.4-2.4-.6-4.4-.8-1.8-.2-3-.4-3.6-.6-1.9.8-2.9 2-2.9 3.6 0 2.1 2.1 3.2 6.3 3.2 2.1 0 3.6-.2 4.6-.8zm-.7-18.3c1-.7 1.4-1.7 1.4-3.2 0-2.8-1.8-4.3-5.3-4.3s-5.2 1.4-5.2 4.3c0 2.8 1.7 4.2 5.2 4.2 1.6-.1 2.9-.4 3.9-1zM446 219.7c-1.8-1.9-2.6-4.8-2.6-8.8 0-3.9.9-6.9 2.6-8.9 1.7-2 4.3-3 7.7-3 3 0 5.3 1 6.8 2.9 1.5 2 2.3 4.8 2.3 8.6 0 .3-.2.6-.5 1.1-.4.5-.7.7-.9.7h-13.9c.2 2.4.8 4.2 1.9 5.4 1.1 1.1 2.7 1.7 4.9 1.7 1.2 0 2.3-.2 3.2-.5.9-.3 1.6-.6 2.2-.9.6-.3.9-.5 1-.5.3 0 .6.3 1 .9.4.6.5 1 .5 1.3 0 .4-.4.8-1.1 1.2s-1.7.8-2.9 1.1a16 16 0 01-3.9.5c-3.8 0-6.6-.9-8.3-2.8zm12.7-10.6c0-4.6-1.8-7-5.3-7-3.8 0-5.8 2.3-6.2 7h11.5zM470 221.2c-1.2-.9-1.7-2.5-1.7-4.7v-26.3c0-.6.6-1 1.8-1h.2c1.2 0 1.8.3 1.8 1v26c0 1.2.2 2.1.6 2.6.4.5 1 .7 1.7.7.6 0 1 0 1.3-.1.3-.1.5-.1.6-.1.3 0 .5.3.7.8.2.5.3 1 .3 1.3 0 .9-1.1 1.3-3.2 1.3-1.6-.2-3-.6-4.1-1.5z"/><g><path class="st5" d="M51.6 285.2c-.1 0-.1-.1-.1-.2 0 0 .1-.5.2-1.4l.3-1.5h-1.2c-.1 0-.2 0-.2-.1-.1-.1-.1-.2-.1-.4v-.3c0-.2 0-.3.1-.4.1-.1.1-.1.2-.1h1.5l.4-2.4h-1.3c-.1 0-.2 0-.2-.1-.1-.1-.1-.2-.1-.4v-.3c0-.2 0-.3.1-.4.1-.1.1-.1.2-.1h1.5l.5-2.7c0-.1.1-.2.2-.3.1-.1.3-.1.5-.1h.1c.3 0 .4.1.4.2l-.5 2.8H56l.5-2.7c0-.1.1-.2.2-.3.1-.1.3-.1.5-.1h.1c.3 0 .4.1.4.2l-.5 2.8h1.1c.1 0 .2 0 .2.1s.1.2.1.4v.3c0 .2 0 .3-.1.4 0 .1-.1.1-.2.1H57l-.4 2.4h1.2c.1 0 .2 0 .2.1s.1.2.1.4v.3c0 .2 0 .3-.1.4 0 .1-.1.1-.2.1h-1.5l-.5 2.8c0 .1-.1.2-.2.3-.1.1-.3.1-.5.1H55c-.2 0-.3 0-.3-.1-.1 0-.1-.1-.1-.2 0 0 .1-.5.2-1.4l.3-1.5h-1.9l-.5 2.8c0 .1-.1.2-.2.3-.1.1-.3.1-.5.1h-.1c-.1.2-.3.2-.3.1zm3.7-4.3l.4-2.4h-1.9l-.4 2.4h1.9zM59.7 285c-.1-.1-.1-.3-.1-.5 0-.1 0-.2.1-.3l4.1-5.2c.3-.4.6-.8.7-1 .2-.3.3-.5.3-.6 0-.2.1-.4.1-.6 0-.5-.2-.9-.5-1.2-.4-.3-.8-.4-1.5-.4-.4 0-.8.1-1.1.2-.3.1-.6.3-.9.5-.2.1-.3.2-.4.2-.1 0-.2-.1-.3-.3-.1-.2-.2-.4-.2-.5 0-.2.2-.4.5-.6.3-.2.7-.3 1.2-.4.5-.1.9-.2 1.2-.2 1 0 1.9.2 2.5.7.6.5.9 1.1.9 2 0 .5-.1 1-.2 1.4-.2.4-.5.9-.9 1.5-.5.6-1.3 1.6-2.5 3.1l-1.2 1.4H66c.1 0 .2 0 .2.1s.1.2.1.4v.2c0 .2 0 .3-.1.4 0 .1-.1.1-.2.1h-6.1c-.1-.1-.1-.2-.2-.4zM69 285.2c-.1 0-.2-.1-.2-.2 0 0 0-.1.1-.2l4.6-9.6h-5c-.1 0-.2 0-.2-.1-.1-.1-.1-.2-.1-.4v-.2c0-.2 0-.3.1-.4s.1-.1.2-.1h6.3c.1 0 .1.1.2.3.1.2.1.4.1.5v.2l-4.7 10c0 .1-.1.1-.2.2s-.2.1-.4.1h-.2c-.3 0-.4 0-.6-.1zM78.1 285.2c-.5-.1-.8-.2-1.1-.4-.3-.1-.4-.3-.4-.4 0-.1.1-.3.2-.5s.3-.3.4-.3c.1 0 .2 0 .4.1l.9.3c.3.1.7.1 1.1.1.7 0 1.3-.2 1.8-.6.5-.4.7-1 .7-1.7s-.2-1.3-.7-1.6c-.5-.4-1.2-.6-2.1-.6h-1.4c-.2 0-.3 0-.4-.1-.1-.1-.1-.2-.1-.4l.3-4.6c0-.2.1-.3.1-.4s.2-.1.4-.1h4.3c.1 0 .2 0 .2.1s.1.2.1.4v.2c0 .2 0 .3-.1.4 0 .1-.1.1-.2.1H79l-.2 3.3h.8c.6 0 1.3.1 1.8.3.6.2 1.1.6 1.5 1.1s.6 1.1.6 2c0 1.3-.4 2.2-1.1 2.7s-1.7.8-2.7.8c-.6-.1-1.1-.1-1.6-.2zM86.6 285c-.1-.2-.2-.4-.2-.5 0-.1 0-.1.1-.2 1.1-.4 1.9-1 2.6-1.8s1.1-1.6 1.4-2.5c-.6.4-1.3.5-2.2.5-.6 0-1.1-.1-1.5-.4-.5-.3-.8-.6-1.1-1.1-.3-.5-.4-1.1-.4-1.7 0-.7.2-1.2.5-1.8s.7-.9 1.2-1.2c.5-.3 1.1-.4 1.8-.4 1.1 0 2 .3 2.5 1 .6.7.9 1.7.9 3 0 1.4-.3 2.7-1 3.8-.7 1.1-1.4 2-2.3 2.6-.8.6-1.5.9-1.9.9-.1.1-.3 0-.4-.2zm4.2-6.2c0-.4.1-.7.1-1 0-1-.2-1.7-.6-2.1-.4-.4-.9-.6-1.5-.6-.3 0-.6.1-.9.2-.3.2-.6.4-.8.7-.2.3-.3.7-.3 1.2 0 .7.2 1.3.6 1.6.4.4.9.5 1.5.5.6.1 1.3-.1 1.9-.5zM95.3 285.2c-.5-.1-.9-.2-1.2-.4-.3-.1-.4-.3-.4-.4 0-.1.1-.3.2-.5s.3-.3.4-.3c.1 0 .2 0 .4.1.7.3 1.4.4 2.1.4.6 0 1.1-.2 1.6-.5s.7-.9.7-1.7c0-.8-.2-1.3-.6-1.6-.4-.3-1-.5-1.8-.5h-.5c-.1 0-.2 0-.2-.1-.1-.1-.1-.2-.1-.4v-.2c0-.2 0-.3.1-.4.1-.1.1-.1.2-.1h.5c.5 0 .9-.1 1.2-.3.3-.2.5-.5.7-.8.1-.3.2-.6.2-.9 0-.4-.1-.7-.4-1.1s-.8-.5-1.5-.5c-.4 0-.8 0-1.1.1-.3.1-.6.2-.8.3-.2.1-.3.1-.4.1-.1 0-.2-.1-.3-.3-.1-.2-.2-.4-.2-.5 0-.2.3-.4 1-.6s1.3-.3 1.9-.3c1 0 1.8.2 2.4.7.6.5.9 1.2.9 2.1 0 .5-.2 1-.5 1.4-.3.4-.7.7-1.2.8v.1c.5.1 1 .5 1.4 1 .4.5.6 1.2.6 2s-.2 1.4-.5 1.9c-.4.5-.8.9-1.4 1.1s-1.1.3-1.7.3c-.6.1-1.2.1-1.7 0zM103.3 285.2c-.1 0-.2-.1-.2-.2 0 0 0-.1.1-.2l4.6-9.6h-5c-.1 0-.2 0-.2-.1-.1-.1-.1-.2-.1-.4v-.2c0-.2 0-.3.1-.4s.1-.1.2-.1h6.3c.1 0 .1.1.2.3.1.2.1.4.1.5v.2l-4.7 10c0 .1-.1.1-.2.2s-.2.1-.4.1h-.2c-.3 0-.5 0-.6-.1z"/><path class="st1" d="M37.4 291.3H22.8c-2.2 0-4-1.8-4-4v-14.7c0-2.2 1.8-4 4-4h14.7c2.2 0 4 1.8 4 4v14.7c-.1 2.2-1.9 4-4.1 4z"/></g><g><path class="st5" d="M182.3 285.1c-.1 0-.1-.1-.1-.2 0 0 .1-.5.2-1.4l.3-1.5h-1.2c-.1 0-.2 0-.2-.1-.1-.1-.1-.2-.1-.4v-.3c0-.2 0-.3.1-.4.1-.1.1-.1.2-.1h1.5l.4-2.4h-1.3c-.1 0-.2 0-.2-.1-.1-.1-.1-.2-.1-.4v-.3c0-.2 0-.3.1-.4.1-.1.1-.1.2-.1h1.5l.5-2.7c0-.1.1-.2.2-.3.1-.1.3-.1.5-.1h.1c.3 0 .4.1.4.2l-.5 2.8h1.9l.5-2.7c0-.1.1-.2.2-.3.1-.1.3-.1.5-.1h.1c.3 0 .4.1.4.2l-.5 2.8h1.1c.1 0 .2 0 .2.1s.1.2.1.4v.3c0 .2 0 .3-.1.4 0 .1-.1.1-.2.1h-1.3l-.4 2.4h1.2c.1 0 .2 0 .2.1s.1.2.1.4v.3c0 .2 0 .3-.1.4 0 .1-.1.1-.2.1H187l-.5 2.8c0 .1-.1.2-.2.3-.1.1-.3.1-.5.1h-.1c-.2 0-.3 0-.3-.1-.1 0-.1-.1-.1-.2 0 0 .1-.5.2-1.4l.3-1.5h-1.9l-.5 2.8c0 .1-.1.2-.2.3-.1.1-.3.1-.5.1h-.1c-.1.1-.2.1-.3.1zm3.7-4.4l.4-2.4h-1.9l-.4 2.4h1.9zM191.8 285c-.5-.1-.9-.2-1.2-.4-.3-.1-.4-.3-.4-.4 0-.1.1-.3.2-.5s.3-.3.4-.3c.1 0 .2 0 .4.1.7.3 1.4.4 2.1.4.6 0 1.1-.2 1.6-.5s.7-.9.7-1.7c0-.8-.2-1.3-.6-1.6-.4-.3-1-.5-1.8-.5h-.5c-.1 0-.2 0-.2-.1-.1-.1-.1-.2-.1-.4v-.2c0-.2 0-.3.1-.4.1-.1.1-.1.2-.1h.5c.5 0 .9-.1 1.2-.3.3-.2.5-.5.7-.8.1-.3.2-.6.2-.9 0-.4-.1-.7-.4-1.1s-.8-.5-1.5-.5c-.4 0-.8 0-1.1.1-.3.1-.6.2-.8.3-.2.1-.3.1-.4.1-.1 0-.2-.1-.3-.3-.1-.2-.2-.4-.2-.5 0-.2.3-.4 1-.6s1.3-.3 1.9-.3c1 0 1.8.2 2.4.7.6.5.9 1.2.9 2.1 0 .5-.2 1-.5 1.4-.3.4-.7.7-1.2.8v.1c.5.1 1 .5 1.4 1 .4.5.6 1.2.6 2s-.2 1.4-.5 1.9c-.4.5-.8.9-1.4 1.1s-1.1.3-1.7.3c-.7.2-1.2.1-1.7 0zM200.2 284.8c-.1-.2-.2-.4-.2-.5 0-.1 0-.1.1-.2 1.1-.4 1.9-1 2.6-1.8s1.1-1.6 1.4-2.5c-.6.4-1.3.5-2.2.5-.6 0-1.1-.1-1.5-.4-.5-.3-.8-.6-1.1-1.1-.3-.5-.4-1.1-.4-1.7 0-.7.2-1.2.5-1.8s.7-.9 1.2-1.2c.5-.3 1.1-.4 1.8-.4 1.1 0 2 .3 2.5 1 .6.7.9 1.7.9 3 0 1.4-.3 2.7-1 3.8-.7 1.1-1.4 2-2.3 2.6-.8.6-1.5.9-1.9.9-.1.1-.3 0-.4-.2zm4.2-6.1c0-.4.1-.7.1-1 0-1-.2-1.7-.6-2.1-.4-.4-.9-.6-1.5-.6-.3 0-.6.1-.9.2-.3.2-.6.4-.8.7-.2.3-.3.7-.3 1.2 0 .7.2 1.3.6 1.6.4.4.9.5 1.5.5s1.3-.2 1.9-.5zM208.4 284.3c-.6-.6-1-1.4-1-2.5 0-.8.2-1.4.5-1.8.3-.4.7-.8 1.3-1-.4-.2-.7-.6-1-1s-.4-.9-.4-1.5c0-.9.3-1.6.9-2 .6-.5 1.3-.7 2.2-.7.9 0 1.6.2 2.2.7.6.5.9 1.2.9 2 0 1.1-.5 2-1.6 2.4.6.3 1.1.6 1.4 1s.5 1 .5 1.8c0 1.1-.3 1.9-1 2.5-.6.6-1.5.8-2.5.8-.9.2-1.8-.1-2.4-.7zm4-.8c.4-.4.6-.9.6-1.6 0-.4-.1-.8-.3-1.1-.2-.3-.4-.5-.7-.6-.3-.1-.7-.3-1.2-.5l-.5-.2c-.5.3-.8.6-1.1 1s-.4.8-.4 1.4c0 .7.2 1.2.6 1.6s.9.6 1.5.6c.6-.1 1.1-.3 1.5-.6zm.3-6.9c0-.5-.2-.9-.5-1.2-.3-.3-.7-.4-1.2-.4s-.9.1-1.2.4-.5.7-.5 1.2c0 .4.1.7.3 1s.4.4.7.6.6.3 1.1.4c.8-.6 1.3-1.2 1.3-2zM216.9 285.1c-.1 0-.2-.1-.2-.2 0 0 0-.1.1-.2l4.6-9.6h-5c-.1 0-.2 0-.2-.1-.1-.1-.1-.2-.1-.4v-.2c0-.2 0-.3.1-.4s.1-.1.2-.1h6.3c.1 0 .1.1.2.3.1.2.1.4.1.5v.2l-4.7 10c0 .1-.1.1-.2.2s-.2.1-.4.1h-.2c-.3-.1-.5-.1-.6-.1zM226.2 284.6c-.5-.4-1-1-1.3-1.9-.3-.9-.5-1.9-.5-3.2s.2-2.3.5-3.2c.3-.9.8-1.5 1.3-1.9.5-.4 1.2-.6 1.8-.6s1.3.2 1.8.6c.6.4 1 1 1.3 1.9s.5 1.9.5 3.2-.2 2.3-.5 3.2-.8 1.5-1.3 1.9c-.6.4-1.2.6-1.8.6s-1.3-.2-1.8-.6zm2.9-1c.3-.3.6-.8.8-1.5.2-.7.3-1.5.3-2.6s-.1-1.9-.3-2.6c-.2-.7-.5-1.2-.8-1.5-.3-.3-.7-.5-1.1-.5-.4 0-.8.2-1.1.5-.3.3-.6.8-.8 1.5s-.3 1.6-.3 2.6c0 1.1.1 1.9.3 2.6s.5 1.2.8 1.5c.3.3.7.5 1.1.5.4-.1.8-.2 1.1-.5zM234.1 284.2c-.7-.7-1-1.8-1-3.3 0-1.5.4-2.6 1.1-3.3.7-.7 1.6-1 2.7-1 .6 0 1.2.1 1.7.2s.7.3.7.5c0 .1-.1.3-.2.5s-.2.3-.3.3h-.1-.1c-.6-.3-1.2-.4-1.7-.4-1.5 0-2.3 1-2.3 3.1 0 1.1.2 1.9.6 2.4.4.5 1 .8 1.9.8.7 0 1.3-.1 1.8-.4l.2-.1c.1 0 .2.1.4.3s.2.4.2.5-.1.3-.3.4c-.2.1-.5.2-.9.3-.4.1-.8.1-1.2.1-1.6.1-2.5-.3-3.2-.9z"/><path class="st3" d="M168.1 291.3h-14.7c-2.2 0-4-1.8-4-4v-14.7c0-2.2 1.8-4 4-4h14.7c2.2 0 4 1.8 4 4v14.7c0 2.2-1.8 4-4 4z"/></g><g><path class="st5" d="M442.6 286c-.1 0-.1-.1-.1-.2 0 0 .1-.5.2-1.4l.3-1.5h-1.2c-.1 0-.2 0-.2-.1-.1-.1-.1-.2-.1-.4v-.3c0-.2 0-.3.1-.4.1-.1.1-.1.2-.1h1.5l.4-2.4h-1.3c-.1 0-.2 0-.2-.1-.1-.1-.1-.2-.1-.4v-.3c0-.2 0-.3.1-.4.1-.1.1-.1.2-.1h1.5l.5-2.7c0-.1.1-.2.2-.3.1-.1.3-.1.5-.1h.1c.3 0 .4.1.4.2l-.5 2.8h1.9l.5-2.7c0-.1.1-.2.2-.3.1-.1.3-.1.5-.1h.1c.3 0 .4.1.4.2l-.5 2.8h1.1c.1 0 .2 0 .2.1s.1.2.1.4v.3c0 .2 0 .3-.1.4 0 .1-.1.1-.2.1H448l-.4 2.4h1.2c.1 0 .2 0 .2.1s.1.2.1.4v.3c0 .2 0 .3-.1.4 0 .1-.1.1-.2.1h-1.5l-.5 2.8c0 .1-.1.2-.2.3-.1.1-.3.1-.5.1h-.1c-.2 0-.3 0-.3-.1-.1 0-.1-.1-.1-.2 0 0 .1-.5.2-1.4l.3-1.5h-1.9l-.5 2.8c0 .1-.1.2-.2.3-.1.1-.3.1-.5.1h-.1c-.1.1-.2.1-.3.1zm3.7-4.4l.4-2.4h-1.9l-.4 2.4h1.9zM451.7 285.1c-.6-.7-1-1.8-1-3.2 0-1.4.3-2.5.9-3.2.6-.7 1.6-1.1 2.8-1.1 1.1 0 1.9.4 2.5 1.1.6.7.8 1.7.8 3.1 0 .1-.1.2-.2.4s-.2.3-.3.3h-5.1c.1.9.3 1.5.7 2s1 .6 1.8.6c.4 0 .8-.1 1.2-.2.3-.1.6-.2.8-.3.2-.1.3-.2.4-.2.1 0 .2.1.4.3.1.2.2.4.2.5 0 .1-.1.3-.4.4-.3.2-.6.3-1.1.4-.4.1-.9.2-1.4.2-1.4-.1-2.4-.4-3-1.1zm4.6-3.9c0-1.7-.6-2.5-1.9-2.5-1.4 0-2.1.8-2.2 2.5h4.1zM459.2 285.9c-.1-.1-.1-.2-.1-.4v-.2c0-.2 0-.3.1-.4.1-.1.1-.1.2-.1h2.8v-8.6l-2.8.5c-.1 0-.2-.1-.2-.3-.1-.2-.1-.4-.1-.5 0-.2.1-.3.3-.3l3.7-.8c.1 0 .2 0 .3.1.1.1.2.1.2.2v9.7h2.4c.1 0 .2 0 .2.1s.1.2.1.4v.2c0 .2 0 .3-.1.4 0 .1-.1.1-.2.1h-6.5c-.2 0-.2 0-.3-.1zM468.7 286c-.1 0-.2-.1-.2-.2 0 0 0-.1.1-.2l4.6-9.6h-5c-.1 0-.2 0-.2-.1-.1-.1-.1-.2-.1-.4v-.2c0-.2 0-.3.1-.4s.1-.1.2-.1h6.3c.1 0 .1.1.2.3.1.2.1.4.1.5v.2l-4.7 10c0 .1-.1.1-.2.2s-.2.1-.4.1h-.2c-.3-.1-.5-.1-.6-.1zM478 285.5c-.5-.4-1-1-1.3-1.9-.3-.9-.5-1.9-.5-3.2s.2-2.3.5-3.2c.3-.9.8-1.5 1.3-1.9.5-.4 1.2-.6 1.8-.6s1.3.2 1.8.6c.6.4 1 1 1.3 1.9s.5 1.9.5 3.2-.2 2.3-.5 3.2-.8 1.5-1.3 1.9c-.6.4-1.2.6-1.8.6s-1.3-.2-1.8-.6zm3-1c.3-.3.6-.8.8-1.5.2-.7.3-1.5.3-2.6s-.1-1.9-.3-2.6c-.2-.7-.5-1.2-.8-1.5-.3-.3-.7-.5-1.1-.5-.4 0-.8.2-1.1.5-.3.3-.6.8-.8 1.5s-.3 1.6-.3 2.6c0 1.1.1 1.9.3 2.6s.5 1.2.8 1.5c.3.3.7.5 1.1.5.3 0 .7-.2 1.1-.5zM486.5 285.5c-.5-.4-1-1-1.3-1.9-.3-.9-.5-1.9-.5-3.2s.2-2.3.5-3.2c.3-.9.8-1.5 1.3-1.9.5-.4 1.2-.6 1.8-.6s1.3.2 1.8.6c.6.4 1 1 1.3 1.9s.5 1.9.5 3.2-.2 2.3-.5 3.2-.8 1.5-1.3 1.9c-.6.4-1.2.6-1.8.6s-1.2-.2-1.8-.6zm3-1c.3-.3.6-.8.8-1.5.2-.7.3-1.5.3-2.6s-.1-1.9-.3-2.6c-.2-.7-.5-1.2-.8-1.5-.3-.3-.7-.5-1.1-.5-.4 0-.8.2-1.1.5-.3.3-.6.8-.8 1.5s-.3 1.6-.3 2.6c0 1.1.1 1.9.3 2.6s.5 1.2.8 1.5c.3.3.7.5 1.1.5.4 0 .8-.2 1.1-.5zM495.1 285.5c-.5-.4-1-1-1.3-1.9-.3-.9-.5-1.9-.5-3.2s.2-2.3.5-3.2c.3-.9.8-1.5 1.3-1.9.5-.4 1.2-.6 1.8-.6s1.3.2 1.8.6c.6.4 1 1 1.3 1.9s.5 1.9.5 3.2-.2 2.3-.5 3.2-.8 1.5-1.3 1.9c-.6.4-1.2.6-1.8.6s-1.2-.2-1.8-.6zm3-1c.3-.3.6-.8.8-1.5.2-.7.3-1.5.3-2.6s-.1-1.9-.3-2.6c-.2-.7-.5-1.2-.8-1.5-.3-.3-.7-.5-1.1-.5-.4 0-.8.2-1.1.5-.3.3-.6.8-.8 1.5s-.3 1.6-.3 2.6c0 1.1.1 1.9.3 2.6s.5 1.2.8 1.5c.3.3.7.5 1.1.5.3 0 .7-.2 1.1-.5z"/><path class="st2" d="M428.2 291.3h-14.7c-2.2 0-4-1.8-4-4v-14.7c0-2.2 1.8-4 4-4h14.7c2.2 0 4 1.8 4 4v14.7c0 2.2-1.7 4-4 4z"/></g><g><path class="st5" d="M574.7 285.2c-.1 0-.1-.1-.1-.2 0 0 .1-.5.2-1.4l.3-1.5h-1.2c-.1 0-.2 0-.2-.1-.1-.1-.1-.2-.1-.4v-.3c0-.2 0-.3.1-.4.1-.1.1-.1.2-.1h1.5l.4-2.4h-1.3c-.1 0-.2 0-.2-.1-.1-.1-.1-.2-.1-.4v-.3c0-.2 0-.3.1-.4.1-.1.1-.1.2-.1h1.5l.5-2.7c0-.1.1-.2.2-.3.1-.1.3-.1.5-.1h.1c.3 0 .4.1.4.2l-.5 2.8h1.9l.5-2.7c0-.1.1-.2.2-.3.1-.1.3-.1.5-.1h.1c.3 0 .4.1.4.2l-.5 2.8h1.1c.1 0 .2 0 .2.1s.1.2.1.4v.3c0 .2 0 .3-.1.4 0 .1-.1.1-.2.1H580l-.4 2.4h1.2c.1 0 .2 0 .2.1s.1.2.1.4v.3c0 .2 0 .3-.1.4 0 .1-.1.1-.2.1h-1.5l-.5 2.8c0 .1-.1.2-.2.3-.1.1-.3.1-.5.1h-.1c-.2 0-.3 0-.3-.1-.1 0-.1-.1-.1-.2 0 0 .1-.5.2-1.4l.3-1.5h-1.9l-.5 2.8c0 .1-.1.2-.2.3-.1.1-.3.1-.5.1-.2.2-.3.2-.3.1zm3.7-4.3l.4-2.4h-1.9l-.4 2.4h1.9zM583.6 284.3c-.6-.7-.9-1.7-.9-3 0-1.4.3-2.7 1-3.8.7-1.1 1.4-2 2.3-2.6s1.5-.9 1.9-.9c.1 0 .3.1.4.3.1.2.2.4.2.5 0 .1 0 .1-.1.2-1.1.4-1.9 1-2.6 1.8-.7.7-1.1 1.6-1.4 2.5.6-.4 1.3-.5 2.2-.5.6 0 1.1.1 1.5.4s.8.6 1.1 1.1c.3.5.4 1.1.4 1.7 0 .7-.2 1.2-.5 1.8-.3.5-.7.9-1.2 1.2-.5.3-1.1.4-1.8.4-1.1-.1-2-.4-2.5-1.1zm3.5-.4c.3-.2.6-.4.8-.7.2-.3.3-.7.3-1.2 0-.7-.2-1.3-.6-1.6-.4-.4-.9-.5-1.5-.5-.7 0-1.4.2-2 .5 0 .4-.1.7-.1 1 0 1 .2 1.7.6 2.1.4.4.9.6 1.5.6.4.1.7 0 1-.2zM592.1 284.3c-.6-.7-.9-1.7-.9-3 0-1.4.3-2.7 1-3.8.7-1.1 1.4-2 2.3-2.6s1.5-.9 1.9-.9c.1 0 .3.1.4.3.1.2.2.4.2.5 0 .1 0 .1-.1.2-1.1.4-1.9 1-2.6 1.8-.7.7-1.1 1.6-1.4 2.5.6-.4 1.3-.5 2.2-.5.6 0 1.1.1 1.5.4s.8.6 1.1 1.1c.3.5.4 1.1.4 1.7 0 .7-.2 1.2-.5 1.8-.3.5-.7.9-1.2 1.2-.5.3-1.1.4-1.8.4-1.1-.1-1.9-.4-2.5-1.1zm3.6-.4c.3-.2.6-.4.8-.7.2-.3.3-.7.3-1.2 0-.7-.2-1.3-.6-1.6-.4-.4-.9-.5-1.5-.5-.7 0-1.4.2-2 .5 0 .4-.1.7-.1 1 0 1 .2 1.7.6 2.1.4.4.9.6 1.5.6.3.1.7 0 1-.2zM600.7 284.3c-.6-.7-.9-1.7-.9-3 0-1.4.3-2.7 1-3.8.7-1.1 1.4-2 2.3-2.6s1.5-.9 1.9-.9c.1 0 .3.1.4.3.1.2.2.4.2.5 0 .1 0 .1-.1.2-1.1.4-1.9 1-2.6 1.8-.7.7-1.1 1.6-1.4 2.5.6-.4 1.3-.5 2.2-.5.6 0 1.1.1 1.5.4s.8.6 1.1 1.1c.3.5.4 1.1.4 1.7 0 .7-.2 1.2-.5 1.8-.3.5-.7.9-1.2 1.2-.5.3-1.1.4-1.8.4-1.1-.1-2-.4-2.5-1.1zm3.5-.4c.3-.2.6-.4.8-.7.2-.3.3-.7.3-1.2 0-.7-.2-1.3-.6-1.6-.4-.4-.9-.5-1.5-.5-.7 0-1.4.2-2 .5 0 .4-.1.7-.1 1 0 1 .2 1.7.6 2.1.4.4.9.6 1.5.6.4.1.7 0 1-.2zM609.2 284.3c-.6-.7-.9-1.7-.9-3 0-1.4.3-2.7 1-3.8.7-1.1 1.4-2 2.3-2.6s1.5-.9 1.9-.9c.1 0 .3.1.4.3.1.2.2.4.2.5 0 .1 0 .1-.1.2-1.1.4-1.9 1-2.6 1.8-.7.7-1.1 1.6-1.4 2.5.6-.4 1.3-.5 2.2-.5.6 0 1.1.1 1.5.4s.8.6 1.1 1.1c.3.5.4 1.1.4 1.7 0 .7-.2 1.2-.5 1.8-.3.5-.7.9-1.2 1.2-.5.3-1.1.4-1.8.4-1-.1-1.9-.4-2.5-1.1zm3.6-.4c.3-.2.6-.4.8-.7.2-.3.3-.7.3-1.2 0-.7-.2-1.3-.6-1.6-.4-.4-.9-.5-1.5-.5-.7 0-1.4.2-2 .5 0 .4-.1.7-.1 1 0 1 .2 1.7.6 2.1.4.4.9.6 1.5.6.4.1.7 0 1-.2zM617.8 284.3c-.6-.7-.9-1.7-.9-3 0-1.4.3-2.7 1-3.8.7-1.1 1.4-2 2.3-2.6s1.5-.9 1.9-.9c.1 0 .3.1.4.3.1.2.2.4.2.5 0 .1 0 .1-.1.2-1.1.4-1.9 1-2.6 1.8-.7.7-1.1 1.6-1.4 2.5.6-.4 1.3-.5 2.2-.5.6 0 1.1.1 1.5.4s.8.6 1.1 1.1c.3.5.4 1.1.4 1.7 0 .7-.2 1.2-.5 1.8-.3.5-.7.9-1.2 1.2-.5.3-1.1.4-1.8.4-1.1-.1-1.9-.4-2.5-1.1zm3.5-.4c.3-.2.6-.4.8-.7.2-.3.3-.7.3-1.2 0-.7-.2-1.3-.6-1.6-.4-.4-.9-.5-1.5-.5-.7 0-1.4.2-2 .5 0 .4-.1.7-.1 1 0 1 .2 1.7.6 2.1.4.4.9.6 1.5.6.4.1.7 0 1-.2zM626.4 284.3c-.6-.7-.9-1.7-.9-3 0-1.4.3-2.7 1-3.8.7-1.1 1.4-2 2.3-2.6s1.5-.9 1.9-.9c.1 0 .3.1.4.3.1.2.2.4.2.5 0 .1 0 .1-.1.2-1.1.4-1.9 1-2.6 1.8-.7.7-1.1 1.6-1.4 2.5.6-.4 1.3-.5 2.2-.5.6 0 1.1.1 1.5.4s.8.6 1.1 1.1c.3.5.4 1.1.4 1.7 0 .7-.2 1.2-.5 1.8-.3.5-.7.9-1.2 1.2-.5.3-1.1.4-1.8.4-1.1-.1-2-.4-2.5-1.1zm3.5-.4c.3-.2.6-.4.8-.7.2-.3.3-.7.3-1.2 0-.7-.2-1.3-.6-1.6-.4-.4-.9-.5-1.5-.5-.7 0-1.4.2-2 .5 0 .4-.1.7-.1 1 0 1 .2 1.7.6 2.1.4.4.9.6 1.5.6.4.1.7 0 1-.2zM556.9 291.3h-14.7c-2.2 0-4-1.8-4-4v-14.7c0-2.2 1.8-4 4-4h14.7c2.2 0 4 1.8 4 4v14.7c0 2.2-1.8 4-4 4z"/></g><g><path class="st6" d="M310.3 43.4c-.1-.2-.1-.3-.1-.5s0-.3.1-.3l4.6-5.8c.4-.5.6-.9.8-1.2s.3-.5.3-.7c0-.2.1-.4.1-.7 0-.6-.2-1-.6-1.4-.4-.3-1-.5-1.6-.5-.5 0-.9.1-1.3.2s-.7.3-1 .5l-.4.2c-.1 0-.2-.1-.4-.4-.1-.2-.2-.4-.2-.5 0-.2.2-.5.6-.7.4-.2.8-.4 1.3-.5.5-.1 1-.2 1.4-.2 1.2 0 2.1.3 2.8.8.7.5 1 1.3 1 2.2 0 .6-.1 1.1-.3 1.6-.2.5-.5 1-1 1.7s-1.4 1.8-2.8 3.5l-1.3 1.6h5.2c.1 0 .2 0 .3.1.1.1.1.2.1.4v.2c0 .2 0 .3-.1.4-.1.1-.1.1-.3.1h-6.9c-.1.1-.2.1-.3-.1zM321.4 43.6c-.5-.1-.9-.3-1.2-.4s-.4-.3-.4-.5.1-.4.2-.6c.2-.2.3-.3.4-.3.1 0 .2.1.5.2.3.2.7.3 1 .4.3.1.7.1 1.2.1.8 0 1.4-.2 2-.7s.8-1.1.8-2c0-.8-.3-1.4-.8-1.8-.6-.4-1.4-.6-2.4-.6h-1.5c-.2 0-.3 0-.4-.1-.1-.1-.1-.2-.1-.4l.3-5.2c0-.2.1-.3.2-.4.1-.1.2-.1.4-.1h4.8c.1 0 .2 0 .3.1.1.1.1.2.1.4v.2c0 .2 0 .3-.1.4-.1.1-.1.1-.3.1h-3.9l-.2 3.7h.9c.7 0 1.4.1 2.1.4s1.2.6 1.6 1.2c.4.6.6 1.3.6 2.2 0 1.4-.4 2.4-1.3 3s-1.9.9-3.1.9c-.6-.1-1.1-.1-1.7-.2zM330.5 42.5c-.6-.8-1-1.9-1-3.4 0-1.6.4-3 1.1-4.2s1.6-2.2 2.6-2.9c1-.7 1.7-1.1 2.2-1.1.2 0 .3.1.4.4.1.2.2.4.2.6 0 .1 0 .2-.1.2-1.2.5-2.2 1.1-2.9 2-.7.8-1.3 1.8-1.6 2.8.7-.4 1.5-.6 2.4-.6.6 0 1.2.2 1.7.5s.9.7 1.2 1.3c.3.6.5 1.2.5 1.9s-.2 1.4-.5 2c-.3.6-.8 1-1.4 1.3-.6.3-1.2.5-2 .5-1.2-.1-2.2-.5-2.8-1.3zm4-.3c.3-.2.6-.4.9-.8.2-.4.4-.8.4-1.3 0-.8-.2-1.4-.7-1.8s-1-.6-1.7-.6c-.8 0-1.5.2-2.2.6 0 .5-.1.8-.1 1.1 0 1.1.2 1.9.7 2.4s1 .7 1.7.7c.3-.1.6-.2 1-.3zM339.8 47V37c0-.8 0-1.4-.1-1.7-.1-.3-.1-.5-.1-.6 0-.1.1-.2.3-.3.2-.1.4-.1.6-.1.2 0 .3.1.4.3.1.2.1.4.2.5s.1.3.1.4c.9-.9 1.8-1.4 2.9-1.4.7 0 1.4.2 1.9.6.5.4.9 1 1.2 1.7s.4 1.6.4 2.5c0 1-.2 1.9-.5 2.6-.3.7-.7 1.3-1.3 1.6-.6.4-1.2.6-1.9.6-.5 0-1-.1-1.4-.2-.4-.2-.8-.4-1.2-.7V47c0 .3-.2.4-.7.4h-.1c-.5 0-.7-.2-.7-.4zm5.5-5.5c.4-.6.6-1.4.6-2.5 0-1.2-.2-2.1-.6-2.7-.4-.6-.9-.9-1.6-.9-.4 0-.8.1-1.3.3-.4.2-.8.5-1.2.9v4.9c.6.5 1.4.8 2.2.8.9.1 1.5-.2 1.9-.8zM349.1 43.6c-.1 0-.2-.1-.2-.2s0-.2.1-.3l2.9-4.2-2.7-4c-.1-.1-.1-.2-.1-.3 0-.2.3-.3.8-.3h.2c.2 0 .4 0 .5.1s.2.1.3.2l1.7 2.6c.1.1.2.3.4.6.2-.3.3-.5.4-.6l1.7-2.6c.1-.2.4-.3.8-.3h.1c.3 0 .5 0 .6.1.1 0 .2.1.2.2s0 .2-.1.3l-2.7 4 2.9 4.3c.1.1.1.2.1.3 0 .2-.3.3-.8.3h-.2c-.2 0-.4 0-.5-.1s-.2-.1-.3-.2l-1.9-2.9c-.1-.1-.2-.3-.4-.6-.2.3-.3.5-.4.6l-1.9 2.9c-.1.2-.4.3-.8.3h-.1c-.3-.1-.5-.2-.6-.2z"/></g><path class="st7" d="M174.4 94.1v149"/><g><path class="st8" d="M35.2 22.8h553.3"/><path class="st6" d="M38 26.9l-15.4-4.1L38 18.7zM585.7 26.9l15.4-4.1-15.4-4.1z"/></g><path class="st7" d="M603.6 32.3v101.2M20.1 32.3v101.2M144.6 153.7h149.1M144.6 222.9h149.1"/><g><path class="st8" d="M153.9 209.2v-41.1"/><path class="st6" d="M158 206.4l-4.1 15.3-4.1-15.3zM158 170.9l-4.1-15.3-4.1 15.3z"/></g><g><path class="st6" d="M113.4 200.9c-.6-.1-1-.2-1.3-.4-.3-.2-.5-.3-.5-.5s.1-.4.2-.6.3-.3.4-.3c.1 0 .3 0 .5.1.8.3 1.5.5 2.3.5.7 0 1.3-.2 1.8-.6s.8-1 .8-1.9c0-.9-.2-1.5-.7-1.8-.5-.4-1.1-.5-2-.5h-.6c-.1 0-.2 0-.3-.1-.1-.1-.1-.2-.1-.4v-.2c0-.2 0-.3.1-.4.1-.1.2-.1.3-.1h.5c.6 0 1-.1 1.4-.4.4-.3.6-.6.8-.9.2-.4.2-.7.2-1 0-.4-.2-.8-.5-1.2-.3-.4-.9-.5-1.7-.5-.5 0-.9 0-1.3.1l-.9.3c-.2.1-.3.1-.4.1-.1 0-.2-.1-.4-.4-.1-.2-.2-.4-.2-.6 0-.3.4-.5 1.1-.7.8-.2 1.5-.3 2.1-.3 1.1 0 2 .3 2.6.8s1 1.3 1 2.4c0 .6-.2 1.1-.5 1.5-.4.4-.8.8-1.3 1v.1c.6.2 1.1.5 1.6 1.1s.7 1.3.7 2.2c0 .9-.2 1.6-.6 2.1-.4.6-.9 1-1.5 1.2-.6.3-1.2.4-1.9.4-.5.1-1.2 0-1.7-.1zM122.3 199.9c-.6-.8-1-1.9-1-3.4 0-1.6.4-3 1.1-4.2s1.6-2.2 2.6-2.9 1.7-1.1 2.2-1.1c.2 0 .3.1.4.4.1.2.2.4.2.6 0 .1 0 .2-.1.2-1.2.5-2.2 1.1-2.9 2s-1.3 1.8-1.6 2.8c.7-.4 1.5-.6 2.4-.6.6 0 1.2.2 1.7.5s.9.7 1.2 1.3c.3.6.5 1.2.5 1.9s-.2 1.4-.5 2c-.3.6-.8 1-1.4 1.3-.6.3-1.2.5-2 .5-1.2-.1-2.1-.5-2.8-1.3zm4-.4c.3-.2.6-.4.9-.8.2-.4.4-.8.4-1.3 0-.8-.2-1.4-.7-1.8-.5-.4-1-.6-1.7-.6-.8 0-1.5.2-2.2.6 0 .5-.1.8-.1 1.1 0 1.1.2 1.9.7 2.4.5.5 1 .7 1.7.7.3 0 .7-.1 1-.3zM131.6 204.3v-10c0-.8 0-1.4-.1-1.7-.1-.3-.1-.5-.1-.6 0-.1.1-.2.3-.3.2-.1.4-.1.6-.1.2 0 .3.1.4.3s.1.4.2.5.1.3.1.4c.9-.9 1.8-1.4 2.9-1.4.7 0 1.4.2 1.9.6.5.4.9 1 1.2 1.7.3.7.4 1.6.4 2.5 0 1-.2 1.9-.5 2.6s-.7 1.3-1.3 1.6-1.2.6-1.9.6c-.5 0-1-.1-1.4-.2-.4-.2-.8-.4-1.2-.7v4.2c0 .3-.2.4-.7.4h-.1c-.5 0-.7-.1-.7-.4zm5.6-5.4c.4-.6.6-1.4.6-2.5 0-1.2-.2-2.1-.6-2.7s-.9-.9-1.6-.9c-.4 0-.8.1-1.3.3-.4.2-.8.5-1.2.9v4.9c.6.5 1.4.8 2.2.8.8 0 1.4-.2 1.9-.8zM140.9 200.9c-.1 0-.2-.1-.2-.2s0-.2.1-.3l2.9-4.2-2.7-4c-.1-.1-.1-.2-.1-.3 0-.2.3-.3.8-.3h.2c.2 0 .4 0 .5.1.1 0 .2.1.3.2l1.7 2.6c.1.1.2.3.4.6.2-.3.3-.5.4-.6l1.7-2.6c.1-.2.4-.3.8-.3h.1c.3 0 .5 0 .6.1.1 0 .2.1.2.2s0 .2-.1.3l-2.7 4 2.9 4.3c.1.1.1.2.1.3 0 .2-.3.3-.8.3h-.2c-.2 0-.4 0-.5-.1-.1 0-.2-.1-.3-.2l-1.9-2.9c-.1-.1-.2-.3-.4-.6-.2.3-.3.5-.4.6l-1.9 2.9c-.1.2-.4.3-.8.3h-.1c-.3-.1-.5-.1-.6-.2z"/></g><g><path class="st5" d="M312.3 285.1c-.1 0-.1-.1-.1-.2 0 0 .1-.5.2-1.4l.3-1.5h-1.2c-.1 0-.2 0-.2-.1-.1-.1-.1-.2-.1-.4v-.3c0-.2 0-.3.1-.4.1-.1.1-.1.2-.1h1.5l.4-2.4h-1.3c-.1 0-.2 0-.2-.1-.1-.1-.1-.2-.1-.4v-.3c0-.2 0-.3.1-.4.1-.1.1-.1.2-.1h1.5l.5-2.7c0-.1.1-.2.2-.3.1-.1.3-.1.5-.1h.1c.3 0 .4.1.4.2l-.5 2.8h1.9l.5-2.7c0-.1.1-.2.2-.3.1-.1.3-.1.5-.1h.1c.3 0 .4.1.4.2l-.5 2.8h1.1c.1 0 .2 0 .2.1s.1.2.1.4v.3c0 .2 0 .3-.1.4 0 .1-.1.1-.2.1h-1.3l-.4 2.4h1.2c.1 0 .2 0 .2.1s.1.2.1.4v.3c0 .2 0 .3-.1.4 0 .1-.1.1-.2.1H317l-.5 2.8c0 .1-.1.2-.2.3-.1.1-.3.1-.5.1h-.1c-.2 0-.3 0-.3-.1-.1 0-.1-.1-.1-.2 0 0 .1-.5.2-1.4l.3-1.5h-1.9l-.5 2.8c0 .1-.1.2-.2.3-.1.1-.3.1-.5.1h-.1c-.1.1-.2.1-.3.1zm3.8-4.4l.4-2.4h-1.9l-.4 2.4h1.9zM321.3 284.3c-.6-.6-1-1.4-1-2.5 0-.8.2-1.4.5-1.8.3-.4.7-.8 1.3-1-.4-.2-.7-.6-1-1s-.4-.9-.4-1.5c0-.9.3-1.6.9-2 .6-.5 1.3-.7 2.2-.7.9 0 1.6.2 2.2.7.6.5.9 1.2.9 2 0 1.1-.5 2-1.6 2.4.6.3 1.1.6 1.4 1s.5 1 .5 1.8c0 1.1-.3 1.9-1 2.5-.6.6-1.5.8-2.5.8-.9.2-1.7-.1-2.4-.7zm4-.8c.4-.4.6-.9.6-1.6 0-.4-.1-.8-.3-1.1-.2-.3-.4-.5-.7-.6-.3-.1-.7-.3-1.2-.5l-.5-.2c-.5.3-.8.6-1.1 1s-.4.8-.4 1.4c0 .7.2 1.2.6 1.6s.9.6 1.5.6c.6-.1 1.1-.3 1.5-.6zm.3-6.9c0-.5-.2-.9-.5-1.2-.3-.3-.7-.4-1.2-.4s-.9.1-1.2.4-.5.7-.5 1.2c0 .4.1.7.3 1s.4.4.7.6.6.3 1.1.4c.8-.6 1.3-1.2 1.3-2zM330.5 284.6c-.5-.4-1-1-1.3-1.9-.3-.9-.5-1.9-.5-3.2s.2-2.3.5-3.2c.3-.9.8-1.5 1.3-1.9.5-.4 1.2-.6 1.8-.6s1.3.2 1.8.6c.6.4 1 1 1.3 1.9s.5 1.9.5 3.2-.2 2.3-.5 3.2-.8 1.5-1.3 1.9c-.6.4-1.2.6-1.8.6s-1.2-.2-1.8-.6zm3-1c.3-.3.6-.8.8-1.5.2-.7.3-1.5.3-2.6s-.1-1.9-.3-2.6c-.2-.7-.5-1.2-.8-1.5-.3-.3-.7-.5-1.1-.5-.4 0-.8.2-1.1.5-.3.3-.6.8-.8 1.5s-.3 1.6-.3 2.6c0 1.1.1 1.9.3 2.6s.5 1.2.8 1.5c.3.3.7.5 1.1.5.4-.1.8-.2 1.1-.5zM339.3 284c-.1.3-.1.6-.3.9-.1.1-.2.2-.4.2h-.1c-.3 0-.5-.1-.5-.4v-11.4c0-.2.2-.4.6-.4h.1c.4 0 .6.1.6.4v4c.3-.3.7-.5 1-.6s.8-.2 1.2-.2c.6 0 1.2.2 1.7.5s.9.8 1.1 1.5c.3.6.4 1.4.4 2.3 0 .8-.1 1.6-.4 2.2-.3.7-.6 1.2-1.1 1.5-.5.4-1 .5-1.6.5-.7.2-1.6-.2-2.3-1zm3.7-.8c.3-.6.5-1.4.5-2.4s-.2-1.7-.5-2.2c-.4-.5-.9-.8-1.6-.8-.4 0-.7.1-1 .2-.3.1-.7.3-.9.5v4.4c.3.4.7.6 1 .8.4.2.7.3 1.1.3.6 0 1-.3 1.4-.8zM347.6 284.2c-.7-.7-1-1.8-1-3.3 0-1.5.4-2.6 1.1-3.3.7-.7 1.6-1 2.7-1 .6 0 1.2.1 1.7.2s.7.3.7.5c0 .1-.1.3-.2.5s-.2.3-.3.3h-.1-.1c-.6-.3-1.2-.4-1.7-.4-1.5 0-2.3 1-2.3 3.1 0 1.1.2 1.9.6 2.4.4.5 1 .8 1.9.8.7 0 1.3-.1 1.8-.4l.2-.1c.1 0 .2.1.4.3s.2.4.2.5-.1.3-.3.4c-.2.1-.5.2-.9.3-.4.1-.8.1-1.2.1-1.6.1-2.6-.3-3.2-.9zM356 284.6c-.5-.4-1-1-1.3-1.9-.3-.9-.5-1.9-.5-3.2s.2-2.3.5-3.2c.3-.9.8-1.5 1.3-1.9.5-.4 1.2-.6 1.8-.6s1.3.2 1.8.6c.6.4 1 1 1.3 1.9s.5 1.9.5 3.2-.2 2.3-.5 3.2-.8 1.5-1.3 1.9c-.6.4-1.2.6-1.8.6s-1.3-.2-1.8-.6zm2.9-1c.3-.3.6-.8.8-1.5.2-.7.3-1.5.3-2.6s-.1-1.9-.3-2.6c-.2-.7-.5-1.2-.8-1.5-.3-.3-.7-.5-1.1-.5-.4 0-.8.2-1.1.5-.3.3-.6.8-.8 1.5s-.3 1.6-.3 2.6c0 1.1.1 1.9.3 2.6s.5 1.2.8 1.5c.3.3.7.5 1.1.5.4-.1.8-.2 1.1-.5zM364.5 284.6c-.5-.4-1-1-1.3-1.9-.3-.9-.5-1.9-.5-3.2s.2-2.3.5-3.2c.3-.9.8-1.5 1.3-1.9.5-.4 1.2-.6 1.8-.6s1.3.2 1.8.6c.6.4 1 1 1.3 1.9s.5 1.9.5 3.2-.2 2.3-.5 3.2-.8 1.5-1.3 1.9c-.6.4-1.2.6-1.8.6s-1.2-.2-1.8-.6zm3-1c.3-.3.6-.8.8-1.5.2-.7.3-1.5.3-2.6s-.1-1.9-.3-2.6c-.2-.7-.5-1.2-.8-1.5-.3-.3-.7-.5-1.1-.5-.4 0-.8.2-1.1.5-.3.3-.6.8-.8 1.5s-.3 1.6-.3 2.6c0 1.1.1 1.9.3 2.6s.5 1.2.8 1.5c.3.3.7.5 1.1.5.4-.1.7-.2 1.1-.5z"/><path class="st0" d="M298.2 291.3h-14.7c-2.2 0-4-1.8-4-4v-14.7c0-2.2 1.8-4 4-4h14.7c2.2 0 4 1.8 4 4v14.7c0 2.2-1.8 4-4 4z"/></g><path fill="none" stroke="#666" stroke-width=".992" stroke-miterlimit="10" d="M0 320V0"/></svg>